<?xml version="1.0" standalone="no"?>
<svg width="567.429" height="533.889" viewBox="0 0 567.429 533.889" xmlns="http://www.w3.org/2000/svg" shape-rendering="crispEdges">
<title>
CB2Gaus700.svg
</title>
<desc>
Creator: ROOT Version 6.10/09
CreationDate: Sun Apr 19 21:03:25 2020</desc>
<defs>
</defs>
<rect x="0.5" y="0" width="566.929" height="533.389" fill="white"/>
<rect x="28.8465" y="0" width="510.236" height="389.374" fill="white"/>
<rect x="84.9724" y="38.9374" width="403.087" height="307.606" fill="white"/>
<rect x="84.9724" y="38.9374" width="403.087" height="307.606" fill="none" stroke="black"/>
<rect x="84.9724" y="38.9374" width="403.087" height="307.606" fill="white"/>
<rect x="84.9724" y="38.9374" width="403.087" height="307.606" fill="none" stroke="black"/>
<path d="M84.9724,346.543h 403.087" fill="none" stroke="black"/>
<path d="M125.281,337.315v 9.22817" fill="none" stroke="black"/>
<path d="M137.137,341.929v 4.61409" fill="none" stroke="black"/>
<path d="M148.992,341.929v 4.61409" fill="none" stroke="black"/>
<path d="M160.848,341.929v 4.61409" fill="none" stroke="black"/>
<path d="M172.703,341.929v 4.61409" fill="none" stroke="black"/>
<path d="M184.559,337.315v 9.22817" fill="none" stroke="black"/>
<path d="M196.414,341.929v 4.61409" fill="none" stroke="black"/>
<path d="M208.27,341.929v 4.61409" fill="none" stroke="black"/>
<path d="M220.125,341.929v 4.61409" fill="none" stroke="black"/>
<path d="M231.98,341.929v 4.61409" fill="none" stroke="black"/>
<path d="M243.836,337.315v 9.22817" fill="none" stroke="black"/>
<path d="M255.691,341.929v 4.61409" fill="none" stroke="black"/>
<path d="M267.547,341.929v 4.61409" fill="none" stroke="black"/>
<path d="M279.402,341.929v 4.61409" fill="none" stroke="black"/>
<path d="M291.258,341.929v 4.61409" fill="none" stroke="black"/>
<path d="M303.113,337.315v 9.22817" fill="none" stroke="black"/>
<path d="M314.969,341.929v 4.61409" fill="none" stroke="black"/>
<path d="M326.824,341.929v 4.61409" fill="none" stroke="black"/>
<path d="M338.68,341.929v 4.61409" fill="none" stroke="black"/>
<path d="M350.535,341.929v 4.61409" fill="none" stroke="black"/>
<path d="M362.391,337.315v 9.22817" fill="none" stroke="black"/>
<path d="M374.246,341.929v 4.61409" fill="none" stroke="black"/>
<path d="M386.102,341.929v 4.61409" fill="none" stroke="black"/>
<path d="M397.957,341.929v 4.61409" fill="none" stroke="black"/>
<path d="M409.813,341.929v 4.61409" fill="none" stroke="black"/>
<path d="M421.668,337.315v 9.22817" fill="none" stroke="black"/>
<path d="M433.524,341.929v 4.61409" fill="none" stroke="black"/>
<path d="M445.379,341.929v 4.61409" fill="none" stroke="black"/>
<path d="M457.235,341.929v 4.61409" fill="none" stroke="black"/>
<path d="M469.09,341.929v 4.61409" fill="none" stroke="black"/>
<path d="M480.946,337.315v 9.22817" fill="none" stroke="black"/>
<path d="M125.281,337.315v 9.22817" fill="none" stroke="black"/>
<path d="M113.426,341.929v 4.61409" fill="none" stroke="black"/>
<path d="M101.57,341.929v 4.61409" fill="none" stroke="black"/>
<path d="M89.7146,341.929v 4.61409" fill="none" stroke="black"/>
<path d="M480.946,337.315v 9.22817" fill="none" stroke="black"/>
<text xml:space="preserve" x="111.938" y="362.445" fill="black" font-size="16.5751" font-family="Helvetica">600</text>
<text xml:space="preserve" x="171.174" y="362.445" fill="black" font-size="16.5751" font-family="Helvetica">650</text>
<text xml:space="preserve" x="230.409" y="362.445" fill="black" font-size="16.5751" font-family="Helvetica">700</text>
<text xml:space="preserve" x="289.645" y="362.445" fill="black" font-size="16.5751" font-family="Helvetica">750</text>
<text xml:space="preserve" x="348.88" y="362.445" fill="black" font-size="16.5751" font-family="Helvetica">800</text>
<text xml:space="preserve" x="408.386" y="362.445" fill="black" font-size="16.5751" font-family="Helvetica">850</text>
<text xml:space="preserve" x="467.621" y="362.445" fill="black" font-size="16.5751" font-family="Helvetica">900</text>
<path d="M84.9724,346.543v -307.606" fill="none" stroke="black"/>
<path d="M97.065,346.543h -12.0926" fill="none" stroke="black"/>
<path d="M91.0187,337.754h -6.0463" fill="none" stroke="black"/>
<path d="M91.0187,328.966h -6.0463" fill="none" stroke="black"/>
<path d="M91.0187,320.177h -6.0463" fill="none" stroke="black"/>
<path d="M91.0187,311.388h -6.0463" fill="none" stroke="black"/>
<path d="M97.065,302.599h -12.0926" fill="none" stroke="black"/>
<path d="M91.0187,293.811h -6.0463" fill="none" stroke="black"/>
<path d="M91.0187,285.022h -6.0463" fill="none" stroke="black"/>
<path d="M91.0187,276.233h -6.0463" fill="none" stroke="black"/>
<path d="M91.0187,267.444h -6.0463" fill="none" stroke="black"/>
<path d="M97.065,258.656h -12.0926" fill="none" stroke="black"/>
<path d="M91.0187,249.867h -6.0463" fill="none" stroke="black"/>
<path d="M91.0187,241.078h -6.0463" fill="none" stroke="black"/>
<path d="M91.0187,232.29h -6.0463" fill="none" stroke="black"/>
<path d="M91.0187,223.501h -6.0463" fill="none" stroke="black"/>
<path d="M97.065,214.712h -12.0926" fill="none" stroke="black"/>
<path d="M91.0187,205.923h -6.0463" fill="none" stroke="black"/>
<path d="M91.0187,197.135h -6.0463" fill="none" stroke="black"/>
<path d="M91.0187,188.346h -6.0463" fill="none" stroke="black"/>
<path d="M91.0187,179.557h -6.0463" fill="none" stroke="black"/>
<path d="M97.065,170.768h -12.0926" fill="none" stroke="black"/>
<path d="M91.0187,161.98h -6.0463" fill="none" stroke="black"/>
<path d="M91.0187,153.191h -6.0463" fill="none" stroke="black"/>
<path d="M91.0187,144.402h -6.0463" fill="none" stroke="black"/>
<path d="M91.0187,135.613h -6.0463" fill="none" stroke="black"/>
<path d="M97.065,126.825h -12.0926" fill="none" stroke="black"/>
<path d="M91.0187,118.036h -6.0463" fill="none" stroke="black"/>
<path d="M91.0187,109.247h -6.0463" fill="none" stroke="black"/>
<path d="M91.0187,100.459h -6.0463" fill="none" stroke="black"/>
<path d="M91.0187,91.6698h -6.0463" fill="none" stroke="black"/>
<path d="M97.065,82.8811h -12.0926" fill="none" stroke="black"/>
<path d="M91.0187,74.0924h -6.0463" fill="none" stroke="black"/>
<path d="M91.0187,65.3036h -6.0463" fill="none" stroke="black"/>
<path d="M91.0187,56.5149h -6.0463" fill="none" stroke="black"/>
<path d="M91.0187,47.7262h -6.0463" fill="none" stroke="black"/>
<path d="M97.065,38.9374h -12.0926" fill="none" stroke="black"/>
<text xml:space="preserve" x="73.8005" y="352.167" fill="black" font-size="16.5751" font-family="Helvetica">0</text>
<text xml:space="preserve" x="55.6782" y="308.078" fill="black" font-size="16.5751" font-family="Helvetica">100</text>
<text xml:space="preserve" x="55.6782" y="264.26" fill="black" font-size="16.5751" font-family="Helvetica">200</text>
<text xml:space="preserve" x="55.6782" y="220.172" fill="black" font-size="16.5751" font-family="Helvetica">300</text>
<text xml:space="preserve" x="55.6782" y="176.354" fill="black" font-size="16.5751" font-family="Helvetica">400</text>
<text xml:space="preserve" x="55.6782" y="132.265" fill="black" font-size="16.5751" font-family="Helvetica">500</text>
<text xml:space="preserve" x="55.6782" y="88.4474" fill="black" font-size="16.5751" font-family="Helvetica">600</text>
<text xml:space="preserve" x="55.6782" y="44.359" fill="black" font-size="16.5751" font-family="Helvetica">700</text>
<g transform="rotate(-90,41.0722,156.609)">
<text xml:space="preserve" x="41.0722" y="156.609" fill="black" font-size="16.5751" font-family="Helvetica">Events / 20 GeV</text>
</g>
<path d="M137.137,320.479h -11.8555" fill="none" stroke="black"/>
<path d="M125.281,321.02v -1.08193" fill="none" stroke="black"/>
<path d="M137.137,320.479h 11.8555" fill="none" stroke="black"/>
<path d="M148.992,321.02v -1.08193" fill="none" stroke="black"/>
<path d="M137.137,320.479v -3.57217" fill="none" stroke="black"/>
<path d="M136.596,316.907h 1.08193" fill="none" stroke="black"/>
<path d="M137.137,320.479v 3.57217" fill="none" stroke="black"/>
<path d="M136.596,324.051h 1.08193" fill="none" stroke="black"/>
<path d="M160.848,301.23h -11.8555" fill="none" stroke="black"/>
<path d="M148.992,301.771v -1.08193" fill="none" stroke="black"/>
<path d="M160.848,301.23h 11.8555" fill="none" stroke="black"/>
<path d="M172.703,301.771v -1.08193" fill="none" stroke="black"/>
<path d="M160.848,301.23v -4.78162" fill="none" stroke="black"/>
<path d="M160.307,296.449h 1.08193" fill="none" stroke="black"/>
<path d="M160.848,301.23v 4.78162" fill="none" stroke="black"/>
<path d="M160.307,306.012h 1.08193" fill="none" stroke="black"/>
<path d="M184.559,262.644h -11.8555" fill="none" stroke="black"/>
<path d="M172.703,263.185v -1.08193" fill="none" stroke="black"/>
<path d="M184.559,262.644h 11.8555" fill="none" stroke="black"/>
<path d="M196.414,263.185v -1.08193" fill="none" stroke="black"/>
<path d="M184.559,262.644v -6.45571" fill="none" stroke="black"/>
<path d="M184.018,256.188h 1.08193" fill="none" stroke="black"/>
<path d="M184.559,262.644v 6.45571" fill="none" stroke="black"/>
<path d="M184.018,269.1h 1.08193" fill="none" stroke="black"/>
<path d="M208.27,199.339h -11.8555" fill="none" stroke="black"/>
<path d="M196.414,199.88v -1.08193" fill="none" stroke="black"/>
<path d="M208.27,199.339h 11.8555" fill="none" stroke="black"/>
<path d="M220.125,199.88v -1.08193" fill="none" stroke="black"/>
<path d="M208.27,199.339v -8.4568" fill="none" stroke="black"/>
<path d="M207.729,190.883h 1.08193" fill="none" stroke="black"/>
<path d="M208.27,199.339v 8.4568" fill="none" stroke="black"/>
<path d="M207.729,207.796h 1.08193" fill="none" stroke="black"/>
<path d="M231.98,148.996h -11.8555" fill="none" stroke="black"/>
<path d="M220.125,149.537v -1.08193" fill="none" stroke="black"/>
<path d="M231.98,148.996h 11.8555" fill="none" stroke="black"/>
<path d="M243.836,149.537v -1.08193" fill="none" stroke="black"/>
<path d="M231.98,148.996v -9.9318" fill="none" stroke="black"/>
<path d="M231.44,139.064h 1.08193" fill="none" stroke="black"/>
<path d="M231.98,148.996v 9.9318" fill="none" stroke="black"/>
<path d="M231.44,158.928h 1.08193" fill="none" stroke="black"/>
<path d="M255.691,105.689h -11.8555" fill="none" stroke="black"/>
<path d="M243.836,106.23v -1.08193" fill="none" stroke="black"/>
<path d="M255.691,105.689h 11.8555" fill="none" stroke="black"/>
<path d="M267.547,106.23v -1.08193" fill="none" stroke="black"/>
<path d="M255.691,105.689v -10.867" fill="none" stroke="black"/>
<path d="M255.151,94.8217h 1.08193" fill="none" stroke="black"/>
<path d="M255.691,105.689v 10.867" fill="none" stroke="black"/>
<path d="M255.151,116.556h 1.08193" fill="none" stroke="black"/>
<path d="M279.402,139.924h -11.8555" fill="none" stroke="black"/>
<path d="M267.547,140.465v -1.08193" fill="none" stroke="black"/>
<path d="M279.402,139.924h 11.8555" fill="none" stroke="black"/>
<path d="M291.258,140.465v -1.08193" fill="none" stroke="black"/>
<path d="M279.402,139.924v -9.9273" fill="none" stroke="black"/>
<path d="M278.861,129.997h 1.08193" fill="none" stroke="black"/>
<path d="M279.402,139.924v 9.9273" fill="none" stroke="black"/>
<path d="M278.861,149.852h 1.08193" fill="none" stroke="black"/>
<path d="M303.113,233.626h -11.8555" fill="none" stroke="black"/>
<path d="M291.258,234.167v -1.08193" fill="none" stroke="black"/>
<path d="M303.113,233.626h 11.8555" fill="none" stroke="black"/>
<path d="M314.969,234.167v -1.08193" fill="none" stroke="black"/>
<path d="M303.113,233.626v -7.44118" fill="none" stroke="black"/>
<path d="M302.572,226.185h 1.08193" fill="none" stroke="black"/>
<path d="M303.113,233.626v 7.44118" fill="none" stroke="black"/>
<path d="M302.572,241.067h 1.08193" fill="none" stroke="black"/>
<path d="M326.824,274.733h -11.8555" fill="none" stroke="black"/>
<path d="M314.969,275.274v -1.08193" fill="none" stroke="black"/>
<path d="M326.824,274.733h 11.8555" fill="none" stroke="black"/>
<path d="M338.68,275.274v -1.08193" fill="none" stroke="black"/>
<path d="M326.824,274.733v -5.98761" fill="none" stroke="black"/>
<path d="M326.283,268.746h 1.08193" fill="none" stroke="black"/>
<path d="M326.824,274.733v 5.98761" fill="none" stroke="black"/>
<path d="M326.283,280.721h 1.08193" fill="none" stroke="black"/>
<path d="M350.535,314.76h -11.8555" fill="none" stroke="black"/>
<path d="M338.68,315.301v -1.08193" fill="none" stroke="black"/>
<path d="M350.535,314.76h 11.8555" fill="none" stroke="black"/>
<path d="M362.391,315.301v -1.08193" fill="none" stroke="black"/>
<path d="M350.535,314.76v -3.90358" fill="none" stroke="black"/>
<path d="M349.994,310.856h 1.08193" fill="none" stroke="black"/>
<path d="M350.535,314.76v 3.90358" fill="none" stroke="black"/>
<path d="M349.994,318.663h 1.08193" fill="none" stroke="black"/>
<path d="M374.246,331.052h -11.8555" fill="none" stroke="black"/>
<path d="M362.391,331.593v -1.08193" fill="none" stroke="black"/>
<path d="M374.246,331.052h 11.8555" fill="none" stroke="black"/>
<path d="M386.102,331.593v -1.08193" fill="none" stroke="black"/>
<path d="M374.246,331.052v -2.82715" fill="none" stroke="black"/>
<path d="M373.705,328.225h 1.08193" fill="none" stroke="black"/>
<path d="M374.246,331.052v 2.82715" fill="none" stroke="black"/>
<path d="M373.705,333.879h 1.08193" fill="none" stroke="black"/>
<path d="M397.957,334.093h -11.8555" fill="none" stroke="black"/>
<path d="M386.102,334.634v -1.08193" fill="none" stroke="black"/>
<path d="M397.957,334.093h 11.8555" fill="none" stroke="black"/>
<path d="M409.813,334.634v -1.08193" fill="none" stroke="black"/>
<path d="M397.957,334.093v -2.61735" fill="none" stroke="black"/>
<path d="M397.416,331.476h 1.08193" fill="none" stroke="black"/>
<path d="M397.957,334.093v 2.61735" fill="none" stroke="black"/>
<path d="M397.416,336.711h 1.08193" fill="none" stroke="black"/>
<path d="M421.668,338.488h -11.8555" fill="none" stroke="black"/>
<path d="M409.813,339.029v -1.08193" fill="none" stroke="black"/>
<path d="M421.668,338.488h 11.8555" fill="none" stroke="black"/>
<path d="M433.524,339.029v -1.08193" fill="none" stroke="black"/>
<path d="M421.668,338.488v -1.97061" fill="none" stroke="black"/>
<path d="M421.127,336.517h 1.08193" fill="none" stroke="black"/>
<path d="M421.668,338.488v 1.97061" fill="none" stroke="black"/>
<path d="M421.127,340.459h 1.08193" fill="none" stroke="black"/>
<path d="M445.379,341.46h -11.8555" fill="none" stroke="black"/>
<path d="M433.524,342.001v -1.08193" fill="none" stroke="black"/>
<path d="M445.379,341.46h 11.8555" fill="none" stroke="black"/>
<path d="M457.235,342.001v -1.08193" fill="none" stroke="black"/>
<path d="M445.379,341.46v -1.50248" fill="none" stroke="black"/>
<path d="M444.838,339.957h 1.08193" fill="none" stroke="black"/>
<path d="M445.379,341.46v 1.50248" fill="none" stroke="black"/>
<path d="M444.838,342.962h 1.08193" fill="none" stroke="black"/>
<path d="M469.09,346.543h -11.8555" fill="none" stroke="black"/>
<path d="M457.235,346.543v -0.540963" fill="none" stroke="black"/>
<path d="M469.09,346.543h 11.8555" fill="none" stroke="black"/>
<path d="M480.946,346.543v -0.540963" fill="none" stroke="black"/>
<g stroke="black" stroke-width="1" fill="black">
<circle cx="137.137" cy="320.479" r="2.16385"/>
<circle cx="160.848" cy="301.23" r="2.16385"/>
<circle cx="184.559" cy="262.644" r="2.16385"/>
<circle cx="208.27" cy="199.339" r="2.16385"/>
<circle cx="231.98" cy="148.996" r="2.16385"/>
<circle cx="255.691" cy="105.689" r="2.16385"/>
<circle cx="279.402" cy="139.924" r="2.16385"/>
<circle cx="303.113" cy="233.626" r="2.16385"/>
<circle cx="326.824" cy="274.733" r="2.16385"/>
<circle cx="350.535" cy="314.76" r="2.16385"/>
<circle cx="374.246" cy="331.052" r="2.16385"/>
<circle cx="397.957" cy="334.093" r="2.16385"/>
<circle cx="421.668" cy="338.488" r="2.16385"/>
<circle cx="445.379" cy="341.46" r="2.16385"/>
<circle cx="469.09" cy="346.543" r="2.16385"/>
</g>
<path d="M84.9724,346.543h 1.18555" fill="none" stroke="#ff0000" stroke-width="3"/>
<path d="M86.158,346.543h 38.9008l 0.518678, -13.4935l 2.07471, -0.873877l 4.14942, -1.92509l 4.14942, -2.19062l 4.14942, -2.49513l 4.14942, -2.84335l 4.14942, -3.23979l 4.14942, -3.6884l 4.14942, -4.19213l 4.14942, -4.75241l 4.14942, -5.36859l
 4.14942, -6.03736l 4.14942, -6.75211l 4.14942, -7.5025l 4.14942, -8.27399l 4.14942, -9.04774l 4.14942, -9.80062l 4.14942, -10.5056l 4.14942, -11.1325l 4.14942, -11.6489l 4.14942, -12.0219l 4.14942, -12.2195l 4.14942, -12.2124l 4.14942, -11.9764l
 4.14942, -11.4938l 4.14942, -10.7553l 4.14942, -9.76138l 4.14942, -8.52299l 4.14942, -7.06172l 4.14942, -5.4094l 2.07471, -2.03635l 2.07471, -1.57059l 2.07471, -1.09366l 2.07471, -0.608916l 2.07471, -0.119802l 2.07471, 0.370172l 2.07471, 0.857488l
 2.07471, 1.33866l 4.14942, 4.07938l 4.14942, 5.8478l 4.14942, 7.45485l 4.14942, 8.86178l 4.14942, 10.0393l 4.14942, 10.9685l 4.14942, 11.6413l 4.14942, 12.0596l 4.14942, 12.2351l 4.14942, 12.1874l 4.14942, 11.942l 4.14942, 11.5292l 4.14942, 10.9814l
 4.14942, 10.3316l 4.14942, 9.6116l 4.14942, 8.85096l 4.14942, 8.07575l 4.14942, 7.30803l 4.14942, 6.56555l 4.14942, 5.86172l 4.14942, 5.20591l 4.14942, 4.60381l 4.14942, 4.05802l 4.14942, 3.56859l 4.14942, 3.13364l 4.14942, 2.74993l 4.14942,
 2.41332l 4.14942, 2.11923l 4.14942, 1.86291l 4.14942, 1.63977l 4.14942, 1.44546l 4.14942, 1.27605l 4.14942, 1.12803l 4.14942, 0.998362l 4.14942, 0.884415l 4.14942, 0.783975l 4.14942, 0.695174l 4.14942, 0.616453l 4.14942, 0.546505l 4.14942, 0.48424l
 4.14942, 0.428739l 4.14942, 0.379226l 4.14942, 0.335035l 4.14942, 0.295597l 4.14942, 0.260411l 4.14942, 0.229042" fill="none" stroke="#ff0000" stroke-width="3"/>
<path d="M84.9724,346.543h 40.0864l 0.518678, -11.4313l 2.07471, -0.788291l 4.14942, -1.83233l 4.14942, -2.15165l 4.14942, -2.41703l 4.14942, -2.74788l 4.14942, -3.1585l 4.14942, -3.50426l 4.14942, -3.80712l 4.14942, -4.496l 4.14942, -5.09327l
 4.14942, -5.70556l 4.14942, -6.51896l 4.14942, -7.202l 4.14942, -7.99285l 4.14942, -8.80833l 4.14942, -9.76997l 4.14942, -10.2246l 4.14942, -11.3614l 4.14942, -11.8777l 4.14942, -12.4368l 4.14942, -12.6078l 4.14942, -12.8524l 4.14942, -12.4643l
 4.14942, -11.7842l 4.14942, -11.0417l 4.14942, -9.92388l 4.14942, -8.5906l 4.14942, -6.81468l 4.14942, -5.25929l 2.07471, -1.70734l 2.07471, -1.81231l 2.07471, -0.963417l 2.07471, -0.617642l 2.07471, -0.0080114l 2.07471, 0.236656l 2.07471, 0.873391l
 2.07471, 0.94831l 4.14942, 3.92646l 4.14942, 5.47255l 4.14942, 7.38552l 4.14942, 8.74467l 4.14942, 10.2547l 4.14942, 11.5792l 4.14942, 11.8759l 4.14942, 12.6357l 4.14942, 12.9128l 4.14942, 12.5468l 4.14942, 12.224l 4.14942, 11.6963l 4.14942,
 11.0807l 4.14942, 10.3989l 4.14942, 9.6269l 4.14942, 8.56187l 4.14942, 7.94381l 4.14942, 7.02581l 4.14942, 6.27526l 4.14942, 5.49482l 4.14942, 5.00663l 4.14942, 4.30534l 4.14942, 3.92074l 4.14942, 3.4348l 4.14942, 2.95359l 4.14942, 2.50652l 4.14942,
 2.30952l 4.14942, 2.05823l 4.14942, 1.69173l 4.14942, 1.51887l 4.14942, 1.31985l 4.14942, 1.16864l 4.14942, 0.970366l 4.14942, 0.835168l 4.14942, 0.800871l 4.14942, 0.695906l 4.14942, 0.587704l 4.14942, 0.504514l 4.14942, 0.462239l 4.14942,
 0.409958l 4.14942, 0.384913l 4.14942, 0.314952l 4.14942, 0.275109l 4.14942, 0.229054l 4.14942, 0.200794l 4.14942, 0.181337v -0.876488l -4.14942, -0.259498l -4.14942, -0.284821l -4.14942, -0.325907l -4.14942, -0.368936l -4.14942, -0.436569l -4.14942,
 -0.489598l -4.14942, -0.543818l -4.14942, -0.540742l -4.14942, -0.678896l -4.14942, -0.752502l -4.14942, -0.819104l -4.14942, -0.812762l -4.14942, -1.03384l -4.14942, -1.22286l -4.14942, -1.28406l -4.14942, -1.43435l -4.14942, -1.62903l -4.14942,
 -1.8914l -4.14942, -2.15079l -4.14942, -2.39686l -4.14942, -2.64019l -4.14942, -3.14601l -4.14942, -3.53843l -4.14942, -4.12862l -4.14942, -4.73775l -4.14942, -5.43319l -4.14942, -6.15233l -4.14942, -6.81609l -4.14942, -7.66603l -4.14942, -8.46623l
 -4.14942, -9.18747l -4.14942, -10.1047l -4.14942, -10.7477l -4.14942, -11.0288l -4.14942, -11.7189l -4.14942, -12.0748l -4.14942, -12.3702l -4.14942, -12.408l -4.14942, -11.9727l -4.14942, -12.037l -4.14942, -11.3402l -4.14942, -10.7858l -4.14942,
 -9.6664l -4.14942, -8.20807l -4.14942, -6.4826l -4.14942, -4.51125l -2.07471, -1.52523l -2.07471, -1.10403l -2.07471, -0.574509l -2.07471, -0.0860159l -2.07471, 0.960341l -2.07471, 1.06141l -2.07471, 1.85319l -2.07471, 2.21886l -4.14942, 6.01752l
 -4.14942, 7.79212l -4.14942, 9.31848l -4.14942, 10.3098l -4.14942, 11.4598l -4.14942, 11.8895l -4.14942, 11.6272l -4.14942, 12.4616l -4.14942, 12.6071l -4.14942, 12.238l -4.14942, 11.8718l -4.14942, 11.4025l -4.14942, 10.8053l -4.14942, 10.1028l
 -4.14942, 9.58093l -4.14942, 8.82037l -4.14942, 7.71165l -4.14942, 7.29783l -4.14942, 6.35542l -4.14942, 5.69372l -4.14942, 4.68065l -4.14942, 4.2427l -4.14942, 3.73914l -4.14942, 3.14232l -4.14942, 2.84951l -4.14942, 2.55816l -4.14942, 2.18961l
 -4.14942, 1.911l -2.07471, 0.838997l -0.518678, 14.2881h -40.0864z" fill="#00ff00"/>
<path d="M84.9724,346.543h 1.18555" fill="none" stroke="black" stroke-width="3" stroke-dasharray=" 3, 3"/>
<path d="M86.158,346.543h 38.9008l 0.518678, -0.929891l 2.07471, -0.165049l 4.14942, -0.411081l 4.14942, -0.543428l 4.14942, -0.709914l 4.14942, -0.916388l 4.14942, -1.16875l 4.14942, -1.4726l 4.14942, -1.83279l 4.14942, -2.25293l 4.14942, -2.73479l
 4.14942, -3.27762l 4.14942, -3.87763l 4.14942, -4.52733l 4.14942, -5.21515l 4.14942, -5.92515l 4.14942, -6.63702l 4.14942, -7.32638l 4.14942, -7.96539l 4.14942, -8.52377l 4.14942, -8.9701l 4.14942, -9.27343l 4.14942, -9.4051l 4.14942, -9.34065l
 4.14942, -9.06166l 4.14942, -8.55742l 4.14942, -7.82624l 4.14942, -6.87626l 2.07471, -3.01823l 2.07471, -2.70748l 2.07471, -2.37611l 2.07471, -2.0264l 2.07471, -1.66089l 2.07471, -1.28232l 2.07471, -0.893596l 2.07471, -0.497761l 2.07471, -0.0979526l
 2.07471, 0.302639l 2.07471, 0.700812l 2.07471, 1.0934l 2.07471, 1.47731l 2.07471, 1.84955l 2.07471, 2.20732l 2.07471, 2.54795l 4.14942, 6.0375l 4.14942, 7.13906l 4.14942, 8.03445l 4.14942, 8.708l 4.14942, 9.15412l 4.14942, 9.37692l 4.14942, 9.38922l
 4.14942, 9.21115l 4.14942, 8.86842l 4.14942, 8.39045l 4.14942, 7.80849l 4.14942, 7.1538l 4.14942, 6.45617l 4.14942, 5.74261l 4.14942, 5.03652l 4.14942, 4.3571l 4.14942, 3.71917l 4.14942, 3.13322l 4.14942, 2.60574l 4.14942, 2.1397l 4.14942, 1.73513l
 4.14942, 1.38975l 4.14942, 1.09956l 4.14942, 0.85948l 4.14942, 0.663791l 4.14942, 0.506579l 4.14942, 0.382051l 4.14942, 0.284764l 4.14942, 0.209784l 4.14942, 0.152759l 4.14942, 0.109955l 4.14942, 0.0782383l 4.14942, 0.0550353l 4.14942, 0.0382737l
 4.14942, 0.0263157l 4.14942, 0.0178895l 4.14942, 0.034521h 29.0459" fill="none" stroke="black" stroke-width="3" stroke-dasharray=" 3, 3"/>
<path d="M84.9724,346.543h 1.18555" fill="none" stroke="#84c1a3" stroke-width="3" stroke-dasharray=" 3, 3"/>
<path d="M86.158,346.543h 38.9008l 0.518678, -3.42503l 2.07471, -0.299751l 4.14942, -0.662431l 4.14942, -0.752002l 4.14942, -0.848004l 4.14942, -0.949814l 4.14942, -1.05657l 4.14942, -1.16716l 4.14942, -1.28021l 4.14942, -1.39409l 4.14942, -1.50693l
 4.14942, -1.61661l 4.14942, -1.72084l 4.14942, -1.81717l 4.14942, -1.90306l 4.14942, -1.97592l 4.14942, -2.03319l 4.14942, -2.07244l 4.14942, -2.0914l 4.14942, -2.08811l 4.14942, -2.06092l 4.14942, -2.00862l 4.14942, -1.93048l 4.14942, -1.82631l
 4.14942, -1.6965l 4.14942, -1.54202l 4.14942, -1.36443l 4.14942, -1.16588l 4.14942, -0.949047l 4.14942, -0.717077l 4.14942, -0.473528l 4.14942, -0.222266l 4.14942, 0.0326351l 4.14942, 0.287001l 4.14942, 0.536673l 4.14942, 0.777619l 4.14942, 1.00604l
 4.14942, 1.21849l 4.14942, 1.41192l 4.14942, 1.58378l 4.14942, 1.73208l 4.14942, 1.8554l 4.14942, 1.95293l 4.14942, 2.02442l 4.14942, 2.07021l 4.14942, 2.09116l 4.14942, 2.0886l 4.14942, 2.06425l 4.14942, 2.02017l 4.14942, 1.95868l 4.14942, 1.88225l
 4.14942, 1.79344l 4.14942, 1.69485l 4.14942, 1.589l 4.14942, 1.4783l 4.14942, 1.36501l 4.14942, 1.25117l 4.14942, 1.1386l 4.14942, 1.02887l 4.14942, 0.923282l 4.14942, 0.822884l 4.14942, 0.728476l 4.14942, 0.640621l 4.14942, 0.559666l 4.14942,
 0.48577l 4.14942, 0.418921l 4.14942, 0.358971l 4.14942, 0.305657l 4.14942, 0.25863l 4.14942, 0.217477l 4.14942, 0.181741l 4.14942, 0.150943l 4.14942, 0.124599l 4.14942, 0.102227l 4.14942, 0.0833642l 4.14942, 0.0675728l 4.14942, 0.0544442l 4.14942,
 0.0436043l 4.14942, 0.0347149l 4.14942, 0.0274738" fill="none" stroke="#84c1a3" stroke-width="3" stroke-dasharray=" 3, 3"/>
<path d="M84.9724,346.543h 1.18555" fill="none" stroke="#ddba87" stroke-width="3" stroke-dasharray=" 3, 3"/>
<path d="M86.158,346.543h 38.9008l 0.518678, -9.1386l 2.07471, -0.409078l 4.14942, -0.85158l 4.14942, -0.895185l 4.14942, -0.937211l 4.14942, -0.977148l 4.14942, -1.01447l 4.14942, -1.04864l 4.14942, -1.07913l 4.14942, -1.10538l 4.14942, -1.12688l
 4.14942, -1.14313l 4.14942, -1.15364l 4.14942, -1.15799l 4.14942, -1.15578l 4.14942, -1.14668l 4.14942, -1.13041l 4.14942, -1.10679l 4.14942, -1.07568l 4.14942, -1.03704l 4.14942, -0.99092l 4.14942, -0.937447l 4.14942, -0.876847l 4.14942, -0.809431l
 4.14942, -0.735599l 4.14942, -0.655837l 4.14942, -0.570708l 4.14942, -0.48085l 4.14942, -0.386965l 4.14942, -0.289812l 4.14942, -0.190195l 4.14942, -0.0889541l 4.14942, 0.0130483l 4.14942, 0.114939l 4.14942, 0.215846l 4.14942, 0.314912l 4.14942,
 0.411304l 4.14942, 0.50423l 4.14942, 0.592944l 4.14942, 0.676759l 4.14942, 0.755056l 4.14942, 0.82729l 4.14942, 0.892999l 4.14942, 0.951804l 4.14942, 1.00341l 4.14942, 1.04763l 4.14942, 1.08435l 4.14942, 1.11354l 4.14942, 1.13526l 4.14942, 1.14967l
 4.14942, 1.15699l 4.14942, 1.15749l 4.14942, 1.15152l 4.14942, 1.1395l 4.14942, 1.12187l 4.14942, 1.0991l 4.14942, 1.07172l 4.14942, 1.04024l 4.14942, 1.00521l 4.14942, 0.967168l 4.14942, 0.926647l 4.14942, 0.88417l 4.14942, 0.84024l 4.14942,
 0.795335l 4.14942, 0.749906l 4.14942, 0.70437l 4.14942, 0.659109l 4.14942, 0.614467l 4.14942, 0.57075l 4.14942, 0.528225l 4.14942, 0.487118l 4.14942, 0.44762l 4.14942, 0.409882l 4.14942, 0.374022l 4.14942, 0.340123l 4.14942, 0.30824l 4.14942,
 0.278398l 4.14942, 0.250599l 4.14942, 0.224821l 4.14942, 0.201024" fill="none" stroke="#ddba87" stroke-width="3" stroke-dasharray=" 3, 3"/>
<path d="M84.9724,346.543h 1.18555" fill="none" stroke="#ff0000" stroke-width="3"/>
<path d="M86.158,346.543h 38.9008l 0.518678, -13.4935l 2.07471, -0.873877l 4.14942, -1.92509l 4.14942, -2.19062l 4.14942, -2.49513l 4.14942, -2.84335l 4.14942, -3.23979l 4.14942, -3.6884l 4.14942, -4.19213l 4.14942, -4.75241l 4.14942, -5.36859l
 4.14942, -6.03736l 4.14942, -6.75211l 4.14942, -7.5025l 4.14942, -8.27399l 4.14942, -9.04774l 4.14942, -9.80062l 4.14942, -10.5056l 4.14942, -11.1325l 4.14942, -11.6489l 4.14942, -12.0219l 4.14942, -12.2195l 4.14942, -12.2124l 4.14942, -11.9764l
 4.14942, -11.4938l 4.14942, -10.7553l 4.14942, -9.76138l 4.14942, -8.52299l 4.14942, -7.06172l 4.14942, -5.4094l 2.07471, -2.03635l 2.07471, -1.57059l 2.07471, -1.09366l 2.07471, -0.608916l 2.07471, -0.119802l 2.07471, 0.370172l 2.07471, 0.857488l
 2.07471, 1.33866l 4.14942, 4.07938l 4.14942, 5.8478l 4.14942, 7.45485l 4.14942, 8.86178l 4.14942, 10.0393l 4.14942, 10.9685l 4.14942, 11.6413l 4.14942, 12.0596l 4.14942, 12.2351l 4.14942, 12.1874l 4.14942, 11.942l 4.14942, 11.5292l 4.14942, 10.9814l
 4.14942, 10.3316l 4.14942, 9.6116l 4.14942, 8.85096l 4.14942, 8.07575l 4.14942, 7.30803l 4.14942, 6.56555l 4.14942, 5.86172l 4.14942, 5.20591l 4.14942, 4.60381l 4.14942, 4.05802l 4.14942, 3.56859l 4.14942, 3.13364l 4.14942, 2.74993l 4.14942,
 2.41332l 4.14942, 2.11923l 4.14942, 1.86291l 4.14942, 1.63977l 4.14942, 1.44546l 4.14942, 1.27605l 4.14942, 1.12803l 4.14942, 0.998362l 4.14942, 0.884415l 4.14942, 0.783975l 4.14942, 0.695174l 4.14942, 0.616453l 4.14942, 0.546505l 4.14942, 0.48424l
 4.14942, 0.428739l 4.14942, 0.379226l 4.14942, 0.335035l 4.14942, 0.295597l 4.14942, 0.260411l 4.14942, 0.229042" fill="none" stroke="#ff0000" stroke-width="3"/>
<path d="M137.137,320.479h -11.8555" fill="none" stroke="black"/>
<path d="M125.281,321.02v -1.08193" fill="none" stroke="black"/>
<path d="M137.137,320.479h 11.8555" fill="none" stroke="black"/>
<path d="M148.992,321.02v -1.08193" fill="none" stroke="black"/>
<path d="M137.137,320.479v -3.57217" fill="none" stroke="black"/>
<path d="M136.596,316.907h 1.08193" fill="none" stroke="black"/>
<path d="M137.137,320.479v 3.57217" fill="none" stroke="black"/>
<path d="M136.596,324.051h 1.08193" fill="none" stroke="black"/>
<path d="M160.848,301.23h -11.8555" fill="none" stroke="black"/>
<path d="M148.992,301.771v -1.08193" fill="none" stroke="black"/>
<path d="M160.848,301.23h 11.8555" fill="none" stroke="black"/>
<path d="M172.703,301.771v -1.08193" fill="none" stroke="black"/>
<path d="M160.848,301.23v -4.78162" fill="none" stroke="black"/>
<path d="M160.307,296.449h 1.08193" fill="none" stroke="black"/>
<path d="M160.848,301.23v 4.78162" fill="none" stroke="black"/>
<path d="M160.307,306.012h 1.08193" fill="none" stroke="black"/>
<path d="M184.559,262.644h -11.8555" fill="none" stroke="black"/>
<path d="M172.703,263.185v -1.08193" fill="none" stroke="black"/>
<path d="M184.559,262.644h 11.8555" fill="none" stroke="black"/>
<path d="M196.414,263.185v -1.08193" fill="none" stroke="black"/>
<path d="M184.559,262.644v -6.45571" fill="none" stroke="black"/>
<path d="M184.018,256.188h 1.08193" fill="none" stroke="black"/>
<path d="M184.559,262.644v 6.45571" fill="none" stroke="black"/>
<path d="M184.018,269.1h 1.08193" fill="none" stroke="black"/>
<path d="M208.27,199.339h -11.8555" fill="none" stroke="black"/>
<path d="M196.414,199.88v -1.08193" fill="none" stroke="black"/>
<path d="M208.27,199.339h 11.8555" fill="none" stroke="black"/>
<path d="M220.125,199.88v -1.08193" fill="none" stroke="black"/>
<path d="M208.27,199.339v -8.4568" fill="none" stroke="black"/>
<path d="M207.729,190.883h 1.08193" fill="none" stroke="black"/>
<path d="M208.27,199.339v 8.4568" fill="none" stroke="black"/>
<path d="M207.729,207.796h 1.08193" fill="none" stroke="black"/>
<path d="M231.98,148.996h -11.8555" fill="none" stroke="black"/>
<path d="M220.125,149.537v -1.08193" fill="none" stroke="black"/>
<path d="M231.98,148.996h 11.8555" fill="none" stroke="black"/>
<path d="M243.836,149.537v -1.08193" fill="none" stroke="black"/>
<path d="M231.98,148.996v -9.9318" fill="none" stroke="black"/>
<path d="M231.44,139.064h 1.08193" fill="none" stroke="black"/>
<path d="M231.98,148.996v 9.9318" fill="none" stroke="black"/>
<path d="M231.44,158.928h 1.08193" fill="none" stroke="black"/>
<path d="M255.691,105.689h -11.8555" fill="none" stroke="black"/>
<path d="M243.836,106.23v -1.08193" fill="none" stroke="black"/>
<path d="M255.691,105.689h 11.8555" fill="none" stroke="black"/>
<path d="M267.547,106.23v -1.08193" fill="none" stroke="black"/>
<path d="M255.691,105.689v -10.867" fill="none" stroke="black"/>
<path d="M255.151,94.8217h 1.08193" fill="none" stroke="black"/>
<path d="M255.691,105.689v 10.867" fill="none" stroke="black"/>
<path d="M255.151,116.556h 1.08193" fill="none" stroke="black"/>
<path d="M279.402,139.924h -11.8555" fill="none" stroke="black"/>
<path d="M267.547,140.465v -1.08193" fill="none" stroke="black"/>
<path d="M279.402,139.924h 11.8555" fill="none" stroke="black"/>
<path d="M291.258,140.465v -1.08193" fill="none" stroke="black"/>
<path d="M279.402,139.924v -9.9273" fill="none" stroke="black"/>
<path d="M278.861,129.997h 1.08193" fill="none" stroke="black"/>
<path d="M279.402,139.924v 9.9273" fill="none" stroke="black"/>
<path d="M278.861,149.852h 1.08193" fill="none" stroke="black"/>
<path d="M303.113,233.626h -11.8555" fill="none" stroke="black"/>
<path d="M291.258,234.167v -1.08193" fill="none" stroke="black"/>
<path d="M303.113,233.626h 11.8555" fill="none" stroke="black"/>
<path d="M314.969,234.167v -1.08193" fill="none" stroke="black"/>
<path d="M303.113,233.626v -7.44118" fill="none" stroke="black"/>
<path d="M302.572,226.185h 1.08193" fill="none" stroke="black"/>
<path d="M303.113,233.626v 7.44118" fill="none" stroke="black"/>
<path d="M302.572,241.067h 1.08193" fill="none" stroke="black"/>
<path d="M326.824,274.733h -11.8555" fill="none" stroke="black"/>
<path d="M314.969,275.274v -1.08193" fill="none" stroke="black"/>
<path d="M326.824,274.733h 11.8555" fill="none" stroke="black"/>
<path d="M338.68,275.274v -1.08193" fill="none" stroke="black"/>
<path d="M326.824,274.733v -5.98761" fill="none" stroke="black"/>
<path d="M326.283,268.746h 1.08193" fill="none" stroke="black"/>
<path d="M326.824,274.733v 5.98761" fill="none" stroke="black"/>
<path d="M326.283,280.721h 1.08193" fill="none" stroke="black"/>
<path d="M350.535,314.76h -11.8555" fill="none" stroke="black"/>
<path d="M338.68,315.301v -1.08193" fill="none" stroke="black"/>
<path d="M350.535,314.76h 11.8555" fill="none" stroke="black"/>
<path d="M362.391,315.301v -1.08193" fill="none" stroke="black"/>
<path d="M350.535,314.76v -3.90358" fill="none" stroke="black"/>
<path d="M349.994,310.856h 1.08193" fill="none" stroke="black"/>
<path d="M350.535,314.76v 3.90358" fill="none" stroke="black"/>
<path d="M349.994,318.663h 1.08193" fill="none" stroke="black"/>
<path d="M374.246,331.052h -11.8555" fill="none" stroke="black"/>
<path d="M362.391,331.593v -1.08193" fill="none" stroke="black"/>
<path d="M374.246,331.052h 11.8555" fill="none" stroke="black"/>
<path d="M386.102,331.593v -1.08193" fill="none" stroke="black"/>
<path d="M374.246,331.052v -2.82715" fill="none" stroke="black"/>
<path d="M373.705,328.225h 1.08193" fill="none" stroke="black"/>
<path d="M374.246,331.052v 2.82715" fill="none" stroke="black"/>
<path d="M373.705,333.879h 1.08193" fill="none" stroke="black"/>
<path d="M397.957,334.093h -11.8555" fill="none" stroke="black"/>
<path d="M386.102,334.634v -1.08193" fill="none" stroke="black"/>
<path d="M397.957,334.093h 11.8555" fill="none" stroke="black"/>
<path d="M409.813,334.634v -1.08193" fill="none" stroke="black"/>
<path d="M397.957,334.093v -2.61735" fill="none" stroke="black"/>
<path d="M397.416,331.476h 1.08193" fill="none" stroke="black"/>
<path d="M397.957,334.093v 2.61735" fill="none" stroke="black"/>
<path d="M397.416,336.711h 1.08193" fill="none" stroke="black"/>
<path d="M421.668,338.488h -11.8555" fill="none" stroke="black"/>
<path d="M409.813,339.029v -1.08193" fill="none" stroke="black"/>
<path d="M421.668,338.488h 11.8555" fill="none" stroke="black"/>
<path d="M433.524,339.029v -1.08193" fill="none" stroke="black"/>
<path d="M421.668,338.488v -1.97061" fill="none" stroke="black"/>
<path d="M421.127,336.517h 1.08193" fill="none" stroke="black"/>
<path d="M421.668,338.488v 1.97061" fill="none" stroke="black"/>
<path d="M421.127,340.459h 1.08193" fill="none" stroke="black"/>
<path d="M445.379,341.46h -11.8555" fill="none" stroke="black"/>
<path d="M433.524,342.001v -1.08193" fill="none" stroke="black"/>
<path d="M445.379,341.46h 11.8555" fill="none" stroke="black"/>
<path d="M457.235,342.001v -1.08193" fill="none" stroke="black"/>
<path d="M445.379,341.46v -1.50248" fill="none" stroke="black"/>
<path d="M444.838,339.957h 1.08193" fill="none" stroke="black"/>
<path d="M445.379,341.46v 1.50248" fill="none" stroke="black"/>
<path d="M444.838,342.962h 1.08193" fill="none" stroke="black"/>
<path d="M469.09,346.543h -11.8555" fill="none" stroke="black"/>
<path d="M457.235,346.543v -0.540963" fill="none" stroke="black"/>
<path d="M469.09,346.543h 11.8555" fill="none" stroke="black"/>
<path d="M480.946,346.543v -0.540963" fill="none" stroke="black"/>
<g stroke="black" stroke-width="1" fill="black">
<circle cx="137.137" cy="320.479" r="2.16385"/>
<circle cx="160.848" cy="301.23" r="2.16385"/>
<circle cx="184.559" cy="262.644" r="2.16385"/>
<circle cx="208.27" cy="199.339" r="2.16385"/>
<circle cx="231.98" cy="148.996" r="2.16385"/>
<circle cx="255.691" cy="105.689" r="2.16385"/>
<circle cx="279.402" cy="139.924" r="2.16385"/>
<circle cx="303.113" cy="233.626" r="2.16385"/>
<circle cx="326.824" cy="274.733" r="2.16385"/>
<circle cx="350.535" cy="314.76" r="2.16385"/>
<circle cx="374.246" cy="331.052" r="2.16385"/>
<circle cx="397.957" cy="334.093" r="2.16385"/>
<circle cx="421.668" cy="338.488" r="2.16385"/>
<circle cx="445.379" cy="341.46" r="2.16385"/>
<circle cx="469.09" cy="346.543" r="2.16385"/>
</g>
<text xml:space="preserve" x="163.6" y="132.265" fill="black" font-size="9.78783" font-family="Helvetica" font-weight="bold"> 0.93 (GeV)</text>
<text xml:space="preserve" x="158.461" y="132.265" fill="black" font-size="9.78783" font-family="Times">&#0177;</text>
<text xml:space="preserve" x="119.512" y="132.265" fill="black" font-size="9.78783" font-family="Helvetica" font-weight="bold">: 708.30 </text>
<text xml:space="preserve" x="110.586" y="137.134" fill="black" font-size="6.69188" font-family="Helvetica" font-weight="bold">CB</text>
<text xml:space="preserve" x="105.176" y="132.265" fill="black" font-size="9.78783" font-family="Times">&#0956;</text>
<text xml:space="preserve" x="158.461" y="147.953" fill="black" font-size="9.78783" font-family="Helvetica" font-weight="bold"> 4.47 (GeV)</text>
<text xml:space="preserve" x="153.322" y="147.953" fill="black" font-size="9.78783" font-family="Times">&#0177;</text>
<text xml:space="preserve" x="119.782" y="147.953" fill="black" font-size="9.78783" font-family="Helvetica" font-weight="bold">: 33.88 </text>
<text xml:space="preserve" x="110.856" y="150.929" fill="black" font-size="6.69188" font-family="Helvetica" font-weight="bold">CB</text>
<text xml:space="preserve" x="105.176" y="147.953" fill="black" font-size="9.78783" font-family="Times">&#0963;</text>
<text xml:space="preserve" x="153.592" y="163.371" fill="black" font-size="9.78783" font-family="Helvetica" font-weight="bold"> 2.47</text>
<text xml:space="preserve" x="148.453" y="163.371" fill="black" font-size="9.78783" font-family="Times">&#0177;</text>
<text xml:space="preserve" x="120.053" y="163.371" fill="black" font-size="9.78783" font-family="Helvetica" font-weight="bold">: 4.99 </text>
<text xml:space="preserve" x="111.127" y="166.346" fill="black" font-size="6.69188" font-family="Helvetica" font-weight="bold">CB</text>
<text xml:space="preserve" x="105.176" y="163.371" fill="black" font-size="9.78783" font-family="Times">&#0945;</text>
<text xml:space="preserve" x="153.052" y="179.059" fill="black" font-size="9.78783" font-family="Helvetica" font-weight="bold"> 1.34</text>
<text xml:space="preserve" x="147.912" y="179.059" fill="black" font-size="9.78783" font-family="Times">&#0177;</text>
<text xml:space="preserve" x="119.512" y="179.059" fill="black" font-size="9.78783" font-family="Helvetica" font-weight="bold">: 1.92 </text>
<text xml:space="preserve" x="110.586" y="181.764" fill="black" font-size="6.69188" font-family="Helvetica" font-weight="bold">CB</text>
<text xml:space="preserve" x="105.176" y="179.059" fill="black" font-size="9.78783" font-family="Helvetica" font-weight="bold">n</text>
<text xml:space="preserve" x="167.658" y="194.476" fill="black" font-size="9.78783" font-family="Helvetica" font-weight="bold"> 17.07 (GeV)</text>
<text xml:space="preserve" x="162.518" y="194.476" fill="black" font-size="9.78783" font-family="Times">&#0177;</text>
<text xml:space="preserve" x="128.979" y="194.476" fill="black" font-size="9.78783" font-family="Helvetica" font-weight="bold">: 47.28 </text>
<text xml:space="preserve" x="110.856" y="197.451" fill="black" font-size="6.69188" font-family="Helvetica" font-weight="bold">Gaus1</text>
<text xml:space="preserve" x="105.176" y="194.476" fill="black" font-size="9.78783" font-family="Times">&#0963;</text>
<text xml:space="preserve" x="168.469" y="210.164" fill="black" font-size="9.78783" font-family="Helvetica" font-weight="bold"> 17.97 (GeV)</text>
<text xml:space="preserve" x="163.33" y="210.164" fill="black" font-size="9.78783" font-family="Times">&#0177;</text>
<text xml:space="preserve" x="129.79" y="210.164" fill="black" font-size="9.78783" font-family="Helvetica" font-weight="bold">: 65.44 </text>
<text xml:space="preserve" x="110.856" y="213.139" fill="black" font-size="6.69188" font-family="Helvetica" font-weight="bold">Gaus2</text>
<text xml:space="preserve" x="105.176" y="210.164" fill="black" font-size="9.78783" font-family="Times">&#0963;</text>
<text xml:space="preserve" x="161.166" y="225.582" fill="black" font-size="9.78783" font-family="Helvetica" font-weight="bold"> 0.26</text>
<text xml:space="preserve" x="156.027" y="225.582" fill="black" font-size="9.78783" font-family="Times">&#0177;</text>
<text xml:space="preserve" x="105.176" y="225.582" fill="black" font-size="9.78783" font-family="Helvetica" font-weight="bold">frac1: 0.70 </text>
<text xml:space="preserve" x="161.166" y="241.269" fill="black" font-size="9.78783" font-family="Helvetica" font-weight="bold"> 0.19</text>
<text xml:space="preserve" x="156.027" y="241.269" fill="black" font-size="9.78783" font-family="Times">&#0177;</text>
<text xml:space="preserve" x="105.176" y="241.269" fill="black" font-size="9.78783" font-family="Helvetica" font-weight="bold">frac2: 0.76 </text>
<path d="M84.9724,346.543h 403.087" fill="none" stroke="black"/>
<path d="M125.281,337.315v 9.22817" fill="none" stroke="black"/>
<path d="M137.137,341.929v 4.61409" fill="none" stroke="black"/>
<path d="M148.992,341.929v 4.61409" fill="none" stroke="black"/>
<path d="M160.848,341.929v 4.61409" fill="none" stroke="black"/>
<path d="M172.703,341.929v 4.61409" fill="none" stroke="black"/>
<path d="M184.559,337.315v 9.22817" fill="none" stroke="black"/>
<path d="M196.414,341.929v 4.61409" fill="none" stroke="black"/>
<path d="M208.27,341.929v 4.61409" fill="none" stroke="black"/>
<path d="M220.125,341.929v 4.61409" fill="none" stroke="black"/>
<path d="M231.98,341.929v 4.61409" fill="none" stroke="black"/>
<path d="M243.836,337.315v 9.22817" fill="none" stroke="black"/>
<path d="M255.691,341.929v 4.61409" fill="none" stroke="black"/>
<path d="M267.547,341.929v 4.61409" fill="none" stroke="black"/>
<path d="M279.402,341.929v 4.61409" fill="none" stroke="black"/>
<path d="M291.258,341.929v 4.61409" fill="none" stroke="black"/>
<path d="M303.113,337.315v 9.22817" fill="none" stroke="black"/>
<path d="M314.969,341.929v 4.61409" fill="none" stroke="black"/>
<path d="M326.824,341.929v 4.61409" fill="none" stroke="black"/>
<path d="M338.68,341.929v 4.61409" fill="none" stroke="black"/>
<path d="M350.535,341.929v 4.61409" fill="none" stroke="black"/>
<path d="M362.391,337.315v 9.22817" fill="none" stroke="black"/>
<path d="M374.246,341.929v 4.61409" fill="none" stroke="black"/>
<path d="M386.102,341.929v 4.61409" fill="none" stroke="black"/>
<path d="M397.957,341.929v 4.61409" fill="none" stroke="black"/>
<path d="M409.813,341.929v 4.61409" fill="none" stroke="black"/>
<path d="M421.668,337.315v 9.22817" fill="none" stroke="black"/>
<path d="M433.524,341.929v 4.61409" fill="none" stroke="black"/>
<path d="M445.379,341.929v 4.61409" fill="none" stroke="black"/>
<path d="M457.235,341.929v 4.61409" fill="none" stroke="black"/>
<path d="M469.09,341.929v 4.61409" fill="none" stroke="black"/>
<path d="M480.946,337.315v 9.22817" fill="none" stroke="black"/>
<path d="M125.281,337.315v 9.22817" fill="none" stroke="black"/>
<path d="M113.426,341.929v 4.61409" fill="none" stroke="black"/>
<path d="M101.57,341.929v 4.61409" fill="none" stroke="black"/>
<path d="M89.7146,341.929v 4.61409" fill="none" stroke="black"/>
<path d="M480.946,337.315v 9.22817" fill="none" stroke="black"/>
<path d="M84.9724,346.543v -307.606" fill="none" stroke="black"/>
<path d="M97.065,346.543h -12.0926" fill="none" stroke="black"/>
<path d="M91.0187,337.754h -6.0463" fill="none" stroke="black"/>
<path d="M91.0187,328.966h -6.0463" fill="none" stroke="black"/>
<path d="M91.0187,320.177h -6.0463" fill="none" stroke="black"/>
<path d="M91.0187,311.388h -6.0463" fill="none" stroke="black"/>
<path d="M97.065,302.599h -12.0926" fill="none" stroke="black"/>
<path d="M91.0187,293.811h -6.0463" fill="none" stroke="black"/>
<path d="M91.0187,285.022h -6.0463" fill="none" stroke="black"/>
<path d="M91.0187,276.233h -6.0463" fill="none" stroke="black"/>
<path d="M91.0187,267.444h -6.0463" fill="none" stroke="black"/>
<path d="M97.065,258.656h -12.0926" fill="none" stroke="black"/>
<path d="M91.0187,249.867h -6.0463" fill="none" stroke="black"/>
<path d="M91.0187,241.078h -6.0463" fill="none" stroke="black"/>
<path d="M91.0187,232.29h -6.0463" fill="none" stroke="black"/>
<path d="M91.0187,223.501h -6.0463" fill="none" stroke="black"/>
<path d="M97.065,214.712h -12.0926" fill="none" stroke="black"/>
<path d="M91.0187,205.923h -6.0463" fill="none" stroke="black"/>
<path d="M91.0187,197.135h -6.0463" fill="none" stroke="black"/>
<path d="M91.0187,188.346h -6.0463" fill="none" stroke="black"/>
<path d="M91.0187,179.557h -6.0463" fill="none" stroke="black"/>
<path d="M97.065,170.768h -12.0926" fill="none" stroke="black"/>
<path d="M91.0187,161.98h -6.0463" fill="none" stroke="black"/>
<path d="M91.0187,153.191h -6.0463" fill="none" stroke="black"/>
<path d="M91.0187,144.402h -6.0463" fill="none" stroke="black"/>
<path d="M91.0187,135.613h -6.0463" fill="none" stroke="black"/>
<path d="M97.065,126.825h -12.0926" fill="none" stroke="black"/>
<path d="M91.0187,118.036h -6.0463" fill="none" stroke="black"/>
<path d="M91.0187,109.247h -6.0463" fill="none" stroke="black"/>
<path d="M91.0187,100.459h -6.0463" fill="none" stroke="black"/>
<path d="M91.0187,91.6698h -6.0463" fill="none" stroke="black"/>
<path d="M97.065,82.8811h -12.0926" fill="none" stroke="black"/>
<path d="M91.0187,74.0924h -6.0463" fill="none" stroke="black"/>
<path d="M91.0187,65.3036h -6.0463" fill="none" stroke="black"/>
<path d="M91.0187,56.5149h -6.0463" fill="none" stroke="black"/>
<path d="M91.0187,47.7262h -6.0463" fill="none" stroke="black"/>
<path d="M97.065,38.9374h -12.0926" fill="none" stroke="black"/>
<text xml:space="preserve" x="403.517" y="32.9987" fill="black" font-size="13.0028" font-family="Helvetica"> (13 TeV) 2017</text>
<text xml:space="preserve" x="397.567" y="27.3186" fill="black" font-size="8.83523" font-family="Helvetica">-1</text>
<text xml:space="preserve" x="351.855" y="32.9987" fill="black" font-size="13.0028" font-family="Helvetica">41.53 fb</text>
<text xml:space="preserve" x="103.111" y="66.2787" fill="black" font-size="16.5751" font-family="Helvetica" font-weight="bold">CMS</text>
<text xml:space="preserve" x="103.012" y="80.0625" fill="black" font-size="12.7171" font-family="Helvetica" font-style="oblique">Simulation</text>
<rect x="334.988" y="46.7249" width="142.866" height="50.6187" fill="white"/>
<path d="M334.988,97.3436h 142.866" fill="none" stroke="black"/>
<path d="M477.854,97.3436v -50.6187" fill="none" stroke="black"/>
<path d="M477.854,46.7249h -142.866" fill="none" stroke="black"/>
<path d="M334.988,46.7249v 50.6187" fill="none" stroke="black"/>
<text xml:space="preserve" x="370.519" y="58.6945" fill="black" font-size="11.2167" font-family="Helvetica">2017 Signal MC</text>
<path d="M340.346,55.1614h 25.0016" fill="none" stroke="black"/>
<path d="M352.846,52.9975v -2.89801" fill="none" stroke="black"/>
<path d="M352.846,57.3252v 2.89801" fill="none" stroke="black"/>
<path d="M350.971,50.0995h 3.75024" fill="none" stroke="black"/>
<path d="M350.971,60.2232h 3.75024" fill="none" stroke="black"/>
<g stroke="black" stroke-width="1" fill="black">
<circle cx="352.846" cy="55.1614" r="2.16385"/>
</g>
<text xml:space="preserve" x="370.519" y="75.7348" fill="black" font-size="11.2167" font-family="Helvetica">Signal fit CB2Gaus</text>
<path d="M340.346,72.0342h 25.0016" fill="none" stroke="#ff0000" stroke-width="3"/>
<text xml:space="preserve" x="420.287" y="92.5047" fill="black" font-size="11.2167" font-family="Times">&#0963;</text>
<text xml:space="preserve" x="370.519" y="92.5047" fill="black" font-size="11.2167" font-family="Helvetica">Fit Error 1 </text>
<path d="M340.346,94.8126h 25.0016v -11.811h -25.0016z" fill="#00ff00"/>
<path d="M340.346,83.0016h 25.0016" fill="none" stroke="white"/>
<path d="M340.346,94.8126h 25.0016" fill="none" stroke="white"/>
<path d="M365.347,94.8126v -11.811" fill="none" stroke="white"/>
<path d="M340.346,94.8126v -11.811" fill="none" stroke="white"/>
<rect x="28.8465" y="365.372" width="510.236" height="114.679" fill="white"/>
<rect x="84.9724" y="388.307" width="403.087" height="63.0733" fill="white"/>
<rect x="84.9724" y="388.307" width="403.087" height="63.0733" fill="none" stroke="black"/>
<rect x="84.9724" y="388.307" width="403.087" height="63.0733" fill="white"/>
<rect x="84.9724" y="388.307" width="403.087" height="63.0733" fill="none" stroke="black"/>
<path d="M84.9724,451.381h 403.087" fill="none" stroke="black"/>
<path d="M125.281,388.307v 63.0733" fill="none" stroke="black" stroke-dasharray=" 1, 2"/>
<path d="M184.559,388.307v 63.0733" fill="none" stroke="black" stroke-dasharray=" 1, 2"/>
<path d="M243.836,388.307v 63.0733" fill="none" stroke="black" stroke-dasharray=" 1, 2"/>
<path d="M303.113,388.307v 63.0733" fill="none" stroke="black" stroke-dasharray=" 1, 2"/>
<path d="M362.391,388.307v 63.0733" fill="none" stroke="black" stroke-dasharray=" 1, 2"/>
<path d="M421.668,388.307v 63.0733" fill="none" stroke="black" stroke-dasharray=" 1, 2"/>
<path d="M480.946,388.307v 63.0733" fill="none" stroke="black" stroke-dasharray=" 1, 2"/>
<path d="M125.281,388.307v 63.0733" fill="none" stroke="black" stroke-dasharray=" 1, 2"/>
<path d="M480.946,388.307v 63.0733" fill="none" stroke="black" stroke-dasharray=" 1, 2"/>
<path d="M84.9724,451.381v -63.0733" fill="none" stroke="black"/>
<path d="M488.059,445.073h -403.087" fill="none" stroke="black" stroke-dasharray=" 1, 2"/>
<path d="M488.059,432.459h -403.087" fill="none" stroke="black" stroke-dasharray=" 1, 2"/>
<path d="M488.059,419.844h -403.087" fill="none" stroke="black" stroke-dasharray=" 1, 2"/>
<path d="M488.059,407.229h -403.087" fill="none" stroke="black" stroke-dasharray=" 1, 2"/>
<path d="M488.059,394.615h -403.087" fill="none" stroke="black" stroke-dasharray=" 1, 2"/>
<path d="M488.059,445.073h -403.087" fill="none" stroke="black" stroke-dasharray=" 1, 2"/>
<path d="M488.059,394.615h -403.087" fill="none" stroke="black" stroke-dasharray=" 1, 2"/>
<path d="M84.9724,451.381h 403.087" fill="none" stroke="black"/>
<path d="M125.281,448.663v 2.71789" fill="none" stroke="black"/>
<path d="M137.137,450.022v 1.35894" fill="none" stroke="black"/>
<path d="M148.992,450.022v 1.35894" fill="none" stroke="black"/>
<path d="M160.848,450.022v 1.35894" fill="none" stroke="black"/>
<path d="M172.703,450.022v 1.35894" fill="none" stroke="black"/>
<path d="M184.559,448.663v 2.71789" fill="none" stroke="black"/>
<path d="M196.414,450.022v 1.35894" fill="none" stroke="black"/>
<path d="M208.27,450.022v 1.35894" fill="none" stroke="black"/>
<path d="M220.125,450.022v 1.35894" fill="none" stroke="black"/>
<path d="M231.98,450.022v 1.35894" fill="none" stroke="black"/>
<path d="M243.836,448.663v 2.71789" fill="none" stroke="black"/>
<path d="M255.691,450.022v 1.35894" fill="none" stroke="black"/>
<path d="M267.547,450.022v 1.35894" fill="none" stroke="black"/>
<path d="M279.402,450.022v 1.35894" fill="none" stroke="black"/>
<path d="M291.258,450.022v 1.35894" fill="none" stroke="black"/>
<path d="M303.113,448.663v 2.71789" fill="none" stroke="black"/>
<path d="M314.969,450.022v 1.35894" fill="none" stroke="black"/>
<path d="M326.824,450.022v 1.35894" fill="none" stroke="black"/>
<path d="M338.68,450.022v 1.35894" fill="none" stroke="black"/>
<path d="M350.535,450.022v 1.35894" fill="none" stroke="black"/>
<path d="M362.391,448.663v 2.71789" fill="none" stroke="black"/>
<path d="M374.246,450.022v 1.35894" fill="none" stroke="black"/>
<path d="M386.102,450.022v 1.35894" fill="none" stroke="black"/>
<path d="M397.957,450.022v 1.35894" fill="none" stroke="black"/>
<path d="M409.813,450.022v 1.35894" fill="none" stroke="black"/>
<path d="M421.668,448.663v 2.71789" fill="none" stroke="black"/>
<path d="M433.524,450.022v 1.35894" fill="none" stroke="black"/>
<path d="M445.379,450.022v 1.35894" fill="none" stroke="black"/>
<path d="M457.235,450.022v 1.35894" fill="none" stroke="black"/>
<path d="M469.09,450.022v 1.35894" fill="none" stroke="black"/>
<path d="M480.946,448.663v 2.71789" fill="none" stroke="black"/>
<path d="M125.281,448.663v 2.71789" fill="none" stroke="black"/>
<path d="M113.426,450.022v 1.35894" fill="none" stroke="black"/>
<path d="M101.57,450.022v 1.35894" fill="none" stroke="black"/>
<path d="M89.7146,450.022v 1.35894" fill="none" stroke="black"/>
<path d="M480.946,448.663v 2.71789" fill="none" stroke="black"/>
<text xml:space="preserve" x="114.643" y="462.794" fill="black" font-size="13.1252" font-family="Helvetica">600</text>
<text xml:space="preserve" x="173.879" y="462.794" fill="black" font-size="13.1252" font-family="Helvetica">650</text>
<text xml:space="preserve" x="233.114" y="462.794" fill="black" font-size="13.1252" font-family="Helvetica">700</text>
<text xml:space="preserve" x="292.349" y="462.794" fill="black" font-size="13.1252" font-family="Helvetica">750</text>
<text xml:space="preserve" x="351.585" y="462.794" fill="black" font-size="13.1252" font-family="Helvetica">800</text>
<text xml:space="preserve" x="411.091" y="462.794" fill="black" font-size="13.1252" font-family="Helvetica">850</text>
<text xml:space="preserve" x="470.326" y="462.794" fill="black" font-size="13.1252" font-family="Helvetica">900</text>
<text xml:space="preserve" x="451.393" y="475.236" fill="black" font-size="13.1252" font-family="Helvetica"> (GeV)</text>
<text xml:space="preserve" x="447.065" y="479.023" fill="black" font-size="8.91679" font-family="Times">&#0947;</text>
<text xml:space="preserve" x="445.172" y="479.023" fill="black" font-size="8.91679" font-family="Helvetica">j</text>
<text xml:space="preserve" x="435.434" y="475.236" fill="black" font-size="13.1252" font-family="Helvetica">M</text>
<path d="M84.9724,451.381v -63.0733" fill="none" stroke="black"/>
<path d="M93.3913,445.073h -8.4189" fill="none" stroke="black"/>
<path d="M93.3913,432.459h -8.4189" fill="none" stroke="black"/>
<path d="M93.3913,419.844h -8.4189" fill="none" stroke="black"/>
<path d="M93.3913,407.229h -8.4189" fill="none" stroke="black"/>
<path d="M93.3913,394.615h -8.4189" fill="none" stroke="black"/>
<path d="M93.3913,445.073h -8.4189" fill="none" stroke="black"/>
<path d="M93.3913,394.615h -8.4189" fill="none" stroke="black"/>
<text xml:space="preserve" x="75.4234" y="449.811" fill="black" font-size="13.1252" font-family="Helvetica">4</text>
<text xml:space="preserve" x="68.3908" y="449.811" fill="black" font-size="13.1252" font-family="Times">&#8722;</text>
<text xml:space="preserve" x="75.4234" y="437.098" fill="black" font-size="13.1252" font-family="Helvetica">2</text>
<text xml:space="preserve" x="68.3908" y="437.098" fill="black" font-size="13.1252" font-family="Times">&#8722;</text>
<text xml:space="preserve" x="75.6938" y="424.385" fill="black" font-size="13.1252" font-family="Helvetica">0</text>
<text xml:space="preserve" x="75.4234" y="411.943" fill="black" font-size="13.1252" font-family="Helvetica">2</text>
<text xml:space="preserve" x="75.4234" y="399.231" fill="black" font-size="13.1252" font-family="Helvetica">4</text>
<g transform="rotate(-90,57.5716,408.156)">
<text xml:space="preserve" x="57.5716" y="408.156" fill="black" font-size="8.91679" font-family="Helvetica">stat</text>
</g>
<g transform="rotate(-90,53.7848,415.73)">
<text xml:space="preserve" x="53.7848" y="415.73" fill="black" font-size="13.1252" font-family="Times">&#0963;</text>
</g>
<g transform="rotate(-90,43.2361,421.951)">
<text xml:space="preserve" x="43.2361" y="421.951" fill="black" font-size="13.1252" font-family="Helvetica">MC-fit</text>
</g>
<path d="M45.3999,421.951v -33.8102" fill="none" stroke="black" stroke-width="2"/>
<rect x="125.798" y="407.717" width="22.6779" height="12.1272" fill="#3399ff" fill-opacity="0.70" stroke-opacity="0.70"/>
<rect x="149.509" y="412.433" width="22.6779" height="7.41119" fill="#3399ff" fill-opacity="0.70" stroke-opacity="0.70"/>
<rect x="173.22" y="416.124" width="22.6779" height="3.72023" fill="#3399ff" fill-opacity="0.70" stroke-opacity="0.70"/>
<rect x="196.931" y="416.726" width="22.6779" height="3.11806" fill="#3399ff" fill-opacity="0.70" stroke-opacity="0.70"/>
<rect x="220.642" y="419.844" width="22.6779" height="6.27159" fill="#3399ff" fill-opacity="0.70" stroke-opacity="0.70"/>
<rect x="244.353" y="414.916" width="22.6779" height="4.92799" fill="#3399ff" fill-opacity="0.70" stroke-opacity="0.70"/>
<rect x="268.064" y="414.42" width="22.6779" height="5.42418" fill="#3399ff" fill-opacity="0.70" stroke-opacity="0.70"/>
<rect x="291.775" y="419.844" width="22.6779" height="15.5608" fill="#3399ff" fill-opacity="0.70" stroke-opacity="0.70"/>
<rect x="315.485" y="419.455" width="22.6779" height="0.389553" fill="#3399ff" fill-opacity="0.70" stroke-opacity="0.70"/>
<rect x="339.196" y="419.844" width="22.6779" height="5.41485" fill="#3399ff" fill-opacity="0.70" stroke-opacity="0.70"/>
<rect x="362.907" y="419.844" width="22.6779" height="3.33861" fill="#3399ff" fill-opacity="0.70" stroke-opacity="0.70"/>
<rect x="386.618" y="409.8" width="22.6779" height="10.0445" fill="#3399ff" fill-opacity="0.70" stroke-opacity="0.70"/>
<rect x="410.329" y="406.793" width="22.6779" height="13.0512" fill="#3399ff" fill-opacity="0.70" stroke-opacity="0.70"/>
<rect x="434.04" y="406.178" width="22.6779" height="13.6657" fill="#3399ff" fill-opacity="0.70" stroke-opacity="0.70"/>
<path d="M84.9724,451.381h 403.087" fill="none" stroke="black"/>
<path d="M125.281,448.663v 2.71789" fill="none" stroke="black"/>
<path d="M137.137,450.022v 1.35894" fill="none" stroke="black"/>
<path d="M148.992,450.022v 1.35894" fill="none" stroke="black"/>
<path d="M160.848,450.022v 1.35894" fill="none" stroke="black"/>
<path d="M172.703,450.022v 1.35894" fill="none" stroke="black"/>
<path d="M184.559,448.663v 2.71789" fill="none" stroke="black"/>
<path d="M196.414,450.022v 1.35894" fill="none" stroke="black"/>
<path d="M208.27,450.022v 1.35894" fill="none" stroke="black"/>
<path d="M220.125,450.022v 1.35894" fill="none" stroke="black"/>
<path d="M231.98,450.022v 1.35894" fill="none" stroke="black"/>
<path d="M243.836,448.663v 2.71789" fill="none" stroke="black"/>
<path d="M255.691,450.022v 1.35894" fill="none" stroke="black"/>
<path d="M267.547,450.022v 1.35894" fill="none" stroke="black"/>
<path d="M279.402,450.022v 1.35894" fill="none" stroke="black"/>
<path d="M291.258,450.022v 1.35894" fill="none" stroke="black"/>
<path d="M303.113,448.663v 2.71789" fill="none" stroke="black"/>
<path d="M314.969,450.022v 1.35894" fill="none" stroke="black"/>
<path d="M326.824,450.022v 1.35894" fill="none" stroke="black"/>
<path d="M338.68,450.022v 1.35894" fill="none" stroke="black"/>
<path d="M350.535,450.022v 1.35894" fill="none" stroke="black"/>
<path d="M362.391,448.663v 2.71789" fill="none" stroke="black"/>
<path d="M374.246,450.022v 1.35894" fill="none" stroke="black"/>
<path d="M386.102,450.022v 1.35894" fill="none" stroke="black"/>
<path d="M397.957,450.022v 1.35894" fill="none" stroke="black"/>
<path d="M409.813,450.022v 1.35894" fill="none" stroke="black"/>
<path d="M421.668,448.663v 2.71789" fill="none" stroke="black"/>
<path d="M433.524,450.022v 1.35894" fill="none" stroke="black"/>
<path d="M445.379,450.022v 1.35894" fill="none" stroke="black"/>
<path d="M457.235,450.022v 1.35894" fill="none" stroke="black"/>
<path d="M469.09,450.022v 1.35894" fill="none" stroke="black"/>
<path d="M480.946,448.663v 2.71789" fill="none" stroke="black"/>
<path d="M125.281,448.663v 2.71789" fill="none" stroke="black"/>
<path d="M113.426,450.022v 1.35894" fill="none" stroke="black"/>
<path d="M101.57,450.022v 1.35894" fill="none" stroke="black"/>
<path d="M89.7146,450.022v 1.35894" fill="none" stroke="black"/>
<path d="M480.946,448.663v 2.71789" fill="none" stroke="black"/>
<path d="M84.9724,451.381v -63.0733" fill="none" stroke="black"/>
<path d="M93.3913,445.073h -8.4189" fill="none" stroke="black"/>
<path d="M93.3913,432.459h -8.4189" fill="none" stroke="black"/>
<path d="M93.3913,419.844h -8.4189" fill="none" stroke="black"/>
<path d="M93.3913,407.229h -8.4189" fill="none" stroke="black"/>
<path d="M93.3913,394.615h -8.4189" fill="none" stroke="black"/>
<path d="M93.3913,445.073h -8.4189" fill="none" stroke="black"/>
<path d="M93.3913,394.615h -8.4189" fill="none" stroke="black"/></svg>
