<?xml version="1.0" standalone="no"?>
<svg width="567.429" height="533.889" viewBox="0 0 567.429 533.889" xmlns="http://www.w3.org/2000/svg" shape-rendering="crispEdges">
<title>
CB2Gaus1200.svg
</title>
<desc>
Creator: ROOT Version 6.10/09
CreationDate: Sun Apr 19 21:32:30 2020</desc>
<defs>
</defs>
<rect x="0.5" y="0" width="566.929" height="533.389" fill="white"/>
<rect x="28.8465" y="0" width="510.236" height="389.374" fill="white"/>
<rect x="84.9724" y="38.9374" width="403.087" height="307.606" fill="white"/>
<rect x="84.9724" y="38.9374" width="403.087" height="307.606" fill="none" stroke="black"/>
<rect x="84.9724" y="38.9374" width="403.087" height="307.606" fill="white"/>
<rect x="84.9724" y="38.9374" width="403.087" height="307.606" fill="none" stroke="black"/>
<path d="M84.9724,346.543h 403.087" fill="none" stroke="black"/>
<path d="M102.444,337.315v 9.22817" fill="none" stroke="black"/>
<path d="M114.923,341.929v 4.61409" fill="none" stroke="black"/>
<path d="M127.403,341.929v 4.61409" fill="none" stroke="black"/>
<path d="M139.882,341.929v 4.61409" fill="none" stroke="black"/>
<path d="M152.362,341.929v 4.61409" fill="none" stroke="black"/>
<path d="M164.841,337.315v 9.22817" fill="none" stroke="black"/>
<path d="M177.32,341.929v 4.61409" fill="none" stroke="black"/>
<path d="M189.8,341.929v 4.61409" fill="none" stroke="black"/>
<path d="M202.279,341.929v 4.61409" fill="none" stroke="black"/>
<path d="M214.759,341.929v 4.61409" fill="none" stroke="black"/>
<path d="M227.238,337.315v 9.22817" fill="none" stroke="black"/>
<path d="M239.718,341.929v 4.61409" fill="none" stroke="black"/>
<path d="M252.197,341.929v 4.61409" fill="none" stroke="black"/>
<path d="M264.677,341.929v 4.61409" fill="none" stroke="black"/>
<path d="M277.156,341.929v 4.61409" fill="none" stroke="black"/>
<path d="M289.636,337.315v 9.22817" fill="none" stroke="black"/>
<path d="M302.115,341.929v 4.61409" fill="none" stroke="black"/>
<path d="M314.595,341.929v 4.61409" fill="none" stroke="black"/>
<path d="M327.074,341.929v 4.61409" fill="none" stroke="black"/>
<path d="M339.553,341.929v 4.61409" fill="none" stroke="black"/>
<path d="M352.033,337.315v 9.22817" fill="none" stroke="black"/>
<path d="M364.512,341.929v 4.61409" fill="none" stroke="black"/>
<path d="M376.992,341.929v 4.61409" fill="none" stroke="black"/>
<path d="M389.471,341.929v 4.61409" fill="none" stroke="black"/>
<path d="M401.951,341.929v 4.61409" fill="none" stroke="black"/>
<path d="M414.43,337.315v 9.22817" fill="none" stroke="black"/>
<path d="M426.91,341.929v 4.61409" fill="none" stroke="black"/>
<path d="M439.389,341.929v 4.61409" fill="none" stroke="black"/>
<path d="M451.869,341.929v 4.61409" fill="none" stroke="black"/>
<path d="M464.348,341.929v 4.61409" fill="none" stroke="black"/>
<path d="M476.828,337.315v 9.22817" fill="none" stroke="black"/>
<path d="M102.444,337.315v 9.22817" fill="none" stroke="black"/>
<path d="M89.9642,341.929v 4.61409" fill="none" stroke="black"/>
<path d="M476.828,337.315v 9.22817" fill="none" stroke="black"/>
<text xml:space="preserve" x="88.9474" y="362.445" fill="black" font-size="16.5751" font-family="Helvetica">900</text>
<text xml:space="preserve" x="146.83" y="362.445" fill="black" font-size="16.5751" font-family="Helvetica">1000</text>
<text xml:space="preserve" x="209.312" y="362.445" fill="black" font-size="16.5751" font-family="Helvetica">1100</text>
<text xml:space="preserve" x="271.522" y="362.445" fill="black" font-size="16.5751" font-family="Helvetica">1200</text>
<text xml:space="preserve" x="334.004" y="362.445" fill="black" font-size="16.5751" font-family="Helvetica">1300</text>
<text xml:space="preserve" x="396.485" y="362.445" fill="black" font-size="16.5751" font-family="Helvetica">1400</text>
<text xml:space="preserve" x="458.966" y="362.445" fill="black" font-size="16.5751" font-family="Helvetica">1500</text>
<path d="M84.9724,346.543v -307.606" fill="none" stroke="black"/>
<path d="M97.065,346.543h -12.0926" fill="none" stroke="black"/>
<path d="M91.0187,338.853h -6.0463" fill="none" stroke="black"/>
<path d="M91.0187,331.163h -6.0463" fill="none" stroke="black"/>
<path d="M91.0187,323.473h -6.0463" fill="none" stroke="black"/>
<path d="M91.0187,315.783h -6.0463" fill="none" stroke="black"/>
<path d="M97.065,308.092h -12.0926" fill="none" stroke="black"/>
<path d="M91.0187,300.402h -6.0463" fill="none" stroke="black"/>
<path d="M91.0187,292.712h -6.0463" fill="none" stroke="black"/>
<path d="M91.0187,285.022h -6.0463" fill="none" stroke="black"/>
<path d="M91.0187,277.332h -6.0463" fill="none" stroke="black"/>
<path d="M97.065,269.642h -12.0926" fill="none" stroke="black"/>
<path d="M91.0187,261.952h -6.0463" fill="none" stroke="black"/>
<path d="M91.0187,254.261h -6.0463" fill="none" stroke="black"/>
<path d="M91.0187,246.571h -6.0463" fill="none" stroke="black"/>
<path d="M91.0187,238.881h -6.0463" fill="none" stroke="black"/>
<path d="M97.065,231.191h -12.0926" fill="none" stroke="black"/>
<path d="M91.0187,223.501h -6.0463" fill="none" stroke="black"/>
<path d="M91.0187,215.811h -6.0463" fill="none" stroke="black"/>
<path d="M91.0187,208.121h -6.0463" fill="none" stroke="black"/>
<path d="M91.0187,200.43h -6.0463" fill="none" stroke="black"/>
<path d="M97.065,192.74h -12.0926" fill="none" stroke="black"/>
<path d="M91.0187,185.05h -6.0463" fill="none" stroke="black"/>
<path d="M91.0187,177.36h -6.0463" fill="none" stroke="black"/>
<path d="M91.0187,169.67h -6.0463" fill="none" stroke="black"/>
<path d="M91.0187,161.98h -6.0463" fill="none" stroke="black"/>
<path d="M97.065,154.29h -12.0926" fill="none" stroke="black"/>
<path d="M91.0187,146.599h -6.0463" fill="none" stroke="black"/>
<path d="M91.0187,138.909h -6.0463" fill="none" stroke="black"/>
<path d="M91.0187,131.219h -6.0463" fill="none" stroke="black"/>
<path d="M91.0187,123.529h -6.0463" fill="none" stroke="black"/>
<path d="M97.065,115.839h -12.0926" fill="none" stroke="black"/>
<path d="M91.0187,108.149h -6.0463" fill="none" stroke="black"/>
<path d="M91.0187,100.459h -6.0463" fill="none" stroke="black"/>
<path d="M91.0187,92.7684h -6.0463" fill="none" stroke="black"/>
<path d="M91.0187,85.0783h -6.0463" fill="none" stroke="black"/>
<path d="M97.065,77.3881h -12.0926" fill="none" stroke="black"/>
<path d="M91.0187,69.698h -6.0463" fill="none" stroke="black"/>
<path d="M91.0187,62.0079h -6.0463" fill="none" stroke="black"/>
<path d="M91.0187,54.3177h -6.0463" fill="none" stroke="black"/>
<path d="M91.0187,46.6276h -6.0463" fill="none" stroke="black"/>
<path d="M97.065,38.9374h -12.0926" fill="none" stroke="black"/>
<text xml:space="preserve" x="73.8005" y="352.167" fill="black" font-size="16.5751" font-family="Helvetica">0</text>
<text xml:space="preserve" x="64.8746" y="313.758" fill="black" font-size="16.5751" font-family="Helvetica">50</text>
<text xml:space="preserve" x="55.6782" y="275.08" fill="black" font-size="16.5751" font-family="Helvetica">100</text>
<text xml:space="preserve" x="55.6782" y="236.671" fill="black" font-size="16.5751" font-family="Helvetica">150</text>
<text xml:space="preserve" x="55.6782" y="198.263" fill="black" font-size="16.5751" font-family="Helvetica">200</text>
<text xml:space="preserve" x="55.6782" y="159.855" fill="black" font-size="16.5751" font-family="Helvetica">250</text>
<text xml:space="preserve" x="55.6782" y="121.446" fill="black" font-size="16.5751" font-family="Helvetica">300</text>
<text xml:space="preserve" x="55.6782" y="83.0378" fill="black" font-size="16.5751" font-family="Helvetica">350</text>
<text xml:space="preserve" x="55.6782" y="44.359" fill="black" font-size="16.5751" font-family="Helvetica">400</text>
<g transform="rotate(-90,41.0722,156.609)">
<text xml:space="preserve" x="41.0722" y="156.609" fill="black" font-size="16.5751" font-family="Helvetica">Events / 20 GeV</text>
</g>
<path d="M96.204,346.543h -6.23973" fill="none" stroke="black"/>
<path d="M89.9642,346.543v -0.540963" fill="none" stroke="black"/>
<path d="M96.204,346.543h 6.23973" fill="none" stroke="black"/>
<path d="M102.444,346.543v -0.540963" fill="none" stroke="black"/>
<path d="M108.683,340.782h -6.23973" fill="none" stroke="black"/>
<path d="M102.444,341.323v -1.08193" fill="none" stroke="black"/>
<path d="M108.683,340.782h 6.23973" fill="none" stroke="black"/>
<path d="M114.923,341.323v -1.08193" fill="none" stroke="black"/>
<path d="M108.683,340.782v -2.08295" fill="none" stroke="black"/>
<path d="M108.142,338.699h 1.08193" fill="none" stroke="black"/>
<path d="M108.683,340.782v 2.08295" fill="none" stroke="black"/>
<path d="M108.142,342.865h 1.08193" fill="none" stroke="black"/>
<path d="M121.163,335.721h -6.23973" fill="none" stroke="black"/>
<path d="M114.923,336.262v -1.08193" fill="none" stroke="black"/>
<path d="M121.163,335.721h 6.23973" fill="none" stroke="black"/>
<path d="M127.403,336.262v -1.08193" fill="none" stroke="black"/>
<path d="M121.163,335.721v -3.07274" fill="none" stroke="black"/>
<path d="M120.622,332.649h 1.08193" fill="none" stroke="black"/>
<path d="M121.163,335.721v 3.07274" fill="none" stroke="black"/>
<path d="M120.622,338.794h 1.08193" fill="none" stroke="black"/>
<path d="M133.642,336.536h -6.23973" fill="none" stroke="black"/>
<path d="M127.403,337.077v -1.08193" fill="none" stroke="black"/>
<path d="M133.642,336.536h 6.23973" fill="none" stroke="black"/>
<path d="M139.882,337.077v -1.08193" fill="none" stroke="black"/>
<path d="M133.642,336.536v -2.80768" fill="none" stroke="black"/>
<path d="M133.101,333.728h 1.08193" fill="none" stroke="black"/>
<path d="M133.642,336.536v 2.80768" fill="none" stroke="black"/>
<path d="M133.101,339.343h 1.08193" fill="none" stroke="black"/>
<path d="M146.122,337.243h -6.23973" fill="none" stroke="black"/>
<path d="M139.882,337.784v -1.08193" fill="none" stroke="black"/>
<path d="M146.122,337.243h 6.23973" fill="none" stroke="black"/>
<path d="M152.362,337.784v -1.08193" fill="none" stroke="black"/>
<path d="M146.122,337.243v -2.83785" fill="none" stroke="black"/>
<path d="M145.581,334.405h 1.08193" fill="none" stroke="black"/>
<path d="M146.122,337.243v 2.83785" fill="none" stroke="black"/>
<path d="M145.581,340.081h 1.08193" fill="none" stroke="black"/>
<path d="M158.601,327.762h -6.23973" fill="none" stroke="black"/>
<path d="M152.362,328.303v -1.08193" fill="none" stroke="black"/>
<path d="M158.601,327.762h 6.23973" fill="none" stroke="black"/>
<path d="M164.841,328.303v -1.08193" fill="none" stroke="black"/>
<path d="M158.601,327.762v -4.48308" fill="none" stroke="black"/>
<path d="M158.06,323.279h 1.08193" fill="none" stroke="black"/>
<path d="M158.601,327.762v 4.48308" fill="none" stroke="black"/>
<path d="M158.06,332.246h 1.08193" fill="none" stroke="black"/>
<path d="M171.081,332.321h -6.23973" fill="none" stroke="black"/>
<path d="M164.841,332.862v -1.08193" fill="none" stroke="black"/>
<path d="M171.081,332.321h 6.23973" fill="none" stroke="black"/>
<path d="M177.32,332.862v -1.08193" fill="none" stroke="black"/>
<path d="M171.081,332.321v -3.28882" fill="none" stroke="black"/>
<path d="M170.54,329.032h 1.08193" fill="none" stroke="black"/>
<path d="M171.081,332.321v 3.28882" fill="none" stroke="black"/>
<path d="M170.54,335.61h 1.08193" fill="none" stroke="black"/>
<path d="M183.56,335.585h -6.23973" fill="none" stroke="black"/>
<path d="M177.32,336.126v -1.08193" fill="none" stroke="black"/>
<path d="M183.56,335.585h 6.23973" fill="none" stroke="black"/>
<path d="M189.8,336.126v -1.08193" fill="none" stroke="black"/>
<path d="M183.56,335.585v -2.89267" fill="none" stroke="black"/>
<path d="M183.019,332.692h 1.08193" fill="none" stroke="black"/>
<path d="M183.56,335.585v 2.89267" fill="none" stroke="black"/>
<path d="M183.019,338.477h 1.08193" fill="none" stroke="black"/>
<path d="M196.04,310.464h -6.23973" fill="none" stroke="black"/>
<path d="M189.8,311.005v -1.08193" fill="none" stroke="black"/>
<path d="M196.04,310.464h 6.23973" fill="none" stroke="black"/>
<path d="M202.279,311.005v -1.08193" fill="none" stroke="black"/>
<path d="M196.04,310.464v -5.72624" fill="none" stroke="black"/>
<path d="M195.499,304.738h 1.08193" fill="none" stroke="black"/>
<path d="M196.04,310.464v 5.72624" fill="none" stroke="black"/>
<path d="M195.499,316.19h 1.08193" fill="none" stroke="black"/>
<path d="M208.519,299.685h -6.23973" fill="none" stroke="black"/>
<path d="M202.279,300.226v -1.08193" fill="none" stroke="black"/>
<path d="M208.519,299.685h 6.23973" fill="none" stroke="black"/>
<path d="M214.759,300.226v -1.08193" fill="none" stroke="black"/>
<path d="M208.519,299.685v -6.31733" fill="none" stroke="black"/>
<path d="M207.978,293.367h 1.08193" fill="none" stroke="black"/>
<path d="M208.519,299.685v 6.31733" fill="none" stroke="black"/>
<path d="M207.978,306.002h 1.08193" fill="none" stroke="black"/>
<path d="M220.999,295.639h -6.23973" fill="none" stroke="black"/>
<path d="M214.759,296.18v -1.08193" fill="none" stroke="black"/>
<path d="M220.999,295.639h 6.23973" fill="none" stroke="black"/>
<path d="M227.238,296.18v -1.08193" fill="none" stroke="black"/>
<path d="M220.999,295.639v -6.52585" fill="none" stroke="black"/>
<path d="M220.458,289.114h 1.08193" fill="none" stroke="black"/>
<path d="M220.999,295.639v 6.52585" fill="none" stroke="black"/>
<path d="M220.458,302.165h 1.08193" fill="none" stroke="black"/>
<path d="M233.478,269.762h -6.23973" fill="none" stroke="black"/>
<path d="M227.238,270.303v -1.08193" fill="none" stroke="black"/>
<path d="M233.478,269.762h 6.23973" fill="none" stroke="black"/>
<path d="M239.718,270.303v -1.08193" fill="none" stroke="black"/>
<path d="M233.478,269.762v -8.43263" fill="none" stroke="black"/>
<path d="M232.937,261.329h 1.08193" fill="none" stroke="black"/>
<path d="M233.478,269.762v 8.43263" fill="none" stroke="black"/>
<path d="M232.937,278.194h 1.08193" fill="none" stroke="black"/>
<path d="M245.958,255.311h -6.23973" fill="none" stroke="black"/>
<path d="M239.718,255.852v -1.08193" fill="none" stroke="black"/>
<path d="M245.958,255.311h 6.23973" fill="none" stroke="black"/>
<path d="M252.197,255.852v -1.08193" fill="none" stroke="black"/>
<path d="M245.958,255.311v -8.80795" fill="none" stroke="black"/>
<path d="M245.417,246.503h 1.08193" fill="none" stroke="black"/>
<path d="M245.958,255.311v 8.80795" fill="none" stroke="black"/>
<path d="M245.417,264.119h 1.08193" fill="none" stroke="black"/>
<path d="M258.437,192.906h -6.23973" fill="none" stroke="black"/>
<path d="M252.197,193.447v -1.08193" fill="none" stroke="black"/>
<path d="M258.437,192.906h 6.23973" fill="none" stroke="black"/>
<path d="M264.677,193.447v -1.08193" fill="none" stroke="black"/>
<path d="M258.437,192.906v -11.5361" fill="none" stroke="black"/>
<path d="M257.896,181.369h 1.08193" fill="none" stroke="black"/>
<path d="M258.437,192.906v 11.5361" fill="none" stroke="black"/>
<path d="M257.896,204.442h 1.08193" fill="none" stroke="black"/>
<path d="M270.916,166.224h -6.23973" fill="none" stroke="black"/>
<path d="M264.677,166.765v -1.08193" fill="none" stroke="black"/>
<path d="M270.916,166.224h 6.23973" fill="none" stroke="black"/>
<path d="M277.156,166.765v -1.08193" fill="none" stroke="black"/>
<path d="M270.916,166.224v -12.3604" fill="none" stroke="black"/>
<path d="M270.375,153.863h 1.08193" fill="none" stroke="black"/>
<path d="M270.916,166.224v 12.3604" fill="none" stroke="black"/>
<path d="M270.375,178.584h 1.08193" fill="none" stroke="black"/>
<path d="M283.396,100.403h -6.23973" fill="none" stroke="black"/>
<path d="M277.156,100.944v -1.08193" fill="none" stroke="black"/>
<path d="M283.396,100.403h 6.23973" fill="none" stroke="black"/>
<path d="M289.636,100.944v -1.08193" fill="none" stroke="black"/>
<path d="M283.396,100.403v -14.9513" fill="none" stroke="black"/>
<path d="M282.855,85.4519h 1.08193" fill="none" stroke="black"/>
<path d="M283.396,100.403v 14.9513" fill="none" stroke="black"/>
<path d="M282.855,115.354h 1.08193" fill="none" stroke="black"/>
<path d="M295.875,66.5824h -6.23973" fill="none" stroke="black"/>
<path d="M289.636,67.1234v -1.08193" fill="none" stroke="black"/>
<path d="M295.875,66.5824h 6.23973" fill="none" stroke="black"/>
<path d="M302.115,67.1234v -1.08193" fill="none" stroke="black"/>
<path d="M295.875,66.5824v -15.6115" fill="none" stroke="black"/>
<path d="M295.334,50.9709h 1.08193" fill="none" stroke="black"/>
<path d="M295.875,66.5824v 15.6115" fill="none" stroke="black"/>
<path d="M295.334,82.1939h 1.08193" fill="none" stroke="black"/>
<path d="M308.355,110.934h -6.23973" fill="none" stroke="black"/>
<path d="M302.115,111.475v -1.08193" fill="none" stroke="black"/>
<path d="M308.355,110.934h 6.23973" fill="none" stroke="black"/>
<path d="M314.595,111.475v -1.08193" fill="none" stroke="black"/>
<path d="M308.355,110.934v -14.2955" fill="none" stroke="black"/>
<path d="M307.814,96.6387h 1.08193" fill="none" stroke="black"/>
<path d="M308.355,110.934v 14.2955" fill="none" stroke="black"/>
<path d="M307.814,125.23h 1.08193" fill="none" stroke="black"/>
<path d="M320.834,168.32h -6.23973" fill="none" stroke="black"/>
<path d="M314.595,168.861v -1.08193" fill="none" stroke="black"/>
<path d="M320.834,168.32h 6.23973" fill="none" stroke="black"/>
<path d="M327.074,168.861v -1.08193" fill="none" stroke="black"/>
<path d="M320.834,168.32v -12.6753" fill="none" stroke="black"/>
<path d="M320.293,155.645h 1.08193" fill="none" stroke="black"/>
<path d="M320.834,168.32v 12.6753" fill="none" stroke="black"/>
<path d="M320.293,180.996h 1.08193" fill="none" stroke="black"/>
<path d="M333.314,208.479h -6.23973" fill="none" stroke="black"/>
<path d="M327.074,209.02v -1.08193" fill="none" stroke="black"/>
<path d="M333.314,208.479h 6.23973" fill="none" stroke="black"/>
<path d="M339.553,209.02v -1.08193" fill="none" stroke="black"/>
<path d="M333.314,208.479v -10.7969" fill="none" stroke="black"/>
<path d="M332.773,197.682h 1.08193" fill="none" stroke="black"/>
<path d="M333.314,208.479v 10.7969" fill="none" stroke="black"/>
<path d="M332.773,219.276h 1.08193" fill="none" stroke="black"/>
<path d="M345.793,251.443h -6.23973" fill="none" stroke="black"/>
<path d="M339.553,251.984v -1.08193" fill="none" stroke="black"/>
<path d="M345.793,251.443h 6.23973" fill="none" stroke="black"/>
<path d="M352.033,251.984v -1.08193" fill="none" stroke="black"/>
<path d="M345.793,251.443v -8.81583" fill="none" stroke="black"/>
<path d="M345.252,242.627h 1.08193" fill="none" stroke="black"/>
<path d="M345.793,251.443v 8.81583" fill="none" stroke="black"/>
<path d="M345.252,260.258h 1.08193" fill="none" stroke="black"/>
<path d="M358.273,286.088h -6.23973" fill="none" stroke="black"/>
<path d="M352.033,286.628v -1.08193" fill="none" stroke="black"/>
<path d="M358.273,286.088h 6.23973" fill="none" stroke="black"/>
<path d="M364.512,286.628v -1.08193" fill="none" stroke="black"/>
<path d="M358.273,286.088v -7.31086" fill="none" stroke="black"/>
<path d="M357.732,278.777h 1.08193" fill="none" stroke="black"/>
<path d="M358.273,286.088v 7.31086" fill="none" stroke="black"/>
<path d="M357.732,293.398h 1.08193" fill="none" stroke="black"/>
<path d="M370.752,310.825h -6.23973" fill="none" stroke="black"/>
<path d="M364.512,311.366v -1.08193" fill="none" stroke="black"/>
<path d="M370.752,310.825h 6.23973" fill="none" stroke="black"/>
<path d="M376.992,311.366v -1.08193" fill="none" stroke="black"/>
<path d="M370.752,310.825v -5.4849" fill="none" stroke="black"/>
<path d="M370.211,305.34h 1.08193" fill="none" stroke="black"/>
<path d="M370.752,310.825v 5.4849" fill="none" stroke="black"/>
<path d="M370.211,316.31h 1.08193" fill="none" stroke="black"/>
<path d="M383.232,315.872h -6.23973" fill="none" stroke="black"/>
<path d="M376.992,316.412v -1.08193" fill="none" stroke="black"/>
<path d="M383.232,315.872h 6.23973" fill="none" stroke="black"/>
<path d="M389.471,316.412v -1.08193" fill="none" stroke="black"/>
<path d="M383.232,315.872v -5.07941" fill="none" stroke="black"/>
<path d="M382.691,310.792h 1.08193" fill="none" stroke="black"/>
<path d="M383.232,315.872v 5.07941" fill="none" stroke="black"/>
<path d="M382.691,320.951h 1.08193" fill="none" stroke="black"/>
<path d="M395.711,323.831h -6.23973" fill="none" stroke="black"/>
<path d="M389.471,324.372v -1.08193" fill="none" stroke="black"/>
<path d="M395.711,323.831h 6.23973" fill="none" stroke="black"/>
<path d="M401.951,324.372v -1.08193" fill="none" stroke="black"/>
<path d="M395.711,323.831v -4.56597" fill="none" stroke="black"/>
<path d="M395.17,319.265h 1.08193" fill="none" stroke="black"/>
<path d="M395.711,323.831v 4.56597" fill="none" stroke="black"/>
<path d="M395.17,328.397h 1.08193" fill="none" stroke="black"/>
<path d="M408.19,335.138h -6.23973" fill="none" stroke="black"/>
<path d="M401.951,335.679v -1.08193" fill="none" stroke="black"/>
<path d="M408.19,335.138h 6.23973" fill="none" stroke="black"/>
<path d="M414.43,335.679v -1.08193" fill="none" stroke="black"/>
<path d="M408.19,335.138v -2.93677" fill="none" stroke="black"/>
<path d="M407.65,332.201h 1.08193" fill="none" stroke="black"/>
<path d="M408.19,335.138v 2.93677" fill="none" stroke="black"/>
<path d="M407.65,338.075h 1.08193" fill="none" stroke="black"/>
<path d="M420.67,338.071h -6.23973" fill="none" stroke="black"/>
<path d="M414.43,338.612v -1.08193" fill="none" stroke="black"/>
<path d="M420.67,338.071h 6.23973" fill="none" stroke="black"/>
<path d="M426.91,338.612v -1.08193" fill="none" stroke="black"/>
<path d="M420.67,338.071v -2.68664" fill="none" stroke="black"/>
<path d="M420.129,335.385h 1.08193" fill="none" stroke="black"/>
<path d="M420.67,338.071v 2.68664" fill="none" stroke="black"/>
<path d="M420.129,340.758h 1.08193" fill="none" stroke="black"/>
<path d="M433.149,337.596h -6.23973" fill="none" stroke="black"/>
<path d="M426.91,338.137v -1.08193" fill="none" stroke="black"/>
<path d="M433.149,337.596h 6.23973" fill="none" stroke="black"/>
<path d="M439.389,338.137v -1.08193" fill="none" stroke="black"/>
<path d="M433.149,337.596v -2.70274" fill="none" stroke="black"/>
<path d="M432.608,334.894h 1.08193" fill="none" stroke="black"/>
<path d="M433.149,337.596v 2.70274" fill="none" stroke="black"/>
<path d="M432.608,340.299h 1.08193" fill="none" stroke="black"/>
<path d="M445.629,340.026h -6.23973" fill="none" stroke="black"/>
<path d="M439.389,340.567v -1.08193" fill="none" stroke="black"/>
<path d="M445.629,340.026h 6.23973" fill="none" stroke="black"/>
<path d="M451.869,340.567v -1.08193" fill="none" stroke="black"/>
<path d="M445.629,340.026v -2.39759" fill="none" stroke="black"/>
<path d="M445.088,337.629h 1.08193" fill="none" stroke="black"/>
<path d="M445.629,340.026v 2.39759" fill="none" stroke="black"/>
<path d="M445.088,342.424h 1.08193" fill="none" stroke="black"/>
<path d="M458.108,343.616h -6.23973" fill="none" stroke="black"/>
<path d="M451.869,344.157v -1.08193" fill="none" stroke="black"/>
<path d="M458.108,343.616h 6.23973" fill="none" stroke="black"/>
<path d="M464.348,344.157v -1.08193" fill="none" stroke="black"/>
<path d="M458.108,343.616v -1.38957" fill="none" stroke="black"/>
<path d="M457.567,342.227h 1.08193" fill="none" stroke="black"/>
<path d="M458.108,343.616v 1.38957" fill="none" stroke="black"/>
<path d="M457.567,345.006h 1.08193" fill="none" stroke="black"/>
<path d="M470.588,344.671h -6.23973" fill="none" stroke="black"/>
<path d="M464.348,345.212v -1.08193" fill="none" stroke="black"/>
<path d="M470.588,344.671h 6.23973" fill="none" stroke="black"/>
<path d="M476.828,345.212v -1.08193" fill="none" stroke="black"/>
<path d="M470.588,344.671v -1.16586" fill="none" stroke="black"/>
<path d="M470.047,343.505h 1.08193" fill="none" stroke="black"/>
<path d="M470.588,344.671v 1.16586" fill="none" stroke="black"/>
<path d="M470.047,345.836h 1.08193" fill="none" stroke="black"/>
<path d="M483.067,346.543h -6.23973" fill="none" stroke="black"/>
<path d="M476.828,346.543v -0.540963" fill="none" stroke="black"/>
<path d="M483.067,346.543h 4.99178" fill="none" stroke="black"/>
<g stroke="black" stroke-width="1" fill="black">
<circle cx="96.204" cy="346.543" r="2.16385"/>
<circle cx="108.683" cy="340.782" r="2.16385"/>
<circle cx="121.163" cy="335.721" r="2.16385"/>
<circle cx="133.642" cy="336.536" r="2.16385"/>
<circle cx="146.122" cy="337.243" r="2.16385"/>
<circle cx="158.601" cy="327.762" r="2.16385"/>
<circle cx="171.081" cy="332.321" r="2.16385"/>
<circle cx="183.56" cy="335.585" r="2.16385"/>
<circle cx="196.04" cy="310.464" r="2.16385"/>
<circle cx="208.519" cy="299.685" r="2.16385"/>
<circle cx="220.999" cy="295.639" r="2.16385"/>
<circle cx="233.478" cy="269.762" r="2.16385"/>
<circle cx="245.958" cy="255.311" r="2.16385"/>
<circle cx="258.437" cy="192.906" r="2.16385"/>
<circle cx="270.916" cy="166.224" r="2.16385"/>
<circle cx="283.396" cy="100.403" r="2.16385"/>
<circle cx="295.875" cy="66.5824" r="2.16385"/>
<circle cx="308.355" cy="110.934" r="2.16385"/>
<circle cx="320.834" cy="168.32" r="2.16385"/>
<circle cx="333.314" cy="208.479" r="2.16385"/>
<circle cx="345.793" cy="251.443" r="2.16385"/>
<circle cx="358.273" cy="286.088" r="2.16385"/>
<circle cx="370.752" cy="310.825" r="2.16385"/>
<circle cx="383.232" cy="315.872" r="2.16385"/>
<circle cx="395.711" cy="323.831" r="2.16385"/>
<circle cx="408.19" cy="335.138" r="2.16385"/>
<circle cx="420.67" cy="338.071" r="2.16385"/>
<circle cx="433.149" cy="337.596" r="2.16385"/>
<circle cx="445.629" cy="340.026" r="2.16385"/>
<circle cx="458.108" cy="343.616" r="2.16385"/>
<circle cx="470.588" cy="344.671" r="2.16385"/>
<circle cx="483.067" cy="346.543" r="2.16385"/>
</g>
<path d="M102.444,341.473l 3.74384, -0.356217l 3.74384, -0.386395l 3.74384, -0.418948l 3.74384, -0.454017l 3.74384, -0.491746l 3.74384, -0.532284l 3.74384, -0.575787l 3.74384, -0.622416l 3.74384, -0.672339l 3.74384, -0.725737l 3.74384, -0.782806l
 3.74384, -0.843759l 3.74384, -0.908836l 3.74384, -0.978313l 3.74384, -1.05251l 3.74384, -1.13181l 3.74384, -1.21666l 3.74384, -1.30763l 3.74384, -1.40541l 3.74384, -1.51086l 3.74384, -1.62507l 3.74384, -1.74939l 3.74384, -1.88557l 3.74384, -2.0358l
 3.74384, -2.20292l 3.74384, -2.39054l 3.74384, -2.60334l 3.74384, -2.84741l 3.74384, -3.13068l 3.74384, -3.4636l 3.74384, -3.86004l 3.74384, -4.33859l 3.74384, -4.92449l 3.74384, -5.6524l 3.74384, -6.57071l 3.74384, -7.74814l 3.74384, -9.28419l
 1.87192, -5.36866l 1.87192, -5.95757l 3.74384, -13.0543l 3.74384, -13.9393l 3.74384, -14.6184l 3.74384, -15.0321l 3.74384, -15.1261l 3.74384, -14.8554l 3.74384, -14.1887l 3.74384, -13.1117l 3.74384, -11.6299l 1.87192, -5.13948l 1.87192, -4.6304l
 1.87192, -4.08159l 1.87192, -3.49721l 1.87192, -2.88197l 1.87192, -2.24103l 1.87192, -1.57993l 1.87192, -0.904543l 1.87192, -0.220935l 1.87192, 0.464684l 1.87192, 1.14608l 1.87192, 1.81707l 1.87192, 2.47165l 1.87192, 3.10407l 1.87192, 3.7089l
 1.87192, 4.28113l 3.74384, 10.1266l 3.74384, 11.9222l 3.74384, 13.3333l 3.74384, 14.3371l 3.74384, 14.9318l 3.74384, 15.1349l 3.74384, 14.9805l 3.74384, 14.5154l 3.74384, 13.7952l 3.74384, 12.8799l 3.74384, 11.8299l 3.74384, 10.7022l 3.74384,
 9.54821l 3.74384, 8.41134l 3.74384, 7.32621l 3.74384, 6.3183l 3.74384, 5.40436l 3.74384, 4.5933l 3.74384, 3.88744l 3.74384, 3.28384l 3.74384, 2.77578l 3.74384, 2.35401l 3.74384, 2.00796l 3.74384, 1.72662l 3.74384, 1.49931l 3.74384, 1.31612l 3.74384,
 1.16824l 3.74384, 1.04813l 3.74384, 0.949463l 3.74384, 0.867156l 3.74384, 0.797177l 3.74384, 0.736434l 3.74384, 0.682606l 3.74384, 0.633996l 3.74384, 0.589396l 3.74384, 0.547965l 3.74384, 0.509139l 3.74384, 0.472545l 3.74384, 0.437948l 3.74384,
 0.405199l 3.74384, 0.374209l 3.74384, 0.344921l 3.74384, 0.317294l 3.74384, 0.291296l 3.74384, 0.266894" fill="none" stroke="#ff0000" stroke-width="3"/>
<path d="M102.444,342.119l 3.74384, -0.318458l 3.74384, -0.351533l 3.74384, -0.360225l 3.74384, -0.377182l 3.74384, -0.453813l 3.74384, -0.473671l 3.74384, -0.491601l 3.74384, -0.575262l 3.74384, -0.560392l 3.74384, -0.668681l 3.74384, -0.682759l
 3.74384, -0.682241l 3.74384, -0.838261l 3.74384, -0.831193l 3.74384, -0.845529l 3.74384, -0.895559l 3.74384, -0.989596l 3.74384, -1.15095l 3.74384, -1.23565l 3.74384, -1.15604l 3.74384, -1.49709l 3.74384, -1.60268l 3.74384, -1.73048l 3.74384,
 -1.74856l 3.74384, -1.9087l 3.74384, -2.26688l 3.74384, -2.56859l 3.74384, -2.85045l 3.74384, -2.91259l 3.74384, -3.48541l 3.74384, -3.91634l 3.74384, -4.49882l 3.74384, -4.94915l 3.74384, -5.72179l 3.74384, -6.85511l 3.74384, -7.97408l 3.74384,
 -9.77652l 1.87192, -5.61329l 1.87192, -5.77605l 3.74384, -13.0298l 3.74384, -13.6364l 3.74384, -14.7402l 3.74384, -15.1405l 3.74384, -15.4656l 3.74384, -14.9236l 3.74384, -14.3621l 3.74384, -13.1738l 3.74384, -11.4595l 1.87192, -4.98189l 1.87192,
 -4.78891l 1.87192, -4.14441l 1.87192, -3.39976l 1.87192, -2.71951l 1.87192, -2.11523l 1.87192, -1.4651l 1.87192, -0.784501l 1.87192, -0.295769l 1.87192, 0.408012l 1.87192, 1.38278l 1.87192, 1.83795l 1.87192, 2.50087l 1.87192, 3.13961l 1.87192,
 3.57139l 1.87192, 4.61498l 3.74384, 10.1556l 3.74384, 12.0529l 3.74384, 13.459l 3.74384, 14.2782l 3.74384, 14.9595l 3.74384, 14.9603l 3.74384, 14.9465l 3.74384, 14.247l 3.74384, 14.0036l 3.74384, 12.8631l 3.74384, 11.8832l 3.74384, 10.6217l 3.74384,
 10.0145l 3.74384, 8.40692l 3.74384, 7.45086l 3.74384, 6.32396l 3.74384, 5.29361l 3.74384, 4.43495l 3.74384, 3.77155l 3.74384, 3.39746l 3.74384, 2.59492l 3.74384, 2.27387l 3.74384, 2.04785l 3.74384, 1.45784l 3.74384, 1.2091l 3.74384, 1.09612l
 3.74384, 1.04787l 3.74384, 1.00085l 3.74384, 0.776445l 3.74384, 0.665396l 3.74384, 0.543266l 3.74384, 0.572451l 3.74384, 0.598977l 3.74384, 0.427569l 3.74384, 0.398268l 3.74384, 0.4882l 3.74384, 0.371507l 3.74384, 0.403448l 3.74384, 0.30346l
 3.74384, 0.251702l 3.74384, 0.315162l 3.74384, 0.28163l 3.74384, 0.255567l 3.74384, 0.249538l 3.74384, 0.192489v -2.05694l -3.74384, -0.265564l -3.74384, -0.270554l -3.74384, -0.296038l -3.74384, -0.356208l -3.74384, -0.381868l -3.74384, -0.414491l
 -3.74384, -0.357055l -3.74384, -0.365214l -3.74384, -0.437778l -3.74384, -0.497326l -3.74384, -0.519268l -3.74384, -0.595542l -3.74384, -0.617763l -3.74384, -0.632824l -3.74384, -0.761648l -3.74384, -0.876401l -3.74384, -0.940925l -3.74384,
 -1.05295l -3.74384, -1.1998l -3.74384, -1.31873l -3.74384, -1.52308l -3.74384, -1.78804l -3.74384, -2.07692l -3.74384, -2.3686l -3.74384, -2.85312l -3.74384, -3.33622l -3.74384, -3.96359l -3.74384, -4.7973l -3.74384, -5.65555l -3.74384, -6.40995l
 -3.74384, -7.42798l -3.74384, -8.58869l -3.74384, -9.88427l -3.74384, -10.8496l -3.74384, -12.2468l -3.74384, -13.2909l -3.74384, -14.4096l -3.74384, -15.1939l -3.74384, -15.3613l -3.74384, -15.5878l -3.74384, -15.5558l -3.74384, -14.7764l -3.74384,
 -13.7938l -3.74384, -12.3237l -3.74384, -10.8556l -1.87192, -4.44587l -1.87192, -3.71125l -1.87192, -2.89082l -1.87192, -2.53968l -1.87192, -1.80612l -1.87192, -1.13278l -1.87192, -0.373629l -1.87192, 0.497133l -1.87192, 0.857995l -1.87192, 1.80266l
 -1.87192, 1.94614l -1.87192, 2.82063l -1.87192, 3.34934l -1.87192, 4.16643l -1.87192, 4.345l -1.87192, 5.14965l -3.74384, 11.8562l -3.74384, 13.2806l -3.74384, 15.0442l -3.74384, 15.6513l -3.74384, 15.38l -3.74384, 15.4372l -3.74384, 15.0508l
 -3.74384, 14.3628l -3.74384, 13.7079l -1.87192, 5.54787l -1.87192, 5.65086l -3.74384, 10.1136l -3.74384, 8.05184l -3.74384, 7.01402l -3.74384, 5.89477l -3.74384, 5.26906l -3.74384, 4.69156l -3.74384, 4.08453l -3.74384, 3.7133l -3.74384, 3.19797l
 -3.74384, 2.99253l -3.74384, 2.80872l -3.74384, 2.45915l -3.74384, 2.23293l -3.74384, 2.05441l -3.74384, 1.94549l -3.74384, 1.67556l -3.74384, 1.54565l -3.74384, 1.43768l -3.74384, 1.35309l -3.74384, 1.28798l -3.74384, 1.15151l -3.74384, 1.1037l
 -3.74384, 0.980868l -3.74384, 0.930619l -3.74384, 0.862691l -3.74384, 0.70862l -3.74384, 0.763736l -3.74384, 0.62794l -3.74384, 0.693939l -3.74384, 0.536884l -3.74384, 0.570116l -3.74384, 0.5561l -3.74384, 0.461472l -3.74384, 0.458492l -3.74384,
 0.412212l -3.74384, 0.415523l -3.74384, 0.40566z" fill="#00ff00"/>
<path d="M102.444,343.279l 3.74384, -0.149923l 3.74384, -0.160004l 3.74384, -0.170987l 3.74384, -0.182974l 3.74384, -0.196078l 3.74384, -0.210433l 3.74384, -0.226187l 3.74384, -0.243515l 3.74384, -0.262612l 3.74384, -0.283709l 3.74384, -0.307069l
 3.74384, -0.332998l 3.74384, -0.361856l 3.74384, -0.394059l 3.74384, -0.4301l 3.74384, -0.470558l 3.74384, -0.51612l 3.74384, -0.567602l 3.74384, -0.625984l 3.74384, -0.692441l 3.74384, -0.768395l 3.74384, -0.855576l 3.74384, -0.956102l 3.74384,
 -1.07258l 3.74384, -1.20826l 3.74384, -1.36719l 3.74384, -1.55448l 3.74384, -1.77664l 3.74384, -2.04204l 3.74384, -2.36152l 3.74384, -2.74936l 3.74384, -3.22451l 3.74384, -3.81252l 3.74384, -4.54837l 3.74384, -5.48069l 3.74384, -6.67838l 1.87192,
 -3.89734l 1.87192, -4.34372l 1.87192, -4.8591l 1.87192, -5.4571l 3.74384, -12.0838l 3.74384, -13.0148l 3.74384, -13.7461l 3.74384, -14.2181l 3.74384, -14.3761l 3.74384, -14.1749l 3.74384, -13.5826l 3.74384, -12.5846l 3.74384, -11.1858l 1.87192,
 -4.9496l 1.87192, -4.46248l 1.87192, -3.93596l 1.87192, -3.37415l 1.87192, -2.78172l 1.87192, -2.16378l 1.87192, -1.52584l 1.87192, -0.873706l 1.87192, -0.213418l 1.87192, 0.448866l 1.87192, 1.10695l 1.87192, 1.75472l 1.87192, 2.3862l 1.87192,
 2.99568l 1.87192, 3.57778l 1.87192, 4.12754l 1.87192, 4.64049l 1.87192, 5.1127l 3.74384, 11.463l 3.74384, 12.7918l 3.74384, 13.7174l 3.74384, 14.2385l 3.74384, 14.3731l 3.74384, 14.1556l 3.74384, 13.6333l 3.74384, 12.8621l 3.74384, 11.902l 3.74384,
 10.8135l 3.74384, 9.65388l 3.74384, 8.47438l 3.74384, 7.31838l 3.74384, 6.22034l 3.74384, 5.20554l 3.74384, 4.29048l 3.74384, 3.48378l 3.74384, 2.7874l 3.74384, 2.19806l 3.74384, 1.70862l 3.74384, 1.30944l 3.74384, 0.989498l 3.74384, 0.737375l
 3.74384, 0.541941l 3.74384, 0.392868l 3.74384, 0.280937l 3.74384, 0.198186l 3.74384, 0.137934l 3.74384, 0.0947168l 3.74384, 0.0641754l 3.74384, 0.042906l 3.74384, 0.0283072l 3.74384, 0.0184299l 3.74384, 0.031283h 37.4384" fill="none" stroke="black"
 stroke-width="3" stroke-dasharray=" 3, 3"/>
<path d="M102.444,346.104l 3.74384, -0.0711831l 3.74384, -0.080982l 3.74384, -0.0918214l 3.74384, -0.103761l 3.74384, -0.116857l 3.74384, -0.131159l 3.74384, -0.146707l 3.74384, -0.163533l 3.74384, -0.181658l 3.74384, -0.201088l 3.74384, -0.221813l
 3.74384, -0.243807l 3.74384, -0.267025l 3.74384, -0.291398l 3.74384, -0.316839l 3.74384, -0.343233l 3.74384, -0.370443l 3.74384, -0.398304l 3.74384, -0.426627l 3.74384, -0.455197l 3.74384, -0.483772l 3.74384, -0.512089l 3.74384, -0.539862l 3.74384,
 -0.566785l 3.74384, -0.592535l 3.74384, -0.616776l 3.74384, -0.639163l 3.74384, -0.659346l 3.74384, -0.676975l 3.74384, -0.691706l 3.74384, -0.703207l 3.74384, -0.711163l 3.74384, -0.715279l 3.74384, -0.715293l 3.74384, -0.710975l 3.74384,
 -0.702137l 3.74384, -0.688634l 3.74384, -0.670371l 3.74384, -0.647306l 3.74384, -0.619454l 3.74384, -0.586887l 3.74384, -0.549737l 3.74384, -0.508194l 3.74384, -0.462506l 3.74384, -0.41298l 3.74384, -0.359972l 3.74384, -0.303889l 3.74384, -0.245182l
 3.74384, -0.18434l 3.74384, -0.12188l 3.74384, -0.0583466l 3.74384, 0.00570274l 3.74384, 0.0697016l 3.74384, 0.133085l 3.74384, 0.195296l 3.74384, 0.255796l 3.74384, 0.31407l 3.74384, 0.369638l 3.74384, 0.422055l 3.74384, 0.470923l 3.74384,
 0.515894l 3.74384, 0.556673l 3.74384, 0.59302l 3.74384, 0.624756l 3.74384, 0.65176l 3.74384, 0.67397l 3.74384, 0.691381l 3.74384, 0.704047l 3.74384, 0.712069l 3.74384, 0.715601l 3.74384, 0.71484l 3.74384, 0.71002l 3.74384, 0.701412l 3.74384,
 0.689313l 3.74384, 0.674041l 3.74384, 0.655932l 3.74384, 0.635332l 3.74384, 0.61259l 3.74384, 0.588055l 3.74384, 0.562072l 3.74384, 0.534975l 3.74384, 0.507084l 3.74384, 0.4787l 3.74384, 0.450107l 3.74384, 0.421565l 3.74384, 0.393309l 3.74384,
 0.36555l 3.74384, 0.338475l 3.74384, 0.312241l 3.74384, 0.286982l 3.74384, 0.262808l 3.74384, 0.239804l 3.74384, 0.218033l 3.74384, 0.197536l 3.74384, 0.178339l 3.74384, 0.160446l 3.74384, 0.143849l 3.74384, 0.128525l 3.74384, 0.114441l 3.74384,
 0.101555" fill="none" stroke="#84c1a3" stroke-width="3" stroke-dasharray=" 3, 3"/>
<path d="M102.444,345.176l 3.74384, -0.135111l 3.74384, -0.145409l 3.74384, -0.156139l 3.74384, -0.167282l 3.74384, -0.17881l 3.74384, -0.190693l 3.74384, -0.202893l 3.74384, -0.215368l 3.74384, -0.228069l 3.74384, -0.240941l 3.74384, -0.253924l
 3.74384, -0.266953l 3.74384, -0.279956l 3.74384, -0.292855l 3.74384, -0.30557l 3.74384, -0.318014l 3.74384, -0.330096l 3.74384, -0.341724l 3.74384, -0.3528l 3.74384, -0.363225l 3.74384, -0.372901l 3.74384, -0.381727l 3.74384, -0.389603l 3.74384,
 -0.396432l 3.74384, -0.402118l 3.74384, -0.406569l 3.74384, -0.409698l 3.74384, -0.411424l 3.74384, -0.411672l 3.74384, -0.410376l 3.74384, -0.407476l 3.74384, -0.402926l 3.74384, -0.396686l 3.74384, -0.388731l 3.74384, -0.379046l 3.74384,
 -0.367629l 3.74384, -0.354491l 3.74384, -0.339656l 3.74384, -0.323161l 3.74384, -0.305058l 3.74384, -0.28541l 3.74384, -0.264296l 3.74384, -0.241804l 3.74384, -0.218036l 3.74384, -0.193106l 3.74384, -0.167135l 3.74384, -0.140258l 3.74384, -0.112614l
 3.74384, -0.0843508l 3.74384, -0.0556225l 3.74384, -0.0265863l 3.74384, 0.00259734l 3.74384, 0.0317665l 3.74384, 0.0607597l 3.74384, 0.0894166l 3.74384, 0.11758l 3.74384, 0.145099l 3.74384, 0.171825l 3.74384, 0.19762l 3.74384, 0.222352l 3.74384,
 0.245901l 3.74384, 0.268155l 3.74384, 0.289015l 3.74384, 0.308393l 3.74384, 0.326214l 3.74384, 0.342417l 3.74384, 0.356953l 3.74384, 0.369786l 3.74384, 0.380896l 3.74384, 0.390272l 3.74384, 0.397921l 3.74384, 0.403858l 3.74384, 0.408111l 3.74384,
 0.410722l 3.74384, 0.411739l 3.74384, 0.411223l 3.74384, 0.409242l 3.74384, 0.405872l 3.74384, 0.401194l 3.74384, 0.395298l 3.74384, 0.388276l 3.74384, 0.380224l 3.74384, 0.371239l 3.74384, 0.361423l 3.74384, 0.350874l 3.74384, 0.339693l 3.74384,
 0.327978l 3.74384, 0.315824l 3.74384, 0.303326l 3.74384, 0.290572l 3.74384, 0.277648l 3.74384, 0.264636l 3.74384, 0.25161l 3.74384, 0.238641l 3.74384, 0.225795l 3.74384, 0.213131l 3.74384, 0.200702l 3.74384, 0.188555l 3.74384, 0.176733l 3.74384,
 0.165271" fill="none" stroke="#ddba87" stroke-width="3" stroke-dasharray=" 3, 3"/>
<path d="M102.444,341.473l 3.74384, -0.356217l 3.74384, -0.386395l 3.74384, -0.418948l 3.74384, -0.454017l 3.74384, -0.491746l 3.74384, -0.532284l 3.74384, -0.575787l 3.74384, -0.622416l 3.74384, -0.672339l 3.74384, -0.725737l 3.74384, -0.782806l
 3.74384, -0.843759l 3.74384, -0.908836l 3.74384, -0.978313l 3.74384, -1.05251l 3.74384, -1.13181l 3.74384, -1.21666l 3.74384, -1.30763l 3.74384, -1.40541l 3.74384, -1.51086l 3.74384, -1.62507l 3.74384, -1.74939l 3.74384, -1.88557l 3.74384, -2.0358l
 3.74384, -2.20292l 3.74384, -2.39054l 3.74384, -2.60334l 3.74384, -2.84741l 3.74384, -3.13068l 3.74384, -3.4636l 3.74384, -3.86004l 3.74384, -4.33859l 3.74384, -4.92449l 3.74384, -5.6524l 3.74384, -6.57071l 3.74384, -7.74814l 3.74384, -9.28419l
 1.87192, -5.36866l 1.87192, -5.95757l 3.74384, -13.0543l 3.74384, -13.9393l 3.74384, -14.6184l 3.74384, -15.0321l 3.74384, -15.1261l 3.74384, -14.8554l 3.74384, -14.1887l 3.74384, -13.1117l 3.74384, -11.6299l 1.87192, -5.13948l 1.87192, -4.6304l
 1.87192, -4.08159l 1.87192, -3.49721l 1.87192, -2.88197l 1.87192, -2.24103l 1.87192, -1.57993l 1.87192, -0.904543l 1.87192, -0.220935l 1.87192, 0.464684l 1.87192, 1.14608l 1.87192, 1.81707l 1.87192, 2.47165l 1.87192, 3.10407l 1.87192, 3.7089l
 1.87192, 4.28113l 3.74384, 10.1266l 3.74384, 11.9222l 3.74384, 13.3333l 3.74384, 14.3371l 3.74384, 14.9318l 3.74384, 15.1349l 3.74384, 14.9805l 3.74384, 14.5154l 3.74384, 13.7952l 3.74384, 12.8799l 3.74384, 11.8299l 3.74384, 10.7022l 3.74384,
 9.54821l 3.74384, 8.41134l 3.74384, 7.32621l 3.74384, 6.3183l 3.74384, 5.40436l 3.74384, 4.5933l 3.74384, 3.88744l 3.74384, 3.28384l 3.74384, 2.77578l 3.74384, 2.35401l 3.74384, 2.00796l 3.74384, 1.72662l 3.74384, 1.49931l 3.74384, 1.31612l 3.74384,
 1.16824l 3.74384, 1.04813l 3.74384, 0.949463l 3.74384, 0.867156l 3.74384, 0.797177l 3.74384, 0.736434l 3.74384, 0.682606l 3.74384, 0.633996l 3.74384, 0.589396l 3.74384, 0.547965l 3.74384, 0.509139l 3.74384, 0.472545l 3.74384, 0.437948l 3.74384,
 0.405199l 3.74384, 0.374209l 3.74384, 0.344921l 3.74384, 0.317294l 3.74384, 0.291296l 3.74384, 0.266894" fill="none" stroke="#ff0000" stroke-width="3"/>
<path d="M96.204,346.543h -6.23973" fill="none" stroke="black"/>
<path d="M89.9642,346.543v -0.540963" fill="none" stroke="black"/>
<path d="M96.204,346.543h 6.23973" fill="none" stroke="black"/>
<path d="M102.444,346.543v -0.540963" fill="none" stroke="black"/>
<path d="M108.683,340.782h -6.23973" fill="none" stroke="black"/>
<path d="M102.444,341.323v -1.08193" fill="none" stroke="black"/>
<path d="M108.683,340.782h 6.23973" fill="none" stroke="black"/>
<path d="M114.923,341.323v -1.08193" fill="none" stroke="black"/>
<path d="M108.683,340.782v -2.08295" fill="none" stroke="black"/>
<path d="M108.142,338.699h 1.08193" fill="none" stroke="black"/>
<path d="M108.683,340.782v 2.08295" fill="none" stroke="black"/>
<path d="M108.142,342.865h 1.08193" fill="none" stroke="black"/>
<path d="M121.163,335.721h -6.23973" fill="none" stroke="black"/>
<path d="M114.923,336.262v -1.08193" fill="none" stroke="black"/>
<path d="M121.163,335.721h 6.23973" fill="none" stroke="black"/>
<path d="M127.403,336.262v -1.08193" fill="none" stroke="black"/>
<path d="M121.163,335.721v -3.07274" fill="none" stroke="black"/>
<path d="M120.622,332.649h 1.08193" fill="none" stroke="black"/>
<path d="M121.163,335.721v 3.07274" fill="none" stroke="black"/>
<path d="M120.622,338.794h 1.08193" fill="none" stroke="black"/>
<path d="M133.642,336.536h -6.23973" fill="none" stroke="black"/>
<path d="M127.403,337.077v -1.08193" fill="none" stroke="black"/>
<path d="M133.642,336.536h 6.23973" fill="none" stroke="black"/>
<path d="M139.882,337.077v -1.08193" fill="none" stroke="black"/>
<path d="M133.642,336.536v -2.80768" fill="none" stroke="black"/>
<path d="M133.101,333.728h 1.08193" fill="none" stroke="black"/>
<path d="M133.642,336.536v 2.80768" fill="none" stroke="black"/>
<path d="M133.101,339.343h 1.08193" fill="none" stroke="black"/>
<path d="M146.122,337.243h -6.23973" fill="none" stroke="black"/>
<path d="M139.882,337.784v -1.08193" fill="none" stroke="black"/>
<path d="M146.122,337.243h 6.23973" fill="none" stroke="black"/>
<path d="M152.362,337.784v -1.08193" fill="none" stroke="black"/>
<path d="M146.122,337.243v -2.83785" fill="none" stroke="black"/>
<path d="M145.581,334.405h 1.08193" fill="none" stroke="black"/>
<path d="M146.122,337.243v 2.83785" fill="none" stroke="black"/>
<path d="M145.581,340.081h 1.08193" fill="none" stroke="black"/>
<path d="M158.601,327.762h -6.23973" fill="none" stroke="black"/>
<path d="M152.362,328.303v -1.08193" fill="none" stroke="black"/>
<path d="M158.601,327.762h 6.23973" fill="none" stroke="black"/>
<path d="M164.841,328.303v -1.08193" fill="none" stroke="black"/>
<path d="M158.601,327.762v -4.48308" fill="none" stroke="black"/>
<path d="M158.06,323.279h 1.08193" fill="none" stroke="black"/>
<path d="M158.601,327.762v 4.48308" fill="none" stroke="black"/>
<path d="M158.06,332.246h 1.08193" fill="none" stroke="black"/>
<path d="M171.081,332.321h -6.23973" fill="none" stroke="black"/>
<path d="M164.841,332.862v -1.08193" fill="none" stroke="black"/>
<path d="M171.081,332.321h 6.23973" fill="none" stroke="black"/>
<path d="M177.32,332.862v -1.08193" fill="none" stroke="black"/>
<path d="M171.081,332.321v -3.28882" fill="none" stroke="black"/>
<path d="M170.54,329.032h 1.08193" fill="none" stroke="black"/>
<path d="M171.081,332.321v 3.28882" fill="none" stroke="black"/>
<path d="M170.54,335.61h 1.08193" fill="none" stroke="black"/>
<path d="M183.56,335.585h -6.23973" fill="none" stroke="black"/>
<path d="M177.32,336.126v -1.08193" fill="none" stroke="black"/>
<path d="M183.56,335.585h 6.23973" fill="none" stroke="black"/>
<path d="M189.8,336.126v -1.08193" fill="none" stroke="black"/>
<path d="M183.56,335.585v -2.89267" fill="none" stroke="black"/>
<path d="M183.019,332.692h 1.08193" fill="none" stroke="black"/>
<path d="M183.56,335.585v 2.89267" fill="none" stroke="black"/>
<path d="M183.019,338.477h 1.08193" fill="none" stroke="black"/>
<path d="M196.04,310.464h -6.23973" fill="none" stroke="black"/>
<path d="M189.8,311.005v -1.08193" fill="none" stroke="black"/>
<path d="M196.04,310.464h 6.23973" fill="none" stroke="black"/>
<path d="M202.279,311.005v -1.08193" fill="none" stroke="black"/>
<path d="M196.04,310.464v -5.72624" fill="none" stroke="black"/>
<path d="M195.499,304.738h 1.08193" fill="none" stroke="black"/>
<path d="M196.04,310.464v 5.72624" fill="none" stroke="black"/>
<path d="M195.499,316.19h 1.08193" fill="none" stroke="black"/>
<path d="M208.519,299.685h -6.23973" fill="none" stroke="black"/>
<path d="M202.279,300.226v -1.08193" fill="none" stroke="black"/>
<path d="M208.519,299.685h 6.23973" fill="none" stroke="black"/>
<path d="M214.759,300.226v -1.08193" fill="none" stroke="black"/>
<path d="M208.519,299.685v -6.31733" fill="none" stroke="black"/>
<path d="M207.978,293.367h 1.08193" fill="none" stroke="black"/>
<path d="M208.519,299.685v 6.31733" fill="none" stroke="black"/>
<path d="M207.978,306.002h 1.08193" fill="none" stroke="black"/>
<path d="M220.999,295.639h -6.23973" fill="none" stroke="black"/>
<path d="M214.759,296.18v -1.08193" fill="none" stroke="black"/>
<path d="M220.999,295.639h 6.23973" fill="none" stroke="black"/>
<path d="M227.238,296.18v -1.08193" fill="none" stroke="black"/>
<path d="M220.999,295.639v -6.52585" fill="none" stroke="black"/>
<path d="M220.458,289.114h 1.08193" fill="none" stroke="black"/>
<path d="M220.999,295.639v 6.52585" fill="none" stroke="black"/>
<path d="M220.458,302.165h 1.08193" fill="none" stroke="black"/>
<path d="M233.478,269.762h -6.23973" fill="none" stroke="black"/>
<path d="M227.238,270.303v -1.08193" fill="none" stroke="black"/>
<path d="M233.478,269.762h 6.23973" fill="none" stroke="black"/>
<path d="M239.718,270.303v -1.08193" fill="none" stroke="black"/>
<path d="M233.478,269.762v -8.43263" fill="none" stroke="black"/>
<path d="M232.937,261.329h 1.08193" fill="none" stroke="black"/>
<path d="M233.478,269.762v 8.43263" fill="none" stroke="black"/>
<path d="M232.937,278.194h 1.08193" fill="none" stroke="black"/>
<path d="M245.958,255.311h -6.23973" fill="none" stroke="black"/>
<path d="M239.718,255.852v -1.08193" fill="none" stroke="black"/>
<path d="M245.958,255.311h 6.23973" fill="none" stroke="black"/>
<path d="M252.197,255.852v -1.08193" fill="none" stroke="black"/>
<path d="M245.958,255.311v -8.80795" fill="none" stroke="black"/>
<path d="M245.417,246.503h 1.08193" fill="none" stroke="black"/>
<path d="M245.958,255.311v 8.80795" fill="none" stroke="black"/>
<path d="M245.417,264.119h 1.08193" fill="none" stroke="black"/>
<path d="M258.437,192.906h -6.23973" fill="none" stroke="black"/>
<path d="M252.197,193.447v -1.08193" fill="none" stroke="black"/>
<path d="M258.437,192.906h 6.23973" fill="none" stroke="black"/>
<path d="M264.677,193.447v -1.08193" fill="none" stroke="black"/>
<path d="M258.437,192.906v -11.5361" fill="none" stroke="black"/>
<path d="M257.896,181.369h 1.08193" fill="none" stroke="black"/>
<path d="M258.437,192.906v 11.5361" fill="none" stroke="black"/>
<path d="M257.896,204.442h 1.08193" fill="none" stroke="black"/>
<path d="M270.916,166.224h -6.23973" fill="none" stroke="black"/>
<path d="M264.677,166.765v -1.08193" fill="none" stroke="black"/>
<path d="M270.916,166.224h 6.23973" fill="none" stroke="black"/>
<path d="M277.156,166.765v -1.08193" fill="none" stroke="black"/>
<path d="M270.916,166.224v -12.3604" fill="none" stroke="black"/>
<path d="M270.375,153.863h 1.08193" fill="none" stroke="black"/>
<path d="M270.916,166.224v 12.3604" fill="none" stroke="black"/>
<path d="M270.375,178.584h 1.08193" fill="none" stroke="black"/>
<path d="M283.396,100.403h -6.23973" fill="none" stroke="black"/>
<path d="M277.156,100.944v -1.08193" fill="none" stroke="black"/>
<path d="M283.396,100.403h 6.23973" fill="none" stroke="black"/>
<path d="M289.636,100.944v -1.08193" fill="none" stroke="black"/>
<path d="M283.396,100.403v -14.9513" fill="none" stroke="black"/>
<path d="M282.855,85.4519h 1.08193" fill="none" stroke="black"/>
<path d="M283.396,100.403v 14.9513" fill="none" stroke="black"/>
<path d="M282.855,115.354h 1.08193" fill="none" stroke="black"/>
<path d="M295.875,66.5824h -6.23973" fill="none" stroke="black"/>
<path d="M289.636,67.1234v -1.08193" fill="none" stroke="black"/>
<path d="M295.875,66.5824h 6.23973" fill="none" stroke="black"/>
<path d="M302.115,67.1234v -1.08193" fill="none" stroke="black"/>
<path d="M295.875,66.5824v -15.6115" fill="none" stroke="black"/>
<path d="M295.334,50.9709h 1.08193" fill="none" stroke="black"/>
<path d="M295.875,66.5824v 15.6115" fill="none" stroke="black"/>
<path d="M295.334,82.1939h 1.08193" fill="none" stroke="black"/>
<path d="M308.355,110.934h -6.23973" fill="none" stroke="black"/>
<path d="M302.115,111.475v -1.08193" fill="none" stroke="black"/>
<path d="M308.355,110.934h 6.23973" fill="none" stroke="black"/>
<path d="M314.595,111.475v -1.08193" fill="none" stroke="black"/>
<path d="M308.355,110.934v -14.2955" fill="none" stroke="black"/>
<path d="M307.814,96.6387h 1.08193" fill="none" stroke="black"/>
<path d="M308.355,110.934v 14.2955" fill="none" stroke="black"/>
<path d="M307.814,125.23h 1.08193" fill="none" stroke="black"/>
<path d="M320.834,168.32h -6.23973" fill="none" stroke="black"/>
<path d="M314.595,168.861v -1.08193" fill="none" stroke="black"/>
<path d="M320.834,168.32h 6.23973" fill="none" stroke="black"/>
<path d="M327.074,168.861v -1.08193" fill="none" stroke="black"/>
<path d="M320.834,168.32v -12.6753" fill="none" stroke="black"/>
<path d="M320.293,155.645h 1.08193" fill="none" stroke="black"/>
<path d="M320.834,168.32v 12.6753" fill="none" stroke="black"/>
<path d="M320.293,180.996h 1.08193" fill="none" stroke="black"/>
<path d="M333.314,208.479h -6.23973" fill="none" stroke="black"/>
<path d="M327.074,209.02v -1.08193" fill="none" stroke="black"/>
<path d="M333.314,208.479h 6.23973" fill="none" stroke="black"/>
<path d="M339.553,209.02v -1.08193" fill="none" stroke="black"/>
<path d="M333.314,208.479v -10.7969" fill="none" stroke="black"/>
<path d="M332.773,197.682h 1.08193" fill="none" stroke="black"/>
<path d="M333.314,208.479v 10.7969" fill="none" stroke="black"/>
<path d="M332.773,219.276h 1.08193" fill="none" stroke="black"/>
<path d="M345.793,251.443h -6.23973" fill="none" stroke="black"/>
<path d="M339.553,251.984v -1.08193" fill="none" stroke="black"/>
<path d="M345.793,251.443h 6.23973" fill="none" stroke="black"/>
<path d="M352.033,251.984v -1.08193" fill="none" stroke="black"/>
<path d="M345.793,251.443v -8.81583" fill="none" stroke="black"/>
<path d="M345.252,242.627h 1.08193" fill="none" stroke="black"/>
<path d="M345.793,251.443v 8.81583" fill="none" stroke="black"/>
<path d="M345.252,260.258h 1.08193" fill="none" stroke="black"/>
<path d="M358.273,286.088h -6.23973" fill="none" stroke="black"/>
<path d="M352.033,286.628v -1.08193" fill="none" stroke="black"/>
<path d="M358.273,286.088h 6.23973" fill="none" stroke="black"/>
<path d="M364.512,286.628v -1.08193" fill="none" stroke="black"/>
<path d="M358.273,286.088v -7.31086" fill="none" stroke="black"/>
<path d="M357.732,278.777h 1.08193" fill="none" stroke="black"/>
<path d="M358.273,286.088v 7.31086" fill="none" stroke="black"/>
<path d="M357.732,293.398h 1.08193" fill="none" stroke="black"/>
<path d="M370.752,310.825h -6.23973" fill="none" stroke="black"/>
<path d="M364.512,311.366v -1.08193" fill="none" stroke="black"/>
<path d="M370.752,310.825h 6.23973" fill="none" stroke="black"/>
<path d="M376.992,311.366v -1.08193" fill="none" stroke="black"/>
<path d="M370.752,310.825v -5.4849" fill="none" stroke="black"/>
<path d="M370.211,305.34h 1.08193" fill="none" stroke="black"/>
<path d="M370.752,310.825v 5.4849" fill="none" stroke="black"/>
<path d="M370.211,316.31h 1.08193" fill="none" stroke="black"/>
<path d="M383.232,315.872h -6.23973" fill="none" stroke="black"/>
<path d="M376.992,316.412v -1.08193" fill="none" stroke="black"/>
<path d="M383.232,315.872h 6.23973" fill="none" stroke="black"/>
<path d="M389.471,316.412v -1.08193" fill="none" stroke="black"/>
<path d="M383.232,315.872v -5.07941" fill="none" stroke="black"/>
<path d="M382.691,310.792h 1.08193" fill="none" stroke="black"/>
<path d="M383.232,315.872v 5.07941" fill="none" stroke="black"/>
<path d="M382.691,320.951h 1.08193" fill="none" stroke="black"/>
<path d="M395.711,323.831h -6.23973" fill="none" stroke="black"/>
<path d="M389.471,324.372v -1.08193" fill="none" stroke="black"/>
<path d="M395.711,323.831h 6.23973" fill="none" stroke="black"/>
<path d="M401.951,324.372v -1.08193" fill="none" stroke="black"/>
<path d="M395.711,323.831v -4.56597" fill="none" stroke="black"/>
<path d="M395.17,319.265h 1.08193" fill="none" stroke="black"/>
<path d="M395.711,323.831v 4.56597" fill="none" stroke="black"/>
<path d="M395.17,328.397h 1.08193" fill="none" stroke="black"/>
<path d="M408.19,335.138h -6.23973" fill="none" stroke="black"/>
<path d="M401.951,335.679v -1.08193" fill="none" stroke="black"/>
<path d="M408.19,335.138h 6.23973" fill="none" stroke="black"/>
<path d="M414.43,335.679v -1.08193" fill="none" stroke="black"/>
<path d="M408.19,335.138v -2.93677" fill="none" stroke="black"/>
<path d="M407.65,332.201h 1.08193" fill="none" stroke="black"/>
<path d="M408.19,335.138v 2.93677" fill="none" stroke="black"/>
<path d="M407.65,338.075h 1.08193" fill="none" stroke="black"/>
<path d="M420.67,338.071h -6.23973" fill="none" stroke="black"/>
<path d="M414.43,338.612v -1.08193" fill="none" stroke="black"/>
<path d="M420.67,338.071h 6.23973" fill="none" stroke="black"/>
<path d="M426.91,338.612v -1.08193" fill="none" stroke="black"/>
<path d="M420.67,338.071v -2.68664" fill="none" stroke="black"/>
<path d="M420.129,335.385h 1.08193" fill="none" stroke="black"/>
<path d="M420.67,338.071v 2.68664" fill="none" stroke="black"/>
<path d="M420.129,340.758h 1.08193" fill="none" stroke="black"/>
<path d="M433.149,337.596h -6.23973" fill="none" stroke="black"/>
<path d="M426.91,338.137v -1.08193" fill="none" stroke="black"/>
<path d="M433.149,337.596h 6.23973" fill="none" stroke="black"/>
<path d="M439.389,338.137v -1.08193" fill="none" stroke="black"/>
<path d="M433.149,337.596v -2.70274" fill="none" stroke="black"/>
<path d="M432.608,334.894h 1.08193" fill="none" stroke="black"/>
<path d="M433.149,337.596v 2.70274" fill="none" stroke="black"/>
<path d="M432.608,340.299h 1.08193" fill="none" stroke="black"/>
<path d="M445.629,340.026h -6.23973" fill="none" stroke="black"/>
<path d="M439.389,340.567v -1.08193" fill="none" stroke="black"/>
<path d="M445.629,340.026h 6.23973" fill="none" stroke="black"/>
<path d="M451.869,340.567v -1.08193" fill="none" stroke="black"/>
<path d="M445.629,340.026v -2.39759" fill="none" stroke="black"/>
<path d="M445.088,337.629h 1.08193" fill="none" stroke="black"/>
<path d="M445.629,340.026v 2.39759" fill="none" stroke="black"/>
<path d="M445.088,342.424h 1.08193" fill="none" stroke="black"/>
<path d="M458.108,343.616h -6.23973" fill="none" stroke="black"/>
<path d="M451.869,344.157v -1.08193" fill="none" stroke="black"/>
<path d="M458.108,343.616h 6.23973" fill="none" stroke="black"/>
<path d="M464.348,344.157v -1.08193" fill="none" stroke="black"/>
<path d="M458.108,343.616v -1.38957" fill="none" stroke="black"/>
<path d="M457.567,342.227h 1.08193" fill="none" stroke="black"/>
<path d="M458.108,343.616v 1.38957" fill="none" stroke="black"/>
<path d="M457.567,345.006h 1.08193" fill="none" stroke="black"/>
<path d="M470.588,344.671h -6.23973" fill="none" stroke="black"/>
<path d="M464.348,345.212v -1.08193" fill="none" stroke="black"/>
<path d="M470.588,344.671h 6.23973" fill="none" stroke="black"/>
<path d="M476.828,345.212v -1.08193" fill="none" stroke="black"/>
<path d="M470.588,344.671v -1.16586" fill="none" stroke="black"/>
<path d="M470.047,343.505h 1.08193" fill="none" stroke="black"/>
<path d="M470.588,344.671v 1.16586" fill="none" stroke="black"/>
<path d="M470.047,345.836h 1.08193" fill="none" stroke="black"/>
<path d="M483.067,346.543h -6.23973" fill="none" stroke="black"/>
<path d="M476.828,346.543v -0.540963" fill="none" stroke="black"/>
<path d="M483.067,346.543h 4.99178" fill="none" stroke="black"/>
<g stroke="black" stroke-width="1" fill="black">
<circle cx="96.204" cy="346.543" r="2.16385"/>
<circle cx="108.683" cy="340.782" r="2.16385"/>
<circle cx="121.163" cy="335.721" r="2.16385"/>
<circle cx="133.642" cy="336.536" r="2.16385"/>
<circle cx="146.122" cy="337.243" r="2.16385"/>
<circle cx="158.601" cy="327.762" r="2.16385"/>
<circle cx="171.081" cy="332.321" r="2.16385"/>
<circle cx="183.56" cy="335.585" r="2.16385"/>
<circle cx="196.04" cy="310.464" r="2.16385"/>
<circle cx="208.519" cy="299.685" r="2.16385"/>
<circle cx="220.999" cy="295.639" r="2.16385"/>
<circle cx="233.478" cy="269.762" r="2.16385"/>
<circle cx="245.958" cy="255.311" r="2.16385"/>
<circle cx="258.437" cy="192.906" r="2.16385"/>
<circle cx="270.916" cy="166.224" r="2.16385"/>
<circle cx="283.396" cy="100.403" r="2.16385"/>
<circle cx="295.875" cy="66.5824" r="2.16385"/>
<circle cx="308.355" cy="110.934" r="2.16385"/>
<circle cx="320.834" cy="168.32" r="2.16385"/>
<circle cx="333.314" cy="208.479" r="2.16385"/>
<circle cx="345.793" cy="251.443" r="2.16385"/>
<circle cx="358.273" cy="286.088" r="2.16385"/>
<circle cx="370.752" cy="310.825" r="2.16385"/>
<circle cx="383.232" cy="315.872" r="2.16385"/>
<circle cx="395.711" cy="323.831" r="2.16385"/>
<circle cx="408.19" cy="335.138" r="2.16385"/>
<circle cx="420.67" cy="338.071" r="2.16385"/>
<circle cx="433.149" cy="337.596" r="2.16385"/>
<circle cx="445.629" cy="340.026" r="2.16385"/>
<circle cx="458.108" cy="343.616" r="2.16385"/>
<circle cx="470.588" cy="344.671" r="2.16385"/>
<circle cx="483.067" cy="346.543" r="2.16385"/>
</g>
<text xml:space="preserve" x="168.739" y="132.265" fill="black" font-size="9.78783" font-family="Helvetica" font-weight="bold"> 1.47 (GeV)</text>
<text xml:space="preserve" x="163.6" y="132.265" fill="black" font-size="9.78783" font-family="Times">&#0177;</text>
<text xml:space="preserve" x="119.512" y="132.265" fill="black" font-size="9.78783" font-family="Helvetica" font-weight="bold">: 1208.46 </text>
<text xml:space="preserve" x="110.586" y="137.134" fill="black" font-size="6.69188" font-family="Helvetica" font-weight="bold">CB</text>
<text xml:space="preserve" x="105.176" y="132.265" fill="black" font-size="9.78783" font-family="Times">&#0956;</text>
<text xml:space="preserve" x="158.461" y="147.953" fill="black" font-size="9.78783" font-family="Helvetica" font-weight="bold"> 0.91 (GeV)</text>
<text xml:space="preserve" x="153.322" y="147.953" fill="black" font-size="9.78783" font-family="Times">&#0177;</text>
<text xml:space="preserve" x="119.782" y="147.953" fill="black" font-size="9.78783" font-family="Helvetica" font-weight="bold">: 53.69 </text>
<text xml:space="preserve" x="110.856" y="150.929" fill="black" font-size="6.69188" font-family="Helvetica" font-weight="bold">CB</text>
<text xml:space="preserve" x="105.176" y="147.953" fill="black" font-size="9.78783" font-family="Times">&#0963;</text>
<text xml:space="preserve" x="153.592" y="163.371" fill="black" font-size="9.78783" font-family="Helvetica" font-weight="bold"> 0.08</text>
<text xml:space="preserve" x="148.453" y="163.371" fill="black" font-size="9.78783" font-family="Times">&#0177;</text>
<text xml:space="preserve" x="120.053" y="163.371" fill="black" font-size="9.78783" font-family="Helvetica" font-weight="bold">: 1.49 </text>
<text xml:space="preserve" x="111.127" y="166.346" fill="black" font-size="6.69188" font-family="Helvetica" font-weight="bold">CB</text>
<text xml:space="preserve" x="105.176" y="163.371" fill="black" font-size="9.78783" font-family="Times">&#0945;</text>
<text xml:space="preserve" x="153.052" y="179.059" fill="black" font-size="9.78783" font-family="Helvetica" font-weight="bold"> 0.49</text>
<text xml:space="preserve" x="147.912" y="179.059" fill="black" font-size="9.78783" font-family="Times">&#0177;</text>
<text xml:space="preserve" x="119.512" y="179.059" fill="black" font-size="9.78783" font-family="Helvetica" font-weight="bold">: 2.30 </text>
<text xml:space="preserve" x="110.586" y="181.764" fill="black" font-size="6.69188" font-family="Helvetica" font-weight="bold">CB</text>
<text xml:space="preserve" x="105.176" y="179.059" fill="black" font-size="9.78783" font-family="Helvetica" font-weight="bold">n</text>
<text xml:space="preserve" x="171.715" y="194.476" fill="black" font-size="9.78783" font-family="Helvetica" font-weight="bold"> 45.63 (GeV)</text>
<text xml:space="preserve" x="166.576" y="194.476" fill="black" font-size="9.78783" font-family="Times">&#0177;</text>
<text xml:space="preserve" x="128.979" y="194.476" fill="black" font-size="9.78783" font-family="Helvetica" font-weight="bold">: 110.41 </text>
<text xml:space="preserve" x="110.856" y="197.451" fill="black" font-size="6.69188" font-family="Helvetica" font-weight="bold">Gaus1</text>
<text xml:space="preserve" x="105.176" y="194.476" fill="black" font-size="9.78783" font-family="Times">&#0963;</text>
<text xml:space="preserve" x="173.879" y="210.164" fill="black" font-size="9.78783" font-family="Helvetica" font-weight="bold"> 148.46 (GeV)</text>
<text xml:space="preserve" x="168.739" y="210.164" fill="black" font-size="9.78783" font-family="Times">&#0177;</text>
<text xml:space="preserve" x="129.79" y="210.164" fill="black" font-size="9.78783" font-family="Helvetica" font-weight="bold">: 139.46 </text>
<text xml:space="preserve" x="110.856" y="213.139" fill="black" font-size="6.69188" font-family="Helvetica" font-weight="bold">Gaus2</text>
<text xml:space="preserve" x="105.176" y="210.164" fill="black" font-size="9.78783" font-family="Times">&#0963;</text>
<text xml:space="preserve" x="161.166" y="225.582" fill="black" font-size="9.78783" font-family="Helvetica" font-weight="bold"> 0.11</text>
<text xml:space="preserve" x="156.027" y="225.582" fill="black" font-size="9.78783" font-family="Times">&#0177;</text>
<text xml:space="preserve" x="105.176" y="225.582" fill="black" font-size="9.78783" font-family="Helvetica" font-weight="bold">frac1: 0.83 </text>
<text xml:space="preserve" x="161.166" y="241.269" fill="black" font-size="9.78783" font-family="Helvetica" font-weight="bold"> 0.19</text>
<text xml:space="preserve" x="156.027" y="241.269" fill="black" font-size="9.78783" font-family="Times">&#0177;</text>
<text xml:space="preserve" x="105.176" y="241.269" fill="black" font-size="9.78783" font-family="Helvetica" font-weight="bold">frac2: 0.86 </text>
<path d="M84.9724,346.543h 403.087" fill="none" stroke="black"/>
<path d="M102.444,337.315v 9.22817" fill="none" stroke="black"/>
<path d="M114.923,341.929v 4.61409" fill="none" stroke="black"/>
<path d="M127.403,341.929v 4.61409" fill="none" stroke="black"/>
<path d="M139.882,341.929v 4.61409" fill="none" stroke="black"/>
<path d="M152.362,341.929v 4.61409" fill="none" stroke="black"/>
<path d="M164.841,337.315v 9.22817" fill="none" stroke="black"/>
<path d="M177.32,341.929v 4.61409" fill="none" stroke="black"/>
<path d="M189.8,341.929v 4.61409" fill="none" stroke="black"/>
<path d="M202.279,341.929v 4.61409" fill="none" stroke="black"/>
<path d="M214.759,341.929v 4.61409" fill="none" stroke="black"/>
<path d="M227.238,337.315v 9.22817" fill="none" stroke="black"/>
<path d="M239.718,341.929v 4.61409" fill="none" stroke="black"/>
<path d="M252.197,341.929v 4.61409" fill="none" stroke="black"/>
<path d="M264.677,341.929v 4.61409" fill="none" stroke="black"/>
<path d="M277.156,341.929v 4.61409" fill="none" stroke="black"/>
<path d="M289.636,337.315v 9.22817" fill="none" stroke="black"/>
<path d="M302.115,341.929v 4.61409" fill="none" stroke="black"/>
<path d="M314.595,341.929v 4.61409" fill="none" stroke="black"/>
<path d="M327.074,341.929v 4.61409" fill="none" stroke="black"/>
<path d="M339.553,341.929v 4.61409" fill="none" stroke="black"/>
<path d="M352.033,337.315v 9.22817" fill="none" stroke="black"/>
<path d="M364.512,341.929v 4.61409" fill="none" stroke="black"/>
<path d="M376.992,341.929v 4.61409" fill="none" stroke="black"/>
<path d="M389.471,341.929v 4.61409" fill="none" stroke="black"/>
<path d="M401.951,341.929v 4.61409" fill="none" stroke="black"/>
<path d="M414.43,337.315v 9.22817" fill="none" stroke="black"/>
<path d="M426.91,341.929v 4.61409" fill="none" stroke="black"/>
<path d="M439.389,341.929v 4.61409" fill="none" stroke="black"/>
<path d="M451.869,341.929v 4.61409" fill="none" stroke="black"/>
<path d="M464.348,341.929v 4.61409" fill="none" stroke="black"/>
<path d="M476.828,337.315v 9.22817" fill="none" stroke="black"/>
<path d="M102.444,337.315v 9.22817" fill="none" stroke="black"/>
<path d="M89.9642,341.929v 4.61409" fill="none" stroke="black"/>
<path d="M476.828,337.315v 9.22817" fill="none" stroke="black"/>
<path d="M84.9724,346.543v -307.606" fill="none" stroke="black"/>
<path d="M97.065,346.543h -12.0926" fill="none" stroke="black"/>
<path d="M91.0187,338.853h -6.0463" fill="none" stroke="black"/>
<path d="M91.0187,331.163h -6.0463" fill="none" stroke="black"/>
<path d="M91.0187,323.473h -6.0463" fill="none" stroke="black"/>
<path d="M91.0187,315.783h -6.0463" fill="none" stroke="black"/>
<path d="M97.065,308.092h -12.0926" fill="none" stroke="black"/>
<path d="M91.0187,300.402h -6.0463" fill="none" stroke="black"/>
<path d="M91.0187,292.712h -6.0463" fill="none" stroke="black"/>
<path d="M91.0187,285.022h -6.0463" fill="none" stroke="black"/>
<path d="M91.0187,277.332h -6.0463" fill="none" stroke="black"/>
<path d="M97.065,269.642h -12.0926" fill="none" stroke="black"/>
<path d="M91.0187,261.952h -6.0463" fill="none" stroke="black"/>
<path d="M91.0187,254.261h -6.0463" fill="none" stroke="black"/>
<path d="M91.0187,246.571h -6.0463" fill="none" stroke="black"/>
<path d="M91.0187,238.881h -6.0463" fill="none" stroke="black"/>
<path d="M97.065,231.191h -12.0926" fill="none" stroke="black"/>
<path d="M91.0187,223.501h -6.0463" fill="none" stroke="black"/>
<path d="M91.0187,215.811h -6.0463" fill="none" stroke="black"/>
<path d="M91.0187,208.121h -6.0463" fill="none" stroke="black"/>
<path d="M91.0187,200.43h -6.0463" fill="none" stroke="black"/>
<path d="M97.065,192.74h -12.0926" fill="none" stroke="black"/>
<path d="M91.0187,185.05h -6.0463" fill="none" stroke="black"/>
<path d="M91.0187,177.36h -6.0463" fill="none" stroke="black"/>
<path d="M91.0187,169.67h -6.0463" fill="none" stroke="black"/>
<path d="M91.0187,161.98h -6.0463" fill="none" stroke="black"/>
<path d="M97.065,154.29h -12.0926" fill="none" stroke="black"/>
<path d="M91.0187,146.599h -6.0463" fill="none" stroke="black"/>
<path d="M91.0187,138.909h -6.0463" fill="none" stroke="black"/>
<path d="M91.0187,131.219h -6.0463" fill="none" stroke="black"/>
<path d="M91.0187,123.529h -6.0463" fill="none" stroke="black"/>
<path d="M97.065,115.839h -12.0926" fill="none" stroke="black"/>
<path d="M91.0187,108.149h -6.0463" fill="none" stroke="black"/>
<path d="M91.0187,100.459h -6.0463" fill="none" stroke="black"/>
<path d="M91.0187,92.7684h -6.0463" fill="none" stroke="black"/>
<path d="M91.0187,85.0783h -6.0463" fill="none" stroke="black"/>
<path d="M97.065,77.3881h -12.0926" fill="none" stroke="black"/>
<path d="M91.0187,69.698h -6.0463" fill="none" stroke="black"/>
<path d="M91.0187,62.0079h -6.0463" fill="none" stroke="black"/>
<path d="M91.0187,54.3177h -6.0463" fill="none" stroke="black"/>
<path d="M91.0187,46.6276h -6.0463" fill="none" stroke="black"/>
<path d="M97.065,38.9374h -12.0926" fill="none" stroke="black"/>
<text xml:space="preserve" x="403.517" y="32.9987" fill="black" font-size="13.0028" font-family="Helvetica"> (13 TeV) 2017</text>
<text xml:space="preserve" x="397.567" y="27.3186" fill="black" font-size="8.83523" font-family="Helvetica">-1</text>
<text xml:space="preserve" x="351.855" y="32.9987" fill="black" font-size="13.0028" font-family="Helvetica">41.53 fb</text>
<text xml:space="preserve" x="103.111" y="66.2787" fill="black" font-size="16.5751" font-family="Helvetica" font-weight="bold">CMS</text>
<text xml:space="preserve" x="103.012" y="80.0625" fill="black" font-size="12.7171" font-family="Helvetica" font-style="oblique">Simulation</text>
<rect x="334.988" y="46.7249" width="142.866" height="50.6187" fill="white"/>
<path d="M334.988,97.3436h 142.866" fill="none" stroke="black"/>
<path d="M477.854,97.3436v -50.6187" fill="none" stroke="black"/>
<path d="M477.854,46.7249h -142.866" fill="none" stroke="black"/>
<path d="M334.988,46.7249v 50.6187" fill="none" stroke="black"/>
<text xml:space="preserve" x="370.519" y="58.6945" fill="black" font-size="11.2167" font-family="Helvetica">2017 Signal MC</text>
<path d="M340.346,55.1614h 25.0016" fill="none" stroke="black"/>
<path d="M352.846,52.9975v -2.89801" fill="none" stroke="black"/>
<path d="M352.846,57.3252v 2.89801" fill="none" stroke="black"/>
<path d="M350.971,50.0995h 3.75024" fill="none" stroke="black"/>
<path d="M350.971,60.2232h 3.75024" fill="none" stroke="black"/>
<g stroke="black" stroke-width="1" fill="black">
<circle cx="352.846" cy="55.1614" r="2.16385"/>
</g>
<text xml:space="preserve" x="370.519" y="75.7348" fill="black" font-size="11.2167" font-family="Helvetica">Signal fit CB2Gaus</text>
<path d="M340.346,72.0342h 25.0016" fill="none" stroke="#ff0000" stroke-width="3"/>
<text xml:space="preserve" x="420.287" y="92.5047" fill="black" font-size="11.2167" font-family="Times">&#0963;</text>
<text xml:space="preserve" x="370.519" y="92.5047" fill="black" font-size="11.2167" font-family="Helvetica">Fit Error 1 </text>
<path d="M340.346,94.8126h 25.0016v -11.811h -25.0016z" fill="#00ff00"/>
<path d="M340.346,83.0016h 25.0016" fill="none" stroke="white"/>
<path d="M340.346,94.8126h 25.0016" fill="none" stroke="white"/>
<path d="M365.347,94.8126v -11.811" fill="none" stroke="white"/>
<path d="M340.346,94.8126v -11.811" fill="none" stroke="white"/>
<rect x="28.8465" y="365.372" width="510.236" height="114.679" fill="white"/>
<rect x="84.9724" y="388.307" width="403.087" height="63.0733" fill="white"/>
<rect x="84.9724" y="388.307" width="403.087" height="63.0733" fill="none" stroke="black"/>
<rect x="84.9724" y="388.307" width="403.087" height="63.0733" fill="white"/>
<rect x="84.9724" y="388.307" width="403.087" height="63.0733" fill="none" stroke="black"/>
<path d="M84.9724,451.381h 403.087" fill="none" stroke="black"/>
<path d="M102.444,388.307v 63.0733" fill="none" stroke="black" stroke-dasharray=" 1, 2"/>
<path d="M164.841,388.307v 63.0733" fill="none" stroke="black" stroke-dasharray=" 1, 2"/>
<path d="M227.238,388.307v 63.0733" fill="none" stroke="black" stroke-dasharray=" 1, 2"/>
<path d="M289.636,388.307v 63.0733" fill="none" stroke="black" stroke-dasharray=" 1, 2"/>
<path d="M352.033,388.307v 63.0733" fill="none" stroke="black" stroke-dasharray=" 1, 2"/>
<path d="M414.43,388.307v 63.0733" fill="none" stroke="black" stroke-dasharray=" 1, 2"/>
<path d="M476.828,388.307v 63.0733" fill="none" stroke="black" stroke-dasharray=" 1, 2"/>
<path d="M102.444,388.307v 63.0733" fill="none" stroke="black" stroke-dasharray=" 1, 2"/>
<path d="M476.828,388.307v 63.0733" fill="none" stroke="black" stroke-dasharray=" 1, 2"/>
<path d="M84.9724,451.381v -63.0733" fill="none" stroke="black"/>
<path d="M488.059,445.073h -403.087" fill="none" stroke="black" stroke-dasharray=" 1, 2"/>
<path d="M488.059,432.459h -403.087" fill="none" stroke="black" stroke-dasharray=" 1, 2"/>
<path d="M488.059,419.844h -403.087" fill="none" stroke="black" stroke-dasharray=" 1, 2"/>
<path d="M488.059,407.229h -403.087" fill="none" stroke="black" stroke-dasharray=" 1, 2"/>
<path d="M488.059,394.615h -403.087" fill="none" stroke="black" stroke-dasharray=" 1, 2"/>
<path d="M488.059,445.073h -403.087" fill="none" stroke="black" stroke-dasharray=" 1, 2"/>
<path d="M488.059,394.615h -403.087" fill="none" stroke="black" stroke-dasharray=" 1, 2"/>
<path d="M84.9724,451.381h 403.087" fill="none" stroke="black"/>
<path d="M102.444,448.663v 2.71789" fill="none" stroke="black"/>
<path d="M114.923,450.022v 1.35894" fill="none" stroke="black"/>
<path d="M127.403,450.022v 1.35894" fill="none" stroke="black"/>
<path d="M139.882,450.022v 1.35894" fill="none" stroke="black"/>
<path d="M152.362,450.022v 1.35894" fill="none" stroke="black"/>
<path d="M164.841,448.663v 2.71789" fill="none" stroke="black"/>
<path d="M177.32,450.022v 1.35894" fill="none" stroke="black"/>
<path d="M189.8,450.022v 1.35894" fill="none" stroke="black"/>
<path d="M202.279,450.022v 1.35894" fill="none" stroke="black"/>
<path d="M214.759,450.022v 1.35894" fill="none" stroke="black"/>
<path d="M227.238,448.663v 2.71789" fill="none" stroke="black"/>
<path d="M239.718,450.022v 1.35894" fill="none" stroke="black"/>
<path d="M252.197,450.022v 1.35894" fill="none" stroke="black"/>
<path d="M264.677,450.022v 1.35894" fill="none" stroke="black"/>
<path d="M277.156,450.022v 1.35894" fill="none" stroke="black"/>
<path d="M289.636,448.663v 2.71789" fill="none" stroke="black"/>
<path d="M302.115,450.022v 1.35894" fill="none" stroke="black"/>
<path d="M314.595,450.022v 1.35894" fill="none" stroke="black"/>
<path d="M327.074,450.022v 1.35894" fill="none" stroke="black"/>
<path d="M339.553,450.022v 1.35894" fill="none" stroke="black"/>
<path d="M352.033,448.663v 2.71789" fill="none" stroke="black"/>
<path d="M364.512,450.022v 1.35894" fill="none" stroke="black"/>
<path d="M376.992,450.022v 1.35894" fill="none" stroke="black"/>
<path d="M389.471,450.022v 1.35894" fill="none" stroke="black"/>
<path d="M401.951,450.022v 1.35894" fill="none" stroke="black"/>
<path d="M414.43,448.663v 2.71789" fill="none" stroke="black"/>
<path d="M426.91,450.022v 1.35894" fill="none" stroke="black"/>
<path d="M439.389,450.022v 1.35894" fill="none" stroke="black"/>
<path d="M451.869,450.022v 1.35894" fill="none" stroke="black"/>
<path d="M464.348,450.022v 1.35894" fill="none" stroke="black"/>
<path d="M476.828,448.663v 2.71789" fill="none" stroke="black"/>
<path d="M102.444,448.663v 2.71789" fill="none" stroke="black"/>
<path d="M89.9642,450.022v 1.35894" fill="none" stroke="black"/>
<path d="M476.828,448.663v 2.71789" fill="none" stroke="black"/>
<text xml:space="preserve" x="91.6523" y="462.794" fill="black" font-size="13.1252" font-family="Helvetica">900</text>
<text xml:space="preserve" x="150.617" y="462.794" fill="black" font-size="13.1252" font-family="Helvetica">1000</text>
<text xml:space="preserve" x="213.098" y="462.794" fill="black" font-size="13.1252" font-family="Helvetica">1100</text>
<text xml:space="preserve" x="275.309" y="462.794" fill="black" font-size="13.1252" font-family="Helvetica">1200</text>
<text xml:space="preserve" x="337.79" y="462.794" fill="black" font-size="13.1252" font-family="Helvetica">1300</text>
<text xml:space="preserve" x="400.272" y="462.794" fill="black" font-size="13.1252" font-family="Helvetica">1400</text>
<text xml:space="preserve" x="462.753" y="462.794" fill="black" font-size="13.1252" font-family="Helvetica">1500</text>
<text xml:space="preserve" x="451.393" y="475.236" fill="black" font-size="13.1252" font-family="Helvetica"> (GeV)</text>
<text xml:space="preserve" x="447.065" y="479.023" fill="black" font-size="8.91679" font-family="Times">&#0947;</text>
<text xml:space="preserve" x="445.172" y="479.023" fill="black" font-size="8.91679" font-family="Helvetica">j</text>
<text xml:space="preserve" x="435.434" y="475.236" fill="black" font-size="13.1252" font-family="Helvetica">M</text>
<path d="M84.9724,451.381v -63.0733" fill="none" stroke="black"/>
<path d="M93.3913,445.073h -8.4189" fill="none" stroke="black"/>
<path d="M93.3913,432.459h -8.4189" fill="none" stroke="black"/>
<path d="M93.3913,419.844h -8.4189" fill="none" stroke="black"/>
<path d="M93.3913,407.229h -8.4189" fill="none" stroke="black"/>
<path d="M93.3913,394.615h -8.4189" fill="none" stroke="black"/>
<path d="M93.3913,445.073h -8.4189" fill="none" stroke="black"/>
<path d="M93.3913,394.615h -8.4189" fill="none" stroke="black"/>
<text xml:space="preserve" x="75.4234" y="449.811" fill="black" font-size="13.1252" font-family="Helvetica">4</text>
<text xml:space="preserve" x="68.3908" y="449.811" fill="black" font-size="13.1252" font-family="Times">&#8722;</text>
<text xml:space="preserve" x="75.4234" y="437.098" fill="black" font-size="13.1252" font-family="Helvetica">2</text>
<text xml:space="preserve" x="68.3908" y="437.098" fill="black" font-size="13.1252" font-family="Times">&#8722;</text>
<text xml:space="preserve" x="75.6938" y="424.385" fill="black" font-size="13.1252" font-family="Helvetica">0</text>
<text xml:space="preserve" x="75.4234" y="411.943" fill="black" font-size="13.1252" font-family="Helvetica">2</text>
<text xml:space="preserve" x="75.4234" y="399.231" fill="black" font-size="13.1252" font-family="Helvetica">4</text>
<g transform="rotate(-90,57.5716,408.156)">
<text xml:space="preserve" x="57.5716" y="408.156" fill="black" font-size="8.91679" font-family="Helvetica">stat</text>
</g>
<g transform="rotate(-90,53.7848,415.73)">
<text xml:space="preserve" x="53.7848" y="415.73" fill="black" font-size="13.1252" font-family="Times">&#0963;</text>
</g>
<g transform="rotate(-90,43.2361,421.951)">
<text xml:space="preserve" x="43.2361" y="421.951" fill="black" font-size="13.1252" font-family="Helvetica">MC-fit</text>
</g>
<path d="M45.3999,421.951v -33.8102" fill="none" stroke="black" stroke-width="2"/>
<rect x="102.471" y="419.611" width="12.4254" height="0.233618" fill="#3399ff" fill-opacity="0.70" stroke-opacity="0.70"/>
<rect x="114.95" y="412.363" width="12.4254" height="7.48108" fill="#3399ff" fill-opacity="0.70" stroke-opacity="0.70"/>
<rect x="127.43" y="417.877" width="12.4254" height="1.96729" fill="#3399ff" fill-opacity="0.70" stroke-opacity="0.70"/>
<rect x="139.909" y="419.844" width="12.4254" height="5.22542" fill="#3399ff" fill-opacity="0.70" stroke-opacity="0.70"/>
<rect x="152.389" y="414.345" width="12.4254" height="5.49925" fill="#3399ff" fill-opacity="0.70" stroke-opacity="0.70"/>
<rect x="164.868" y="419.844" width="12.4254" height="9.15585" fill="#3399ff" fill-opacity="0.70" stroke-opacity="0.70"/>
<rect x="177.348" y="419.844" width="12.4254" height="28.9502" fill="#3399ff" fill-opacity="0.70" stroke-opacity="0.70"/>
<rect x="189.827" y="414.187" width="12.4254" height="5.65716" fill="#3399ff" fill-opacity="0.70" stroke-opacity="0.70"/>
<rect x="202.306" y="412.825" width="12.4254" height="7.01942" fill="#3399ff" fill-opacity="0.70" stroke-opacity="0.70"/>
<rect x="214.786" y="419.844" width="12.4254" height="1.18629" fill="#3399ff" fill-opacity="0.70" stroke-opacity="0.70"/>
<rect x="227.265" y="415.314" width="12.4254" height="4.52999" fill="#3399ff" fill-opacity="0.70" stroke-opacity="0.70"/>
<rect x="239.745" y="419.844" width="12.4254" height="8.73823" fill="#3399ff" fill-opacity="0.70" stroke-opacity="0.70"/>
<rect x="252.224" y="418.247" width="12.4254" height="1.59685" fill="#3399ff" fill-opacity="0.70" stroke-opacity="0.70"/>
<rect x="264.704" y="419.844" width="12.4254" height="9.99049" fill="#3399ff" fill-opacity="0.70" stroke-opacity="0.70"/>
<rect x="277.183" y="416.043" width="12.4254" height="3.80076" fill="#3399ff" fill-opacity="0.70" stroke-opacity="0.70"/>
<rect x="289.663" y="407.603" width="12.4254" height="12.2414" fill="#3399ff" fill-opacity="0.70" stroke-opacity="0.70"/>
<rect x="302.142" y="418.615" width="12.4254" height="1.22922" fill="#3399ff" fill-opacity="0.70" stroke-opacity="0.70"/>
<rect x="314.622" y="419.844" width="12.4254" height="7.18496" fill="#3399ff" fill-opacity="0.70" stroke-opacity="0.70"/>
<rect x="327.101" y="419.844" width="12.4254" height="2.9128" fill="#3399ff" fill-opacity="0.70" stroke-opacity="0.70"/>
<rect x="339.581" y="419.844" width="12.4254" height="1.26322" fill="#3399ff" fill-opacity="0.70" stroke-opacity="0.70"/>
<rect x="352.06" y="419.844" width="12.4254" height="1.31689" fill="#3399ff" fill-opacity="0.70" stroke-opacity="0.70"/>
<rect x="364.539" y="419.844" width="12.4254" height="3.91979" fill="#3399ff" fill-opacity="0.70" stroke-opacity="0.70"/>
<rect x="377.019" y="413.498" width="12.4254" height="6.34607" fill="#3399ff" fill-opacity="0.70" stroke-opacity="0.70"/>
<rect x="389.498" y="413.124" width="12.4254" height="6.71984" fill="#3399ff" fill-opacity="0.70" stroke-opacity="0.70"/>
<rect x="401.978" y="419.844" width="12.4254" height="3.64487" fill="#3399ff" fill-opacity="0.70" stroke-opacity="0.70"/>
<rect x="414.457" y="419.844" width="12.4254" height="3.23171" fill="#3399ff" fill-opacity="0.70" stroke-opacity="0.70"/>
<rect x="426.937" y="416.283" width="12.4254" height="3.56127" fill="#3399ff" fill-opacity="0.70" stroke-opacity="0.70"/>
<rect x="439.416" y="417.225" width="12.4254" height="2.61883" fill="#3399ff" fill-opacity="0.70" stroke-opacity="0.70"/>
<rect x="451.896" y="419.844" width="12.4254" height="5.03296" fill="#3399ff" fill-opacity="0.70" stroke-opacity="0.70"/>
<rect x="464.375" y="419.844" width="12.4254" height="5.5707" fill="#3399ff" fill-opacity="0.70" stroke-opacity="0.70"/>
<path d="M84.9724,451.381h 403.087" fill="none" stroke="black"/>
<path d="M102.444,448.663v 2.71789" fill="none" stroke="black"/>
<path d="M114.923,450.022v 1.35894" fill="none" stroke="black"/>
<path d="M127.403,450.022v 1.35894" fill="none" stroke="black"/>
<path d="M139.882,450.022v 1.35894" fill="none" stroke="black"/>
<path d="M152.362,450.022v 1.35894" fill="none" stroke="black"/>
<path d="M164.841,448.663v 2.71789" fill="none" stroke="black"/>
<path d="M177.32,450.022v 1.35894" fill="none" stroke="black"/>
<path d="M189.8,450.022v 1.35894" fill="none" stroke="black"/>
<path d="M202.279,450.022v 1.35894" fill="none" stroke="black"/>
<path d="M214.759,450.022v 1.35894" fill="none" stroke="black"/>
<path d="M227.238,448.663v 2.71789" fill="none" stroke="black"/>
<path d="M239.718,450.022v 1.35894" fill="none" stroke="black"/>
<path d="M252.197,450.022v 1.35894" fill="none" stroke="black"/>
<path d="M264.677,450.022v 1.35894" fill="none" stroke="black"/>
<path d="M277.156,450.022v 1.35894" fill="none" stroke="black"/>
<path d="M289.636,448.663v 2.71789" fill="none" stroke="black"/>
<path d="M302.115,450.022v 1.35894" fill="none" stroke="black"/>
<path d="M314.595,450.022v 1.35894" fill="none" stroke="black"/>
<path d="M327.074,450.022v 1.35894" fill="none" stroke="black"/>
<path d="M339.553,450.022v 1.35894" fill="none" stroke="black"/>
<path d="M352.033,448.663v 2.71789" fill="none" stroke="black"/>
<path d="M364.512,450.022v 1.35894" fill="none" stroke="black"/>
<path d="M376.992,450.022v 1.35894" fill="none" stroke="black"/>
<path d="M389.471,450.022v 1.35894" fill="none" stroke="black"/>
<path d="M401.951,450.022v 1.35894" fill="none" stroke="black"/>
<path d="M414.43,448.663v 2.71789" fill="none" stroke="black"/>
<path d="M426.91,450.022v 1.35894" fill="none" stroke="black"/>
<path d="M439.389,450.022v 1.35894" fill="none" stroke="black"/>
<path d="M451.869,450.022v 1.35894" fill="none" stroke="black"/>
<path d="M464.348,450.022v 1.35894" fill="none" stroke="black"/>
<path d="M476.828,448.663v 2.71789" fill="none" stroke="black"/>
<path d="M102.444,448.663v 2.71789" fill="none" stroke="black"/>
<path d="M89.9642,450.022v 1.35894" fill="none" stroke="black"/>
<path d="M476.828,448.663v 2.71789" fill="none" stroke="black"/>
<path d="M84.9724,451.381v -63.0733" fill="none" stroke="black"/>
<path d="M93.3913,445.073h -8.4189" fill="none" stroke="black"/>
<path d="M93.3913,432.459h -8.4189" fill="none" stroke="black"/>
<path d="M93.3913,419.844h -8.4189" fill="none" stroke="black"/>
<path d="M93.3913,407.229h -8.4189" fill="none" stroke="black"/>
<path d="M93.3913,394.615h -8.4189" fill="none" stroke="black"/>
<path d="M93.3913,445.073h -8.4189" fill="none" stroke="black"/>
<path d="M93.3913,394.615h -8.4189" fill="none" stroke="black"/></svg>
