<?xml version="1.0" standalone="no"?>
<svg width="567.429" height="533.889" viewBox="0 0 567.429 533.889" xmlns="http://www.w3.org/2000/svg" shape-rendering="crispEdges">
<title>
CB2Gaus1600.svg
</title>
<desc>
Creator: ROOT Version 6.10/09
CreationDate: Sun Apr 19 21:42:14 2020</desc>
<defs>
</defs>
<rect x="0.5" y="0" width="566.929" height="533.389" fill="white"/>
<rect x="28.8465" y="0" width="510.236" height="389.374" fill="white"/>
<rect x="84.9724" y="38.9374" width="403.087" height="307.606" fill="white"/>
<rect x="84.9724" y="38.9374" width="403.087" height="307.606" fill="none" stroke="black"/>
<rect x="84.9724" y="38.9374" width="403.087" height="307.606" fill="white"/>
<rect x="84.9724" y="38.9374" width="403.087" height="307.606" fill="none" stroke="black"/>
<path d="M84.9724,346.543h 403.087" fill="none" stroke="black"/>
<path d="M95.4053,337.315v 9.22817" fill="none" stroke="black"/>
<path d="M104.89,341.929v 4.61409" fill="none" stroke="black"/>
<path d="M114.374,341.929v 4.61409" fill="none" stroke="black"/>
<path d="M123.858,341.929v 4.61409" fill="none" stroke="black"/>
<path d="M133.343,341.929v 4.61409" fill="none" stroke="black"/>
<path d="M142.827,337.315v 9.22817" fill="none" stroke="black"/>
<path d="M152.312,341.929v 4.61409" fill="none" stroke="black"/>
<path d="M161.796,341.929v 4.61409" fill="none" stroke="black"/>
<path d="M171.28,341.929v 4.61409" fill="none" stroke="black"/>
<path d="M180.765,341.929v 4.61409" fill="none" stroke="black"/>
<path d="M190.249,337.315v 9.22817" fill="none" stroke="black"/>
<path d="M199.734,341.929v 4.61409" fill="none" stroke="black"/>
<path d="M209.218,341.929v 4.61409" fill="none" stroke="black"/>
<path d="M218.702,341.929v 4.61409" fill="none" stroke="black"/>
<path d="M228.187,341.929v 4.61409" fill="none" stroke="black"/>
<path d="M237.671,337.315v 9.22817" fill="none" stroke="black"/>
<path d="M247.156,341.929v 4.61409" fill="none" stroke="black"/>
<path d="M256.64,341.929v 4.61409" fill="none" stroke="black"/>
<path d="M266.124,341.929v 4.61409" fill="none" stroke="black"/>
<path d="M275.609,341.929v 4.61409" fill="none" stroke="black"/>
<path d="M285.093,337.315v 9.22817" fill="none" stroke="black"/>
<path d="M294.577,341.929v 4.61409" fill="none" stroke="black"/>
<path d="M304.062,341.929v 4.61409" fill="none" stroke="black"/>
<path d="M313.546,341.929v 4.61409" fill="none" stroke="black"/>
<path d="M323.031,341.929v 4.61409" fill="none" stroke="black"/>
<path d="M332.515,337.315v 9.22817" fill="none" stroke="black"/>
<path d="M341.999,341.929v 4.61409" fill="none" stroke="black"/>
<path d="M351.484,341.929v 4.61409" fill="none" stroke="black"/>
<path d="M360.968,341.929v 4.61409" fill="none" stroke="black"/>
<path d="M370.453,341.929v 4.61409" fill="none" stroke="black"/>
<path d="M379.937,337.315v 9.22817" fill="none" stroke="black"/>
<path d="M389.421,341.929v 4.61409" fill="none" stroke="black"/>
<path d="M398.906,341.929v 4.61409" fill="none" stroke="black"/>
<path d="M408.39,341.929v 4.61409" fill="none" stroke="black"/>
<path d="M417.875,341.929v 4.61409" fill="none" stroke="black"/>
<path d="M427.359,337.315v 9.22817" fill="none" stroke="black"/>
<path d="M436.843,341.929v 4.61409" fill="none" stroke="black"/>
<path d="M446.328,341.929v 4.61409" fill="none" stroke="black"/>
<path d="M455.812,341.929v 4.61409" fill="none" stroke="black"/>
<path d="M465.297,341.929v 4.61409" fill="none" stroke="black"/>
<path d="M474.781,337.315v 9.22817" fill="none" stroke="black"/>
<path d="M95.4053,337.315v 9.22817" fill="none" stroke="black"/>
<path d="M85.9209,341.929v 4.61409" fill="none" stroke="black"/>
<path d="M474.781,337.315v 9.22817" fill="none" stroke="black"/>
<path d="M484.265,341.929v 4.61409" fill="none" stroke="black"/>
<text xml:space="preserve" x="77.3167" y="362.445" fill="black" font-size="16.5751" font-family="Helvetica">1200</text>
<text xml:space="preserve" x="124.921" y="362.445" fill="black" font-size="16.5751" font-family="Helvetica">1300</text>
<text xml:space="preserve" x="172.256" y="362.445" fill="black" font-size="16.5751" font-family="Helvetica">1400</text>
<text xml:space="preserve" x="219.59" y="362.445" fill="black" font-size="16.5751" font-family="Helvetica">1500</text>
<text xml:space="preserve" x="267.195" y="362.445" fill="black" font-size="16.5751" font-family="Helvetica">1600</text>
<text xml:space="preserve" x="314.529" y="362.445" fill="black" font-size="16.5751" font-family="Helvetica">1700</text>
<text xml:space="preserve" x="361.863" y="362.445" fill="black" font-size="16.5751" font-family="Helvetica">1800</text>
<text xml:space="preserve" x="409.468" y="362.445" fill="black" font-size="16.5751" font-family="Helvetica">1900</text>
<text xml:space="preserve" x="456.802" y="362.445" fill="black" font-size="16.5751" font-family="Helvetica">2000</text>
<path d="M84.9724,346.543v -307.606" fill="none" stroke="black"/>
<path d="M97.065,346.543h -12.0926" fill="none" stroke="black"/>
<path d="M91.0187,338.853h -6.0463" fill="none" stroke="black"/>
<path d="M91.0187,331.163h -6.0463" fill="none" stroke="black"/>
<path d="M91.0187,323.473h -6.0463" fill="none" stroke="black"/>
<path d="M91.0187,315.783h -6.0463" fill="none" stroke="black"/>
<path d="M97.065,308.092h -12.0926" fill="none" stroke="black"/>
<path d="M91.0187,300.402h -6.0463" fill="none" stroke="black"/>
<path d="M91.0187,292.712h -6.0463" fill="none" stroke="black"/>
<path d="M91.0187,285.022h -6.0463" fill="none" stroke="black"/>
<path d="M91.0187,277.332h -6.0463" fill="none" stroke="black"/>
<path d="M97.065,269.642h -12.0926" fill="none" stroke="black"/>
<path d="M91.0187,261.952h -6.0463" fill="none" stroke="black"/>
<path d="M91.0187,254.261h -6.0463" fill="none" stroke="black"/>
<path d="M91.0187,246.571h -6.0463" fill="none" stroke="black"/>
<path d="M91.0187,238.881h -6.0463" fill="none" stroke="black"/>
<path d="M97.065,231.191h -12.0926" fill="none" stroke="black"/>
<path d="M91.0187,223.501h -6.0463" fill="none" stroke="black"/>
<path d="M91.0187,215.811h -6.0463" fill="none" stroke="black"/>
<path d="M91.0187,208.121h -6.0463" fill="none" stroke="black"/>
<path d="M91.0187,200.43h -6.0463" fill="none" stroke="black"/>
<path d="M97.065,192.74h -12.0926" fill="none" stroke="black"/>
<path d="M91.0187,185.05h -6.0463" fill="none" stroke="black"/>
<path d="M91.0187,177.36h -6.0463" fill="none" stroke="black"/>
<path d="M91.0187,169.67h -6.0463" fill="none" stroke="black"/>
<path d="M91.0187,161.98h -6.0463" fill="none" stroke="black"/>
<path d="M97.065,154.29h -12.0926" fill="none" stroke="black"/>
<path d="M91.0187,146.599h -6.0463" fill="none" stroke="black"/>
<path d="M91.0187,138.909h -6.0463" fill="none" stroke="black"/>
<path d="M91.0187,131.219h -6.0463" fill="none" stroke="black"/>
<path d="M91.0187,123.529h -6.0463" fill="none" stroke="black"/>
<path d="M97.065,115.839h -12.0926" fill="none" stroke="black"/>
<path d="M91.0187,108.149h -6.0463" fill="none" stroke="black"/>
<path d="M91.0187,100.459h -6.0463" fill="none" stroke="black"/>
<path d="M91.0187,92.7684h -6.0463" fill="none" stroke="black"/>
<path d="M91.0187,85.0783h -6.0463" fill="none" stroke="black"/>
<path d="M97.065,77.3881h -12.0926" fill="none" stroke="black"/>
<path d="M91.0187,69.698h -6.0463" fill="none" stroke="black"/>
<path d="M91.0187,62.0079h -6.0463" fill="none" stroke="black"/>
<path d="M91.0187,54.3177h -6.0463" fill="none" stroke="black"/>
<path d="M91.0187,46.6276h -6.0463" fill="none" stroke="black"/>
<path d="M97.065,38.9374h -12.0926" fill="none" stroke="black"/>
<text xml:space="preserve" x="73.8005" y="352.167" fill="black" font-size="16.5751" font-family="Helvetica">0</text>
<text xml:space="preserve" x="64.8746" y="313.758" fill="black" font-size="16.5751" font-family="Helvetica">50</text>
<text xml:space="preserve" x="55.6782" y="275.08" fill="black" font-size="16.5751" font-family="Helvetica">100</text>
<text xml:space="preserve" x="55.6782" y="236.671" fill="black" font-size="16.5751" font-family="Helvetica">150</text>
<text xml:space="preserve" x="55.6782" y="198.263" fill="black" font-size="16.5751" font-family="Helvetica">200</text>
<text xml:space="preserve" x="55.6782" y="159.855" fill="black" font-size="16.5751" font-family="Helvetica">250</text>
<text xml:space="preserve" x="55.6782" y="121.446" fill="black" font-size="16.5751" font-family="Helvetica">300</text>
<text xml:space="preserve" x="55.6782" y="83.0378" fill="black" font-size="16.5751" font-family="Helvetica">350</text>
<text xml:space="preserve" x="55.6782" y="44.359" fill="black" font-size="16.5751" font-family="Helvetica">400</text>
<g transform="rotate(-90,41.0722,156.609)">
<text xml:space="preserve" x="41.0722" y="156.609" fill="black" font-size="16.5751" font-family="Helvetica">Events / 20 GeV</text>
</g>
<path d="M90.6631,346.543h -4.7422" fill="none" stroke="black"/>
<path d="M85.9209,346.543v -0.540963" fill="none" stroke="black"/>
<path d="M90.6631,346.543h 4.7422" fill="none" stroke="black"/>
<path d="M95.4053,346.543v -0.540963" fill="none" stroke="black"/>
<path d="M100.147,341.186h -4.7422" fill="none" stroke="black"/>
<path d="M95.4053,341.727v -1.08193" fill="none" stroke="black"/>
<path d="M100.147,341.186h 4.7422" fill="none" stroke="black"/>
<path d="M104.89,341.727v -1.08193" fill="none" stroke="black"/>
<path d="M100.147,341.186v -2.27309" fill="none" stroke="black"/>
<path d="M99.6065,338.913h 1.08193" fill="none" stroke="black"/>
<path d="M100.147,341.186v 2.27309" fill="none" stroke="black"/>
<path d="M99.6065,343.459h 1.08193" fill="none" stroke="black"/>
<path d="M109.632,342.326h -4.7422" fill="none" stroke="black"/>
<path d="M104.89,342.867v -1.08193" fill="none" stroke="black"/>
<path d="M109.632,342.326h 4.7422" fill="none" stroke="black"/>
<path d="M114.374,342.867v -1.08193" fill="none" stroke="black"/>
<path d="M109.632,342.326v -2.04136" fill="none" stroke="black"/>
<path d="M109.091,340.284h 1.08193" fill="none" stroke="black"/>
<path d="M109.632,342.326v 2.04136" fill="none" stroke="black"/>
<path d="M109.091,344.367h 1.08193" fill="none" stroke="black"/>
<path d="M119.116,338.638h -4.7422" fill="none" stroke="black"/>
<path d="M114.374,339.179v -1.08193" fill="none" stroke="black"/>
<path d="M119.116,338.638h 4.7422" fill="none" stroke="black"/>
<path d="M123.858,339.179v -1.08193" fill="none" stroke="black"/>
<path d="M119.116,338.638v -2.61681" fill="none" stroke="black"/>
<path d="M118.575,336.022h 1.08193" fill="none" stroke="black"/>
<path d="M119.116,338.638v 2.61681" fill="none" stroke="black"/>
<path d="M118.575,341.255h 1.08193" fill="none" stroke="black"/>
<path d="M128.601,334.836h -4.7422" fill="none" stroke="black"/>
<path d="M123.858,335.377v -1.08193" fill="none" stroke="black"/>
<path d="M128.601,334.836h 4.7422" fill="none" stroke="black"/>
<path d="M133.343,335.377v -1.08193" fill="none" stroke="black"/>
<path d="M128.601,334.836v -3.32561" fill="none" stroke="black"/>
<path d="M128.06,331.51h 1.08193" fill="none" stroke="black"/>
<path d="M128.601,334.836v 3.32561" fill="none" stroke="black"/>
<path d="M128.06,338.161h 1.08193" fill="none" stroke="black"/>
<path d="M138.085,335.954h -4.7422" fill="none" stroke="black"/>
<path d="M133.343,336.495v -1.08193" fill="none" stroke="black"/>
<path d="M138.085,335.954h 4.7422" fill="none" stroke="black"/>
<path d="M142.827,336.495v -1.08193" fill="none" stroke="black"/>
<path d="M138.085,335.954v -3.04959" fill="none" stroke="black"/>
<path d="M137.544,332.904h 1.08193" fill="none" stroke="black"/>
<path d="M138.085,335.954v 3.04959" fill="none" stroke="black"/>
<path d="M137.544,339.004h 1.08193" fill="none" stroke="black"/>
<path d="M147.569,331.918h -4.7422" fill="none" stroke="black"/>
<path d="M142.827,332.459v -1.08193" fill="none" stroke="black"/>
<path d="M147.569,331.918h 4.7422" fill="none" stroke="black"/>
<path d="M152.312,332.459v -1.08193" fill="none" stroke="black"/>
<path d="M147.569,331.918v -3.39984" fill="none" stroke="black"/>
<path d="M147.028,328.519h 1.08193" fill="none" stroke="black"/>
<path d="M147.569,331.918v 3.39984" fill="none" stroke="black"/>
<path d="M147.028,335.318h 1.08193" fill="none" stroke="black"/>
<path d="M157.054,334.963h -4.7422" fill="none" stroke="black"/>
<path d="M152.312,335.504v -1.08193" fill="none" stroke="black"/>
<path d="M157.054,334.963h 4.7422" fill="none" stroke="black"/>
<path d="M161.796,335.504v -1.08193" fill="none" stroke="black"/>
<path d="M157.054,334.963v -3.21027" fill="none" stroke="black"/>
<path d="M156.513,331.753h 1.08193" fill="none" stroke="black"/>
<path d="M157.054,334.963v 3.21027" fill="none" stroke="black"/>
<path d="M156.513,338.173h 1.08193" fill="none" stroke="black"/>
<path d="M166.538,332.302h -4.7422" fill="none" stroke="black"/>
<path d="M161.796,332.843v -1.08193" fill="none" stroke="black"/>
<path d="M166.538,332.302h 4.7422" fill="none" stroke="black"/>
<path d="M171.28,332.843v -1.08193" fill="none" stroke="black"/>
<path d="M166.538,332.302v -3.58336" fill="none" stroke="black"/>
<path d="M165.997,328.719h 1.08193" fill="none" stroke="black"/>
<path d="M166.538,332.302v 3.58336" fill="none" stroke="black"/>
<path d="M165.997,335.886h 1.08193" fill="none" stroke="black"/>
<path d="M176.023,334.52h -4.7422" fill="none" stroke="black"/>
<path d="M171.28,335.061v -1.08193" fill="none" stroke="black"/>
<path d="M176.023,334.52h 4.7422" fill="none" stroke="black"/>
<path d="M180.765,335.061v -1.08193" fill="none" stroke="black"/>
<path d="M176.023,334.52v -2.94692" fill="none" stroke="black"/>
<path d="M175.482,331.573h 1.08193" fill="none" stroke="black"/>
<path d="M176.023,334.52v 2.94692" fill="none" stroke="black"/>
<path d="M175.482,337.467h 1.08193" fill="none" stroke="black"/>
<path d="M185.507,330.242h -4.7422" fill="none" stroke="black"/>
<path d="M180.765,330.783v -1.08193" fill="none" stroke="black"/>
<path d="M185.507,330.242h 4.7422" fill="none" stroke="black"/>
<path d="M190.249,330.783v -1.08193" fill="none" stroke="black"/>
<path d="M185.507,330.242v -3.55017" fill="none" stroke="black"/>
<path d="M184.966,326.692h 1.08193" fill="none" stroke="black"/>
<path d="M185.507,330.242v 3.55017" fill="none" stroke="black"/>
<path d="M184.966,333.792h 1.08193" fill="none" stroke="black"/>
<path d="M194.991,312.137h -4.7422" fill="none" stroke="black"/>
<path d="M190.249,312.678v -1.08193" fill="none" stroke="black"/>
<path d="M194.991,312.137h 4.7422" fill="none" stroke="black"/>
<path d="M199.734,312.678v -1.08193" fill="none" stroke="black"/>
<path d="M194.991,312.137v -5.89587" fill="none" stroke="black"/>
<path d="M194.45,306.241h 1.08193" fill="none" stroke="black"/>
<path d="M194.991,312.137v 5.89587" fill="none" stroke="black"/>
<path d="M194.45,318.033h 1.08193" fill="none" stroke="black"/>
<path d="M204.476,312.185h -4.7422" fill="none" stroke="black"/>
<path d="M199.734,312.726v -1.08193" fill="none" stroke="black"/>
<path d="M204.476,312.185h 4.7422" fill="none" stroke="black"/>
<path d="M209.218,312.726v -1.08193" fill="none" stroke="black"/>
<path d="M204.476,312.185v -5.46115" fill="none" stroke="black"/>
<path d="M203.935,306.724h 1.08193" fill="none" stroke="black"/>
<path d="M204.476,312.185v 5.46115" fill="none" stroke="black"/>
<path d="M203.935,317.646h 1.08193" fill="none" stroke="black"/>
<path d="M213.96,313.099h -4.7422" fill="none" stroke="black"/>
<path d="M209.218,313.64v -1.08193" fill="none" stroke="black"/>
<path d="M213.96,313.099h 4.7422" fill="none" stroke="black"/>
<path d="M218.702,313.64v -1.08193" fill="none" stroke="black"/>
<path d="M213.96,313.099v -5.37074" fill="none" stroke="black"/>
<path d="M213.419,307.729h 1.08193" fill="none" stroke="black"/>
<path d="M213.96,313.099v 5.37074" fill="none" stroke="black"/>
<path d="M213.419,318.47h 1.08193" fill="none" stroke="black"/>
<path d="M223.445,299.727h -4.7422" fill="none" stroke="black"/>
<path d="M218.702,300.268v -1.08193" fill="none" stroke="black"/>
<path d="M223.445,299.727h 4.7422" fill="none" stroke="black"/>
<path d="M228.187,300.268v -1.08193" fill="none" stroke="black"/>
<path d="M223.445,299.727v -6.08196" fill="none" stroke="black"/>
<path d="M222.904,293.645h 1.08193" fill="none" stroke="black"/>
<path d="M223.445,299.727v 6.08196" fill="none" stroke="black"/>
<path d="M222.904,305.809h 1.08193" fill="none" stroke="black"/>
<path d="M232.929,279.122h -4.7422" fill="none" stroke="black"/>
<path d="M228.187,279.663v -1.08193" fill="none" stroke="black"/>
<path d="M232.929,279.122h 4.7422" fill="none" stroke="black"/>
<path d="M237.671,279.663v -1.08193" fill="none" stroke="black"/>
<path d="M232.929,279.122v -7.75313" fill="none" stroke="black"/>
<path d="M232.388,271.369h 1.08193" fill="none" stroke="black"/>
<path d="M232.929,279.122v 7.75313" fill="none" stroke="black"/>
<path d="M232.388,286.876h 1.08193" fill="none" stroke="black"/>
<path d="M242.413,261.224h -4.7422" fill="none" stroke="black"/>
<path d="M237.671,261.765v -1.08193" fill="none" stroke="black"/>
<path d="M242.413,261.224h 4.7422" fill="none" stroke="black"/>
<path d="M247.156,261.765v -1.08193" fill="none" stroke="black"/>
<path d="M242.413,261.224v -8.66788" fill="none" stroke="black"/>
<path d="M241.872,252.556h 1.08193" fill="none" stroke="black"/>
<path d="M242.413,261.224v 8.66788" fill="none" stroke="black"/>
<path d="M241.872,269.892h 1.08193" fill="none" stroke="black"/>
<path d="M251.898,218.378h -4.7422" fill="none" stroke="black"/>
<path d="M247.156,218.919v -1.08193" fill="none" stroke="black"/>
<path d="M251.898,218.378h 4.7422" fill="none" stroke="black"/>
<path d="M256.64,218.919v -1.08193" fill="none" stroke="black"/>
<path d="M251.898,218.378v -10.7345" fill="none" stroke="black"/>
<path d="M251.357,207.644h 1.08193" fill="none" stroke="black"/>
<path d="M251.898,218.378v 10.7345" fill="none" stroke="black"/>
<path d="M251.357,229.113h 1.08193" fill="none" stroke="black"/>
<path d="M261.382,209.218h -4.7422" fill="none" stroke="black"/>
<path d="M256.64,209.759v -1.08193" fill="none" stroke="black"/>
<path d="M261.382,209.218h 4.7422" fill="none" stroke="black"/>
<path d="M266.124,209.759v -1.08193" fill="none" stroke="black"/>
<path d="M261.382,209.218v -10.7285" fill="none" stroke="black"/>
<path d="M260.841,198.49h 1.08193" fill="none" stroke="black"/>
<path d="M261.382,209.218v 10.7285" fill="none" stroke="black"/>
<path d="M260.841,219.947h 1.08193" fill="none" stroke="black"/>
<path d="M270.867,173.624h -4.7422" fill="none" stroke="black"/>
<path d="M266.124,174.165v -1.08193" fill="none" stroke="black"/>
<path d="M270.867,173.624h 4.7422" fill="none" stroke="black"/>
<path d="M275.609,174.165v -1.08193" fill="none" stroke="black"/>
<path d="M270.867,173.624v -12.0328" fill="none" stroke="black"/>
<path d="M270.326,161.591h 1.08193" fill="none" stroke="black"/>
<path d="M270.867,173.624v 12.0328" fill="none" stroke="black"/>
<path d="M270.326,185.656h 1.08193" fill="none" stroke="black"/>
<path d="M280.351,141.151h -4.7422" fill="none" stroke="black"/>
<path d="M275.609,141.692v -1.08193" fill="none" stroke="black"/>
<path d="M280.351,141.151h 4.7422" fill="none" stroke="black"/>
<path d="M285.093,141.692v -1.08193" fill="none" stroke="black"/>
<path d="M280.351,141.151v -13.3518" fill="none" stroke="black"/>
<path d="M279.81,127.8h 1.08193" fill="none" stroke="black"/>
<path d="M280.351,141.151v 13.3518" fill="none" stroke="black"/>
<path d="M279.81,154.503h 1.08193" fill="none" stroke="black"/>
<path d="M289.835,174.473h -4.7422" fill="none" stroke="black"/>
<path d="M285.093,175.014v -1.08193" fill="none" stroke="black"/>
<path d="M289.835,174.473h 4.7422" fill="none" stroke="black"/>
<path d="M294.577,175.014v -1.08193" fill="none" stroke="black"/>
<path d="M289.835,174.473v -12.0266" fill="none" stroke="black"/>
<path d="M289.294,162.446h 1.08193" fill="none" stroke="black"/>
<path d="M289.835,174.473v 12.0266" fill="none" stroke="black"/>
<path d="M289.294,186.5h 1.08193" fill="none" stroke="black"/>
<path d="M299.32,174.888h -4.7422" fill="none" stroke="black"/>
<path d="M294.577,175.429v -1.08193" fill="none" stroke="black"/>
<path d="M299.32,174.888h 4.7422" fill="none" stroke="black"/>
<path d="M304.062,175.429v -1.08193" fill="none" stroke="black"/>
<path d="M299.32,174.888v -11.8674" fill="none" stroke="black"/>
<path d="M298.779,163.021h 1.08193" fill="none" stroke="black"/>
<path d="M299.32,174.888v 11.8674" fill="none" stroke="black"/>
<path d="M298.779,186.756h 1.08193" fill="none" stroke="black"/>
<path d="M308.804,199.135h -4.7422" fill="none" stroke="black"/>
<path d="M304.062,199.676v -1.08193" fill="none" stroke="black"/>
<path d="M308.804,199.135h 4.7422" fill="none" stroke="black"/>
<path d="M313.546,199.676v -1.08193" fill="none" stroke="black"/>
<path d="M308.804,199.135v -11.0844" fill="none" stroke="black"/>
<path d="M308.263,188.051h 1.08193" fill="none" stroke="black"/>
<path d="M308.804,199.135v 11.0844" fill="none" stroke="black"/>
<path d="M308.263,210.22h 1.08193" fill="none" stroke="black"/>
<path d="M318.288,215.296h -4.7422" fill="none" stroke="black"/>
<path d="M313.546,215.837v -1.08193" fill="none" stroke="black"/>
<path d="M318.288,215.296h 4.7422" fill="none" stroke="black"/>
<path d="M323.031,215.837v -1.08193" fill="none" stroke="black"/>
<path d="M318.288,215.296v -10.6141" fill="none" stroke="black"/>
<path d="M317.747,204.682h 1.08193" fill="none" stroke="black"/>
<path d="M318.288,215.296v 10.6141" fill="none" stroke="black"/>
<path d="M317.747,225.91h 1.08193" fill="none" stroke="black"/>
<path d="M327.773,253.406h -4.7422" fill="none" stroke="black"/>
<path d="M323.031,253.947v -1.08193" fill="none" stroke="black"/>
<path d="M327.773,253.406h 4.7422" fill="none" stroke="black"/>
<path d="M332.515,253.947v -1.08193" fill="none" stroke="black"/>
<path d="M327.773,253.406v -8.936" fill="none" stroke="black"/>
<path d="M327.232,244.47h 1.08193" fill="none" stroke="black"/>
<path d="M327.773,253.406v 8.936" fill="none" stroke="black"/>
<path d="M327.232,262.342h 1.08193" fill="none" stroke="black"/>
<path d="M337.257,288.158h -4.7422" fill="none" stroke="black"/>
<path d="M332.515,288.699v -1.08193" fill="none" stroke="black"/>
<path d="M337.257,288.158h 4.7422" fill="none" stroke="black"/>
<path d="M341.999,288.699v -1.08193" fill="none" stroke="black"/>
<path d="M337.257,288.158v -6.91812" fill="none" stroke="black"/>
<path d="M336.716,281.24h 1.08193" fill="none" stroke="black"/>
<path d="M337.257,288.158v 6.91812" fill="none" stroke="black"/>
<path d="M336.716,295.076h 1.08193" fill="none" stroke="black"/>
<path d="M346.742,288.374h -4.7422" fill="none" stroke="black"/>
<path d="M341.999,288.915v -1.08193" fill="none" stroke="black"/>
<path d="M346.742,288.374h 4.7422" fill="none" stroke="black"/>
<path d="M351.484,288.915v -1.08193" fill="none" stroke="black"/>
<path d="M346.742,288.374v -7.12323" fill="none" stroke="black"/>
<path d="M346.201,281.251h 1.08193" fill="none" stroke="black"/>
<path d="M346.742,288.374v 7.12323" fill="none" stroke="black"/>
<path d="M346.201,295.497h 1.08193" fill="none" stroke="black"/>
<path d="M356.226,305.699h -4.7422" fill="none" stroke="black"/>
<path d="M351.484,306.24v -1.08193" fill="none" stroke="black"/>
<path d="M356.226,305.699h 4.7422" fill="none" stroke="black"/>
<path d="M360.968,306.24v -1.08193" fill="none" stroke="black"/>
<path d="M356.226,305.699v -6.18135" fill="none" stroke="black"/>
<path d="M355.685,299.518h 1.08193" fill="none" stroke="black"/>
<path d="M356.226,305.699v 6.18135" fill="none" stroke="black"/>
<path d="M355.685,311.88h 1.08193" fill="none" stroke="black"/>
<path d="M365.71,327.756h -4.7422" fill="none" stroke="black"/>
<path d="M360.968,328.297v -1.08193" fill="none" stroke="black"/>
<path d="M365.71,327.756h 4.7422" fill="none" stroke="black"/>
<path d="M370.453,328.297v -1.08193" fill="none" stroke="black"/>
<path d="M365.71,327.756v -3.81221" fill="none" stroke="black"/>
<path d="M365.169,323.944h 1.08193" fill="none" stroke="black"/>
<path d="M365.71,327.756v 3.81221" fill="none" stroke="black"/>
<path d="M365.169,331.568h 1.08193" fill="none" stroke="black"/>
<path d="M375.195,335.778h -4.7422" fill="none" stroke="black"/>
<path d="M370.453,336.319v -1.08193" fill="none" stroke="black"/>
<path d="M375.195,335.778h 4.7422" fill="none" stroke="black"/>
<path d="M379.937,336.319v -1.08193" fill="none" stroke="black"/>
<path d="M375.195,335.778v -3.18179" fill="none" stroke="black"/>
<path d="M374.654,332.596h 1.08193" fill="none" stroke="black"/>
<path d="M375.195,335.778v 3.18179" fill="none" stroke="black"/>
<path d="M374.654,338.96h 1.08193" fill="none" stroke="black"/>
<path d="M384.679,334.69h -4.7422" fill="none" stroke="black"/>
<path d="M379.937,335.23v -1.08193" fill="none" stroke="black"/>
<path d="M384.679,334.69h 4.7422" fill="none" stroke="black"/>
<path d="M389.421,335.23v -1.08193" fill="none" stroke="black"/>
<path d="M384.679,334.69v -3.31245" fill="none" stroke="black"/>
<path d="M384.138,331.377h 1.08193" fill="none" stroke="black"/>
<path d="M384.679,334.69v 3.31245" fill="none" stroke="black"/>
<path d="M384.138,338.002h 1.08193" fill="none" stroke="black"/>
<path d="M394.164,337.973h -4.7422" fill="none" stroke="black"/>
<path d="M389.421,338.514v -1.08193" fill="none" stroke="black"/>
<path d="M394.164,337.973h 4.7422" fill="none" stroke="black"/>
<path d="M398.906,338.514v -1.08193" fill="none" stroke="black"/>
<path d="M394.164,337.973v -2.42868" fill="none" stroke="black"/>
<path d="M393.623,335.544h 1.08193" fill="none" stroke="black"/>
<path d="M394.164,337.973v 2.42868" fill="none" stroke="black"/>
<path d="M393.623,340.402h 1.08193" fill="none" stroke="black"/>
<path d="M403.648,341.92h -4.7422" fill="none" stroke="black"/>
<path d="M398.906,342.461v -1.08193" fill="none" stroke="black"/>
<path d="M403.648,341.92h 4.7422" fill="none" stroke="black"/>
<path d="M408.39,342.461v -1.08193" fill="none" stroke="black"/>
<path d="M403.648,341.92v -1.85956" fill="none" stroke="black"/>
<path d="M403.107,340.061h 1.08193" fill="none" stroke="black"/>
<path d="M403.648,341.92v 1.85956" fill="none" stroke="black"/>
<path d="M403.107,343.78h 1.08193" fill="none" stroke="black"/>
<path d="M413.132,337.409h -4.7422" fill="none" stroke="black"/>
<path d="M408.39,337.95v -1.08193" fill="none" stroke="black"/>
<path d="M413.132,337.409h 4.7422" fill="none" stroke="black"/>
<path d="M417.875,337.95v -1.08193" fill="none" stroke="black"/>
<path d="M413.132,337.409v -2.63983" fill="none" stroke="black"/>
<path d="M412.591,334.77h 1.08193" fill="none" stroke="black"/>
<path d="M413.132,337.409v 2.63983" fill="none" stroke="black"/>
<path d="M412.591,340.049h 1.08193" fill="none" stroke="black"/>
<path d="M422.617,344.031h -4.7422" fill="none" stroke="black"/>
<path d="M417.875,344.572v -1.08193" fill="none" stroke="black"/>
<path d="M422.617,344.031h 4.7422" fill="none" stroke="black"/>
<path d="M427.359,344.572v -1.08193" fill="none" stroke="black"/>
<path d="M422.617,344.031v -1.45264" fill="none" stroke="black"/>
<path d="M422.076,342.579h 1.08193" fill="none" stroke="black"/>
<path d="M422.617,344.031v 1.45264" fill="none" stroke="black"/>
<path d="M422.076,345.484h 1.08193" fill="none" stroke="black"/>
<path d="M432.101,343.464h -4.7422" fill="none" stroke="black"/>
<path d="M427.359,344.005v -1.08193" fill="none" stroke="black"/>
<path d="M432.101,343.464h 4.7422" fill="none" stroke="black"/>
<path d="M436.843,344.005v -1.08193" fill="none" stroke="black"/>
<path d="M432.101,343.464v -1.72977" fill="none" stroke="black"/>
<path d="M431.56,341.734h 1.08193" fill="none" stroke="black"/>
<path d="M432.101,343.464v 1.72977" fill="none" stroke="black"/>
<path d="M431.56,345.194h 1.08193" fill="none" stroke="black"/>
<path d="M441.586,342.262h -4.7422" fill="none" stroke="black"/>
<path d="M436.843,342.803v -1.08193" fill="none" stroke="black"/>
<path d="M441.586,342.262h 4.7422" fill="none" stroke="black"/>
<path d="M446.328,342.803v -1.08193" fill="none" stroke="black"/>
<path d="M441.586,342.262v -1.82092" fill="none" stroke="black"/>
<path d="M441.045,340.441h 1.08193" fill="none" stroke="black"/>
<path d="M441.586,342.262v 1.82092" fill="none" stroke="black"/>
<path d="M441.045,344.083h 1.08193" fill="none" stroke="black"/>
<path d="M451.07,343.189h -4.7422" fill="none" stroke="black"/>
<path d="M446.328,343.73v -1.08193" fill="none" stroke="black"/>
<path d="M451.07,343.189h 4.7422" fill="none" stroke="black"/>
<path d="M455.812,343.73v -1.08193" fill="none" stroke="black"/>
<path d="M451.07,343.189v -1.60389" fill="none" stroke="black"/>
<path d="M450.529,341.585h 1.08193" fill="none" stroke="black"/>
<path d="M451.07,343.189v 1.60389" fill="none" stroke="black"/>
<path d="M450.529,344.793h 1.08193" fill="none" stroke="black"/>
<path d="M460.554,345.429h -4.7422" fill="none" stroke="black"/>
<path d="M455.812,345.97v -1.08193" fill="none" stroke="black"/>
<path d="M460.554,345.429h 4.7422" fill="none" stroke="black"/>
<path d="M465.297,345.97v -1.08193" fill="none" stroke="black"/>
<path d="M460.554,345.429v -0.843622" fill="none" stroke="black"/>
<path d="M460.013,344.585h 1.08193" fill="none" stroke="black"/>
<path d="M460.554,345.429v 0.843622" fill="none" stroke="black"/>
<path d="M460.013,346.272h 1.08193" fill="none" stroke="black"/>
<path d="M470.039,344.643h -4.7422" fill="none" stroke="black"/>
<path d="M465.297,345.184v -1.08193" fill="none" stroke="black"/>
<path d="M470.039,344.643h 4.7422" fill="none" stroke="black"/>
<path d="M474.781,345.184v -1.08193" fill="none" stroke="black"/>
<path d="M470.039,344.643v -1.23763" fill="none" stroke="black"/>
<path d="M469.498,343.406h 1.08193" fill="none" stroke="black"/>
<path d="M470.039,344.643v 1.23763" fill="none" stroke="black"/>
<path d="M469.498,345.881h 1.08193" fill="none" stroke="black"/>
<path d="M479.523,346.543h -4.7422" fill="none" stroke="black"/>
<path d="M474.781,346.543v -0.540963" fill="none" stroke="black"/>
<path d="M479.523,346.543h 4.7422" fill="none" stroke="black"/>
<path d="M484.265,346.543v -0.540963" fill="none" stroke="black"/>
<g stroke="black" stroke-width="1" fill="black">
<circle cx="90.6631" cy="346.543" r="2.16385"/>
<circle cx="100.147" cy="341.186" r="2.16385"/>
<circle cx="109.632" cy="342.326" r="2.16385"/>
<circle cx="119.116" cy="338.638" r="2.16385"/>
<circle cx="128.601" cy="334.836" r="2.16385"/>
<circle cx="138.085" cy="335.954" r="2.16385"/>
<circle cx="147.569" cy="331.918" r="2.16385"/>
<circle cx="157.054" cy="334.963" r="2.16385"/>
<circle cx="166.538" cy="332.302" r="2.16385"/>
<circle cx="176.023" cy="334.52" r="2.16385"/>
<circle cx="185.507" cy="330.242" r="2.16385"/>
<circle cx="194.991" cy="312.137" r="2.16385"/>
<circle cx="204.476" cy="312.185" r="2.16385"/>
<circle cx="213.96" cy="313.099" r="2.16385"/>
<circle cx="223.445" cy="299.727" r="2.16385"/>
<circle cx="232.929" cy="279.122" r="2.16385"/>
<circle cx="242.413" cy="261.224" r="2.16385"/>
<circle cx="251.898" cy="218.378" r="2.16385"/>
<circle cx="261.382" cy="209.218" r="2.16385"/>
<circle cx="270.867" cy="173.624" r="2.16385"/>
<circle cx="280.351" cy="141.151" r="2.16385"/>
<circle cx="289.835" cy="174.473" r="2.16385"/>
<circle cx="299.32" cy="174.888" r="2.16385"/>
<circle cx="308.804" cy="199.135" r="2.16385"/>
<circle cx="318.288" cy="215.296" r="2.16385"/>
<circle cx="327.773" cy="253.406" r="2.16385"/>
<circle cx="337.257" cy="288.158" r="2.16385"/>
<circle cx="346.742" cy="288.374" r="2.16385"/>
<circle cx="356.226" cy="305.699" r="2.16385"/>
<circle cx="365.71" cy="327.756" r="2.16385"/>
<circle cx="375.195" cy="335.778" r="2.16385"/>
<circle cx="384.679" cy="334.69" r="2.16385"/>
<circle cx="394.164" cy="337.973" r="2.16385"/>
<circle cx="403.648" cy="341.92" r="2.16385"/>
<circle cx="413.132" cy="337.409" r="2.16385"/>
<circle cx="422.617" cy="344.031" r="2.16385"/>
<circle cx="432.101" cy="343.464" r="2.16385"/>
<circle cx="441.586" cy="342.262" r="2.16385"/>
<circle cx="451.07" cy="343.189" r="2.16385"/>
<circle cx="460.554" cy="345.429" r="2.16385"/>
<circle cx="470.039" cy="344.643" r="2.16385"/>
<circle cx="479.523" cy="346.543" r="2.16385"/>
</g>
<path d="M95.4053,340.878l 3.79376, -0.258671l 3.79376, -0.2738l 3.79376, -0.289795l 3.79376, -0.306742l 3.79376, -0.324754l 3.79376, -0.34397l 3.79376, -0.364571l 3.79376, -0.386783l 3.79376, -0.41089l 3.79376, -0.437245l 3.79376, -0.466285l
 3.79376, -0.498544l 3.79376, -0.534664l 3.79376, -0.575416l 3.79376, -0.621705l 3.79376, -0.674588l 3.79376, -0.735278l 3.79376, -0.805152l 3.79376, -0.885745l 3.79376, -0.978751l 3.79376, -1.08601l 3.79376, -1.20949l 3.79376, -1.35127l 3.79376,
 -1.51356l 3.79376, -1.69865l 3.79376, -1.90896l 3.79376, -2.14712l 3.79376, -2.41607l 3.79376, -2.71932l 3.79376, -3.0613l 3.79376, -3.44806l 3.79376, -3.88823l 3.79376, -4.39469l 3.79376, -4.98721l 3.79376, -5.69684l 3.79376, -6.57341l 3.79376,
 -7.699l 1.89688, -4.38515l 1.89688, -4.82804l 3.79376, -10.8002l 3.79376, -11.4184l 3.79376, -11.7864l 3.79376, -11.8967l 3.79376, -11.7092l 3.79376, -11.1949l 3.79376, -10.3398l 3.79376, -9.14684l 1.89688, -4.02596l 1.89688, -3.61197l 1.89688,
 -3.16495l 1.89688, -2.68852l 1.89688, -2.18676l 1.89688, -1.66418l 1.89688, -1.12561l 1.89688, -0.576176l 1.89688, -0.0211502l 1.89688, 0.534081l 1.89688, 1.08413l 1.89688, 1.62371l 1.89688, 2.14768l 1.89688, 2.65118l 1.89688, 3.12969l 1.89688,
 3.57908l 1.89688, 3.9957l 1.89688, 4.37641l 3.79376, 9.73896l 3.79376, 10.7774l 3.79376, 11.4744l 3.79376, 11.835l 3.79376, 11.8806l 3.79376, 11.6457l 3.79376, 11.1743l 3.79376, 10.516l 3.79376, 9.72209l 3.79376, 8.8421l 3.79376, 7.9213l 3.79376,
 6.99862l 3.79376, 6.10555l 3.79376, 5.26585l 3.79376, 4.49573l 3.79376, 3.80466l 3.79376, 3.19634l 3.79376, 2.66998l 3.79376, 2.22142l 3.79376, 1.84427l 3.79376, 1.53088l 3.79376, 1.27311l 3.79376, 1.06288l 3.79376, 0.892596l 3.79376, 0.755379l
 3.79376, 0.645185l 3.79376, 0.556831l 3.79376, 0.485964l 3.79376, 0.428983l 3.79376, 0.382954l 3.79376, 0.345512l 3.79376, 0.314767l 3.79376, 0.289219l 3.79376, 0.26769l 3.79376, 0.249259l 3.79376, 0.233209l 3.79376, 0.218988l 3.79376, 0.206174l
 3.79376, 0.194447l 3.79376, 0.183568l 3.79376, 0.173359l 3.79376, 0.163694l 3.79376, 0.15448l 3.79376, 0.145655l 3.79376, 0.137177" fill="none" stroke="#ff0000" stroke-width="3"/>
<path d="M95.4053,342.459l 3.79376, -0.156131l 3.79376, -0.198272l 3.79376, -0.184416l 3.79376, -0.21845l 3.79376, -0.239345l 3.79376, -0.262655l 3.79376, -0.301998l 3.79376, -0.321466l 3.79376, -0.371221l 3.79376, -0.407768l 3.79376, -0.447545l
 3.79376, -0.490877l 3.79376, -0.53022l 3.79376, -0.592731l 3.79376, -0.619697l 3.79376, -0.713209l 3.79376, -0.792578l 3.79376, -0.842986l 3.79376, -0.921872l 3.79376, -1.08487l 3.79376, -1.21945l 3.79376, -1.24641l 3.79376, -1.36723l 3.79376,
 -1.50364l 3.79376, -1.72971l 3.79376, -1.79507l 3.79376, -2.18015l 3.79376, -2.33996l 3.79376, -2.78839l 3.79376, -3.09061l 3.79376, -3.46939l 3.79376, -3.79104l 3.79376, -4.47726l 3.79376, -5.02696l 3.79376, -5.58635l 3.79376, -6.50537l 3.79376,
 -7.63731l 1.89688, -4.18326l 1.89688, -4.59773l 3.79376, -10.5131l 3.79376, -11.2917l 3.79376, -11.6327l 3.79376, -11.8849l 3.79376, -11.6941l 3.79376, -11.1687l 3.79376, -10.4629l 3.79376, -8.92197l 1.89688, -4.09805l 1.89688, -3.6429l 1.89688,
 -3.33668l 1.89688, -2.81732l 1.89688, -2.25335l 1.89688, -1.76561l 1.89688, -1.17089l 1.89688, -0.700049l 1.89688, -0.112032l 1.89688, 0.445489l 1.89688, 1.01675l 1.89688, 1.59201l 1.89688, 2.11605l 1.89688, 2.54746l 1.89688, 3.07487l 1.89688,
 3.51359l 1.89688, 4.24036l 1.89688, 4.14651l 3.79376, 9.59569l 3.79376, 10.6587l 3.79376, 11.3651l 3.79376, 11.8094l 3.79376, 11.9176l 3.79376, 11.6085l 3.79376, 11.1834l 3.79376, 10.5518l 3.79376, 9.87214l 3.79376, 8.67961l 3.79376, 7.86325l
 3.79376, 6.85506l 3.79376, 6.0364l 3.79376, 5.22734l 3.79376, 4.45452l 3.79376, 3.72032l 3.79376, 3.07493l 3.79376, 2.61498l 3.79376, 2.22909l 3.79376, 1.90216l 3.79376, 1.47029l 3.79376, 1.31596l 3.79376, 1.12212l 3.79376, 1.06137l 3.79376,
 0.845243l 3.79376, 0.754278l 3.79376, 0.659408l 3.79376, 0.568104l 3.79376, 0.496035l 3.79376, 0.43534l 3.79376, 0.393317l 3.79376, 0.363356l 3.79376, 0.307286l 3.79376, 0.276145l 3.79376, 0.228492l 3.79376, 0.203114l 3.79376, 0.183602l 3.79376,
 0.161892l 3.79376, 0.142411l 3.79376, 0.12494l 3.79376, 0.109293l 3.79376, 0.0971681l 3.79376, 0.0879163l 3.79376, 0.070056l 3.79376, 0.0660867v -1.44893l -3.79376, -0.137936l -3.79376, -0.142221l -3.79376, -0.149149l -3.79376, -0.138663l -3.79376,
 -0.170962l -3.79376, -0.180014l -3.79376, -0.177947l -3.79376, -0.217053l -3.79376, -0.23142l -3.79376, -0.2511l -3.79376, -0.283368l -3.79376, -0.319079l -3.79376, -0.308698l -3.79376, -0.349208l -3.79376, -0.395496l -3.79376, -0.42285l -3.79376,
 -0.494384l -3.79376, -0.600899l -3.79376, -0.622638l -3.79376, -0.723288l -3.79376, -0.862114l -3.79376, -0.988538l -3.79376, -1.2715l -3.79376, -1.44013l -3.79376, -1.7061l -3.79376, -1.9642l -3.79376, -2.3606l -3.79376, -2.8795l -3.79376,
 -3.28088l -3.79376, -4.0246l -3.79376, -4.74259l -3.79376, -5.51164l -3.79376, -6.28516l -3.79376, -7.31001l -3.79376, -8.24618l -3.79376, -9.15434l -3.79376, -10.0314l -3.79376, -10.7663l -3.79376, -11.2466l -3.79376, -11.9399l -3.79376, -12.2042l
 -3.79376, -12.2242l -3.79376, -11.8207l -3.79376, -11.0883l -3.79376, -10.0032l -1.89688, -4.2986l -1.89688, -3.94364l -1.89688, -3.78916l -1.89688, -3.09685l -1.89688, -2.60041l -1.89688, -2.37569l -1.89688, -1.52816l -1.89688, -1.02266l -1.89688,
 -0.503119l -1.89688, -0.020954l -1.89688, 0.51333l -1.89688, 1.56745l -1.89688, 1.8144l -1.89688, 2.24365l -1.89688, 3.04052l -1.89688, 3.10786l -1.89688, 4.004l -1.89688, 4.03765l -3.79376, 9.40673l -3.79376, 11.1842l -3.79376, 11.6403l -3.79376,
 11.933l -3.79376, 11.9953l -3.79376, 12.1084l -3.79376, 11.94l -3.79376, 10.9122l -1.89688, 4.99069l -1.89688, 4.51835l -3.79376, 7.80579l -3.79376, 6.61203l -3.79376, 5.90243l -3.79376, 4.99887l -3.79376, 4.47539l -3.79376, 4.0058l -3.79376,
 3.47095l -3.79376, 3.19679l -3.79376, 2.82581l -3.79376, 2.52348l -3.79376, 2.2194l -3.79376, 1.99502l -3.79376, 1.83221l -3.79376, 1.64579l -3.79376, 1.43726l -3.79376, 1.28412l -3.79376, 1.16529l -3.79376, 1.02022l -3.79376, 0.960787l -3.79376,
 0.868742l -3.79376, 0.786812l -3.79376, 0.702034l -3.79376, 0.648615l -3.79376, 0.583548l -3.79376, 0.535638l -3.79376, 0.506256l -3.79376, 0.47465l -3.79376, 0.420085l -3.79376, 0.425528l -3.79376, 0.388923l -3.79376, 0.353663l -3.79376, 0.342393l
 -3.79376, 0.318445l -3.79376, 0.307732l -3.79376, 0.286788l -3.79376, 0.261308l -3.79376, 0.249241z" fill="#00ff00"/>
<path d="M95.4053,342.472l 3.79376, -0.125924l 3.79376, -0.132752l 3.79376, -0.140117l 3.79376, -0.148074l 3.79376, -0.156687l 3.79376, -0.166027l 3.79376, -0.176177l 3.79376, -0.187228l 3.79376, -0.199287l 3.79376, -0.212477l 3.79376, -0.226939l
 3.79376, -0.242836l 3.79376, -0.260358l 3.79376, -0.279727l 3.79376, -0.301202l 3.79376, -0.32509l 3.79376, -0.351753l 3.79376, -0.381623l 3.79376, -0.415219l 3.79376, -0.453164l 3.79376, -0.496216l 3.79376, -0.5453l 3.79376, -0.601558l 3.79376,
 -0.666407l 3.79376, -0.741625l 3.79376, -0.829463l 3.79376, -0.932802l 3.79376, -1.05538l 3.79376, -1.20209l 3.79376, -1.37947l 3.79376, -1.59635l 3.79376, -1.86491l 3.79376, -2.20229l 3.79376, -2.63317l 3.79376, -3.19404l 3.79376, -3.94058l
 1.89688, -2.33103l 1.89688, -2.62984l 1.89688, -2.98597l 1.89688, -3.4145l 3.79376, -7.94917l 3.79376, -8.57053l 3.79376, -8.98724l 3.79376, -9.19477l 3.79376, -9.15463l 3.79376, -8.83803l 3.79376, -8.2292l 1.89688, -3.79445l 1.89688, -3.53348l
 1.89688, -3.23872l 1.89688, -2.9123l 1.89688, -2.55687l 1.89688, -2.17554l 1.89688, -1.77189l 1.89688, -1.34985l 1.89688, -0.913687l 1.89688, -0.467904l 1.89688, -0.0171784l 1.89688, 0.433729l 1.89688, 0.880054l 1.89688, 1.31711l 1.89688, 1.74038l
 1.89688, 2.14557l 1.89688, 2.52872l 1.89688, 2.88624l 1.89688, 3.21497l 1.89688, 3.51222l 3.79376, 7.77996l 3.79376, 8.54717l 3.79376, 9.01999l 3.79376, 9.20605l 3.79376, 9.12753l 3.79376, 8.81814l 3.79376, 8.31959l 3.79376, 7.67787l 3.79376,
 6.93964l 3.79376, 6.14916l 3.79376, 5.34584l 3.79376, 4.56257l 3.79376, 3.82492l 3.79376, 3.15094l 3.79376, 2.55165l 3.79376, 2.03187l 3.79376, 1.5914l 3.79376, 1.22622l 3.79376, 0.929708l 3.79376, 0.693731l 3.79376, 0.509525l 3.79376, 0.368407l
 3.79376, 0.262258l 3.79376, 0.183829l 3.79376, 0.12689l 3.79376, 0.0862578l 3.79376, 0.0577519l 3.79376, 0.0380854l 3.79376, 0.0247402l 3.79376, 0.0412822h 56.9063" fill="none" stroke="black" stroke-width="3" stroke-dasharray=" 3, 3"/>
<path d="M95.4053,346.543h 30.35l 3.79376, -0.0432076l 3.79376, -0.0172598l 3.79376, -0.0234597l 3.79376, -0.0316051l 3.79376, -0.0422012l 3.79376, -0.0558484l 3.79376, -0.0732482l 3.79376, -0.0952063l 3.79376, -0.12263l 3.79376, -0.15652l 3.79376,
 -0.197953l 3.79376, -0.248052l 3.79376, -0.307956l 3.79376, -0.378762l 3.79376, -0.461468l 3.79376, -0.556897l 3.79376, -0.665617l 3.79376, -0.787845l 3.79376, -0.923362l 3.79376, -1.07141l 3.79376, -1.23062l 3.79376, -1.39893l 3.79376, -1.57355l
 3.79376, -1.75096l 3.79376, -1.92691l 3.79376, -2.09647l 3.79376, -2.2542l 3.79376, -2.39424l 3.79376, -2.51056l 3.79376, -2.59716l 3.79376, -2.64836l 3.79376, -2.65907l 3.79376, -2.62509l 3.79376, -2.54335l 3.79376, -2.41216l 3.79376, -2.23137l
 3.79376, -2.00252l 3.79376, -1.72884l 3.79376, -1.41524l 3.79376, -1.06812l 3.79376, -0.695259l 1.89688, -0.202135l 1.89688, -0.103281l 1.89688, -0.0037888l 1.89688, 0.0957264l 1.89688, 0.194651l 1.89688, 0.292376l 3.79376, 0.87017l 3.79376,
 1.23217l 3.79376, 1.5647l 3.79376, 1.86057l 3.79376, 2.11405l 3.79376, 2.321l 3.79376, 2.47896l 3.79376, 2.58719l 3.79376, 2.64657l 3.79376, 2.65944l 3.79376, 2.62944l 3.79376, 2.56122l 3.79376, 2.46016l 3.79376, 2.33213l 3.79376, 2.18317l 3.79376,
 2.01927l 3.79376, 1.84611l 3.79376, 1.66892l 3.79376, 1.4923l 3.79376, 1.3202l 3.79376, 1.1558l 3.79376, 1.00153l 3.79376, 0.859142l 3.79376, 0.729704l 3.79376, 0.613717l 3.79376, 0.511188l 3.79376, 0.421725l 3.79376, 0.344631l 3.79376, 0.278993l
 3.79376, 0.223758l 3.79376, 0.177804l 3.79376, 0.139994l 3.79376, 0.10922l 3.79376, 0.0844405l 3.79376, 0.0646948l 3.79376, 0.0491224l 3.79376, 0.0369657l 3.79376, 0.0275704l 3.79376, 0.0203811l 3.79376, 0.0149336l 3.79376, 0.0368912h 26.5563"
 fill="none" stroke="#84c1a3" stroke-width="3" stroke-dasharray=" 3, 3"/>
<path d="M95.4053,344.95l 3.79376, -0.132013l 3.79376, -0.139968l 3.79376, -0.148103l 3.79376, -0.156393l 3.79376, -0.164806l 3.79376, -0.173313l 3.79376, -0.181876l 3.79376, -0.190457l 3.79376, -0.199016l 3.79376, -0.207508l 3.79376, -0.215886l
 3.79376, -0.224102l 3.79376, -0.232105l 3.79376, -0.239841l 3.79376, -0.247255l 3.79376, -0.254292l 3.79376, -0.260895l 3.79376, -0.267008l 3.79376, -0.272573l 3.79376, -0.277534l 3.79376, -0.281836l 3.79376, -0.285424l 3.79376, -0.288248l 3.79376,
 -0.290257l 3.79376, -0.291405l 3.79376, -0.291651l 3.79376, -0.290955l 3.79376, -0.289285l 3.79376, -0.28661l 3.79376, -0.282907l 3.79376, -0.27816l 3.79376, -0.272357l 3.79376, -0.265492l 3.79376, -0.257569l 3.79376, -0.248595l 3.79376, -0.238588l
 3.79376, -0.227569l 3.79376, -0.215569l 3.79376, -0.202624l 3.79376, -0.18878l 3.79376, -0.174087l 3.79376, -0.158601l 3.79376, -0.142385l 3.79376, -0.125509l 3.79376, -0.108045l 3.79376, -0.0900728l 3.79376, -0.0716736l 3.79376, -0.0529331l
 3.79376, -0.0339399l 3.79376, -0.0147842l 3.79376, 0.00444246l 3.79376, 0.0236478l 3.79376, 0.0427398l 3.79376, 0.0616273l 3.79376, 0.080221l 3.79376, 0.0984336l 3.79376, 0.116181l 3.79376, 0.133383l 3.79376, 0.149963l 3.79376, 0.165849l 3.79376,
 0.180977l 3.79376, 0.195285l 3.79376, 0.208719l 3.79376, 0.221232l 3.79376, 0.232783l 3.79376, 0.243338l 3.79376, 0.252871l 3.79376, 0.261361l 3.79376, 0.268795l 3.79376, 0.275169l 3.79376, 0.280484l 3.79376, 0.284747l 3.79376, 0.287972l 3.79376,
 0.29018l 3.79376, 0.291396l 3.79376, 0.291652l 3.79376, 0.290984l 3.79376, 0.289433l 3.79376, 0.287042l 3.79376, 0.283859l 3.79376, 0.279934l 3.79376, 0.275321l 3.79376, 0.270074l 3.79376, 0.264249l 3.79376, 0.257902l 3.79376, 0.251092l 3.79376,
 0.243873l 3.79376, 0.236304l 3.79376, 0.228438l 3.79376, 0.22033l 3.79376, 0.212033l 3.79376, 0.203596l 3.79376, 0.195068l 3.79376, 0.186493l 3.79376, 0.177915l 3.79376, 0.169374l 3.79376, 0.160906l 3.79376, 0.152546l 3.79376, 0.144324l 3.79376,
 0.136269" fill="none" stroke="#ddba87" stroke-width="3" stroke-dasharray=" 3, 3"/>
<path d="M95.4053,340.878l 3.79376, -0.258671l 3.79376, -0.2738l 3.79376, -0.289795l 3.79376, -0.306742l 3.79376, -0.324754l 3.79376, -0.34397l 3.79376, -0.364571l 3.79376, -0.386783l 3.79376, -0.41089l 3.79376, -0.437245l 3.79376, -0.466285l
 3.79376, -0.498544l 3.79376, -0.534664l 3.79376, -0.575416l 3.79376, -0.621705l 3.79376, -0.674588l 3.79376, -0.735278l 3.79376, -0.805152l 3.79376, -0.885745l 3.79376, -0.978751l 3.79376, -1.08601l 3.79376, -1.20949l 3.79376, -1.35127l 3.79376,
 -1.51356l 3.79376, -1.69865l 3.79376, -1.90896l 3.79376, -2.14712l 3.79376, -2.41607l 3.79376, -2.71932l 3.79376, -3.0613l 3.79376, -3.44806l 3.79376, -3.88823l 3.79376, -4.39469l 3.79376, -4.98721l 3.79376, -5.69684l 3.79376, -6.57341l 3.79376,
 -7.699l 1.89688, -4.38515l 1.89688, -4.82804l 3.79376, -10.8002l 3.79376, -11.4184l 3.79376, -11.7864l 3.79376, -11.8967l 3.79376, -11.7092l 3.79376, -11.1949l 3.79376, -10.3398l 3.79376, -9.14684l 1.89688, -4.02596l 1.89688, -3.61197l 1.89688,
 -3.16495l 1.89688, -2.68852l 1.89688, -2.18676l 1.89688, -1.66418l 1.89688, -1.12561l 1.89688, -0.576176l 1.89688, -0.0211502l 1.89688, 0.534081l 1.89688, 1.08413l 1.89688, 1.62371l 1.89688, 2.14768l 1.89688, 2.65118l 1.89688, 3.12969l 1.89688,
 3.57908l 1.89688, 3.9957l 1.89688, 4.37641l 3.79376, 9.73896l 3.79376, 10.7774l 3.79376, 11.4744l 3.79376, 11.835l 3.79376, 11.8806l 3.79376, 11.6457l 3.79376, 11.1743l 3.79376, 10.516l 3.79376, 9.72209l 3.79376, 8.8421l 3.79376, 7.9213l 3.79376,
 6.99862l 3.79376, 6.10555l 3.79376, 5.26585l 3.79376, 4.49573l 3.79376, 3.80466l 3.79376, 3.19634l 3.79376, 2.66998l 3.79376, 2.22142l 3.79376, 1.84427l 3.79376, 1.53088l 3.79376, 1.27311l 3.79376, 1.06288l 3.79376, 0.892596l 3.79376, 0.755379l
 3.79376, 0.645185l 3.79376, 0.556831l 3.79376, 0.485964l 3.79376, 0.428983l 3.79376, 0.382954l 3.79376, 0.345512l 3.79376, 0.314767l 3.79376, 0.289219l 3.79376, 0.26769l 3.79376, 0.249259l 3.79376, 0.233209l 3.79376, 0.218988l 3.79376, 0.206174l
 3.79376, 0.194447l 3.79376, 0.183568l 3.79376, 0.173359l 3.79376, 0.163694l 3.79376, 0.15448l 3.79376, 0.145655l 3.79376, 0.137177" fill="none" stroke="#ff0000" stroke-width="3"/>
<path d="M90.6631,346.543h -4.7422" fill="none" stroke="black"/>
<path d="M85.9209,346.543v -0.540963" fill="none" stroke="black"/>
<path d="M90.6631,346.543h 4.7422" fill="none" stroke="black"/>
<path d="M95.4053,346.543v -0.540963" fill="none" stroke="black"/>
<path d="M100.147,341.186h -4.7422" fill="none" stroke="black"/>
<path d="M95.4053,341.727v -1.08193" fill="none" stroke="black"/>
<path d="M100.147,341.186h 4.7422" fill="none" stroke="black"/>
<path d="M104.89,341.727v -1.08193" fill="none" stroke="black"/>
<path d="M100.147,341.186v -2.27309" fill="none" stroke="black"/>
<path d="M99.6065,338.913h 1.08193" fill="none" stroke="black"/>
<path d="M100.147,341.186v 2.27309" fill="none" stroke="black"/>
<path d="M99.6065,343.459h 1.08193" fill="none" stroke="black"/>
<path d="M109.632,342.326h -4.7422" fill="none" stroke="black"/>
<path d="M104.89,342.867v -1.08193" fill="none" stroke="black"/>
<path d="M109.632,342.326h 4.7422" fill="none" stroke="black"/>
<path d="M114.374,342.867v -1.08193" fill="none" stroke="black"/>
<path d="M109.632,342.326v -2.04136" fill="none" stroke="black"/>
<path d="M109.091,340.284h 1.08193" fill="none" stroke="black"/>
<path d="M109.632,342.326v 2.04136" fill="none" stroke="black"/>
<path d="M109.091,344.367h 1.08193" fill="none" stroke="black"/>
<path d="M119.116,338.638h -4.7422" fill="none" stroke="black"/>
<path d="M114.374,339.179v -1.08193" fill="none" stroke="black"/>
<path d="M119.116,338.638h 4.7422" fill="none" stroke="black"/>
<path d="M123.858,339.179v -1.08193" fill="none" stroke="black"/>
<path d="M119.116,338.638v -2.61681" fill="none" stroke="black"/>
<path d="M118.575,336.022h 1.08193" fill="none" stroke="black"/>
<path d="M119.116,338.638v 2.61681" fill="none" stroke="black"/>
<path d="M118.575,341.255h 1.08193" fill="none" stroke="black"/>
<path d="M128.601,334.836h -4.7422" fill="none" stroke="black"/>
<path d="M123.858,335.377v -1.08193" fill="none" stroke="black"/>
<path d="M128.601,334.836h 4.7422" fill="none" stroke="black"/>
<path d="M133.343,335.377v -1.08193" fill="none" stroke="black"/>
<path d="M128.601,334.836v -3.32561" fill="none" stroke="black"/>
<path d="M128.06,331.51h 1.08193" fill="none" stroke="black"/>
<path d="M128.601,334.836v 3.32561" fill="none" stroke="black"/>
<path d="M128.06,338.161h 1.08193" fill="none" stroke="black"/>
<path d="M138.085,335.954h -4.7422" fill="none" stroke="black"/>
<path d="M133.343,336.495v -1.08193" fill="none" stroke="black"/>
<path d="M138.085,335.954h 4.7422" fill="none" stroke="black"/>
<path d="M142.827,336.495v -1.08193" fill="none" stroke="black"/>
<path d="M138.085,335.954v -3.04959" fill="none" stroke="black"/>
<path d="M137.544,332.904h 1.08193" fill="none" stroke="black"/>
<path d="M138.085,335.954v 3.04959" fill="none" stroke="black"/>
<path d="M137.544,339.004h 1.08193" fill="none" stroke="black"/>
<path d="M147.569,331.918h -4.7422" fill="none" stroke="black"/>
<path d="M142.827,332.459v -1.08193" fill="none" stroke="black"/>
<path d="M147.569,331.918h 4.7422" fill="none" stroke="black"/>
<path d="M152.312,332.459v -1.08193" fill="none" stroke="black"/>
<path d="M147.569,331.918v -3.39984" fill="none" stroke="black"/>
<path d="M147.028,328.519h 1.08193" fill="none" stroke="black"/>
<path d="M147.569,331.918v 3.39984" fill="none" stroke="black"/>
<path d="M147.028,335.318h 1.08193" fill="none" stroke="black"/>
<path d="M157.054,334.963h -4.7422" fill="none" stroke="black"/>
<path d="M152.312,335.504v -1.08193" fill="none" stroke="black"/>
<path d="M157.054,334.963h 4.7422" fill="none" stroke="black"/>
<path d="M161.796,335.504v -1.08193" fill="none" stroke="black"/>
<path d="M157.054,334.963v -3.21027" fill="none" stroke="black"/>
<path d="M156.513,331.753h 1.08193" fill="none" stroke="black"/>
<path d="M157.054,334.963v 3.21027" fill="none" stroke="black"/>
<path d="M156.513,338.173h 1.08193" fill="none" stroke="black"/>
<path d="M166.538,332.302h -4.7422" fill="none" stroke="black"/>
<path d="M161.796,332.843v -1.08193" fill="none" stroke="black"/>
<path d="M166.538,332.302h 4.7422" fill="none" stroke="black"/>
<path d="M171.28,332.843v -1.08193" fill="none" stroke="black"/>
<path d="M166.538,332.302v -3.58336" fill="none" stroke="black"/>
<path d="M165.997,328.719h 1.08193" fill="none" stroke="black"/>
<path d="M166.538,332.302v 3.58336" fill="none" stroke="black"/>
<path d="M165.997,335.886h 1.08193" fill="none" stroke="black"/>
<path d="M176.023,334.52h -4.7422" fill="none" stroke="black"/>
<path d="M171.28,335.061v -1.08193" fill="none" stroke="black"/>
<path d="M176.023,334.52h 4.7422" fill="none" stroke="black"/>
<path d="M180.765,335.061v -1.08193" fill="none" stroke="black"/>
<path d="M176.023,334.52v -2.94692" fill="none" stroke="black"/>
<path d="M175.482,331.573h 1.08193" fill="none" stroke="black"/>
<path d="M176.023,334.52v 2.94692" fill="none" stroke="black"/>
<path d="M175.482,337.467h 1.08193" fill="none" stroke="black"/>
<path d="M185.507,330.242h -4.7422" fill="none" stroke="black"/>
<path d="M180.765,330.783v -1.08193" fill="none" stroke="black"/>
<path d="M185.507,330.242h 4.7422" fill="none" stroke="black"/>
<path d="M190.249,330.783v -1.08193" fill="none" stroke="black"/>
<path d="M185.507,330.242v -3.55017" fill="none" stroke="black"/>
<path d="M184.966,326.692h 1.08193" fill="none" stroke="black"/>
<path d="M185.507,330.242v 3.55017" fill="none" stroke="black"/>
<path d="M184.966,333.792h 1.08193" fill="none" stroke="black"/>
<path d="M194.991,312.137h -4.7422" fill="none" stroke="black"/>
<path d="M190.249,312.678v -1.08193" fill="none" stroke="black"/>
<path d="M194.991,312.137h 4.7422" fill="none" stroke="black"/>
<path d="M199.734,312.678v -1.08193" fill="none" stroke="black"/>
<path d="M194.991,312.137v -5.89587" fill="none" stroke="black"/>
<path d="M194.45,306.241h 1.08193" fill="none" stroke="black"/>
<path d="M194.991,312.137v 5.89587" fill="none" stroke="black"/>
<path d="M194.45,318.033h 1.08193" fill="none" stroke="black"/>
<path d="M204.476,312.185h -4.7422" fill="none" stroke="black"/>
<path d="M199.734,312.726v -1.08193" fill="none" stroke="black"/>
<path d="M204.476,312.185h 4.7422" fill="none" stroke="black"/>
<path d="M209.218,312.726v -1.08193" fill="none" stroke="black"/>
<path d="M204.476,312.185v -5.46115" fill="none" stroke="black"/>
<path d="M203.935,306.724h 1.08193" fill="none" stroke="black"/>
<path d="M204.476,312.185v 5.46115" fill="none" stroke="black"/>
<path d="M203.935,317.646h 1.08193" fill="none" stroke="black"/>
<path d="M213.96,313.099h -4.7422" fill="none" stroke="black"/>
<path d="M209.218,313.64v -1.08193" fill="none" stroke="black"/>
<path d="M213.96,313.099h 4.7422" fill="none" stroke="black"/>
<path d="M218.702,313.64v -1.08193" fill="none" stroke="black"/>
<path d="M213.96,313.099v -5.37074" fill="none" stroke="black"/>
<path d="M213.419,307.729h 1.08193" fill="none" stroke="black"/>
<path d="M213.96,313.099v 5.37074" fill="none" stroke="black"/>
<path d="M213.419,318.47h 1.08193" fill="none" stroke="black"/>
<path d="M223.445,299.727h -4.7422" fill="none" stroke="black"/>
<path d="M218.702,300.268v -1.08193" fill="none" stroke="black"/>
<path d="M223.445,299.727h 4.7422" fill="none" stroke="black"/>
<path d="M228.187,300.268v -1.08193" fill="none" stroke="black"/>
<path d="M223.445,299.727v -6.08196" fill="none" stroke="black"/>
<path d="M222.904,293.645h 1.08193" fill="none" stroke="black"/>
<path d="M223.445,299.727v 6.08196" fill="none" stroke="black"/>
<path d="M222.904,305.809h 1.08193" fill="none" stroke="black"/>
<path d="M232.929,279.122h -4.7422" fill="none" stroke="black"/>
<path d="M228.187,279.663v -1.08193" fill="none" stroke="black"/>
<path d="M232.929,279.122h 4.7422" fill="none" stroke="black"/>
<path d="M237.671,279.663v -1.08193" fill="none" stroke="black"/>
<path d="M232.929,279.122v -7.75313" fill="none" stroke="black"/>
<path d="M232.388,271.369h 1.08193" fill="none" stroke="black"/>
<path d="M232.929,279.122v 7.75313" fill="none" stroke="black"/>
<path d="M232.388,286.876h 1.08193" fill="none" stroke="black"/>
<path d="M242.413,261.224h -4.7422" fill="none" stroke="black"/>
<path d="M237.671,261.765v -1.08193" fill="none" stroke="black"/>
<path d="M242.413,261.224h 4.7422" fill="none" stroke="black"/>
<path d="M247.156,261.765v -1.08193" fill="none" stroke="black"/>
<path d="M242.413,261.224v -8.66788" fill="none" stroke="black"/>
<path d="M241.872,252.556h 1.08193" fill="none" stroke="black"/>
<path d="M242.413,261.224v 8.66788" fill="none" stroke="black"/>
<path d="M241.872,269.892h 1.08193" fill="none" stroke="black"/>
<path d="M251.898,218.378h -4.7422" fill="none" stroke="black"/>
<path d="M247.156,218.919v -1.08193" fill="none" stroke="black"/>
<path d="M251.898,218.378h 4.7422" fill="none" stroke="black"/>
<path d="M256.64,218.919v -1.08193" fill="none" stroke="black"/>
<path d="M251.898,218.378v -10.7345" fill="none" stroke="black"/>
<path d="M251.357,207.644h 1.08193" fill="none" stroke="black"/>
<path d="M251.898,218.378v 10.7345" fill="none" stroke="black"/>
<path d="M251.357,229.113h 1.08193" fill="none" stroke="black"/>
<path d="M261.382,209.218h -4.7422" fill="none" stroke="black"/>
<path d="M256.64,209.759v -1.08193" fill="none" stroke="black"/>
<path d="M261.382,209.218h 4.7422" fill="none" stroke="black"/>
<path d="M266.124,209.759v -1.08193" fill="none" stroke="black"/>
<path d="M261.382,209.218v -10.7285" fill="none" stroke="black"/>
<path d="M260.841,198.49h 1.08193" fill="none" stroke="black"/>
<path d="M261.382,209.218v 10.7285" fill="none" stroke="black"/>
<path d="M260.841,219.947h 1.08193" fill="none" stroke="black"/>
<path d="M270.867,173.624h -4.7422" fill="none" stroke="black"/>
<path d="M266.124,174.165v -1.08193" fill="none" stroke="black"/>
<path d="M270.867,173.624h 4.7422" fill="none" stroke="black"/>
<path d="M275.609,174.165v -1.08193" fill="none" stroke="black"/>
<path d="M270.867,173.624v -12.0328" fill="none" stroke="black"/>
<path d="M270.326,161.591h 1.08193" fill="none" stroke="black"/>
<path d="M270.867,173.624v 12.0328" fill="none" stroke="black"/>
<path d="M270.326,185.656h 1.08193" fill="none" stroke="black"/>
<path d="M280.351,141.151h -4.7422" fill="none" stroke="black"/>
<path d="M275.609,141.692v -1.08193" fill="none" stroke="black"/>
<path d="M280.351,141.151h 4.7422" fill="none" stroke="black"/>
<path d="M285.093,141.692v -1.08193" fill="none" stroke="black"/>
<path d="M280.351,141.151v -13.3518" fill="none" stroke="black"/>
<path d="M279.81,127.8h 1.08193" fill="none" stroke="black"/>
<path d="M280.351,141.151v 13.3518" fill="none" stroke="black"/>
<path d="M279.81,154.503h 1.08193" fill="none" stroke="black"/>
<path d="M289.835,174.473h -4.7422" fill="none" stroke="black"/>
<path d="M285.093,175.014v -1.08193" fill="none" stroke="black"/>
<path d="M289.835,174.473h 4.7422" fill="none" stroke="black"/>
<path d="M294.577,175.014v -1.08193" fill="none" stroke="black"/>
<path d="M289.835,174.473v -12.0266" fill="none" stroke="black"/>
<path d="M289.294,162.446h 1.08193" fill="none" stroke="black"/>
<path d="M289.835,174.473v 12.0266" fill="none" stroke="black"/>
<path d="M289.294,186.5h 1.08193" fill="none" stroke="black"/>
<path d="M299.32,174.888h -4.7422" fill="none" stroke="black"/>
<path d="M294.577,175.429v -1.08193" fill="none" stroke="black"/>
<path d="M299.32,174.888h 4.7422" fill="none" stroke="black"/>
<path d="M304.062,175.429v -1.08193" fill="none" stroke="black"/>
<path d="M299.32,174.888v -11.8674" fill="none" stroke="black"/>
<path d="M298.779,163.021h 1.08193" fill="none" stroke="black"/>
<path d="M299.32,174.888v 11.8674" fill="none" stroke="black"/>
<path d="M298.779,186.756h 1.08193" fill="none" stroke="black"/>
<path d="M308.804,199.135h -4.7422" fill="none" stroke="black"/>
<path d="M304.062,199.676v -1.08193" fill="none" stroke="black"/>
<path d="M308.804,199.135h 4.7422" fill="none" stroke="black"/>
<path d="M313.546,199.676v -1.08193" fill="none" stroke="black"/>
<path d="M308.804,199.135v -11.0844" fill="none" stroke="black"/>
<path d="M308.263,188.051h 1.08193" fill="none" stroke="black"/>
<path d="M308.804,199.135v 11.0844" fill="none" stroke="black"/>
<path d="M308.263,210.22h 1.08193" fill="none" stroke="black"/>
<path d="M318.288,215.296h -4.7422" fill="none" stroke="black"/>
<path d="M313.546,215.837v -1.08193" fill="none" stroke="black"/>
<path d="M318.288,215.296h 4.7422" fill="none" stroke="black"/>
<path d="M323.031,215.837v -1.08193" fill="none" stroke="black"/>
<path d="M318.288,215.296v -10.6141" fill="none" stroke="black"/>
<path d="M317.747,204.682h 1.08193" fill="none" stroke="black"/>
<path d="M318.288,215.296v 10.6141" fill="none" stroke="black"/>
<path d="M317.747,225.91h 1.08193" fill="none" stroke="black"/>
<path d="M327.773,253.406h -4.7422" fill="none" stroke="black"/>
<path d="M323.031,253.947v -1.08193" fill="none" stroke="black"/>
<path d="M327.773,253.406h 4.7422" fill="none" stroke="black"/>
<path d="M332.515,253.947v -1.08193" fill="none" stroke="black"/>
<path d="M327.773,253.406v -8.936" fill="none" stroke="black"/>
<path d="M327.232,244.47h 1.08193" fill="none" stroke="black"/>
<path d="M327.773,253.406v 8.936" fill="none" stroke="black"/>
<path d="M327.232,262.342h 1.08193" fill="none" stroke="black"/>
<path d="M337.257,288.158h -4.7422" fill="none" stroke="black"/>
<path d="M332.515,288.699v -1.08193" fill="none" stroke="black"/>
<path d="M337.257,288.158h 4.7422" fill="none" stroke="black"/>
<path d="M341.999,288.699v -1.08193" fill="none" stroke="black"/>
<path d="M337.257,288.158v -6.91812" fill="none" stroke="black"/>
<path d="M336.716,281.24h 1.08193" fill="none" stroke="black"/>
<path d="M337.257,288.158v 6.91812" fill="none" stroke="black"/>
<path d="M336.716,295.076h 1.08193" fill="none" stroke="black"/>
<path d="M346.742,288.374h -4.7422" fill="none" stroke="black"/>
<path d="M341.999,288.915v -1.08193" fill="none" stroke="black"/>
<path d="M346.742,288.374h 4.7422" fill="none" stroke="black"/>
<path d="M351.484,288.915v -1.08193" fill="none" stroke="black"/>
<path d="M346.742,288.374v -7.12323" fill="none" stroke="black"/>
<path d="M346.201,281.251h 1.08193" fill="none" stroke="black"/>
<path d="M346.742,288.374v 7.12323" fill="none" stroke="black"/>
<path d="M346.201,295.497h 1.08193" fill="none" stroke="black"/>
<path d="M356.226,305.699h -4.7422" fill="none" stroke="black"/>
<path d="M351.484,306.24v -1.08193" fill="none" stroke="black"/>
<path d="M356.226,305.699h 4.7422" fill="none" stroke="black"/>
<path d="M360.968,306.24v -1.08193" fill="none" stroke="black"/>
<path d="M356.226,305.699v -6.18135" fill="none" stroke="black"/>
<path d="M355.685,299.518h 1.08193" fill="none" stroke="black"/>
<path d="M356.226,305.699v 6.18135" fill="none" stroke="black"/>
<path d="M355.685,311.88h 1.08193" fill="none" stroke="black"/>
<path d="M365.71,327.756h -4.7422" fill="none" stroke="black"/>
<path d="M360.968,328.297v -1.08193" fill="none" stroke="black"/>
<path d="M365.71,327.756h 4.7422" fill="none" stroke="black"/>
<path d="M370.453,328.297v -1.08193" fill="none" stroke="black"/>
<path d="M365.71,327.756v -3.81221" fill="none" stroke="black"/>
<path d="M365.169,323.944h 1.08193" fill="none" stroke="black"/>
<path d="M365.71,327.756v 3.81221" fill="none" stroke="black"/>
<path d="M365.169,331.568h 1.08193" fill="none" stroke="black"/>
<path d="M375.195,335.778h -4.7422" fill="none" stroke="black"/>
<path d="M370.453,336.319v -1.08193" fill="none" stroke="black"/>
<path d="M375.195,335.778h 4.7422" fill="none" stroke="black"/>
<path d="M379.937,336.319v -1.08193" fill="none" stroke="black"/>
<path d="M375.195,335.778v -3.18179" fill="none" stroke="black"/>
<path d="M374.654,332.596h 1.08193" fill="none" stroke="black"/>
<path d="M375.195,335.778v 3.18179" fill="none" stroke="black"/>
<path d="M374.654,338.96h 1.08193" fill="none" stroke="black"/>
<path d="M384.679,334.69h -4.7422" fill="none" stroke="black"/>
<path d="M379.937,335.23v -1.08193" fill="none" stroke="black"/>
<path d="M384.679,334.69h 4.7422" fill="none" stroke="black"/>
<path d="M389.421,335.23v -1.08193" fill="none" stroke="black"/>
<path d="M384.679,334.69v -3.31245" fill="none" stroke="black"/>
<path d="M384.138,331.377h 1.08193" fill="none" stroke="black"/>
<path d="M384.679,334.69v 3.31245" fill="none" stroke="black"/>
<path d="M384.138,338.002h 1.08193" fill="none" stroke="black"/>
<path d="M394.164,337.973h -4.7422" fill="none" stroke="black"/>
<path d="M389.421,338.514v -1.08193" fill="none" stroke="black"/>
<path d="M394.164,337.973h 4.7422" fill="none" stroke="black"/>
<path d="M398.906,338.514v -1.08193" fill="none" stroke="black"/>
<path d="M394.164,337.973v -2.42868" fill="none" stroke="black"/>
<path d="M393.623,335.544h 1.08193" fill="none" stroke="black"/>
<path d="M394.164,337.973v 2.42868" fill="none" stroke="black"/>
<path d="M393.623,340.402h 1.08193" fill="none" stroke="black"/>
<path d="M403.648,341.92h -4.7422" fill="none" stroke="black"/>
<path d="M398.906,342.461v -1.08193" fill="none" stroke="black"/>
<path d="M403.648,341.92h 4.7422" fill="none" stroke="black"/>
<path d="M408.39,342.461v -1.08193" fill="none" stroke="black"/>
<path d="M403.648,341.92v -1.85956" fill="none" stroke="black"/>
<path d="M403.107,340.061h 1.08193" fill="none" stroke="black"/>
<path d="M403.648,341.92v 1.85956" fill="none" stroke="black"/>
<path d="M403.107,343.78h 1.08193" fill="none" stroke="black"/>
<path d="M413.132,337.409h -4.7422" fill="none" stroke="black"/>
<path d="M408.39,337.95v -1.08193" fill="none" stroke="black"/>
<path d="M413.132,337.409h 4.7422" fill="none" stroke="black"/>
<path d="M417.875,337.95v -1.08193" fill="none" stroke="black"/>
<path d="M413.132,337.409v -2.63983" fill="none" stroke="black"/>
<path d="M412.591,334.77h 1.08193" fill="none" stroke="black"/>
<path d="M413.132,337.409v 2.63983" fill="none" stroke="black"/>
<path d="M412.591,340.049h 1.08193" fill="none" stroke="black"/>
<path d="M422.617,344.031h -4.7422" fill="none" stroke="black"/>
<path d="M417.875,344.572v -1.08193" fill="none" stroke="black"/>
<path d="M422.617,344.031h 4.7422" fill="none" stroke="black"/>
<path d="M427.359,344.572v -1.08193" fill="none" stroke="black"/>
<path d="M422.617,344.031v -1.45264" fill="none" stroke="black"/>
<path d="M422.076,342.579h 1.08193" fill="none" stroke="black"/>
<path d="M422.617,344.031v 1.45264" fill="none" stroke="black"/>
<path d="M422.076,345.484h 1.08193" fill="none" stroke="black"/>
<path d="M432.101,343.464h -4.7422" fill="none" stroke="black"/>
<path d="M427.359,344.005v -1.08193" fill="none" stroke="black"/>
<path d="M432.101,343.464h 4.7422" fill="none" stroke="black"/>
<path d="M436.843,344.005v -1.08193" fill="none" stroke="black"/>
<path d="M432.101,343.464v -1.72977" fill="none" stroke="black"/>
<path d="M431.56,341.734h 1.08193" fill="none" stroke="black"/>
<path d="M432.101,343.464v 1.72977" fill="none" stroke="black"/>
<path d="M431.56,345.194h 1.08193" fill="none" stroke="black"/>
<path d="M441.586,342.262h -4.7422" fill="none" stroke="black"/>
<path d="M436.843,342.803v -1.08193" fill="none" stroke="black"/>
<path d="M441.586,342.262h 4.7422" fill="none" stroke="black"/>
<path d="M446.328,342.803v -1.08193" fill="none" stroke="black"/>
<path d="M441.586,342.262v -1.82092" fill="none" stroke="black"/>
<path d="M441.045,340.441h 1.08193" fill="none" stroke="black"/>
<path d="M441.586,342.262v 1.82092" fill="none" stroke="black"/>
<path d="M441.045,344.083h 1.08193" fill="none" stroke="black"/>
<path d="M451.07,343.189h -4.7422" fill="none" stroke="black"/>
<path d="M446.328,343.73v -1.08193" fill="none" stroke="black"/>
<path d="M451.07,343.189h 4.7422" fill="none" stroke="black"/>
<path d="M455.812,343.73v -1.08193" fill="none" stroke="black"/>
<path d="M451.07,343.189v -1.60389" fill="none" stroke="black"/>
<path d="M450.529,341.585h 1.08193" fill="none" stroke="black"/>
<path d="M451.07,343.189v 1.60389" fill="none" stroke="black"/>
<path d="M450.529,344.793h 1.08193" fill="none" stroke="black"/>
<path d="M460.554,345.429h -4.7422" fill="none" stroke="black"/>
<path d="M455.812,345.97v -1.08193" fill="none" stroke="black"/>
<path d="M460.554,345.429h 4.7422" fill="none" stroke="black"/>
<path d="M465.297,345.97v -1.08193" fill="none" stroke="black"/>
<path d="M460.554,345.429v -0.843622" fill="none" stroke="black"/>
<path d="M460.013,344.585h 1.08193" fill="none" stroke="black"/>
<path d="M460.554,345.429v 0.843622" fill="none" stroke="black"/>
<path d="M460.013,346.272h 1.08193" fill="none" stroke="black"/>
<path d="M470.039,344.643h -4.7422" fill="none" stroke="black"/>
<path d="M465.297,345.184v -1.08193" fill="none" stroke="black"/>
<path d="M470.039,344.643h 4.7422" fill="none" stroke="black"/>
<path d="M474.781,345.184v -1.08193" fill="none" stroke="black"/>
<path d="M470.039,344.643v -1.23763" fill="none" stroke="black"/>
<path d="M469.498,343.406h 1.08193" fill="none" stroke="black"/>
<path d="M470.039,344.643v 1.23763" fill="none" stroke="black"/>
<path d="M469.498,345.881h 1.08193" fill="none" stroke="black"/>
<path d="M479.523,346.543h -4.7422" fill="none" stroke="black"/>
<path d="M474.781,346.543v -0.540963" fill="none" stroke="black"/>
<path d="M479.523,346.543h 4.7422" fill="none" stroke="black"/>
<path d="M484.265,346.543v -0.540963" fill="none" stroke="black"/>
<g stroke="black" stroke-width="1" fill="black">
<circle cx="90.6631" cy="346.543" r="2.16385"/>
<circle cx="100.147" cy="341.186" r="2.16385"/>
<circle cx="109.632" cy="342.326" r="2.16385"/>
<circle cx="119.116" cy="338.638" r="2.16385"/>
<circle cx="128.601" cy="334.836" r="2.16385"/>
<circle cx="138.085" cy="335.954" r="2.16385"/>
<circle cx="147.569" cy="331.918" r="2.16385"/>
<circle cx="157.054" cy="334.963" r="2.16385"/>
<circle cx="166.538" cy="332.302" r="2.16385"/>
<circle cx="176.023" cy="334.52" r="2.16385"/>
<circle cx="185.507" cy="330.242" r="2.16385"/>
<circle cx="194.991" cy="312.137" r="2.16385"/>
<circle cx="204.476" cy="312.185" r="2.16385"/>
<circle cx="213.96" cy="313.099" r="2.16385"/>
<circle cx="223.445" cy="299.727" r="2.16385"/>
<circle cx="232.929" cy="279.122" r="2.16385"/>
<circle cx="242.413" cy="261.224" r="2.16385"/>
<circle cx="251.898" cy="218.378" r="2.16385"/>
<circle cx="261.382" cy="209.218" r="2.16385"/>
<circle cx="270.867" cy="173.624" r="2.16385"/>
<circle cx="280.351" cy="141.151" r="2.16385"/>
<circle cx="289.835" cy="174.473" r="2.16385"/>
<circle cx="299.32" cy="174.888" r="2.16385"/>
<circle cx="308.804" cy="199.135" r="2.16385"/>
<circle cx="318.288" cy="215.296" r="2.16385"/>
<circle cx="327.773" cy="253.406" r="2.16385"/>
<circle cx="337.257" cy="288.158" r="2.16385"/>
<circle cx="346.742" cy="288.374" r="2.16385"/>
<circle cx="356.226" cy="305.699" r="2.16385"/>
<circle cx="365.71" cy="327.756" r="2.16385"/>
<circle cx="375.195" cy="335.778" r="2.16385"/>
<circle cx="384.679" cy="334.69" r="2.16385"/>
<circle cx="394.164" cy="337.973" r="2.16385"/>
<circle cx="403.648" cy="341.92" r="2.16385"/>
<circle cx="413.132" cy="337.409" r="2.16385"/>
<circle cx="422.617" cy="344.031" r="2.16385"/>
<circle cx="432.101" cy="343.464" r="2.16385"/>
<circle cx="441.586" cy="342.262" r="2.16385"/>
<circle cx="451.07" cy="343.189" r="2.16385"/>
<circle cx="460.554" cy="345.429" r="2.16385"/>
<circle cx="470.039" cy="344.643" r="2.16385"/>
<circle cx="479.523" cy="346.543" r="2.16385"/>
</g>
<text xml:space="preserve" x="168.739" y="132.265" fill="black" font-size="9.78783" font-family="Helvetica" font-weight="bold"> 1.97 (GeV)</text>
<text xml:space="preserve" x="163.6" y="132.265" fill="black" font-size="9.78783" font-family="Times">&#0177;</text>
<text xml:space="preserve" x="119.512" y="132.265" fill="black" font-size="9.78783" font-family="Helvetica" font-weight="bold">: 1602.15 </text>
<text xml:space="preserve" x="110.586" y="137.134" fill="black" font-size="6.69188" font-family="Helvetica" font-weight="bold">CB</text>
<text xml:space="preserve" x="105.176" y="132.265" fill="black" font-size="9.78783" font-family="Times">&#0956;</text>
<text xml:space="preserve" x="158.461" y="147.953" fill="black" font-size="9.78783" font-family="Helvetica" font-weight="bold"> 1.95 (GeV)</text>
<text xml:space="preserve" x="153.322" y="147.953" fill="black" font-size="9.78783" font-family="Times">&#0177;</text>
<text xml:space="preserve" x="119.782" y="147.953" fill="black" font-size="9.78783" font-family="Helvetica" font-weight="bold">: 67.29 </text>
<text xml:space="preserve" x="110.856" y="150.929" fill="black" font-size="6.69188" font-family="Helvetica" font-weight="bold">CB</text>
<text xml:space="preserve" x="105.176" y="147.953" fill="black" font-size="9.78783" font-family="Times">&#0963;</text>
<text xml:space="preserve" x="153.592" y="163.371" fill="black" font-size="9.78783" font-family="Helvetica" font-weight="bold"> 0.03</text>
<text xml:space="preserve" x="148.453" y="163.371" fill="black" font-size="9.78783" font-family="Times">&#0177;</text>
<text xml:space="preserve" x="120.053" y="163.371" fill="black" font-size="9.78783" font-family="Helvetica" font-weight="bold">: 1.43 </text>
<text xml:space="preserve" x="111.127" y="166.346" fill="black" font-size="6.69188" font-family="Helvetica" font-weight="bold">CB</text>
<text xml:space="preserve" x="105.176" y="163.371" fill="black" font-size="9.78783" font-family="Times">&#0945;</text>
<text xml:space="preserve" x="153.052" y="179.059" fill="black" font-size="9.78783" font-family="Helvetica" font-weight="bold"> 0.04</text>
<text xml:space="preserve" x="147.912" y="179.059" fill="black" font-size="9.78783" font-family="Times">&#0177;</text>
<text xml:space="preserve" x="119.512" y="179.059" fill="black" font-size="9.78783" font-family="Helvetica" font-weight="bold">: 1.40 </text>
<text xml:space="preserve" x="110.586" y="181.764" fill="black" font-size="6.69188" font-family="Helvetica" font-weight="bold">CB</text>
<text xml:space="preserve" x="105.176" y="179.059" fill="black" font-size="9.78783" font-family="Helvetica" font-weight="bold">n</text>
<text xml:space="preserve" x="166.305" y="194.476" fill="black" font-size="9.78783" font-family="Helvetica" font-weight="bold"> 15.18 (GeV)</text>
<text xml:space="preserve" x="161.166" y="194.476" fill="black" font-size="9.78783" font-family="Times">&#0177;</text>
<text xml:space="preserve" x="128.979" y="194.476" fill="black" font-size="9.78783" font-family="Helvetica" font-weight="bold">: 88.11 </text>
<text xml:space="preserve" x="110.856" y="197.451" fill="black" font-size="6.69188" font-family="Helvetica" font-weight="bold">Gaus1</text>
<text xml:space="preserve" x="105.176" y="194.476" fill="black" font-size="9.78783" font-family="Times">&#0963;</text>
<text xml:space="preserve" x="173.879" y="210.164" fill="black" font-size="9.78783" font-family="Helvetica" font-weight="bold"> 46.09 (GeV)</text>
<text xml:space="preserve" x="168.739" y="210.164" fill="black" font-size="9.78783" font-family="Times">&#0177;</text>
<text xml:space="preserve" x="129.79" y="210.164" fill="black" font-size="9.78783" font-family="Helvetica" font-weight="bold">: 200.00 </text>
<text xml:space="preserve" x="110.856" y="213.139" fill="black" font-size="6.69188" font-family="Helvetica" font-weight="bold">Gaus2</text>
<text xml:space="preserve" x="105.176" y="210.164" fill="black" font-size="9.78783" font-family="Times">&#0963;</text>
<text xml:space="preserve" x="161.166" y="225.582" fill="black" font-size="9.78783" font-family="Helvetica" font-weight="bold"> 0.13</text>
<text xml:space="preserve" x="156.027" y="225.582" fill="black" font-size="9.78783" font-family="Times">&#0177;</text>
<text xml:space="preserve" x="105.176" y="225.582" fill="black" font-size="9.78783" font-family="Helvetica" font-weight="bold">frac1: 0.70 </text>
<text xml:space="preserve" x="161.166" y="241.269" fill="black" font-size="9.78783" font-family="Helvetica" font-weight="bold"> 0.05</text>
<text xml:space="preserve" x="156.027" y="241.269" fill="black" font-size="9.78783" font-family="Times">&#0177;</text>
<text xml:space="preserve" x="105.176" y="241.269" fill="black" font-size="9.78783" font-family="Helvetica" font-weight="bold">frac2: 0.85 </text>
<path d="M84.9724,346.543h 403.087" fill="none" stroke="black"/>
<path d="M95.4053,337.315v 9.22817" fill="none" stroke="black"/>
<path d="M104.89,341.929v 4.61409" fill="none" stroke="black"/>
<path d="M114.374,341.929v 4.61409" fill="none" stroke="black"/>
<path d="M123.858,341.929v 4.61409" fill="none" stroke="black"/>
<path d="M133.343,341.929v 4.61409" fill="none" stroke="black"/>
<path d="M142.827,337.315v 9.22817" fill="none" stroke="black"/>
<path d="M152.312,341.929v 4.61409" fill="none" stroke="black"/>
<path d="M161.796,341.929v 4.61409" fill="none" stroke="black"/>
<path d="M171.28,341.929v 4.61409" fill="none" stroke="black"/>
<path d="M180.765,341.929v 4.61409" fill="none" stroke="black"/>
<path d="M190.249,337.315v 9.22817" fill="none" stroke="black"/>
<path d="M199.734,341.929v 4.61409" fill="none" stroke="black"/>
<path d="M209.218,341.929v 4.61409" fill="none" stroke="black"/>
<path d="M218.702,341.929v 4.61409" fill="none" stroke="black"/>
<path d="M228.187,341.929v 4.61409" fill="none" stroke="black"/>
<path d="M237.671,337.315v 9.22817" fill="none" stroke="black"/>
<path d="M247.156,341.929v 4.61409" fill="none" stroke="black"/>
<path d="M256.64,341.929v 4.61409" fill="none" stroke="black"/>
<path d="M266.124,341.929v 4.61409" fill="none" stroke="black"/>
<path d="M275.609,341.929v 4.61409" fill="none" stroke="black"/>
<path d="M285.093,337.315v 9.22817" fill="none" stroke="black"/>
<path d="M294.577,341.929v 4.61409" fill="none" stroke="black"/>
<path d="M304.062,341.929v 4.61409" fill="none" stroke="black"/>
<path d="M313.546,341.929v 4.61409" fill="none" stroke="black"/>
<path d="M323.031,341.929v 4.61409" fill="none" stroke="black"/>
<path d="M332.515,337.315v 9.22817" fill="none" stroke="black"/>
<path d="M341.999,341.929v 4.61409" fill="none" stroke="black"/>
<path d="M351.484,341.929v 4.61409" fill="none" stroke="black"/>
<path d="M360.968,341.929v 4.61409" fill="none" stroke="black"/>
<path d="M370.453,341.929v 4.61409" fill="none" stroke="black"/>
<path d="M379.937,337.315v 9.22817" fill="none" stroke="black"/>
<path d="M389.421,341.929v 4.61409" fill="none" stroke="black"/>
<path d="M398.906,341.929v 4.61409" fill="none" stroke="black"/>
<path d="M408.39,341.929v 4.61409" fill="none" stroke="black"/>
<path d="M417.875,341.929v 4.61409" fill="none" stroke="black"/>
<path d="M427.359,337.315v 9.22817" fill="none" stroke="black"/>
<path d="M436.843,341.929v 4.61409" fill="none" stroke="black"/>
<path d="M446.328,341.929v 4.61409" fill="none" stroke="black"/>
<path d="M455.812,341.929v 4.61409" fill="none" stroke="black"/>
<path d="M465.297,341.929v 4.61409" fill="none" stroke="black"/>
<path d="M474.781,337.315v 9.22817" fill="none" stroke="black"/>
<path d="M95.4053,337.315v 9.22817" fill="none" stroke="black"/>
<path d="M85.9209,341.929v 4.61409" fill="none" stroke="black"/>
<path d="M474.781,337.315v 9.22817" fill="none" stroke="black"/>
<path d="M484.265,341.929v 4.61409" fill="none" stroke="black"/>
<path d="M84.9724,346.543v -307.606" fill="none" stroke="black"/>
<path d="M97.065,346.543h -12.0926" fill="none" stroke="black"/>
<path d="M91.0187,338.853h -6.0463" fill="none" stroke="black"/>
<path d="M91.0187,331.163h -6.0463" fill="none" stroke="black"/>
<path d="M91.0187,323.473h -6.0463" fill="none" stroke="black"/>
<path d="M91.0187,315.783h -6.0463" fill="none" stroke="black"/>
<path d="M97.065,308.092h -12.0926" fill="none" stroke="black"/>
<path d="M91.0187,300.402h -6.0463" fill="none" stroke="black"/>
<path d="M91.0187,292.712h -6.0463" fill="none" stroke="black"/>
<path d="M91.0187,285.022h -6.0463" fill="none" stroke="black"/>
<path d="M91.0187,277.332h -6.0463" fill="none" stroke="black"/>
<path d="M97.065,269.642h -12.0926" fill="none" stroke="black"/>
<path d="M91.0187,261.952h -6.0463" fill="none" stroke="black"/>
<path d="M91.0187,254.261h -6.0463" fill="none" stroke="black"/>
<path d="M91.0187,246.571h -6.0463" fill="none" stroke="black"/>
<path d="M91.0187,238.881h -6.0463" fill="none" stroke="black"/>
<path d="M97.065,231.191h -12.0926" fill="none" stroke="black"/>
<path d="M91.0187,223.501h -6.0463" fill="none" stroke="black"/>
<path d="M91.0187,215.811h -6.0463" fill="none" stroke="black"/>
<path d="M91.0187,208.121h -6.0463" fill="none" stroke="black"/>
<path d="M91.0187,200.43h -6.0463" fill="none" stroke="black"/>
<path d="M97.065,192.74h -12.0926" fill="none" stroke="black"/>
<path d="M91.0187,185.05h -6.0463" fill="none" stroke="black"/>
<path d="M91.0187,177.36h -6.0463" fill="none" stroke="black"/>
<path d="M91.0187,169.67h -6.0463" fill="none" stroke="black"/>
<path d="M91.0187,161.98h -6.0463" fill="none" stroke="black"/>
<path d="M97.065,154.29h -12.0926" fill="none" stroke="black"/>
<path d="M91.0187,146.599h -6.0463" fill="none" stroke="black"/>
<path d="M91.0187,138.909h -6.0463" fill="none" stroke="black"/>
<path d="M91.0187,131.219h -6.0463" fill="none" stroke="black"/>
<path d="M91.0187,123.529h -6.0463" fill="none" stroke="black"/>
<path d="M97.065,115.839h -12.0926" fill="none" stroke="black"/>
<path d="M91.0187,108.149h -6.0463" fill="none" stroke="black"/>
<path d="M91.0187,100.459h -6.0463" fill="none" stroke="black"/>
<path d="M91.0187,92.7684h -6.0463" fill="none" stroke="black"/>
<path d="M91.0187,85.0783h -6.0463" fill="none" stroke="black"/>
<path d="M97.065,77.3881h -12.0926" fill="none" stroke="black"/>
<path d="M91.0187,69.698h -6.0463" fill="none" stroke="black"/>
<path d="M91.0187,62.0079h -6.0463" fill="none" stroke="black"/>
<path d="M91.0187,54.3177h -6.0463" fill="none" stroke="black"/>
<path d="M91.0187,46.6276h -6.0463" fill="none" stroke="black"/>
<path d="M97.065,38.9374h -12.0926" fill="none" stroke="black"/>
<text xml:space="preserve" x="403.517" y="32.9987" fill="black" font-size="13.0028" font-family="Helvetica"> (13 TeV) 2017</text>
<text xml:space="preserve" x="397.567" y="27.3186" fill="black" font-size="8.83523" font-family="Helvetica">-1</text>
<text xml:space="preserve" x="351.855" y="32.9987" fill="black" font-size="13.0028" font-family="Helvetica">41.53 fb</text>
<text xml:space="preserve" x="103.111" y="66.2787" fill="black" font-size="16.5751" font-family="Helvetica" font-weight="bold">CMS</text>
<text xml:space="preserve" x="103.012" y="80.0625" fill="black" font-size="12.7171" font-family="Helvetica" font-style="oblique">Simulation</text>
<rect x="334.988" y="46.7249" width="142.866" height="50.6187" fill="white"/>
<path d="M334.988,97.3436h 142.866" fill="none" stroke="black"/>
<path d="M477.854,97.3436v -50.6187" fill="none" stroke="black"/>
<path d="M477.854,46.7249h -142.866" fill="none" stroke="black"/>
<path d="M334.988,46.7249v 50.6187" fill="none" stroke="black"/>
<text xml:space="preserve" x="370.519" y="58.6945" fill="black" font-size="11.2167" font-family="Helvetica">2017 Signal MC</text>
<path d="M340.346,55.1614h 25.0016" fill="none" stroke="black"/>
<path d="M352.846,52.9975v -2.89801" fill="none" stroke="black"/>
<path d="M352.846,57.3252v 2.89801" fill="none" stroke="black"/>
<path d="M350.971,50.0995h 3.75024" fill="none" stroke="black"/>
<path d="M350.971,60.2232h 3.75024" fill="none" stroke="black"/>
<g stroke="black" stroke-width="1" fill="black">
<circle cx="352.846" cy="55.1614" r="2.16385"/>
</g>
<text xml:space="preserve" x="370.519" y="75.7348" fill="black" font-size="11.2167" font-family="Helvetica">Signal fit CB2Gaus</text>
<path d="M340.346,72.0342h 25.0016" fill="none" stroke="#ff0000" stroke-width="3"/>
<text xml:space="preserve" x="420.287" y="92.5047" fill="black" font-size="11.2167" font-family="Times">&#0963;</text>
<text xml:space="preserve" x="370.519" y="92.5047" fill="black" font-size="11.2167" font-family="Helvetica">Fit Error 1 </text>
<path d="M340.346,94.8126h 25.0016v -11.811h -25.0016z" fill="#00ff00"/>
<path d="M340.346,83.0016h 25.0016" fill="none" stroke="white"/>
<path d="M340.346,94.8126h 25.0016" fill="none" stroke="white"/>
<path d="M365.347,94.8126v -11.811" fill="none" stroke="white"/>
<path d="M340.346,94.8126v -11.811" fill="none" stroke="white"/>
<rect x="28.8465" y="365.372" width="510.236" height="114.679" fill="white"/>
<rect x="84.9724" y="388.307" width="403.087" height="63.0733" fill="white"/>
<rect x="84.9724" y="388.307" width="403.087" height="63.0733" fill="none" stroke="black"/>
<rect x="84.9724" y="388.307" width="403.087" height="63.0733" fill="white"/>
<rect x="84.9724" y="388.307" width="403.087" height="63.0733" fill="none" stroke="black"/>
<path d="M84.9724,451.381h 403.087" fill="none" stroke="black"/>
<path d="M95.4053,388.307v 63.0733" fill="none" stroke="black" stroke-dasharray=" 1, 2"/>
<path d="M142.827,388.307v 63.0733" fill="none" stroke="black" stroke-dasharray=" 1, 2"/>
<path d="M190.249,388.307v 63.0733" fill="none" stroke="black" stroke-dasharray=" 1, 2"/>
<path d="M237.671,388.307v 63.0733" fill="none" stroke="black" stroke-dasharray=" 1, 2"/>
<path d="M285.093,388.307v 63.0733" fill="none" stroke="black" stroke-dasharray=" 1, 2"/>
<path d="M332.515,388.307v 63.0733" fill="none" stroke="black" stroke-dasharray=" 1, 2"/>
<path d="M379.937,388.307v 63.0733" fill="none" stroke="black" stroke-dasharray=" 1, 2"/>
<path d="M427.359,388.307v 63.0733" fill="none" stroke="black" stroke-dasharray=" 1, 2"/>
<path d="M474.781,388.307v 63.0733" fill="none" stroke="black" stroke-dasharray=" 1, 2"/>
<path d="M95.4053,388.307v 63.0733" fill="none" stroke="black" stroke-dasharray=" 1, 2"/>
<path d="M474.781,388.307v 63.0733" fill="none" stroke="black" stroke-dasharray=" 1, 2"/>
<path d="M84.9724,451.381v -63.0733" fill="none" stroke="black"/>
<path d="M488.059,445.073h -403.087" fill="none" stroke="black" stroke-dasharray=" 1, 2"/>
<path d="M488.059,432.459h -403.087" fill="none" stroke="black" stroke-dasharray=" 1, 2"/>
<path d="M488.059,419.844h -403.087" fill="none" stroke="black" stroke-dasharray=" 1, 2"/>
<path d="M488.059,407.229h -403.087" fill="none" stroke="black" stroke-dasharray=" 1, 2"/>
<path d="M488.059,394.615h -403.087" fill="none" stroke="black" stroke-dasharray=" 1, 2"/>
<path d="M488.059,445.073h -403.087" fill="none" stroke="black" stroke-dasharray=" 1, 2"/>
<path d="M488.059,394.615h -403.087" fill="none" stroke="black" stroke-dasharray=" 1, 2"/>
<path d="M84.9724,451.381h 403.087" fill="none" stroke="black"/>
<path d="M95.4053,448.663v 2.71789" fill="none" stroke="black"/>
<path d="M104.89,450.022v 1.35894" fill="none" stroke="black"/>
<path d="M114.374,450.022v 1.35894" fill="none" stroke="black"/>
<path d="M123.858,450.022v 1.35894" fill="none" stroke="black"/>
<path d="M133.343,450.022v 1.35894" fill="none" stroke="black"/>
<path d="M142.827,448.663v 2.71789" fill="none" stroke="black"/>
<path d="M152.312,450.022v 1.35894" fill="none" stroke="black"/>
<path d="M161.796,450.022v 1.35894" fill="none" stroke="black"/>
<path d="M171.28,450.022v 1.35894" fill="none" stroke="black"/>
<path d="M180.765,450.022v 1.35894" fill="none" stroke="black"/>
<path d="M190.249,448.663v 2.71789" fill="none" stroke="black"/>
<path d="M199.734,450.022v 1.35894" fill="none" stroke="black"/>
<path d="M209.218,450.022v 1.35894" fill="none" stroke="black"/>
<path d="M218.702,450.022v 1.35894" fill="none" stroke="black"/>
<path d="M228.187,450.022v 1.35894" fill="none" stroke="black"/>
<path d="M237.671,448.663v 2.71789" fill="none" stroke="black"/>
<path d="M247.156,450.022v 1.35894" fill="none" stroke="black"/>
<path d="M256.64,450.022v 1.35894" fill="none" stroke="black"/>
<path d="M266.124,450.022v 1.35894" fill="none" stroke="black"/>
<path d="M275.609,450.022v 1.35894" fill="none" stroke="black"/>
<path d="M285.093,448.663v 2.71789" fill="none" stroke="black"/>
<path d="M294.577,450.022v 1.35894" fill="none" stroke="black"/>
<path d="M304.062,450.022v 1.35894" fill="none" stroke="black"/>
<path d="M313.546,450.022v 1.35894" fill="none" stroke="black"/>
<path d="M323.031,450.022v 1.35894" fill="none" stroke="black"/>
<path d="M332.515,448.663v 2.71789" fill="none" stroke="black"/>
<path d="M341.999,450.022v 1.35894" fill="none" stroke="black"/>
<path d="M351.484,450.022v 1.35894" fill="none" stroke="black"/>
<path d="M360.968,450.022v 1.35894" fill="none" stroke="black"/>
<path d="M370.453,450.022v 1.35894" fill="none" stroke="black"/>
<path d="M379.937,448.663v 2.71789" fill="none" stroke="black"/>
<path d="M389.421,450.022v 1.35894" fill="none" stroke="black"/>
<path d="M398.906,450.022v 1.35894" fill="none" stroke="black"/>
<path d="M408.39,450.022v 1.35894" fill="none" stroke="black"/>
<path d="M417.875,450.022v 1.35894" fill="none" stroke="black"/>
<path d="M427.359,448.663v 2.71789" fill="none" stroke="black"/>
<path d="M436.843,450.022v 1.35894" fill="none" stroke="black"/>
<path d="M446.328,450.022v 1.35894" fill="none" stroke="black"/>
<path d="M455.812,450.022v 1.35894" fill="none" stroke="black"/>
<path d="M465.297,450.022v 1.35894" fill="none" stroke="black"/>
<path d="M474.781,448.663v 2.71789" fill="none" stroke="black"/>
<path d="M95.4053,448.663v 2.71789" fill="none" stroke="black"/>
<path d="M85.9209,450.022v 1.35894" fill="none" stroke="black"/>
<path d="M474.781,448.663v 2.71789" fill="none" stroke="black"/>
<path d="M484.265,450.022v 1.35894" fill="none" stroke="black"/>
<text xml:space="preserve" x="81.1035" y="462.794" fill="black" font-size="13.1252" font-family="Helvetica">1200</text>
<text xml:space="preserve" x="128.708" y="462.794" fill="black" font-size="13.1252" font-family="Helvetica">1300</text>
<text xml:space="preserve" x="176.042" y="462.794" fill="black" font-size="13.1252" font-family="Helvetica">1400</text>
<text xml:space="preserve" x="223.377" y="462.794" fill="black" font-size="13.1252" font-family="Helvetica">1500</text>
<text xml:space="preserve" x="270.981" y="462.794" fill="black" font-size="13.1252" font-family="Helvetica">1600</text>
<text xml:space="preserve" x="318.316" y="462.794" fill="black" font-size="13.1252" font-family="Helvetica">1700</text>
<text xml:space="preserve" x="365.65" y="462.794" fill="black" font-size="13.1252" font-family="Helvetica">1800</text>
<text xml:space="preserve" x="413.255" y="462.794" fill="black" font-size="13.1252" font-family="Helvetica">1900</text>
<text xml:space="preserve" x="460.589" y="462.794" fill="black" font-size="13.1252" font-family="Helvetica">2000</text>
<text xml:space="preserve" x="451.393" y="475.236" fill="black" font-size="13.1252" font-family="Helvetica"> (GeV)</text>
<text xml:space="preserve" x="447.065" y="479.023" fill="black" font-size="8.91679" font-family="Times">&#0947;</text>
<text xml:space="preserve" x="445.172" y="479.023" fill="black" font-size="8.91679" font-family="Helvetica">j</text>
<text xml:space="preserve" x="435.434" y="475.236" fill="black" font-size="13.1252" font-family="Helvetica">M</text>
<path d="M84.9724,451.381v -63.0733" fill="none" stroke="black"/>
<path d="M93.3913,445.073h -8.4189" fill="none" stroke="black"/>
<path d="M93.3913,432.459h -8.4189" fill="none" stroke="black"/>
<path d="M93.3913,419.844h -8.4189" fill="none" stroke="black"/>
<path d="M93.3913,407.229h -8.4189" fill="none" stroke="black"/>
<path d="M93.3913,394.615h -8.4189" fill="none" stroke="black"/>
<path d="M93.3913,445.073h -8.4189" fill="none" stroke="black"/>
<path d="M93.3913,394.615h -8.4189" fill="none" stroke="black"/>
<text xml:space="preserve" x="75.4234" y="449.811" fill="black" font-size="13.1252" font-family="Helvetica">4</text>
<text xml:space="preserve" x="68.3908" y="449.811" fill="black" font-size="13.1252" font-family="Times">&#8722;</text>
<text xml:space="preserve" x="75.4234" y="437.098" fill="black" font-size="13.1252" font-family="Helvetica">2</text>
<text xml:space="preserve" x="68.3908" y="437.098" fill="black" font-size="13.1252" font-family="Times">&#8722;</text>
<text xml:space="preserve" x="75.6938" y="424.385" fill="black" font-size="13.1252" font-family="Helvetica">0</text>
<text xml:space="preserve" x="75.4234" y="411.943" fill="black" font-size="13.1252" font-family="Helvetica">2</text>
<text xml:space="preserve" x="75.4234" y="399.231" fill="black" font-size="13.1252" font-family="Helvetica">4</text>
<g transform="rotate(-90,57.5716,408.156)">
<text xml:space="preserve" x="57.5716" y="408.156" fill="black" font-size="8.91679" font-family="Helvetica">stat</text>
</g>
<g transform="rotate(-90,53.7848,415.73)">
<text xml:space="preserve" x="53.7848" y="415.73" fill="black" font-size="13.1252" font-family="Times">&#0963;</text>
</g>
<g transform="rotate(-90,43.2361,421.951)">
<text xml:space="preserve" x="43.2361" y="421.951" fill="black" font-size="13.1252" font-family="Helvetica">MC-fit</text>
</g>
<path d="M45.3999,421.951v -33.8102" fill="none" stroke="black" stroke-width="2"/>
<rect x="95.3851" y="419.844" width="9.5247" height="1.76288" fill="#3399ff" fill-opacity="0.70" stroke-opacity="0.70"/>
<rect x="104.87" y="419.844" width="9.5247" height="7.72499" fill="#3399ff" fill-opacity="0.70" stroke-opacity="0.70"/>
<rect x="114.354" y="418.999" width="9.5247" height="0.845075" fill="#3399ff" fill-opacity="0.70" stroke-opacity="0.70"/>
<rect x="123.838" y="413.804" width="9.5247" height="6.04034" fill="#3399ff" fill-opacity="0.70" stroke-opacity="0.70"/>
<rect x="133.323" y="417.909" width="9.5247" height="1.93551" fill="#3399ff" fill-opacity="0.70" stroke-opacity="0.70"/>
<rect x="142.807" y="413.108" width="9.5247" height="6.73663" fill="#3399ff" fill-opacity="0.70" stroke-opacity="0.70"/>
<rect x="152.291" y="419.844" width="9.5247" height="2.03755" fill="#3399ff" fill-opacity="0.70" stroke-opacity="0.70"/>
<rect x="161.776" y="419.844" width="9.5247" height="0.699667" fill="#3399ff" fill-opacity="0.70" stroke-opacity="0.70"/>
<rect x="171.26" y="419.844" width="9.5247" height="11.1379" fill="#3399ff" fill-opacity="0.70" stroke-opacity="0.70"/>
<rect x="180.745" y="419.844" width="9.5247" height="7.67341" fill="#3399ff" fill-opacity="0.70" stroke-opacity="0.70"/>
<rect x="190.229" y="409.935" width="9.5247" height="9.90919" fill="#3399ff" fill-opacity="0.70" stroke-opacity="0.70"/>
<rect x="199.713" y="416.207" width="9.5247" height="3.63669" fill="#3399ff" fill-opacity="0.70" stroke-opacity="0.70"/>
<rect x="209.198" y="419.844" width="9.5247" height="6.9602" fill="#3399ff" fill-opacity="0.70" stroke-opacity="0.70"/>
<rect x="218.682" y="419.844" width="9.5247" height="3.73871" fill="#3399ff" fill-opacity="0.70" stroke-opacity="0.70"/>
<rect x="228.167" y="418.577" width="9.5247" height="1.26686" fill="#3399ff" fill-opacity="0.70" stroke-opacity="0.70"/>
<rect x="237.651" y="419.844" width="9.5247" height="2.64282" fill="#3399ff" fill-opacity="0.70" stroke-opacity="0.70"/>
<rect x="247.135" y="413.772" width="9.5247" height="6.07255" fill="#3399ff" fill-opacity="0.70" stroke-opacity="0.70"/>
<rect x="256.62" y="419.844" width="9.5247" height="5.60447" fill="#3399ff" fill-opacity="0.70" stroke-opacity="0.70"/>
<rect x="266.104" y="418.92" width="9.5247" height="0.924238" fill="#3399ff" fill-opacity="0.70" stroke-opacity="0.70"/>
<rect x="275.589" y="410.52" width="9.5247" height="9.32424" fill="#3399ff" fill-opacity="0.70" stroke-opacity="0.70"/>
<rect x="285.073" y="419.844" width="9.5247" height="7.89937" fill="#3399ff" fill-opacity="0.70" stroke-opacity="0.70"/>
<rect x="294.557" y="419.844" width="9.5247" height="1.91008" fill="#3399ff" fill-opacity="0.70" stroke-opacity="0.70"/>
<rect x="304.042" y="419.844" width="9.5247" height="2.98502" fill="#3399ff" fill-opacity="0.70" stroke-opacity="0.70"/>
<rect x="313.526" y="415.669" width="9.5247" height="4.17564" fill="#3399ff" fill-opacity="0.70" stroke-opacity="0.70"/>
<rect x="323.01" y="419.844" width="9.5247" height="1.27376" fill="#3399ff" fill-opacity="0.70" stroke-opacity="0.70"/>
<rect x="332.495" y="419.844" width="9.5247" height="9.45255" fill="#3399ff" fill-opacity="0.70" stroke-opacity="0.70"/>
<rect x="341.979" y="410.671" width="9.5247" height="9.17307" fill="#3399ff" fill-opacity="0.70" stroke-opacity="0.70"/>
<rect x="351.464" y="411.336" width="9.5247" height="8.50847" fill="#3399ff" fill-opacity="0.70" stroke-opacity="0.70"/>
<rect x="360.948" y="419.844" width="9.5247" height="5.46352" fill="#3399ff" fill-opacity="0.70" stroke-opacity="0.70"/>
<rect x="370.432" y="419.844" width="9.5247" height="9.1016" fill="#3399ff" fill-opacity="0.70" stroke-opacity="0.70"/>
<rect x="379.917" y="418.423" width="9.5247" height="1.42066" fill="#3399ff" fill-opacity="0.70" stroke-opacity="0.70"/>
<rect x="389.401" y="419.455" width="9.5247" height="0.38882" fill="#3399ff" fill-opacity="0.70" stroke-opacity="0.70"/>
<rect x="398.886" y="419.844" width="9.5247" height="6.90116" fill="#3399ff" fill-opacity="0.70" stroke-opacity="0.70"/>
<rect x="408.37" y="411" width="9.5247" height="8.8441" fill="#3399ff" fill-opacity="0.70" stroke-opacity="0.70"/>
<rect x="417.854" y="419.844" width="9.5247" height="8.70939" fill="#3399ff" fill-opacity="0.70" stroke-opacity="0.70"/>
<rect x="427.339" y="419.844" width="9.5247" height="2.59778" fill="#3399ff" fill-opacity="0.70" stroke-opacity="0.70"/>
<rect x="436.823" y="416.057" width="9.5247" height="3.78694" fill="#3399ff" fill-opacity="0.70" stroke-opacity="0.70"/>
<rect x="446.308" y="417.16" width="9.5247" height="2.68416" fill="#3399ff" fill-opacity="0.70" stroke-opacity="0.70"/>
<rect x="455.792" y="419.844" width="9.5247" height="8.3028" fill="#3399ff" fill-opacity="0.70" stroke-opacity="0.70"/>
<rect x="465.276" y="419.53" width="9.5247" height="0.313998" fill="#3399ff" fill-opacity="0.70" stroke-opacity="0.70"/>
<path d="M84.9724,451.381h 403.087" fill="none" stroke="black"/>
<path d="M95.4053,448.663v 2.71789" fill="none" stroke="black"/>
<path d="M104.89,450.022v 1.35894" fill="none" stroke="black"/>
<path d="M114.374,450.022v 1.35894" fill="none" stroke="black"/>
<path d="M123.858,450.022v 1.35894" fill="none" stroke="black"/>
<path d="M133.343,450.022v 1.35894" fill="none" stroke="black"/>
<path d="M142.827,448.663v 2.71789" fill="none" stroke="black"/>
<path d="M152.312,450.022v 1.35894" fill="none" stroke="black"/>
<path d="M161.796,450.022v 1.35894" fill="none" stroke="black"/>
<path d="M171.28,450.022v 1.35894" fill="none" stroke="black"/>
<path d="M180.765,450.022v 1.35894" fill="none" stroke="black"/>
<path d="M190.249,448.663v 2.71789" fill="none" stroke="black"/>
<path d="M199.734,450.022v 1.35894" fill="none" stroke="black"/>
<path d="M209.218,450.022v 1.35894" fill="none" stroke="black"/>
<path d="M218.702,450.022v 1.35894" fill="none" stroke="black"/>
<path d="M228.187,450.022v 1.35894" fill="none" stroke="black"/>
<path d="M237.671,448.663v 2.71789" fill="none" stroke="black"/>
<path d="M247.156,450.022v 1.35894" fill="none" stroke="black"/>
<path d="M256.64,450.022v 1.35894" fill="none" stroke="black"/>
<path d="M266.124,450.022v 1.35894" fill="none" stroke="black"/>
<path d="M275.609,450.022v 1.35894" fill="none" stroke="black"/>
<path d="M285.093,448.663v 2.71789" fill="none" stroke="black"/>
<path d="M294.577,450.022v 1.35894" fill="none" stroke="black"/>
<path d="M304.062,450.022v 1.35894" fill="none" stroke="black"/>
<path d="M313.546,450.022v 1.35894" fill="none" stroke="black"/>
<path d="M323.031,450.022v 1.35894" fill="none" stroke="black"/>
<path d="M332.515,448.663v 2.71789" fill="none" stroke="black"/>
<path d="M341.999,450.022v 1.35894" fill="none" stroke="black"/>
<path d="M351.484,450.022v 1.35894" fill="none" stroke="black"/>
<path d="M360.968,450.022v 1.35894" fill="none" stroke="black"/>
<path d="M370.453,450.022v 1.35894" fill="none" stroke="black"/>
<path d="M379.937,448.663v 2.71789" fill="none" stroke="black"/>
<path d="M389.421,450.022v 1.35894" fill="none" stroke="black"/>
<path d="M398.906,450.022v 1.35894" fill="none" stroke="black"/>
<path d="M408.39,450.022v 1.35894" fill="none" stroke="black"/>
<path d="M417.875,450.022v 1.35894" fill="none" stroke="black"/>
<path d="M427.359,448.663v 2.71789" fill="none" stroke="black"/>
<path d="M436.843,450.022v 1.35894" fill="none" stroke="black"/>
<path d="M446.328,450.022v 1.35894" fill="none" stroke="black"/>
<path d="M455.812,450.022v 1.35894" fill="none" stroke="black"/>
<path d="M465.297,450.022v 1.35894" fill="none" stroke="black"/>
<path d="M474.781,448.663v 2.71789" fill="none" stroke="black"/>
<path d="M95.4053,448.663v 2.71789" fill="none" stroke="black"/>
<path d="M85.9209,450.022v 1.35894" fill="none" stroke="black"/>
<path d="M474.781,448.663v 2.71789" fill="none" stroke="black"/>
<path d="M484.265,450.022v 1.35894" fill="none" stroke="black"/>
<path d="M84.9724,451.381v -63.0733" fill="none" stroke="black"/>
<path d="M93.3913,445.073h -8.4189" fill="none" stroke="black"/>
<path d="M93.3913,432.459h -8.4189" fill="none" stroke="black"/>
<path d="M93.3913,419.844h -8.4189" fill="none" stroke="black"/>
<path d="M93.3913,407.229h -8.4189" fill="none" stroke="black"/>
<path d="M93.3913,394.615h -8.4189" fill="none" stroke="black"/>
<path d="M93.3913,445.073h -8.4189" fill="none" stroke="black"/>
<path d="M93.3913,394.615h -8.4189" fill="none" stroke="black"/></svg>
