<?xml version="1.0" standalone="no"?>
<svg width="567.429" height="533.889" viewBox="0 0 567.429 533.889" xmlns="http://www.w3.org/2000/svg" shape-rendering="crispEdges">
<title>
CB2Gaus2000.svg
</title>
<desc>
Creator: ROOT Version 6.10/09
CreationDate: Sun Apr 19 22:10:13 2020</desc>
<defs>
</defs>
<rect x="0.5" y="0" width="566.929" height="533.389" fill="white"/>
<rect x="28.8465" y="0" width="510.236" height="389.374" fill="white"/>
<rect x="84.9724" y="38.9374" width="403.087" height="307.606" fill="white"/>
<rect x="84.9724" y="38.9374" width="403.087" height="307.606" fill="none" stroke="black"/>
<rect x="84.9724" y="38.9374" width="403.087" height="307.606" fill="white"/>
<rect x="84.9724" y="38.9374" width="403.087" height="307.606" fill="none" stroke="black"/>
<path d="M84.9724,346.543h 403.087" fill="none" stroke="black"/>
<path d="M130.814,337.315v 9.22817" fill="none" stroke="black"/>
<path d="M150.573,341.929v 4.61409" fill="none" stroke="black"/>
<path d="M170.332,341.929v 4.61409" fill="none" stroke="black"/>
<path d="M190.091,341.929v 4.61409" fill="none" stroke="black"/>
<path d="M209.85,337.315v 9.22817" fill="none" stroke="black"/>
<path d="M229.609,341.929v 4.61409" fill="none" stroke="black"/>
<path d="M249.369,341.929v 4.61409" fill="none" stroke="black"/>
<path d="M269.128,341.929v 4.61409" fill="none" stroke="black"/>
<path d="M288.887,337.315v 9.22817" fill="none" stroke="black"/>
<path d="M308.646,341.929v 4.61409" fill="none" stroke="black"/>
<path d="M328.405,341.929v 4.61409" fill="none" stroke="black"/>
<path d="M348.164,341.929v 4.61409" fill="none" stroke="black"/>
<path d="M367.923,337.315v 9.22817" fill="none" stroke="black"/>
<path d="M387.683,341.929v 4.61409" fill="none" stroke="black"/>
<path d="M407.442,341.929v 4.61409" fill="none" stroke="black"/>
<path d="M427.201,341.929v 4.61409" fill="none" stroke="black"/>
<path d="M446.96,337.315v 9.22817" fill="none" stroke="black"/>
<path d="M130.814,337.315v 9.22817" fill="none" stroke="black"/>
<path d="M111.055,341.929v 4.61409" fill="none" stroke="black"/>
<path d="M91.2954,341.929v 4.61409" fill="none" stroke="black"/>
<path d="M446.96,337.315v 9.22817" fill="none" stroke="black"/>
<path d="M466.719,341.929v 4.61409" fill="none" stroke="black"/>
<path d="M486.478,341.929v 4.61409" fill="none" stroke="black"/>
<text xml:space="preserve" x="112.75" y="362.445" fill="black" font-size="16.5751" font-family="Helvetica">1600</text>
<text xml:space="preserve" x="191.73" y="362.445" fill="black" font-size="16.5751" font-family="Helvetica">1800</text>
<text xml:space="preserve" x="270.981" y="362.445" fill="black" font-size="16.5751" font-family="Helvetica">2000</text>
<text xml:space="preserve" x="349.962" y="362.445" fill="black" font-size="16.5751" font-family="Helvetica">2200</text>
<text xml:space="preserve" x="428.943" y="362.445" fill="black" font-size="16.5751" font-family="Helvetica">2400</text>
<path d="M84.9724,346.543v -307.606" fill="none" stroke="black"/>
<path d="M97.065,346.543h -12.0926" fill="none" stroke="black"/>
<path d="M91.0187,340.391h -6.0463" fill="none" stroke="black"/>
<path d="M91.0187,334.239h -6.0463" fill="none" stroke="black"/>
<path d="M91.0187,328.087h -6.0463" fill="none" stroke="black"/>
<path d="M91.0187,321.935h -6.0463" fill="none" stroke="black"/>
<path d="M97.065,315.783h -12.0926" fill="none" stroke="black"/>
<path d="M91.0187,309.63h -6.0463" fill="none" stroke="black"/>
<path d="M91.0187,303.478h -6.0463" fill="none" stroke="black"/>
<path d="M91.0187,297.326h -6.0463" fill="none" stroke="black"/>
<path d="M91.0187,291.174h -6.0463" fill="none" stroke="black"/>
<path d="M97.065,285.022h -12.0926" fill="none" stroke="black"/>
<path d="M91.0187,278.87h -6.0463" fill="none" stroke="black"/>
<path d="M91.0187,272.718h -6.0463" fill="none" stroke="black"/>
<path d="M91.0187,266.566h -6.0463" fill="none" stroke="black"/>
<path d="M91.0187,260.414h -6.0463" fill="none" stroke="black"/>
<path d="M97.065,254.261h -12.0926" fill="none" stroke="black"/>
<path d="M91.0187,248.109h -6.0463" fill="none" stroke="black"/>
<path d="M91.0187,241.957h -6.0463" fill="none" stroke="black"/>
<path d="M91.0187,235.805h -6.0463" fill="none" stroke="black"/>
<path d="M91.0187,229.653h -6.0463" fill="none" stroke="black"/>
<path d="M97.065,223.501h -12.0926" fill="none" stroke="black"/>
<path d="M91.0187,217.349h -6.0463" fill="none" stroke="black"/>
<path d="M91.0187,211.197h -6.0463" fill="none" stroke="black"/>
<path d="M91.0187,205.044h -6.0463" fill="none" stroke="black"/>
<path d="M91.0187,198.892h -6.0463" fill="none" stroke="black"/>
<path d="M97.065,192.74h -12.0926" fill="none" stroke="black"/>
<path d="M91.0187,186.588h -6.0463" fill="none" stroke="black"/>
<path d="M91.0187,180.436h -6.0463" fill="none" stroke="black"/>
<path d="M91.0187,174.284h -6.0463" fill="none" stroke="black"/>
<path d="M91.0187,168.132h -6.0463" fill="none" stroke="black"/>
<path d="M97.065,161.98h -12.0926" fill="none" stroke="black"/>
<path d="M91.0187,155.828h -6.0463" fill="none" stroke="black"/>
<path d="M91.0187,149.675h -6.0463" fill="none" stroke="black"/>
<path d="M91.0187,143.523h -6.0463" fill="none" stroke="black"/>
<path d="M91.0187,137.371h -6.0463" fill="none" stroke="black"/>
<path d="M97.065,131.219h -12.0926" fill="none" stroke="black"/>
<path d="M91.0187,125.067h -6.0463" fill="none" stroke="black"/>
<path d="M91.0187,118.915h -6.0463" fill="none" stroke="black"/>
<path d="M91.0187,112.763h -6.0463" fill="none" stroke="black"/>
<path d="M91.0187,106.611h -6.0463" fill="none" stroke="black"/>
<path d="M97.065,100.459h -12.0926" fill="none" stroke="black"/>
<path d="M91.0187,94.3064h -6.0463" fill="none" stroke="black"/>
<path d="M91.0187,88.1543h -6.0463" fill="none" stroke="black"/>
<path d="M91.0187,82.0022h -6.0463" fill="none" stroke="black"/>
<path d="M91.0187,75.8501h -6.0463" fill="none" stroke="black"/>
<path d="M97.065,69.698h -12.0926" fill="none" stroke="black"/>
<path d="M91.0187,63.5459h -6.0463" fill="none" stroke="black"/>
<path d="M91.0187,57.3938h -6.0463" fill="none" stroke="black"/>
<path d="M91.0187,51.2417h -6.0463" fill="none" stroke="black"/>
<path d="M91.0187,45.0895h -6.0463" fill="none" stroke="black"/>
<path d="M97.065,38.9374h -12.0926" fill="none" stroke="black"/>
<text xml:space="preserve" x="73.8005" y="352.167" fill="black" font-size="16.5751" font-family="Helvetica">0</text>
<text xml:space="preserve" x="64.8746" y="321.332" fill="black" font-size="16.5751" font-family="Helvetica">50</text>
<text xml:space="preserve" x="55.6782" y="290.497" fill="black" font-size="16.5751" font-family="Helvetica">100</text>
<text xml:space="preserve" x="55.6782" y="259.933" fill="black" font-size="16.5751" font-family="Helvetica">150</text>
<text xml:space="preserve" x="55.6782" y="229.098" fill="black" font-size="16.5751" font-family="Helvetica">200</text>
<text xml:space="preserve" x="55.6782" y="198.263" fill="black" font-size="16.5751" font-family="Helvetica">250</text>
<text xml:space="preserve" x="55.6782" y="167.428" fill="black" font-size="16.5751" font-family="Helvetica">300</text>
<text xml:space="preserve" x="55.6782" y="136.864" fill="black" font-size="16.5751" font-family="Helvetica">350</text>
<text xml:space="preserve" x="55.6782" y="106.029" fill="black" font-size="16.5751" font-family="Helvetica">400</text>
<text xml:space="preserve" x="55.6782" y="75.1938" fill="black" font-size="16.5751" font-family="Helvetica">450</text>
<text xml:space="preserve" x="55.6782" y="44.359" fill="black" font-size="16.5751" font-family="Helvetica">500</text>
<g transform="rotate(-90,41.0722,156.609)">
<text xml:space="preserve" x="41.0722" y="156.609" fill="black" font-size="16.5751" font-family="Helvetica">Events / 20 GeV</text>
</g>
<path d="M91.2954,342.121h -6.32293" fill="none" stroke="black"/>
<path d="M91.2954,342.121h 7.90366" fill="none" stroke="black"/>
<path d="M99.199,342.662v -1.08193" fill="none" stroke="black"/>
<path d="M91.2954,342.121v -1.77054" fill="none" stroke="black"/>
<path d="M90.7544,340.351h 1.08193" fill="none" stroke="black"/>
<path d="M91.2954,342.121v 1.77054" fill="none" stroke="black"/>
<path d="M90.7544,343.892h 1.08193" fill="none" stroke="black"/>
<path d="M107.103,337.474h -7.90366" fill="none" stroke="black"/>
<path d="M99.199,338.015v -1.08193" fill="none" stroke="black"/>
<path d="M107.103,337.474h 7.90366" fill="none" stroke="black"/>
<path d="M115.006,338.015v -1.08193" fill="none" stroke="black"/>
<path d="M107.103,337.474v -2.5808" fill="none" stroke="black"/>
<path d="M106.562,334.893h 1.08193" fill="none" stroke="black"/>
<path d="M107.103,337.474v 2.5808" fill="none" stroke="black"/>
<path d="M106.562,340.055h 1.08193" fill="none" stroke="black"/>
<path d="M122.91,337.022h -7.90366" fill="none" stroke="black"/>
<path d="M115.006,337.563v -1.08193" fill="none" stroke="black"/>
<path d="M122.91,337.022h 7.90366" fill="none" stroke="black"/>
<path d="M130.814,337.563v -1.08193" fill="none" stroke="black"/>
<path d="M122.91,337.022v -2.3064" fill="none" stroke="black"/>
<path d="M122.369,334.716h 1.08193" fill="none" stroke="black"/>
<path d="M122.91,337.022v 2.3064" fill="none" stroke="black"/>
<path d="M122.369,339.328h 1.08193" fill="none" stroke="black"/>
<path d="M138.717,334.425h -7.90366" fill="none" stroke="black"/>
<path d="M130.814,334.966v -1.08193" fill="none" stroke="black"/>
<path d="M138.717,334.425h 7.90366" fill="none" stroke="black"/>
<path d="M146.621,334.966v -1.08193" fill="none" stroke="black"/>
<path d="M138.717,334.425v -2.85342" fill="none" stroke="black"/>
<path d="M138.176,331.572h 1.08193" fill="none" stroke="black"/>
<path d="M138.717,334.425v 2.85342" fill="none" stroke="black"/>
<path d="M138.176,337.278h 1.08193" fill="none" stroke="black"/>
<path d="M154.525,335.405h -7.90366" fill="none" stroke="black"/>
<path d="M146.621,335.946v -1.08193" fill="none" stroke="black"/>
<path d="M154.525,335.405h 7.90366" fill="none" stroke="black"/>
<path d="M162.428,335.946v -1.08193" fill="none" stroke="black"/>
<path d="M154.525,335.405v -2.76013" fill="none" stroke="black"/>
<path d="M153.984,332.645h 1.08193" fill="none" stroke="black"/>
<path d="M154.525,335.405v 2.76013" fill="none" stroke="black"/>
<path d="M153.984,338.165h 1.08193" fill="none" stroke="black"/>
<path d="M170.332,327.392h -7.90366" fill="none" stroke="black"/>
<path d="M162.428,327.933v -1.08193" fill="none" stroke="black"/>
<path d="M170.332,327.392h 7.90366" fill="none" stroke="black"/>
<path d="M178.236,327.933v -1.08193" fill="none" stroke="black"/>
<path d="M170.332,327.392v -3.78886" fill="none" stroke="black"/>
<path d="M169.791,323.603h 1.08193" fill="none" stroke="black"/>
<path d="M170.332,327.392v 3.78886" fill="none" stroke="black"/>
<path d="M169.791,331.181h 1.08193" fill="none" stroke="black"/>
<path d="M186.139,324.445h -7.90366" fill="none" stroke="black"/>
<path d="M178.236,324.986v -1.08193" fill="none" stroke="black"/>
<path d="M186.139,324.445h 7.90366" fill="none" stroke="black"/>
<path d="M194.043,324.986v -1.08193" fill="none" stroke="black"/>
<path d="M186.139,324.445v -3.89086" fill="none" stroke="black"/>
<path d="M185.598,320.554h 1.08193" fill="none" stroke="black"/>
<path d="M186.139,324.445v 3.89086" fill="none" stroke="black"/>
<path d="M185.598,328.336h 1.08193" fill="none" stroke="black"/>
<path d="M201.947,308.473h -7.90366" fill="none" stroke="black"/>
<path d="M194.043,309.014v -1.08193" fill="none" stroke="black"/>
<path d="M201.947,308.473h 7.90366" fill="none" stroke="black"/>
<path d="M209.85,309.014v -1.08193" fill="none" stroke="black"/>
<path d="M201.947,308.473v -5.04371" fill="none" stroke="black"/>
<path d="M201.406,303.429h 1.08193" fill="none" stroke="black"/>
<path d="M201.947,308.473v 5.04371" fill="none" stroke="black"/>
<path d="M201.406,313.516h 1.08193" fill="none" stroke="black"/>
<path d="M217.754,291.28h -7.90366" fill="none" stroke="black"/>
<path d="M209.85,291.821v -1.08193" fill="none" stroke="black"/>
<path d="M217.754,291.28h 7.90366" fill="none" stroke="black"/>
<path d="M225.658,291.821v -1.08193" fill="none" stroke="black"/>
<path d="M217.754,291.28v -6.11023" fill="none" stroke="black"/>
<path d="M217.213,285.17h 1.08193" fill="none" stroke="black"/>
<path d="M217.754,291.28v 6.11023" fill="none" stroke="black"/>
<path d="M217.213,297.39h 1.08193" fill="none" stroke="black"/>
<path d="M233.561,264.62h -7.90366" fill="none" stroke="black"/>
<path d="M225.658,265.161v -1.08193" fill="none" stroke="black"/>
<path d="M233.561,264.62h 7.90366" fill="none" stroke="black"/>
<path d="M241.465,265.161v -1.08193" fill="none" stroke="black"/>
<path d="M233.561,264.62v -7.46133" fill="none" stroke="black"/>
<path d="M233.02,257.158h 1.08193" fill="none" stroke="black"/>
<path d="M233.561,264.62v 7.46133" fill="none" stroke="black"/>
<path d="M233.02,272.081h 1.08193" fill="none" stroke="black"/>
<path d="M249.369,215.945h -7.90366" fill="none" stroke="black"/>
<path d="M241.465,216.486v -1.08193" fill="none" stroke="black"/>
<path d="M249.369,215.945h 7.90366" fill="none" stroke="black"/>
<path d="M257.272,216.486v -1.08193" fill="none" stroke="black"/>
<path d="M249.369,215.945v -9.44087" fill="none" stroke="black"/>
<path d="M248.828,206.504h 1.08193" fill="none" stroke="black"/>
<path d="M249.369,215.945v 9.44087" fill="none" stroke="black"/>
<path d="M248.828,225.385h 1.08193" fill="none" stroke="black"/>
<path d="M265.176,163.448h -7.90366" fill="none" stroke="black"/>
<path d="M257.272,163.989v -1.08193" fill="none" stroke="black"/>
<path d="M265.176,163.448h 7.90366" fill="none" stroke="black"/>
<path d="M273.08,163.989v -1.08193" fill="none" stroke="black"/>
<path d="M265.176,163.448v -11.2598" fill="none" stroke="black"/>
<path d="M264.635,152.188h 1.08193" fill="none" stroke="black"/>
<path d="M265.176,163.448v 11.2598" fill="none" stroke="black"/>
<path d="M264.635,174.707h 1.08193" fill="none" stroke="black"/>
<path d="M280.983,142.858h -7.90366" fill="none" stroke="black"/>
<path d="M273.08,143.399v -1.08193" fill="none" stroke="black"/>
<path d="M280.983,142.858h 7.90366" fill="none" stroke="black"/>
<path d="M288.887,143.399v -1.08193" fill="none" stroke="black"/>
<path d="M280.983,142.858v -11.8266" fill="none" stroke="black"/>
<path d="M280.442,131.032h 1.08193" fill="none" stroke="black"/>
<path d="M280.983,142.858v 11.8266" fill="none" stroke="black"/>
<path d="M280.442,154.685h 1.08193" fill="none" stroke="black"/>
<path d="M296.79,116.854h -7.90366" fill="none" stroke="black"/>
<path d="M288.887,117.395v -1.08193" fill="none" stroke="black"/>
<path d="M296.79,116.854h 7.90366" fill="none" stroke="black"/>
<path d="M304.694,117.395v -1.08193" fill="none" stroke="black"/>
<path d="M296.79,116.854v -12.507" fill="none" stroke="black"/>
<path d="M296.25,104.347h 1.08193" fill="none" stroke="black"/>
<path d="M296.79,116.854v 12.507" fill="none" stroke="black"/>
<path d="M296.25,129.361h 1.08193" fill="none" stroke="black"/>
<path d="M312.598,161.694h -7.90366" fill="none" stroke="black"/>
<path d="M304.694,162.235v -1.08193" fill="none" stroke="black"/>
<path d="M312.598,161.694h 7.90366" fill="none" stroke="black"/>
<path d="M320.501,162.235v -1.08193" fill="none" stroke="black"/>
<path d="M312.598,161.694v -11.2356" fill="none" stroke="black"/>
<path d="M312.057,150.459h 1.08193" fill="none" stroke="black"/>
<path d="M312.598,161.694v 11.2356" fill="none" stroke="black"/>
<path d="M312.057,172.93h 1.08193" fill="none" stroke="black"/>
<path d="M328.405,214.86h -7.90366" fill="none" stroke="black"/>
<path d="M320.501,215.401v -1.08193" fill="none" stroke="black"/>
<path d="M328.405,214.86h 7.90366" fill="none" stroke="black"/>
<path d="M336.309,215.401v -1.08193" fill="none" stroke="black"/>
<path d="M328.405,214.86v -9.41912" fill="none" stroke="black"/>
<path d="M327.864,205.441h 1.08193" fill="none" stroke="black"/>
<path d="M328.405,214.86v 9.41912" fill="none" stroke="black"/>
<path d="M327.864,224.279h 1.08193" fill="none" stroke="black"/>
<path d="M344.212,256.738h -7.90366" fill="none" stroke="black"/>
<path d="M336.309,257.279v -1.08193" fill="none" stroke="black"/>
<path d="M344.212,256.738h 7.90366" fill="none" stroke="black"/>
<path d="M352.116,257.279v -1.08193" fill="none" stroke="black"/>
<path d="M344.212,256.738v -7.97487" fill="none" stroke="black"/>
<path d="M343.672,248.763h 1.08193" fill="none" stroke="black"/>
<path d="M344.212,256.738v 7.97487" fill="none" stroke="black"/>
<path d="M343.672,264.713h 1.08193" fill="none" stroke="black"/>
<path d="M360.02,307.12h -7.90366" fill="none" stroke="black"/>
<path d="M352.116,307.661v -1.08193" fill="none" stroke="black"/>
<path d="M360.02,307.12h 7.90366" fill="none" stroke="black"/>
<path d="M367.923,307.661v -1.08193" fill="none" stroke="black"/>
<path d="M360.02,307.12v -4.9824" fill="none" stroke="black"/>
<path d="M359.479,302.138h 1.08193" fill="none" stroke="black"/>
<path d="M360.02,307.12v 4.9824" fill="none" stroke="black"/>
<path d="M359.479,312.103h 1.08193" fill="none" stroke="black"/>
<path d="M375.827,323.46h -7.90366" fill="none" stroke="black"/>
<path d="M367.923,324.001v -1.08193" fill="none" stroke="black"/>
<path d="M375.827,323.46h 7.90366" fill="none" stroke="black"/>
<path d="M383.731,324.001v -1.08193" fill="none" stroke="black"/>
<path d="M375.827,323.46v -4.00066" fill="none" stroke="black"/>
<path d="M375.286,319.46h 1.08193" fill="none" stroke="black"/>
<path d="M375.827,323.46v 4.00066" fill="none" stroke="black"/>
<path d="M375.286,327.461h 1.08193" fill="none" stroke="black"/>
<path d="M391.634,331.675h -7.90366" fill="none" stroke="black"/>
<path d="M383.731,332.216v -1.08193" fill="none" stroke="black"/>
<path d="M391.634,331.675h 7.90366" fill="none" stroke="black"/>
<path d="M399.538,332.216v -1.08193" fill="none" stroke="black"/>
<path d="M391.634,331.675v -3.04725" fill="none" stroke="black"/>
<path d="M391.093,328.628h 1.08193" fill="none" stroke="black"/>
<path d="M391.634,331.675v 3.04725" fill="none" stroke="black"/>
<path d="M391.093,334.722h 1.08193" fill="none" stroke="black"/>
<path d="M407.442,330.008h -7.90366" fill="none" stroke="black"/>
<path d="M399.538,330.549v -1.08193" fill="none" stroke="black"/>
<path d="M407.442,330.008h 7.90366" fill="none" stroke="black"/>
<path d="M415.345,330.549v -1.08193" fill="none" stroke="black"/>
<path d="M407.442,330.008v -3.30741" fill="none" stroke="black"/>
<path d="M406.901,326.7h 1.08193" fill="none" stroke="black"/>
<path d="M407.442,330.008v 3.30741" fill="none" stroke="black"/>
<path d="M406.901,333.315h 1.08193" fill="none" stroke="black"/>
<path d="M423.249,340.574h -7.90366" fill="none" stroke="black"/>
<path d="M415.345,341.115v -1.08193" fill="none" stroke="black"/>
<path d="M423.249,340.574h 7.90366" fill="none" stroke="black"/>
<path d="M431.153,341.115v -1.08193" fill="none" stroke="black"/>
<path d="M423.249,340.574v -1.90906" fill="none" stroke="black"/>
<path d="M422.708,338.665h 1.08193" fill="none" stroke="black"/>
<path d="M423.249,340.574v 1.90906" fill="none" stroke="black"/>
<path d="M422.708,342.483h 1.08193" fill="none" stroke="black"/>
<path d="M439.056,343.48h -7.90366" fill="none" stroke="black"/>
<path d="M431.153,344.021v -1.08193" fill="none" stroke="black"/>
<path d="M439.056,343.48h 7.90366" fill="none" stroke="black"/>
<path d="M446.96,344.021v -1.08193" fill="none" stroke="black"/>
<path d="M439.056,343.48v -1.29387" fill="none" stroke="black"/>
<path d="M438.515,342.186h 1.08193" fill="none" stroke="black"/>
<path d="M439.056,343.48v 1.29387" fill="none" stroke="black"/>
<path d="M438.515,344.774h 1.08193" fill="none" stroke="black"/>
<path d="M454.864,341.043h -7.90366" fill="none" stroke="black"/>
<path d="M446.96,341.584v -1.08193" fill="none" stroke="black"/>
<path d="M454.864,341.043h 7.90366" fill="none" stroke="black"/>
<path d="M462.767,341.584v -1.08193" fill="none" stroke="black"/>
<path d="M454.864,341.043v -1.96857" fill="none" stroke="black"/>
<path d="M454.323,339.075h 1.08193" fill="none" stroke="black"/>
<path d="M454.864,341.043v 1.96857" fill="none" stroke="black"/>
<path d="M454.323,343.012h 1.08193" fill="none" stroke="black"/>
<path d="M470.671,344.255h -7.90366" fill="none" stroke="black"/>
<path d="M462.767,344.796v -1.08193" fill="none" stroke="black"/>
<path d="M470.671,344.255h 7.90366" fill="none" stroke="black"/>
<path d="M478.575,344.796v -1.08193" fill="none" stroke="black"/>
<path d="M470.671,344.255v -1.2454" fill="none" stroke="black"/>
<path d="M470.13,343.009h 1.08193" fill="none" stroke="black"/>
<path d="M470.671,344.255v 1.2454" fill="none" stroke="black"/>
<path d="M470.13,345.5h 1.08193" fill="none" stroke="black"/>
<path d="M486.478,346.543h -7.90366" fill="none" stroke="black"/>
<path d="M478.575,346.543v -0.540963" fill="none" stroke="black"/>
<path d="M486.478,346.543h 1.58073" fill="none" stroke="black"/>
<g stroke="black" stroke-width="1" fill="black">
<circle cx="91.2954" cy="342.121" r="2.16385"/>
<circle cx="107.103" cy="337.474" r="2.16385"/>
<circle cx="122.91" cy="337.022" r="2.16385"/>
<circle cx="138.717" cy="334.425" r="2.16385"/>
<circle cx="154.525" cy="335.405" r="2.16385"/>
<circle cx="170.332" cy="327.392" r="2.16385"/>
<circle cx="186.139" cy="324.445" r="2.16385"/>
<circle cx="201.947" cy="308.473" r="2.16385"/>
<circle cx="217.754" cy="291.28" r="2.16385"/>
<circle cx="233.561" cy="264.62" r="2.16385"/>
<circle cx="249.369" cy="215.945" r="2.16385"/>
<circle cx="265.176" cy="163.448" r="2.16385"/>
<circle cx="280.983" cy="142.858" r="2.16385"/>
<circle cx="296.79" cy="116.854" r="2.16385"/>
<circle cx="312.598" cy="161.694" r="2.16385"/>
<circle cx="328.405" cy="214.86" r="2.16385"/>
<circle cx="344.212" cy="256.738" r="2.16385"/>
<circle cx="360.02" cy="307.12" r="2.16385"/>
<circle cx="375.827" cy="323.46" r="2.16385"/>
<circle cx="391.634" cy="331.675" r="2.16385"/>
<circle cx="407.442" cy="330.008" r="2.16385"/>
<circle cx="423.249" cy="340.574" r="2.16385"/>
<circle cx="439.056" cy="343.48" r="2.16385"/>
<circle cx="454.864" cy="341.043" r="2.16385"/>
<circle cx="470.671" cy="344.255" r="2.16385"/>
<circle cx="486.478" cy="346.543" r="2.16385"/>
</g>
<path d="M91.2954,339.541l 3.95183, -0.21331l 3.95183, -0.23636l 3.95183, -0.262161l 3.95183, -0.290964l 3.95183, -0.323031l 3.95183, -0.358635l 3.95183, -0.398064l 3.95183, -0.441619l 3.95183, -0.489622l 3.95183, -0.542418l 3.95183, -0.600381l
 3.95183, -0.663921l 3.95183, -0.733496l 3.95183, -0.80962l 3.95183, -0.892874l 3.95183, -0.983913l 3.95183, -1.08348l 3.95183, -1.19241l 3.95183, -1.31162l 3.95183, -1.44213l 3.95183, -1.58502l 3.95183, -1.74143l 3.95183, -1.91252l 3.95183,
 -2.09945l 3.95183, -2.30332l 3.95183, -2.52517l 3.95183, -2.76594l 3.95183, -3.02654l 3.95183, -3.30797l 3.95183, -3.61158l 3.95183, -3.93962l 3.95183, -4.29629l 3.95183, -4.68967l 3.95183, -5.13551l 3.95183, -5.66515l 3.95183, -6.34352l 3.95183,
 -7.31563l 1.97591, -4.20184l 1.97591, -4.7495l 1.97591, -5.56268l 1.97591, -6.34738l 3.95183, -13.6058l 3.95183, -14.6518l 3.95183, -15.4112l 3.95183, -15.7729l 3.95183, -15.6357l 3.95183, -14.9211l 3.95183, -13.5854l 1.97591, -6.09661l 1.97591,
 -5.53287l 1.97591, -4.89993l 1.97591, -4.20412l 1.97591, -3.45318l 1.97591, -2.65618l 1.97591, -1.82326l 1.97591, -0.965448l 1.97591, -0.0943821l 1.97591, 0.777983l 1.97591, 1.63966l 1.97591, 2.47891l 1.97591, 3.28457l 1.97591, 4.04627l 1.97591,
 4.75469l 1.97591, 5.4018l 1.97591, 5.98095l 1.97591, 6.48702l 3.95183, 14.184l 3.95183, 15.2737l 3.95183, 15.7546l 3.95183, 15.6853l 3.95183, 15.1548l 3.95183, 14.2697l 3.95183, 13.1416l 3.95183, 11.8765l 3.95183, 10.5662l 3.95183, 9.28411l 3.95183,
 8.08284l 3.95183, 6.99535l 3.95183, 6.03747l 3.95183, 5.21161l 3.95183, 4.51074l 3.95183, 3.92205l 3.95183, 3.43002l 3.95183, 3.01871l 3.95183, 2.67327l 3.95183, 2.38071l 3.95183, 2.13029l 3.95183, 1.91342l 3.95183, 1.72344l 3.95183, 1.55527l
 3.95183, 1.40509l 3.95183, 1.27002l 3.95183, 1.14786l 3.95183, 1.03694l 3.95183, 0.935911l 3.95183, 0.843706l 3.95183, 0.759442l 3.95183, 0.682383l 3.95183, 0.611905l 3.95183, 0.54747l 3.95183, 0.488614l 3.95183, 0.434926l 3.95183, 0.386041l
 3.95183, 0.341627l 3.95183, 0.301378l 3.95183, 0.265011l 3.95183, 0.232253l 3.95183, 0.202849l 3.95183, 0.176549l 3.95183, 0.153115l 3.95183, 0.132315" fill="none" stroke="#ff0000" stroke-width="3"/>
<path d="M91.2954,340.51l 3.95183, -0.244505l 3.95183, -0.247903l 3.95183, -0.265846l 3.95183, -0.290385l 3.95183, -0.344593l 3.95183, -0.364104l 3.95183, -0.443398l 3.95183, -0.456155l 3.95183, -0.500952l 3.95183, -0.515906l 3.95183, -0.632239l
 3.95183, -0.654239l 3.95183, -0.774637l 3.95183, -0.834289l 3.95183, -0.893868l 3.95183, -0.962826l 3.95183, -1.07958l 3.95183, -1.18182l 3.95183, -1.32549l 3.95183, -1.47206l 3.95183, -1.63897l 3.95183, -1.68107l 3.95183, -1.8312l 3.95183,
 -2.02493l 3.95183, -2.22928l 3.95183, -2.44134l 3.95183, -2.64952l 3.95183, -2.92421l 3.95183, -3.22714l 3.95183, -3.43098l 3.95183, -3.83271l 3.95183, -4.1319l 3.95183, -4.44779l 3.95183, -4.87708l 3.95183, -5.5419l 3.95183, -6.09451l 3.95183,
 -7.36364l 1.97591, -4.32584l 1.97591, -4.76272l 1.97591, -5.26322l 1.97591, -5.58418l 3.95183, -13.1388l 3.95183, -14.2011l 3.95183, -15.1362l 3.95183, -15.7263l 3.95183, -15.4666l 3.95183, -14.8824l 3.95183, -13.4867l 1.97591, -6.0114l 1.97591,
 -5.56157l 1.97591, -4.85476l 1.97591, -4.2335l 1.97591, -3.54791l 1.97591, -2.78737l 1.97591, -1.95942l 1.97591, -1.06528l 1.97591, -0.262954l 1.97591, 1.00128l 1.97591, 1.57711l 1.97591, 2.64437l 1.97591, 3.243l 1.97591, 4.1012l 1.97591, 4.95894l
 1.97591, 5.4229l 1.97591, 6.10415l 1.97591, 6.49154l 3.95183, 13.9798l 3.95183, 15.1757l 3.95183, 15.4273l 3.95183, 15.4745l 3.95183, 14.7437l 3.95183, 13.9062l 3.95183, 12.795l 3.95183, 11.5547l 3.95183, 10.2823l 3.95183, 9.08841l 3.95183, 7.95816l
 3.95183, 6.79056l 3.95183, 5.94913l 3.95183, 5.01925l 3.95183, 4.23859l 3.95183, 3.73743l 3.95183, 3.346l 3.95183, 2.91382l 3.95183, 2.55303l 3.95183, 2.20056l 3.95183, 1.96823l 3.95183, 1.85012l 3.95183, 1.67662l 3.95183, 1.53812l 3.95183, 1.43754l
 3.95183, 1.30126l 3.95183, 1.17503l 3.95183, 1.01913l 3.95183, 0.913893l 3.95183, 0.840279l 3.95183, 0.73207l 3.95183, 0.651978l 3.95183, 0.578444l 3.95183, 0.504801l 3.95183, 0.443188l 3.95183, 0.39867l 3.95183, 0.349182l 3.95183, 0.306891l
 3.95183, 0.269505l 3.95183, 0.230742l 3.95183, 0.199095l 3.95183, 0.173014l 3.95183, 0.148202l 3.95183, 0.125605l 3.95183, 0.106066v -0.449156l -3.95183, -0.164021l -3.95183, -0.184175l -3.95183, -0.210432l -3.95183, -0.240163l -3.95183, -0.273983l
 -3.95183, -0.30888l -3.95183, -0.347011l -3.95183, -0.393969l -3.95183, -0.435896l -3.95183, -0.477976l -3.95183, -0.542908l -3.95183, -0.600833l -3.95183, -0.671766l -3.95183, -0.703153l -3.95183, -0.815677l -3.95183, -0.925383l -3.95183,
 -0.965565l -3.95183, -1.07803l -3.95183, -1.16649l -3.95183, -1.29286l -3.95183, -1.46661l -3.95183, -1.61415l -3.95183, -1.73874l -3.95183, -2.02476l -3.95183, -2.21919l -3.95183, -2.47104l -3.95183, -2.70861l -3.95183, -3.20092l -3.95183, -3.544l
 -3.95183, -3.9325l -3.95183, -4.7558l -3.95183, -5.24856l -3.95183, -6.11167l -3.95183, -7.12309l -3.95183, -8.13056l -3.95183, -9.47752l -3.95183, -10.7621l -3.95183, -12.1274l -3.95183, -13.3992l -3.95183, -14.4135l -3.95183, -15.483l -3.95183,
 -15.6051l -3.95183, -15.6086l -3.95183, -15.3351l -3.95183, -14.1436l -1.97591, -6.24751l -1.97591, -5.78823l -1.97591, -5.23168l -1.97591, -4.8664l -1.97591, -3.73883l -1.97591, -3.31275l -1.97591, -2.45331l -1.97591, -1.68545l -1.97591, -0.836314l
 -1.97591, -0.0147405l -1.97591, 0.94844l -1.97591, 1.70397l -1.97591, 2.56352l -1.97591, 3.44763l -1.97591, 4.1079l -1.97591, 4.6604l -1.97591, 5.56009l -1.97591, 6.1599l -3.95183, 13.4562l -3.95183, 14.9872l -3.95183, 15.5093l -3.95183, 15.6398l
 -3.95183, 15.5845l -3.95183, 15.032l -3.95183, 13.6263l -1.97591, 6.04726l -1.97591, 5.79727l -1.97591, 4.66608l -1.97591, 4.33409l -3.95183, 7.48252l -3.95183, 6.41019l -3.95183, 5.86702l -3.95183, 5.14283l -3.95183, 4.69859l -3.95183, 4.4234l
 -3.95183, 4.1302l -3.95183, 3.70778l -3.95183, 3.3946l -3.95183, 3.16962l -3.95183, 2.85247l -3.95183, 2.65432l -3.95183, 2.38157l -3.95183, 2.19119l -3.95183, 2.02171l -3.95183, 1.74505l -3.95183, 1.57232l -3.95183, 1.5074l -3.95183, 1.33239l
 -3.95183, 1.22967l -3.95183, 1.13764l -3.95183, 1.05282l -3.95183, 0.905384l -3.95183, 0.801775l -3.95183, 0.738025l -3.95183, 0.687636l -3.95183, 0.5785l -3.95183, 0.533341l -3.95183, 0.44318l -3.95183, 0.466529l -3.95183, 0.377936l -3.95183,
 0.363015l -3.95183, 0.325816l -3.95183, 0.292891l -3.95183, 0.304707l -3.95183, 0.260466l -3.95183, 0.196199z" fill="#00ff00"/>
<path d="M91.2954,340.194l 3.95183, -0.0924495l 3.95183, -0.0961914l 3.95183, -0.100187l 3.95183, -0.10446l 3.95183, -0.109039l 3.95183, -0.113955l 3.95183, -0.119243l 3.95183, -0.124942l 3.95183, -0.131101l 3.95183, -0.13777l 3.95183, -0.145011l
 3.95183, -0.152894l 3.95183, -0.1615l 3.95183, -0.170926l 3.95183, -0.181284l 3.95183, -0.192706l 3.95183, -0.205351l 3.95183, -0.219408l 3.95183, -0.235105l 3.95183, -0.25272l 3.95183, -0.272595l 3.95183, -0.295153l 3.95183, -0.320923l 3.95183,
 -0.350578l 3.95183, -0.38498l 3.95183, -0.425253l 3.95183, -0.472883l 3.95183, -0.529879l 3.95183, -0.599004l 3.95183, -0.684161l 3.95183, -0.791017l 3.95183, -0.928083l 3.95183, -1.10866l 3.95183, -1.35462l 3.95183, -1.70416l 3.95183, -2.22964l
 3.95183, -3.08389l 1.97591, -2.05487l 1.97591, -2.58974l 1.97591, -3.39666l 1.97591, -4.18208l 1.97591, -4.50136l 1.97591, -4.80577l 3.95183, -10.4488l 3.95183, -11.3712l 3.95183, -11.9656l 3.95183, -12.1311l 3.95183, -11.7873l 1.97591, -5.59128l
 1.97591, -5.29473l 1.97591, -4.92793l 1.97591, -4.49347l 1.97591, -3.99551l 1.97591, -3.43967l 1.97591, -2.83299l 1.97591, -2.18372l 1.97591, -1.50122l 1.97591, -0.795661l 1.97591, -0.0778109l 1.97591, 0.641243l 1.97591, 1.35039l 1.97591, 2.03876l
 1.97591, 2.69602l 1.97591, 3.31265l 1.97591, 3.88011l 1.97591, 4.3911l 1.97591, 4.83968l 1.97591, 5.22137l 3.95183, 11.3071l 3.95183, 11.9867l 3.95183, 12.1231l 3.95183, 11.7784l 3.95183, 11.0427l 1.97591, 5.15195l 1.97591, 4.86948l 1.97591,
 4.56827l 1.97591, 4.25469l 1.97591, 3.93468l 1.97591, 3.61363l 1.97591, 3.29634l 1.97591, 2.98693l 1.97591, 2.68889l 1.97591, 2.405l 3.95183, 4.02515l 3.95183, 3.10213l 3.95183, 2.33297l 3.95183, 1.71283l 3.95183, 1.22811l 3.95183, 0.860218l
 3.95183, 0.588767l 3.95183, 0.393858l 3.95183, 0.257563l 3.95183, 0.164683l 3.95183, 0.102967l 3.95183, 0.0629645l 3.95183, 0.0376607l 3.95183, 0.0498536h 82.9884" fill="none" stroke="black" stroke-width="3" stroke-dasharray=" 3, 3"/>
<path d="M91.2954,346.543h 39.5183l 3.95183, -0.0412661l 3.95183, -0.0176247l 3.95183, -0.0243854l 3.95183, -0.0334085l 3.95183, -0.0453197l 3.95183, -0.0608695l 3.95183, -0.0809425l 3.95183, -0.10656l 3.95183, -0.138878l 3.95183, -0.17917l 3.95183,
 -0.228803l 3.95183, -0.289196l 3.95183, -0.36176l 3.95183, -0.447826l 3.95183, -0.54855l 3.95183, -0.664803l 3.95183, -0.797051l 3.95183, -0.945224l 3.95183, -1.10859l 3.95183, -1.28562l 3.95183, -1.47392l 3.95183, -1.67013l 3.95183, -1.8699l
 3.95183, -2.06794l 3.95183, -2.25807l 3.95183, -2.43343l 3.95183, -2.58664l 3.95183, -2.71014l 3.95183, -2.79648l 3.95183, -2.83875l 3.95183, -2.83092l 3.95183, -2.76828l 3.95183, -2.64774l 3.95183, -2.46815l 3.95183, -2.23053l 3.95183, -1.93812l
 3.95183, -1.59638l 1.97591, -0.656638l 1.97591, -0.556234l 1.97591, -0.452087l 1.97591, -0.344876l 1.97591, -0.235314l 1.97591, -0.124142l 1.97591, -0.0121192l 1.97591, 0.0999873l 1.97591, 0.211408l 1.97591, 0.321381l 1.97591, 0.429161l 1.97591,
 0.534029l 3.95183, 1.36762l 3.95183, 1.73577l 3.95183, 2.05897l 3.95183, 2.33043l 3.95183, 2.54557l 3.95183, 2.702l 3.95183, 2.7996l 3.95183, 2.84029l 3.95183, 2.82784l 3.95183, 2.76752l 3.95183, 2.66575l 3.95183, 2.52971l 3.95183, 2.36692l 3.95183,
 2.18491l 3.95183, 1.99089l 3.95183, 1.79149l 3.95183, 1.59253l 3.95183, 1.39896l 3.95183, 1.21473l 3.95183, 1.04282l 3.95183, 0.885275l 3.95183, 0.743297l 3.95183, 0.617343l 3.95183, 0.507258l 3.95183, 0.412402l 3.95183, 0.331778l 3.95183, 0.264149l
 3.95183, 0.208145l 3.95183, 0.162341l 3.95183, 0.125333l 3.95183, 0.095787l 3.95183, 0.072473l 3.95183, 0.0542872l 3.95183, 0.0402615l 3.95183, 0.0295647l 3.95183, 0.0214964l 3.95183, 0.0154769l 3.95183, 0.0358067h 35.5665" fill="none"
 stroke="#84c1a3" stroke-width="3" stroke-dasharray=" 3, 3"/>
<path d="M91.2954,345.89l 3.95183, -0.1206l 3.95183, -0.139767l 3.95183, -0.161362l 3.95183, -0.18558l 3.95183, -0.21261l 3.95183, -0.242634l 3.95183, -0.275819l 3.95183, -0.312316l 3.95183, -0.352248l 3.95183, -0.395709l 3.95183, -0.442756l 3.95183,
 -0.493403l 3.95183, -0.54761l 3.95183, -0.605285l 3.95183, -0.66627l 3.95183, -0.730337l 3.95183, -0.797186l 3.95183, -0.866439l 3.95183, -0.937637l 3.95183, -1.01024l 3.95183, -1.08362l 3.95183, -1.15708l 3.95183, -1.22984l 3.95183, -1.30105l
 3.95183, -1.36979l 3.95183, -1.43511l 3.95183, -1.49601l 3.95183, -1.55144l 3.95183, -1.60038l 3.95183, -1.64179l 3.95183, -1.67468l 3.95183, -1.69808l 3.95183, -1.71111l 3.95183, -1.71295l 3.95183, -1.70293l 3.95183, -1.68045l 3.95183, -1.64509l
 3.95183, -1.59659l 3.95183, -1.53483l 3.95183, -1.4599l 3.95183, -1.37205l 3.95183, -1.27173l 3.95183, -1.15959l 3.95183, -1.03645l 3.95183, -0.903291l 3.95183, -0.761276l 3.95183, -0.611703l 3.95183, -0.455997l 3.95183, -0.295683l 3.95183,
 -0.132366l 3.95183, 0.0322999l 3.95183, 0.196636l 3.95183, 0.358971l 3.95183, 0.517666l 3.95183, 0.671145l 3.95183, 0.817919l 3.95183, 0.956609l 3.95183, 1.08597l 3.95183, 1.20491l 3.95183, 1.3125l 3.95183, 1.408l 3.95183, 1.49083l 3.95183, 1.56062l
 3.95183, 1.61718l 3.95183, 1.66051l 3.95183, 1.69077l 3.95183, 1.70831l 3.95183, 1.71361l 3.95183, 1.70729l 3.95183, 1.6901l 3.95183, 1.66287l 3.95183, 1.62652l 3.95183, 1.58204l 3.95183, 1.53043l 3.95183, 1.47273l 3.95183, 1.40998l 3.95183, 1.3432l
 3.95183, 1.27338l 3.95183, 1.20146l 3.95183, 1.12833l 3.95183, 1.05481l 3.95183, 0.981651l 3.95183, 0.90953l 3.95183, 0.839034l 3.95183, 0.770673l 3.95183, 0.704874l 3.95183, 0.641984l 3.95183, 0.582273l 3.95183, 0.525942l 3.95183, 0.473122l
 3.95183, 0.423885l 3.95183, 0.378248l 3.95183, 0.336179l 3.95183, 0.297607l 3.95183, 0.262424l 3.95183, 0.230497l 3.95183, 0.201668l 3.95183, 0.175762l 3.95183, 0.152596l 3.95183, 0.131975" fill="none" stroke="#ddba87" stroke-width="3"
 stroke-dasharray=" 3, 3"/>
<path d="M91.2954,339.541l 3.95183, -0.21331l 3.95183, -0.23636l 3.95183, -0.262161l 3.95183, -0.290964l 3.95183, -0.323031l 3.95183, -0.358635l 3.95183, -0.398064l 3.95183, -0.441619l 3.95183, -0.489622l 3.95183, -0.542418l 3.95183, -0.600381l
 3.95183, -0.663921l 3.95183, -0.733496l 3.95183, -0.80962l 3.95183, -0.892874l 3.95183, -0.983913l 3.95183, -1.08348l 3.95183, -1.19241l 3.95183, -1.31162l 3.95183, -1.44213l 3.95183, -1.58502l 3.95183, -1.74143l 3.95183, -1.91252l 3.95183,
 -2.09945l 3.95183, -2.30332l 3.95183, -2.52517l 3.95183, -2.76594l 3.95183, -3.02654l 3.95183, -3.30797l 3.95183, -3.61158l 3.95183, -3.93962l 3.95183, -4.29629l 3.95183, -4.68967l 3.95183, -5.13551l 3.95183, -5.66515l 3.95183, -6.34352l 3.95183,
 -7.31563l 1.97591, -4.20184l 1.97591, -4.7495l 1.97591, -5.56268l 1.97591, -6.34738l 3.95183, -13.6058l 3.95183, -14.6518l 3.95183, -15.4112l 3.95183, -15.7729l 3.95183, -15.6357l 3.95183, -14.9211l 3.95183, -13.5854l 1.97591, -6.09661l 1.97591,
 -5.53287l 1.97591, -4.89993l 1.97591, -4.20412l 1.97591, -3.45318l 1.97591, -2.65618l 1.97591, -1.82326l 1.97591, -0.965448l 1.97591, -0.0943821l 1.97591, 0.777983l 1.97591, 1.63966l 1.97591, 2.47891l 1.97591, 3.28457l 1.97591, 4.04627l 1.97591,
 4.75469l 1.97591, 5.4018l 1.97591, 5.98095l 1.97591, 6.48702l 3.95183, 14.184l 3.95183, 15.2737l 3.95183, 15.7546l 3.95183, 15.6853l 3.95183, 15.1548l 3.95183, 14.2697l 3.95183, 13.1416l 3.95183, 11.8765l 3.95183, 10.5662l 3.95183, 9.28411l 3.95183,
 8.08284l 3.95183, 6.99535l 3.95183, 6.03747l 3.95183, 5.21161l 3.95183, 4.51074l 3.95183, 3.92205l 3.95183, 3.43002l 3.95183, 3.01871l 3.95183, 2.67327l 3.95183, 2.38071l 3.95183, 2.13029l 3.95183, 1.91342l 3.95183, 1.72344l 3.95183, 1.55527l
 3.95183, 1.40509l 3.95183, 1.27002l 3.95183, 1.14786l 3.95183, 1.03694l 3.95183, 0.935911l 3.95183, 0.843706l 3.95183, 0.759442l 3.95183, 0.682383l 3.95183, 0.611905l 3.95183, 0.54747l 3.95183, 0.488614l 3.95183, 0.434926l 3.95183, 0.386041l
 3.95183, 0.341627l 3.95183, 0.301378l 3.95183, 0.265011l 3.95183, 0.232253l 3.95183, 0.202849l 3.95183, 0.176549l 3.95183, 0.153115l 3.95183, 0.132315" fill="none" stroke="#ff0000" stroke-width="3"/>
<path d="M91.2954,342.121h -6.32293" fill="none" stroke="black"/>
<path d="M91.2954,342.121h 7.90366" fill="none" stroke="black"/>
<path d="M99.199,342.662v -1.08193" fill="none" stroke="black"/>
<path d="M91.2954,342.121v -1.77054" fill="none" stroke="black"/>
<path d="M90.7544,340.351h 1.08193" fill="none" stroke="black"/>
<path d="M91.2954,342.121v 1.77054" fill="none" stroke="black"/>
<path d="M90.7544,343.892h 1.08193" fill="none" stroke="black"/>
<path d="M107.103,337.474h -7.90366" fill="none" stroke="black"/>
<path d="M99.199,338.015v -1.08193" fill="none" stroke="black"/>
<path d="M107.103,337.474h 7.90366" fill="none" stroke="black"/>
<path d="M115.006,338.015v -1.08193" fill="none" stroke="black"/>
<path d="M107.103,337.474v -2.5808" fill="none" stroke="black"/>
<path d="M106.562,334.893h 1.08193" fill="none" stroke="black"/>
<path d="M107.103,337.474v 2.5808" fill="none" stroke="black"/>
<path d="M106.562,340.055h 1.08193" fill="none" stroke="black"/>
<path d="M122.91,337.022h -7.90366" fill="none" stroke="black"/>
<path d="M115.006,337.563v -1.08193" fill="none" stroke="black"/>
<path d="M122.91,337.022h 7.90366" fill="none" stroke="black"/>
<path d="M130.814,337.563v -1.08193" fill="none" stroke="black"/>
<path d="M122.91,337.022v -2.3064" fill="none" stroke="black"/>
<path d="M122.369,334.716h 1.08193" fill="none" stroke="black"/>
<path d="M122.91,337.022v 2.3064" fill="none" stroke="black"/>
<path d="M122.369,339.328h 1.08193" fill="none" stroke="black"/>
<path d="M138.717,334.425h -7.90366" fill="none" stroke="black"/>
<path d="M130.814,334.966v -1.08193" fill="none" stroke="black"/>
<path d="M138.717,334.425h 7.90366" fill="none" stroke="black"/>
<path d="M146.621,334.966v -1.08193" fill="none" stroke="black"/>
<path d="M138.717,334.425v -2.85342" fill="none" stroke="black"/>
<path d="M138.176,331.572h 1.08193" fill="none" stroke="black"/>
<path d="M138.717,334.425v 2.85342" fill="none" stroke="black"/>
<path d="M138.176,337.278h 1.08193" fill="none" stroke="black"/>
<path d="M154.525,335.405h -7.90366" fill="none" stroke="black"/>
<path d="M146.621,335.946v -1.08193" fill="none" stroke="black"/>
<path d="M154.525,335.405h 7.90366" fill="none" stroke="black"/>
<path d="M162.428,335.946v -1.08193" fill="none" stroke="black"/>
<path d="M154.525,335.405v -2.76013" fill="none" stroke="black"/>
<path d="M153.984,332.645h 1.08193" fill="none" stroke="black"/>
<path d="M154.525,335.405v 2.76013" fill="none" stroke="black"/>
<path d="M153.984,338.165h 1.08193" fill="none" stroke="black"/>
<path d="M170.332,327.392h -7.90366" fill="none" stroke="black"/>
<path d="M162.428,327.933v -1.08193" fill="none" stroke="black"/>
<path d="M170.332,327.392h 7.90366" fill="none" stroke="black"/>
<path d="M178.236,327.933v -1.08193" fill="none" stroke="black"/>
<path d="M170.332,327.392v -3.78886" fill="none" stroke="black"/>
<path d="M169.791,323.603h 1.08193" fill="none" stroke="black"/>
<path d="M170.332,327.392v 3.78886" fill="none" stroke="black"/>
<path d="M169.791,331.181h 1.08193" fill="none" stroke="black"/>
<path d="M186.139,324.445h -7.90366" fill="none" stroke="black"/>
<path d="M178.236,324.986v -1.08193" fill="none" stroke="black"/>
<path d="M186.139,324.445h 7.90366" fill="none" stroke="black"/>
<path d="M194.043,324.986v -1.08193" fill="none" stroke="black"/>
<path d="M186.139,324.445v -3.89086" fill="none" stroke="black"/>
<path d="M185.598,320.554h 1.08193" fill="none" stroke="black"/>
<path d="M186.139,324.445v 3.89086" fill="none" stroke="black"/>
<path d="M185.598,328.336h 1.08193" fill="none" stroke="black"/>
<path d="M201.947,308.473h -7.90366" fill="none" stroke="black"/>
<path d="M194.043,309.014v -1.08193" fill="none" stroke="black"/>
<path d="M201.947,308.473h 7.90366" fill="none" stroke="black"/>
<path d="M209.85,309.014v -1.08193" fill="none" stroke="black"/>
<path d="M201.947,308.473v -5.04371" fill="none" stroke="black"/>
<path d="M201.406,303.429h 1.08193" fill="none" stroke="black"/>
<path d="M201.947,308.473v 5.04371" fill="none" stroke="black"/>
<path d="M201.406,313.516h 1.08193" fill="none" stroke="black"/>
<path d="M217.754,291.28h -7.90366" fill="none" stroke="black"/>
<path d="M209.85,291.821v -1.08193" fill="none" stroke="black"/>
<path d="M217.754,291.28h 7.90366" fill="none" stroke="black"/>
<path d="M225.658,291.821v -1.08193" fill="none" stroke="black"/>
<path d="M217.754,291.28v -6.11023" fill="none" stroke="black"/>
<path d="M217.213,285.17h 1.08193" fill="none" stroke="black"/>
<path d="M217.754,291.28v 6.11023" fill="none" stroke="black"/>
<path d="M217.213,297.39h 1.08193" fill="none" stroke="black"/>
<path d="M233.561,264.62h -7.90366" fill="none" stroke="black"/>
<path d="M225.658,265.161v -1.08193" fill="none" stroke="black"/>
<path d="M233.561,264.62h 7.90366" fill="none" stroke="black"/>
<path d="M241.465,265.161v -1.08193" fill="none" stroke="black"/>
<path d="M233.561,264.62v -7.46133" fill="none" stroke="black"/>
<path d="M233.02,257.158h 1.08193" fill="none" stroke="black"/>
<path d="M233.561,264.62v 7.46133" fill="none" stroke="black"/>
<path d="M233.02,272.081h 1.08193" fill="none" stroke="black"/>
<path d="M249.369,215.945h -7.90366" fill="none" stroke="black"/>
<path d="M241.465,216.486v -1.08193" fill="none" stroke="black"/>
<path d="M249.369,215.945h 7.90366" fill="none" stroke="black"/>
<path d="M257.272,216.486v -1.08193" fill="none" stroke="black"/>
<path d="M249.369,215.945v -9.44087" fill="none" stroke="black"/>
<path d="M248.828,206.504h 1.08193" fill="none" stroke="black"/>
<path d="M249.369,215.945v 9.44087" fill="none" stroke="black"/>
<path d="M248.828,225.385h 1.08193" fill="none" stroke="black"/>
<path d="M265.176,163.448h -7.90366" fill="none" stroke="black"/>
<path d="M257.272,163.989v -1.08193" fill="none" stroke="black"/>
<path d="M265.176,163.448h 7.90366" fill="none" stroke="black"/>
<path d="M273.08,163.989v -1.08193" fill="none" stroke="black"/>
<path d="M265.176,163.448v -11.2598" fill="none" stroke="black"/>
<path d="M264.635,152.188h 1.08193" fill="none" stroke="black"/>
<path d="M265.176,163.448v 11.2598" fill="none" stroke="black"/>
<path d="M264.635,174.707h 1.08193" fill="none" stroke="black"/>
<path d="M280.983,142.858h -7.90366" fill="none" stroke="black"/>
<path d="M273.08,143.399v -1.08193" fill="none" stroke="black"/>
<path d="M280.983,142.858h 7.90366" fill="none" stroke="black"/>
<path d="M288.887,143.399v -1.08193" fill="none" stroke="black"/>
<path d="M280.983,142.858v -11.8266" fill="none" stroke="black"/>
<path d="M280.442,131.032h 1.08193" fill="none" stroke="black"/>
<path d="M280.983,142.858v 11.8266" fill="none" stroke="black"/>
<path d="M280.442,154.685h 1.08193" fill="none" stroke="black"/>
<path d="M296.79,116.854h -7.90366" fill="none" stroke="black"/>
<path d="M288.887,117.395v -1.08193" fill="none" stroke="black"/>
<path d="M296.79,116.854h 7.90366" fill="none" stroke="black"/>
<path d="M304.694,117.395v -1.08193" fill="none" stroke="black"/>
<path d="M296.79,116.854v -12.507" fill="none" stroke="black"/>
<path d="M296.25,104.347h 1.08193" fill="none" stroke="black"/>
<path d="M296.79,116.854v 12.507" fill="none" stroke="black"/>
<path d="M296.25,129.361h 1.08193" fill="none" stroke="black"/>
<path d="M312.598,161.694h -7.90366" fill="none" stroke="black"/>
<path d="M304.694,162.235v -1.08193" fill="none" stroke="black"/>
<path d="M312.598,161.694h 7.90366" fill="none" stroke="black"/>
<path d="M320.501,162.235v -1.08193" fill="none" stroke="black"/>
<path d="M312.598,161.694v -11.2356" fill="none" stroke="black"/>
<path d="M312.057,150.459h 1.08193" fill="none" stroke="black"/>
<path d="M312.598,161.694v 11.2356" fill="none" stroke="black"/>
<path d="M312.057,172.93h 1.08193" fill="none" stroke="black"/>
<path d="M328.405,214.86h -7.90366" fill="none" stroke="black"/>
<path d="M320.501,215.401v -1.08193" fill="none" stroke="black"/>
<path d="M328.405,214.86h 7.90366" fill="none" stroke="black"/>
<path d="M336.309,215.401v -1.08193" fill="none" stroke="black"/>
<path d="M328.405,214.86v -9.41912" fill="none" stroke="black"/>
<path d="M327.864,205.441h 1.08193" fill="none" stroke="black"/>
<path d="M328.405,214.86v 9.41912" fill="none" stroke="black"/>
<path d="M327.864,224.279h 1.08193" fill="none" stroke="black"/>
<path d="M344.212,256.738h -7.90366" fill="none" stroke="black"/>
<path d="M336.309,257.279v -1.08193" fill="none" stroke="black"/>
<path d="M344.212,256.738h 7.90366" fill="none" stroke="black"/>
<path d="M352.116,257.279v -1.08193" fill="none" stroke="black"/>
<path d="M344.212,256.738v -7.97487" fill="none" stroke="black"/>
<path d="M343.672,248.763h 1.08193" fill="none" stroke="black"/>
<path d="M344.212,256.738v 7.97487" fill="none" stroke="black"/>
<path d="M343.672,264.713h 1.08193" fill="none" stroke="black"/>
<path d="M360.02,307.12h -7.90366" fill="none" stroke="black"/>
<path d="M352.116,307.661v -1.08193" fill="none" stroke="black"/>
<path d="M360.02,307.12h 7.90366" fill="none" stroke="black"/>
<path d="M367.923,307.661v -1.08193" fill="none" stroke="black"/>
<path d="M360.02,307.12v -4.9824" fill="none" stroke="black"/>
<path d="M359.479,302.138h 1.08193" fill="none" stroke="black"/>
<path d="M360.02,307.12v 4.9824" fill="none" stroke="black"/>
<path d="M359.479,312.103h 1.08193" fill="none" stroke="black"/>
<path d="M375.827,323.46h -7.90366" fill="none" stroke="black"/>
<path d="M367.923,324.001v -1.08193" fill="none" stroke="black"/>
<path d="M375.827,323.46h 7.90366" fill="none" stroke="black"/>
<path d="M383.731,324.001v -1.08193" fill="none" stroke="black"/>
<path d="M375.827,323.46v -4.00066" fill="none" stroke="black"/>
<path d="M375.286,319.46h 1.08193" fill="none" stroke="black"/>
<path d="M375.827,323.46v 4.00066" fill="none" stroke="black"/>
<path d="M375.286,327.461h 1.08193" fill="none" stroke="black"/>
<path d="M391.634,331.675h -7.90366" fill="none" stroke="black"/>
<path d="M383.731,332.216v -1.08193" fill="none" stroke="black"/>
<path d="M391.634,331.675h 7.90366" fill="none" stroke="black"/>
<path d="M399.538,332.216v -1.08193" fill="none" stroke="black"/>
<path d="M391.634,331.675v -3.04725" fill="none" stroke="black"/>
<path d="M391.093,328.628h 1.08193" fill="none" stroke="black"/>
<path d="M391.634,331.675v 3.04725" fill="none" stroke="black"/>
<path d="M391.093,334.722h 1.08193" fill="none" stroke="black"/>
<path d="M407.442,330.008h -7.90366" fill="none" stroke="black"/>
<path d="M399.538,330.549v -1.08193" fill="none" stroke="black"/>
<path d="M407.442,330.008h 7.90366" fill="none" stroke="black"/>
<path d="M415.345,330.549v -1.08193" fill="none" stroke="black"/>
<path d="M407.442,330.008v -3.30741" fill="none" stroke="black"/>
<path d="M406.901,326.7h 1.08193" fill="none" stroke="black"/>
<path d="M407.442,330.008v 3.30741" fill="none" stroke="black"/>
<path d="M406.901,333.315h 1.08193" fill="none" stroke="black"/>
<path d="M423.249,340.574h -7.90366" fill="none" stroke="black"/>
<path d="M415.345,341.115v -1.08193" fill="none" stroke="black"/>
<path d="M423.249,340.574h 7.90366" fill="none" stroke="black"/>
<path d="M431.153,341.115v -1.08193" fill="none" stroke="black"/>
<path d="M423.249,340.574v -1.90906" fill="none" stroke="black"/>
<path d="M422.708,338.665h 1.08193" fill="none" stroke="black"/>
<path d="M423.249,340.574v 1.90906" fill="none" stroke="black"/>
<path d="M422.708,342.483h 1.08193" fill="none" stroke="black"/>
<path d="M439.056,343.48h -7.90366" fill="none" stroke="black"/>
<path d="M431.153,344.021v -1.08193" fill="none" stroke="black"/>
<path d="M439.056,343.48h 7.90366" fill="none" stroke="black"/>
<path d="M446.96,344.021v -1.08193" fill="none" stroke="black"/>
<path d="M439.056,343.48v -1.29387" fill="none" stroke="black"/>
<path d="M438.515,342.186h 1.08193" fill="none" stroke="black"/>
<path d="M439.056,343.48v 1.29387" fill="none" stroke="black"/>
<path d="M438.515,344.774h 1.08193" fill="none" stroke="black"/>
<path d="M454.864,341.043h -7.90366" fill="none" stroke="black"/>
<path d="M446.96,341.584v -1.08193" fill="none" stroke="black"/>
<path d="M454.864,341.043h 7.90366" fill="none" stroke="black"/>
<path d="M462.767,341.584v -1.08193" fill="none" stroke="black"/>
<path d="M454.864,341.043v -1.96857" fill="none" stroke="black"/>
<path d="M454.323,339.075h 1.08193" fill="none" stroke="black"/>
<path d="M454.864,341.043v 1.96857" fill="none" stroke="black"/>
<path d="M454.323,343.012h 1.08193" fill="none" stroke="black"/>
<path d="M470.671,344.255h -7.90366" fill="none" stroke="black"/>
<path d="M462.767,344.796v -1.08193" fill="none" stroke="black"/>
<path d="M470.671,344.255h 7.90366" fill="none" stroke="black"/>
<path d="M478.575,344.796v -1.08193" fill="none" stroke="black"/>
<path d="M470.671,344.255v -1.2454" fill="none" stroke="black"/>
<path d="M470.13,343.009h 1.08193" fill="none" stroke="black"/>
<path d="M470.671,344.255v 1.2454" fill="none" stroke="black"/>
<path d="M470.13,345.5h 1.08193" fill="none" stroke="black"/>
<path d="M486.478,346.543h -7.90366" fill="none" stroke="black"/>
<path d="M478.575,346.543v -0.540963" fill="none" stroke="black"/>
<path d="M486.478,346.543h 1.58073" fill="none" stroke="black"/>
<g stroke="black" stroke-width="1" fill="black">
<circle cx="91.2954" cy="342.121" r="2.16385"/>
<circle cx="107.103" cy="337.474" r="2.16385"/>
<circle cx="122.91" cy="337.022" r="2.16385"/>
<circle cx="138.717" cy="334.425" r="2.16385"/>
<circle cx="154.525" cy="335.405" r="2.16385"/>
<circle cx="170.332" cy="327.392" r="2.16385"/>
<circle cx="186.139" cy="324.445" r="2.16385"/>
<circle cx="201.947" cy="308.473" r="2.16385"/>
<circle cx="217.754" cy="291.28" r="2.16385"/>
<circle cx="233.561" cy="264.62" r="2.16385"/>
<circle cx="249.369" cy="215.945" r="2.16385"/>
<circle cx="265.176" cy="163.448" r="2.16385"/>
<circle cx="280.983" cy="142.858" r="2.16385"/>
<circle cx="296.79" cy="116.854" r="2.16385"/>
<circle cx="312.598" cy="161.694" r="2.16385"/>
<circle cx="328.405" cy="214.86" r="2.16385"/>
<circle cx="344.212" cy="256.738" r="2.16385"/>
<circle cx="360.02" cy="307.12" r="2.16385"/>
<circle cx="375.827" cy="323.46" r="2.16385"/>
<circle cx="391.634" cy="331.675" r="2.16385"/>
<circle cx="407.442" cy="330.008" r="2.16385"/>
<circle cx="423.249" cy="340.574" r="2.16385"/>
<circle cx="439.056" cy="343.48" r="2.16385"/>
<circle cx="454.864" cy="341.043" r="2.16385"/>
<circle cx="470.671" cy="344.255" r="2.16385"/>
<circle cx="486.478" cy="346.543" r="2.16385"/>
</g>
<text xml:space="preserve" x="168.739" y="132.265" fill="black" font-size="9.78783" font-family="Helvetica" font-weight="bold"> 2.40 (GeV)</text>
<text xml:space="preserve" x="163.6" y="132.265" fill="black" font-size="9.78783" font-family="Times">&#0177;</text>
<text xml:space="preserve" x="119.512" y="132.265" fill="black" font-size="9.78783" font-family="Helvetica" font-weight="bold">: 2003.04 </text>
<text xml:space="preserve" x="110.586" y="137.134" fill="black" font-size="6.69188" font-family="Helvetica" font-weight="bold">CB</text>
<text xml:space="preserve" x="105.176" y="132.265" fill="black" font-size="9.78783" font-family="Times">&#0956;</text>
<text xml:space="preserve" x="157.109" y="147.953" fill="black" font-size="9.78783" font-family="Helvetica" font-weight="bold"> 0.78 (GeV)</text>
<text xml:space="preserve" x="151.97" y="147.953" fill="black" font-size="9.78783" font-family="Times">&#0177;</text>
<text xml:space="preserve" x="119.782" y="147.953" fill="black" font-size="9.78783" font-family="Helvetica" font-weight="bold">: 69.51 </text>
<text xml:space="preserve" x="110.856" y="150.929" fill="black" font-size="6.69188" font-family="Helvetica" font-weight="bold">CB</text>
<text xml:space="preserve" x="105.176" y="147.953" fill="black" font-size="9.78783" font-family="Times">&#0963;</text>
<text xml:space="preserve" x="153.592" y="163.371" fill="black" font-size="9.78783" font-family="Helvetica" font-weight="bold"> 0.13</text>
<text xml:space="preserve" x="148.453" y="163.371" fill="black" font-size="9.78783" font-family="Times">&#0177;</text>
<text xml:space="preserve" x="120.053" y="163.371" fill="black" font-size="9.78783" font-family="Helvetica" font-weight="bold">: 1.69 </text>
<text xml:space="preserve" x="111.127" y="166.346" fill="black" font-size="6.69188" font-family="Helvetica" font-weight="bold">CB</text>
<text xml:space="preserve" x="105.176" y="163.371" fill="black" font-size="9.78783" font-family="Times">&#0945;</text>
<text xml:space="preserve" x="153.052" y="179.059" fill="black" font-size="9.78783" font-family="Helvetica" font-weight="bold"> 0.20</text>
<text xml:space="preserve" x="147.912" y="179.059" fill="black" font-size="9.78783" font-family="Times">&#0177;</text>
<text xml:space="preserve" x="119.512" y="179.059" fill="black" font-size="9.78783" font-family="Helvetica" font-weight="bold">: 0.58 </text>
<text xml:space="preserve" x="110.586" y="181.764" fill="black" font-size="6.69188" font-family="Helvetica" font-weight="bold">CB</text>
<text xml:space="preserve" x="105.176" y="179.059" fill="black" font-size="9.78783" font-family="Helvetica" font-weight="bold">n</text>
<text xml:space="preserve" x="173.067" y="194.476" fill="black" font-size="9.78783" font-family="Helvetica" font-weight="bold"> 8.43 (GeV)</text>
<text xml:space="preserve" x="167.928" y="194.476" fill="black" font-size="9.78783" font-family="Times">&#0177;</text>
<text xml:space="preserve" x="128.979" y="194.476" fill="black" font-size="9.78783" font-family="Helvetica" font-weight="bold">: 104.45 </text>
<text xml:space="preserve" x="110.856" y="197.451" fill="black" font-size="6.69188" font-family="Helvetica" font-weight="bold">Gaus1</text>
<text xml:space="preserve" x="105.176" y="194.476" fill="black" font-size="9.78783" font-family="Times">&#0963;</text>
<text xml:space="preserve" x="173.879" y="210.164" fill="black" font-size="9.78783" font-family="Helvetica" font-weight="bold"> 7.75 (GeV)</text>
<text xml:space="preserve" x="168.739" y="210.164" fill="black" font-size="9.78783" font-family="Times">&#0177;</text>
<text xml:space="preserve" x="129.79" y="210.164" fill="black" font-size="9.78783" font-family="Helvetica" font-weight="bold">: 171.39 </text>
<text xml:space="preserve" x="110.856" y="213.139" fill="black" font-size="6.69188" font-family="Helvetica" font-weight="bold">Gaus2</text>
<text xml:space="preserve" x="105.176" y="210.164" fill="black" font-size="9.78783" font-family="Times">&#0963;</text>
<text xml:space="preserve" x="159.814" y="225.582" fill="black" font-size="9.78783" font-family="Helvetica" font-weight="bold"> 0.02</text>
<text xml:space="preserve" x="154.674" y="225.582" fill="black" font-size="9.78783" font-family="Times">&#0177;</text>
<text xml:space="preserve" x="105.176" y="225.582" fill="black" font-size="9.78783" font-family="Helvetica" font-weight="bold">frac1: 0.71 </text>
<text xml:space="preserve" x="161.436" y="241.269" fill="black" font-size="9.78783" font-family="Helvetica" font-weight="bold"> 0.04</text>
<text xml:space="preserve" x="156.297" y="241.269" fill="black" font-size="9.78783" font-family="Times">&#0177;</text>
<text xml:space="preserve" x="105.176" y="241.269" fill="black" font-size="9.78783" font-family="Helvetica" font-weight="bold">frac2: 0.68 </text>
<path d="M84.9724,346.543h 403.087" fill="none" stroke="black"/>
<path d="M130.814,337.315v 9.22817" fill="none" stroke="black"/>
<path d="M150.573,341.929v 4.61409" fill="none" stroke="black"/>
<path d="M170.332,341.929v 4.61409" fill="none" stroke="black"/>
<path d="M190.091,341.929v 4.61409" fill="none" stroke="black"/>
<path d="M209.85,337.315v 9.22817" fill="none" stroke="black"/>
<path d="M229.609,341.929v 4.61409" fill="none" stroke="black"/>
<path d="M249.369,341.929v 4.61409" fill="none" stroke="black"/>
<path d="M269.128,341.929v 4.61409" fill="none" stroke="black"/>
<path d="M288.887,337.315v 9.22817" fill="none" stroke="black"/>
<path d="M308.646,341.929v 4.61409" fill="none" stroke="black"/>
<path d="M328.405,341.929v 4.61409" fill="none" stroke="black"/>
<path d="M348.164,341.929v 4.61409" fill="none" stroke="black"/>
<path d="M367.923,337.315v 9.22817" fill="none" stroke="black"/>
<path d="M387.683,341.929v 4.61409" fill="none" stroke="black"/>
<path d="M407.442,341.929v 4.61409" fill="none" stroke="black"/>
<path d="M427.201,341.929v 4.61409" fill="none" stroke="black"/>
<path d="M446.96,337.315v 9.22817" fill="none" stroke="black"/>
<path d="M130.814,337.315v 9.22817" fill="none" stroke="black"/>
<path d="M111.055,341.929v 4.61409" fill="none" stroke="black"/>
<path d="M91.2954,341.929v 4.61409" fill="none" stroke="black"/>
<path d="M446.96,337.315v 9.22817" fill="none" stroke="black"/>
<path d="M466.719,341.929v 4.61409" fill="none" stroke="black"/>
<path d="M486.478,341.929v 4.61409" fill="none" stroke="black"/>
<path d="M84.9724,346.543v -307.606" fill="none" stroke="black"/>
<path d="M97.065,346.543h -12.0926" fill="none" stroke="black"/>
<path d="M91.0187,340.391h -6.0463" fill="none" stroke="black"/>
<path d="M91.0187,334.239h -6.0463" fill="none" stroke="black"/>
<path d="M91.0187,328.087h -6.0463" fill="none" stroke="black"/>
<path d="M91.0187,321.935h -6.0463" fill="none" stroke="black"/>
<path d="M97.065,315.783h -12.0926" fill="none" stroke="black"/>
<path d="M91.0187,309.63h -6.0463" fill="none" stroke="black"/>
<path d="M91.0187,303.478h -6.0463" fill="none" stroke="black"/>
<path d="M91.0187,297.326h -6.0463" fill="none" stroke="black"/>
<path d="M91.0187,291.174h -6.0463" fill="none" stroke="black"/>
<path d="M97.065,285.022h -12.0926" fill="none" stroke="black"/>
<path d="M91.0187,278.87h -6.0463" fill="none" stroke="black"/>
<path d="M91.0187,272.718h -6.0463" fill="none" stroke="black"/>
<path d="M91.0187,266.566h -6.0463" fill="none" stroke="black"/>
<path d="M91.0187,260.414h -6.0463" fill="none" stroke="black"/>
<path d="M97.065,254.261h -12.0926" fill="none" stroke="black"/>
<path d="M91.0187,248.109h -6.0463" fill="none" stroke="black"/>
<path d="M91.0187,241.957h -6.0463" fill="none" stroke="black"/>
<path d="M91.0187,235.805h -6.0463" fill="none" stroke="black"/>
<path d="M91.0187,229.653h -6.0463" fill="none" stroke="black"/>
<path d="M97.065,223.501h -12.0926" fill="none" stroke="black"/>
<path d="M91.0187,217.349h -6.0463" fill="none" stroke="black"/>
<path d="M91.0187,211.197h -6.0463" fill="none" stroke="black"/>
<path d="M91.0187,205.044h -6.0463" fill="none" stroke="black"/>
<path d="M91.0187,198.892h -6.0463" fill="none" stroke="black"/>
<path d="M97.065,192.74h -12.0926" fill="none" stroke="black"/>
<path d="M91.0187,186.588h -6.0463" fill="none" stroke="black"/>
<path d="M91.0187,180.436h -6.0463" fill="none" stroke="black"/>
<path d="M91.0187,174.284h -6.0463" fill="none" stroke="black"/>
<path d="M91.0187,168.132h -6.0463" fill="none" stroke="black"/>
<path d="M97.065,161.98h -12.0926" fill="none" stroke="black"/>
<path d="M91.0187,155.828h -6.0463" fill="none" stroke="black"/>
<path d="M91.0187,149.675h -6.0463" fill="none" stroke="black"/>
<path d="M91.0187,143.523h -6.0463" fill="none" stroke="black"/>
<path d="M91.0187,137.371h -6.0463" fill="none" stroke="black"/>
<path d="M97.065,131.219h -12.0926" fill="none" stroke="black"/>
<path d="M91.0187,125.067h -6.0463" fill="none" stroke="black"/>
<path d="M91.0187,118.915h -6.0463" fill="none" stroke="black"/>
<path d="M91.0187,112.763h -6.0463" fill="none" stroke="black"/>
<path d="M91.0187,106.611h -6.0463" fill="none" stroke="black"/>
<path d="M97.065,100.459h -12.0926" fill="none" stroke="black"/>
<path d="M91.0187,94.3064h -6.0463" fill="none" stroke="black"/>
<path d="M91.0187,88.1543h -6.0463" fill="none" stroke="black"/>
<path d="M91.0187,82.0022h -6.0463" fill="none" stroke="black"/>
<path d="M91.0187,75.8501h -6.0463" fill="none" stroke="black"/>
<path d="M97.065,69.698h -12.0926" fill="none" stroke="black"/>
<path d="M91.0187,63.5459h -6.0463" fill="none" stroke="black"/>
<path d="M91.0187,57.3938h -6.0463" fill="none" stroke="black"/>
<path d="M91.0187,51.2417h -6.0463" fill="none" stroke="black"/>
<path d="M91.0187,45.0895h -6.0463" fill="none" stroke="black"/>
<path d="M97.065,38.9374h -12.0926" fill="none" stroke="black"/>
<text xml:space="preserve" x="403.517" y="32.9987" fill="black" font-size="13.0028" font-family="Helvetica"> (13 TeV) 2017</text>
<text xml:space="preserve" x="397.567" y="27.3186" fill="black" font-size="8.83523" font-family="Helvetica">-1</text>
<text xml:space="preserve" x="351.855" y="32.9987" fill="black" font-size="13.0028" font-family="Helvetica">41.53 fb</text>
<text xml:space="preserve" x="103.111" y="66.2787" fill="black" font-size="16.5751" font-family="Helvetica" font-weight="bold">CMS</text>
<text xml:space="preserve" x="103.012" y="80.0625" fill="black" font-size="12.7171" font-family="Helvetica" font-style="oblique">Simulation</text>
<rect x="334.988" y="46.7249" width="142.866" height="50.6187" fill="white"/>
<path d="M334.988,97.3436h 142.866" fill="none" stroke="black"/>
<path d="M477.854,97.3436v -50.6187" fill="none" stroke="black"/>
<path d="M477.854,46.7249h -142.866" fill="none" stroke="black"/>
<path d="M334.988,46.7249v 50.6187" fill="none" stroke="black"/>
<text xml:space="preserve" x="370.519" y="58.6945" fill="black" font-size="11.2167" font-family="Helvetica">2017 Signal MC</text>
<path d="M340.346,55.1614h 25.0016" fill="none" stroke="black"/>
<path d="M352.846,52.9975v -2.89801" fill="none" stroke="black"/>
<path d="M352.846,57.3252v 2.89801" fill="none" stroke="black"/>
<path d="M350.971,50.0995h 3.75024" fill="none" stroke="black"/>
<path d="M350.971,60.2232h 3.75024" fill="none" stroke="black"/>
<g stroke="black" stroke-width="1" fill="black">
<circle cx="352.846" cy="55.1614" r="2.16385"/>
</g>
<text xml:space="preserve" x="370.519" y="75.7348" fill="black" font-size="11.2167" font-family="Helvetica">Signal fit CB2Gaus</text>
<path d="M340.346,72.0342h 25.0016" fill="none" stroke="#ff0000" stroke-width="3"/>
<text xml:space="preserve" x="420.287" y="92.5047" fill="black" font-size="11.2167" font-family="Times">&#0963;</text>
<text xml:space="preserve" x="370.519" y="92.5047" fill="black" font-size="11.2167" font-family="Helvetica">Fit Error 1 </text>
<path d="M340.346,94.8126h 25.0016v -11.811h -25.0016z" fill="#00ff00"/>
<path d="M340.346,83.0016h 25.0016" fill="none" stroke="white"/>
<path d="M340.346,94.8126h 25.0016" fill="none" stroke="white"/>
<path d="M365.347,94.8126v -11.811" fill="none" stroke="white"/>
<path d="M340.346,94.8126v -11.811" fill="none" stroke="white"/>
<rect x="28.8465" y="365.372" width="510.236" height="114.679" fill="white"/>
<rect x="84.9724" y="388.307" width="403.087" height="63.0733" fill="white"/>
<rect x="84.9724" y="388.307" width="403.087" height="63.0733" fill="none" stroke="black"/>
<rect x="84.9724" y="388.307" width="403.087" height="63.0733" fill="white"/>
<rect x="84.9724" y="388.307" width="403.087" height="63.0733" fill="none" stroke="black"/>
<path d="M84.9724,451.381h 403.087" fill="none" stroke="black"/>
<path d="M130.814,388.307v 63.0733" fill="none" stroke="black" stroke-dasharray=" 1, 2"/>
<path d="M209.85,388.307v 63.0733" fill="none" stroke="black" stroke-dasharray=" 1, 2"/>
<path d="M288.887,388.307v 63.0733" fill="none" stroke="black" stroke-dasharray=" 1, 2"/>
<path d="M367.923,388.307v 63.0733" fill="none" stroke="black" stroke-dasharray=" 1, 2"/>
<path d="M446.96,388.307v 63.0733" fill="none" stroke="black" stroke-dasharray=" 1, 2"/>
<path d="M130.814,388.307v 63.0733" fill="none" stroke="black" stroke-dasharray=" 1, 2"/>
<path d="M446.96,388.307v 63.0733" fill="none" stroke="black" stroke-dasharray=" 1, 2"/>
<path d="M84.9724,451.381v -63.0733" fill="none" stroke="black"/>
<path d="M488.059,445.073h -403.087" fill="none" stroke="black" stroke-dasharray=" 1, 2"/>
<path d="M488.059,432.459h -403.087" fill="none" stroke="black" stroke-dasharray=" 1, 2"/>
<path d="M488.059,419.844h -403.087" fill="none" stroke="black" stroke-dasharray=" 1, 2"/>
<path d="M488.059,407.229h -403.087" fill="none" stroke="black" stroke-dasharray=" 1, 2"/>
<path d="M488.059,394.615h -403.087" fill="none" stroke="black" stroke-dasharray=" 1, 2"/>
<path d="M488.059,445.073h -403.087" fill="none" stroke="black" stroke-dasharray=" 1, 2"/>
<path d="M488.059,394.615h -403.087" fill="none" stroke="black" stroke-dasharray=" 1, 2"/>
<path d="M84.9724,451.381h 403.087" fill="none" stroke="black"/>
<path d="M130.814,448.663v 2.71789" fill="none" stroke="black"/>
<path d="M150.573,450.022v 1.35894" fill="none" stroke="black"/>
<path d="M170.332,450.022v 1.35894" fill="none" stroke="black"/>
<path d="M190.091,450.022v 1.35894" fill="none" stroke="black"/>
<path d="M209.85,448.663v 2.71789" fill="none" stroke="black"/>
<path d="M229.609,450.022v 1.35894" fill="none" stroke="black"/>
<path d="M249.369,450.022v 1.35894" fill="none" stroke="black"/>
<path d="M269.128,450.022v 1.35894" fill="none" stroke="black"/>
<path d="M288.887,448.663v 2.71789" fill="none" stroke="black"/>
<path d="M308.646,450.022v 1.35894" fill="none" stroke="black"/>
<path d="M328.405,450.022v 1.35894" fill="none" stroke="black"/>
<path d="M348.164,450.022v 1.35894" fill="none" stroke="black"/>
<path d="M367.923,448.663v 2.71789" fill="none" stroke="black"/>
<path d="M387.683,450.022v 1.35894" fill="none" stroke="black"/>
<path d="M407.442,450.022v 1.35894" fill="none" stroke="black"/>
<path d="M427.201,450.022v 1.35894" fill="none" stroke="black"/>
<path d="M446.96,448.663v 2.71789" fill="none" stroke="black"/>
<path d="M130.814,448.663v 2.71789" fill="none" stroke="black"/>
<path d="M111.055,450.022v 1.35894" fill="none" stroke="black"/>
<path d="M91.2954,450.022v 1.35894" fill="none" stroke="black"/>
<path d="M446.96,448.663v 2.71789" fill="none" stroke="black"/>
<path d="M466.719,450.022v 1.35894" fill="none" stroke="black"/>
<path d="M486.478,450.022v 1.35894" fill="none" stroke="black"/>
<text xml:space="preserve" x="116.537" y="462.794" fill="black" font-size="13.1252" font-family="Helvetica">1600</text>
<text xml:space="preserve" x="195.517" y="462.794" fill="black" font-size="13.1252" font-family="Helvetica">1800</text>
<text xml:space="preserve" x="274.768" y="462.794" fill="black" font-size="13.1252" font-family="Helvetica">2000</text>
<text xml:space="preserve" x="353.749" y="462.794" fill="black" font-size="13.1252" font-family="Helvetica">2200</text>
<text xml:space="preserve" x="432.729" y="462.794" fill="black" font-size="13.1252" font-family="Helvetica">2400</text>
<text xml:space="preserve" x="451.393" y="475.236" fill="black" font-size="13.1252" font-family="Helvetica"> (GeV)</text>
<text xml:space="preserve" x="447.065" y="479.023" fill="black" font-size="8.91679" font-family="Times">&#0947;</text>
<text xml:space="preserve" x="445.172" y="479.023" fill="black" font-size="8.91679" font-family="Helvetica">j</text>
<text xml:space="preserve" x="435.434" y="475.236" fill="black" font-size="13.1252" font-family="Helvetica">M</text>
<path d="M84.9724,451.381v -63.0733" fill="none" stroke="black"/>
<path d="M93.3913,445.073h -8.4189" fill="none" stroke="black"/>
<path d="M93.3913,432.459h -8.4189" fill="none" stroke="black"/>
<path d="M93.3913,419.844h -8.4189" fill="none" stroke="black"/>
<path d="M93.3913,407.229h -8.4189" fill="none" stroke="black"/>
<path d="M93.3913,394.615h -8.4189" fill="none" stroke="black"/>
<path d="M93.3913,445.073h -8.4189" fill="none" stroke="black"/>
<path d="M93.3913,394.615h -8.4189" fill="none" stroke="black"/>
<text xml:space="preserve" x="75.4234" y="449.811" fill="black" font-size="13.1252" font-family="Helvetica">4</text>
<text xml:space="preserve" x="68.3908" y="449.811" fill="black" font-size="13.1252" font-family="Times">&#8722;</text>
<text xml:space="preserve" x="75.4234" y="437.098" fill="black" font-size="13.1252" font-family="Helvetica">2</text>
<text xml:space="preserve" x="68.3908" y="437.098" fill="black" font-size="13.1252" font-family="Times">&#8722;</text>
<text xml:space="preserve" x="75.6938" y="424.385" fill="black" font-size="13.1252" font-family="Helvetica">0</text>
<text xml:space="preserve" x="75.4234" y="411.943" fill="black" font-size="13.1252" font-family="Helvetica">2</text>
<text xml:space="preserve" x="75.4234" y="399.231" fill="black" font-size="13.1252" font-family="Helvetica">4</text>
<g transform="rotate(-90,57.5716,408.156)">
<text xml:space="preserve" x="57.5716" y="408.156" fill="black" font-size="8.91679" font-family="Helvetica">stat</text>
</g>
<g transform="rotate(-90,53.7848,415.73)">
<text xml:space="preserve" x="53.7848" y="415.73" fill="black" font-size="13.1252" font-family="Times">&#0963;</text>
</g>
<g transform="rotate(-90,43.2361,421.951)">
<text xml:space="preserve" x="43.2361" y="421.951" fill="black" font-size="13.1252" font-family="Helvetica">MC-fit</text>
</g>
<path d="M45.3999,421.951v -33.8102" fill="none" stroke="black" stroke-width="2"/>
<rect x="84.9724" y="419.844" width="14.1506" height="9.19228" fill="#3399ff" fill-opacity="0.70" stroke-opacity="0.70"/>
<rect x="99.275" y="417.243" width="15.6553" height="2.60147" fill="#3399ff" fill-opacity="0.70" stroke-opacity="0.70"/>
<rect x="115.082" y="419.844" width="15.6553" height="0.0140503" fill="#3399ff" fill-opacity="0.70" stroke-opacity="0.70"/>
<rect x="130.89" y="419.191" width="15.6553" height="0.653298" fill="#3399ff" fill-opacity="0.70" stroke-opacity="0.70"/>
<rect x="146.697" y="419.844" width="15.6553" height="9.37824" fill="#3399ff" fill-opacity="0.70" stroke-opacity="0.70"/>
<rect x="162.504" y="419.844" width="15.6553" height="1.86621" fill="#3399ff" fill-opacity="0.70" stroke-opacity="0.70"/>
<rect x="178.312" y="419.844" width="15.6553" height="8.93556" fill="#3399ff" fill-opacity="0.70" stroke-opacity="0.70"/>
<rect x="194.119" y="419.844" width="15.6553" height="0.201224" fill="#3399ff" fill-opacity="0.70" stroke-opacity="0.70"/>
<rect x="209.926" y="417.907" width="15.6553" height="1.93684" fill="#3399ff" fill-opacity="0.70" stroke-opacity="0.70"/>
<rect x="225.734" y="414.178" width="15.6553" height="5.66598" fill="#3399ff" fill-opacity="0.70" stroke-opacity="0.70"/>
<rect x="241.541" y="410.762" width="15.6553" height="9.08265" fill="#3399ff" fill-opacity="0.70" stroke-opacity="0.70"/>
<rect x="257.348" y="417.256" width="15.6553" height="2.58818" fill="#3399ff" fill-opacity="0.70" stroke-opacity="0.70"/>
<rect x="273.156" y="419.844" width="15.6553" height="12.8158" fill="#3399ff" fill-opacity="0.70" stroke-opacity="0.70"/>
<rect x="288.963" y="419.844" width="15.6553" height="1.06995" fill="#3399ff" fill-opacity="0.70" stroke-opacity="0.70"/>
<rect x="304.77" y="419.844" width="15.6553" height="1.58457" fill="#3399ff" fill-opacity="0.70" stroke-opacity="0.70"/>
<rect x="320.577" y="415.907" width="15.6553" height="3.93744" fill="#3399ff" fill-opacity="0.70" stroke-opacity="0.70"/>
<rect x="336.385" y="408.886" width="15.6553" height="10.9586" fill="#3399ff" fill-opacity="0.70" stroke-opacity="0.70"/>
<rect x="352.192" y="419.844" width="15.6553" height="7.75598" fill="#3399ff" fill-opacity="0.70" stroke-opacity="0.70"/>
<rect x="367.999" y="419.844" width="15.6553" height="8.50119" fill="#3399ff" fill-opacity="0.70" stroke-opacity="0.70"/>
<rect x="383.807" y="419.844" width="15.6553" height="7.04601" fill="#3399ff" fill-opacity="0.70" stroke-opacity="0.70"/>
<rect x="399.614" y="410.575" width="15.6553" height="9.26893" fill="#3399ff" fill-opacity="0.70" stroke-opacity="0.70"/>
<rect x="415.421" y="419.844" width="15.6553" height="4.34551" fill="#3399ff" fill-opacity="0.70" stroke-opacity="0.70"/>
<rect x="431.229" y="419.844" width="15.6553" height="6.45093" fill="#3399ff" fill-opacity="0.70" stroke-opacity="0.70"/>
<rect x="447.036" y="410.328" width="15.6553" height="9.51599" fill="#3399ff" fill-opacity="0.70" stroke-opacity="0.70"/>
<rect x="462.843" y="415.29" width="15.6553" height="4.55371" fill="#3399ff" fill-opacity="0.70" stroke-opacity="0.70"/>
<rect x="478.651" y="419.844" width="9.40839" height="0" fill="#3399ff" fill-opacity="0.70" stroke-opacity="0.70"/>
<path d="M84.9724,451.381h 403.087" fill="none" stroke="black"/>
<path d="M130.814,448.663v 2.71789" fill="none" stroke="black"/>
<path d="M150.573,450.022v 1.35894" fill="none" stroke="black"/>
<path d="M170.332,450.022v 1.35894" fill="none" stroke="black"/>
<path d="M190.091,450.022v 1.35894" fill="none" stroke="black"/>
<path d="M209.85,448.663v 2.71789" fill="none" stroke="black"/>
<path d="M229.609,450.022v 1.35894" fill="none" stroke="black"/>
<path d="M249.369,450.022v 1.35894" fill="none" stroke="black"/>
<path d="M269.128,450.022v 1.35894" fill="none" stroke="black"/>
<path d="M288.887,448.663v 2.71789" fill="none" stroke="black"/>
<path d="M308.646,450.022v 1.35894" fill="none" stroke="black"/>
<path d="M328.405,450.022v 1.35894" fill="none" stroke="black"/>
<path d="M348.164,450.022v 1.35894" fill="none" stroke="black"/>
<path d="M367.923,448.663v 2.71789" fill="none" stroke="black"/>
<path d="M387.683,450.022v 1.35894" fill="none" stroke="black"/>
<path d="M407.442,450.022v 1.35894" fill="none" stroke="black"/>
<path d="M427.201,450.022v 1.35894" fill="none" stroke="black"/>
<path d="M446.96,448.663v 2.71789" fill="none" stroke="black"/>
<path d="M130.814,448.663v 2.71789" fill="none" stroke="black"/>
<path d="M111.055,450.022v 1.35894" fill="none" stroke="black"/>
<path d="M91.2954,450.022v 1.35894" fill="none" stroke="black"/>
<path d="M446.96,448.663v 2.71789" fill="none" stroke="black"/>
<path d="M466.719,450.022v 1.35894" fill="none" stroke="black"/>
<path d="M486.478,450.022v 1.35894" fill="none" stroke="black"/>
<path d="M84.9724,451.381v -63.0733" fill="none" stroke="black"/>
<path d="M93.3913,445.073h -8.4189" fill="none" stroke="black"/>
<path d="M93.3913,432.459h -8.4189" fill="none" stroke="black"/>
<path d="M93.3913,419.844h -8.4189" fill="none" stroke="black"/>
<path d="M93.3913,407.229h -8.4189" fill="none" stroke="black"/>
<path d="M93.3913,394.615h -8.4189" fill="none" stroke="black"/>
<path d="M93.3913,445.073h -8.4189" fill="none" stroke="black"/>
<path d="M93.3913,394.615h -8.4189" fill="none" stroke="black"/></svg>
