<?xml version="1.0" standalone="no"?>
<svg width="567.429" height="533.889" viewBox="0 0 567.429 533.889" xmlns="http://www.w3.org/2000/svg" shape-rendering="crispEdges">
<title>
CB2Gaus2800.svg
</title>
<desc>
Creator: ROOT Version 6.10/09
CreationDate: Sun Apr 19 22:44:52 2020</desc>
<defs>
</defs>
<rect x="0.5" y="0" width="566.929" height="533.389" fill="white"/>
<rect x="28.8465" y="0" width="510.236" height="389.374" fill="white"/>
<rect x="84.9724" y="38.9374" width="403.087" height="307.606" fill="white"/>
<rect x="84.9724" y="38.9374" width="403.087" height="307.606" fill="none" stroke="black"/>
<rect x="84.9724" y="38.9374" width="403.087" height="307.606" fill="white"/>
<rect x="84.9724" y="38.9374" width="403.087" height="307.606" fill="none" stroke="black"/>
<path d="M84.9724,346.543h 403.087" fill="none" stroke="black"/>
<path d="M114.329,337.315v 9.22817" fill="none" stroke="black"/>
<path d="M128.443,341.929v 4.61409" fill="none" stroke="black"/>
<path d="M142.556,341.929v 4.61409" fill="none" stroke="black"/>
<path d="M156.67,341.929v 4.61409" fill="none" stroke="black"/>
<path d="M170.784,337.315v 9.22817" fill="none" stroke="black"/>
<path d="M184.897,341.929v 4.61409" fill="none" stroke="black"/>
<path d="M199.011,341.929v 4.61409" fill="none" stroke="black"/>
<path d="M213.125,341.929v 4.61409" fill="none" stroke="black"/>
<path d="M227.238,337.315v 9.22817" fill="none" stroke="black"/>
<path d="M241.352,341.929v 4.61409" fill="none" stroke="black"/>
<path d="M255.466,341.929v 4.61409" fill="none" stroke="black"/>
<path d="M269.579,341.929v 4.61409" fill="none" stroke="black"/>
<path d="M283.693,337.315v 9.22817" fill="none" stroke="black"/>
<path d="M297.807,341.929v 4.61409" fill="none" stroke="black"/>
<path d="M311.92,341.929v 4.61409" fill="none" stroke="black"/>
<path d="M326.034,341.929v 4.61409" fill="none" stroke="black"/>
<path d="M340.148,337.315v 9.22817" fill="none" stroke="black"/>
<path d="M354.261,341.929v 4.61409" fill="none" stroke="black"/>
<path d="M368.375,341.929v 4.61409" fill="none" stroke="black"/>
<path d="M382.489,341.929v 4.61409" fill="none" stroke="black"/>
<path d="M396.602,337.315v 9.22817" fill="none" stroke="black"/>
<path d="M410.716,341.929v 4.61409" fill="none" stroke="black"/>
<path d="M424.83,341.929v 4.61409" fill="none" stroke="black"/>
<path d="M438.943,341.929v 4.61409" fill="none" stroke="black"/>
<path d="M453.057,337.315v 9.22817" fill="none" stroke="black"/>
<path d="M114.329,337.315v 9.22817" fill="none" stroke="black"/>
<path d="M100.215,341.929v 4.61409" fill="none" stroke="black"/>
<path d="M86.1015,341.929v 4.61409" fill="none" stroke="black"/>
<path d="M453.057,337.315v 9.22817" fill="none" stroke="black"/>
<path d="M467.171,341.929v 4.61409" fill="none" stroke="black"/>
<path d="M481.284,341.929v 4.61409" fill="none" stroke="black"/>
<text xml:space="preserve" x="96.2504" y="362.445" fill="black" font-size="16.5751" font-family="Helvetica">2200</text>
<text xml:space="preserve" x="152.781" y="362.445" fill="black" font-size="16.5751" font-family="Helvetica">2400</text>
<text xml:space="preserve" x="209.312" y="362.445" fill="black" font-size="16.5751" font-family="Helvetica">2600</text>
<text xml:space="preserve" x="265.572" y="362.445" fill="black" font-size="16.5751" font-family="Helvetica">2800</text>
<text xml:space="preserve" x="322.102" y="362.445" fill="black" font-size="16.5751" font-family="Helvetica">3000</text>
<text xml:space="preserve" x="378.633" y="362.445" fill="black" font-size="16.5751" font-family="Helvetica">3200</text>
<text xml:space="preserve" x="435.164" y="362.445" fill="black" font-size="16.5751" font-family="Helvetica">3400</text>
<path d="M84.9724,346.543v -307.606" fill="none" stroke="black"/>
<path d="M97.065,346.543h -12.0926" fill="none" stroke="black"/>
<path d="M91.0187,336.29h -6.0463" fill="none" stroke="black"/>
<path d="M91.0187,326.036h -6.0463" fill="none" stroke="black"/>
<path d="M91.0187,315.783h -6.0463" fill="none" stroke="black"/>
<path d="M91.0187,305.529h -6.0463" fill="none" stroke="black"/>
<path d="M97.065,295.275h -12.0926" fill="none" stroke="black"/>
<path d="M91.0187,285.022h -6.0463" fill="none" stroke="black"/>
<path d="M91.0187,274.768h -6.0463" fill="none" stroke="black"/>
<path d="M91.0187,264.515h -6.0463" fill="none" stroke="black"/>
<path d="M91.0187,254.261h -6.0463" fill="none" stroke="black"/>
<path d="M97.065,244.008h -12.0926" fill="none" stroke="black"/>
<path d="M91.0187,233.754h -6.0463" fill="none" stroke="black"/>
<path d="M91.0187,223.501h -6.0463" fill="none" stroke="black"/>
<path d="M91.0187,213.247h -6.0463" fill="none" stroke="black"/>
<path d="M91.0187,202.994h -6.0463" fill="none" stroke="black"/>
<path d="M97.065,192.74h -12.0926" fill="none" stroke="black"/>
<path d="M91.0187,182.487h -6.0463" fill="none" stroke="black"/>
<path d="M91.0187,172.233h -6.0463" fill="none" stroke="black"/>
<path d="M91.0187,161.98h -6.0463" fill="none" stroke="black"/>
<path d="M91.0187,151.726h -6.0463" fill="none" stroke="black"/>
<path d="M97.065,141.473h -12.0926" fill="none" stroke="black"/>
<path d="M91.0187,131.219h -6.0463" fill="none" stroke="black"/>
<path d="M91.0187,120.966h -6.0463" fill="none" stroke="black"/>
<path d="M91.0187,110.712h -6.0463" fill="none" stroke="black"/>
<path d="M91.0187,100.459h -6.0463" fill="none" stroke="black"/>
<path d="M97.065,90.205h -12.0926" fill="none" stroke="black"/>
<path d="M91.0187,79.9515h -6.0463" fill="none" stroke="black"/>
<path d="M91.0187,69.698h -6.0463" fill="none" stroke="black"/>
<path d="M91.0187,59.4445h -6.0463" fill="none" stroke="black"/>
<path d="M91.0187,49.191h -6.0463" fill="none" stroke="black"/>
<path d="M97.065,38.9374h -12.0926" fill="none" stroke="black"/>
<text xml:space="preserve" x="73.8005" y="352.167" fill="black" font-size="16.5751" font-family="Helvetica">0</text>
<text xml:space="preserve" x="64.8746" y="300.775" fill="black" font-size="16.5751" font-family="Helvetica">50</text>
<text xml:space="preserve" x="55.6782" y="249.654" fill="black" font-size="16.5751" font-family="Helvetica">100</text>
<text xml:space="preserve" x="55.6782" y="198.263" fill="black" font-size="16.5751" font-family="Helvetica">150</text>
<text xml:space="preserve" x="55.6782" y="147.142" fill="black" font-size="16.5751" font-family="Helvetica">200</text>
<text xml:space="preserve" x="55.6782" y="95.7504" fill="black" font-size="16.5751" font-family="Helvetica">250</text>
<text xml:space="preserve" x="55.6782" y="44.359" fill="black" font-size="16.5751" font-family="Helvetica">300</text>
<g transform="rotate(-90,41.0722,156.609)">
<text xml:space="preserve" x="41.0722" y="156.609" fill="black" font-size="16.5751" font-family="Helvetica">Events / 20 GeV</text>
</g>
<path d="M86.1015,342.255h -1.12909" fill="none" stroke="black"/>
<path d="M86.1015,342.255h 5.64547" fill="none" stroke="black"/>
<path d="M91.747,342.796v -1.08193" fill="none" stroke="black"/>
<path d="M86.1015,342.255v -2.69396" fill="none" stroke="black"/>
<path d="M85.5606,339.561h 1.08193" fill="none" stroke="black"/>
<path d="M86.1015,342.255v 2.69396" fill="none" stroke="black"/>
<path d="M85.5606,344.949h 1.08193" fill="none" stroke="black"/>
<path d="M97.3925,335.834h -5.64547" fill="none" stroke="black"/>
<path d="M91.747,336.375v -1.08193" fill="none" stroke="black"/>
<path d="M97.3925,335.834h 5.64547" fill="none" stroke="black"/>
<path d="M103.038,336.375v -1.08193" fill="none" stroke="black"/>
<path d="M97.3925,335.834v -3.48128" fill="none" stroke="black"/>
<path d="M96.8515,332.353h 1.08193" fill="none" stroke="black"/>
<path d="M97.3925,335.834v 3.48128" fill="none" stroke="black"/>
<path d="M96.8515,339.316h 1.08193" fill="none" stroke="black"/>
<path d="M108.683,332.45h -5.64547" fill="none" stroke="black"/>
<path d="M103.038,332.991v -1.08193" fill="none" stroke="black"/>
<path d="M108.683,332.45h 5.64547" fill="none" stroke="black"/>
<path d="M114.329,332.991v -1.08193" fill="none" stroke="black"/>
<path d="M108.683,332.45v -4.26915" fill="none" stroke="black"/>
<path d="M108.142,328.181h 1.08193" fill="none" stroke="black"/>
<path d="M108.683,332.45v 4.26915" fill="none" stroke="black"/>
<path d="M108.142,336.72h 1.08193" fill="none" stroke="black"/>
<path d="M119.974,329.872h -5.64547" fill="none" stroke="black"/>
<path d="M114.329,330.413v -1.08193" fill="none" stroke="black"/>
<path d="M119.974,329.872h 5.64547" fill="none" stroke="black"/>
<path d="M125.62,330.413v -1.08193" fill="none" stroke="black"/>
<path d="M119.974,329.872v -4.4575" fill="none" stroke="black"/>
<path d="M119.433,325.414h 1.08193" fill="none" stroke="black"/>
<path d="M119.974,329.872v 4.4575" fill="none" stroke="black"/>
<path d="M119.433,334.329h 1.08193" fill="none" stroke="black"/>
<path d="M131.265,334.104h -5.64547" fill="none" stroke="black"/>
<path d="M125.62,334.645v -1.08193" fill="none" stroke="black"/>
<path d="M131.265,334.104h 5.64547" fill="none" stroke="black"/>
<path d="M136.911,334.645v -1.08193" fill="none" stroke="black"/>
<path d="M131.265,334.104v -3.59199" fill="none" stroke="black"/>
<path d="M130.724,330.512h 1.08193" fill="none" stroke="black"/>
<path d="M131.265,334.104v 3.59199" fill="none" stroke="black"/>
<path d="M130.724,337.696h 1.08193" fill="none" stroke="black"/>
<path d="M142.556,322.579h -5.64547" fill="none" stroke="black"/>
<path d="M136.911,323.12v -1.08193" fill="none" stroke="black"/>
<path d="M142.556,322.579h 5.64547" fill="none" stroke="black"/>
<path d="M148.202,323.12v -1.08193" fill="none" stroke="black"/>
<path d="M142.556,322.579v -5.46195" fill="none" stroke="black"/>
<path d="M142.015,317.117h 1.08193" fill="none" stroke="black"/>
<path d="M142.556,322.579v 5.46195" fill="none" stroke="black"/>
<path d="M142.015,328.041h 1.08193" fill="none" stroke="black"/>
<path d="M153.847,322.817h -5.64547" fill="none" stroke="black"/>
<path d="M148.202,323.358v -1.08193" fill="none" stroke="black"/>
<path d="M153.847,322.817h 5.64547" fill="none" stroke="black"/>
<path d="M159.493,323.358v -1.08193" fill="none" stroke="black"/>
<path d="M153.847,322.817v -5.05427" fill="none" stroke="black"/>
<path d="M153.306,317.762h 1.08193" fill="none" stroke="black"/>
<path d="M153.847,322.817v 5.05427" fill="none" stroke="black"/>
<path d="M153.306,327.871h 1.08193" fill="none" stroke="black"/>
<path d="M165.138,318.545h -5.64547" fill="none" stroke="black"/>
<path d="M159.493,319.086v -1.08193" fill="none" stroke="black"/>
<path d="M165.138,318.545h 5.64547" fill="none" stroke="black"/>
<path d="M170.784,319.086v -1.08193" fill="none" stroke="black"/>
<path d="M165.138,318.545v -5.63311" fill="none" stroke="black"/>
<path d="M164.597,312.912h 1.08193" fill="none" stroke="black"/>
<path d="M165.138,318.545v 5.63311" fill="none" stroke="black"/>
<path d="M164.597,324.178h 1.08193" fill="none" stroke="black"/>
<path d="M176.429,319.662h -5.64547" fill="none" stroke="black"/>
<path d="M170.784,320.203v -1.08193" fill="none" stroke="black"/>
<path d="M176.429,319.662h 5.64547" fill="none" stroke="black"/>
<path d="M182.075,320.203v -1.08193" fill="none" stroke="black"/>
<path d="M176.429,319.662v -5.57652" fill="none" stroke="black"/>
<path d="M175.888,314.086h 1.08193" fill="none" stroke="black"/>
<path d="M176.429,319.662v 5.57652" fill="none" stroke="black"/>
<path d="M175.888,325.239h 1.08193" fill="none" stroke="black"/>
<path d="M187.72,304.624h -5.64547" fill="none" stroke="black"/>
<path d="M182.075,305.165v -1.08193" fill="none" stroke="black"/>
<path d="M187.72,304.624h 5.64547" fill="none" stroke="black"/>
<path d="M193.365,305.165v -1.08193" fill="none" stroke="black"/>
<path d="M187.72,304.624v -7.32239" fill="none" stroke="black"/>
<path d="M187.179,297.301h 1.08193" fill="none" stroke="black"/>
<path d="M187.72,304.624v 7.32239" fill="none" stroke="black"/>
<path d="M187.179,311.946h 1.08193" fill="none" stroke="black"/>
<path d="M199.011,307.91h -5.64547" fill="none" stroke="black"/>
<path d="M193.365,308.451v -1.08193" fill="none" stroke="black"/>
<path d="M199.011,307.91h 5.64547" fill="none" stroke="black"/>
<path d="M204.656,308.451v -1.08193" fill="none" stroke="black"/>
<path d="M199.011,307.91v -6.15985" fill="none" stroke="black"/>
<path d="M198.47,301.75h 1.08193" fill="none" stroke="black"/>
<path d="M199.011,307.91v 6.15985" fill="none" stroke="black"/>
<path d="M198.47,314.07h 1.08193" fill="none" stroke="black"/>
<path d="M210.302,296.1h -5.64547" fill="none" stroke="black"/>
<path d="M204.656,296.641v -1.08193" fill="none" stroke="black"/>
<path d="M210.302,296.1h 5.64547" fill="none" stroke="black"/>
<path d="M215.947,296.641v -1.08193" fill="none" stroke="black"/>
<path d="M210.302,296.1v -7.47084" fill="none" stroke="black"/>
<path d="M209.761,288.63h 1.08193" fill="none" stroke="black"/>
<path d="M210.302,296.1v 7.47084" fill="none" stroke="black"/>
<path d="M209.761,303.571h 1.08193" fill="none" stroke="black"/>
<path d="M221.593,263.839h -5.64547" fill="none" stroke="black"/>
<path d="M215.947,264.38v -1.08193" fill="none" stroke="black"/>
<path d="M221.593,263.839h 5.64547" fill="none" stroke="black"/>
<path d="M227.238,264.38v -1.08193" fill="none" stroke="black"/>
<path d="M221.593,263.839v -10.5133" fill="none" stroke="black"/>
<path d="M221.052,253.326h 1.08193" fill="none" stroke="black"/>
<path d="M221.593,263.839v 10.5133" fill="none" stroke="black"/>
<path d="M221.052,274.352h 1.08193" fill="none" stroke="black"/>
<path d="M232.884,251.758h -5.64547" fill="none" stroke="black"/>
<path d="M227.238,252.299v -1.08193" fill="none" stroke="black"/>
<path d="M232.884,251.758h 5.64547" fill="none" stroke="black"/>
<path d="M238.529,252.299v -1.08193" fill="none" stroke="black"/>
<path d="M232.884,251.758v -10.7496" fill="none" stroke="black"/>
<path d="M232.343,241.008h 1.08193" fill="none" stroke="black"/>
<path d="M232.884,251.758v 10.7496" fill="none" stroke="black"/>
<path d="M232.343,262.507h 1.08193" fill="none" stroke="black"/>
<path d="M244.175,214.745h -5.64547" fill="none" stroke="black"/>
<path d="M238.529,215.286v -1.08193" fill="none" stroke="black"/>
<path d="M244.175,214.745h 5.64547" fill="none" stroke="black"/>
<path d="M249.82,215.286v -1.08193" fill="none" stroke="black"/>
<path d="M244.175,214.745v -12.0977" fill="none" stroke="black"/>
<path d="M243.634,202.647h 1.08193" fill="none" stroke="black"/>
<path d="M244.175,214.745v 12.0977" fill="none" stroke="black"/>
<path d="M243.634,226.843h 1.08193" fill="none" stroke="black"/>
<path d="M255.466,170.239h -5.64547" fill="none" stroke="black"/>
<path d="M249.82,170.78v -1.08193" fill="none" stroke="black"/>
<path d="M255.466,170.239h 5.64547" fill="none" stroke="black"/>
<path d="M261.111,170.78v -1.08193" fill="none" stroke="black"/>
<path d="M255.466,170.239v -14.281" fill="none" stroke="black"/>
<path d="M254.925,155.958h 1.08193" fill="none" stroke="black"/>
<path d="M255.466,170.239v 14.281" fill="none" stroke="black"/>
<path d="M254.925,184.52h 1.08193" fill="none" stroke="black"/>
<path d="M266.757,133.499h -5.64547" fill="none" stroke="black"/>
<path d="M261.111,134.04v -1.08193" fill="none" stroke="black"/>
<path d="M266.757,133.499h 5.64547" fill="none" stroke="black"/>
<path d="M272.402,134.04v -1.08193" fill="none" stroke="black"/>
<path d="M266.757,133.499v -15.5474" fill="none" stroke="black"/>
<path d="M266.216,117.952h 1.08193" fill="none" stroke="black"/>
<path d="M266.757,133.499v 15.5474" fill="none" stroke="black"/>
<path d="M266.216,149.046h 1.08193" fill="none" stroke="black"/>
<path d="M278.048,111.106h -5.64547" fill="none" stroke="black"/>
<path d="M272.402,111.647v -1.08193" fill="none" stroke="black"/>
<path d="M278.048,111.106h 5.64547" fill="none" stroke="black"/>
<path d="M283.693,111.647v -1.08193" fill="none" stroke="black"/>
<path d="M278.048,111.106v -16.1427" fill="none" stroke="black"/>
<path d="M277.507,94.963h 1.08193" fill="none" stroke="black"/>
<path d="M278.048,111.106v 16.1427" fill="none" stroke="black"/>
<path d="M277.507,127.248h 1.08193" fill="none" stroke="black"/>
<path d="M289.338,76.2209h -5.64547" fill="none" stroke="black"/>
<path d="M283.693,76.7618v -1.08193" fill="none" stroke="black"/>
<path d="M289.338,76.2209h 5.64547" fill="none" stroke="black"/>
<path d="M294.984,76.7618v -1.08193" fill="none" stroke="black"/>
<path d="M289.338,76.2209v -17.9552" fill="none" stroke="black"/>
<path d="M288.798,58.2657h 1.08193" fill="none" stroke="black"/>
<path d="M289.338,76.2209v 17.9552" fill="none" stroke="black"/>
<path d="M288.798,94.176h 1.08193" fill="none" stroke="black"/>
<path d="M300.629,165.248h -5.64547" fill="none" stroke="black"/>
<path d="M294.984,165.789v -1.08193" fill="none" stroke="black"/>
<path d="M300.629,165.248h 5.64547" fill="none" stroke="black"/>
<path d="M306.275,165.789v -1.08193" fill="none" stroke="black"/>
<path d="M300.629,165.248v -14.5246" fill="none" stroke="black"/>
<path d="M300.088,150.723h 1.08193" fill="none" stroke="black"/>
<path d="M300.629,165.248v 14.5246" fill="none" stroke="black"/>
<path d="M300.088,179.772h 1.08193" fill="none" stroke="black"/>
<path d="M311.92,202.623h -5.64547" fill="none" stroke="black"/>
<path d="M306.275,203.164v -1.08193" fill="none" stroke="black"/>
<path d="M311.92,202.623h 5.64547" fill="none" stroke="black"/>
<path d="M317.566,203.164v -1.08193" fill="none" stroke="black"/>
<path d="M311.92,202.623v -12.7737" fill="none" stroke="black"/>
<path d="M311.379,189.85h 1.08193" fill="none" stroke="black"/>
<path d="M311.92,202.623v 12.7737" fill="none" stroke="black"/>
<path d="M311.379,215.397h 1.08193" fill="none" stroke="black"/>
<path d="M323.211,224.264h -5.64547" fill="none" stroke="black"/>
<path d="M317.566,224.805v -1.08193" fill="none" stroke="black"/>
<path d="M323.211,224.264h 5.64547" fill="none" stroke="black"/>
<path d="M328.857,224.805v -1.08193" fill="none" stroke="black"/>
<path d="M323.211,224.264v -11.9946" fill="none" stroke="black"/>
<path d="M322.67,212.269h 1.08193" fill="none" stroke="black"/>
<path d="M323.211,224.264v 11.9946" fill="none" stroke="black"/>
<path d="M322.67,236.258h 1.08193" fill="none" stroke="black"/>
<path d="M334.502,269.177h -5.64547" fill="none" stroke="black"/>
<path d="M328.857,269.718v -1.08193" fill="none" stroke="black"/>
<path d="M334.502,269.177h 5.64547" fill="none" stroke="black"/>
<path d="M340.148,269.718v -1.08193" fill="none" stroke="black"/>
<path d="M334.502,269.177v -9.56639" fill="none" stroke="black"/>
<path d="M333.961,259.611h 1.08193" fill="none" stroke="black"/>
<path d="M334.502,269.177v 9.56639" fill="none" stroke="black"/>
<path d="M333.961,278.744h 1.08193" fill="none" stroke="black"/>
<path d="M345.793,301.468h -5.64547" fill="none" stroke="black"/>
<path d="M340.148,302.009v -1.08193" fill="none" stroke="black"/>
<path d="M345.793,301.468h 5.64547" fill="none" stroke="black"/>
<path d="M351.439,302.009v -1.08193" fill="none" stroke="black"/>
<path d="M345.793,301.468v -7.04512" fill="none" stroke="black"/>
<path d="M345.252,294.423h 1.08193" fill="none" stroke="black"/>
<path d="M345.793,301.468v 7.04512" fill="none" stroke="black"/>
<path d="M345.252,308.513h 1.08193" fill="none" stroke="black"/>
<path d="M357.084,318.322h -5.64547" fill="none" stroke="black"/>
<path d="M351.439,318.863v -1.08193" fill="none" stroke="black"/>
<path d="M357.084,318.322h 5.64547" fill="none" stroke="black"/>
<path d="M362.73,318.863v -1.08193" fill="none" stroke="black"/>
<path d="M357.084,318.322v -5.65944" fill="none" stroke="black"/>
<path d="M356.543,312.662h 1.08193" fill="none" stroke="black"/>
<path d="M357.084,318.322v 5.65944" fill="none" stroke="black"/>
<path d="M356.543,323.981h 1.08193" fill="none" stroke="black"/>
<path d="M368.375,322.51h -5.64547" fill="none" stroke="black"/>
<path d="M362.73,323.051v -1.08193" fill="none" stroke="black"/>
<path d="M368.375,322.51h 5.64547" fill="none" stroke="black"/>
<path d="M374.021,323.051v -1.08193" fill="none" stroke="black"/>
<path d="M368.375,322.51v -5.28921" fill="none" stroke="black"/>
<path d="M367.834,317.221h 1.08193" fill="none" stroke="black"/>
<path d="M368.375,322.51v 5.28921" fill="none" stroke="black"/>
<path d="M367.834,327.8h 1.08193" fill="none" stroke="black"/>
<path d="M379.666,333.516h -5.64547" fill="none" stroke="black"/>
<path d="M374.021,334.057v -1.08193" fill="none" stroke="black"/>
<path d="M379.666,333.516h 5.64547" fill="none" stroke="black"/>
<path d="M385.311,334.057v -1.08193" fill="none" stroke="black"/>
<path d="M379.666,333.516v -4.23039" fill="none" stroke="black"/>
<path d="M379.125,329.285h 1.08193" fill="none" stroke="black"/>
<path d="M379.666,333.516v 4.23039" fill="none" stroke="black"/>
<path d="M379.125,337.746h 1.08193" fill="none" stroke="black"/>
<path d="M390.957,335.313h -5.64547" fill="none" stroke="black"/>
<path d="M385.311,335.854v -1.08193" fill="none" stroke="black"/>
<path d="M390.957,335.313h 5.64547" fill="none" stroke="black"/>
<path d="M396.602,335.854v -1.08193" fill="none" stroke="black"/>
<path d="M390.957,335.313v -3.5031" fill="none" stroke="black"/>
<path d="M390.416,331.809h 1.08193" fill="none" stroke="black"/>
<path d="M390.957,335.313v 3.5031" fill="none" stroke="black"/>
<path d="M390.416,338.816h 1.08193" fill="none" stroke="black"/>
<path d="M402.248,333.789h -5.64547" fill="none" stroke="black"/>
<path d="M396.602,334.33v -1.08193" fill="none" stroke="black"/>
<path d="M402.248,333.789h 5.64547" fill="none" stroke="black"/>
<path d="M407.893,334.33v -1.08193" fill="none" stroke="black"/>
<path d="M402.248,333.789v -4.16374" fill="none" stroke="black"/>
<path d="M401.707,329.625h 1.08193" fill="none" stroke="black"/>
<path d="M402.248,333.789v 4.16374" fill="none" stroke="black"/>
<path d="M401.707,337.953h 1.08193" fill="none" stroke="black"/>
<path d="M413.539,337.099h -5.64547" fill="none" stroke="black"/>
<path d="M407.893,337.639v -1.08193" fill="none" stroke="black"/>
<path d="M413.539,337.099h 5.64547" fill="none" stroke="black"/>
<path d="M419.184,337.639v -1.08193" fill="none" stroke="black"/>
<path d="M413.539,337.099v -3.42301" fill="none" stroke="black"/>
<path d="M412.998,333.676h 1.08193" fill="none" stroke="black"/>
<path d="M413.539,337.099v 3.42301" fill="none" stroke="black"/>
<path d="M412.998,340.522h 1.08193" fill="none" stroke="black"/>
<path d="M424.83,339.262h -5.64547" fill="none" stroke="black"/>
<path d="M419.184,339.803v -1.08193" fill="none" stroke="black"/>
<path d="M424.83,339.262h 5.64547" fill="none" stroke="black"/>
<path d="M430.475,339.803v -1.08193" fill="none" stroke="black"/>
<path d="M424.83,339.262v -2.77689" fill="none" stroke="black"/>
<path d="M424.289,336.485h 1.08193" fill="none" stroke="black"/>
<path d="M424.83,339.262v 2.77689" fill="none" stroke="black"/>
<path d="M424.289,342.039h 1.08193" fill="none" stroke="black"/>
<path d="M436.121,342.112h -5.64547" fill="none" stroke="black"/>
<path d="M430.475,342.653v -1.08193" fill="none" stroke="black"/>
<path d="M436.121,342.112h 5.64547" fill="none" stroke="black"/>
<path d="M441.766,342.653v -1.08193" fill="none" stroke="black"/>
<path d="M436.121,342.112v -2.05282" fill="none" stroke="black"/>
<path d="M435.58,340.059h 1.08193" fill="none" stroke="black"/>
<path d="M436.121,342.112v 2.05282" fill="none" stroke="black"/>
<path d="M435.58,344.164h 1.08193" fill="none" stroke="black"/>
<path d="M447.412,341.204h -5.64547" fill="none" stroke="black"/>
<path d="M441.766,341.745v -1.08193" fill="none" stroke="black"/>
<path d="M447.412,341.204h 5.64547" fill="none" stroke="black"/>
<path d="M453.057,341.745v -1.08193" fill="none" stroke="black"/>
<path d="M447.412,341.204v -2.82265" fill="none" stroke="black"/>
<path d="M446.871,338.381h 1.08193" fill="none" stroke="black"/>
<path d="M447.412,341.204v 2.82265" fill="none" stroke="black"/>
<path d="M446.871,344.027h 1.08193" fill="none" stroke="black"/>
<path d="M458.703,343.295h -5.64547" fill="none" stroke="black"/>
<path d="M453.057,343.836v -1.08193" fill="none" stroke="black"/>
<path d="M458.703,343.295h 5.64547" fill="none" stroke="black"/>
<path d="M464.348,343.836v -1.08193" fill="none" stroke="black"/>
<path d="M458.703,343.295v -2.46899" fill="none" stroke="black"/>
<path d="M458.162,340.826h 1.08193" fill="none" stroke="black"/>
<path d="M458.703,343.295v 2.46899" fill="none" stroke="black"/>
<path d="M458.162,345.764h 1.08193" fill="none" stroke="black"/>
<path d="M469.994,345.465h -5.64547" fill="none" stroke="black"/>
<path d="M464.348,346.006v -1.08193" fill="none" stroke="black"/>
<path d="M469.994,345.465h 5.64547" fill="none" stroke="black"/>
<path d="M475.639,346.006v -1.08193" fill="none" stroke="black"/>
<path d="M469.994,345.465v -1.07826" fill="none" stroke="black"/>
<path d="M469.453,344.387h 1.08193" fill="none" stroke="black"/>
<path d="M469.994,345.465v 1.07826" fill="none" stroke="black"/>
<path d="M469.453,346.543h 1.08193" fill="none" stroke="black"/>
<path d="M481.284,345.559h -5.64547" fill="none" stroke="black"/>
<path d="M475.639,346.1v -1.08193" fill="none" stroke="black"/>
<path d="M481.284,345.559h 5.64547" fill="none" stroke="black"/>
<path d="M486.93,346.1v -1.08193" fill="none" stroke="black"/>
<path d="M481.284,345.559v -0.983689" fill="none" stroke="black"/>
<path d="M480.744,344.576h 1.08193" fill="none" stroke="black"/>
<path d="M481.284,345.559v 0.983689" fill="none" stroke="black"/>
<path d="M480.744,346.543h 1.08193" fill="none" stroke="black"/>
<g stroke="black" stroke-width="1" fill="black">
<circle cx="86.1015" cy="342.255" r="2.16385"/>
<circle cx="97.3925" cy="335.834" r="2.16385"/>
<circle cx="108.683" cy="332.45" r="2.16385"/>
<circle cx="119.974" cy="329.872" r="2.16385"/>
<circle cx="131.265" cy="334.104" r="2.16385"/>
<circle cx="142.556" cy="322.579" r="2.16385"/>
<circle cx="153.847" cy="322.817" r="2.16385"/>
<circle cx="165.138" cy="318.545" r="2.16385"/>
<circle cx="176.429" cy="319.662" r="2.16385"/>
<circle cx="187.72" cy="304.624" r="2.16385"/>
<circle cx="199.011" cy="307.91" r="2.16385"/>
<circle cx="210.302" cy="296.1" r="2.16385"/>
<circle cx="221.593" cy="263.839" r="2.16385"/>
<circle cx="232.884" cy="251.758" r="2.16385"/>
<circle cx="244.175" cy="214.745" r="2.16385"/>
<circle cx="255.466" cy="170.239" r="2.16385"/>
<circle cx="266.757" cy="133.499" r="2.16385"/>
<circle cx="278.048" cy="111.106" r="2.16385"/>
<circle cx="289.338" cy="76.2209" r="2.16385"/>
<circle cx="300.629" cy="165.248" r="2.16385"/>
<circle cx="311.92" cy="202.623" r="2.16385"/>
<circle cx="323.211" cy="224.264" r="2.16385"/>
<circle cx="334.502" cy="269.177" r="2.16385"/>
<circle cx="345.793" cy="301.468" r="2.16385"/>
<circle cx="357.084" cy="318.322" r="2.16385"/>
<circle cx="368.375" cy="322.51" r="2.16385"/>
<circle cx="379.666" cy="333.516" r="2.16385"/>
<circle cx="390.957" cy="335.313" r="2.16385"/>
<circle cx="402.248" cy="333.789" r="2.16385"/>
<circle cx="413.539" cy="337.099" r="2.16385"/>
<circle cx="424.83" cy="339.262" r="2.16385"/>
<circle cx="436.121" cy="342.112" r="2.16385"/>
<circle cx="447.412" cy="341.204" r="2.16385"/>
<circle cx="458.703" cy="343.295" r="2.16385"/>
<circle cx="469.994" cy="345.465" r="2.16385"/>
<circle cx="481.284" cy="345.559" r="2.16385"/>
</g>
<path d="M86.1015,336.325l 3.95183, -0.422281l 3.95183, -0.451477l 3.95183, -0.482397l 3.95183, -0.515077l 3.95183, -0.549552l 3.95183, -0.585855l 3.95183, -0.624022l 3.95183, -0.664093l 3.95183, -0.706118l 3.95183, -0.750167l 3.95183, -0.79634l
 3.95183, -0.84478l 3.95183, -0.8957l 3.95183, -0.949402l 3.95183, -1.00632l 3.95183, -1.06705l 3.95183, -1.13242l 3.95183, -1.20353l 3.95183, -1.28185l 3.95183, -1.36927l 3.95183, -1.46816l 3.95183, -1.58148l 3.95183, -1.71284l 3.95183, -1.86647l
 3.95183, -2.04733l 3.95183, -2.26099l 3.95183, -2.51365l 3.95183, -2.81202l 3.95183, -3.16327l 3.95183, -3.57502l 3.95183, -4.05549l 3.95183, -4.61394l 3.95183, -5.26173l 3.95183, -6.01421l 3.95183, -6.89438l 3.95183, -7.93947l 3.95183, -9.21301l
 3.95183, -10.8278l 1.97591, -6.17877l 1.97591, -6.81344l 3.95183, -15.6359l 3.95183, -16.515l 3.95183, -16.6673l 3.95183, -16.2965l 3.95183, -15.3533l 3.95183, -13.8208l 1.97591, -6.15621l 1.97591, -5.56373l 1.97591, -4.90991l 1.97591, -4.2009l
 1.97591, -3.44389l 1.97591, -2.64699l 1.97591, -1.81913l 1.97591, -0.969821l 1.97591, -0.109032l 1.97591, 0.753051l 1.97591, 1.60621l 1.97591, 2.44041l 1.97591, 3.246l 1.97591, 4.01389l 1.97591, 4.73575l 1.97591, 5.40413l 1.97591, 6.01262l 1.97591,
 6.55594l 3.95183, 14.462l 3.95183, 15.7746l 3.95183, 16.5001l 3.95183, 16.6681l 3.95183, 16.3383l 3.95183, 15.5925l 3.95183, 14.5254l 3.95183, 13.2356l 3.95183, 11.8181l 3.95183, 10.3579l 3.95183, 8.92571l 3.95183, 7.57589l 3.95183, 6.34615l
 3.95183, 5.25867l 3.95183, 4.32228l 3.95183, 3.53522l 3.95183, 2.88804l 3.95183, 2.36636l 3.95183, 1.95322l 3.95183, 1.63099l 3.95183, 1.38271l 3.95183, 1.19298l 3.95183, 1.04848l 3.95183, 0.938067l 3.95183, 0.852772l 3.95183, 0.785572l 3.95183,
 0.731129l 3.95183, 0.685496l 3.95183, 0.645833l 3.95183, 0.610156l 3.95183, 0.577123l 3.95183, 0.545859l 3.95183, 0.515822l 3.95183, 0.486702l 3.95183, 0.45834l 3.95183, 0.43068l 3.95183, 0.403723l 3.95183, 0.377508l 3.95183, 0.352091l 3.95183,
 0.327531l 3.95183, 0.303888l 3.95183, 0.281213l 3.95183, 0.25955l 3.95183, 0.238931l 3.95183, 0.219381l 3.95183, 0.20091" fill="none" stroke="#ff0000" stroke-width="3"/>
<path d="M86.1015,336.423l 3.95183, -0.463622l 3.95183, -0.432516l 3.95183, -0.436925l 3.95183, -0.535802l 3.95183, -0.543775l 3.95183, -0.515299l 3.95183, -0.675662l 3.95183, -0.623293l 3.95183, -0.716752l 3.95183, -0.791829l 3.95183, -0.770387l
 3.95183, -0.794941l 3.95183, -0.857154l 3.95183, -0.945569l 3.95183, -1.00561l 3.95183, -1.08083l 3.95183, -1.12949l 3.95183, -1.22401l 3.95183, -1.38317l 3.95183, -1.39861l 3.95183, -1.47269l 3.95183, -1.6946l 3.95183, -1.79417l 3.95183, -1.95218l
 3.95183, -2.13024l 3.95183, -2.23407l 3.95183, -2.41462l 3.95183, -2.68745l 3.95183, -3.0714l 3.95183, -3.21108l 3.95183, -3.69859l 3.95183, -4.12025l 3.95183, -4.68995l 3.95183, -5.07385l 3.95183, -5.8567l 3.95183, -6.79119l 3.95183, -8.23116l
 3.95183, -9.69437l 1.97591, -5.98534l 1.97591, -6.11309l 3.95183, -14.1682l 3.95183, -15.7519l 3.95183, -16.9697l 3.95183, -16.7014l 3.95183, -15.4816l 3.95183, -14.1658l 1.97591, -6.17109l 1.97591, -5.82457l 1.97591, -4.69138l 1.97591, -4.15342l
 1.97591, -3.30588l 1.97591, -2.68811l 1.97591, -1.86414l 1.97591, -0.698491l 1.97591, -0.0684891l 1.97591, 0.875295l 1.97591, 1.43417l 1.97591, 2.73888l 1.97591, 2.92119l 1.97591, 4.24277l 1.97591, 4.90847l 1.97591, 5.60988l 1.97591, 6.26497l
 1.97591, 6.51695l 3.95183, 14.4599l 3.95183, 15.7774l 3.95183, 16.6822l 3.95183, 16.5611l 3.95183, 15.8174l 3.95183, 15.1391l 3.95183, 13.6435l 3.95183, 12.2614l 3.95183, 10.9671l 3.95183, 9.41856l 3.95183, 8.02818l 3.95183, 6.79679l 3.95183,
 5.57697l 3.95183, 4.48611l 3.95183, 3.96543l 3.95183, 3.30803l 3.95183, 2.76587l 3.95183, 2.16959l 3.95183, 1.87515l 3.95183, 1.48142l 3.95183, 1.31983l 3.95183, 1.01132l 3.95183, 1.04732l 3.95183, 0.967606l 3.95183, 0.870539l 3.95183, 0.833734l
 3.95183, 0.713293l 3.95183, 0.683586l 3.95183, 0.710836l 3.95183, 0.597314l 3.95183, 0.546057l 3.95183, 0.569433l 3.95183, 0.45603l 3.95183, 0.505151l 3.95183, 0.487047l 3.95183, 0.395072l 3.95183, 0.318298l 3.95183, 0.356221l 3.95183, 0.293757l
 3.95183, 0.317647l 3.95183, 0.286085l 3.95183, 0.253949l 3.95183, 0.20477l 3.95183, 0.209945l 3.95183, 0.183999l 3.95183, 0.15811v -1.24245l -3.95183, -0.229986l -3.95183, -0.249189l -3.95183, -0.281059l -3.95183, -0.27081l -3.95183, -0.301425l
 -3.95183, -0.30529l -3.95183, -0.359693l -3.95183, -0.372862l -3.95183, -0.370744l -3.95183, -0.407529l -3.95183, -0.448802l -3.95183, -0.474711l -3.95183, -0.553441l -3.95183, -0.530096l -3.95183, -0.584486l -3.95183, -0.646742l -3.95183,
 -0.661722l -3.95183, -0.764432l -3.95183, -0.848834l -3.95183, -0.901135l -3.95183, -0.904872l -3.95183, -1.06483l -3.95183, -1.02955l -3.95183, -1.17049l -3.95183, -1.35459l -3.95183, -1.45481l -3.95183, -1.78181l -3.95183, -2.00745l -3.95183,
 -2.36626l -3.95183, -2.80181l -3.95183, -3.51082l -3.95183, -4.25515l -3.95183, -5.06139l -3.95183, -6.09419l -3.95183, -7.4323l -3.95183, -8.73133l -3.95183, -10.1046l -3.95183, -11.6364l -3.95183, -13.3186l -3.95183, -14.3791l -3.95183, -15.4011l
 -3.95183, -16.7703l -3.95183, -16.8918l -3.95183, -16.9581l -3.95183, -16.1131l -3.95183, -14.9205l -1.97591, -7.09034l -1.97591, -6.47133l -1.97591, -5.73797l -1.97591, -5.03954l -1.97591, -4.2457l -1.97591, -3.51096l -1.97591, -2.42809l -1.97591,
 -1.57045l -1.97591, -0.971568l -1.97591, -0.119528l -1.97591, 1.23228l -1.97591, 1.78399l -1.97591, 2.8419l -1.97591, 3.75786l -1.97591, 4.66905l -1.97591, 5.11019l -1.97591, 5.79854l -1.97591, 6.29902l -3.95183, 14.5595l -3.95183, 15.6492l
 -3.95183, 16.6556l -3.95183, 16.8678l -3.95183, 16.5413l -3.95183, 14.732l -1.97591, 6.62789l -1.97591, 6.22448l -3.95183, 10.5795l -3.95183, 8.82418l -3.95183, 7.69388l -3.95183, 6.56421l -3.95183, 5.8238l -3.95183, 5.16441l -3.95183, 4.40106l
 -3.95183, 3.97865l -3.95183, 3.37415l -3.95183, 2.99309l -3.95183, 2.85264l -3.95183, 2.30943l -3.95183, 2.12687l -3.95183, 1.94315l -3.95183, 1.85442l -3.95183, 1.72669l -3.95183, 1.45977l -3.95183, 1.46429l -3.95183, 1.3864l -3.95183, 1.17391l
 -3.95183, 1.17958l -3.95183, 1.05326l -3.95183, 1.14103l -3.95183, 1.04223l -3.95183, 0.852865l -3.95183, 0.859112l -3.95183, 0.833718l -3.95183, 0.712731l -3.95183, 0.677037l -3.95183, 0.626965l -3.95183, 0.595102l -3.95183, 0.486143l -3.95183,
 0.490729l -3.95183, 0.48281l -3.95183, 0.409237l -3.95183, 0.475853l -3.95183, 0.398198l -3.95183, 0.32874z" fill="#00ff00"/>
<path d="M86.1015,338.348l 3.95183, -0.19572l 3.95183, -0.204966l 3.95183, -0.214874l 3.95183, -0.225509l 3.95183, -0.236944l 3.95183, -0.24926l 3.95183, -0.262551l 3.95183, -0.276919l 3.95183, -0.292486l 3.95183, -0.309386l 3.95183, -0.327776l
 3.95183, -0.347835l 3.95183, -0.36977l 3.95183, -0.39382l 3.95183, -0.420265l 3.95183, -0.449432l 3.95183, -0.481704l 3.95183, -0.517536l 3.95183, -0.557468l 3.95183, -0.602146l 3.95183, -0.652347l 3.95183, -0.709014l 3.95183, -0.773301l 3.95183,
 -0.846627l 3.95183, -0.930758l 3.95183, -1.02791l 3.95183, -1.1409l 3.95183, -1.27334l 3.95183, -1.42993l 3.95183, -1.61688l 3.95183, -1.84251l 3.95183, -2.11821l 3.95183, -2.45985l 3.95183, -2.89009l 3.95183, -3.44221l 3.95183, -4.16663l 3.95183,
 -5.14268l 1.97591, -3.04955l 1.97591, -3.45145l 1.97591, -3.93723l 1.97591, -4.5318l 1.97591, -5.26783l 1.97591, -5.72745l 3.95183, -11.8536l 3.95183, -12.0966l 3.95183, -11.9385l 3.95183, -11.3352l 1.97591, -5.29643l 1.97591, -4.97209l 1.97591,
 -4.59208l 1.97591, -4.15922l 1.97591, -3.67738l 1.97591, -3.15135l 1.97591, -2.58682l 1.97591, -1.99025l 1.97591, -1.36878l 1.97591, -0.73006l 1.97591, -0.0820909l 1.97591, 0.56692l 1.97591, 1.20875l 1.97591, 1.83531l 1.97591, 2.43886l 1.97591,
 3.01213l 1.97591, 3.54845l 1.97591, 4.04195l 1.97591, 4.48758l 1.97591, 4.88125l 3.95183, 10.7212l 3.95183, 11.6145l 3.95183, 12.0478l 3.95183, 12.0497l 3.95183, 11.6724l 3.95183, 10.9854l 3.95183, 10.0674l 3.95183, 8.99867l 3.95183, 7.85517l
 3.95183, 6.7031l 3.95183, 5.59604l 3.95183, 4.57348l 3.95183, 3.66101l 3.95183, 2.87164l 3.95183, 2.20796l 3.95183, 1.66464l 3.95183, 1.23092l 3.95183, 0.892933l 3.95183, 0.635583l 3.95183, 0.443983l 3.95183, 0.304414l 3.95183, 0.204892l 3.95183,
 0.135394l 3.95183, 0.0878489l 3.95183, 0.0559723l 3.95183, 0.0350225l 3.95183, 0.0215225l 3.95183, 0.0308917h 71.1329" fill="none" stroke="black" stroke-width="3" stroke-dasharray=" 3, 3"/>
<path d="M86.1015,346.543h 59.2774l 3.95183, -0.0374547l 3.95183, -0.0204659l 3.95183, -0.0304668l 3.95183, -0.0447125l 3.95183, -0.0646859l 3.95183, -0.092244l 3.95183, -0.129652l 3.95183, -0.179596l 3.95183, -0.245157l 3.95183, -0.329744l 3.95183,
 -0.436958l 3.95183, -0.570391l 3.95183, -0.733343l 3.95183, -0.928462l 3.95183, -1.15732l 3.95183, -1.41995l 3.95183, -1.71435l 3.95183, -2.03606l 3.95183, -2.37783l 3.95183, -2.7294l 3.95183, -3.07755l 3.95183, -3.40642l 3.95183, -3.69807l 3.95183,
 -3.93337l 3.95183, -4.09317l 3.95183, -4.15967l 3.95183, -4.11781l 3.95183, -3.95674l 3.95183, -3.67102l 3.95183, -3.26157l 1.97591, -1.44051l 1.97591, -1.29564l 1.97591, -1.13861l 1.97591, -0.970721l 1.97591, -0.793456l 1.97591, -0.608446l 1.97591,
 -0.41745l 1.97591, -0.222321l 1.97591, -0.0249844l 1.97591, 0.172601l 1.97591, 0.368471l 1.97591, 0.56069l 1.97591, 0.747382l 1.97591, 0.926763l 1.97591, 1.09717l 1.97591, 1.25707l 1.97591, 1.40513l 1.97591, 1.54016l 3.95183, 3.42872l 3.95183,
 3.79246l 3.95183, 4.03136l 3.95183, 4.14693l 3.95183, 4.14677l 3.95183, 4.04347l 3.95183, 3.85326l 3.95183, 3.59464l 3.95183, 3.28689l 3.95183, 2.94881l 3.95183, 2.59765l 3.95183, 2.24836l 3.95183, 1.91304l 3.95183, 1.60084l 3.95183, 1.31793l
 3.95183, 1.06781l 3.95183, 0.851656l 3.95183, 0.668809l 3.95183, 0.517241l 3.95183, 0.394015l 3.95183, 0.295682l 3.95183, 0.21862l 3.95183, 0.159278l 3.95183, 0.114359l 3.95183, 0.0809237l 3.95183, 0.0564426l 3.95183, 0.0388059l 3.95183, 0.0263014l
 3.95183, 0.0175742l 3.95183, 0.0317158h 63.2293" fill="none" stroke="#84c1a3" stroke-width="3" stroke-dasharray=" 3, 3"/>
<path d="M86.1015,344.521l 3.95183, -0.226555l 3.95183, -0.246502l 3.95183, -0.267505l 3.95183, -0.289535l 3.95183, -0.31255l 3.95183, -0.336493l 3.95183, -0.361295l 3.95183, -0.386871l 3.95183, -0.413121l 3.95183, -0.43993l 3.95183, -0.467165l
 3.95183, -0.49468l 3.95183, -0.522313l 3.95183, -0.549884l 3.95183, -0.577203l 3.95183, -0.604063l 3.95183, -0.630249l 3.95183, -0.655531l 3.95183, -0.679674l 3.95183, -0.702435l 3.95183, -0.723566l 3.95183, -0.742817l 3.95183, -0.75994l 3.95183,
 -0.774689l 3.95183, -0.786826l 3.95183, -0.796122l 3.95183, -0.80236l 3.95183, -0.80534l 3.95183, -0.80488l 3.95183, -0.800819l 3.95183, -0.793022l 3.95183, -0.781381l 3.95183, -0.765817l 3.95183, -0.746283l 3.95183, -0.722766l 3.95183, -0.695285l
 3.95183, -0.663898l 3.95183, -0.628698l 3.95183, -0.589814l 3.95183, -0.54741l 3.95183, -0.501687l 3.95183, -0.452877l 3.95183, -0.401245l 3.95183, -0.347086l 3.95183, -0.290719l 3.95183, -0.232489l 3.95183, -0.172759l 3.95183, -0.11191l 3.95183,
 -0.0503323l 3.95183, 0.0115731l 3.95183, 0.073403l 3.95183, 0.134755l 3.95183, 0.195231l 3.95183, 0.254444l 3.95183, 0.31202l 3.95183, 0.367601l 3.95183, 0.420852l 3.95183, 0.471462l 3.95183, 0.519148l 3.95183, 0.563656l 3.95183, 0.604766l 3.95183,
 0.642291l 3.95183, 0.676079l 3.95183, 0.706015l 3.95183, 0.732019l 3.95183, 0.754049l 3.95183, 0.772096l 3.95183, 0.786187l 3.95183, 0.79638l 3.95183, 0.802767l 3.95183, 0.805465l 3.95183, 0.80462l 3.95183, 0.8004l 3.95183, 0.792995l 3.95183,
 0.782611l 3.95183, 0.76947l 3.95183, 0.753806l 3.95183, 0.735859l 3.95183, 0.715876l 3.95183, 0.694107l 3.95183, 0.670801l 3.95183, 0.646204l 3.95183, 0.620557l 3.95183, 0.594093l 3.95183, 0.567036l 3.95183, 0.5396l 3.95183, 0.511984l 3.95183,
 0.484376l 3.95183, 0.456947l 3.95183, 0.429854l 3.95183, 0.40324l 3.95183, 0.377229l 3.95183, 0.351931l 3.95183, 0.327441l 3.95183, 0.303838l 3.95183, 0.281185l 3.95183, 0.259535l 3.95183, 0.238923l 3.95183, 0.219376l 3.95183, 0.200908" fill="none"
 stroke="#ddba87" stroke-width="3" stroke-dasharray=" 3, 3"/>
<path d="M86.1015,336.325l 3.95183, -0.422281l 3.95183, -0.451477l 3.95183, -0.482397l 3.95183, -0.515077l 3.95183, -0.549552l 3.95183, -0.585855l 3.95183, -0.624022l 3.95183, -0.664093l 3.95183, -0.706118l 3.95183, -0.750167l 3.95183, -0.79634l
 3.95183, -0.84478l 3.95183, -0.8957l 3.95183, -0.949402l 3.95183, -1.00632l 3.95183, -1.06705l 3.95183, -1.13242l 3.95183, -1.20353l 3.95183, -1.28185l 3.95183, -1.36927l 3.95183, -1.46816l 3.95183, -1.58148l 3.95183, -1.71284l 3.95183, -1.86647l
 3.95183, -2.04733l 3.95183, -2.26099l 3.95183, -2.51365l 3.95183, -2.81202l 3.95183, -3.16327l 3.95183, -3.57502l 3.95183, -4.05549l 3.95183, -4.61394l 3.95183, -5.26173l 3.95183, -6.01421l 3.95183, -6.89438l 3.95183, -7.93947l 3.95183, -9.21301l
 3.95183, -10.8278l 1.97591, -6.17877l 1.97591, -6.81344l 3.95183, -15.6359l 3.95183, -16.515l 3.95183, -16.6673l 3.95183, -16.2965l 3.95183, -15.3533l 3.95183, -13.8208l 1.97591, -6.15621l 1.97591, -5.56373l 1.97591, -4.90991l 1.97591, -4.2009l
 1.97591, -3.44389l 1.97591, -2.64699l 1.97591, -1.81913l 1.97591, -0.969821l 1.97591, -0.109032l 1.97591, 0.753051l 1.97591, 1.60621l 1.97591, 2.44041l 1.97591, 3.246l 1.97591, 4.01389l 1.97591, 4.73575l 1.97591, 5.40413l 1.97591, 6.01262l 1.97591,
 6.55594l 3.95183, 14.462l 3.95183, 15.7746l 3.95183, 16.5001l 3.95183, 16.6681l 3.95183, 16.3383l 3.95183, 15.5925l 3.95183, 14.5254l 3.95183, 13.2356l 3.95183, 11.8181l 3.95183, 10.3579l 3.95183, 8.92571l 3.95183, 7.57589l 3.95183, 6.34615l
 3.95183, 5.25867l 3.95183, 4.32228l 3.95183, 3.53522l 3.95183, 2.88804l 3.95183, 2.36636l 3.95183, 1.95322l 3.95183, 1.63099l 3.95183, 1.38271l 3.95183, 1.19298l 3.95183, 1.04848l 3.95183, 0.938067l 3.95183, 0.852772l 3.95183, 0.785572l 3.95183,
 0.731129l 3.95183, 0.685496l 3.95183, 0.645833l 3.95183, 0.610156l 3.95183, 0.577123l 3.95183, 0.545859l 3.95183, 0.515822l 3.95183, 0.486702l 3.95183, 0.45834l 3.95183, 0.43068l 3.95183, 0.403723l 3.95183, 0.377508l 3.95183, 0.352091l 3.95183,
 0.327531l 3.95183, 0.303888l 3.95183, 0.281213l 3.95183, 0.25955l 3.95183, 0.238931l 3.95183, 0.219381l 3.95183, 0.20091" fill="none" stroke="#ff0000" stroke-width="3"/>
<path d="M86.1015,342.255h -1.12909" fill="none" stroke="black"/>
<path d="M86.1015,342.255h 5.64547" fill="none" stroke="black"/>
<path d="M91.747,342.796v -1.08193" fill="none" stroke="black"/>
<path d="M86.1015,342.255v -2.69396" fill="none" stroke="black"/>
<path d="M85.5606,339.561h 1.08193" fill="none" stroke="black"/>
<path d="M86.1015,342.255v 2.69396" fill="none" stroke="black"/>
<path d="M85.5606,344.949h 1.08193" fill="none" stroke="black"/>
<path d="M97.3925,335.834h -5.64547" fill="none" stroke="black"/>
<path d="M91.747,336.375v -1.08193" fill="none" stroke="black"/>
<path d="M97.3925,335.834h 5.64547" fill="none" stroke="black"/>
<path d="M103.038,336.375v -1.08193" fill="none" stroke="black"/>
<path d="M97.3925,335.834v -3.48128" fill="none" stroke="black"/>
<path d="M96.8515,332.353h 1.08193" fill="none" stroke="black"/>
<path d="M97.3925,335.834v 3.48128" fill="none" stroke="black"/>
<path d="M96.8515,339.316h 1.08193" fill="none" stroke="black"/>
<path d="M108.683,332.45h -5.64547" fill="none" stroke="black"/>
<path d="M103.038,332.991v -1.08193" fill="none" stroke="black"/>
<path d="M108.683,332.45h 5.64547" fill="none" stroke="black"/>
<path d="M114.329,332.991v -1.08193" fill="none" stroke="black"/>
<path d="M108.683,332.45v -4.26915" fill="none" stroke="black"/>
<path d="M108.142,328.181h 1.08193" fill="none" stroke="black"/>
<path d="M108.683,332.45v 4.26915" fill="none" stroke="black"/>
<path d="M108.142,336.72h 1.08193" fill="none" stroke="black"/>
<path d="M119.974,329.872h -5.64547" fill="none" stroke="black"/>
<path d="M114.329,330.413v -1.08193" fill="none" stroke="black"/>
<path d="M119.974,329.872h 5.64547" fill="none" stroke="black"/>
<path d="M125.62,330.413v -1.08193" fill="none" stroke="black"/>
<path d="M119.974,329.872v -4.4575" fill="none" stroke="black"/>
<path d="M119.433,325.414h 1.08193" fill="none" stroke="black"/>
<path d="M119.974,329.872v 4.4575" fill="none" stroke="black"/>
<path d="M119.433,334.329h 1.08193" fill="none" stroke="black"/>
<path d="M131.265,334.104h -5.64547" fill="none" stroke="black"/>
<path d="M125.62,334.645v -1.08193" fill="none" stroke="black"/>
<path d="M131.265,334.104h 5.64547" fill="none" stroke="black"/>
<path d="M136.911,334.645v -1.08193" fill="none" stroke="black"/>
<path d="M131.265,334.104v -3.59199" fill="none" stroke="black"/>
<path d="M130.724,330.512h 1.08193" fill="none" stroke="black"/>
<path d="M131.265,334.104v 3.59199" fill="none" stroke="black"/>
<path d="M130.724,337.696h 1.08193" fill="none" stroke="black"/>
<path d="M142.556,322.579h -5.64547" fill="none" stroke="black"/>
<path d="M136.911,323.12v -1.08193" fill="none" stroke="black"/>
<path d="M142.556,322.579h 5.64547" fill="none" stroke="black"/>
<path d="M148.202,323.12v -1.08193" fill="none" stroke="black"/>
<path d="M142.556,322.579v -5.46195" fill="none" stroke="black"/>
<path d="M142.015,317.117h 1.08193" fill="none" stroke="black"/>
<path d="M142.556,322.579v 5.46195" fill="none" stroke="black"/>
<path d="M142.015,328.041h 1.08193" fill="none" stroke="black"/>
<path d="M153.847,322.817h -5.64547" fill="none" stroke="black"/>
<path d="M148.202,323.358v -1.08193" fill="none" stroke="black"/>
<path d="M153.847,322.817h 5.64547" fill="none" stroke="black"/>
<path d="M159.493,323.358v -1.08193" fill="none" stroke="black"/>
<path d="M153.847,322.817v -5.05427" fill="none" stroke="black"/>
<path d="M153.306,317.762h 1.08193" fill="none" stroke="black"/>
<path d="M153.847,322.817v 5.05427" fill="none" stroke="black"/>
<path d="M153.306,327.871h 1.08193" fill="none" stroke="black"/>
<path d="M165.138,318.545h -5.64547" fill="none" stroke="black"/>
<path d="M159.493,319.086v -1.08193" fill="none" stroke="black"/>
<path d="M165.138,318.545h 5.64547" fill="none" stroke="black"/>
<path d="M170.784,319.086v -1.08193" fill="none" stroke="black"/>
<path d="M165.138,318.545v -5.63311" fill="none" stroke="black"/>
<path d="M164.597,312.912h 1.08193" fill="none" stroke="black"/>
<path d="M165.138,318.545v 5.63311" fill="none" stroke="black"/>
<path d="M164.597,324.178h 1.08193" fill="none" stroke="black"/>
<path d="M176.429,319.662h -5.64547" fill="none" stroke="black"/>
<path d="M170.784,320.203v -1.08193" fill="none" stroke="black"/>
<path d="M176.429,319.662h 5.64547" fill="none" stroke="black"/>
<path d="M182.075,320.203v -1.08193" fill="none" stroke="black"/>
<path d="M176.429,319.662v -5.57652" fill="none" stroke="black"/>
<path d="M175.888,314.086h 1.08193" fill="none" stroke="black"/>
<path d="M176.429,319.662v 5.57652" fill="none" stroke="black"/>
<path d="M175.888,325.239h 1.08193" fill="none" stroke="black"/>
<path d="M187.72,304.624h -5.64547" fill="none" stroke="black"/>
<path d="M182.075,305.165v -1.08193" fill="none" stroke="black"/>
<path d="M187.72,304.624h 5.64547" fill="none" stroke="black"/>
<path d="M193.365,305.165v -1.08193" fill="none" stroke="black"/>
<path d="M187.72,304.624v -7.32239" fill="none" stroke="black"/>
<path d="M187.179,297.301h 1.08193" fill="none" stroke="black"/>
<path d="M187.72,304.624v 7.32239" fill="none" stroke="black"/>
<path d="M187.179,311.946h 1.08193" fill="none" stroke="black"/>
<path d="M199.011,307.91h -5.64547" fill="none" stroke="black"/>
<path d="M193.365,308.451v -1.08193" fill="none" stroke="black"/>
<path d="M199.011,307.91h 5.64547" fill="none" stroke="black"/>
<path d="M204.656,308.451v -1.08193" fill="none" stroke="black"/>
<path d="M199.011,307.91v -6.15985" fill="none" stroke="black"/>
<path d="M198.47,301.75h 1.08193" fill="none" stroke="black"/>
<path d="M199.011,307.91v 6.15985" fill="none" stroke="black"/>
<path d="M198.47,314.07h 1.08193" fill="none" stroke="black"/>
<path d="M210.302,296.1h -5.64547" fill="none" stroke="black"/>
<path d="M204.656,296.641v -1.08193" fill="none" stroke="black"/>
<path d="M210.302,296.1h 5.64547" fill="none" stroke="black"/>
<path d="M215.947,296.641v -1.08193" fill="none" stroke="black"/>
<path d="M210.302,296.1v -7.47084" fill="none" stroke="black"/>
<path d="M209.761,288.63h 1.08193" fill="none" stroke="black"/>
<path d="M210.302,296.1v 7.47084" fill="none" stroke="black"/>
<path d="M209.761,303.571h 1.08193" fill="none" stroke="black"/>
<path d="M221.593,263.839h -5.64547" fill="none" stroke="black"/>
<path d="M215.947,264.38v -1.08193" fill="none" stroke="black"/>
<path d="M221.593,263.839h 5.64547" fill="none" stroke="black"/>
<path d="M227.238,264.38v -1.08193" fill="none" stroke="black"/>
<path d="M221.593,263.839v -10.5133" fill="none" stroke="black"/>
<path d="M221.052,253.326h 1.08193" fill="none" stroke="black"/>
<path d="M221.593,263.839v 10.5133" fill="none" stroke="black"/>
<path d="M221.052,274.352h 1.08193" fill="none" stroke="black"/>
<path d="M232.884,251.758h -5.64547" fill="none" stroke="black"/>
<path d="M227.238,252.299v -1.08193" fill="none" stroke="black"/>
<path d="M232.884,251.758h 5.64547" fill="none" stroke="black"/>
<path d="M238.529,252.299v -1.08193" fill="none" stroke="black"/>
<path d="M232.884,251.758v -10.7496" fill="none" stroke="black"/>
<path d="M232.343,241.008h 1.08193" fill="none" stroke="black"/>
<path d="M232.884,251.758v 10.7496" fill="none" stroke="black"/>
<path d="M232.343,262.507h 1.08193" fill="none" stroke="black"/>
<path d="M244.175,214.745h -5.64547" fill="none" stroke="black"/>
<path d="M238.529,215.286v -1.08193" fill="none" stroke="black"/>
<path d="M244.175,214.745h 5.64547" fill="none" stroke="black"/>
<path d="M249.82,215.286v -1.08193" fill="none" stroke="black"/>
<path d="M244.175,214.745v -12.0977" fill="none" stroke="black"/>
<path d="M243.634,202.647h 1.08193" fill="none" stroke="black"/>
<path d="M244.175,214.745v 12.0977" fill="none" stroke="black"/>
<path d="M243.634,226.843h 1.08193" fill="none" stroke="black"/>
<path d="M255.466,170.239h -5.64547" fill="none" stroke="black"/>
<path d="M249.82,170.78v -1.08193" fill="none" stroke="black"/>
<path d="M255.466,170.239h 5.64547" fill="none" stroke="black"/>
<path d="M261.111,170.78v -1.08193" fill="none" stroke="black"/>
<path d="M255.466,170.239v -14.281" fill="none" stroke="black"/>
<path d="M254.925,155.958h 1.08193" fill="none" stroke="black"/>
<path d="M255.466,170.239v 14.281" fill="none" stroke="black"/>
<path d="M254.925,184.52h 1.08193" fill="none" stroke="black"/>
<path d="M266.757,133.499h -5.64547" fill="none" stroke="black"/>
<path d="M261.111,134.04v -1.08193" fill="none" stroke="black"/>
<path d="M266.757,133.499h 5.64547" fill="none" stroke="black"/>
<path d="M272.402,134.04v -1.08193" fill="none" stroke="black"/>
<path d="M266.757,133.499v -15.5474" fill="none" stroke="black"/>
<path d="M266.216,117.952h 1.08193" fill="none" stroke="black"/>
<path d="M266.757,133.499v 15.5474" fill="none" stroke="black"/>
<path d="M266.216,149.046h 1.08193" fill="none" stroke="black"/>
<path d="M278.048,111.106h -5.64547" fill="none" stroke="black"/>
<path d="M272.402,111.647v -1.08193" fill="none" stroke="black"/>
<path d="M278.048,111.106h 5.64547" fill="none" stroke="black"/>
<path d="M283.693,111.647v -1.08193" fill="none" stroke="black"/>
<path d="M278.048,111.106v -16.1427" fill="none" stroke="black"/>
<path d="M277.507,94.963h 1.08193" fill="none" stroke="black"/>
<path d="M278.048,111.106v 16.1427" fill="none" stroke="black"/>
<path d="M277.507,127.248h 1.08193" fill="none" stroke="black"/>
<path d="M289.338,76.2209h -5.64547" fill="none" stroke="black"/>
<path d="M283.693,76.7618v -1.08193" fill="none" stroke="black"/>
<path d="M289.338,76.2209h 5.64547" fill="none" stroke="black"/>
<path d="M294.984,76.7618v -1.08193" fill="none" stroke="black"/>
<path d="M289.338,76.2209v -17.9552" fill="none" stroke="black"/>
<path d="M288.798,58.2657h 1.08193" fill="none" stroke="black"/>
<path d="M289.338,76.2209v 17.9552" fill="none" stroke="black"/>
<path d="M288.798,94.176h 1.08193" fill="none" stroke="black"/>
<path d="M300.629,165.248h -5.64547" fill="none" stroke="black"/>
<path d="M294.984,165.789v -1.08193" fill="none" stroke="black"/>
<path d="M300.629,165.248h 5.64547" fill="none" stroke="black"/>
<path d="M306.275,165.789v -1.08193" fill="none" stroke="black"/>
<path d="M300.629,165.248v -14.5246" fill="none" stroke="black"/>
<path d="M300.088,150.723h 1.08193" fill="none" stroke="black"/>
<path d="M300.629,165.248v 14.5246" fill="none" stroke="black"/>
<path d="M300.088,179.772h 1.08193" fill="none" stroke="black"/>
<path d="M311.92,202.623h -5.64547" fill="none" stroke="black"/>
<path d="M306.275,203.164v -1.08193" fill="none" stroke="black"/>
<path d="M311.92,202.623h 5.64547" fill="none" stroke="black"/>
<path d="M317.566,203.164v -1.08193" fill="none" stroke="black"/>
<path d="M311.92,202.623v -12.7737" fill="none" stroke="black"/>
<path d="M311.379,189.85h 1.08193" fill="none" stroke="black"/>
<path d="M311.92,202.623v 12.7737" fill="none" stroke="black"/>
<path d="M311.379,215.397h 1.08193" fill="none" stroke="black"/>
<path d="M323.211,224.264h -5.64547" fill="none" stroke="black"/>
<path d="M317.566,224.805v -1.08193" fill="none" stroke="black"/>
<path d="M323.211,224.264h 5.64547" fill="none" stroke="black"/>
<path d="M328.857,224.805v -1.08193" fill="none" stroke="black"/>
<path d="M323.211,224.264v -11.9946" fill="none" stroke="black"/>
<path d="M322.67,212.269h 1.08193" fill="none" stroke="black"/>
<path d="M323.211,224.264v 11.9946" fill="none" stroke="black"/>
<path d="M322.67,236.258h 1.08193" fill="none" stroke="black"/>
<path d="M334.502,269.177h -5.64547" fill="none" stroke="black"/>
<path d="M328.857,269.718v -1.08193" fill="none" stroke="black"/>
<path d="M334.502,269.177h 5.64547" fill="none" stroke="black"/>
<path d="M340.148,269.718v -1.08193" fill="none" stroke="black"/>
<path d="M334.502,269.177v -9.56639" fill="none" stroke="black"/>
<path d="M333.961,259.611h 1.08193" fill="none" stroke="black"/>
<path d="M334.502,269.177v 9.56639" fill="none" stroke="black"/>
<path d="M333.961,278.744h 1.08193" fill="none" stroke="black"/>
<path d="M345.793,301.468h -5.64547" fill="none" stroke="black"/>
<path d="M340.148,302.009v -1.08193" fill="none" stroke="black"/>
<path d="M345.793,301.468h 5.64547" fill="none" stroke="black"/>
<path d="M351.439,302.009v -1.08193" fill="none" stroke="black"/>
<path d="M345.793,301.468v -7.04512" fill="none" stroke="black"/>
<path d="M345.252,294.423h 1.08193" fill="none" stroke="black"/>
<path d="M345.793,301.468v 7.04512" fill="none" stroke="black"/>
<path d="M345.252,308.513h 1.08193" fill="none" stroke="black"/>
<path d="M357.084,318.322h -5.64547" fill="none" stroke="black"/>
<path d="M351.439,318.863v -1.08193" fill="none" stroke="black"/>
<path d="M357.084,318.322h 5.64547" fill="none" stroke="black"/>
<path d="M362.73,318.863v -1.08193" fill="none" stroke="black"/>
<path d="M357.084,318.322v -5.65944" fill="none" stroke="black"/>
<path d="M356.543,312.662h 1.08193" fill="none" stroke="black"/>
<path d="M357.084,318.322v 5.65944" fill="none" stroke="black"/>
<path d="M356.543,323.981h 1.08193" fill="none" stroke="black"/>
<path d="M368.375,322.51h -5.64547" fill="none" stroke="black"/>
<path d="M362.73,323.051v -1.08193" fill="none" stroke="black"/>
<path d="M368.375,322.51h 5.64547" fill="none" stroke="black"/>
<path d="M374.021,323.051v -1.08193" fill="none" stroke="black"/>
<path d="M368.375,322.51v -5.28921" fill="none" stroke="black"/>
<path d="M367.834,317.221h 1.08193" fill="none" stroke="black"/>
<path d="M368.375,322.51v 5.28921" fill="none" stroke="black"/>
<path d="M367.834,327.8h 1.08193" fill="none" stroke="black"/>
<path d="M379.666,333.516h -5.64547" fill="none" stroke="black"/>
<path d="M374.021,334.057v -1.08193" fill="none" stroke="black"/>
<path d="M379.666,333.516h 5.64547" fill="none" stroke="black"/>
<path d="M385.311,334.057v -1.08193" fill="none" stroke="black"/>
<path d="M379.666,333.516v -4.23039" fill="none" stroke="black"/>
<path d="M379.125,329.285h 1.08193" fill="none" stroke="black"/>
<path d="M379.666,333.516v 4.23039" fill="none" stroke="black"/>
<path d="M379.125,337.746h 1.08193" fill="none" stroke="black"/>
<path d="M390.957,335.313h -5.64547" fill="none" stroke="black"/>
<path d="M385.311,335.854v -1.08193" fill="none" stroke="black"/>
<path d="M390.957,335.313h 5.64547" fill="none" stroke="black"/>
<path d="M396.602,335.854v -1.08193" fill="none" stroke="black"/>
<path d="M390.957,335.313v -3.5031" fill="none" stroke="black"/>
<path d="M390.416,331.809h 1.08193" fill="none" stroke="black"/>
<path d="M390.957,335.313v 3.5031" fill="none" stroke="black"/>
<path d="M390.416,338.816h 1.08193" fill="none" stroke="black"/>
<path d="M402.248,333.789h -5.64547" fill="none" stroke="black"/>
<path d="M396.602,334.33v -1.08193" fill="none" stroke="black"/>
<path d="M402.248,333.789h 5.64547" fill="none" stroke="black"/>
<path d="M407.893,334.33v -1.08193" fill="none" stroke="black"/>
<path d="M402.248,333.789v -4.16374" fill="none" stroke="black"/>
<path d="M401.707,329.625h 1.08193" fill="none" stroke="black"/>
<path d="M402.248,333.789v 4.16374" fill="none" stroke="black"/>
<path d="M401.707,337.953h 1.08193" fill="none" stroke="black"/>
<path d="M413.539,337.099h -5.64547" fill="none" stroke="black"/>
<path d="M407.893,337.639v -1.08193" fill="none" stroke="black"/>
<path d="M413.539,337.099h 5.64547" fill="none" stroke="black"/>
<path d="M419.184,337.639v -1.08193" fill="none" stroke="black"/>
<path d="M413.539,337.099v -3.42301" fill="none" stroke="black"/>
<path d="M412.998,333.676h 1.08193" fill="none" stroke="black"/>
<path d="M413.539,337.099v 3.42301" fill="none" stroke="black"/>
<path d="M412.998,340.522h 1.08193" fill="none" stroke="black"/>
<path d="M424.83,339.262h -5.64547" fill="none" stroke="black"/>
<path d="M419.184,339.803v -1.08193" fill="none" stroke="black"/>
<path d="M424.83,339.262h 5.64547" fill="none" stroke="black"/>
<path d="M430.475,339.803v -1.08193" fill="none" stroke="black"/>
<path d="M424.83,339.262v -2.77689" fill="none" stroke="black"/>
<path d="M424.289,336.485h 1.08193" fill="none" stroke="black"/>
<path d="M424.83,339.262v 2.77689" fill="none" stroke="black"/>
<path d="M424.289,342.039h 1.08193" fill="none" stroke="black"/>
<path d="M436.121,342.112h -5.64547" fill="none" stroke="black"/>
<path d="M430.475,342.653v -1.08193" fill="none" stroke="black"/>
<path d="M436.121,342.112h 5.64547" fill="none" stroke="black"/>
<path d="M441.766,342.653v -1.08193" fill="none" stroke="black"/>
<path d="M436.121,342.112v -2.05282" fill="none" stroke="black"/>
<path d="M435.58,340.059h 1.08193" fill="none" stroke="black"/>
<path d="M436.121,342.112v 2.05282" fill="none" stroke="black"/>
<path d="M435.58,344.164h 1.08193" fill="none" stroke="black"/>
<path d="M447.412,341.204h -5.64547" fill="none" stroke="black"/>
<path d="M441.766,341.745v -1.08193" fill="none" stroke="black"/>
<path d="M447.412,341.204h 5.64547" fill="none" stroke="black"/>
<path d="M453.057,341.745v -1.08193" fill="none" stroke="black"/>
<path d="M447.412,341.204v -2.82265" fill="none" stroke="black"/>
<path d="M446.871,338.381h 1.08193" fill="none" stroke="black"/>
<path d="M447.412,341.204v 2.82265" fill="none" stroke="black"/>
<path d="M446.871,344.027h 1.08193" fill="none" stroke="black"/>
<path d="M458.703,343.295h -5.64547" fill="none" stroke="black"/>
<path d="M453.057,343.836v -1.08193" fill="none" stroke="black"/>
<path d="M458.703,343.295h 5.64547" fill="none" stroke="black"/>
<path d="M464.348,343.836v -1.08193" fill="none" stroke="black"/>
<path d="M458.703,343.295v -2.46899" fill="none" stroke="black"/>
<path d="M458.162,340.826h 1.08193" fill="none" stroke="black"/>
<path d="M458.703,343.295v 2.46899" fill="none" stroke="black"/>
<path d="M458.162,345.764h 1.08193" fill="none" stroke="black"/>
<path d="M469.994,345.465h -5.64547" fill="none" stroke="black"/>
<path d="M464.348,346.006v -1.08193" fill="none" stroke="black"/>
<path d="M469.994,345.465h 5.64547" fill="none" stroke="black"/>
<path d="M475.639,346.006v -1.08193" fill="none" stroke="black"/>
<path d="M469.994,345.465v -1.07826" fill="none" stroke="black"/>
<path d="M469.453,344.387h 1.08193" fill="none" stroke="black"/>
<path d="M469.994,345.465v 1.07826" fill="none" stroke="black"/>
<path d="M469.453,346.543h 1.08193" fill="none" stroke="black"/>
<path d="M481.284,345.559h -5.64547" fill="none" stroke="black"/>
<path d="M475.639,346.1v -1.08193" fill="none" stroke="black"/>
<path d="M481.284,345.559h 5.64547" fill="none" stroke="black"/>
<path d="M486.93,346.1v -1.08193" fill="none" stroke="black"/>
<path d="M481.284,345.559v -0.983689" fill="none" stroke="black"/>
<path d="M480.744,344.576h 1.08193" fill="none" stroke="black"/>
<path d="M481.284,345.559v 0.983689" fill="none" stroke="black"/>
<path d="M480.744,346.543h 1.08193" fill="none" stroke="black"/>
<g stroke="black" stroke-width="1" fill="black">
<circle cx="86.1015" cy="342.255" r="2.16385"/>
<circle cx="97.3925" cy="335.834" r="2.16385"/>
<circle cx="108.683" cy="332.45" r="2.16385"/>
<circle cx="119.974" cy="329.872" r="2.16385"/>
<circle cx="131.265" cy="334.104" r="2.16385"/>
<circle cx="142.556" cy="322.579" r="2.16385"/>
<circle cx="153.847" cy="322.817" r="2.16385"/>
<circle cx="165.138" cy="318.545" r="2.16385"/>
<circle cx="176.429" cy="319.662" r="2.16385"/>
<circle cx="187.72" cy="304.624" r="2.16385"/>
<circle cx="199.011" cy="307.91" r="2.16385"/>
<circle cx="210.302" cy="296.1" r="2.16385"/>
<circle cx="221.593" cy="263.839" r="2.16385"/>
<circle cx="232.884" cy="251.758" r="2.16385"/>
<circle cx="244.175" cy="214.745" r="2.16385"/>
<circle cx="255.466" cy="170.239" r="2.16385"/>
<circle cx="266.757" cy="133.499" r="2.16385"/>
<circle cx="278.048" cy="111.106" r="2.16385"/>
<circle cx="289.338" cy="76.2209" r="2.16385"/>
<circle cx="300.629" cy="165.248" r="2.16385"/>
<circle cx="311.92" cy="202.623" r="2.16385"/>
<circle cx="323.211" cy="224.264" r="2.16385"/>
<circle cx="334.502" cy="269.177" r="2.16385"/>
<circle cx="345.793" cy="301.468" r="2.16385"/>
<circle cx="357.084" cy="318.322" r="2.16385"/>
<circle cx="368.375" cy="322.51" r="2.16385"/>
<circle cx="379.666" cy="333.516" r="2.16385"/>
<circle cx="390.957" cy="335.313" r="2.16385"/>
<circle cx="402.248" cy="333.789" r="2.16385"/>
<circle cx="413.539" cy="337.099" r="2.16385"/>
<circle cx="424.83" cy="339.262" r="2.16385"/>
<circle cx="436.121" cy="342.112" r="2.16385"/>
<circle cx="447.412" cy="341.204" r="2.16385"/>
<circle cx="458.703" cy="343.295" r="2.16385"/>
<circle cx="469.994" cy="345.465" r="2.16385"/>
<circle cx="481.284" cy="345.559" r="2.16385"/>
</g>
<text xml:space="preserve" x="168.739" y="132.265" fill="black" font-size="9.78783" font-family="Helvetica" font-weight="bold"> 3.76 (GeV)</text>
<text xml:space="preserve" x="163.6" y="132.265" fill="black" font-size="9.78783" font-family="Times">&#0177;</text>
<text xml:space="preserve" x="119.512" y="132.265" fill="black" font-size="9.78783" font-family="Helvetica" font-weight="bold">: 2790.38 </text>
<text xml:space="preserve" x="110.586" y="137.134" fill="black" font-size="6.69188" font-family="Helvetica" font-weight="bold">CB</text>
<text xml:space="preserve" x="105.176" y="132.265" fill="black" font-size="9.78783" font-family="Times">&#0956;</text>
<text xml:space="preserve" x="163.6" y="147.953" fill="black" font-size="9.78783" font-family="Helvetica" font-weight="bold"> 7.58 (GeV)</text>
<text xml:space="preserve" x="158.461" y="147.953" fill="black" font-size="9.78783" font-family="Times">&#0177;</text>
<text xml:space="preserve" x="119.782" y="147.953" fill="black" font-size="9.78783" font-family="Helvetica" font-weight="bold">: 107.52 </text>
<text xml:space="preserve" x="110.856" y="150.929" fill="black" font-size="6.69188" font-family="Helvetica" font-weight="bold">CB</text>
<text xml:space="preserve" x="105.176" y="147.953" fill="black" font-size="9.78783" font-family="Times">&#0963;</text>
<text xml:space="preserve" x="153.592" y="163.371" fill="black" font-size="9.78783" font-family="Helvetica" font-weight="bold"> 0.21</text>
<text xml:space="preserve" x="148.453" y="163.371" fill="black" font-size="9.78783" font-family="Times">&#0177;</text>
<text xml:space="preserve" x="120.053" y="163.371" fill="black" font-size="9.78783" font-family="Helvetica" font-weight="bold">: 1.28 </text>
<text xml:space="preserve" x="111.127" y="166.346" fill="black" font-size="6.69188" font-family="Helvetica" font-weight="bold">CB</text>
<text xml:space="preserve" x="105.176" y="163.371" fill="black" font-size="9.78783" font-family="Times">&#0945;</text>
<text xml:space="preserve" x="153.052" y="179.059" fill="black" font-size="9.78783" font-family="Helvetica" font-weight="bold"> 0.56</text>
<text xml:space="preserve" x="147.912" y="179.059" fill="black" font-size="9.78783" font-family="Times">&#0177;</text>
<text xml:space="preserve" x="119.512" y="179.059" fill="black" font-size="9.78783" font-family="Helvetica" font-weight="bold">: 1.07 </text>
<text xml:space="preserve" x="110.586" y="181.764" fill="black" font-size="6.69188" font-family="Helvetica" font-weight="bold">CB</text>
<text xml:space="preserve" x="105.176" y="179.059" fill="black" font-size="9.78783" font-family="Helvetica" font-weight="bold">n</text>
<text xml:space="preserve" x="173.067" y="194.476" fill="black" font-size="9.78783" font-family="Helvetica" font-weight="bold"> 34.72 (GeV)</text>
<text xml:space="preserve" x="167.928" y="194.476" fill="black" font-size="9.78783" font-family="Times">&#0177;</text>
<text xml:space="preserve" x="128.979" y="194.476" fill="black" font-size="9.78783" font-family="Helvetica" font-weight="bold">: 121.46 </text>
<text xml:space="preserve" x="110.856" y="197.451" fill="black" font-size="6.69188" font-family="Helvetica" font-weight="bold">Gaus1</text>
<text xml:space="preserve" x="105.176" y="194.476" fill="black" font-size="9.78783" font-family="Times">&#0963;</text>
<text xml:space="preserve" x="173.879" y="210.164" fill="black" font-size="9.78783" font-family="Helvetica" font-weight="bold"> 34.37 (GeV)</text>
<text xml:space="preserve" x="168.739" y="210.164" fill="black" font-size="9.78783" font-family="Times">&#0177;</text>
<text xml:space="preserve" x="129.79" y="210.164" fill="black" font-size="9.78783" font-family="Helvetica" font-weight="bold">: 300.16 </text>
<text xml:space="preserve" x="110.856" y="213.139" fill="black" font-size="6.69188" font-family="Helvetica" font-weight="bold">Gaus2</text>
<text xml:space="preserve" x="105.176" y="210.164" fill="black" font-size="9.78783" font-family="Times">&#0963;</text>
<text xml:space="preserve" x="161.166" y="225.582" fill="black" font-size="9.78783" font-family="Helvetica" font-weight="bold"> 0.08</text>
<text xml:space="preserve" x="156.027" y="225.582" fill="black" font-size="9.78783" font-family="Times">&#0177;</text>
<text xml:space="preserve" x="105.176" y="225.582" fill="black" font-size="9.78783" font-family="Helvetica" font-weight="bold">frac1: 0.75 </text>
<text xml:space="preserve" x="161.436" y="241.269" fill="black" font-size="9.78783" font-family="Helvetica" font-weight="bold"> 0.04</text>
<text xml:space="preserve" x="156.297" y="241.269" fill="black" font-size="9.78783" font-family="Times">&#0177;</text>
<text xml:space="preserve" x="105.176" y="241.269" fill="black" font-size="9.78783" font-family="Helvetica" font-weight="bold">frac2: 0.77 </text>
<path d="M84.9724,346.543h 403.087" fill="none" stroke="black"/>
<path d="M114.329,337.315v 9.22817" fill="none" stroke="black"/>
<path d="M128.443,341.929v 4.61409" fill="none" stroke="black"/>
<path d="M142.556,341.929v 4.61409" fill="none" stroke="black"/>
<path d="M156.67,341.929v 4.61409" fill="none" stroke="black"/>
<path d="M170.784,337.315v 9.22817" fill="none" stroke="black"/>
<path d="M184.897,341.929v 4.61409" fill="none" stroke="black"/>
<path d="M199.011,341.929v 4.61409" fill="none" stroke="black"/>
<path d="M213.125,341.929v 4.61409" fill="none" stroke="black"/>
<path d="M227.238,337.315v 9.22817" fill="none" stroke="black"/>
<path d="M241.352,341.929v 4.61409" fill="none" stroke="black"/>
<path d="M255.466,341.929v 4.61409" fill="none" stroke="black"/>
<path d="M269.579,341.929v 4.61409" fill="none" stroke="black"/>
<path d="M283.693,337.315v 9.22817" fill="none" stroke="black"/>
<path d="M297.807,341.929v 4.61409" fill="none" stroke="black"/>
<path d="M311.92,341.929v 4.61409" fill="none" stroke="black"/>
<path d="M326.034,341.929v 4.61409" fill="none" stroke="black"/>
<path d="M340.148,337.315v 9.22817" fill="none" stroke="black"/>
<path d="M354.261,341.929v 4.61409" fill="none" stroke="black"/>
<path d="M368.375,341.929v 4.61409" fill="none" stroke="black"/>
<path d="M382.489,341.929v 4.61409" fill="none" stroke="black"/>
<path d="M396.602,337.315v 9.22817" fill="none" stroke="black"/>
<path d="M410.716,341.929v 4.61409" fill="none" stroke="black"/>
<path d="M424.83,341.929v 4.61409" fill="none" stroke="black"/>
<path d="M438.943,341.929v 4.61409" fill="none" stroke="black"/>
<path d="M453.057,337.315v 9.22817" fill="none" stroke="black"/>
<path d="M114.329,337.315v 9.22817" fill="none" stroke="black"/>
<path d="M100.215,341.929v 4.61409" fill="none" stroke="black"/>
<path d="M86.1015,341.929v 4.61409" fill="none" stroke="black"/>
<path d="M453.057,337.315v 9.22817" fill="none" stroke="black"/>
<path d="M467.171,341.929v 4.61409" fill="none" stroke="black"/>
<path d="M481.284,341.929v 4.61409" fill="none" stroke="black"/>
<path d="M84.9724,346.543v -307.606" fill="none" stroke="black"/>
<path d="M97.065,346.543h -12.0926" fill="none" stroke="black"/>
<path d="M91.0187,336.29h -6.0463" fill="none" stroke="black"/>
<path d="M91.0187,326.036h -6.0463" fill="none" stroke="black"/>
<path d="M91.0187,315.783h -6.0463" fill="none" stroke="black"/>
<path d="M91.0187,305.529h -6.0463" fill="none" stroke="black"/>
<path d="M97.065,295.275h -12.0926" fill="none" stroke="black"/>
<path d="M91.0187,285.022h -6.0463" fill="none" stroke="black"/>
<path d="M91.0187,274.768h -6.0463" fill="none" stroke="black"/>
<path d="M91.0187,264.515h -6.0463" fill="none" stroke="black"/>
<path d="M91.0187,254.261h -6.0463" fill="none" stroke="black"/>
<path d="M97.065,244.008h -12.0926" fill="none" stroke="black"/>
<path d="M91.0187,233.754h -6.0463" fill="none" stroke="black"/>
<path d="M91.0187,223.501h -6.0463" fill="none" stroke="black"/>
<path d="M91.0187,213.247h -6.0463" fill="none" stroke="black"/>
<path d="M91.0187,202.994h -6.0463" fill="none" stroke="black"/>
<path d="M97.065,192.74h -12.0926" fill="none" stroke="black"/>
<path d="M91.0187,182.487h -6.0463" fill="none" stroke="black"/>
<path d="M91.0187,172.233h -6.0463" fill="none" stroke="black"/>
<path d="M91.0187,161.98h -6.0463" fill="none" stroke="black"/>
<path d="M91.0187,151.726h -6.0463" fill="none" stroke="black"/>
<path d="M97.065,141.473h -12.0926" fill="none" stroke="black"/>
<path d="M91.0187,131.219h -6.0463" fill="none" stroke="black"/>
<path d="M91.0187,120.966h -6.0463" fill="none" stroke="black"/>
<path d="M91.0187,110.712h -6.0463" fill="none" stroke="black"/>
<path d="M91.0187,100.459h -6.0463" fill="none" stroke="black"/>
<path d="M97.065,90.205h -12.0926" fill="none" stroke="black"/>
<path d="M91.0187,79.9515h -6.0463" fill="none" stroke="black"/>
<path d="M91.0187,69.698h -6.0463" fill="none" stroke="black"/>
<path d="M91.0187,59.4445h -6.0463" fill="none" stroke="black"/>
<path d="M91.0187,49.191h -6.0463" fill="none" stroke="black"/>
<path d="M97.065,38.9374h -12.0926" fill="none" stroke="black"/>
<text xml:space="preserve" x="403.517" y="32.9987" fill="black" font-size="13.0028" font-family="Helvetica"> (13 TeV) 2017</text>
<text xml:space="preserve" x="397.567" y="27.3186" fill="black" font-size="8.83523" font-family="Helvetica">-1</text>
<text xml:space="preserve" x="351.855" y="32.9987" fill="black" font-size="13.0028" font-family="Helvetica">41.53 fb</text>
<text xml:space="preserve" x="103.111" y="66.2787" fill="black" font-size="16.5751" font-family="Helvetica" font-weight="bold">CMS</text>
<text xml:space="preserve" x="103.012" y="80.0625" fill="black" font-size="12.7171" font-family="Helvetica" font-style="oblique">Simulation</text>
<rect x="334.988" y="46.7249" width="142.866" height="50.6187" fill="white"/>
<path d="M334.988,97.3436h 142.866" fill="none" stroke="black"/>
<path d="M477.854,97.3436v -50.6187" fill="none" stroke="black"/>
<path d="M477.854,46.7249h -142.866" fill="none" stroke="black"/>
<path d="M334.988,46.7249v 50.6187" fill="none" stroke="black"/>
<text xml:space="preserve" x="370.519" y="58.6945" fill="black" font-size="11.2167" font-family="Helvetica">2017 Signal MC</text>
<path d="M340.346,55.1614h 25.0016" fill="none" stroke="black"/>
<path d="M352.846,52.9975v -2.89801" fill="none" stroke="black"/>
<path d="M352.846,57.3252v 2.89801" fill="none" stroke="black"/>
<path d="M350.971,50.0995h 3.75024" fill="none" stroke="black"/>
<path d="M350.971,60.2232h 3.75024" fill="none" stroke="black"/>
<g stroke="black" stroke-width="1" fill="black">
<circle cx="352.846" cy="55.1614" r="2.16385"/>
</g>
<text xml:space="preserve" x="370.519" y="75.7348" fill="black" font-size="11.2167" font-family="Helvetica">Signal fit CB2Gaus</text>
<path d="M340.346,72.0342h 25.0016" fill="none" stroke="#ff0000" stroke-width="3"/>
<text xml:space="preserve" x="420.287" y="92.5047" fill="black" font-size="11.2167" font-family="Times">&#0963;</text>
<text xml:space="preserve" x="370.519" y="92.5047" fill="black" font-size="11.2167" font-family="Helvetica">Fit Error 1 </text>
<path d="M340.346,94.8126h 25.0016v -11.811h -25.0016z" fill="#00ff00"/>
<path d="M340.346,83.0016h 25.0016" fill="none" stroke="white"/>
<path d="M340.346,94.8126h 25.0016" fill="none" stroke="white"/>
<path d="M365.347,94.8126v -11.811" fill="none" stroke="white"/>
<path d="M340.346,94.8126v -11.811" fill="none" stroke="white"/>
<rect x="28.8465" y="365.372" width="510.236" height="114.679" fill="white"/>
<rect x="84.9724" y="388.307" width="403.087" height="63.0733" fill="white"/>
<rect x="84.9724" y="388.307" width="403.087" height="63.0733" fill="none" stroke="black"/>
<rect x="84.9724" y="388.307" width="403.087" height="63.0733" fill="white"/>
<rect x="84.9724" y="388.307" width="403.087" height="63.0733" fill="none" stroke="black"/>
<path d="M84.9724,451.381h 403.087" fill="none" stroke="black"/>
<path d="M114.329,388.307v 63.0733" fill="none" stroke="black" stroke-dasharray=" 1, 2"/>
<path d="M170.784,388.307v 63.0733" fill="none" stroke="black" stroke-dasharray=" 1, 2"/>
<path d="M227.238,388.307v 63.0733" fill="none" stroke="black" stroke-dasharray=" 1, 2"/>
<path d="M283.693,388.307v 63.0733" fill="none" stroke="black" stroke-dasharray=" 1, 2"/>
<path d="M340.148,388.307v 63.0733" fill="none" stroke="black" stroke-dasharray=" 1, 2"/>
<path d="M396.602,388.307v 63.0733" fill="none" stroke="black" stroke-dasharray=" 1, 2"/>
<path d="M453.057,388.307v 63.0733" fill="none" stroke="black" stroke-dasharray=" 1, 2"/>
<path d="M114.329,388.307v 63.0733" fill="none" stroke="black" stroke-dasharray=" 1, 2"/>
<path d="M453.057,388.307v 63.0733" fill="none" stroke="black" stroke-dasharray=" 1, 2"/>
<path d="M84.9724,451.381v -63.0733" fill="none" stroke="black"/>
<path d="M488.059,445.073h -403.087" fill="none" stroke="black" stroke-dasharray=" 1, 2"/>
<path d="M488.059,432.459h -403.087" fill="none" stroke="black" stroke-dasharray=" 1, 2"/>
<path d="M488.059,419.844h -403.087" fill="none" stroke="black" stroke-dasharray=" 1, 2"/>
<path d="M488.059,407.229h -403.087" fill="none" stroke="black" stroke-dasharray=" 1, 2"/>
<path d="M488.059,394.615h -403.087" fill="none" stroke="black" stroke-dasharray=" 1, 2"/>
<path d="M488.059,445.073h -403.087" fill="none" stroke="black" stroke-dasharray=" 1, 2"/>
<path d="M488.059,394.615h -403.087" fill="none" stroke="black" stroke-dasharray=" 1, 2"/>
<path d="M84.9724,451.381h 403.087" fill="none" stroke="black"/>
<path d="M114.329,448.663v 2.71789" fill="none" stroke="black"/>
<path d="M128.443,450.022v 1.35894" fill="none" stroke="black"/>
<path d="M142.556,450.022v 1.35894" fill="none" stroke="black"/>
<path d="M156.67,450.022v 1.35894" fill="none" stroke="black"/>
<path d="M170.784,448.663v 2.71789" fill="none" stroke="black"/>
<path d="M184.897,450.022v 1.35894" fill="none" stroke="black"/>
<path d="M199.011,450.022v 1.35894" fill="none" stroke="black"/>
<path d="M213.125,450.022v 1.35894" fill="none" stroke="black"/>
<path d="M227.238,448.663v 2.71789" fill="none" stroke="black"/>
<path d="M241.352,450.022v 1.35894" fill="none" stroke="black"/>
<path d="M255.466,450.022v 1.35894" fill="none" stroke="black"/>
<path d="M269.579,450.022v 1.35894" fill="none" stroke="black"/>
<path d="M283.693,448.663v 2.71789" fill="none" stroke="black"/>
<path d="M297.807,450.022v 1.35894" fill="none" stroke="black"/>
<path d="M311.92,450.022v 1.35894" fill="none" stroke="black"/>
<path d="M326.034,450.022v 1.35894" fill="none" stroke="black"/>
<path d="M340.148,448.663v 2.71789" fill="none" stroke="black"/>
<path d="M354.261,450.022v 1.35894" fill="none" stroke="black"/>
<path d="M368.375,450.022v 1.35894" fill="none" stroke="black"/>
<path d="M382.489,450.022v 1.35894" fill="none" stroke="black"/>
<path d="M396.602,448.663v 2.71789" fill="none" stroke="black"/>
<path d="M410.716,450.022v 1.35894" fill="none" stroke="black"/>
<path d="M424.83,450.022v 1.35894" fill="none" stroke="black"/>
<path d="M438.943,450.022v 1.35894" fill="none" stroke="black"/>
<path d="M453.057,448.663v 2.71789" fill="none" stroke="black"/>
<path d="M114.329,448.663v 2.71789" fill="none" stroke="black"/>
<path d="M100.215,450.022v 1.35894" fill="none" stroke="black"/>
<path d="M86.1015,450.022v 1.35894" fill="none" stroke="black"/>
<path d="M453.057,448.663v 2.71789" fill="none" stroke="black"/>
<path d="M467.171,450.022v 1.35894" fill="none" stroke="black"/>
<path d="M481.284,450.022v 1.35894" fill="none" stroke="black"/>
<text xml:space="preserve" x="100.037" y="462.794" fill="black" font-size="13.1252" font-family="Helvetica">2200</text>
<text xml:space="preserve" x="156.568" y="462.794" fill="black" font-size="13.1252" font-family="Helvetica">2400</text>
<text xml:space="preserve" x="213.098" y="462.794" fill="black" font-size="13.1252" font-family="Helvetica">2600</text>
<text xml:space="preserve" x="269.359" y="462.794" fill="black" font-size="13.1252" font-family="Helvetica">2800</text>
<text xml:space="preserve" x="325.889" y="462.794" fill="black" font-size="13.1252" font-family="Helvetica">3000</text>
<text xml:space="preserve" x="382.42" y="462.794" fill="black" font-size="13.1252" font-family="Helvetica">3200</text>
<text xml:space="preserve" x="438.95" y="462.794" fill="black" font-size="13.1252" font-family="Helvetica">3400</text>
<text xml:space="preserve" x="451.393" y="475.236" fill="black" font-size="13.1252" font-family="Helvetica"> (GeV)</text>
<text xml:space="preserve" x="447.065" y="479.023" fill="black" font-size="8.91679" font-family="Times">&#0947;</text>
<text xml:space="preserve" x="445.172" y="479.023" fill="black" font-size="8.91679" font-family="Helvetica">j</text>
<text xml:space="preserve" x="435.434" y="475.236" fill="black" font-size="13.1252" font-family="Helvetica">M</text>
<path d="M84.9724,451.381v -63.0733" fill="none" stroke="black"/>
<path d="M93.3913,445.073h -8.4189" fill="none" stroke="black"/>
<path d="M93.3913,432.459h -8.4189" fill="none" stroke="black"/>
<path d="M93.3913,419.844h -8.4189" fill="none" stroke="black"/>
<path d="M93.3913,407.229h -8.4189" fill="none" stroke="black"/>
<path d="M93.3913,394.615h -8.4189" fill="none" stroke="black"/>
<path d="M93.3913,445.073h -8.4189" fill="none" stroke="black"/>
<path d="M93.3913,394.615h -8.4189" fill="none" stroke="black"/>
<text xml:space="preserve" x="75.4234" y="449.811" fill="black" font-size="13.1252" font-family="Helvetica">4</text>
<text xml:space="preserve" x="68.3908" y="449.811" fill="black" font-size="13.1252" font-family="Times">&#8722;</text>
<text xml:space="preserve" x="75.4234" y="437.098" fill="black" font-size="13.1252" font-family="Helvetica">2</text>
<text xml:space="preserve" x="68.3908" y="437.098" fill="black" font-size="13.1252" font-family="Times">&#8722;</text>
<text xml:space="preserve" x="75.6938" y="424.385" fill="black" font-size="13.1252" font-family="Helvetica">0</text>
<text xml:space="preserve" x="75.4234" y="411.943" fill="black" font-size="13.1252" font-family="Helvetica">2</text>
<text xml:space="preserve" x="75.4234" y="399.231" fill="black" font-size="13.1252" font-family="Helvetica">4</text>
<g transform="rotate(-90,57.5716,408.156)">
<text xml:space="preserve" x="57.5716" y="408.156" fill="black" font-size="8.91679" font-family="Helvetica">stat</text>
</g>
<g transform="rotate(-90,53.7848,415.73)">
<text xml:space="preserve" x="53.7848" y="415.73" fill="black" font-size="13.1252" font-family="Times">&#0963;</text>
</g>
<g transform="rotate(-90,43.2361,421.951)">
<text xml:space="preserve" x="43.2361" y="421.951" fill="black" font-size="13.1252" font-family="Helvetica">MC-fit</text>
</g>
<path d="M45.3999,421.951v -33.8102" fill="none" stroke="black" stroke-width="2"/>
<rect x="84.9724" y="419.844" width="6.78241" height="13.8828" fill="#3399ff" fill-opacity="0.70" stroke-opacity="0.70"/>
<rect x="91.7392" y="419.844" width="11.3066" height="1.44217" fill="#3399ff" fill-opacity="0.70" stroke-opacity="0.70"/>
<rect x="103.03" y="418.314" width="11.3066" height="1.5304" fill="#3399ff" fill-opacity="0.70" stroke-opacity="0.70"/>
<rect x="114.321" y="417.36" width="11.3066" height="2.48406" fill="#3399ff" fill-opacity="0.70" stroke-opacity="0.70"/>
<rect x="125.612" y="419.844" width="11.3066" height="8.23186" fill="#3399ff" fill-opacity="0.70" stroke-opacity="0.70"/>
<rect x="136.903" y="414.97" width="11.3066" height="4.87463" fill="#3399ff" fill-opacity="0.70" stroke-opacity="0.70"/>
<rect x="148.194" y="418.729" width="11.3066" height="1.11537" fill="#3399ff" fill-opacity="0.70" stroke-opacity="0.70"/>
<rect x="159.485" y="418.184" width="11.3066" height="1.66026" fill="#3399ff" fill-opacity="0.70" stroke-opacity="0.70"/>
<rect x="170.776" y="419.844" width="11.3066" height="4.69654" fill="#3399ff" fill-opacity="0.70" stroke-opacity="0.70"/>
<rect x="182.067" y="415.44" width="11.3066" height="4.40416" fill="#3399ff" fill-opacity="0.70" stroke-opacity="0.70"/>
<rect x="193.358" y="419.844" width="11.3066" height="6.09495" fill="#3399ff" fill-opacity="0.70" stroke-opacity="0.70"/>
<rect x="204.649" y="419.844" width="11.3066" height="4.31151" fill="#3399ff" fill-opacity="0.70" stroke-opacity="0.70"/>
<rect x="215.94" y="413.081" width="11.3066" height="6.76273" fill="#3399ff" fill-opacity="0.70" stroke-opacity="0.70"/>
<rect x="227.23" y="419.844" width="11.3066" height="0.158562" fill="#3399ff" fill-opacity="0.70" stroke-opacity="0.70"/>
<rect x="238.521" y="419.844" width="11.3066" height="0.608113" fill="#3399ff" fill-opacity="0.70" stroke-opacity="0.70"/>
<rect x="249.812" y="419.844" width="11.3066" height="1.68342" fill="#3399ff" fill-opacity="0.70" stroke-opacity="0.70"/>
<rect x="261.103" y="419.844" width="11.3066" height="2.88607" fill="#3399ff" fill-opacity="0.70" stroke-opacity="0.70"/>
<rect x="272.394" y="419.844" width="11.3066" height="1.97685" fill="#3399ff" fill-opacity="0.70" stroke-opacity="0.70"/>
<rect x="283.685" y="407.034" width="11.3066" height="12.8102" fill="#3399ff" fill-opacity="0.70" stroke-opacity="0.70"/>
<rect x="294.976" y="419.844" width="11.3066" height="9.22419" fill="#3399ff" fill-opacity="0.70" stroke-opacity="0.70"/>
<rect x="306.267" y="419.844" width="11.3066" height="6.73091" fill="#3399ff" fill-opacity="0.70" stroke-opacity="0.70"/>
<rect x="317.558" y="414.088" width="11.3066" height="5.75587" fill="#3399ff" fill-opacity="0.70" stroke-opacity="0.70"/>
<rect x="328.849" y="417.258" width="11.3066" height="2.58646" fill="#3399ff" fill-opacity="0.70" stroke-opacity="0.70"/>
<rect x="340.14" y="419.844" width="11.3066" height="1.77647" fill="#3399ff" fill-opacity="0.70" stroke-opacity="0.70"/>
<rect x="351.431" y="419.844" width="11.3066" height="2.8965" fill="#3399ff" fill-opacity="0.70" stroke-opacity="0.70"/>
<rect x="362.722" y="416.86" width="11.3066" height="2.9839" fill="#3399ff" fill-opacity="0.70" stroke-opacity="0.70"/>
<rect x="374.013" y="419.844" width="11.3066" height="4.72855" fill="#3399ff" fill-opacity="0.70" stroke-opacity="0.70"/>
<rect x="385.304" y="419.844" width="11.3066" height="2.89036" fill="#3399ff" fill-opacity="0.70" stroke-opacity="0.70"/>
<rect x="396.595" y="416.268" width="11.3066" height="3.57619" fill="#3399ff" fill-opacity="0.70" stroke-opacity="0.70"/>
<rect x="407.886" y="417.962" width="11.3066" height="1.88191" fill="#3399ff" fill-opacity="0.70" stroke-opacity="0.70"/>
<rect x="419.176" y="418.647" width="11.3066" height="1.19724" fill="#3399ff" fill-opacity="0.70" stroke-opacity="0.70"/>
<rect x="430.467" y="419.844" width="11.3066" height="2.77123" fill="#3399ff" fill-opacity="0.70" stroke-opacity="0.70"/>
<rect x="441.758" y="417.167" width="11.3066" height="2.67756" fill="#3399ff" fill-opacity="0.70" stroke-opacity="0.70"/>
<rect x="453.049" y="419.615" width="11.3066" height="0.228932" fill="#3399ff" fill-opacity="0.70" stroke-opacity="0.70"/>
<rect x="464.34" y="419.844" width="11.3066" height="7.53667" fill="#3399ff" fill-opacity="0.70" stroke-opacity="0.70"/>
<rect x="475.631" y="419.844" width="11.3066" height="4.85964" fill="#3399ff" fill-opacity="0.70" stroke-opacity="0.70"/>
<path d="M84.9724,451.381h 403.087" fill="none" stroke="black"/>
<path d="M114.329,448.663v 2.71789" fill="none" stroke="black"/>
<path d="M128.443,450.022v 1.35894" fill="none" stroke="black"/>
<path d="M142.556,450.022v 1.35894" fill="none" stroke="black"/>
<path d="M156.67,450.022v 1.35894" fill="none" stroke="black"/>
<path d="M170.784,448.663v 2.71789" fill="none" stroke="black"/>
<path d="M184.897,450.022v 1.35894" fill="none" stroke="black"/>
<path d="M199.011,450.022v 1.35894" fill="none" stroke="black"/>
<path d="M213.125,450.022v 1.35894" fill="none" stroke="black"/>
<path d="M227.238,448.663v 2.71789" fill="none" stroke="black"/>
<path d="M241.352,450.022v 1.35894" fill="none" stroke="black"/>
<path d="M255.466,450.022v 1.35894" fill="none" stroke="black"/>
<path d="M269.579,450.022v 1.35894" fill="none" stroke="black"/>
<path d="M283.693,448.663v 2.71789" fill="none" stroke="black"/>
<path d="M297.807,450.022v 1.35894" fill="none" stroke="black"/>
<path d="M311.92,450.022v 1.35894" fill="none" stroke="black"/>
<path d="M326.034,450.022v 1.35894" fill="none" stroke="black"/>
<path d="M340.148,448.663v 2.71789" fill="none" stroke="black"/>
<path d="M354.261,450.022v 1.35894" fill="none" stroke="black"/>
<path d="M368.375,450.022v 1.35894" fill="none" stroke="black"/>
<path d="M382.489,450.022v 1.35894" fill="none" stroke="black"/>
<path d="M396.602,448.663v 2.71789" fill="none" stroke="black"/>
<path d="M410.716,450.022v 1.35894" fill="none" stroke="black"/>
<path d="M424.83,450.022v 1.35894" fill="none" stroke="black"/>
<path d="M438.943,450.022v 1.35894" fill="none" stroke="black"/>
<path d="M453.057,448.663v 2.71789" fill="none" stroke="black"/>
<path d="M114.329,448.663v 2.71789" fill="none" stroke="black"/>
<path d="M100.215,450.022v 1.35894" fill="none" stroke="black"/>
<path d="M86.1015,450.022v 1.35894" fill="none" stroke="black"/>
<path d="M453.057,448.663v 2.71789" fill="none" stroke="black"/>
<path d="M467.171,450.022v 1.35894" fill="none" stroke="black"/>
<path d="M481.284,450.022v 1.35894" fill="none" stroke="black"/>
<path d="M84.9724,451.381v -63.0733" fill="none" stroke="black"/>
<path d="M93.3913,445.073h -8.4189" fill="none" stroke="black"/>
<path d="M93.3913,432.459h -8.4189" fill="none" stroke="black"/>
<path d="M93.3913,419.844h -8.4189" fill="none" stroke="black"/>
<path d="M93.3913,407.229h -8.4189" fill="none" stroke="black"/>
<path d="M93.3913,394.615h -8.4189" fill="none" stroke="black"/>
<path d="M93.3913,445.073h -8.4189" fill="none" stroke="black"/>
<path d="M93.3913,394.615h -8.4189" fill="none" stroke="black"/></svg>
