<?xml version="1.0" standalone="no"?>
<svg width="567.429" height="533.889" viewBox="0 0 567.429 533.889" xmlns="http://www.w3.org/2000/svg" shape-rendering="crispEdges">
<title>
CB2Gaus900.svg
</title>
<desc>
Creator: ROOT Version 6.10/09
CreationDate: Sun Apr 19 22:31:37 2020</desc>
<defs>
</defs>
<rect x="0.5" y="0" width="566.929" height="533.389" fill="white"/>
<rect x="28.8465" y="0" width="510.236" height="389.374" fill="white"/>
<rect x="84.9724" y="38.9374" width="403.087" height="307.606" fill="white"/>
<rect x="84.9724" y="38.9374" width="403.087" height="307.606" fill="none" stroke="black"/>
<rect x="84.9724" y="38.9374" width="403.087" height="307.606" fill="white"/>
<rect x="84.9724" y="38.9374" width="403.087" height="307.606" fill="none" stroke="black"/>
<path d="M84.9724,346.543h 403.087" fill="none" stroke="black"/>
<path d="M112.071,337.315v 9.22817" fill="none" stroke="black"/>
<path d="M120.539,341.929v 4.61409" fill="none" stroke="black"/>
<path d="M129.007,341.929v 4.61409" fill="none" stroke="black"/>
<path d="M137.475,341.929v 4.61409" fill="none" stroke="black"/>
<path d="M145.944,341.929v 4.61409" fill="none" stroke="black"/>
<path d="M154.412,337.315v 9.22817" fill="none" stroke="black"/>
<path d="M162.88,341.929v 4.61409" fill="none" stroke="black"/>
<path d="M171.348,341.929v 4.61409" fill="none" stroke="black"/>
<path d="M179.816,341.929v 4.61409" fill="none" stroke="black"/>
<path d="M188.285,341.929v 4.61409" fill="none" stroke="black"/>
<path d="M196.753,337.315v 9.22817" fill="none" stroke="black"/>
<path d="M205.221,341.929v 4.61409" fill="none" stroke="black"/>
<path d="M213.689,341.929v 4.61409" fill="none" stroke="black"/>
<path d="M222.157,341.929v 4.61409" fill="none" stroke="black"/>
<path d="M230.626,341.929v 4.61409" fill="none" stroke="black"/>
<path d="M239.094,337.315v 9.22817" fill="none" stroke="black"/>
<path d="M247.562,341.929v 4.61409" fill="none" stroke="black"/>
<path d="M256.03,341.929v 4.61409" fill="none" stroke="black"/>
<path d="M264.498,341.929v 4.61409" fill="none" stroke="black"/>
<path d="M272.967,341.929v 4.61409" fill="none" stroke="black"/>
<path d="M281.435,337.315v 9.22817" fill="none" stroke="black"/>
<path d="M289.903,341.929v 4.61409" fill="none" stroke="black"/>
<path d="M298.371,341.929v 4.61409" fill="none" stroke="black"/>
<path d="M306.839,341.929v 4.61409" fill="none" stroke="black"/>
<path d="M315.308,341.929v 4.61409" fill="none" stroke="black"/>
<path d="M323.776,337.315v 9.22817" fill="none" stroke="black"/>
<path d="M332.244,341.929v 4.61409" fill="none" stroke="black"/>
<path d="M340.712,341.929v 4.61409" fill="none" stroke="black"/>
<path d="M349.18,341.929v 4.61409" fill="none" stroke="black"/>
<path d="M357.649,341.929v 4.61409" fill="none" stroke="black"/>
<path d="M366.117,337.315v 9.22817" fill="none" stroke="black"/>
<path d="M374.585,341.929v 4.61409" fill="none" stroke="black"/>
<path d="M383.053,341.929v 4.61409" fill="none" stroke="black"/>
<path d="M391.522,341.929v 4.61409" fill="none" stroke="black"/>
<path d="M399.99,341.929v 4.61409" fill="none" stroke="black"/>
<path d="M408.458,337.315v 9.22817" fill="none" stroke="black"/>
<path d="M416.926,341.929v 4.61409" fill="none" stroke="black"/>
<path d="M425.394,341.929v 4.61409" fill="none" stroke="black"/>
<path d="M433.863,341.929v 4.61409" fill="none" stroke="black"/>
<path d="M442.331,341.929v 4.61409" fill="none" stroke="black"/>
<path d="M450.799,337.315v 9.22817" fill="none" stroke="black"/>
<path d="M112.071,337.315v 9.22817" fill="none" stroke="black"/>
<path d="M103.602,341.929v 4.61409" fill="none" stroke="black"/>
<path d="M95.1343,341.929v 4.61409" fill="none" stroke="black"/>
<path d="M86.6661,341.929v 4.61409" fill="none" stroke="black"/>
<path d="M450.799,337.315v 9.22817" fill="none" stroke="black"/>
<path d="M459.267,341.929v 4.61409" fill="none" stroke="black"/>
<path d="M467.735,341.929v 4.61409" fill="none" stroke="black"/>
<path d="M476.204,341.929v 4.61409" fill="none" stroke="black"/>
<path d="M484.672,341.929v 4.61409" fill="none" stroke="black"/>
<text xml:space="preserve" x="98.6848" y="362.445" fill="black" font-size="16.5751" font-family="Helvetica">700</text>
<text xml:space="preserve" x="141.15" y="362.445" fill="black" font-size="16.5751" font-family="Helvetica">750</text>
<text xml:space="preserve" x="183.345" y="362.445" fill="black" font-size="16.5751" font-family="Helvetica">800</text>
<text xml:space="preserve" x="225.811" y="362.445" fill="black" font-size="16.5751" font-family="Helvetica">850</text>
<text xml:space="preserve" x="268.006" y="362.445" fill="black" font-size="16.5751" font-family="Helvetica">900</text>
<text xml:space="preserve" x="310.472" y="362.445" fill="black" font-size="16.5751" font-family="Helvetica">950</text>
<text xml:space="preserve" x="348.069" y="362.445" fill="black" font-size="16.5751" font-family="Helvetica">1000</text>
<text xml:space="preserve" x="390.534" y="362.445" fill="black" font-size="16.5751" font-family="Helvetica">1050</text>
<text xml:space="preserve" x="432.729" y="362.445" fill="black" font-size="16.5751" font-family="Helvetica">1100</text>
<path d="M84.9724,346.543v -307.606" fill="none" stroke="black"/>
<path d="M97.065,346.543h -12.0926" fill="none" stroke="black"/>
<path d="M91.0187,337.754h -6.0463" fill="none" stroke="black"/>
<path d="M91.0187,328.966h -6.0463" fill="none" stroke="black"/>
<path d="M91.0187,320.177h -6.0463" fill="none" stroke="black"/>
<path d="M91.0187,311.388h -6.0463" fill="none" stroke="black"/>
<path d="M97.065,302.599h -12.0926" fill="none" stroke="black"/>
<path d="M91.0187,293.811h -6.0463" fill="none" stroke="black"/>
<path d="M91.0187,285.022h -6.0463" fill="none" stroke="black"/>
<path d="M91.0187,276.233h -6.0463" fill="none" stroke="black"/>
<path d="M91.0187,267.444h -6.0463" fill="none" stroke="black"/>
<path d="M97.065,258.656h -12.0926" fill="none" stroke="black"/>
<path d="M91.0187,249.867h -6.0463" fill="none" stroke="black"/>
<path d="M91.0187,241.078h -6.0463" fill="none" stroke="black"/>
<path d="M91.0187,232.29h -6.0463" fill="none" stroke="black"/>
<path d="M91.0187,223.501h -6.0463" fill="none" stroke="black"/>
<path d="M97.065,214.712h -12.0926" fill="none" stroke="black"/>
<path d="M91.0187,205.923h -6.0463" fill="none" stroke="black"/>
<path d="M91.0187,197.135h -6.0463" fill="none" stroke="black"/>
<path d="M91.0187,188.346h -6.0463" fill="none" stroke="black"/>
<path d="M91.0187,179.557h -6.0463" fill="none" stroke="black"/>
<path d="M97.065,170.768h -12.0926" fill="none" stroke="black"/>
<path d="M91.0187,161.98h -6.0463" fill="none" stroke="black"/>
<path d="M91.0187,153.191h -6.0463" fill="none" stroke="black"/>
<path d="M91.0187,144.402h -6.0463" fill="none" stroke="black"/>
<path d="M91.0187,135.613h -6.0463" fill="none" stroke="black"/>
<path d="M97.065,126.825h -12.0926" fill="none" stroke="black"/>
<path d="M91.0187,118.036h -6.0463" fill="none" stroke="black"/>
<path d="M91.0187,109.247h -6.0463" fill="none" stroke="black"/>
<path d="M91.0187,100.459h -6.0463" fill="none" stroke="black"/>
<path d="M91.0187,91.6698h -6.0463" fill="none" stroke="black"/>
<path d="M97.065,82.8811h -12.0926" fill="none" stroke="black"/>
<path d="M91.0187,74.0924h -6.0463" fill="none" stroke="black"/>
<path d="M91.0187,65.3036h -6.0463" fill="none" stroke="black"/>
<path d="M91.0187,56.5149h -6.0463" fill="none" stroke="black"/>
<path d="M91.0187,47.7262h -6.0463" fill="none" stroke="black"/>
<path d="M97.065,38.9374h -12.0926" fill="none" stroke="black"/>
<text xml:space="preserve" x="73.8005" y="352.167" fill="black" font-size="16.5751" font-family="Helvetica">0</text>
<text xml:space="preserve" x="55.6782" y="308.078" fill="black" font-size="16.5751" font-family="Helvetica">100</text>
<text xml:space="preserve" x="55.6782" y="264.26" fill="black" font-size="16.5751" font-family="Helvetica">200</text>
<text xml:space="preserve" x="55.6782" y="220.172" fill="black" font-size="16.5751" font-family="Helvetica">300</text>
<text xml:space="preserve" x="55.6782" y="176.354" fill="black" font-size="16.5751" font-family="Helvetica">400</text>
<text xml:space="preserve" x="55.6782" y="132.265" fill="black" font-size="16.5751" font-family="Helvetica">500</text>
<text xml:space="preserve" x="55.6782" y="88.4474" fill="black" font-size="16.5751" font-family="Helvetica">600</text>
<text xml:space="preserve" x="55.6782" y="44.359" fill="black" font-size="16.5751" font-family="Helvetica">700</text>
<g transform="rotate(-90,41.0722,156.609)">
<text xml:space="preserve" x="41.0722" y="156.609" fill="black" font-size="16.5751" font-family="Helvetica">Events / 20 GeV</text>
</g>
<path d="M86.6661,345.908h -1.69364" fill="none" stroke="black"/>
<path d="M86.6661,345.908h 8.46821" fill="none" stroke="black"/>
<path d="M95.1343,346.449v -1.08193" fill="none" stroke="black"/>
<path d="M86.6661,345.908v -0.63482" fill="none" stroke="black"/>
<path d="M86.1251,345.273h 1.08193" fill="none" stroke="black"/>
<path d="M86.6661,345.908v 0.63482" fill="none" stroke="black"/>
<path d="M86.1251,346.543h 1.08193" fill="none" stroke="black"/>
<path d="M103.602,342.882h -8.46821" fill="none" stroke="black"/>
<path d="M95.1343,343.423v -1.08193" fill="none" stroke="black"/>
<path d="M103.602,342.882h 8.46821" fill="none" stroke="black"/>
<path d="M112.071,343.423v -1.08193" fill="none" stroke="black"/>
<path d="M103.602,342.882v -1.33319" fill="none" stroke="black"/>
<path d="M103.062,341.549h 1.08193" fill="none" stroke="black"/>
<path d="M103.602,342.882v 1.33319" fill="none" stroke="black"/>
<path d="M103.062,344.215h 1.08193" fill="none" stroke="black"/>
<path d="M120.539,339.698h -8.46821" fill="none" stroke="black"/>
<path d="M112.071,340.239v -1.08193" fill="none" stroke="black"/>
<path d="M120.539,339.698h 8.46821" fill="none" stroke="black"/>
<path d="M129.007,340.239v -1.08193" fill="none" stroke="black"/>
<path d="M120.539,339.698v -1.73963" fill="none" stroke="black"/>
<path d="M119.998,337.959h 1.08193" fill="none" stroke="black"/>
<path d="M120.539,339.698v 1.73963" fill="none" stroke="black"/>
<path d="M119.998,341.438h 1.08193" fill="none" stroke="black"/>
<path d="M137.475,337.554h -8.46821" fill="none" stroke="black"/>
<path d="M129.007,338.095v -1.08193" fill="none" stroke="black"/>
<path d="M137.475,337.554h 8.46821" fill="none" stroke="black"/>
<path d="M145.944,338.095v -1.08193" fill="none" stroke="black"/>
<path d="M137.475,337.554v -2.05092" fill="none" stroke="black"/>
<path d="M136.934,335.503h 1.08193" fill="none" stroke="black"/>
<path d="M137.475,337.554v 2.05092" fill="none" stroke="black"/>
<path d="M136.934,339.604h 1.08193" fill="none" stroke="black"/>
<path d="M154.412,335.145h -8.46821" fill="none" stroke="black"/>
<path d="M145.944,335.686v -1.08193" fill="none" stroke="black"/>
<path d="M154.412,335.145h 8.46821" fill="none" stroke="black"/>
<path d="M162.88,335.686v -1.08193" fill="none" stroke="black"/>
<path d="M154.412,335.145v -2.30782" fill="none" stroke="black"/>
<path d="M153.871,332.837h 1.08193" fill="none" stroke="black"/>
<path d="M154.412,335.145v 2.30782" fill="none" stroke="black"/>
<path d="M153.871,337.453h 1.08193" fill="none" stroke="black"/>
<path d="M171.348,330.785h -8.46821" fill="none" stroke="black"/>
<path d="M162.88,331.326v -1.08193" fill="none" stroke="black"/>
<path d="M171.348,330.785h 8.46821" fill="none" stroke="black"/>
<path d="M179.816,331.326v -1.08193" fill="none" stroke="black"/>
<path d="M171.348,330.785v -2.80485" fill="none" stroke="black"/>
<path d="M170.807,327.98h 1.08193" fill="none" stroke="black"/>
<path d="M171.348,330.785v 2.80485" fill="none" stroke="black"/>
<path d="M170.807,333.59h 1.08193" fill="none" stroke="black"/>
<path d="M188.285,321.853h -8.46821" fill="none" stroke="black"/>
<path d="M179.816,322.394v -1.08193" fill="none" stroke="black"/>
<path d="M188.285,321.853h 8.46821" fill="none" stroke="black"/>
<path d="M196.753,322.394v -1.08193" fill="none" stroke="black"/>
<path d="M188.285,321.853v -3.36244" fill="none" stroke="black"/>
<path d="M187.744,318.49h 1.08193" fill="none" stroke="black"/>
<path d="M188.285,321.853v 3.36244" fill="none" stroke="black"/>
<path d="M187.744,325.215h 1.08193" fill="none" stroke="black"/>
<path d="M205.221,303.947h -8.46821" fill="none" stroke="black"/>
<path d="M196.753,304.488v -1.08193" fill="none" stroke="black"/>
<path d="M205.221,303.947h 8.46821" fill="none" stroke="black"/>
<path d="M213.689,304.488v -1.08193" fill="none" stroke="black"/>
<path d="M205.221,303.947v -4.77517" fill="none" stroke="black"/>
<path d="M204.68,299.172h 1.08193" fill="none" stroke="black"/>
<path d="M205.221,303.947v 4.77517" fill="none" stroke="black"/>
<path d="M204.68,308.722h 1.08193" fill="none" stroke="black"/>
<path d="M222.157,286.543h -8.46821" fill="none" stroke="black"/>
<path d="M213.689,287.084v -1.08193" fill="none" stroke="black"/>
<path d="M222.157,286.543h 8.46821" fill="none" stroke="black"/>
<path d="M230.626,287.084v -1.08193" fill="none" stroke="black"/>
<path d="M222.157,286.543v -5.41378" fill="none" stroke="black"/>
<path d="M221.616,281.129h 1.08193" fill="none" stroke="black"/>
<path d="M222.157,286.543v 5.41378" fill="none" stroke="black"/>
<path d="M221.616,291.957h 1.08193" fill="none" stroke="black"/>
<path d="M239.094,259.971h -8.46821" fill="none" stroke="black"/>
<path d="M230.626,260.512v -1.08193" fill="none" stroke="black"/>
<path d="M239.094,259.971h 8.46821" fill="none" stroke="black"/>
<path d="M247.562,260.512v -1.08193" fill="none" stroke="black"/>
<path d="M239.094,259.971v -6.54686" fill="none" stroke="black"/>
<path d="M238.553,253.424h 1.08193" fill="none" stroke="black"/>
<path d="M239.094,259.971v 6.54686" fill="none" stroke="black"/>
<path d="M238.553,266.518h 1.08193" fill="none" stroke="black"/>
<path d="M256.03,214.182h -8.46821" fill="none" stroke="black"/>
<path d="M247.562,214.723v -1.08193" fill="none" stroke="black"/>
<path d="M256.03,214.182h 8.46821" fill="none" stroke="black"/>
<path d="M264.498,214.723v -1.08193" fill="none" stroke="black"/>
<path d="M256.03,214.182v -8.0568" fill="none" stroke="black"/>
<path d="M255.489,206.125h 1.08193" fill="none" stroke="black"/>
<path d="M256.03,214.182v 8.0568" fill="none" stroke="black"/>
<path d="M255.489,222.239h 1.08193" fill="none" stroke="black"/>
<path d="M272.967,170.063h -8.46821" fill="none" stroke="black"/>
<path d="M264.498,170.604v -1.08193" fill="none" stroke="black"/>
<path d="M272.967,170.063h 8.46821" fill="none" stroke="black"/>
<path d="M281.435,170.604v -1.08193" fill="none" stroke="black"/>
<path d="M272.967,170.063v -9.3824" fill="none" stroke="black"/>
<path d="M272.426,160.681h 1.08193" fill="none" stroke="black"/>
<path d="M272.967,170.063v 9.3824" fill="none" stroke="black"/>
<path d="M272.426,179.446h 1.08193" fill="none" stroke="black"/>
<path d="M289.903,167.354h -8.46821" fill="none" stroke="black"/>
<path d="M281.435,167.895v -1.08193" fill="none" stroke="black"/>
<path d="M289.903,167.354h 8.46821" fill="none" stroke="black"/>
<path d="M298.371,167.895v -1.08193" fill="none" stroke="black"/>
<path d="M289.903,167.354v -9.49851" fill="none" stroke="black"/>
<path d="M289.362,157.856h 1.08193" fill="none" stroke="black"/>
<path d="M289.903,167.354v 9.49851" fill="none" stroke="black"/>
<path d="M289.362,176.853h 1.08193" fill="none" stroke="black"/>
<path d="M306.839,190.522h -8.46821" fill="none" stroke="black"/>
<path d="M298.371,191.063v -1.08193" fill="none" stroke="black"/>
<path d="M306.839,190.522h 8.46821" fill="none" stroke="black"/>
<path d="M315.308,191.063v -1.08193" fill="none" stroke="black"/>
<path d="M306.839,190.522v -8.60616" fill="none" stroke="black"/>
<path d="M306.298,181.916h 1.08193" fill="none" stroke="black"/>
<path d="M306.839,190.522v 8.60616" fill="none" stroke="black"/>
<path d="M306.298,199.129h 1.08193" fill="none" stroke="black"/>
<path d="M323.776,215.001h -8.46821" fill="none" stroke="black"/>
<path d="M315.308,215.542v -1.08193" fill="none" stroke="black"/>
<path d="M323.776,215.001h 8.46821" fill="none" stroke="black"/>
<path d="M332.244,215.542v -1.08193" fill="none" stroke="black"/>
<path d="M323.776,215.001v -8.03856" fill="none" stroke="black"/>
<path d="M323.235,206.962h 1.08193" fill="none" stroke="black"/>
<path d="M323.776,215.001v 8.03856" fill="none" stroke="black"/>
<path d="M323.235,223.04h 1.08193" fill="none" stroke="black"/>
<path d="M340.712,259.306h -8.46821" fill="none" stroke="black"/>
<path d="M332.244,259.847v -1.08193" fill="none" stroke="black"/>
<path d="M340.712,259.306h 8.46821" fill="none" stroke="black"/>
<path d="M349.18,259.847v -1.08193" fill="none" stroke="black"/>
<path d="M340.712,259.306v -6.65585" fill="none" stroke="black"/>
<path d="M340.171,252.65h 1.08193" fill="none" stroke="black"/>
<path d="M340.712,259.306v 6.65585" fill="none" stroke="black"/>
<path d="M340.171,265.962h 1.08193" fill="none" stroke="black"/>
<path d="M357.649,290.242h -8.46821" fill="none" stroke="black"/>
<path d="M349.18,290.783v -1.08193" fill="none" stroke="black"/>
<path d="M357.649,290.242h 8.46821" fill="none" stroke="black"/>
<path d="M366.117,290.783v -1.08193" fill="none" stroke="black"/>
<path d="M357.649,290.242v -5.20674" fill="none" stroke="black"/>
<path d="M357.108,285.035h 1.08193" fill="none" stroke="black"/>
<path d="M357.649,290.242v 5.20674" fill="none" stroke="black"/>
<path d="M357.108,295.449h 1.08193" fill="none" stroke="black"/>
<path d="M374.585,315.598h -8.46821" fill="none" stroke="black"/>
<path d="M366.117,316.139v -1.08193" fill="none" stroke="black"/>
<path d="M374.585,315.598h 8.46821" fill="none" stroke="black"/>
<path d="M383.053,316.139v -1.08193" fill="none" stroke="black"/>
<path d="M374.585,315.598v -3.92145" fill="none" stroke="black"/>
<path d="M374.044,311.676h 1.08193" fill="none" stroke="black"/>
<path d="M374.585,315.598v 3.92145" fill="none" stroke="black"/>
<path d="M374.044,319.519h 1.08193" fill="none" stroke="black"/>
<path d="M391.522,331.989h -8.46821" fill="none" stroke="black"/>
<path d="M383.053,332.53v -1.08193" fill="none" stroke="black"/>
<path d="M391.522,331.989h 8.46821" fill="none" stroke="black"/>
<path d="M399.99,332.53v -1.08193" fill="none" stroke="black"/>
<path d="M391.522,331.989v -2.72065" fill="none" stroke="black"/>
<path d="M390.981,329.268h 1.08193" fill="none" stroke="black"/>
<path d="M391.522,331.989v 2.72065" fill="none" stroke="black"/>
<path d="M390.981,334.71h 1.08193" fill="none" stroke="black"/>
<path d="M408.458,338.59h -8.46821" fill="none" stroke="black"/>
<path d="M399.99,339.131v -1.08193" fill="none" stroke="black"/>
<path d="M408.458,338.59h 8.46821" fill="none" stroke="black"/>
<path d="M416.926,339.131v -1.08193" fill="none" stroke="black"/>
<path d="M408.458,338.59v -1.92616" fill="none" stroke="black"/>
<path d="M407.917,336.663h 1.08193" fill="none" stroke="black"/>
<path d="M408.458,338.59v 1.92616" fill="none" stroke="black"/>
<path d="M407.917,340.516h 1.08193" fill="none" stroke="black"/>
<path d="M425.394,337.517h -8.46821" fill="none" stroke="black"/>
<path d="M416.926,338.058v -1.08193" fill="none" stroke="black"/>
<path d="M425.394,337.517h 8.46821" fill="none" stroke="black"/>
<path d="M433.863,338.058v -1.08193" fill="none" stroke="black"/>
<path d="M425.394,337.517v -2.17674" fill="none" stroke="black"/>
<path d="M424.853,335.34h 1.08193" fill="none" stroke="black"/>
<path d="M425.394,337.517v 2.17674" fill="none" stroke="black"/>
<path d="M424.853,339.694h 1.08193" fill="none" stroke="black"/>
<path d="M442.331,343.857h -8.46821" fill="none" stroke="black"/>
<path d="M433.863,344.398v -1.08193" fill="none" stroke="black"/>
<path d="M442.331,343.857h 8.46821" fill="none" stroke="black"/>
<path d="M450.799,344.398v -1.08193" fill="none" stroke="black"/>
<path d="M442.331,343.857v -1.06506" fill="none" stroke="black"/>
<path d="M441.79,342.792h 1.08193" fill="none" stroke="black"/>
<path d="M442.331,343.857v 1.06506" fill="none" stroke="black"/>
<path d="M441.79,344.922h 1.08193" fill="none" stroke="black"/>
<path d="M459.267,341.153h -8.46821" fill="none" stroke="black"/>
<path d="M450.799,341.694v -1.08193" fill="none" stroke="black"/>
<path d="M459.267,341.153h 8.46821" fill="none" stroke="black"/>
<path d="M467.735,341.694v -1.08193" fill="none" stroke="black"/>
<path d="M459.267,341.153v -1.60954" fill="none" stroke="black"/>
<path d="M458.726,339.544h 1.08193" fill="none" stroke="black"/>
<path d="M459.267,341.153v 1.60954" fill="none" stroke="black"/>
<path d="M458.726,342.763h 1.08193" fill="none" stroke="black"/>
<path d="M476.204,346.065h -8.46821" fill="none" stroke="black"/>
<path d="M467.735,346.543v -1.01941" fill="none" stroke="black"/>
<path d="M476.204,346.065h 8.46821" fill="none" stroke="black"/>
<path d="M484.672,346.543v -1.01941" fill="none" stroke="black"/>
<path d="M476.204,346.065v -0.478443" fill="none" stroke="black"/>
<path d="M475.663,345.586h 1.08193" fill="none" stroke="black"/>
<path d="M476.204,346.065v 0.478443" fill="none" stroke="black"/>
<path d="M475.663,346.543h 1.08193" fill="none" stroke="black"/>
<g stroke="black" stroke-width="1" fill="black">
<circle cx="86.6661" cy="345.908" r="2.16385"/>
<circle cx="103.602" cy="342.882" r="2.16385"/>
<circle cx="120.539" cy="339.698" r="2.16385"/>
<circle cx="137.475" cy="337.554" r="2.16385"/>
<circle cx="154.412" cy="335.145" r="2.16385"/>
<circle cx="171.348" cy="330.785" r="2.16385"/>
<circle cx="188.285" cy="321.853" r="2.16385"/>
<circle cx="205.221" cy="303.947" r="2.16385"/>
<circle cx="222.157" cy="286.543" r="2.16385"/>
<circle cx="239.094" cy="259.971" r="2.16385"/>
<circle cx="256.03" cy="214.182" r="2.16385"/>
<circle cx="272.967" cy="170.063" r="2.16385"/>
<circle cx="289.903" cy="167.354" r="2.16385"/>
<circle cx="306.839" cy="190.522" r="2.16385"/>
<circle cx="323.776" cy="215.001" r="2.16385"/>
<circle cx="340.712" cy="259.306" r="2.16385"/>
<circle cx="357.649" cy="290.242" r="2.16385"/>
<circle cx="374.585" cy="315.598" r="2.16385"/>
<circle cx="391.522" cy="331.989" r="2.16385"/>
<circle cx="408.458" cy="338.59" r="2.16385"/>
<circle cx="425.394" cy="337.517" r="2.16385"/>
<circle cx="442.331" cy="343.857" r="2.16385"/>
<circle cx="459.267" cy="341.153" r="2.16385"/>
<circle cx="476.204" cy="346.065" r="2.16385"/>
</g>
<path d="M90.9002,343.339l 3.81069, -0.245716l 3.81069, -0.266515l 3.81069, -0.288993l 3.81069, -0.313304l 3.81069, -0.339625l 3.81069, -0.368161l 3.81069, -0.399142l 3.81069, -0.432834l 3.81069, -0.469537l 3.81069, -0.509593l 3.81069, -0.553389l
 3.81069, -0.601356l 3.81069, -0.65398l 3.81069, -0.711805l 3.81069, -0.775431l 3.81069, -0.84553l 3.81069, -0.922848l 3.81069, -1.00822l 3.81069, -1.10258l 3.81069, -1.20699l 3.81069, -1.3227l 3.81069, -1.45116l 3.81069, -1.59415l 3.81069, -1.75385l
 3.81069, -1.93309l 3.81069, -2.13553l 3.81069, -2.36612l 3.81069, -2.63168l 3.81069, -2.94175l 3.81069, -3.30997l 3.81069, -3.75628l 3.81069, -4.31032l 3.81069, -5.01723l 3.81069, -5.94759l 3.81069, -6.849l 3.81069, -7.43872l 3.81069, -7.99206l
 3.81069, -8.48763l 3.81069, -8.90163l 3.81069, -9.20984l 3.81069, -9.38873l 3.81069, -9.41686l 3.81069, -9.27612l 3.81069, -8.95307l 3.81069, -8.44009l 3.81069, -7.73632l 3.81069, -6.84821l 3.81069, -5.78975l 3.81069, -4.58225l 3.81069, -3.25362l
 1.90535, -1.09976l 1.90535, -0.737595l 1.90535, -0.370378l 1.90535, -0.000616518l 1.90535, 0.369149l 1.90535, 0.736378l 3.81069, 2.55181l 3.81069, 3.92888l 3.81069, 5.20102l 3.81069, 6.33735l 3.81069, 7.31313l 3.81069, 8.11066l 3.81069, 8.71969l
 3.81069, 9.13747l 3.81069, 9.36833l 3.81069, 9.42292l 3.81069, 9.31715l 3.81069, 9.07098l 3.81069, 8.70704l 3.81069, 8.24936l 3.81069, 7.72209l 3.81069, 7.14845l 3.81069, 6.54981l 3.81069, 5.94505l 3.81069, 5.35015l 3.81069, 4.77797l 3.81069,
 4.23826l 3.81069, 3.73784l 3.81069, 3.28083l 3.81069, 2.86909l 3.81069, 2.50256l 3.81069, 2.17971l 3.81069, 1.89794l 3.81069, 1.65393l 3.81069, 1.44396l 3.81069, 1.26415l 3.81069, 1.11069l 3.81069, 0.979924l 3.81069, 0.86852l 3.81069, 0.773467l
 3.81069, 0.69212l 3.81069, 0.622193l 3.81069, 0.561746l 3.81069, 0.509152l 3.81069, 0.463059l 3.81069, 0.422361l 3.81069, 0.386155l 3.81069, 0.353711l 3.81069, 0.32444l 3.81069, 0.29787l 3.81069, 0.27362l 3.81069, 0.251386l 3.81069, 0.230923"
 fill="none" stroke="#ff0000" stroke-width="3"/>
<path d="M90.9002,343.552l 3.81069, -0.238576l 3.81069, -0.24811l 3.81069, -0.274641l 3.81069, -0.28123l 3.81069, -0.345868l 3.81069, -0.337753l 3.81069, -0.363847l 3.81069, -0.412863l 3.81069, -0.455022l 3.81069, -0.471109l 3.81069, -0.533202l
 3.81069, -0.570456l 3.81069, -0.624024l 3.81069, -0.689759l 3.81069, -0.722159l 3.81069, -0.79969l 3.81069, -0.850789l 3.81069, -0.926118l 3.81069, -1.01359l 3.81069, -1.13401l 3.81069, -1.23974l 3.81069, -1.36597l 3.81069, -1.49811l 3.81069,
 -1.61611l 3.81069, -1.82034l 3.81069, -1.97232l 3.81069, -2.15324l 3.81069, -2.45681l 3.81069, -2.75911l 3.81069, -3.04849l 3.81069, -3.53723l 3.81069, -4.13572l 3.81069, -4.98364l 3.81069, -5.84536l 3.81069, -6.47655l 3.81069, -7.34497l 3.81069,
 -7.89088l 3.81069, -8.52132l 3.81069, -8.90316l 3.81069, -9.31609l 3.81069, -9.57964l 3.81069, -9.54917l 3.81069, -9.47823l 3.81069, -8.9862l 3.81069, -8.6022l 3.81069, -8.09802l 3.81069, -7.03208l 3.81069, -5.99362l 3.81069, -4.59785l 3.81069,
 -3.32186l 1.90535, -1.10689l 1.90535, -0.752571l 1.90535, -0.380868l 1.90535, -0.0313926l 1.90535, 0.327922l 1.90535, 0.854529l 3.81069, 2.62973l 3.81069, 3.9608l 3.81069, 5.41398l 3.81069, 6.39488l 3.81069, 7.43525l 3.81069, 8.27455l 3.81069,
 8.8471l 3.81069, 9.09734l 3.81069, 9.45068l 3.81069, 9.50613l 3.81069, 9.45258l 3.81069, 9.08882l 3.81069, 8.80287l 3.81069, 8.20816l 3.81069, 7.62973l 3.81069, 7.09165l 3.81069, 6.3882l 3.81069, 5.81747l 3.81069, 5.25921l 3.81069, 4.71481l 3.81069,
 4.0855l 3.81069, 3.64618l 3.81069, 3.10719l 3.81069, 2.81283l 3.81069, 2.38241l 3.81069, 2.07083l 3.81069, 1.77709l 3.81069, 1.54646l 3.81069, 1.34128l 3.81069, 1.20673l 3.81069, 1.054l 3.81069, 0.861416l 3.81069, 0.800208l 3.81069, 0.712606l
 3.81069, 0.632385l 3.81069, 0.557924l 3.81069, 0.504097l 3.81069, 0.427265l 3.81069, 0.429451l 3.81069, 0.369445l 3.81069, 0.321937l 3.81069, 0.309225l 3.81069, 0.280461l 3.81069, 0.252576l 3.81069, 0.234246l 3.81069, 0.208919l 3.81069, 0.21007v
 -0.77988l -3.81069, -0.251463l -3.81069, -0.257879l -3.81069, -0.27988l -3.81069, -0.316487l -3.81069, -0.352055l -3.81069, -0.377023l -3.81069, -0.413904l -3.81069, -0.436696l -3.81069, -0.503831l -3.81069, -0.516176l -3.81069, -0.544915l -3.81069,
 -0.611949l -3.81069, -0.709845l -3.81069, -0.770878l -3.81069, -0.84455l -3.81069, -0.992844l -3.81069, -1.12013l -3.81069, -1.23786l -3.81069, -1.41264l -3.81069, -1.63318l -3.81069, -1.93287l -3.81069, -2.1486l -3.81069, -2.57016l -3.81069,
 -2.80887l -3.81069, -3.34694l -3.81069, -3.76261l -3.81069, -4.29937l -3.81069, -4.79656l -3.81069, -5.45637l -3.81069, -6.18425l -3.81069, -6.70155l -3.81069, -7.24714l -3.81069, -7.8367l -3.81069, -8.43795l -3.81069, -8.99781l -3.81069, -9.40689l
 -3.81069, -9.62444l -3.81069, -9.69385l -3.81069, -9.66103l -3.81069, -9.43945l -3.81069, -9.05367l -3.81069, -8.25316l -3.81069, -7.5978l -3.81069, -6.55554l -3.81069, -5.25411l -3.81069, -3.80332l -3.81069, -2.59966l -1.90535, -0.750659l -1.90535,
 -0.3689l -1.90535, 0.0664358l -1.90535, 0.326314l -1.90535, 0.801814l -1.90535, 1.12901l -3.81069, 3.48827l -3.81069, 4.74533l -3.81069, 6.08166l -3.81069, 7.14734l -3.81069, 7.84677l -3.81069, 8.59243l -3.81069, 9.21545l -3.81069, 9.33658l
 -3.81069, 9.63492l -3.81069, 9.62015l -3.81069, 9.62323l -3.81069, 8.97868l -3.81069, 8.81758l -3.81069, 8.17179l -3.81069, 7.61978l -3.81069, 6.79864l -3.81069, 5.8635l -3.81069, 5.35073l -3.81069, 4.30401l -3.81069, 3.71286l -3.81069, 3.14333l
 -3.81069, 2.59864l -3.81069, 2.60996l -3.81069, 2.17064l -3.81069, 2.17868l -3.81069, 1.85757l -3.81069, 1.83171l -3.81069, 1.60759l -3.81069, 1.41422l -3.81069, 1.33155l -3.81069, 1.21895l -3.81069, 1.16288l -3.81069, 1.04074l -3.81069, 0.946423l
 -3.81069, 0.880703l -3.81069, 0.77281l -3.81069, 0.732288l -3.81069, 0.702362l -3.81069, 0.584828l -3.81069, 0.554957l -3.81069, 0.506155l -3.81069, 0.457527l -3.81069, 0.39866l -3.81069, 0.408545l -3.81069, 0.407256l -3.81069, 0.362979l -3.81069,
 0.336094l -3.81069, 0.279057l -3.81069, 0.258936l -3.81069, 0.240345z" fill="#00ff00"/>
<path d="M90.9002,344.909l 3.81069, -0.0751809l 3.81069, -0.0804656l 3.81069, -0.0862562l 3.81069, -0.0926146l 3.81069, -0.0996121l 3.81069, -0.107331l 3.81069, -0.115866l 3.81069, -0.125329l 3.81069, -0.135848l 3.81069, -0.147575l 3.81069,
 -0.160688l 3.81069, -0.175398l 3.81069, -0.191956l 3.81069, -0.210659l 3.81069, -0.231867l 3.81069, -0.256013l 3.81069, -0.283622l 3.81069, -0.315339l 3.81069, -0.351954l 3.81069, -0.39445l 3.81069, -0.444054l 3.81069, -0.502315l 3.81069, -0.571205l
 3.81069, -0.653256l 3.81069, -0.751765l 3.81069, -0.871067l 3.81069, -1.01694l 3.81069, -1.19721l 3.81069, -1.42262l 3.81069, -1.7082l 3.81069, -2.07543l 3.81069, -2.55567l 3.81069, -3.19587l 1.90535, -1.90681l 1.90535, -2.1617l 3.81069, -4.92315l
 3.81069, -5.47898l 3.81069, -6.01316l 3.81069, -6.50607l 3.81069, -6.93544l 3.81069, -7.27835l 3.81069, -7.51229l 3.81069, -7.61641l 3.81069, -7.57285l 3.81069, -7.36797l 3.81069, -6.99347l 3.81069, -6.44735l 3.81069, -5.73448l 3.81069, -4.86682l
 1.90535, -2.06466l 1.90535, -1.79862l 1.90535, -1.51958l 1.90535, -1.22944l 1.90535, -0.930275l 1.90535, -0.624226l 1.90535, -0.313541l 1.90535, -0.00052196l 1.90535, 0.312501l 1.90535, 0.623198l 1.90535, 0.929266l 1.90535, 1.22846l 1.90535,
 1.51863l 1.90535, 1.79771l 3.81069, 4.37893l 3.81069, 5.31753l 3.81069, 6.10999l 3.81069, 6.74081l 3.81069, 7.20158l 3.81069, 7.49089l 3.81069, 7.61399l 3.81069, 7.58195l 3.81069, 7.41069l 3.81069, 7.11971l 3.81069, 6.73084l 3.81069, 6.26696l
 3.81069, 5.75079l 3.81069, 5.20387l 3.81069, 4.64578l 3.81069, 4.09349l 3.81069, 3.56103l 3.81069, 3.05933l 3.81069, 2.59627l 3.81069, 2.1769l 3.81069, 1.80373l 3.81069, 1.47713l 3.81069, 1.19574l 3.81069, 0.95694l 3.81069, 0.757197l 3.81069,
 0.592451l 3.81069, 0.45841l 3.81069, 0.350791l 3.81069, 0.265501l 3.81069, 0.198764l 3.81069, 0.147193l 3.81069, 0.10783l 3.81069, 0.0781472l 3.81069, 0.0560316l 3.81069, 0.0397479l 3.81069, 0.027898l 3.81069, 0.0193744l 3.81069, 0.0399514h 26.6748"
 fill="none" stroke="black" stroke-width="3" stroke-dasharray=" 3, 3"/>
<path d="M90.9002,346.543h 3.81069l 3.81069, -0.0310912l 3.81069, -0.00992569l 3.81069, -0.0127909l 3.81069, -0.0163837l 3.81069, -0.0208586l 3.81069, -0.0263945l 3.81069, -0.0331962l 3.81069, -0.0414954l 3.81069, -0.051551l 3.81069, -0.0636486l
 3.81069, -0.0780986l 3.81069, -0.095233l 3.81069, -0.115401l 3.81069, -0.13896l 3.81069, -0.166271l 3.81069, -0.197683l 3.81069, -0.233524l 3.81069, -0.274082l 3.81069, -0.319592l 3.81069, -0.370213l 3.81069, -0.42601l 3.81069, -0.486935l 3.81069,
 -0.552806l 3.81069, -0.623287l 3.81069, -0.697872l 3.81069, -0.775874l 3.81069, -0.856412l 3.81069, -0.938412l 3.81069, -1.02061l 3.81069, -1.10155l 3.81069, -1.17962l 3.81069, -1.25308l 3.81069, -1.32008l 3.81069, -1.37872l 3.81069, -1.42707l
 3.81069, -1.46328l 3.81069, -1.48558l 3.81069, -1.49237l 3.81069, -1.4823l 3.81069, -1.45429l 3.81069, -1.4076l 3.81069, -1.34187l 3.81069, -1.25718l 3.81069, -1.15403l 3.81069, -1.03336l 3.81069, -0.89657l 3.81069, -0.745472l 3.81069, -0.582253l
 3.81069, -0.409428l 3.81069, -0.229778l 3.81069, -0.046273l 3.81069, 0.138011l 3.81069, 0.319975l 3.81069, 0.496585l 3.81069, 0.664955l 3.81069, 0.82243l 3.81069, 0.966647l 3.81069, 1.0956l 3.81069, 1.20769l 3.81069, 1.30174l 3.81069, 1.37701l
 3.81069, 1.43323l 3.81069, 1.47055l 3.81069, 1.4895l 3.81069, 1.49102l 3.81069, 1.47631l 3.81069, 1.44687l 3.81069, 1.40438l 3.81069, 1.35067l 3.81069, 1.28762l 3.81069, 1.21716l 3.81069, 1.14118l 3.81069, 1.06146l 3.81069, 0.979708l 3.81069,
 0.897441l 3.81069, 0.816023l 3.81069, 0.736626l 3.81069, 0.660229l 3.81069, 0.587615l 3.81069, 0.519379l 3.81069, 0.455941l 3.81069, 0.397557l 3.81069, 0.344341l 3.81069, 0.296282l 3.81069, 0.253265l 3.81069, 0.21509l 3.81069, 0.181495l 3.81069,
 0.152169l 3.81069, 0.126773l 3.81069, 0.104949l 3.81069, 0.0863373l 3.81069, 0.0705833l 3.81069, 0.0573458l 3.81069, 0.0463031l 3.81069, 0.0371569l 3.81069, 0.0296346l 3.81069, 0.023491l 3.81069, 0.0185077l 3.81069, 0.0144932" fill="none"
 stroke="#84c1a3" stroke-width="3" stroke-dasharray=" 3, 3"/>
<path d="M90.9002,344.99l 3.81069, -0.164665l 3.81069, -0.178394l 3.81069, -0.192811l 3.81069, -0.207898l 3.81069, -0.223629l 3.81069, -0.239971l 3.81069, -0.256881l 3.81069, -0.274309l 3.81069, -0.292194l 3.81069, -0.310467l 3.81069, -0.329052l
 3.81069, -0.347859l 3.81069, -0.366792l 3.81069, -0.385745l 3.81069, -0.404605l 3.81069, -0.423247l 3.81069, -0.441543l 3.81069, -0.459354l 3.81069, -0.476539l 3.81069, -0.49295l 3.81069, -0.508434l 3.81069, -0.52284l 3.81069, -0.536011l 3.81069,
 -0.547793l 3.81069, -0.558034l 3.81069, -0.566587l 3.81069, -0.573307l 3.81069, -0.57806l 3.81069, -0.580718l 3.81069, -0.581165l 3.81069, -0.579298l 3.81069, -0.575027l 3.81069, -0.568277l 3.81069, -0.55899l 3.81069, -0.547128l 3.81069, -0.532669l
 3.81069, -0.515614l 3.81069, -0.495984l 3.81069, -0.473818l 3.81069, -0.449182l 3.81069, -0.422158l 3.81069, -0.392853l 3.81069, -0.361391l 3.81069, -0.327919l 3.81069, -0.292601l 3.81069, -0.255617l 3.81069, -0.217165l 3.81069, -0.177457l 3.81069,
 -0.136715l 3.81069, -0.095173l 3.81069, -0.0530719l 3.81069, -0.0106584l 3.81069, 0.031818l 3.81069, 0.0741069l 3.81069, 0.11596l 3.81069, 0.157133l 3.81069, 0.197388l 3.81069, 0.236498l 3.81069, 0.274243l 3.81069, 0.310421l 3.81069, 0.344841l
 3.81069, 0.37733l 3.81069, 0.407734l 3.81069, 0.435917l 3.81069, 0.461763l 3.81069, 0.485177l 3.81069, 0.506086l 3.81069, 0.524437l 3.81069, 0.540199l 3.81069, 0.553363l 3.81069, 0.563938l 3.81069, 0.571954l 3.81069, 0.577461l 3.81069, 0.580524l
 3.81069, 0.581226l 3.81069, 0.579663l 3.81069, 0.575946l 3.81069, 0.570196l 3.81069, 0.562545l 3.81069, 0.553133l 3.81069, 0.542104l 3.81069, 0.529611l 3.81069, 0.515806l 3.81069, 0.500843l 3.81069, 0.484878l 3.81069, 0.468063l 3.81069, 0.450547l
 3.81069, 0.432477l 3.81069, 0.413992l 3.81069, 0.395226l 3.81069, 0.376305l 3.81069, 0.357348l 3.81069, 0.338465l 3.81069, 0.319757l 3.81069, 0.301317l 3.81069, 0.283228l 3.81069, 0.265563l 3.81069, 0.248386l 3.81069, 0.231754l 3.81069, 0.215711"
 fill="none" stroke="#ddba87" stroke-width="3" stroke-dasharray=" 3, 3"/>
<path d="M90.9002,343.339l 3.81069, -0.245716l 3.81069, -0.266515l 3.81069, -0.288993l 3.81069, -0.313304l 3.81069, -0.339625l 3.81069, -0.368161l 3.81069, -0.399142l 3.81069, -0.432834l 3.81069, -0.469537l 3.81069, -0.509593l 3.81069, -0.553389l
 3.81069, -0.601356l 3.81069, -0.65398l 3.81069, -0.711805l 3.81069, -0.775431l 3.81069, -0.84553l 3.81069, -0.922848l 3.81069, -1.00822l 3.81069, -1.10258l 3.81069, -1.20699l 3.81069, -1.3227l 3.81069, -1.45116l 3.81069, -1.59415l 3.81069, -1.75385l
 3.81069, -1.93309l 3.81069, -2.13553l 3.81069, -2.36612l 3.81069, -2.63168l 3.81069, -2.94175l 3.81069, -3.30997l 3.81069, -3.75628l 3.81069, -4.31032l 3.81069, -5.01723l 3.81069, -5.94759l 3.81069, -6.849l 3.81069, -7.43872l 3.81069, -7.99206l
 3.81069, -8.48763l 3.81069, -8.90163l 3.81069, -9.20984l 3.81069, -9.38873l 3.81069, -9.41686l 3.81069, -9.27612l 3.81069, -8.95307l 3.81069, -8.44009l 3.81069, -7.73632l 3.81069, -6.84821l 3.81069, -5.78975l 3.81069, -4.58225l 3.81069, -3.25362l
 1.90535, -1.09976l 1.90535, -0.737595l 1.90535, -0.370378l 1.90535, -0.000616518l 1.90535, 0.369149l 1.90535, 0.736378l 3.81069, 2.55181l 3.81069, 3.92888l 3.81069, 5.20102l 3.81069, 6.33735l 3.81069, 7.31313l 3.81069, 8.11066l 3.81069, 8.71969l
 3.81069, 9.13747l 3.81069, 9.36833l 3.81069, 9.42292l 3.81069, 9.31715l 3.81069, 9.07098l 3.81069, 8.70704l 3.81069, 8.24936l 3.81069, 7.72209l 3.81069, 7.14845l 3.81069, 6.54981l 3.81069, 5.94505l 3.81069, 5.35015l 3.81069, 4.77797l 3.81069,
 4.23826l 3.81069, 3.73784l 3.81069, 3.28083l 3.81069, 2.86909l 3.81069, 2.50256l 3.81069, 2.17971l 3.81069, 1.89794l 3.81069, 1.65393l 3.81069, 1.44396l 3.81069, 1.26415l 3.81069, 1.11069l 3.81069, 0.979924l 3.81069, 0.86852l 3.81069, 0.773467l
 3.81069, 0.69212l 3.81069, 0.622193l 3.81069, 0.561746l 3.81069, 0.509152l 3.81069, 0.463059l 3.81069, 0.422361l 3.81069, 0.386155l 3.81069, 0.353711l 3.81069, 0.32444l 3.81069, 0.29787l 3.81069, 0.27362l 3.81069, 0.251386l 3.81069, 0.230923"
 fill="none" stroke="#ff0000" stroke-width="3"/>
<path d="M86.6661,345.908h -1.69364" fill="none" stroke="black"/>
<path d="M86.6661,345.908h 8.46821" fill="none" stroke="black"/>
<path d="M95.1343,346.449v -1.08193" fill="none" stroke="black"/>
<path d="M86.6661,345.908v -0.63482" fill="none" stroke="black"/>
<path d="M86.1251,345.273h 1.08193" fill="none" stroke="black"/>
<path d="M86.6661,345.908v 0.63482" fill="none" stroke="black"/>
<path d="M86.1251,346.543h 1.08193" fill="none" stroke="black"/>
<path d="M103.602,342.882h -8.46821" fill="none" stroke="black"/>
<path d="M95.1343,343.423v -1.08193" fill="none" stroke="black"/>
<path d="M103.602,342.882h 8.46821" fill="none" stroke="black"/>
<path d="M112.071,343.423v -1.08193" fill="none" stroke="black"/>
<path d="M103.602,342.882v -1.33319" fill="none" stroke="black"/>
<path d="M103.062,341.549h 1.08193" fill="none" stroke="black"/>
<path d="M103.602,342.882v 1.33319" fill="none" stroke="black"/>
<path d="M103.062,344.215h 1.08193" fill="none" stroke="black"/>
<path d="M120.539,339.698h -8.46821" fill="none" stroke="black"/>
<path d="M112.071,340.239v -1.08193" fill="none" stroke="black"/>
<path d="M120.539,339.698h 8.46821" fill="none" stroke="black"/>
<path d="M129.007,340.239v -1.08193" fill="none" stroke="black"/>
<path d="M120.539,339.698v -1.73963" fill="none" stroke="black"/>
<path d="M119.998,337.959h 1.08193" fill="none" stroke="black"/>
<path d="M120.539,339.698v 1.73963" fill="none" stroke="black"/>
<path d="M119.998,341.438h 1.08193" fill="none" stroke="black"/>
<path d="M137.475,337.554h -8.46821" fill="none" stroke="black"/>
<path d="M129.007,338.095v -1.08193" fill="none" stroke="black"/>
<path d="M137.475,337.554h 8.46821" fill="none" stroke="black"/>
<path d="M145.944,338.095v -1.08193" fill="none" stroke="black"/>
<path d="M137.475,337.554v -2.05092" fill="none" stroke="black"/>
<path d="M136.934,335.503h 1.08193" fill="none" stroke="black"/>
<path d="M137.475,337.554v 2.05092" fill="none" stroke="black"/>
<path d="M136.934,339.604h 1.08193" fill="none" stroke="black"/>
<path d="M154.412,335.145h -8.46821" fill="none" stroke="black"/>
<path d="M145.944,335.686v -1.08193" fill="none" stroke="black"/>
<path d="M154.412,335.145h 8.46821" fill="none" stroke="black"/>
<path d="M162.88,335.686v -1.08193" fill="none" stroke="black"/>
<path d="M154.412,335.145v -2.30782" fill="none" stroke="black"/>
<path d="M153.871,332.837h 1.08193" fill="none" stroke="black"/>
<path d="M154.412,335.145v 2.30782" fill="none" stroke="black"/>
<path d="M153.871,337.453h 1.08193" fill="none" stroke="black"/>
<path d="M171.348,330.785h -8.46821" fill="none" stroke="black"/>
<path d="M162.88,331.326v -1.08193" fill="none" stroke="black"/>
<path d="M171.348,330.785h 8.46821" fill="none" stroke="black"/>
<path d="M179.816,331.326v -1.08193" fill="none" stroke="black"/>
<path d="M171.348,330.785v -2.80485" fill="none" stroke="black"/>
<path d="M170.807,327.98h 1.08193" fill="none" stroke="black"/>
<path d="M171.348,330.785v 2.80485" fill="none" stroke="black"/>
<path d="M170.807,333.59h 1.08193" fill="none" stroke="black"/>
<path d="M188.285,321.853h -8.46821" fill="none" stroke="black"/>
<path d="M179.816,322.394v -1.08193" fill="none" stroke="black"/>
<path d="M188.285,321.853h 8.46821" fill="none" stroke="black"/>
<path d="M196.753,322.394v -1.08193" fill="none" stroke="black"/>
<path d="M188.285,321.853v -3.36244" fill="none" stroke="black"/>
<path d="M187.744,318.49h 1.08193" fill="none" stroke="black"/>
<path d="M188.285,321.853v 3.36244" fill="none" stroke="black"/>
<path d="M187.744,325.215h 1.08193" fill="none" stroke="black"/>
<path d="M205.221,303.947h -8.46821" fill="none" stroke="black"/>
<path d="M196.753,304.488v -1.08193" fill="none" stroke="black"/>
<path d="M205.221,303.947h 8.46821" fill="none" stroke="black"/>
<path d="M213.689,304.488v -1.08193" fill="none" stroke="black"/>
<path d="M205.221,303.947v -4.77517" fill="none" stroke="black"/>
<path d="M204.68,299.172h 1.08193" fill="none" stroke="black"/>
<path d="M205.221,303.947v 4.77517" fill="none" stroke="black"/>
<path d="M204.68,308.722h 1.08193" fill="none" stroke="black"/>
<path d="M222.157,286.543h -8.46821" fill="none" stroke="black"/>
<path d="M213.689,287.084v -1.08193" fill="none" stroke="black"/>
<path d="M222.157,286.543h 8.46821" fill="none" stroke="black"/>
<path d="M230.626,287.084v -1.08193" fill="none" stroke="black"/>
<path d="M222.157,286.543v -5.41378" fill="none" stroke="black"/>
<path d="M221.616,281.129h 1.08193" fill="none" stroke="black"/>
<path d="M222.157,286.543v 5.41378" fill="none" stroke="black"/>
<path d="M221.616,291.957h 1.08193" fill="none" stroke="black"/>
<path d="M239.094,259.971h -8.46821" fill="none" stroke="black"/>
<path d="M230.626,260.512v -1.08193" fill="none" stroke="black"/>
<path d="M239.094,259.971h 8.46821" fill="none" stroke="black"/>
<path d="M247.562,260.512v -1.08193" fill="none" stroke="black"/>
<path d="M239.094,259.971v -6.54686" fill="none" stroke="black"/>
<path d="M238.553,253.424h 1.08193" fill="none" stroke="black"/>
<path d="M239.094,259.971v 6.54686" fill="none" stroke="black"/>
<path d="M238.553,266.518h 1.08193" fill="none" stroke="black"/>
<path d="M256.03,214.182h -8.46821" fill="none" stroke="black"/>
<path d="M247.562,214.723v -1.08193" fill="none" stroke="black"/>
<path d="M256.03,214.182h 8.46821" fill="none" stroke="black"/>
<path d="M264.498,214.723v -1.08193" fill="none" stroke="black"/>
<path d="M256.03,214.182v -8.0568" fill="none" stroke="black"/>
<path d="M255.489,206.125h 1.08193" fill="none" stroke="black"/>
<path d="M256.03,214.182v 8.0568" fill="none" stroke="black"/>
<path d="M255.489,222.239h 1.08193" fill="none" stroke="black"/>
<path d="M272.967,170.063h -8.46821" fill="none" stroke="black"/>
<path d="M264.498,170.604v -1.08193" fill="none" stroke="black"/>
<path d="M272.967,170.063h 8.46821" fill="none" stroke="black"/>
<path d="M281.435,170.604v -1.08193" fill="none" stroke="black"/>
<path d="M272.967,170.063v -9.3824" fill="none" stroke="black"/>
<path d="M272.426,160.681h 1.08193" fill="none" stroke="black"/>
<path d="M272.967,170.063v 9.3824" fill="none" stroke="black"/>
<path d="M272.426,179.446h 1.08193" fill="none" stroke="black"/>
<path d="M289.903,167.354h -8.46821" fill="none" stroke="black"/>
<path d="M281.435,167.895v -1.08193" fill="none" stroke="black"/>
<path d="M289.903,167.354h 8.46821" fill="none" stroke="black"/>
<path d="M298.371,167.895v -1.08193" fill="none" stroke="black"/>
<path d="M289.903,167.354v -9.49851" fill="none" stroke="black"/>
<path d="M289.362,157.856h 1.08193" fill="none" stroke="black"/>
<path d="M289.903,167.354v 9.49851" fill="none" stroke="black"/>
<path d="M289.362,176.853h 1.08193" fill="none" stroke="black"/>
<path d="M306.839,190.522h -8.46821" fill="none" stroke="black"/>
<path d="M298.371,191.063v -1.08193" fill="none" stroke="black"/>
<path d="M306.839,190.522h 8.46821" fill="none" stroke="black"/>
<path d="M315.308,191.063v -1.08193" fill="none" stroke="black"/>
<path d="M306.839,190.522v -8.60616" fill="none" stroke="black"/>
<path d="M306.298,181.916h 1.08193" fill="none" stroke="black"/>
<path d="M306.839,190.522v 8.60616" fill="none" stroke="black"/>
<path d="M306.298,199.129h 1.08193" fill="none" stroke="black"/>
<path d="M323.776,215.001h -8.46821" fill="none" stroke="black"/>
<path d="M315.308,215.542v -1.08193" fill="none" stroke="black"/>
<path d="M323.776,215.001h 8.46821" fill="none" stroke="black"/>
<path d="M332.244,215.542v -1.08193" fill="none" stroke="black"/>
<path d="M323.776,215.001v -8.03856" fill="none" stroke="black"/>
<path d="M323.235,206.962h 1.08193" fill="none" stroke="black"/>
<path d="M323.776,215.001v 8.03856" fill="none" stroke="black"/>
<path d="M323.235,223.04h 1.08193" fill="none" stroke="black"/>
<path d="M340.712,259.306h -8.46821" fill="none" stroke="black"/>
<path d="M332.244,259.847v -1.08193" fill="none" stroke="black"/>
<path d="M340.712,259.306h 8.46821" fill="none" stroke="black"/>
<path d="M349.18,259.847v -1.08193" fill="none" stroke="black"/>
<path d="M340.712,259.306v -6.65585" fill="none" stroke="black"/>
<path d="M340.171,252.65h 1.08193" fill="none" stroke="black"/>
<path d="M340.712,259.306v 6.65585" fill="none" stroke="black"/>
<path d="M340.171,265.962h 1.08193" fill="none" stroke="black"/>
<path d="M357.649,290.242h -8.46821" fill="none" stroke="black"/>
<path d="M349.18,290.783v -1.08193" fill="none" stroke="black"/>
<path d="M357.649,290.242h 8.46821" fill="none" stroke="black"/>
<path d="M366.117,290.783v -1.08193" fill="none" stroke="black"/>
<path d="M357.649,290.242v -5.20674" fill="none" stroke="black"/>
<path d="M357.108,285.035h 1.08193" fill="none" stroke="black"/>
<path d="M357.649,290.242v 5.20674" fill="none" stroke="black"/>
<path d="M357.108,295.449h 1.08193" fill="none" stroke="black"/>
<path d="M374.585,315.598h -8.46821" fill="none" stroke="black"/>
<path d="M366.117,316.139v -1.08193" fill="none" stroke="black"/>
<path d="M374.585,315.598h 8.46821" fill="none" stroke="black"/>
<path d="M383.053,316.139v -1.08193" fill="none" stroke="black"/>
<path d="M374.585,315.598v -3.92145" fill="none" stroke="black"/>
<path d="M374.044,311.676h 1.08193" fill="none" stroke="black"/>
<path d="M374.585,315.598v 3.92145" fill="none" stroke="black"/>
<path d="M374.044,319.519h 1.08193" fill="none" stroke="black"/>
<path d="M391.522,331.989h -8.46821" fill="none" stroke="black"/>
<path d="M383.053,332.53v -1.08193" fill="none" stroke="black"/>
<path d="M391.522,331.989h 8.46821" fill="none" stroke="black"/>
<path d="M399.99,332.53v -1.08193" fill="none" stroke="black"/>
<path d="M391.522,331.989v -2.72065" fill="none" stroke="black"/>
<path d="M390.981,329.268h 1.08193" fill="none" stroke="black"/>
<path d="M391.522,331.989v 2.72065" fill="none" stroke="black"/>
<path d="M390.981,334.71h 1.08193" fill="none" stroke="black"/>
<path d="M408.458,338.59h -8.46821" fill="none" stroke="black"/>
<path d="M399.99,339.131v -1.08193" fill="none" stroke="black"/>
<path d="M408.458,338.59h 8.46821" fill="none" stroke="black"/>
<path d="M416.926,339.131v -1.08193" fill="none" stroke="black"/>
<path d="M408.458,338.59v -1.92616" fill="none" stroke="black"/>
<path d="M407.917,336.663h 1.08193" fill="none" stroke="black"/>
<path d="M408.458,338.59v 1.92616" fill="none" stroke="black"/>
<path d="M407.917,340.516h 1.08193" fill="none" stroke="black"/>
<path d="M425.394,337.517h -8.46821" fill="none" stroke="black"/>
<path d="M416.926,338.058v -1.08193" fill="none" stroke="black"/>
<path d="M425.394,337.517h 8.46821" fill="none" stroke="black"/>
<path d="M433.863,338.058v -1.08193" fill="none" stroke="black"/>
<path d="M425.394,337.517v -2.17674" fill="none" stroke="black"/>
<path d="M424.853,335.34h 1.08193" fill="none" stroke="black"/>
<path d="M425.394,337.517v 2.17674" fill="none" stroke="black"/>
<path d="M424.853,339.694h 1.08193" fill="none" stroke="black"/>
<path d="M442.331,343.857h -8.46821" fill="none" stroke="black"/>
<path d="M433.863,344.398v -1.08193" fill="none" stroke="black"/>
<path d="M442.331,343.857h 8.46821" fill="none" stroke="black"/>
<path d="M450.799,344.398v -1.08193" fill="none" stroke="black"/>
<path d="M442.331,343.857v -1.06506" fill="none" stroke="black"/>
<path d="M441.79,342.792h 1.08193" fill="none" stroke="black"/>
<path d="M442.331,343.857v 1.06506" fill="none" stroke="black"/>
<path d="M441.79,344.922h 1.08193" fill="none" stroke="black"/>
<path d="M459.267,341.153h -8.46821" fill="none" stroke="black"/>
<path d="M450.799,341.694v -1.08193" fill="none" stroke="black"/>
<path d="M459.267,341.153h 8.46821" fill="none" stroke="black"/>
<path d="M467.735,341.694v -1.08193" fill="none" stroke="black"/>
<path d="M459.267,341.153v -1.60954" fill="none" stroke="black"/>
<path d="M458.726,339.544h 1.08193" fill="none" stroke="black"/>
<path d="M459.267,341.153v 1.60954" fill="none" stroke="black"/>
<path d="M458.726,342.763h 1.08193" fill="none" stroke="black"/>
<path d="M476.204,346.065h -8.46821" fill="none" stroke="black"/>
<path d="M467.735,346.543v -1.01941" fill="none" stroke="black"/>
<path d="M476.204,346.065h 8.46821" fill="none" stroke="black"/>
<path d="M484.672,346.543v -1.01941" fill="none" stroke="black"/>
<path d="M476.204,346.065v -0.478443" fill="none" stroke="black"/>
<path d="M475.663,345.586h 1.08193" fill="none" stroke="black"/>
<path d="M476.204,346.065v 0.478443" fill="none" stroke="black"/>
<path d="M475.663,346.543h 1.08193" fill="none" stroke="black"/>
<g stroke="black" stroke-width="1" fill="black">
<circle cx="86.6661" cy="345.908" r="2.16385"/>
<circle cx="103.602" cy="342.882" r="2.16385"/>
<circle cx="120.539" cy="339.698" r="2.16385"/>
<circle cx="137.475" cy="337.554" r="2.16385"/>
<circle cx="154.412" cy="335.145" r="2.16385"/>
<circle cx="171.348" cy="330.785" r="2.16385"/>
<circle cx="188.285" cy="321.853" r="2.16385"/>
<circle cx="205.221" cy="303.947" r="2.16385"/>
<circle cx="222.157" cy="286.543" r="2.16385"/>
<circle cx="239.094" cy="259.971" r="2.16385"/>
<circle cx="256.03" cy="214.182" r="2.16385"/>
<circle cx="272.967" cy="170.063" r="2.16385"/>
<circle cx="289.903" cy="167.354" r="2.16385"/>
<circle cx="306.839" cy="190.522" r="2.16385"/>
<circle cx="323.776" cy="215.001" r="2.16385"/>
<circle cx="340.712" cy="259.306" r="2.16385"/>
<circle cx="357.649" cy="290.242" r="2.16385"/>
<circle cx="374.585" cy="315.598" r="2.16385"/>
<circle cx="391.522" cy="331.989" r="2.16385"/>
<circle cx="408.458" cy="338.59" r="2.16385"/>
<circle cx="425.394" cy="337.517" r="2.16385"/>
<circle cx="442.331" cy="343.857" r="2.16385"/>
<circle cx="459.267" cy="341.153" r="2.16385"/>
<circle cx="476.204" cy="346.065" r="2.16385"/>
</g>
<text xml:space="preserve" x="163.6" y="132.265" fill="black" font-size="9.78783" font-family="Helvetica" font-weight="bold"> 1.19 (GeV)</text>
<text xml:space="preserve" x="158.461" y="132.265" fill="black" font-size="9.78783" font-family="Times">&#0177;</text>
<text xml:space="preserve" x="119.512" y="132.265" fill="black" font-size="9.78783" font-family="Helvetica" font-weight="bold">: 907.87 </text>
<text xml:space="preserve" x="110.586" y="137.134" fill="black" font-size="6.69188" font-family="Helvetica" font-weight="bold">CB</text>
<text xml:space="preserve" x="105.176" y="132.265" fill="black" font-size="9.78783" font-family="Times">&#0956;</text>
<text xml:space="preserve" x="157.109" y="147.953" fill="black" font-size="9.78783" font-family="Helvetica" font-weight="bold"> 2.60 (GeV)</text>
<text xml:space="preserve" x="151.97" y="147.953" fill="black" font-size="9.78783" font-family="Times">&#0177;</text>
<text xml:space="preserve" x="119.782" y="147.953" fill="black" font-size="9.78783" font-family="Helvetica" font-weight="bold">: 45.11 </text>
<text xml:space="preserve" x="110.856" y="150.929" fill="black" font-size="6.69188" font-family="Helvetica" font-weight="bold">CB</text>
<text xml:space="preserve" x="105.176" y="147.953" fill="black" font-size="9.78783" font-family="Times">&#0963;</text>
<text xml:space="preserve" x="153.592" y="163.371" fill="black" font-size="9.78783" font-family="Helvetica" font-weight="bold"> 0.14</text>
<text xml:space="preserve" x="148.453" y="163.371" fill="black" font-size="9.78783" font-family="Times">&#0177;</text>
<text xml:space="preserve" x="120.053" y="163.371" fill="black" font-size="9.78783" font-family="Helvetica" font-weight="bold">: 1.76 </text>
<text xml:space="preserve" x="111.127" y="166.346" fill="black" font-size="6.69188" font-family="Helvetica" font-weight="bold">CB</text>
<text xml:space="preserve" x="105.176" y="163.371" fill="black" font-size="9.78783" font-family="Times">&#0945;</text>
<text xml:space="preserve" x="153.052" y="179.059" fill="black" font-size="9.78783" font-family="Helvetica" font-weight="bold"> 1.03</text>
<text xml:space="preserve" x="147.912" y="179.059" fill="black" font-size="9.78783" font-family="Times">&#0177;</text>
<text xml:space="preserve" x="119.512" y="179.059" fill="black" font-size="9.78783" font-family="Helvetica" font-weight="bold">: 2.02 </text>
<text xml:space="preserve" x="110.586" y="181.764" fill="black" font-size="6.69188" font-family="Helvetica" font-weight="bold">CB</text>
<text xml:space="preserve" x="105.176" y="179.059" fill="black" font-size="9.78783" font-family="Helvetica" font-weight="bold">n</text>
<text xml:space="preserve" x="167.658" y="194.476" fill="black" font-size="9.78783" font-family="Helvetica" font-weight="bold"> 15.40 (GeV)</text>
<text xml:space="preserve" x="162.518" y="194.476" fill="black" font-size="9.78783" font-family="Times">&#0177;</text>
<text xml:space="preserve" x="128.979" y="194.476" fill="black" font-size="9.78783" font-family="Helvetica" font-weight="bold">: 59.99 </text>
<text xml:space="preserve" x="110.856" y="197.451" fill="black" font-size="6.69188" font-family="Helvetica" font-weight="bold">Gaus1</text>
<text xml:space="preserve" x="105.176" y="194.476" fill="black" font-size="9.78783" font-family="Times">&#0963;</text>
<text xml:space="preserve" x="173.879" y="210.164" fill="black" font-size="9.78783" font-family="Helvetica" font-weight="bold"> 65.78 (GeV)</text>
<text xml:space="preserve" x="168.739" y="210.164" fill="black" font-size="9.78783" font-family="Times">&#0177;</text>
<text xml:space="preserve" x="129.79" y="210.164" fill="black" font-size="9.78783" font-family="Helvetica" font-weight="bold">: 101.47 </text>
<text xml:space="preserve" x="110.856" y="213.139" fill="black" font-size="6.69188" font-family="Helvetica" font-weight="bold">Gaus2</text>
<text xml:space="preserve" x="105.176" y="210.164" fill="black" font-size="9.78783" font-family="Times">&#0963;</text>
<text xml:space="preserve" x="161.166" y="225.582" fill="black" font-size="9.78783" font-family="Helvetica" font-weight="bold"> 0.14</text>
<text xml:space="preserve" x="156.027" y="225.582" fill="black" font-size="9.78783" font-family="Times">&#0177;</text>
<text xml:space="preserve" x="105.176" y="225.582" fill="black" font-size="9.78783" font-family="Helvetica" font-weight="bold">frac1: 0.75 </text>
<text xml:space="preserve" x="161.436" y="241.269" fill="black" font-size="9.78783" font-family="Helvetica" font-weight="bold"> 0.10</text>
<text xml:space="preserve" x="156.297" y="241.269" fill="black" font-size="9.78783" font-family="Times">&#0177;</text>
<text xml:space="preserve" x="105.176" y="241.269" fill="black" font-size="9.78783" font-family="Helvetica" font-weight="bold">frac2: 0.78 </text>
<path d="M84.9724,346.543h 403.087" fill="none" stroke="black"/>
<path d="M112.071,337.315v 9.22817" fill="none" stroke="black"/>
<path d="M120.539,341.929v 4.61409" fill="none" stroke="black"/>
<path d="M129.007,341.929v 4.61409" fill="none" stroke="black"/>
<path d="M137.475,341.929v 4.61409" fill="none" stroke="black"/>
<path d="M145.944,341.929v 4.61409" fill="none" stroke="black"/>
<path d="M154.412,337.315v 9.22817" fill="none" stroke="black"/>
<path d="M162.88,341.929v 4.61409" fill="none" stroke="black"/>
<path d="M171.348,341.929v 4.61409" fill="none" stroke="black"/>
<path d="M179.816,341.929v 4.61409" fill="none" stroke="black"/>
<path d="M188.285,341.929v 4.61409" fill="none" stroke="black"/>
<path d="M196.753,337.315v 9.22817" fill="none" stroke="black"/>
<path d="M205.221,341.929v 4.61409" fill="none" stroke="black"/>
<path d="M213.689,341.929v 4.61409" fill="none" stroke="black"/>
<path d="M222.157,341.929v 4.61409" fill="none" stroke="black"/>
<path d="M230.626,341.929v 4.61409" fill="none" stroke="black"/>
<path d="M239.094,337.315v 9.22817" fill="none" stroke="black"/>
<path d="M247.562,341.929v 4.61409" fill="none" stroke="black"/>
<path d="M256.03,341.929v 4.61409" fill="none" stroke="black"/>
<path d="M264.498,341.929v 4.61409" fill="none" stroke="black"/>
<path d="M272.967,341.929v 4.61409" fill="none" stroke="black"/>
<path d="M281.435,337.315v 9.22817" fill="none" stroke="black"/>
<path d="M289.903,341.929v 4.61409" fill="none" stroke="black"/>
<path d="M298.371,341.929v 4.61409" fill="none" stroke="black"/>
<path d="M306.839,341.929v 4.61409" fill="none" stroke="black"/>
<path d="M315.308,341.929v 4.61409" fill="none" stroke="black"/>
<path d="M323.776,337.315v 9.22817" fill="none" stroke="black"/>
<path d="M332.244,341.929v 4.61409" fill="none" stroke="black"/>
<path d="M340.712,341.929v 4.61409" fill="none" stroke="black"/>
<path d="M349.18,341.929v 4.61409" fill="none" stroke="black"/>
<path d="M357.649,341.929v 4.61409" fill="none" stroke="black"/>
<path d="M366.117,337.315v 9.22817" fill="none" stroke="black"/>
<path d="M374.585,341.929v 4.61409" fill="none" stroke="black"/>
<path d="M383.053,341.929v 4.61409" fill="none" stroke="black"/>
<path d="M391.522,341.929v 4.61409" fill="none" stroke="black"/>
<path d="M399.99,341.929v 4.61409" fill="none" stroke="black"/>
<path d="M408.458,337.315v 9.22817" fill="none" stroke="black"/>
<path d="M416.926,341.929v 4.61409" fill="none" stroke="black"/>
<path d="M425.394,341.929v 4.61409" fill="none" stroke="black"/>
<path d="M433.863,341.929v 4.61409" fill="none" stroke="black"/>
<path d="M442.331,341.929v 4.61409" fill="none" stroke="black"/>
<path d="M450.799,337.315v 9.22817" fill="none" stroke="black"/>
<path d="M112.071,337.315v 9.22817" fill="none" stroke="black"/>
<path d="M103.602,341.929v 4.61409" fill="none" stroke="black"/>
<path d="M95.1343,341.929v 4.61409" fill="none" stroke="black"/>
<path d="M86.6661,341.929v 4.61409" fill="none" stroke="black"/>
<path d="M450.799,337.315v 9.22817" fill="none" stroke="black"/>
<path d="M459.267,341.929v 4.61409" fill="none" stroke="black"/>
<path d="M467.735,341.929v 4.61409" fill="none" stroke="black"/>
<path d="M476.204,341.929v 4.61409" fill="none" stroke="black"/>
<path d="M484.672,341.929v 4.61409" fill="none" stroke="black"/>
<path d="M84.9724,346.543v -307.606" fill="none" stroke="black"/>
<path d="M97.065,346.543h -12.0926" fill="none" stroke="black"/>
<path d="M91.0187,337.754h -6.0463" fill="none" stroke="black"/>
<path d="M91.0187,328.966h -6.0463" fill="none" stroke="black"/>
<path d="M91.0187,320.177h -6.0463" fill="none" stroke="black"/>
<path d="M91.0187,311.388h -6.0463" fill="none" stroke="black"/>
<path d="M97.065,302.599h -12.0926" fill="none" stroke="black"/>
<path d="M91.0187,293.811h -6.0463" fill="none" stroke="black"/>
<path d="M91.0187,285.022h -6.0463" fill="none" stroke="black"/>
<path d="M91.0187,276.233h -6.0463" fill="none" stroke="black"/>
<path d="M91.0187,267.444h -6.0463" fill="none" stroke="black"/>
<path d="M97.065,258.656h -12.0926" fill="none" stroke="black"/>
<path d="M91.0187,249.867h -6.0463" fill="none" stroke="black"/>
<path d="M91.0187,241.078h -6.0463" fill="none" stroke="black"/>
<path d="M91.0187,232.29h -6.0463" fill="none" stroke="black"/>
<path d="M91.0187,223.501h -6.0463" fill="none" stroke="black"/>
<path d="M97.065,214.712h -12.0926" fill="none" stroke="black"/>
<path d="M91.0187,205.923h -6.0463" fill="none" stroke="black"/>
<path d="M91.0187,197.135h -6.0463" fill="none" stroke="black"/>
<path d="M91.0187,188.346h -6.0463" fill="none" stroke="black"/>
<path d="M91.0187,179.557h -6.0463" fill="none" stroke="black"/>
<path d="M97.065,170.768h -12.0926" fill="none" stroke="black"/>
<path d="M91.0187,161.98h -6.0463" fill="none" stroke="black"/>
<path d="M91.0187,153.191h -6.0463" fill="none" stroke="black"/>
<path d="M91.0187,144.402h -6.0463" fill="none" stroke="black"/>
<path d="M91.0187,135.613h -6.0463" fill="none" stroke="black"/>
<path d="M97.065,126.825h -12.0926" fill="none" stroke="black"/>
<path d="M91.0187,118.036h -6.0463" fill="none" stroke="black"/>
<path d="M91.0187,109.247h -6.0463" fill="none" stroke="black"/>
<path d="M91.0187,100.459h -6.0463" fill="none" stroke="black"/>
<path d="M91.0187,91.6698h -6.0463" fill="none" stroke="black"/>
<path d="M97.065,82.8811h -12.0926" fill="none" stroke="black"/>
<path d="M91.0187,74.0924h -6.0463" fill="none" stroke="black"/>
<path d="M91.0187,65.3036h -6.0463" fill="none" stroke="black"/>
<path d="M91.0187,56.5149h -6.0463" fill="none" stroke="black"/>
<path d="M91.0187,47.7262h -6.0463" fill="none" stroke="black"/>
<path d="M97.065,38.9374h -12.0926" fill="none" stroke="black"/>
<text xml:space="preserve" x="403.517" y="32.9987" fill="black" font-size="13.0028" font-family="Helvetica"> (13 TeV) 2017</text>
<text xml:space="preserve" x="397.567" y="27.3186" fill="black" font-size="8.83523" font-family="Helvetica">-1</text>
<text xml:space="preserve" x="351.855" y="32.9987" fill="black" font-size="13.0028" font-family="Helvetica">41.53 fb</text>
<text xml:space="preserve" x="103.111" y="66.2787" fill="black" font-size="16.5751" font-family="Helvetica" font-weight="bold">CMS</text>
<text xml:space="preserve" x="103.012" y="80.0625" fill="black" font-size="12.7171" font-family="Helvetica" font-style="oblique">Simulation</text>
<rect x="334.988" y="46.7249" width="142.866" height="50.6187" fill="white"/>
<path d="M334.988,97.3436h 142.866" fill="none" stroke="black"/>
<path d="M477.854,97.3436v -50.6187" fill="none" stroke="black"/>
<path d="M477.854,46.7249h -142.866" fill="none" stroke="black"/>
<path d="M334.988,46.7249v 50.6187" fill="none" stroke="black"/>
<text xml:space="preserve" x="370.519" y="58.6945" fill="black" font-size="11.2167" font-family="Helvetica">2017 Signal MC</text>
<path d="M340.346,55.1614h 25.0016" fill="none" stroke="black"/>
<path d="M352.846,52.9975v -2.89801" fill="none" stroke="black"/>
<path d="M352.846,57.3252v 2.89801" fill="none" stroke="black"/>
<path d="M350.971,50.0995h 3.75024" fill="none" stroke="black"/>
<path d="M350.971,60.2232h 3.75024" fill="none" stroke="black"/>
<g stroke="black" stroke-width="1" fill="black">
<circle cx="352.846" cy="55.1614" r="2.16385"/>
</g>
<text xml:space="preserve" x="370.519" y="75.7348" fill="black" font-size="11.2167" font-family="Helvetica">Signal fit CB2Gaus</text>
<path d="M340.346,72.0342h 25.0016" fill="none" stroke="#ff0000" stroke-width="3"/>
<text xml:space="preserve" x="420.287" y="92.5047" fill="black" font-size="11.2167" font-family="Times">&#0963;</text>
<text xml:space="preserve" x="370.519" y="92.5047" fill="black" font-size="11.2167" font-family="Helvetica">Fit Error 1 </text>
<path d="M340.346,94.8126h 25.0016v -11.811h -25.0016z" fill="#00ff00"/>
<path d="M340.346,83.0016h 25.0016" fill="none" stroke="white"/>
<path d="M340.346,94.8126h 25.0016" fill="none" stroke="white"/>
<path d="M365.347,94.8126v -11.811" fill="none" stroke="white"/>
<path d="M340.346,94.8126v -11.811" fill="none" stroke="white"/>
<rect x="28.8465" y="365.372" width="510.236" height="114.679" fill="white"/>
<rect x="84.9724" y="388.307" width="403.087" height="63.0733" fill="white"/>
<rect x="84.9724" y="388.307" width="403.087" height="63.0733" fill="none" stroke="black"/>
<rect x="84.9724" y="388.307" width="403.087" height="63.0733" fill="white"/>
<rect x="84.9724" y="388.307" width="403.087" height="63.0733" fill="none" stroke="black"/>
<path d="M84.9724,451.381h 403.087" fill="none" stroke="black"/>
<path d="M112.071,388.307v 63.0733" fill="none" stroke="black" stroke-dasharray=" 1, 2"/>
<path d="M154.412,388.307v 63.0733" fill="none" stroke="black" stroke-dasharray=" 1, 2"/>
<path d="M196.753,388.307v 63.0733" fill="none" stroke="black" stroke-dasharray=" 1, 2"/>
<path d="M239.094,388.307v 63.0733" fill="none" stroke="black" stroke-dasharray=" 1, 2"/>
<path d="M281.435,388.307v 63.0733" fill="none" stroke="black" stroke-dasharray=" 1, 2"/>
<path d="M323.776,388.307v 63.0733" fill="none" stroke="black" stroke-dasharray=" 1, 2"/>
<path d="M366.117,388.307v 63.0733" fill="none" stroke="black" stroke-dasharray=" 1, 2"/>
<path d="M408.458,388.307v 63.0733" fill="none" stroke="black" stroke-dasharray=" 1, 2"/>
<path d="M450.799,388.307v 63.0733" fill="none" stroke="black" stroke-dasharray=" 1, 2"/>
<path d="M112.071,388.307v 63.0733" fill="none" stroke="black" stroke-dasharray=" 1, 2"/>
<path d="M450.799,388.307v 63.0733" fill="none" stroke="black" stroke-dasharray=" 1, 2"/>
<path d="M84.9724,451.381v -63.0733" fill="none" stroke="black"/>
<path d="M488.059,445.073h -403.087" fill="none" stroke="black" stroke-dasharray=" 1, 2"/>
<path d="M488.059,432.459h -403.087" fill="none" stroke="black" stroke-dasharray=" 1, 2"/>
<path d="M488.059,419.844h -403.087" fill="none" stroke="black" stroke-dasharray=" 1, 2"/>
<path d="M488.059,407.229h -403.087" fill="none" stroke="black" stroke-dasharray=" 1, 2"/>
<path d="M488.059,394.615h -403.087" fill="none" stroke="black" stroke-dasharray=" 1, 2"/>
<path d="M488.059,445.073h -403.087" fill="none" stroke="black" stroke-dasharray=" 1, 2"/>
<path d="M488.059,394.615h -403.087" fill="none" stroke="black" stroke-dasharray=" 1, 2"/>
<path d="M84.9724,451.381h 403.087" fill="none" stroke="black"/>
<path d="M112.071,448.663v 2.71789" fill="none" stroke="black"/>
<path d="M120.539,450.022v 1.35894" fill="none" stroke="black"/>
<path d="M129.007,450.022v 1.35894" fill="none" stroke="black"/>
<path d="M137.475,450.022v 1.35894" fill="none" stroke="black"/>
<path d="M145.944,450.022v 1.35894" fill="none" stroke="black"/>
<path d="M154.412,448.663v 2.71789" fill="none" stroke="black"/>
<path d="M162.88,450.022v 1.35894" fill="none" stroke="black"/>
<path d="M171.348,450.022v 1.35894" fill="none" stroke="black"/>
<path d="M179.816,450.022v 1.35894" fill="none" stroke="black"/>
<path d="M188.285,450.022v 1.35894" fill="none" stroke="black"/>
<path d="M196.753,448.663v 2.71789" fill="none" stroke="black"/>
<path d="M205.221,450.022v 1.35894" fill="none" stroke="black"/>
<path d="M213.689,450.022v 1.35894" fill="none" stroke="black"/>
<path d="M222.157,450.022v 1.35894" fill="none" stroke="black"/>
<path d="M230.626,450.022v 1.35894" fill="none" stroke="black"/>
<path d="M239.094,448.663v 2.71789" fill="none" stroke="black"/>
<path d="M247.562,450.022v 1.35894" fill="none" stroke="black"/>
<path d="M256.03,450.022v 1.35894" fill="none" stroke="black"/>
<path d="M264.498,450.022v 1.35894" fill="none" stroke="black"/>
<path d="M272.967,450.022v 1.35894" fill="none" stroke="black"/>
<path d="M281.435,448.663v 2.71789" fill="none" stroke="black"/>
<path d="M289.903,450.022v 1.35894" fill="none" stroke="black"/>
<path d="M298.371,450.022v 1.35894" fill="none" stroke="black"/>
<path d="M306.839,450.022v 1.35894" fill="none" stroke="black"/>
<path d="M315.308,450.022v 1.35894" fill="none" stroke="black"/>
<path d="M323.776,448.663v 2.71789" fill="none" stroke="black"/>
<path d="M332.244,450.022v 1.35894" fill="none" stroke="black"/>
<path d="M340.712,450.022v 1.35894" fill="none" stroke="black"/>
<path d="M349.18,450.022v 1.35894" fill="none" stroke="black"/>
<path d="M357.649,450.022v 1.35894" fill="none" stroke="black"/>
<path d="M366.117,448.663v 2.71789" fill="none" stroke="black"/>
<path d="M374.585,450.022v 1.35894" fill="none" stroke="black"/>
<path d="M383.053,450.022v 1.35894" fill="none" stroke="black"/>
<path d="M391.522,450.022v 1.35894" fill="none" stroke="black"/>
<path d="M399.99,450.022v 1.35894" fill="none" stroke="black"/>
<path d="M408.458,448.663v 2.71789" fill="none" stroke="black"/>
<path d="M416.926,450.022v 1.35894" fill="none" stroke="black"/>
<path d="M425.394,450.022v 1.35894" fill="none" stroke="black"/>
<path d="M433.863,450.022v 1.35894" fill="none" stroke="black"/>
<path d="M442.331,450.022v 1.35894" fill="none" stroke="black"/>
<path d="M450.799,448.663v 2.71789" fill="none" stroke="black"/>
<path d="M112.071,448.663v 2.71789" fill="none" stroke="black"/>
<path d="M103.602,450.022v 1.35894" fill="none" stroke="black"/>
<path d="M95.1343,450.022v 1.35894" fill="none" stroke="black"/>
<path d="M86.6661,450.022v 1.35894" fill="none" stroke="black"/>
<path d="M450.799,448.663v 2.71789" fill="none" stroke="black"/>
<path d="M459.267,450.022v 1.35894" fill="none" stroke="black"/>
<path d="M467.735,450.022v 1.35894" fill="none" stroke="black"/>
<path d="M476.204,450.022v 1.35894" fill="none" stroke="black"/>
<path d="M484.672,450.022v 1.35894" fill="none" stroke="black"/>
<text xml:space="preserve" x="101.39" y="462.794" fill="black" font-size="13.1252" font-family="Helvetica">700</text>
<text xml:space="preserve" x="143.855" y="462.794" fill="black" font-size="13.1252" font-family="Helvetica">750</text>
<text xml:space="preserve" x="186.05" y="462.794" fill="black" font-size="13.1252" font-family="Helvetica">800</text>
<text xml:space="preserve" x="228.516" y="462.794" fill="black" font-size="13.1252" font-family="Helvetica">850</text>
<text xml:space="preserve" x="270.711" y="462.794" fill="black" font-size="13.1252" font-family="Helvetica">900</text>
<text xml:space="preserve" x="313.177" y="462.794" fill="black" font-size="13.1252" font-family="Helvetica">950</text>
<text xml:space="preserve" x="351.855" y="462.794" fill="black" font-size="13.1252" font-family="Helvetica">1000</text>
<text xml:space="preserve" x="394.321" y="462.794" fill="black" font-size="13.1252" font-family="Helvetica">1050</text>
<text xml:space="preserve" x="436.516" y="462.794" fill="black" font-size="13.1252" font-family="Helvetica">1100</text>
<text xml:space="preserve" x="451.393" y="475.236" fill="black" font-size="13.1252" font-family="Helvetica"> (GeV)</text>
<text xml:space="preserve" x="447.065" y="479.023" fill="black" font-size="8.91679" font-family="Times">&#0947;</text>
<text xml:space="preserve" x="445.172" y="479.023" fill="black" font-size="8.91679" font-family="Helvetica">j</text>
<text xml:space="preserve" x="435.434" y="475.236" fill="black" font-size="13.1252" font-family="Helvetica">M</text>
<path d="M84.9724,451.381v -63.0733" fill="none" stroke="black"/>
<path d="M93.3913,445.073h -8.4189" fill="none" stroke="black"/>
<path d="M93.3913,432.459h -8.4189" fill="none" stroke="black"/>
<path d="M93.3913,419.844h -8.4189" fill="none" stroke="black"/>
<path d="M93.3913,407.229h -8.4189" fill="none" stroke="black"/>
<path d="M93.3913,394.615h -8.4189" fill="none" stroke="black"/>
<path d="M93.3913,445.073h -8.4189" fill="none" stroke="black"/>
<path d="M93.3913,394.615h -8.4189" fill="none" stroke="black"/>
<text xml:space="preserve" x="75.4234" y="449.811" fill="black" font-size="13.1252" font-family="Helvetica">4</text>
<text xml:space="preserve" x="68.3908" y="449.811" fill="black" font-size="13.1252" font-family="Times">&#8722;</text>
<text xml:space="preserve" x="75.4234" y="437.098" fill="black" font-size="13.1252" font-family="Helvetica">2</text>
<text xml:space="preserve" x="68.3908" y="437.098" fill="black" font-size="13.1252" font-family="Times">&#8722;</text>
<text xml:space="preserve" x="75.6938" y="424.385" fill="black" font-size="13.1252" font-family="Helvetica">0</text>
<text xml:space="preserve" x="75.4234" y="411.943" fill="black" font-size="13.1252" font-family="Helvetica">2</text>
<text xml:space="preserve" x="75.4234" y="399.231" fill="black" font-size="13.1252" font-family="Helvetica">4</text>
<g transform="rotate(-90,57.5716,408.156)">
<text xml:space="preserve" x="57.5716" y="408.156" fill="black" font-size="8.91679" font-family="Helvetica">stat</text>
</g>
<g transform="rotate(-90,53.7848,415.73)">
<text xml:space="preserve" x="53.7848" y="415.73" fill="black" font-size="13.1252" font-family="Times">&#0963;</text>
</g>
<g transform="rotate(-90,43.2361,421.951)">
<text xml:space="preserve" x="43.2361" y="421.951" fill="black" font-size="13.1252" font-family="Helvetica">MC-fit</text>
</g>
<path d="M45.3999,421.951v -33.8102" fill="none" stroke="black" stroke-width="2"/>
<rect x="95.2767" y="419.844" width="16.6516" height="2.12625" fill="#3399ff" fill-opacity="0.70" stroke-opacity="0.70"/>
<rect x="112.213" y="415.921" width="16.6516" height="3.92319" fill="#3399ff" fill-opacity="0.70" stroke-opacity="0.70"/>
<rect x="129.15" y="417.226" width="16.6516" height="2.61862" fill="#3399ff" fill-opacity="0.70" stroke-opacity="0.70"/>
<rect x="146.086" y="419.844" width="16.6516" height="0.537698" fill="#3399ff" fill-opacity="0.70" stroke-opacity="0.70"/>
<rect x="163.022" y="419.844" width="16.6516" height="2.1269" fill="#3399ff" fill-opacity="0.70" stroke-opacity="0.70"/>
<rect x="179.959" y="419.415" width="16.6516" height="0.429184" fill="#3399ff" fill-opacity="0.70" stroke-opacity="0.70"/>
<rect x="196.895" y="412.004" width="16.6516" height="7.84029" fill="#3399ff" fill-opacity="0.70" stroke-opacity="0.70"/>
<rect x="213.832" y="418.371" width="16.6516" height="1.4736" fill="#3399ff" fill-opacity="0.70" stroke-opacity="0.70"/>
<rect x="230.768" y="419.844" width="16.6516" height="7.51387" fill="#3399ff" fill-opacity="0.70" stroke-opacity="0.70"/>
<rect x="247.704" y="419.844" width="16.6516" height="2.56395" fill="#3399ff" fill-opacity="0.70" stroke-opacity="0.70"/>
<rect x="264.641" y="414.905" width="16.6516" height="4.93903" fill="#3399ff" fill-opacity="0.70" stroke-opacity="0.70"/>
<rect x="281.577" y="419.844" width="16.6516" height="0.737686" fill="#3399ff" fill-opacity="0.70" stroke-opacity="0.70"/>
<rect x="298.514" y="419.844" width="16.6516" height="5.44609" fill="#3399ff" fill-opacity="0.70" stroke-opacity="0.70"/>
<rect x="315.45" y="416.294" width="16.6516" height="3.55029" fill="#3399ff" fill-opacity="0.70" stroke-opacity="0.70"/>
<rect x="332.386" y="418.711" width="16.6516" height="1.13316" fill="#3399ff" fill-opacity="0.70" stroke-opacity="0.70"/>
<rect x="349.323" y="415.242" width="16.6516" height="4.60171" fill="#3399ff" fill-opacity="0.70" stroke-opacity="0.70"/>
<rect x="366.259" y="419.175" width="16.6516" height="0.669089" fill="#3399ff" fill-opacity="0.70" stroke-opacity="0.70"/>
<rect x="383.196" y="419.844" width="16.6516" height="7.67047" fill="#3399ff" fill-opacity="0.70" stroke-opacity="0.70"/>
<rect x="400.132" y="419.844" width="16.6516" height="9.94482" fill="#3399ff" fill-opacity="0.70" stroke-opacity="0.70"/>
<rect x="417.069" y="414.234" width="16.6516" height="5.61064" fill="#3399ff" fill-opacity="0.70" stroke-opacity="0.70"/>
<rect x="434.005" y="419.844" width="16.6516" height="11.8425" fill="#3399ff" fill-opacity="0.70" stroke-opacity="0.70"/>
<rect x="450.941" y="410.849" width="16.6516" height="8.99518" fill="#3399ff" fill-opacity="0.70" stroke-opacity="0.70"/>
<path d="M84.9724,451.381h 403.087" fill="none" stroke="black"/>
<path d="M112.071,448.663v 2.71789" fill="none" stroke="black"/>
<path d="M120.539,450.022v 1.35894" fill="none" stroke="black"/>
<path d="M129.007,450.022v 1.35894" fill="none" stroke="black"/>
<path d="M137.475,450.022v 1.35894" fill="none" stroke="black"/>
<path d="M145.944,450.022v 1.35894" fill="none" stroke="black"/>
<path d="M154.412,448.663v 2.71789" fill="none" stroke="black"/>
<path d="M162.88,450.022v 1.35894" fill="none" stroke="black"/>
<path d="M171.348,450.022v 1.35894" fill="none" stroke="black"/>
<path d="M179.816,450.022v 1.35894" fill="none" stroke="black"/>
<path d="M188.285,450.022v 1.35894" fill="none" stroke="black"/>
<path d="M196.753,448.663v 2.71789" fill="none" stroke="black"/>
<path d="M205.221,450.022v 1.35894" fill="none" stroke="black"/>
<path d="M213.689,450.022v 1.35894" fill="none" stroke="black"/>
<path d="M222.157,450.022v 1.35894" fill="none" stroke="black"/>
<path d="M230.626,450.022v 1.35894" fill="none" stroke="black"/>
<path d="M239.094,448.663v 2.71789" fill="none" stroke="black"/>
<path d="M247.562,450.022v 1.35894" fill="none" stroke="black"/>
<path d="M256.03,450.022v 1.35894" fill="none" stroke="black"/>
<path d="M264.498,450.022v 1.35894" fill="none" stroke="black"/>
<path d="M272.967,450.022v 1.35894" fill="none" stroke="black"/>
<path d="M281.435,448.663v 2.71789" fill="none" stroke="black"/>
<path d="M289.903,450.022v 1.35894" fill="none" stroke="black"/>
<path d="M298.371,450.022v 1.35894" fill="none" stroke="black"/>
<path d="M306.839,450.022v 1.35894" fill="none" stroke="black"/>
<path d="M315.308,450.022v 1.35894" fill="none" stroke="black"/>
<path d="M323.776,448.663v 2.71789" fill="none" stroke="black"/>
<path d="M332.244,450.022v 1.35894" fill="none" stroke="black"/>
<path d="M340.712,450.022v 1.35894" fill="none" stroke="black"/>
<path d="M349.18,450.022v 1.35894" fill="none" stroke="black"/>
<path d="M357.649,450.022v 1.35894" fill="none" stroke="black"/>
<path d="M366.117,448.663v 2.71789" fill="none" stroke="black"/>
<path d="M374.585,450.022v 1.35894" fill="none" stroke="black"/>
<path d="M383.053,450.022v 1.35894" fill="none" stroke="black"/>
<path d="M391.522,450.022v 1.35894" fill="none" stroke="black"/>
<path d="M399.99,450.022v 1.35894" fill="none" stroke="black"/>
<path d="M408.458,448.663v 2.71789" fill="none" stroke="black"/>
<path d="M416.926,450.022v 1.35894" fill="none" stroke="black"/>
<path d="M425.394,450.022v 1.35894" fill="none" stroke="black"/>
<path d="M433.863,450.022v 1.35894" fill="none" stroke="black"/>
<path d="M442.331,450.022v 1.35894" fill="none" stroke="black"/>
<path d="M450.799,448.663v 2.71789" fill="none" stroke="black"/>
<path d="M112.071,448.663v 2.71789" fill="none" stroke="black"/>
<path d="M103.602,450.022v 1.35894" fill="none" stroke="black"/>
<path d="M95.1343,450.022v 1.35894" fill="none" stroke="black"/>
<path d="M86.6661,450.022v 1.35894" fill="none" stroke="black"/>
<path d="M450.799,448.663v 2.71789" fill="none" stroke="black"/>
<path d="M459.267,450.022v 1.35894" fill="none" stroke="black"/>
<path d="M467.735,450.022v 1.35894" fill="none" stroke="black"/>
<path d="M476.204,450.022v 1.35894" fill="none" stroke="black"/>
<path d="M484.672,450.022v 1.35894" fill="none" stroke="black"/>
<path d="M84.9724,451.381v -63.0733" fill="none" stroke="black"/>
<path d="M93.3913,445.073h -8.4189" fill="none" stroke="black"/>
<path d="M93.3913,432.459h -8.4189" fill="none" stroke="black"/>
<path d="M93.3913,419.844h -8.4189" fill="none" stroke="black"/>
<path d="M93.3913,407.229h -8.4189" fill="none" stroke="black"/>
<path d="M93.3913,394.615h -8.4189" fill="none" stroke="black"/>
<path d="M93.3913,445.073h -8.4189" fill="none" stroke="black"/>
<path d="M93.3913,394.615h -8.4189" fill="none" stroke="black"/></svg>
