<?xml version="1.0" standalone="no"?>
<svg width="567.429" height="533.889" viewBox="0 0 567.429 533.889" xmlns="http://www.w3.org/2000/svg" shape-rendering="crispEdges">
<title>
CB2Gaus2200.svg
</title>
<desc>
Creator: ROOT Version 6.10/09
CreationDate: Sun Apr 19 22:27:34 2020</desc>
<defs>
</defs>
<rect x="0.5" y="0" width="566.929" height="533.389" fill="white"/>
<rect x="28.8465" y="0" width="510.236" height="389.374" fill="white"/>
<rect x="84.9724" y="38.9374" width="403.087" height="307.606" fill="white"/>
<rect x="84.9724" y="38.9374" width="403.087" height="307.606" fill="none" stroke="black"/>
<rect x="84.9724" y="38.9374" width="403.087" height="307.606" fill="white"/>
<rect x="84.9724" y="38.9374" width="403.087" height="307.606" fill="none" stroke="black"/>
<path d="M84.9724,346.543h 403.087" fill="none" stroke="black"/>
<path d="M147.737,337.315v 9.22817" fill="none" stroke="black"/>
<path d="M165.171,341.929v 4.61409" fill="none" stroke="black"/>
<path d="M182.606,341.929v 4.61409" fill="none" stroke="black"/>
<path d="M200.04,341.929v 4.61409" fill="none" stroke="black"/>
<path d="M217.475,337.315v 9.22817" fill="none" stroke="black"/>
<path d="M234.91,341.929v 4.61409" fill="none" stroke="black"/>
<path d="M252.344,341.929v 4.61409" fill="none" stroke="black"/>
<path d="M269.779,341.929v 4.61409" fill="none" stroke="black"/>
<path d="M287.213,337.315v 9.22817" fill="none" stroke="black"/>
<path d="M304.648,341.929v 4.61409" fill="none" stroke="black"/>
<path d="M322.082,341.929v 4.61409" fill="none" stroke="black"/>
<path d="M339.517,341.929v 4.61409" fill="none" stroke="black"/>
<path d="M356.951,337.315v 9.22817" fill="none" stroke="black"/>
<path d="M374.386,341.929v 4.61409" fill="none" stroke="black"/>
<path d="M391.82,341.929v 4.61409" fill="none" stroke="black"/>
<path d="M409.255,341.929v 4.61409" fill="none" stroke="black"/>
<path d="M426.689,337.315v 9.22817" fill="none" stroke="black"/>
<path d="M147.737,337.315v 9.22817" fill="none" stroke="black"/>
<path d="M130.302,341.929v 4.61409" fill="none" stroke="black"/>
<path d="M112.868,341.929v 4.61409" fill="none" stroke="black"/>
<path d="M95.4332,341.929v 4.61409" fill="none" stroke="black"/>
<path d="M426.689,337.315v 9.22817" fill="none" stroke="black"/>
<path d="M444.124,341.929v 4.61409" fill="none" stroke="black"/>
<path d="M461.559,341.929v 4.61409" fill="none" stroke="black"/>
<path d="M478.993,341.929v 4.61409" fill="none" stroke="black"/>
<text xml:space="preserve" x="129.79" y="362.445" fill="black" font-size="16.5751" font-family="Helvetica">1800</text>
<text xml:space="preserve" x="199.574" y="362.445" fill="black" font-size="16.5751" font-family="Helvetica">2000</text>
<text xml:space="preserve" x="269.359" y="362.445" fill="black" font-size="16.5751" font-family="Helvetica">2200</text>
<text xml:space="preserve" x="338.872" y="362.445" fill="black" font-size="16.5751" font-family="Helvetica">2400</text>
<text xml:space="preserve" x="408.657" y="362.445" fill="black" font-size="16.5751" font-family="Helvetica">2600</text>
<path d="M84.9724,346.543v -307.606" fill="none" stroke="black"/>
<path d="M97.065,346.543h -12.0926" fill="none" stroke="black"/>
<path d="M91.0187,340.391h -6.0463" fill="none" stroke="black"/>
<path d="M91.0187,334.239h -6.0463" fill="none" stroke="black"/>
<path d="M91.0187,328.087h -6.0463" fill="none" stroke="black"/>
<path d="M91.0187,321.935h -6.0463" fill="none" stroke="black"/>
<path d="M97.065,315.783h -12.0926" fill="none" stroke="black"/>
<path d="M91.0187,309.63h -6.0463" fill="none" stroke="black"/>
<path d="M91.0187,303.478h -6.0463" fill="none" stroke="black"/>
<path d="M91.0187,297.326h -6.0463" fill="none" stroke="black"/>
<path d="M91.0187,291.174h -6.0463" fill="none" stroke="black"/>
<path d="M97.065,285.022h -12.0926" fill="none" stroke="black"/>
<path d="M91.0187,278.87h -6.0463" fill="none" stroke="black"/>
<path d="M91.0187,272.718h -6.0463" fill="none" stroke="black"/>
<path d="M91.0187,266.566h -6.0463" fill="none" stroke="black"/>
<path d="M91.0187,260.414h -6.0463" fill="none" stroke="black"/>
<path d="M97.065,254.261h -12.0926" fill="none" stroke="black"/>
<path d="M91.0187,248.109h -6.0463" fill="none" stroke="black"/>
<path d="M91.0187,241.957h -6.0463" fill="none" stroke="black"/>
<path d="M91.0187,235.805h -6.0463" fill="none" stroke="black"/>
<path d="M91.0187,229.653h -6.0463" fill="none" stroke="black"/>
<path d="M97.065,223.501h -12.0926" fill="none" stroke="black"/>
<path d="M91.0187,217.349h -6.0463" fill="none" stroke="black"/>
<path d="M91.0187,211.197h -6.0463" fill="none" stroke="black"/>
<path d="M91.0187,205.044h -6.0463" fill="none" stroke="black"/>
<path d="M91.0187,198.892h -6.0463" fill="none" stroke="black"/>
<path d="M97.065,192.74h -12.0926" fill="none" stroke="black"/>
<path d="M91.0187,186.588h -6.0463" fill="none" stroke="black"/>
<path d="M91.0187,180.436h -6.0463" fill="none" stroke="black"/>
<path d="M91.0187,174.284h -6.0463" fill="none" stroke="black"/>
<path d="M91.0187,168.132h -6.0463" fill="none" stroke="black"/>
<path d="M97.065,161.98h -12.0926" fill="none" stroke="black"/>
<path d="M91.0187,155.828h -6.0463" fill="none" stroke="black"/>
<path d="M91.0187,149.675h -6.0463" fill="none" stroke="black"/>
<path d="M91.0187,143.523h -6.0463" fill="none" stroke="black"/>
<path d="M91.0187,137.371h -6.0463" fill="none" stroke="black"/>
<path d="M97.065,131.219h -12.0926" fill="none" stroke="black"/>
<path d="M91.0187,125.067h -6.0463" fill="none" stroke="black"/>
<path d="M91.0187,118.915h -6.0463" fill="none" stroke="black"/>
<path d="M91.0187,112.763h -6.0463" fill="none" stroke="black"/>
<path d="M91.0187,106.611h -6.0463" fill="none" stroke="black"/>
<path d="M97.065,100.459h -12.0926" fill="none" stroke="black"/>
<path d="M91.0187,94.3064h -6.0463" fill="none" stroke="black"/>
<path d="M91.0187,88.1543h -6.0463" fill="none" stroke="black"/>
<path d="M91.0187,82.0022h -6.0463" fill="none" stroke="black"/>
<path d="M91.0187,75.8501h -6.0463" fill="none" stroke="black"/>
<path d="M97.065,69.698h -12.0926" fill="none" stroke="black"/>
<path d="M91.0187,63.5459h -6.0463" fill="none" stroke="black"/>
<path d="M91.0187,57.3938h -6.0463" fill="none" stroke="black"/>
<path d="M91.0187,51.2417h -6.0463" fill="none" stroke="black"/>
<path d="M91.0187,45.0895h -6.0463" fill="none" stroke="black"/>
<path d="M97.065,38.9374h -12.0926" fill="none" stroke="black"/>
<text xml:space="preserve" x="73.8005" y="352.167" fill="black" font-size="16.5751" font-family="Helvetica">0</text>
<text xml:space="preserve" x="64.8746" y="321.332" fill="black" font-size="16.5751" font-family="Helvetica">50</text>
<text xml:space="preserve" x="55.6782" y="290.497" fill="black" font-size="16.5751" font-family="Helvetica">100</text>
<text xml:space="preserve" x="55.6782" y="259.933" fill="black" font-size="16.5751" font-family="Helvetica">150</text>
<text xml:space="preserve" x="55.6782" y="229.098" fill="black" font-size="16.5751" font-family="Helvetica">200</text>
<text xml:space="preserve" x="55.6782" y="198.263" fill="black" font-size="16.5751" font-family="Helvetica">250</text>
<text xml:space="preserve" x="55.6782" y="167.428" fill="black" font-size="16.5751" font-family="Helvetica">300</text>
<text xml:space="preserve" x="55.6782" y="136.864" fill="black" font-size="16.5751" font-family="Helvetica">350</text>
<text xml:space="preserve" x="55.6782" y="106.029" fill="black" font-size="16.5751" font-family="Helvetica">400</text>
<text xml:space="preserve" x="55.6782" y="75.1938" fill="black" font-size="16.5751" font-family="Helvetica">450</text>
<text xml:space="preserve" x="55.6782" y="44.359" fill="black" font-size="16.5751" font-family="Helvetica">500</text>
<g transform="rotate(-90,41.0722,156.609)">
<text xml:space="preserve" x="41.0722" y="156.609" fill="black" font-size="16.5751" font-family="Helvetica">Events / 20 GeV</text>
</g>
<path d="M84.9724,346.543z" fill="none" stroke="black"/>
<path d="M84.9724,346.543h 6.97382" fill="none" stroke="black"/>
<path d="M91.9463,346.543v -0.540963" fill="none" stroke="black"/>
<path d="M98.9201,340.745h -6.97382" fill="none" stroke="black"/>
<path d="M91.9463,341.286v -1.08193" fill="none" stroke="black"/>
<path d="M98.9201,340.745h 6.97382" fill="none" stroke="black"/>
<path d="M105.894,341.286v -1.08193" fill="none" stroke="black"/>
<path d="M98.9201,340.745v -2.1004" fill="none" stroke="black"/>
<path d="M98.3791,338.644h 1.08193" fill="none" stroke="black"/>
<path d="M98.9201,340.745v 2.1004" fill="none" stroke="black"/>
<path d="M98.3791,342.845h 1.08193" fill="none" stroke="black"/>
<path d="M112.868,338.745h -6.97382" fill="none" stroke="black"/>
<path d="M105.894,339.286v -1.08193" fill="none" stroke="black"/>
<path d="M112.868,338.745h 6.97382" fill="none" stroke="black"/>
<path d="M119.842,339.286v -1.08193" fill="none" stroke="black"/>
<path d="M112.868,338.745v -2.26183" fill="none" stroke="black"/>
<path d="M112.327,336.483h 1.08193" fill="none" stroke="black"/>
<path d="M112.868,338.745v 2.26183" fill="none" stroke="black"/>
<path d="M112.327,341.007h 1.08193" fill="none" stroke="black"/>
<path d="M126.815,340.367h -6.97382" fill="none" stroke="black"/>
<path d="M119.842,340.908v -1.08193" fill="none" stroke="black"/>
<path d="M126.815,340.367h 6.97382" fill="none" stroke="black"/>
<path d="M133.789,340.908v -1.08193" fill="none" stroke="black"/>
<path d="M126.815,340.367v -1.90864" fill="none" stroke="black"/>
<path d="M126.274,338.458h 1.08193" fill="none" stroke="black"/>
<path d="M126.815,340.367v 1.90864" fill="none" stroke="black"/>
<path d="M126.274,342.275h 1.08193" fill="none" stroke="black"/>
<path d="M140.763,335.59h -6.97382" fill="none" stroke="black"/>
<path d="M133.789,336.131v -1.08193" fill="none" stroke="black"/>
<path d="M140.763,335.59h 6.97382" fill="none" stroke="black"/>
<path d="M147.737,336.131v -1.08193" fill="none" stroke="black"/>
<path d="M140.763,335.59v -2.64686" fill="none" stroke="black"/>
<path d="M140.222,332.943h 1.08193" fill="none" stroke="black"/>
<path d="M140.763,335.59v 2.64686" fill="none" stroke="black"/>
<path d="M140.222,338.237h 1.08193" fill="none" stroke="black"/>
<path d="M154.711,333.441h -6.97382" fill="none" stroke="black"/>
<path d="M147.737,333.982v -1.08193" fill="none" stroke="black"/>
<path d="M154.711,333.441h 6.97382" fill="none" stroke="black"/>
<path d="M161.684,333.982v -1.08193" fill="none" stroke="black"/>
<path d="M154.711,333.441v -2.83484" fill="none" stroke="black"/>
<path d="M154.17,330.607h 1.08193" fill="none" stroke="black"/>
<path d="M154.711,333.441v 2.83484" fill="none" stroke="black"/>
<path d="M154.17,336.276h 1.08193" fill="none" stroke="black"/>
<path d="M168.658,330.643h -6.97382" fill="none" stroke="black"/>
<path d="M161.684,331.184v -1.08193" fill="none" stroke="black"/>
<path d="M168.658,330.643h 6.97382" fill="none" stroke="black"/>
<path d="M175.632,331.184v -1.08193" fill="none" stroke="black"/>
<path d="M168.658,330.643v -3.1786" fill="none" stroke="black"/>
<path d="M168.117,327.465h 1.08193" fill="none" stroke="black"/>
<path d="M168.658,330.643v 3.1786" fill="none" stroke="black"/>
<path d="M168.117,333.822h 1.08193" fill="none" stroke="black"/>
<path d="M182.606,328.079h -6.97382" fill="none" stroke="black"/>
<path d="M175.632,328.62v -1.08193" fill="none" stroke="black"/>
<path d="M182.606,328.079h 6.97382" fill="none" stroke="black"/>
<path d="M189.58,328.62v -1.08193" fill="none" stroke="black"/>
<path d="M182.606,328.079v -3.61063" fill="none" stroke="black"/>
<path d="M182.065,324.468h 1.08193" fill="none" stroke="black"/>
<path d="M182.606,328.079v 3.61063" fill="none" stroke="black"/>
<path d="M182.065,331.689h 1.08193" fill="none" stroke="black"/>
<path d="M196.554,318.283h -6.97382" fill="none" stroke="black"/>
<path d="M189.58,318.824v -1.08193" fill="none" stroke="black"/>
<path d="M196.554,318.283h 6.97382" fill="none" stroke="black"/>
<path d="M203.527,318.824v -1.08193" fill="none" stroke="black"/>
<path d="M196.554,318.283v -4.34971" fill="none" stroke="black"/>
<path d="M196.013,313.934h 1.08193" fill="none" stroke="black"/>
<path d="M196.554,318.283v 4.34971" fill="none" stroke="black"/>
<path d="M196.013,322.633h 1.08193" fill="none" stroke="black"/>
<path d="M210.501,309.867h -6.97382" fill="none" stroke="black"/>
<path d="M203.527,310.408v -1.08193" fill="none" stroke="black"/>
<path d="M210.501,309.867h 6.97382" fill="none" stroke="black"/>
<path d="M217.475,310.408v -1.08193" fill="none" stroke="black"/>
<path d="M210.501,309.867v -4.92632" fill="none" stroke="black"/>
<path d="M209.96,304.941h 1.08193" fill="none" stroke="black"/>
<path d="M210.501,309.867v 4.92632" fill="none" stroke="black"/>
<path d="M209.96,314.794h 1.08193" fill="none" stroke="black"/>
<path d="M224.449,274.666h -6.97382" fill="none" stroke="black"/>
<path d="M217.475,275.207v -1.08193" fill="none" stroke="black"/>
<path d="M224.449,274.666h 6.97382" fill="none" stroke="black"/>
<path d="M231.423,275.207v -1.08193" fill="none" stroke="black"/>
<path d="M224.449,274.666v -7.20227" fill="none" stroke="black"/>
<path d="M223.908,267.464h 1.08193" fill="none" stroke="black"/>
<path d="M224.449,274.666v 7.20227" fill="none" stroke="black"/>
<path d="M223.908,281.869h 1.08193" fill="none" stroke="black"/>
<path d="M238.396,261.788h -6.97382" fill="none" stroke="black"/>
<path d="M231.423,262.329v -1.08193" fill="none" stroke="black"/>
<path d="M238.396,261.788h 6.97382" fill="none" stroke="black"/>
<path d="M245.37,262.329v -1.08193" fill="none" stroke="black"/>
<path d="M238.396,261.788v -7.58226" fill="none" stroke="black"/>
<path d="M237.855,254.206h 1.08193" fill="none" stroke="black"/>
<path d="M238.396,261.788v 7.58226" fill="none" stroke="black"/>
<path d="M237.855,269.37h 1.08193" fill="none" stroke="black"/>
<path d="M252.344,235.767h -6.97382" fill="none" stroke="black"/>
<path d="M245.37,236.308v -1.08193" fill="none" stroke="black"/>
<path d="M252.344,235.767h 6.97382" fill="none" stroke="black"/>
<path d="M259.318,236.308v -1.08193" fill="none" stroke="black"/>
<path d="M252.344,235.767v -8.67238" fill="none" stroke="black"/>
<path d="M251.803,227.094h 1.08193" fill="none" stroke="black"/>
<path d="M252.344,235.767v 8.67238" fill="none" stroke="black"/>
<path d="M251.803,244.439h 1.08193" fill="none" stroke="black"/>
<path d="M266.292,164.619h -6.97382" fill="none" stroke="black"/>
<path d="M259.318,165.16v -1.08193" fill="none" stroke="black"/>
<path d="M266.292,164.619h 6.97382" fill="none" stroke="black"/>
<path d="M273.266,165.16v -1.08193" fill="none" stroke="black"/>
<path d="M266.292,164.619v -11.3775" fill="none" stroke="black"/>
<path d="M265.751,153.242h 1.08193" fill="none" stroke="black"/>
<path d="M266.292,164.619v 11.3775" fill="none" stroke="black"/>
<path d="M265.751,175.997h 1.08193" fill="none" stroke="black"/>
<path d="M280.239,131.254h -6.97382" fill="none" stroke="black"/>
<path d="M273.266,131.794v -1.08193" fill="none" stroke="black"/>
<path d="M280.239,131.254h 6.97382" fill="none" stroke="black"/>
<path d="M287.213,131.794v -1.08193" fill="none" stroke="black"/>
<path d="M280.239,131.254v -12.0832" fill="none" stroke="black"/>
<path d="M279.698,119.17h 1.08193" fill="none" stroke="black"/>
<path d="M280.239,131.254v 12.0832" fill="none" stroke="black"/>
<path d="M279.698,143.337h 1.08193" fill="none" stroke="black"/>
<path d="M294.187,126.207h -6.97382" fill="none" stroke="black"/>
<path d="M287.213,126.748v -1.08193" fill="none" stroke="black"/>
<path d="M294.187,126.207h 6.97382" fill="none" stroke="black"/>
<path d="M301.161,126.748v -1.08193" fill="none" stroke="black"/>
<path d="M294.187,126.207v -12.354" fill="none" stroke="black"/>
<path d="M293.646,113.853h 1.08193" fill="none" stroke="black"/>
<path d="M294.187,126.207v 12.354" fill="none" stroke="black"/>
<path d="M293.646,138.561h 1.08193" fill="none" stroke="black"/>
<path d="M308.135,181.289h -6.97382" fill="none" stroke="black"/>
<path d="M301.161,181.83v -1.08193" fill="none" stroke="black"/>
<path d="M308.135,181.289h 6.97382" fill="none" stroke="black"/>
<path d="M315.108,181.83v -1.08193" fill="none" stroke="black"/>
<path d="M308.135,181.289v -10.6682" fill="none" stroke="black"/>
<path d="M307.594,170.621h 1.08193" fill="none" stroke="black"/>
<path d="M308.135,181.289v 10.6682" fill="none" stroke="black"/>
<path d="M307.594,191.958h 1.08193" fill="none" stroke="black"/>
<path d="M322.082,227.766h -6.97382" fill="none" stroke="black"/>
<path d="M315.108,228.307v -1.08193" fill="none" stroke="black"/>
<path d="M322.082,227.766h 6.97382" fill="none" stroke="black"/>
<path d="M329.056,228.307v -1.08193" fill="none" stroke="black"/>
<path d="M322.082,227.766v -8.86006" fill="none" stroke="black"/>
<path d="M321.541,218.906h 1.08193" fill="none" stroke="black"/>
<path d="M322.082,227.766v 8.86006" fill="none" stroke="black"/>
<path d="M321.541,236.626h 1.08193" fill="none" stroke="black"/>
<path d="M336.03,266.313h -6.97382" fill="none" stroke="black"/>
<path d="M329.056,266.854v -1.08193" fill="none" stroke="black"/>
<path d="M336.03,266.313h 6.97382" fill="none" stroke="black"/>
<path d="M343.004,266.854v -1.08193" fill="none" stroke="black"/>
<path d="M336.03,266.313v -7.4085" fill="none" stroke="black"/>
<path d="M335.489,258.904h 1.08193" fill="none" stroke="black"/>
<path d="M336.03,266.313v 7.4085" fill="none" stroke="black"/>
<path d="M335.489,273.721h 1.08193" fill="none" stroke="black"/>
<path d="M349.977,303.76h -6.97382" fill="none" stroke="black"/>
<path d="M343.004,304.301v -1.08193" fill="none" stroke="black"/>
<path d="M349.977,303.76h 6.97382" fill="none" stroke="black"/>
<path d="M356.951,304.301v -1.08193" fill="none" stroke="black"/>
<path d="M349.977,303.76v -5.4476" fill="none" stroke="black"/>
<path d="M349.437,298.313h 1.08193" fill="none" stroke="black"/>
<path d="M349.977,303.76v 5.4476" fill="none" stroke="black"/>
<path d="M349.437,309.208h 1.08193" fill="none" stroke="black"/>
<path d="M363.925,318.547h -6.97382" fill="none" stroke="black"/>
<path d="M356.951,319.088v -1.08193" fill="none" stroke="black"/>
<path d="M363.925,318.547h 6.97382" fill="none" stroke="black"/>
<path d="M370.899,319.088v -1.08193" fill="none" stroke="black"/>
<path d="M363.925,318.547v -4.58694" fill="none" stroke="black"/>
<path d="M363.384,313.96h 1.08193" fill="none" stroke="black"/>
<path d="M363.925,318.547v 4.58694" fill="none" stroke="black"/>
<path d="M363.384,323.134h 1.08193" fill="none" stroke="black"/>
<path d="M377.873,321.658h -6.97382" fill="none" stroke="black"/>
<path d="M370.899,322.199v -1.08193" fill="none" stroke="black"/>
<path d="M377.873,321.658h 6.97382" fill="none" stroke="black"/>
<path d="M384.847,322.199v -1.08193" fill="none" stroke="black"/>
<path d="M377.873,321.658v -4.21754" fill="none" stroke="black"/>
<path d="M377.332,317.441h 1.08193" fill="none" stroke="black"/>
<path d="M377.873,321.658v 4.21754" fill="none" stroke="black"/>
<path d="M377.332,325.876h 1.08193" fill="none" stroke="black"/>
<path d="M391.82,335.018h -6.97382" fill="none" stroke="black"/>
<path d="M384.847,335.559v -1.08193" fill="none" stroke="black"/>
<path d="M391.82,335.018h 6.97382" fill="none" stroke="black"/>
<path d="M398.794,335.559v -1.08193" fill="none" stroke="black"/>
<path d="M391.82,335.018v -2.7517" fill="none" stroke="black"/>
<path d="M391.279,332.266h 1.08193" fill="none" stroke="black"/>
<path d="M391.82,335.018v 2.7517" fill="none" stroke="black"/>
<path d="M391.279,337.77h 1.08193" fill="none" stroke="black"/>
<path d="M405.768,339.163h -6.97382" fill="none" stroke="black"/>
<path d="M398.794,339.704v -1.08193" fill="none" stroke="black"/>
<path d="M405.768,339.163h 6.97382" fill="none" stroke="black"/>
<path d="M412.742,339.704v -1.08193" fill="none" stroke="black"/>
<path d="M405.768,339.163v -2.27434" fill="none" stroke="black"/>
<path d="M405.227,336.889h 1.08193" fill="none" stroke="black"/>
<path d="M405.768,339.163v 2.27434" fill="none" stroke="black"/>
<path d="M405.227,341.438h 1.08193" fill="none" stroke="black"/>
<path d="M419.716,342.243h -6.97382" fill="none" stroke="black"/>
<path d="M412.742,342.784v -1.08193" fill="none" stroke="black"/>
<path d="M419.716,342.243h 6.97382" fill="none" stroke="black"/>
<path d="M426.689,342.784v -1.08193" fill="none" stroke="black"/>
<path d="M419.716,342.243v -1.70491" fill="none" stroke="black"/>
<path d="M419.175,340.538h 1.08193" fill="none" stroke="black"/>
<path d="M419.716,342.243v 1.70491" fill="none" stroke="black"/>
<path d="M419.175,343.948h 1.08193" fill="none" stroke="black"/>
<path d="M433.663,343.291h -6.97382" fill="none" stroke="black"/>
<path d="M426.689,343.832v -1.08193" fill="none" stroke="black"/>
<path d="M433.663,343.291h 6.97382" fill="none" stroke="black"/>
<path d="M440.637,343.832v -1.08193" fill="none" stroke="black"/>
<path d="M433.663,343.291v -1.54016" fill="none" stroke="black"/>
<path d="M433.122,341.751h 1.08193" fill="none" stroke="black"/>
<path d="M433.663,343.291v 1.54016" fill="none" stroke="black"/>
<path d="M433.122,344.831h 1.08193" fill="none" stroke="black"/>
<path d="M447.611,340.821h -6.97382" fill="none" stroke="black"/>
<path d="M440.637,341.362v -1.08193" fill="none" stroke="black"/>
<path d="M447.611,340.821h 6.97382" fill="none" stroke="black"/>
<path d="M454.585,341.362v -1.08193" fill="none" stroke="black"/>
<path d="M447.611,340.821v -2.03484" fill="none" stroke="black"/>
<path d="M447.07,338.786h 1.08193" fill="none" stroke="black"/>
<path d="M447.611,340.821v 2.03484" fill="none" stroke="black"/>
<path d="M447.07,342.855h 1.08193" fill="none" stroke="black"/>
<path d="M461.559,345.128h -6.97382" fill="none" stroke="black"/>
<path d="M454.585,345.669v -1.08193" fill="none" stroke="black"/>
<path d="M461.559,345.128h 6.97382" fill="none" stroke="black"/>
<path d="M468.532,345.669v -1.08193" fill="none" stroke="black"/>
<path d="M461.559,345.128v -0.881038" fill="none" stroke="black"/>
<path d="M461.018,344.247h 1.08193" fill="none" stroke="black"/>
<path d="M461.559,345.128v 0.881038" fill="none" stroke="black"/>
<path d="M461.018,346.009h 1.08193" fill="none" stroke="black"/>
<path d="M475.506,344.434h -6.97382" fill="none" stroke="black"/>
<path d="M468.532,344.975v -1.08193" fill="none" stroke="black"/>
<path d="M475.506,344.434h 6.97382" fill="none" stroke="black"/>
<path d="M482.48,344.975v -1.08193" fill="none" stroke="black"/>
<path d="M475.506,344.434v -1.08547" fill="none" stroke="black"/>
<path d="M474.965,343.348h 1.08193" fill="none" stroke="black"/>
<path d="M475.506,344.434v 1.08547" fill="none" stroke="black"/>
<path d="M474.965,345.519h 1.08193" fill="none" stroke="black"/>
<g stroke="black" stroke-width="1" fill="black">
<circle cx="84.9724" cy="346.543" r="2.16385"/>
<circle cx="98.9201" cy="340.745" r="2.16385"/>
<circle cx="112.868" cy="338.745" r="2.16385"/>
<circle cx="126.815" cy="340.367" r="2.16385"/>
<circle cx="140.763" cy="335.59" r="2.16385"/>
<circle cx="154.711" cy="333.441" r="2.16385"/>
<circle cx="168.658" cy="330.643" r="2.16385"/>
<circle cx="182.606" cy="328.079" r="2.16385"/>
<circle cx="196.554" cy="318.283" r="2.16385"/>
<circle cx="210.501" cy="309.867" r="2.16385"/>
<circle cx="224.449" cy="274.666" r="2.16385"/>
<circle cx="238.396" cy="261.788" r="2.16385"/>
<circle cx="252.344" cy="235.767" r="2.16385"/>
<circle cx="266.292" cy="164.619" r="2.16385"/>
<circle cx="280.239" cy="131.254" r="2.16385"/>
<circle cx="294.187" cy="126.207" r="2.16385"/>
<circle cx="308.135" cy="181.289" r="2.16385"/>
<circle cx="322.082" cy="227.766" r="2.16385"/>
<circle cx="336.03" cy="266.313" r="2.16385"/>
<circle cx="349.977" cy="303.76" r="2.16385"/>
<circle cx="363.925" cy="318.547" r="2.16385"/>
<circle cx="377.873" cy="321.658" r="2.16385"/>
<circle cx="391.82" cy="335.018" r="2.16385"/>
<circle cx="405.768" cy="339.163" r="2.16385"/>
<circle cx="419.716" cy="342.243" r="2.16385"/>
<circle cx="433.663" cy="343.291" r="2.16385"/>
<circle cx="447.611" cy="340.821" r="2.16385"/>
<circle cx="461.559" cy="345.128" r="2.16385"/>
<circle cx="475.506" cy="344.434" r="2.16385"/>
</g>
<path d="M95.4332,341.271l 3.8356, -0.276549l 3.8356, -0.30069l 3.8356, -0.326714l 3.8356, -0.354703l 3.8356, -0.384738l 3.8356, -0.416902l 3.8356, -0.451281l 3.8356, -0.487971l 3.8356, -0.527083l 3.8356, -0.568752l 3.8356, -0.61315l 3.8356,
 -0.660499l 3.8356, -0.711091l 3.8356, -0.765311l 3.8356, -0.823666l 3.8356, -0.886812l 3.8356, -0.955589l 3.8356, -1.03106l 3.8356, -1.11455l 3.8356, -1.20768l 3.8356, -1.31239l 3.8356, -1.431l 3.8356, -1.56623l 3.8356, -1.72119l 3.8356, -1.89949l
 3.8356, -2.10526l 3.8356, -2.34326l 3.8356, -2.61916l 3.8356, -2.93988l 3.8356, -3.31443l 3.8356, -3.75519l 3.8356, -4.2804l 3.8356, -4.91856l 3.8356, -5.71682l 3.8356, -6.75734l 1.9178, -3.88291l 1.9178, -4.30907l 1.9178, -4.83226l 1.9178,
 -5.38771l 3.8356, -11.5486l 3.8356, -12.379l 3.8356, -13.006l 3.8356, -13.3665l 3.8356, -13.4033l 3.8356, -13.0699l 3.8356, -12.3359l 3.8356, -11.1909l 1.9178, -5.04045l 1.9178, -4.60713l 1.9178, -4.12994l 1.9178, -3.61265l 1.9178, -3.05968l 1.9178,
 -2.47608l 1.9178, -1.86741l 1.9178, -1.23966l 1.9178, -0.599171l 1.9178, 0.0474946l 1.9178, 0.69367l 1.9178, 1.33269l 1.9178, 1.95803l 1.9178, 2.5634l 1.9178, 3.14284l 1.9178, 3.69087l 1.9178, 4.20255l 1.9178, 4.67352l 3.8356, 10.5796l 3.8356,
 11.8974l 3.8356, 12.8068l 3.8356, 13.3085l 3.8356, 13.4248l 3.8356, 13.1959l 3.8356, 12.6751l 3.8356, 11.9237l 3.8356, 11.0056l 3.8356, 9.98326l 3.8356, 8.91354l 3.8356, 7.84523l 3.8356, 6.81748l 3.8356, 5.85927l 3.8356, 4.98978l 3.8356, 4.21942l
 3.8356, 3.55121l 3.8356, 2.98245l 3.8356, 2.50634l 3.8356, 2.11347l 3.8356, 1.79312l 3.8356, 1.53424l 3.8356, 1.32625l 3.8356, 1.15944l 3.8356, 1.02533l 3.8356, 0.916718l 3.8356, 0.827683l 3.8356, 0.753485l 3.8356, 0.690426l 3.8356, 0.635685l
 3.8356, 0.587163l 3.8356, 0.543333l 3.8356, 0.50311l 3.8356, 0.465743l 3.8356, 0.430724l 3.8356, 0.397722l 3.8356, 0.366529l 3.8356, 0.337017l 3.8356, 0.309109l 3.8356, 0.282763l 3.8356, 0.25795l 3.8356, 0.234648l 3.8356, 0.212838l 3.8356, 0.192494l
 3.8356, 0.173586l 3.8356, 0.156077" fill="none" stroke="#ff0000" stroke-width="3"/>
<path d="M95.4332,341.911l 3.8356, -0.282003l 3.8356, -0.320346l 3.8356, -0.32139l 3.8356, -0.379893l 3.8356, -0.379216l 3.8356, -0.436876l 3.8356, -0.474922l 3.8356, -0.498603l 3.8356, -0.531635l 3.8356, -0.587812l 3.8356, -0.602819l 3.8356,
 -0.649674l 3.8356, -0.689691l 3.8356, -0.76095l 3.8356, -0.804288l 3.8356, -0.913445l 3.8356, -0.969953l 3.8356, -1.06236l 3.8356, -1.09785l 3.8356, -1.18658l 3.8356, -1.30182l 3.8356, -1.41886l 3.8356, -1.54005l 3.8356, -1.67117l 3.8356, -1.79892l
 3.8356, -1.99196l 3.8356, -2.19053l 3.8356, -2.43283l 3.8356, -2.62157l 3.8356, -2.91661l 3.8356, -3.46953l 3.8356, -3.95049l 3.8356, -4.62601l 3.8356, -5.39243l 3.8356, -6.29759l 1.9178, -3.89324l 1.9178, -4.26788l 1.9178, -4.7197l 1.9178,
 -4.97282l 3.8356, -11.1724l 3.8356, -12.3637l 3.8356, -13.008l 3.8356, -13.4035l 3.8356, -13.3144l 3.8356, -13.1353l 3.8356, -12.4972l 3.8356, -11.3228l 1.9178, -4.97439l 1.9178, -4.74594l 1.9178, -4.29897l 1.9178, -3.59678l 1.9178, -3.16355l
 1.9178, -2.47092l 1.9178, -1.86855l 1.9178, -1.23496l 1.9178, -0.59064l 1.9178, 0.298959l 1.9178, 0.756889l 1.9178, 1.3238l 1.9178, 1.92853l 1.9178, 2.66218l 1.9178, 3.06376l 1.9178, 3.43711l 1.9178, 4.19832l 1.9178, 4.72299l 3.8356, 10.6111l
 3.8356, 11.9796l 3.8356, 12.9511l 3.8356, 13.4371l 3.8356, 13.3874l 3.8356, 13.3776l 3.8356, 12.6359l 3.8356, 11.7263l 3.8356, 10.7736l 3.8356, 9.75811l 3.8356, 8.44525l 3.8356, 7.56374l 3.8356, 6.38965l 3.8356, 5.483l 3.8356, 4.62776l 3.8356,
 3.86162l 3.8356, 3.31909l 3.8356, 2.71276l 3.8356, 2.35097l 3.8356, 2.03781l 3.8356, 1.80702l 3.8356, 1.51262l 3.8356, 1.29802l 3.8356, 1.16972l 3.8356, 1.00982l 3.8356, 0.913474l 3.8356, 0.800862l 3.8356, 0.733406l 3.8356, 0.663784l 3.8356,
 0.601111l 3.8356, 0.555812l 3.8356, 0.518581l 3.8356, 0.487738l 3.8356, 0.424415l 3.8356, 0.387538l 3.8356, 0.352363l 3.8356, 0.322356l 3.8356, 0.296992l 3.8356, 0.26894l 3.8356, 0.242862l 3.8356, 0.222184l 3.8356, 0.201984l 3.8356, 0.182804l
 3.8356, 0.165034l 3.8356, 0.148607l 3.8356, 0.13346v -0.309341l -3.8356, -0.173029l -3.8356, -0.193052l -3.8356, -0.216942l -3.8356, -0.241042l -3.8356, -0.26603l -3.8356, -0.292731l -3.8356, -0.31906l -3.8356, -0.345631l -3.8356, -0.376353l
 -3.8356, -0.411738l -3.8356, -0.447101l -3.8356, -0.48472l -3.8356, -0.522843l -3.8356, -0.568274l -3.8356, -0.609551l -3.8356, -0.642152l -3.8356, -0.703182l -3.8356, -0.799558l -3.8356, -0.842286l -3.8356, -0.917651l -3.8356, -1.0046l -3.8356,
 -1.12313l -3.8356, -1.23037l -3.8356, -1.33658l -3.8356, -1.52927l -3.8356, -1.74571l -3.8356, -2.16577l -3.8356, -2.59013l -3.8356, -3.0918l -3.8356, -3.66147l -3.8356, -4.3602l -3.8356, -5.12378l -3.8356, -5.96021l -3.8356, -6.99692l -3.8356,
 -7.93122l -3.8356, -9.13436l -3.8356, -10.0342l -3.8356, -11.0733l -3.8356, -11.9524l -3.8356, -12.8079l -3.8356, -13.1521l -3.8356, -13.7458l -3.8356, -13.3641l -3.8356, -12.9911l -3.8356, -12.2926l -3.8356, -10.8596l -1.9178, -4.76241l -1.9178,
 -4.36017l -1.9178, -3.94087l -1.9178, -3.17474l -1.9178, -2.57783l -1.9178, -2.03421l -1.9178, -1.39514l -1.9178, -0.879948l -1.9178, -0.127282l -1.9178, 0.56088l -1.9178, 1.24725l -1.9178, 2.02413l -1.9178, 2.61469l -1.9178, 3.36069l -1.9178,
 3.69194l -1.9178, 4.27207l -1.9178, 4.76782l -1.9178, 5.44083l -3.8356, 11.5487l -3.8356, 12.5313l -3.8356, 13.3726l -3.8356, 13.4055l -3.8356, 13.4482l -3.8356, 13.0363l -3.8356, 12.2013l -3.8356, 11.4958l -1.9178, 5.20865l -1.9178, 4.95997l
 -1.9178, 4.34306l -1.9178, 4.24526l -3.8356, 6.93717l -3.8356, 5.65123l -3.8356, 5.04337l -3.8356, 4.45776l -3.8356, 3.71872l -3.8356, 3.3586l -3.8356, 3.00906l -3.8356, 2.66793l -3.8356, 2.3315l -3.8356, 2.19135l -3.8356, 1.93362l -3.8356, 1.78229l
 -3.8356, 1.5312l -3.8356, 1.46016l -3.8356, 1.43398l -3.8356, 1.25858l -3.8356, 1.10038l -3.8356, 1.07289l -3.8356, 0.987089l -3.8356, 0.962128l -3.8356, 0.835511l -3.8356, 0.791938l -3.8356, 0.722097l -3.8356, 0.607997l -3.8356, 0.62335l -3.8356,
 0.577206l -3.8356, 0.562735l -3.8356, 0.45702l -3.8356, 0.429602l -3.8356, 0.394011l -3.8356, 0.396712l -3.8356, 0.34454l -3.8356, 0.339261l -3.8356, 0.300168l -3.8356, 0.280723z" fill="#00ff00"/>
<path d="M95.4332,342.503l 3.8356, -0.110603l 3.8356, -0.11644l 3.8356, -0.122739l 3.8356, -0.129553l 3.8356, -0.136936l 3.8356, -0.144955l 3.8356, -0.153682l 3.8356, -0.163203l 3.8356, -0.173617l 3.8356, -0.185035l 3.8356, -0.197592l 3.8356,
 -0.211441l 3.8356, -0.226764l 3.8356, -0.243774l 3.8356, -0.262727l 3.8356, -0.283924l 3.8356, -0.307732l 3.8356, -0.33459l 3.8356, -0.365037l 3.8356, -0.399734l 3.8356, -0.439499l 3.8356, -0.485356l 3.8356, -0.538599l 3.8356, -0.600884l 3.8356,
 -0.674349l 3.8356, -0.761804l 3.8356, -0.866989l 3.8356, -0.994974l 3.8356, -1.15276l 3.8356, -1.35023l 3.8356, -1.6017l 3.8356, -1.92851l 3.8356, -2.36356l 3.8356, -2.95972l 3.8356, -3.8062l 1.9178, -2.33931l 1.9178, -2.72375l 1.9178, -3.20867l
 1.9178, -3.72991l 3.8356, -8.1497l 3.8356, -8.90713l 3.8356, -9.51488l 3.8356, -9.91797l 3.8356, -10.0655l 3.8356, -9.91508l 3.8356, -9.43775l 3.8356, -8.62145l 1.9178, -3.90024l 1.9178, -3.57371l 1.9178, -3.21042l 1.9178, -2.81346l 1.9178,
 -2.38648l 1.9178, -1.93369l 1.9178, -1.45975l 1.9178, -0.969691l 1.9178, -0.468872l 1.9178, 0.0371706l 1.9178, 0.542799l 1.9178, 1.04238l 1.9178, 1.5304l 1.9178, 2.00155l 1.9178, 2.45084l 1.9178, 2.87366l 1.9178, 3.2659l 1.9178, 3.62397l 1.9178,
 3.94489l 1.9178, 4.2263l 3.8356, 9.13096l 3.8356, 9.75254l 3.8356, 10.0398l 3.8356, 10.0149l 3.8356, 9.715l 3.8356, 9.18797l 3.8356, 8.48761l 3.8356, 7.66922l 3.8356, 6.78563l 3.8356, 5.88405l 3.8356, 5.00391l 3.8356, 4.17574l 3.8356, 3.42099l
 3.8356, 2.75253l 3.8356, 2.1758l 3.8356, 1.69018l 3.8356, 1.29056l 3.8356, 0.96882l 3.8356, 0.715171l 3.8356, 0.519213l 3.8356, 0.370777l 3.8356, 0.260473l 3.8356, 0.18003l 3.8356, 0.122434l 3.8356, 0.0819355l 3.8356, 0.0539623l 3.8356, 0.0349774l
 3.8356, 0.0223148l 3.8356, 0.0354301h 61.3696" fill="none" stroke="black" stroke-width="3" stroke-dasharray=" 3, 3"/>
<path d="M95.4332,346.543h 49.8628l 3.8356, -0.0424508l 3.8356, -0.0198902l 3.8356, -0.028216l 3.8356, -0.0395591l 3.8356, -0.054811l 3.8356, -0.0750475l 3.8356, -0.101537l 3.8356, -0.135737l 3.8356, -0.17928l 3.8356, -0.233928l 3.8356, -0.301516l
 3.8356, -0.383859l 3.8356, -0.48263l 3.8356, -0.599213l 3.8356, -0.734523l 3.8356, -0.88882l 3.8356, -1.0615l 3.8356, -1.25092l 3.8356, -1.4542l 3.8356, -1.66714l 3.8356, -1.88416l 3.8356, -2.09833l 3.8356, -2.30151l 3.8356, -2.48463l 3.8356,
 -2.63804l 3.8356, -2.75198l 3.8356, -2.81712l 3.8356, -2.82519l 3.8356, -2.76954l 3.8356, -2.64574l 3.8356, -2.45202l 3.8356, -2.18961l 3.8356, -1.86292l 1.9178, -0.790841l 1.9178, -0.688634l 1.9178, -0.580977l 1.9178, -0.468677l 1.9178, -0.352599l
 1.9178, -0.233662l 1.9178, -0.112822l 1.9178, 0.00894032l 1.9178, 0.130629l 1.9178, 0.251251l 1.9178, 0.369828l 1.9178, 0.485408l 1.9178, 0.59708l 1.9178, 0.703986l 1.9178, 0.805331l 1.9178, 0.900393l 3.8356, 2.05772l 3.8356, 2.34828l 3.8356,
 2.57164l 3.8356, 2.72523l 3.8356, 2.80956l 3.8356, 2.82797l 3.8356, 2.78625l 3.8356, 2.69204l 3.8356, 2.55429l 3.8356, 2.38264l 3.8356, 2.18687l 3.8356, 1.97633l 3.8356, 1.75961l 3.8356, 1.54416l 3.8356, 1.33617l 3.8356, 1.14041l 3.8356, 0.960317l
 3.8356, 0.798045l 3.8356, 0.65462l 3.8356, 0.530126l 3.8356, 0.423902l 3.8356, 0.334742l 3.8356, 0.261075l 3.8356, 0.201131l 3.8356, 0.153072l 3.8356, 0.115094l 3.8356, 0.0855038l 3.8356, 0.062766l 3.8356, 0.0455301l 3.8356, 0.0326387l 3.8356,
 0.0231234l 3.8356, 0.0161911l 3.8356, 0.0338894h 49.8628" fill="none" stroke="#84c1a3" stroke-width="3" stroke-dasharray=" 3, 3"/>
<path d="M95.4332,345.311l 3.8356, -0.165901l 3.8356, -0.184177l 3.8356, -0.203853l 3.8356, -0.224952l 3.8356, -0.247483l 3.8356, -0.27144l 3.8356, -0.2968l 3.8356, -0.323525l 3.8356, -0.351555l 3.8356, -0.38081l 3.8356, -0.411187l 3.8356, -0.442562l
 3.8356, -0.474784l 3.8356, -0.507679l 3.8356, -0.54105l 3.8356, -0.574672l 3.8356, -0.608298l 3.8356, -0.64166l 3.8356, -0.674465l 3.8356, -0.706405l 3.8356, -0.737152l 3.8356, -0.766366l 3.8356, -0.793698l 3.8356, -0.818791l 3.8356, -0.841285l
 3.8356, -0.860825l 3.8356, -0.877063l 3.8356, -0.889662l 3.8356, -0.898305l 3.8356, -0.902696l 3.8356, -0.902569l 3.8356, -0.89769l 3.8356, -0.887865l 3.8356, -0.87294l 3.8356, -0.852809l 3.8356, -0.827416l 3.8356, -0.796758l 3.8356, -0.760886l
 3.8356, -0.719907l 3.8356, -0.673987l 3.8356, -0.623344l 3.8356, -0.568255l 3.8356, -0.509046l 3.8356, -0.446097l 3.8356, -0.379829l 3.8356, -0.310708l 3.8356, -0.239233l 3.8356, -0.165935l 3.8356, -0.0913648l 3.8356, -0.0160932l 3.8356, 0.0593022l
 3.8356, 0.134242l 3.8356, 0.208151l 3.8356, 0.280471l 3.8356, 0.350659l 3.8356, 0.418203l 3.8356, 0.482623l 3.8356, 0.543476l 3.8356, 0.600366l 3.8356, 0.652943l 3.8356, 0.700908l 3.8356, 0.744018l 3.8356, 0.782086l 3.8356, 0.814978l 3.8356,
 0.84262l 3.8356, 0.864992l 3.8356, 0.882128l 3.8356, 0.894113l 3.8356, 0.901081l 3.8356, 0.903209l 3.8356, 0.900714l 3.8356, 0.893851l 3.8356, 0.882902l 3.8356, 0.868177l 3.8356, 0.850004l 3.8356, 0.828726l 3.8356, 0.804699l 3.8356, 0.778279l
 3.8356, 0.749824l 3.8356, 0.719688l 3.8356, 0.688217l 3.8356, 0.655742l 3.8356, 0.622581l 3.8356, 0.589033l 3.8356, 0.555378l 3.8356, 0.521871l 3.8356, 0.488747l 3.8356, 0.456215l 3.8356, 0.424459l 3.8356, 0.39364l 3.8356, 0.363892l 3.8356,
 0.335329l 3.8356, 0.308039l 3.8356, 0.28209l 3.8356, 0.257531l 3.8356, 0.23439l 3.8356, 0.21268l 3.8356, 0.192399l 3.8356, 0.173529l 3.8356, 0.156043" fill="none" stroke="#ddba87" stroke-width="3" stroke-dasharray=" 3, 3"/>
<path d="M95.4332,341.271l 3.8356, -0.276549l 3.8356, -0.30069l 3.8356, -0.326714l 3.8356, -0.354703l 3.8356, -0.384738l 3.8356, -0.416902l 3.8356, -0.451281l 3.8356, -0.487971l 3.8356, -0.527083l 3.8356, -0.568752l 3.8356, -0.61315l 3.8356,
 -0.660499l 3.8356, -0.711091l 3.8356, -0.765311l 3.8356, -0.823666l 3.8356, -0.886812l 3.8356, -0.955589l 3.8356, -1.03106l 3.8356, -1.11455l 3.8356, -1.20768l 3.8356, -1.31239l 3.8356, -1.431l 3.8356, -1.56623l 3.8356, -1.72119l 3.8356, -1.89949l
 3.8356, -2.10526l 3.8356, -2.34326l 3.8356, -2.61916l 3.8356, -2.93988l 3.8356, -3.31443l 3.8356, -3.75519l 3.8356, -4.2804l 3.8356, -4.91856l 3.8356, -5.71682l 3.8356, -6.75734l 1.9178, -3.88291l 1.9178, -4.30907l 1.9178, -4.83226l 1.9178,
 -5.38771l 3.8356, -11.5486l 3.8356, -12.379l 3.8356, -13.006l 3.8356, -13.3665l 3.8356, -13.4033l 3.8356, -13.0699l 3.8356, -12.3359l 3.8356, -11.1909l 1.9178, -5.04045l 1.9178, -4.60713l 1.9178, -4.12994l 1.9178, -3.61265l 1.9178, -3.05968l 1.9178,
 -2.47608l 1.9178, -1.86741l 1.9178, -1.23966l 1.9178, -0.599171l 1.9178, 0.0474946l 1.9178, 0.69367l 1.9178, 1.33269l 1.9178, 1.95803l 1.9178, 2.5634l 1.9178, 3.14284l 1.9178, 3.69087l 1.9178, 4.20255l 1.9178, 4.67352l 3.8356, 10.5796l 3.8356,
 11.8974l 3.8356, 12.8068l 3.8356, 13.3085l 3.8356, 13.4248l 3.8356, 13.1959l 3.8356, 12.6751l 3.8356, 11.9237l 3.8356, 11.0056l 3.8356, 9.98326l 3.8356, 8.91354l 3.8356, 7.84523l 3.8356, 6.81748l 3.8356, 5.85927l 3.8356, 4.98978l 3.8356, 4.21942l
 3.8356, 3.55121l 3.8356, 2.98245l 3.8356, 2.50634l 3.8356, 2.11347l 3.8356, 1.79312l 3.8356, 1.53424l 3.8356, 1.32625l 3.8356, 1.15944l 3.8356, 1.02533l 3.8356, 0.916718l 3.8356, 0.827683l 3.8356, 0.753485l 3.8356, 0.690426l 3.8356, 0.635685l
 3.8356, 0.587163l 3.8356, 0.543333l 3.8356, 0.50311l 3.8356, 0.465743l 3.8356, 0.430724l 3.8356, 0.397722l 3.8356, 0.366529l 3.8356, 0.337017l 3.8356, 0.309109l 3.8356, 0.282763l 3.8356, 0.25795l 3.8356, 0.234648l 3.8356, 0.212838l 3.8356, 0.192494l
 3.8356, 0.173586l 3.8356, 0.156077" fill="none" stroke="#ff0000" stroke-width="3"/>
<path d="M84.9724,346.543z" fill="none" stroke="black"/>
<path d="M84.9724,346.543h 6.97382" fill="none" stroke="black"/>
<path d="M91.9463,346.543v -0.540963" fill="none" stroke="black"/>
<path d="M98.9201,340.745h -6.97382" fill="none" stroke="black"/>
<path d="M91.9463,341.286v -1.08193" fill="none" stroke="black"/>
<path d="M98.9201,340.745h 6.97382" fill="none" stroke="black"/>
<path d="M105.894,341.286v -1.08193" fill="none" stroke="black"/>
<path d="M98.9201,340.745v -2.1004" fill="none" stroke="black"/>
<path d="M98.3791,338.644h 1.08193" fill="none" stroke="black"/>
<path d="M98.9201,340.745v 2.1004" fill="none" stroke="black"/>
<path d="M98.3791,342.845h 1.08193" fill="none" stroke="black"/>
<path d="M112.868,338.745h -6.97382" fill="none" stroke="black"/>
<path d="M105.894,339.286v -1.08193" fill="none" stroke="black"/>
<path d="M112.868,338.745h 6.97382" fill="none" stroke="black"/>
<path d="M119.842,339.286v -1.08193" fill="none" stroke="black"/>
<path d="M112.868,338.745v -2.26183" fill="none" stroke="black"/>
<path d="M112.327,336.483h 1.08193" fill="none" stroke="black"/>
<path d="M112.868,338.745v 2.26183" fill="none" stroke="black"/>
<path d="M112.327,341.007h 1.08193" fill="none" stroke="black"/>
<path d="M126.815,340.367h -6.97382" fill="none" stroke="black"/>
<path d="M119.842,340.908v -1.08193" fill="none" stroke="black"/>
<path d="M126.815,340.367h 6.97382" fill="none" stroke="black"/>
<path d="M133.789,340.908v -1.08193" fill="none" stroke="black"/>
<path d="M126.815,340.367v -1.90864" fill="none" stroke="black"/>
<path d="M126.274,338.458h 1.08193" fill="none" stroke="black"/>
<path d="M126.815,340.367v 1.90864" fill="none" stroke="black"/>
<path d="M126.274,342.275h 1.08193" fill="none" stroke="black"/>
<path d="M140.763,335.59h -6.97382" fill="none" stroke="black"/>
<path d="M133.789,336.131v -1.08193" fill="none" stroke="black"/>
<path d="M140.763,335.59h 6.97382" fill="none" stroke="black"/>
<path d="M147.737,336.131v -1.08193" fill="none" stroke="black"/>
<path d="M140.763,335.59v -2.64686" fill="none" stroke="black"/>
<path d="M140.222,332.943h 1.08193" fill="none" stroke="black"/>
<path d="M140.763,335.59v 2.64686" fill="none" stroke="black"/>
<path d="M140.222,338.237h 1.08193" fill="none" stroke="black"/>
<path d="M154.711,333.441h -6.97382" fill="none" stroke="black"/>
<path d="M147.737,333.982v -1.08193" fill="none" stroke="black"/>
<path d="M154.711,333.441h 6.97382" fill="none" stroke="black"/>
<path d="M161.684,333.982v -1.08193" fill="none" stroke="black"/>
<path d="M154.711,333.441v -2.83484" fill="none" stroke="black"/>
<path d="M154.17,330.607h 1.08193" fill="none" stroke="black"/>
<path d="M154.711,333.441v 2.83484" fill="none" stroke="black"/>
<path d="M154.17,336.276h 1.08193" fill="none" stroke="black"/>
<path d="M168.658,330.643h -6.97382" fill="none" stroke="black"/>
<path d="M161.684,331.184v -1.08193" fill="none" stroke="black"/>
<path d="M168.658,330.643h 6.97382" fill="none" stroke="black"/>
<path d="M175.632,331.184v -1.08193" fill="none" stroke="black"/>
<path d="M168.658,330.643v -3.1786" fill="none" stroke="black"/>
<path d="M168.117,327.465h 1.08193" fill="none" stroke="black"/>
<path d="M168.658,330.643v 3.1786" fill="none" stroke="black"/>
<path d="M168.117,333.822h 1.08193" fill="none" stroke="black"/>
<path d="M182.606,328.079h -6.97382" fill="none" stroke="black"/>
<path d="M175.632,328.62v -1.08193" fill="none" stroke="black"/>
<path d="M182.606,328.079h 6.97382" fill="none" stroke="black"/>
<path d="M189.58,328.62v -1.08193" fill="none" stroke="black"/>
<path d="M182.606,328.079v -3.61063" fill="none" stroke="black"/>
<path d="M182.065,324.468h 1.08193" fill="none" stroke="black"/>
<path d="M182.606,328.079v 3.61063" fill="none" stroke="black"/>
<path d="M182.065,331.689h 1.08193" fill="none" stroke="black"/>
<path d="M196.554,318.283h -6.97382" fill="none" stroke="black"/>
<path d="M189.58,318.824v -1.08193" fill="none" stroke="black"/>
<path d="M196.554,318.283h 6.97382" fill="none" stroke="black"/>
<path d="M203.527,318.824v -1.08193" fill="none" stroke="black"/>
<path d="M196.554,318.283v -4.34971" fill="none" stroke="black"/>
<path d="M196.013,313.934h 1.08193" fill="none" stroke="black"/>
<path d="M196.554,318.283v 4.34971" fill="none" stroke="black"/>
<path d="M196.013,322.633h 1.08193" fill="none" stroke="black"/>
<path d="M210.501,309.867h -6.97382" fill="none" stroke="black"/>
<path d="M203.527,310.408v -1.08193" fill="none" stroke="black"/>
<path d="M210.501,309.867h 6.97382" fill="none" stroke="black"/>
<path d="M217.475,310.408v -1.08193" fill="none" stroke="black"/>
<path d="M210.501,309.867v -4.92632" fill="none" stroke="black"/>
<path d="M209.96,304.941h 1.08193" fill="none" stroke="black"/>
<path d="M210.501,309.867v 4.92632" fill="none" stroke="black"/>
<path d="M209.96,314.794h 1.08193" fill="none" stroke="black"/>
<path d="M224.449,274.666h -6.97382" fill="none" stroke="black"/>
<path d="M217.475,275.207v -1.08193" fill="none" stroke="black"/>
<path d="M224.449,274.666h 6.97382" fill="none" stroke="black"/>
<path d="M231.423,275.207v -1.08193" fill="none" stroke="black"/>
<path d="M224.449,274.666v -7.20227" fill="none" stroke="black"/>
<path d="M223.908,267.464h 1.08193" fill="none" stroke="black"/>
<path d="M224.449,274.666v 7.20227" fill="none" stroke="black"/>
<path d="M223.908,281.869h 1.08193" fill="none" stroke="black"/>
<path d="M238.396,261.788h -6.97382" fill="none" stroke="black"/>
<path d="M231.423,262.329v -1.08193" fill="none" stroke="black"/>
<path d="M238.396,261.788h 6.97382" fill="none" stroke="black"/>
<path d="M245.37,262.329v -1.08193" fill="none" stroke="black"/>
<path d="M238.396,261.788v -7.58226" fill="none" stroke="black"/>
<path d="M237.855,254.206h 1.08193" fill="none" stroke="black"/>
<path d="M238.396,261.788v 7.58226" fill="none" stroke="black"/>
<path d="M237.855,269.37h 1.08193" fill="none" stroke="black"/>
<path d="M252.344,235.767h -6.97382" fill="none" stroke="black"/>
<path d="M245.37,236.308v -1.08193" fill="none" stroke="black"/>
<path d="M252.344,235.767h 6.97382" fill="none" stroke="black"/>
<path d="M259.318,236.308v -1.08193" fill="none" stroke="black"/>
<path d="M252.344,235.767v -8.67238" fill="none" stroke="black"/>
<path d="M251.803,227.094h 1.08193" fill="none" stroke="black"/>
<path d="M252.344,235.767v 8.67238" fill="none" stroke="black"/>
<path d="M251.803,244.439h 1.08193" fill="none" stroke="black"/>
<path d="M266.292,164.619h -6.97382" fill="none" stroke="black"/>
<path d="M259.318,165.16v -1.08193" fill="none" stroke="black"/>
<path d="M266.292,164.619h 6.97382" fill="none" stroke="black"/>
<path d="M273.266,165.16v -1.08193" fill="none" stroke="black"/>
<path d="M266.292,164.619v -11.3775" fill="none" stroke="black"/>
<path d="M265.751,153.242h 1.08193" fill="none" stroke="black"/>
<path d="M266.292,164.619v 11.3775" fill="none" stroke="black"/>
<path d="M265.751,175.997h 1.08193" fill="none" stroke="black"/>
<path d="M280.239,131.254h -6.97382" fill="none" stroke="black"/>
<path d="M273.266,131.794v -1.08193" fill="none" stroke="black"/>
<path d="M280.239,131.254h 6.97382" fill="none" stroke="black"/>
<path d="M287.213,131.794v -1.08193" fill="none" stroke="black"/>
<path d="M280.239,131.254v -12.0832" fill="none" stroke="black"/>
<path d="M279.698,119.17h 1.08193" fill="none" stroke="black"/>
<path d="M280.239,131.254v 12.0832" fill="none" stroke="black"/>
<path d="M279.698,143.337h 1.08193" fill="none" stroke="black"/>
<path d="M294.187,126.207h -6.97382" fill="none" stroke="black"/>
<path d="M287.213,126.748v -1.08193" fill="none" stroke="black"/>
<path d="M294.187,126.207h 6.97382" fill="none" stroke="black"/>
<path d="M301.161,126.748v -1.08193" fill="none" stroke="black"/>
<path d="M294.187,126.207v -12.354" fill="none" stroke="black"/>
<path d="M293.646,113.853h 1.08193" fill="none" stroke="black"/>
<path d="M294.187,126.207v 12.354" fill="none" stroke="black"/>
<path d="M293.646,138.561h 1.08193" fill="none" stroke="black"/>
<path d="M308.135,181.289h -6.97382" fill="none" stroke="black"/>
<path d="M301.161,181.83v -1.08193" fill="none" stroke="black"/>
<path d="M308.135,181.289h 6.97382" fill="none" stroke="black"/>
<path d="M315.108,181.83v -1.08193" fill="none" stroke="black"/>
<path d="M308.135,181.289v -10.6682" fill="none" stroke="black"/>
<path d="M307.594,170.621h 1.08193" fill="none" stroke="black"/>
<path d="M308.135,181.289v 10.6682" fill="none" stroke="black"/>
<path d="M307.594,191.958h 1.08193" fill="none" stroke="black"/>
<path d="M322.082,227.766h -6.97382" fill="none" stroke="black"/>
<path d="M315.108,228.307v -1.08193" fill="none" stroke="black"/>
<path d="M322.082,227.766h 6.97382" fill="none" stroke="black"/>
<path d="M329.056,228.307v -1.08193" fill="none" stroke="black"/>
<path d="M322.082,227.766v -8.86006" fill="none" stroke="black"/>
<path d="M321.541,218.906h 1.08193" fill="none" stroke="black"/>
<path d="M322.082,227.766v 8.86006" fill="none" stroke="black"/>
<path d="M321.541,236.626h 1.08193" fill="none" stroke="black"/>
<path d="M336.03,266.313h -6.97382" fill="none" stroke="black"/>
<path d="M329.056,266.854v -1.08193" fill="none" stroke="black"/>
<path d="M336.03,266.313h 6.97382" fill="none" stroke="black"/>
<path d="M343.004,266.854v -1.08193" fill="none" stroke="black"/>
<path d="M336.03,266.313v -7.4085" fill="none" stroke="black"/>
<path d="M335.489,258.904h 1.08193" fill="none" stroke="black"/>
<path d="M336.03,266.313v 7.4085" fill="none" stroke="black"/>
<path d="M335.489,273.721h 1.08193" fill="none" stroke="black"/>
<path d="M349.977,303.76h -6.97382" fill="none" stroke="black"/>
<path d="M343.004,304.301v -1.08193" fill="none" stroke="black"/>
<path d="M349.977,303.76h 6.97382" fill="none" stroke="black"/>
<path d="M356.951,304.301v -1.08193" fill="none" stroke="black"/>
<path d="M349.977,303.76v -5.4476" fill="none" stroke="black"/>
<path d="M349.437,298.313h 1.08193" fill="none" stroke="black"/>
<path d="M349.977,303.76v 5.4476" fill="none" stroke="black"/>
<path d="M349.437,309.208h 1.08193" fill="none" stroke="black"/>
<path d="M363.925,318.547h -6.97382" fill="none" stroke="black"/>
<path d="M356.951,319.088v -1.08193" fill="none" stroke="black"/>
<path d="M363.925,318.547h 6.97382" fill="none" stroke="black"/>
<path d="M370.899,319.088v -1.08193" fill="none" stroke="black"/>
<path d="M363.925,318.547v -4.58694" fill="none" stroke="black"/>
<path d="M363.384,313.96h 1.08193" fill="none" stroke="black"/>
<path d="M363.925,318.547v 4.58694" fill="none" stroke="black"/>
<path d="M363.384,323.134h 1.08193" fill="none" stroke="black"/>
<path d="M377.873,321.658h -6.97382" fill="none" stroke="black"/>
<path d="M370.899,322.199v -1.08193" fill="none" stroke="black"/>
<path d="M377.873,321.658h 6.97382" fill="none" stroke="black"/>
<path d="M384.847,322.199v -1.08193" fill="none" stroke="black"/>
<path d="M377.873,321.658v -4.21754" fill="none" stroke="black"/>
<path d="M377.332,317.441h 1.08193" fill="none" stroke="black"/>
<path d="M377.873,321.658v 4.21754" fill="none" stroke="black"/>
<path d="M377.332,325.876h 1.08193" fill="none" stroke="black"/>
<path d="M391.82,335.018h -6.97382" fill="none" stroke="black"/>
<path d="M384.847,335.559v -1.08193" fill="none" stroke="black"/>
<path d="M391.82,335.018h 6.97382" fill="none" stroke="black"/>
<path d="M398.794,335.559v -1.08193" fill="none" stroke="black"/>
<path d="M391.82,335.018v -2.7517" fill="none" stroke="black"/>
<path d="M391.279,332.266h 1.08193" fill="none" stroke="black"/>
<path d="M391.82,335.018v 2.7517" fill="none" stroke="black"/>
<path d="M391.279,337.77h 1.08193" fill="none" stroke="black"/>
<path d="M405.768,339.163h -6.97382" fill="none" stroke="black"/>
<path d="M398.794,339.704v -1.08193" fill="none" stroke="black"/>
<path d="M405.768,339.163h 6.97382" fill="none" stroke="black"/>
<path d="M412.742,339.704v -1.08193" fill="none" stroke="black"/>
<path d="M405.768,339.163v -2.27434" fill="none" stroke="black"/>
<path d="M405.227,336.889h 1.08193" fill="none" stroke="black"/>
<path d="M405.768,339.163v 2.27434" fill="none" stroke="black"/>
<path d="M405.227,341.438h 1.08193" fill="none" stroke="black"/>
<path d="M419.716,342.243h -6.97382" fill="none" stroke="black"/>
<path d="M412.742,342.784v -1.08193" fill="none" stroke="black"/>
<path d="M419.716,342.243h 6.97382" fill="none" stroke="black"/>
<path d="M426.689,342.784v -1.08193" fill="none" stroke="black"/>
<path d="M419.716,342.243v -1.70491" fill="none" stroke="black"/>
<path d="M419.175,340.538h 1.08193" fill="none" stroke="black"/>
<path d="M419.716,342.243v 1.70491" fill="none" stroke="black"/>
<path d="M419.175,343.948h 1.08193" fill="none" stroke="black"/>
<path d="M433.663,343.291h -6.97382" fill="none" stroke="black"/>
<path d="M426.689,343.832v -1.08193" fill="none" stroke="black"/>
<path d="M433.663,343.291h 6.97382" fill="none" stroke="black"/>
<path d="M440.637,343.832v -1.08193" fill="none" stroke="black"/>
<path d="M433.663,343.291v -1.54016" fill="none" stroke="black"/>
<path d="M433.122,341.751h 1.08193" fill="none" stroke="black"/>
<path d="M433.663,343.291v 1.54016" fill="none" stroke="black"/>
<path d="M433.122,344.831h 1.08193" fill="none" stroke="black"/>
<path d="M447.611,340.821h -6.97382" fill="none" stroke="black"/>
<path d="M440.637,341.362v -1.08193" fill="none" stroke="black"/>
<path d="M447.611,340.821h 6.97382" fill="none" stroke="black"/>
<path d="M454.585,341.362v -1.08193" fill="none" stroke="black"/>
<path d="M447.611,340.821v -2.03484" fill="none" stroke="black"/>
<path d="M447.07,338.786h 1.08193" fill="none" stroke="black"/>
<path d="M447.611,340.821v 2.03484" fill="none" stroke="black"/>
<path d="M447.07,342.855h 1.08193" fill="none" stroke="black"/>
<path d="M461.559,345.128h -6.97382" fill="none" stroke="black"/>
<path d="M454.585,345.669v -1.08193" fill="none" stroke="black"/>
<path d="M461.559,345.128h 6.97382" fill="none" stroke="black"/>
<path d="M468.532,345.669v -1.08193" fill="none" stroke="black"/>
<path d="M461.559,345.128v -0.881038" fill="none" stroke="black"/>
<path d="M461.018,344.247h 1.08193" fill="none" stroke="black"/>
<path d="M461.559,345.128v 0.881038" fill="none" stroke="black"/>
<path d="M461.018,346.009h 1.08193" fill="none" stroke="black"/>
<path d="M475.506,344.434h -6.97382" fill="none" stroke="black"/>
<path d="M468.532,344.975v -1.08193" fill="none" stroke="black"/>
<path d="M475.506,344.434h 6.97382" fill="none" stroke="black"/>
<path d="M482.48,344.975v -1.08193" fill="none" stroke="black"/>
<path d="M475.506,344.434v -1.08547" fill="none" stroke="black"/>
<path d="M474.965,343.348h 1.08193" fill="none" stroke="black"/>
<path d="M475.506,344.434v 1.08547" fill="none" stroke="black"/>
<path d="M474.965,345.519h 1.08193" fill="none" stroke="black"/>
<g stroke="black" stroke-width="1" fill="black">
<circle cx="84.9724" cy="346.543" r="2.16385"/>
<circle cx="98.9201" cy="340.745" r="2.16385"/>
<circle cx="112.868" cy="338.745" r="2.16385"/>
<circle cx="126.815" cy="340.367" r="2.16385"/>
<circle cx="140.763" cy="335.59" r="2.16385"/>
<circle cx="154.711" cy="333.441" r="2.16385"/>
<circle cx="168.658" cy="330.643" r="2.16385"/>
<circle cx="182.606" cy="328.079" r="2.16385"/>
<circle cx="196.554" cy="318.283" r="2.16385"/>
<circle cx="210.501" cy="309.867" r="2.16385"/>
<circle cx="224.449" cy="274.666" r="2.16385"/>
<circle cx="238.396" cy="261.788" r="2.16385"/>
<circle cx="252.344" cy="235.767" r="2.16385"/>
<circle cx="266.292" cy="164.619" r="2.16385"/>
<circle cx="280.239" cy="131.254" r="2.16385"/>
<circle cx="294.187" cy="126.207" r="2.16385"/>
<circle cx="308.135" cy="181.289" r="2.16385"/>
<circle cx="322.082" cy="227.766" r="2.16385"/>
<circle cx="336.03" cy="266.313" r="2.16385"/>
<circle cx="349.977" cy="303.76" r="2.16385"/>
<circle cx="363.925" cy="318.547" r="2.16385"/>
<circle cx="377.873" cy="321.658" r="2.16385"/>
<circle cx="391.82" cy="335.018" r="2.16385"/>
<circle cx="405.768" cy="339.163" r="2.16385"/>
<circle cx="419.716" cy="342.243" r="2.16385"/>
<circle cx="433.663" cy="343.291" r="2.16385"/>
<circle cx="447.611" cy="340.821" r="2.16385"/>
<circle cx="461.559" cy="345.128" r="2.16385"/>
<circle cx="475.506" cy="344.434" r="2.16385"/>
</g>
<text xml:space="preserve" x="168.739" y="132.265" fill="black" font-size="9.78783" font-family="Helvetica" font-weight="bold"> 2.69 (GeV)</text>
<text xml:space="preserve" x="163.6" y="132.265" fill="black" font-size="9.78783" font-family="Times">&#0177;</text>
<text xml:space="preserve" x="119.512" y="132.265" fill="black" font-size="9.78783" font-family="Helvetica" font-weight="bold">: 2196.84 </text>
<text xml:space="preserve" x="110.586" y="137.134" fill="black" font-size="6.69188" font-family="Helvetica" font-weight="bold">CB</text>
<text xml:space="preserve" x="105.176" y="132.265" fill="black" font-size="9.78783" font-family="Times">&#0956;</text>
<text xml:space="preserve" x="158.461" y="147.953" fill="black" font-size="9.78783" font-family="Helvetica" font-weight="bold"> 3.51 (GeV)</text>
<text xml:space="preserve" x="153.322" y="147.953" fill="black" font-size="9.78783" font-family="Times">&#0177;</text>
<text xml:space="preserve" x="119.782" y="147.953" fill="black" font-size="9.78783" font-family="Helvetica" font-weight="bold">: 90.12 </text>
<text xml:space="preserve" x="110.856" y="150.929" fill="black" font-size="6.69188" font-family="Helvetica" font-weight="bold">CB</text>
<text xml:space="preserve" x="105.176" y="147.953" fill="black" font-size="9.78783" font-family="Times">&#0963;</text>
<text xml:space="preserve" x="153.592" y="163.371" fill="black" font-size="9.78783" font-family="Helvetica" font-weight="bold"> 0.13</text>
<text xml:space="preserve" x="148.453" y="163.371" fill="black" font-size="9.78783" font-family="Times">&#0177;</text>
<text xml:space="preserve" x="120.053" y="163.371" fill="black" font-size="9.78783" font-family="Helvetica" font-weight="bold">: 1.59 </text>
<text xml:space="preserve" x="111.127" y="166.346" fill="black" font-size="6.69188" font-family="Helvetica" font-weight="bold">CB</text>
<text xml:space="preserve" x="105.176" y="163.371" fill="black" font-size="9.78783" font-family="Times">&#0945;</text>
<text xml:space="preserve" x="153.052" y="179.059" fill="black" font-size="9.78783" font-family="Helvetica" font-weight="bold"> 0.36</text>
<text xml:space="preserve" x="147.912" y="179.059" fill="black" font-size="9.78783" font-family="Times">&#0177;</text>
<text xml:space="preserve" x="119.512" y="179.059" fill="black" font-size="9.78783" font-family="Helvetica" font-weight="bold">: 1.13 </text>
<text xml:space="preserve" x="110.586" y="181.764" fill="black" font-size="6.69188" font-family="Helvetica" font-weight="bold">CB</text>
<text xml:space="preserve" x="105.176" y="179.059" fill="black" font-size="9.78783" font-family="Helvetica" font-weight="bold">n</text>
<text xml:space="preserve" x="173.067" y="194.476" fill="black" font-size="9.78783" font-family="Helvetica" font-weight="bold"> 18.12 (GeV)</text>
<text xml:space="preserve" x="167.928" y="194.476" fill="black" font-size="9.78783" font-family="Times">&#0177;</text>
<text xml:space="preserve" x="128.979" y="194.476" fill="black" font-size="9.78783" font-family="Helvetica" font-weight="bold">: 105.29 </text>
<text xml:space="preserve" x="110.856" y="197.451" fill="black" font-size="6.69188" font-family="Helvetica" font-weight="bold">Gaus1</text>
<text xml:space="preserve" x="105.176" y="194.476" fill="black" font-size="9.78783" font-family="Times">&#0963;</text>
<text xml:space="preserve" x="173.879" y="210.164" fill="black" font-size="9.78783" font-family="Helvetica" font-weight="bold"> 14.93 (GeV)</text>
<text xml:space="preserve" x="168.739" y="210.164" fill="black" font-size="9.78783" font-family="Times">&#0177;</text>
<text xml:space="preserve" x="129.79" y="210.164" fill="black" font-size="9.78783" font-family="Helvetica" font-weight="bold">: 217.10 </text>
<text xml:space="preserve" x="110.856" y="213.139" fill="black" font-size="6.69188" font-family="Helvetica" font-weight="bold">Gaus2</text>
<text xml:space="preserve" x="105.176" y="210.164" fill="black" font-size="9.78783" font-family="Times">&#0963;</text>
<text xml:space="preserve" x="161.166" y="225.582" fill="black" font-size="9.78783" font-family="Helvetica" font-weight="bold"> 0.14</text>
<text xml:space="preserve" x="156.027" y="225.582" fill="black" font-size="9.78783" font-family="Times">&#0177;</text>
<text xml:space="preserve" x="105.176" y="225.582" fill="black" font-size="9.78783" font-family="Helvetica" font-weight="bold">frac1: 0.75 </text>
<text xml:space="preserve" x="161.166" y="241.269" fill="black" font-size="9.78783" font-family="Helvetica" font-weight="bold"> 0.04</text>
<text xml:space="preserve" x="156.027" y="241.269" fill="black" font-size="9.78783" font-family="Times">&#0177;</text>
<text xml:space="preserve" x="105.176" y="241.269" fill="black" font-size="9.78783" font-family="Helvetica" font-weight="bold">frac2: 0.74 </text>
<path d="M84.9724,346.543h 403.087" fill="none" stroke="black"/>
<path d="M147.737,337.315v 9.22817" fill="none" stroke="black"/>
<path d="M165.171,341.929v 4.61409" fill="none" stroke="black"/>
<path d="M182.606,341.929v 4.61409" fill="none" stroke="black"/>
<path d="M200.04,341.929v 4.61409" fill="none" stroke="black"/>
<path d="M217.475,337.315v 9.22817" fill="none" stroke="black"/>
<path d="M234.91,341.929v 4.61409" fill="none" stroke="black"/>
<path d="M252.344,341.929v 4.61409" fill="none" stroke="black"/>
<path d="M269.779,341.929v 4.61409" fill="none" stroke="black"/>
<path d="M287.213,337.315v 9.22817" fill="none" stroke="black"/>
<path d="M304.648,341.929v 4.61409" fill="none" stroke="black"/>
<path d="M322.082,341.929v 4.61409" fill="none" stroke="black"/>
<path d="M339.517,341.929v 4.61409" fill="none" stroke="black"/>
<path d="M356.951,337.315v 9.22817" fill="none" stroke="black"/>
<path d="M374.386,341.929v 4.61409" fill="none" stroke="black"/>
<path d="M391.82,341.929v 4.61409" fill="none" stroke="black"/>
<path d="M409.255,341.929v 4.61409" fill="none" stroke="black"/>
<path d="M426.689,337.315v 9.22817" fill="none" stroke="black"/>
<path d="M147.737,337.315v 9.22817" fill="none" stroke="black"/>
<path d="M130.302,341.929v 4.61409" fill="none" stroke="black"/>
<path d="M112.868,341.929v 4.61409" fill="none" stroke="black"/>
<path d="M95.4332,341.929v 4.61409" fill="none" stroke="black"/>
<path d="M426.689,337.315v 9.22817" fill="none" stroke="black"/>
<path d="M444.124,341.929v 4.61409" fill="none" stroke="black"/>
<path d="M461.559,341.929v 4.61409" fill="none" stroke="black"/>
<path d="M478.993,341.929v 4.61409" fill="none" stroke="black"/>
<path d="M84.9724,346.543v -307.606" fill="none" stroke="black"/>
<path d="M97.065,346.543h -12.0926" fill="none" stroke="black"/>
<path d="M91.0187,340.391h -6.0463" fill="none" stroke="black"/>
<path d="M91.0187,334.239h -6.0463" fill="none" stroke="black"/>
<path d="M91.0187,328.087h -6.0463" fill="none" stroke="black"/>
<path d="M91.0187,321.935h -6.0463" fill="none" stroke="black"/>
<path d="M97.065,315.783h -12.0926" fill="none" stroke="black"/>
<path d="M91.0187,309.63h -6.0463" fill="none" stroke="black"/>
<path d="M91.0187,303.478h -6.0463" fill="none" stroke="black"/>
<path d="M91.0187,297.326h -6.0463" fill="none" stroke="black"/>
<path d="M91.0187,291.174h -6.0463" fill="none" stroke="black"/>
<path d="M97.065,285.022h -12.0926" fill="none" stroke="black"/>
<path d="M91.0187,278.87h -6.0463" fill="none" stroke="black"/>
<path d="M91.0187,272.718h -6.0463" fill="none" stroke="black"/>
<path d="M91.0187,266.566h -6.0463" fill="none" stroke="black"/>
<path d="M91.0187,260.414h -6.0463" fill="none" stroke="black"/>
<path d="M97.065,254.261h -12.0926" fill="none" stroke="black"/>
<path d="M91.0187,248.109h -6.0463" fill="none" stroke="black"/>
<path d="M91.0187,241.957h -6.0463" fill="none" stroke="black"/>
<path d="M91.0187,235.805h -6.0463" fill="none" stroke="black"/>
<path d="M91.0187,229.653h -6.0463" fill="none" stroke="black"/>
<path d="M97.065,223.501h -12.0926" fill="none" stroke="black"/>
<path d="M91.0187,217.349h -6.0463" fill="none" stroke="black"/>
<path d="M91.0187,211.197h -6.0463" fill="none" stroke="black"/>
<path d="M91.0187,205.044h -6.0463" fill="none" stroke="black"/>
<path d="M91.0187,198.892h -6.0463" fill="none" stroke="black"/>
<path d="M97.065,192.74h -12.0926" fill="none" stroke="black"/>
<path d="M91.0187,186.588h -6.0463" fill="none" stroke="black"/>
<path d="M91.0187,180.436h -6.0463" fill="none" stroke="black"/>
<path d="M91.0187,174.284h -6.0463" fill="none" stroke="black"/>
<path d="M91.0187,168.132h -6.0463" fill="none" stroke="black"/>
<path d="M97.065,161.98h -12.0926" fill="none" stroke="black"/>
<path d="M91.0187,155.828h -6.0463" fill="none" stroke="black"/>
<path d="M91.0187,149.675h -6.0463" fill="none" stroke="black"/>
<path d="M91.0187,143.523h -6.0463" fill="none" stroke="black"/>
<path d="M91.0187,137.371h -6.0463" fill="none" stroke="black"/>
<path d="M97.065,131.219h -12.0926" fill="none" stroke="black"/>
<path d="M91.0187,125.067h -6.0463" fill="none" stroke="black"/>
<path d="M91.0187,118.915h -6.0463" fill="none" stroke="black"/>
<path d="M91.0187,112.763h -6.0463" fill="none" stroke="black"/>
<path d="M91.0187,106.611h -6.0463" fill="none" stroke="black"/>
<path d="M97.065,100.459h -12.0926" fill="none" stroke="black"/>
<path d="M91.0187,94.3064h -6.0463" fill="none" stroke="black"/>
<path d="M91.0187,88.1543h -6.0463" fill="none" stroke="black"/>
<path d="M91.0187,82.0022h -6.0463" fill="none" stroke="black"/>
<path d="M91.0187,75.8501h -6.0463" fill="none" stroke="black"/>
<path d="M97.065,69.698h -12.0926" fill="none" stroke="black"/>
<path d="M91.0187,63.5459h -6.0463" fill="none" stroke="black"/>
<path d="M91.0187,57.3938h -6.0463" fill="none" stroke="black"/>
<path d="M91.0187,51.2417h -6.0463" fill="none" stroke="black"/>
<path d="M91.0187,45.0895h -6.0463" fill="none" stroke="black"/>
<path d="M97.065,38.9374h -12.0926" fill="none" stroke="black"/>
<text xml:space="preserve" x="403.517" y="32.9987" fill="black" font-size="13.0028" font-family="Helvetica"> (13 TeV) 2017</text>
<text xml:space="preserve" x="397.567" y="27.3186" fill="black" font-size="8.83523" font-family="Helvetica">-1</text>
<text xml:space="preserve" x="351.855" y="32.9987" fill="black" font-size="13.0028" font-family="Helvetica">41.53 fb</text>
<text xml:space="preserve" x="103.111" y="66.2787" fill="black" font-size="16.5751" font-family="Helvetica" font-weight="bold">CMS</text>
<text xml:space="preserve" x="103.012" y="80.0625" fill="black" font-size="12.7171" font-family="Helvetica" font-style="oblique">Simulation</text>
<rect x="334.988" y="46.7249" width="142.866" height="50.6187" fill="white"/>
<path d="M334.988,97.3436h 142.866" fill="none" stroke="black"/>
<path d="M477.854,97.3436v -50.6187" fill="none" stroke="black"/>
<path d="M477.854,46.7249h -142.866" fill="none" stroke="black"/>
<path d="M334.988,46.7249v 50.6187" fill="none" stroke="black"/>
<text xml:space="preserve" x="370.519" y="58.6945" fill="black" font-size="11.2167" font-family="Helvetica">2017 Signal MC</text>
<path d="M340.346,55.1614h 25.0016" fill="none" stroke="black"/>
<path d="M352.846,52.9975v -2.89801" fill="none" stroke="black"/>
<path d="M352.846,57.3252v 2.89801" fill="none" stroke="black"/>
<path d="M350.971,50.0995h 3.75024" fill="none" stroke="black"/>
<path d="M350.971,60.2232h 3.75024" fill="none" stroke="black"/>
<g stroke="black" stroke-width="1" fill="black">
<circle cx="352.846" cy="55.1614" r="2.16385"/>
</g>
<text xml:space="preserve" x="370.519" y="75.7348" fill="black" font-size="11.2167" font-family="Helvetica">Signal fit CB2Gaus</text>
<path d="M340.346,72.0342h 25.0016" fill="none" stroke="#ff0000" stroke-width="3"/>
<text xml:space="preserve" x="420.287" y="92.5047" fill="black" font-size="11.2167" font-family="Times">&#0963;</text>
<text xml:space="preserve" x="370.519" y="92.5047" fill="black" font-size="11.2167" font-family="Helvetica">Fit Error 1 </text>
<path d="M340.346,94.8126h 25.0016v -11.811h -25.0016z" fill="#00ff00"/>
<path d="M340.346,83.0016h 25.0016" fill="none" stroke="white"/>
<path d="M340.346,94.8126h 25.0016" fill="none" stroke="white"/>
<path d="M365.347,94.8126v -11.811" fill="none" stroke="white"/>
<path d="M340.346,94.8126v -11.811" fill="none" stroke="white"/>
<rect x="28.8465" y="365.372" width="510.236" height="114.679" fill="white"/>
<rect x="84.9724" y="388.307" width="403.087" height="63.0733" fill="white"/>
<rect x="84.9724" y="388.307" width="403.087" height="63.0733" fill="none" stroke="black"/>
<rect x="84.9724" y="388.307" width="403.087" height="63.0733" fill="white"/>
<rect x="84.9724" y="388.307" width="403.087" height="63.0733" fill="none" stroke="black"/>
<path d="M84.9724,451.381h 403.087" fill="none" stroke="black"/>
<path d="M147.737,388.307v 63.0733" fill="none" stroke="black" stroke-dasharray=" 1, 2"/>
<path d="M217.475,388.307v 63.0733" fill="none" stroke="black" stroke-dasharray=" 1, 2"/>
<path d="M287.213,388.307v 63.0733" fill="none" stroke="black" stroke-dasharray=" 1, 2"/>
<path d="M356.951,388.307v 63.0733" fill="none" stroke="black" stroke-dasharray=" 1, 2"/>
<path d="M426.689,388.307v 63.0733" fill="none" stroke="black" stroke-dasharray=" 1, 2"/>
<path d="M147.737,388.307v 63.0733" fill="none" stroke="black" stroke-dasharray=" 1, 2"/>
<path d="M426.689,388.307v 63.0733" fill="none" stroke="black" stroke-dasharray=" 1, 2"/>
<path d="M84.9724,451.381v -63.0733" fill="none" stroke="black"/>
<path d="M488.059,445.073h -403.087" fill="none" stroke="black" stroke-dasharray=" 1, 2"/>
<path d="M488.059,432.459h -403.087" fill="none" stroke="black" stroke-dasharray=" 1, 2"/>
<path d="M488.059,419.844h -403.087" fill="none" stroke="black" stroke-dasharray=" 1, 2"/>
<path d="M488.059,407.229h -403.087" fill="none" stroke="black" stroke-dasharray=" 1, 2"/>
<path d="M488.059,394.615h -403.087" fill="none" stroke="black" stroke-dasharray=" 1, 2"/>
<path d="M488.059,445.073h -403.087" fill="none" stroke="black" stroke-dasharray=" 1, 2"/>
<path d="M488.059,394.615h -403.087" fill="none" stroke="black" stroke-dasharray=" 1, 2"/>
<path d="M84.9724,451.381h 403.087" fill="none" stroke="black"/>
<path d="M147.737,448.663v 2.71789" fill="none" stroke="black"/>
<path d="M165.171,450.022v 1.35894" fill="none" stroke="black"/>
<path d="M182.606,450.022v 1.35894" fill="none" stroke="black"/>
<path d="M200.04,450.022v 1.35894" fill="none" stroke="black"/>
<path d="M217.475,448.663v 2.71789" fill="none" stroke="black"/>
<path d="M234.91,450.022v 1.35894" fill="none" stroke="black"/>
<path d="M252.344,450.022v 1.35894" fill="none" stroke="black"/>
<path d="M269.779,450.022v 1.35894" fill="none" stroke="black"/>
<path d="M287.213,448.663v 2.71789" fill="none" stroke="black"/>
<path d="M304.648,450.022v 1.35894" fill="none" stroke="black"/>
<path d="M322.082,450.022v 1.35894" fill="none" stroke="black"/>
<path d="M339.517,450.022v 1.35894" fill="none" stroke="black"/>
<path d="M356.951,448.663v 2.71789" fill="none" stroke="black"/>
<path d="M374.386,450.022v 1.35894" fill="none" stroke="black"/>
<path d="M391.82,450.022v 1.35894" fill="none" stroke="black"/>
<path d="M409.255,450.022v 1.35894" fill="none" stroke="black"/>
<path d="M426.689,448.663v 2.71789" fill="none" stroke="black"/>
<path d="M147.737,448.663v 2.71789" fill="none" stroke="black"/>
<path d="M130.302,450.022v 1.35894" fill="none" stroke="black"/>
<path d="M112.868,450.022v 1.35894" fill="none" stroke="black"/>
<path d="M95.4332,450.022v 1.35894" fill="none" stroke="black"/>
<path d="M426.689,448.663v 2.71789" fill="none" stroke="black"/>
<path d="M444.124,450.022v 1.35894" fill="none" stroke="black"/>
<path d="M461.559,450.022v 1.35894" fill="none" stroke="black"/>
<path d="M478.993,450.022v 1.35894" fill="none" stroke="black"/>
<text xml:space="preserve" x="133.577" y="462.794" fill="black" font-size="13.1252" font-family="Helvetica">1800</text>
<text xml:space="preserve" x="203.361" y="462.794" fill="black" font-size="13.1252" font-family="Helvetica">2000</text>
<text xml:space="preserve" x="273.145" y="462.794" fill="black" font-size="13.1252" font-family="Helvetica">2200</text>
<text xml:space="preserve" x="342.659" y="462.794" fill="black" font-size="13.1252" font-family="Helvetica">2400</text>
<text xml:space="preserve" x="412.443" y="462.794" fill="black" font-size="13.1252" font-family="Helvetica">2600</text>
<text xml:space="preserve" x="451.393" y="475.236" fill="black" font-size="13.1252" font-family="Helvetica"> (GeV)</text>
<text xml:space="preserve" x="447.065" y="479.023" fill="black" font-size="8.91679" font-family="Times">&#0947;</text>
<text xml:space="preserve" x="445.172" y="479.023" fill="black" font-size="8.91679" font-family="Helvetica">j</text>
<text xml:space="preserve" x="435.434" y="475.236" fill="black" font-size="13.1252" font-family="Helvetica">M</text>
<path d="M84.9724,451.381v -63.0733" fill="none" stroke="black"/>
<path d="M93.3913,445.073h -8.4189" fill="none" stroke="black"/>
<path d="M93.3913,432.459h -8.4189" fill="none" stroke="black"/>
<path d="M93.3913,419.844h -8.4189" fill="none" stroke="black"/>
<path d="M93.3913,407.229h -8.4189" fill="none" stroke="black"/>
<path d="M93.3913,394.615h -8.4189" fill="none" stroke="black"/>
<path d="M93.3913,445.073h -8.4189" fill="none" stroke="black"/>
<path d="M93.3913,394.615h -8.4189" fill="none" stroke="black"/>
<text xml:space="preserve" x="75.4234" y="449.811" fill="black" font-size="13.1252" font-family="Helvetica">4</text>
<text xml:space="preserve" x="68.3908" y="449.811" fill="black" font-size="13.1252" font-family="Times">&#8722;</text>
<text xml:space="preserve" x="75.4234" y="437.098" fill="black" font-size="13.1252" font-family="Helvetica">2</text>
<text xml:space="preserve" x="68.3908" y="437.098" fill="black" font-size="13.1252" font-family="Times">&#8722;</text>
<text xml:space="preserve" x="75.6938" y="424.385" fill="black" font-size="13.1252" font-family="Helvetica">0</text>
<text xml:space="preserve" x="75.4234" y="411.943" fill="black" font-size="13.1252" font-family="Helvetica">2</text>
<text xml:space="preserve" x="75.4234" y="399.231" fill="black" font-size="13.1252" font-family="Helvetica">4</text>
<g transform="rotate(-90,57.5716,408.156)">
<text xml:space="preserve" x="57.5716" y="408.156" fill="black" font-size="8.91679" font-family="Helvetica">stat</text>
</g>
<g transform="rotate(-90,53.7848,415.73)">
<text xml:space="preserve" x="53.7848" y="415.73" fill="black" font-size="13.1252" font-family="Times">&#0963;</text>
</g>
<g transform="rotate(-90,43.2361,421.951)">
<text xml:space="preserve" x="43.2361" y="421.951" fill="black" font-size="13.1252" font-family="Helvetica">MC-fit</text>
</g>
<path d="M45.3999,421.951v -33.8102" fill="none" stroke="black" stroke-width="2"/>
<rect x="91.9936" y="419.019" width="13.853" height="0.825331" fill="#3399ff" fill-opacity="0.70" stroke-opacity="0.70"/>
<rect x="105.941" y="416.896" width="13.853" height="2.94832" fill="#3399ff" fill-opacity="0.70" stroke-opacity="0.70"/>
<rect x="119.889" y="419.844" width="13.853" height="7.24067" fill="#3399ff" fill-opacity="0.70" stroke-opacity="0.70"/>
<rect x="133.836" y="418.814" width="13.853" height="1.03036" fill="#3399ff" fill-opacity="0.70" stroke-opacity="0.70"/>
<rect x="147.784" y="419.844" width="13.853" height="0.539756" fill="#3399ff" fill-opacity="0.70" stroke-opacity="0.70"/>
<rect x="161.732" y="419.844" width="13.853" height="2.26043" fill="#3399ff" fill-opacity="0.70" stroke-opacity="0.70"/>
<rect x="175.679" y="419.844" width="13.853" height="6.2103" fill="#3399ff" fill-opacity="0.70" stroke-opacity="0.70"/>
<rect x="189.627" y="419.844" width="13.853" height="1.10922" fill="#3399ff" fill-opacity="0.70" stroke-opacity="0.70"/>
<rect x="203.575" y="419.844" width="13.853" height="3.4742" fill="#3399ff" fill-opacity="0.70" stroke-opacity="0.70"/>
<rect x="217.522" y="405.924" width="13.853" height="13.9202" fill="#3399ff" fill-opacity="0.70" stroke-opacity="0.70"/>
<rect x="231.47" y="419.844" width="13.853" height="1.35111" fill="#3399ff" fill-opacity="0.70" stroke-opacity="0.70"/>
<rect x="245.418" y="419.844" width="13.853" height="15.6645" fill="#3399ff" fill-opacity="0.70" stroke-opacity="0.70"/>
<rect x="259.365" y="417.914" width="13.853" height="1.92976" fill="#3399ff" fill-opacity="0.70" stroke-opacity="0.70"/>
<rect x="273.313" y="415.587" width="13.853" height="4.25691" fill="#3399ff" fill-opacity="0.70" stroke-opacity="0.70"/>
<rect x="287.26" y="411.758" width="13.853" height="8.086" fill="#3399ff" fill-opacity="0.70" stroke-opacity="0.70"/>
<rect x="301.208" y="419.844" width="13.853" height="3.91123" fill="#3399ff" fill-opacity="0.70" stroke-opacity="0.70"/>
<rect x="315.156" y="419.844" width="13.853" height="4.17389" fill="#3399ff" fill-opacity="0.70" stroke-opacity="0.70"/>
<rect x="329.103" y="419.683" width="13.853" height="0.161352" fill="#3399ff" fill-opacity="0.70" stroke-opacity="0.70"/>
<rect x="343.051" y="419.844" width="13.853" height="5.83011" fill="#3399ff" fill-opacity="0.70" stroke-opacity="0.70"/>
<rect x="356.999" y="419.844" width="13.853" height="0.570813" fill="#3399ff" fill-opacity="0.70" stroke-opacity="0.70"/>
<rect x="370.946" y="409.587" width="13.853" height="10.2569" fill="#3399ff" fill-opacity="0.70" stroke-opacity="0.70"/>
<rect x="384.894" y="419.844" width="13.853" height="1.74819" fill="#3399ff" fill-opacity="0.70" stroke-opacity="0.70"/>
<rect x="398.842" y="419.844" width="13.853" height="3.80073" fill="#3399ff" fill-opacity="0.70" stroke-opacity="0.70"/>
<rect x="412.789" y="419.844" width="13.853" height="7.3065" fill="#3399ff" fill-opacity="0.70" stroke-opacity="0.70"/>
<rect x="426.737" y="419.844" width="13.853" height="4.7731" fill="#3399ff" fill-opacity="0.70" stroke-opacity="0.70"/>
<rect x="440.684" y="411.484" width="13.853" height="8.36023" fill="#3399ff" fill-opacity="0.70" stroke-opacity="0.70"/>
<rect x="454.632" y="419.844" width="13.853" height="4.24323" fill="#3399ff" fill-opacity="0.70" stroke-opacity="0.70"/>
<rect x="468.58" y="415.063" width="13.853" height="4.78106" fill="#3399ff" fill-opacity="0.70" stroke-opacity="0.70"/>
<path d="M84.9724,451.381h 403.087" fill="none" stroke="black"/>
<path d="M147.737,448.663v 2.71789" fill="none" stroke="black"/>
<path d="M165.171,450.022v 1.35894" fill="none" stroke="black"/>
<path d="M182.606,450.022v 1.35894" fill="none" stroke="black"/>
<path d="M200.04,450.022v 1.35894" fill="none" stroke="black"/>
<path d="M217.475,448.663v 2.71789" fill="none" stroke="black"/>
<path d="M234.91,450.022v 1.35894" fill="none" stroke="black"/>
<path d="M252.344,450.022v 1.35894" fill="none" stroke="black"/>
<path d="M269.779,450.022v 1.35894" fill="none" stroke="black"/>
<path d="M287.213,448.663v 2.71789" fill="none" stroke="black"/>
<path d="M304.648,450.022v 1.35894" fill="none" stroke="black"/>
<path d="M322.082,450.022v 1.35894" fill="none" stroke="black"/>
<path d="M339.517,450.022v 1.35894" fill="none" stroke="black"/>
<path d="M356.951,448.663v 2.71789" fill="none" stroke="black"/>
<path d="M374.386,450.022v 1.35894" fill="none" stroke="black"/>
<path d="M391.82,450.022v 1.35894" fill="none" stroke="black"/>
<path d="M409.255,450.022v 1.35894" fill="none" stroke="black"/>
<path d="M426.689,448.663v 2.71789" fill="none" stroke="black"/>
<path d="M147.737,448.663v 2.71789" fill="none" stroke="black"/>
<path d="M130.302,450.022v 1.35894" fill="none" stroke="black"/>
<path d="M112.868,450.022v 1.35894" fill="none" stroke="black"/>
<path d="M95.4332,450.022v 1.35894" fill="none" stroke="black"/>
<path d="M426.689,448.663v 2.71789" fill="none" stroke="black"/>
<path d="M444.124,450.022v 1.35894" fill="none" stroke="black"/>
<path d="M461.559,450.022v 1.35894" fill="none" stroke="black"/>
<path d="M478.993,450.022v 1.35894" fill="none" stroke="black"/>
<path d="M84.9724,451.381v -63.0733" fill="none" stroke="black"/>
<path d="M93.3913,445.073h -8.4189" fill="none" stroke="black"/>
<path d="M93.3913,432.459h -8.4189" fill="none" stroke="black"/>
<path d="M93.3913,419.844h -8.4189" fill="none" stroke="black"/>
<path d="M93.3913,407.229h -8.4189" fill="none" stroke="black"/>
<path d="M93.3913,394.615h -8.4189" fill="none" stroke="black"/>
<path d="M93.3913,445.073h -8.4189" fill="none" stroke="black"/>
<path d="M93.3913,394.615h -8.4189" fill="none" stroke="black"/></svg>
