<?xml version="1.0" standalone="no"?>
<svg width="567.429" height="413.846" viewBox="0 0 567.429 413.846" xmlns="http://www.w3.org/2000/svg" shape-rendering="crispEdges">
<title>
ErfExp.svg
</title>
<desc>
Creator: ROOT Version 6.10/09
CreationDate: Mon May 25 00:00:18 2020</desc>
<defs>
</defs>
<rect x="0.5" y="0" width="566.929" height="413.346" fill="white"/>
<rect x="57.1929" y="41.3346" width="453.543" height="330.677" fill="white"/>
<rect x="57.1929" y="41.3346" width="453.543" height="330.677" fill="none" stroke="black"/>
<rect x="57.1929" y="41.3346" width="453.543" height="330.677" fill="white"/>
<rect x="57.1929" y="41.3346" width="453.543" height="330.677" fill="none" stroke="black"/>
<path d="M57.1929,372.012h 453.543" fill="none" stroke="black"/>
<path d="M57.1929,362.091v 9.92031" fill="none" stroke="black"/>
<path d="M77.8085,367.052v 4.96016" fill="none" stroke="black"/>
<path d="M98.4241,367.052v 4.96016" fill="none" stroke="black"/>
<path d="M119.04,367.052v 4.96016" fill="none" stroke="black"/>
<path d="M139.655,362.091v 9.92031" fill="none" stroke="black"/>
<path d="M160.271,367.052v 4.96016" fill="none" stroke="black"/>
<path d="M180.887,367.052v 4.96016" fill="none" stroke="black"/>
<path d="M201.502,367.052v 4.96016" fill="none" stroke="black"/>
<path d="M222.118,362.091v 9.92031" fill="none" stroke="black"/>
<path d="M242.733,367.052v 4.96016" fill="none" stroke="black"/>
<path d="M263.349,367.052v 4.96016" fill="none" stroke="black"/>
<path d="M283.965,367.052v 4.96016" fill="none" stroke="black"/>
<path d="M304.58,362.091v 9.92031" fill="none" stroke="black"/>
<path d="M325.196,367.052v 4.96016" fill="none" stroke="black"/>
<path d="M345.811,367.052v 4.96016" fill="none" stroke="black"/>
<path d="M366.427,367.052v 4.96016" fill="none" stroke="black"/>
<path d="M387.043,362.091v 9.92031" fill="none" stroke="black"/>
<path d="M407.658,367.052v 4.96016" fill="none" stroke="black"/>
<path d="M428.274,367.052v 4.96016" fill="none" stroke="black"/>
<path d="M448.889,367.052v 4.96016" fill="none" stroke="black"/>
<path d="M469.505,362.091v 9.92031" fill="none" stroke="black"/>
<path d="M469.505,362.091v 9.92031" fill="none" stroke="black"/>
<path d="M490.121,367.052v 4.96016" fill="none" stroke="black"/>
<path d="M510.736,367.052v 4.96016" fill="none" stroke="black"/>
<text xml:space="preserve" x="46.006" y="385.379" fill="black" font-size="13.7726" font-family="Helvetica">400</text>
<text xml:space="preserve" x="128.486" y="385.379" fill="black" font-size="13.7726" font-family="Helvetica">600</text>
<text xml:space="preserve" x="210.965" y="385.379" fill="black" font-size="13.7726" font-family="Helvetica">800</text>
<text xml:space="preserve" x="289.653" y="385.379" fill="black" font-size="13.7726" font-family="Helvetica">1000</text>
<text xml:space="preserve" x="372.132" y="385.379" fill="black" font-size="13.7726" font-family="Helvetica">1200</text>
<text xml:space="preserve" x="454.612" y="385.379" fill="black" font-size="13.7726" font-family="Helvetica">1400</text>
<text xml:space="preserve" x="472.151" y="401.496" fill="black" font-size="13.7726" font-family="Helvetica"> (GeV)</text>
<text xml:space="preserve" x="467.411" y="405.762" fill="black" font-size="9.34839" font-family="Times">&#0947;</text>
<text xml:space="preserve" x="465.041" y="405.762" fill="black" font-size="9.34839" font-family="Helvetica">j</text>
<text xml:space="preserve" x="454.612" y="401.496" fill="black" font-size="13.7726" font-family="Helvetica">m</text>
<path d="M57.1929,372.012v -330.677" fill="none" stroke="black"/>
<path d="M70.7992,372.012h -13.6063" fill="none" stroke="black"/>
<path d="M63.9961,364.496h -6.80315" fill="none" stroke="black"/>
<path d="M63.9961,356.981h -6.80315" fill="none" stroke="black"/>
<path d="M63.9961,349.466h -6.80315" fill="none" stroke="black"/>
<path d="M70.7992,341.95h -13.6063" fill="none" stroke="black"/>
<path d="M63.9961,334.435h -6.80315" fill="none" stroke="black"/>
<path d="M63.9961,326.919h -6.80315" fill="none" stroke="black"/>
<path d="M63.9961,319.404h -6.80315" fill="none" stroke="black"/>
<path d="M70.7992,311.889h -13.6063" fill="none" stroke="black"/>
<path d="M63.9961,304.373h -6.80315" fill="none" stroke="black"/>
<path d="M63.9961,296.858h -6.80315" fill="none" stroke="black"/>
<path d="M63.9961,289.342h -6.80315" fill="none" stroke="black"/>
<path d="M70.7992,281.827h -13.6063" fill="none" stroke="black"/>
<path d="M63.9961,274.312h -6.80315" fill="none" stroke="black"/>
<path d="M63.9961,266.796h -6.80315" fill="none" stroke="black"/>
<path d="M63.9961,259.281h -6.80315" fill="none" stroke="black"/>
<path d="M70.7992,251.765h -13.6063" fill="none" stroke="black"/>
<path d="M63.9961,244.25h -6.80315" fill="none" stroke="black"/>
<path d="M63.9961,236.735h -6.80315" fill="none" stroke="black"/>
<path d="M63.9961,229.219h -6.80315" fill="none" stroke="black"/>
<path d="M70.7992,221.704h -13.6063" fill="none" stroke="black"/>
<path d="M63.9961,214.189h -6.80315" fill="none" stroke="black"/>
<path d="M63.9961,206.673h -6.80315" fill="none" stroke="black"/>
<path d="M63.9961,199.158h -6.80315" fill="none" stroke="black"/>
<path d="M70.7992,191.642h -13.6063" fill="none" stroke="black"/>
<path d="M63.9961,184.127h -6.80315" fill="none" stroke="black"/>
<path d="M63.9961,176.612h -6.80315" fill="none" stroke="black"/>
<path d="M63.9961,169.096h -6.80315" fill="none" stroke="black"/>
<path d="M70.7992,161.581h -13.6063" fill="none" stroke="black"/>
<path d="M63.9961,154.065h -6.80315" fill="none" stroke="black"/>
<path d="M63.9961,146.55h -6.80315" fill="none" stroke="black"/>
<path d="M63.9961,139.035h -6.80315" fill="none" stroke="black"/>
<path d="M70.7992,131.519h -13.6063" fill="none" stroke="black"/>
<path d="M63.9961,124.004h -6.80315" fill="none" stroke="black"/>
<path d="M63.9961,116.489h -6.80315" fill="none" stroke="black"/>
<path d="M63.9961,108.973h -6.80315" fill="none" stroke="black"/>
<path d="M70.7992,101.458h -13.6063" fill="none" stroke="black"/>
<path d="M63.9961,93.9423h -6.80315" fill="none" stroke="black"/>
<path d="M63.9961,86.427h -6.80315" fill="none" stroke="black"/>
<path d="M63.9961,78.9116h -6.80315" fill="none" stroke="black"/>
<path d="M70.7992,71.3962h -13.6063" fill="none" stroke="black"/>
<path d="M63.9961,63.8808h -6.80315" fill="none" stroke="black"/>
<path d="M63.9961,56.3654h -6.80315" fill="none" stroke="black"/>
<path d="M63.9961,48.85h -6.80315" fill="none" stroke="black"/>
<path d="M70.7992,41.3346h -13.6063" fill="none" stroke="black"/>
<text xml:space="preserve" x="46.9541" y="376.373" fill="black" font-size="13.7726" font-family="Helvetica">0</text>
<text xml:space="preserve" x="32.2594" y="346.509" fill="black" font-size="13.7726" font-family="Helvetica">200</text>
<text xml:space="preserve" x="32.2594" y="316.172" fill="black" font-size="13.7726" font-family="Helvetica">400</text>
<text xml:space="preserve" x="32.2594" y="286.309" fill="black" font-size="13.7726" font-family="Helvetica">600</text>
<text xml:space="preserve" x="32.2594" y="256.445" fill="black" font-size="13.7726" font-family="Helvetica">800</text>
<text xml:space="preserve" x="25.1491" y="226.108" fill="black" font-size="13.7726" font-family="Helvetica">1000</text>
<text xml:space="preserve" x="25.1491" y="196.245" fill="black" font-size="13.7726" font-family="Helvetica">1200</text>
<text xml:space="preserve" x="25.1491" y="165.907" fill="black" font-size="13.7726" font-family="Helvetica">1400</text>
<text xml:space="preserve" x="25.1491" y="136.044" fill="black" font-size="13.7726" font-family="Helvetica">1600</text>
<text xml:space="preserve" x="25.1491" y="106.181" fill="black" font-size="13.7726" font-family="Helvetica">1800</text>
<text xml:space="preserve" x="25.1491" y="75.8434" fill="black" font-size="13.7726" font-family="Helvetica">2000</text>
<text xml:space="preserve" x="25.1491" y="45.98" fill="black" font-size="13.7726" font-family="Helvetica">2200</text>
<g transform="rotate(-90,23.727,137.94)">
<text xml:space="preserve" x="23.727" y="137.94" fill="black" font-size="13.7726" font-family="Helvetica">Events / 20 GeV</text>
</g>
<path d="M65.4392,364.304h -8.24624" fill="none" stroke="black"/>
<path d="M57.1929,365.252v -1.89608" fill="none" stroke="black"/>
<path d="M65.4392,364.304h 8.24624" fill="none" stroke="black"/>
<path d="M73.6854,365.252v -1.89608" fill="none" stroke="black"/>
<path d="M65.4392,364.304v -1.96635" fill="none" stroke="black"/>
<path d="M64.4911,362.338h 1.89608" fill="none" stroke="black"/>
<path d="M65.4392,364.304v 1.96635" fill="none" stroke="black"/>
<path d="M64.4911,366.271h 1.89608" fill="none" stroke="black"/>
<path d="M81.9316,344.621h -8.24624" fill="none" stroke="black"/>
<path d="M73.6854,345.569v -1.89608" fill="none" stroke="black"/>
<path d="M81.9316,344.621h 8.24624" fill="none" stroke="black"/>
<path d="M90.1779,345.569v -1.89608" fill="none" stroke="black"/>
<path d="M81.9316,344.621v -4.60612" fill="none" stroke="black"/>
<path d="M80.9836,340.015h 1.89608" fill="none" stroke="black"/>
<path d="M81.9316,344.621v 4.60612" fill="none" stroke="black"/>
<path d="M80.9836,349.227h 1.89608" fill="none" stroke="black"/>
<path d="M98.4241,208.232h -8.24624" fill="none" stroke="black"/>
<path d="M90.1779,209.18v -1.89608" fill="none" stroke="black"/>
<path d="M98.4241,208.232h 8.24624" fill="none" stroke="black"/>
<path d="M106.67,209.18v -1.89608" fill="none" stroke="black"/>
<path d="M98.4241,208.232v -13.7997" fill="none" stroke="black"/>
<path d="M97.4761,194.433h 1.89608" fill="none" stroke="black"/>
<path d="M98.4241,208.232v 13.7997" fill="none" stroke="black"/>
<path d="M97.4761,222.032h 1.89608" fill="none" stroke="black"/>
<path d="M114.917,99.2648h -8.24624" fill="none" stroke="black"/>
<path d="M106.67,100.213v -1.89608" fill="none" stroke="black"/>
<path d="M114.917,99.2648h 8.24624" fill="none" stroke="black"/>
<path d="M123.163,100.213v -1.89608" fill="none" stroke="black"/>
<path d="M114.917,99.2648v -17.3878" fill="none" stroke="black"/>
<path d="M113.969,81.8771h 1.89608" fill="none" stroke="black"/>
<path d="M114.917,99.2648v 17.3878" fill="none" stroke="black"/>
<path d="M113.969,116.653h 1.89608" fill="none" stroke="black"/>
<path d="M131.409,106.536h -8.24624" fill="none" stroke="black"/>
<path d="M123.163,107.484v -1.89608" fill="none" stroke="black"/>
<path d="M131.409,106.536h 8.24624" fill="none" stroke="black"/>
<path d="M139.655,107.484v -1.89608" fill="none" stroke="black"/>
<path d="M131.409,106.536v -18.1797" fill="none" stroke="black"/>
<path d="M130.461,88.3565h 1.89608" fill="none" stroke="black"/>
<path d="M131.409,106.536v 18.1797" fill="none" stroke="black"/>
<path d="M130.461,124.716h 1.89608" fill="none" stroke="black"/>
<path d="M147.902,149.466h -8.24624" fill="none" stroke="black"/>
<path d="M139.655,150.414v -1.89608" fill="none" stroke="black"/>
<path d="M147.902,149.466h 8.24624" fill="none" stroke="black"/>
<path d="M156.148,150.414v -1.89608" fill="none" stroke="black"/>
<path d="M147.902,149.466v -16.3677" fill="none" stroke="black"/>
<path d="M146.954,133.098h 1.89608" fill="none" stroke="black"/>
<path d="M147.902,149.466v 16.3677" fill="none" stroke="black"/>
<path d="M146.954,165.834h 1.89608" fill="none" stroke="black"/>
<path d="M164.394,226.85h -8.24624" fill="none" stroke="black"/>
<path d="M156.148,227.798v -1.89608" fill="none" stroke="black"/>
<path d="M164.394,226.85h 8.24624" fill="none" stroke="black"/>
<path d="M172.64,227.798v -1.89608" fill="none" stroke="black"/>
<path d="M164.394,226.85v -12.2169" fill="none" stroke="black"/>
<path d="M163.446,214.633h 1.89608" fill="none" stroke="black"/>
<path d="M164.394,226.85v 12.2169" fill="none" stroke="black"/>
<path d="M163.446,239.067h 1.89608" fill="none" stroke="black"/>
<path d="M180.887,246.632h -8.24624" fill="none" stroke="black"/>
<path d="M172.64,247.58v -1.89608" fill="none" stroke="black"/>
<path d="M180.887,246.632h 8.24624" fill="none" stroke="black"/>
<path d="M189.133,247.58v -1.89608" fill="none" stroke="black"/>
<path d="M180.887,246.632v -11.4861" fill="none" stroke="black"/>
<path d="M179.939,235.146h 1.89608" fill="none" stroke="black"/>
<path d="M180.887,246.632v 11.4861" fill="none" stroke="black"/>
<path d="M179.939,258.118h 1.89608" fill="none" stroke="black"/>
<path d="M197.379,303.568h -8.24624" fill="none" stroke="black"/>
<path d="M189.133,304.516v -1.89608" fill="none" stroke="black"/>
<path d="M197.379,303.568h 8.24624" fill="none" stroke="black"/>
<path d="M205.625,304.516v -1.89608" fill="none" stroke="black"/>
<path d="M197.379,303.568v -6.63336" fill="none" stroke="black"/>
<path d="M196.431,296.934h 1.89608" fill="none" stroke="black"/>
<path d="M197.379,303.568v 6.63336" fill="none" stroke="black"/>
<path d="M196.431,310.201h 1.89608" fill="none" stroke="black"/>
<path d="M213.872,309.535h -8.24624" fill="none" stroke="black"/>
<path d="M205.625,310.483v -1.89608" fill="none" stroke="black"/>
<path d="M213.872,309.535h 8.24624" fill="none" stroke="black"/>
<path d="M222.118,310.483v -1.89608" fill="none" stroke="black"/>
<path d="M213.872,309.535v -6.49219" fill="none" stroke="black"/>
<path d="M212.923,303.043h 1.89608" fill="none" stroke="black"/>
<path d="M213.872,309.535v 6.49219" fill="none" stroke="black"/>
<path d="M212.923,316.028h 1.89608" fill="none" stroke="black"/>
<path d="M230.364,328.715h -8.24624" fill="none" stroke="black"/>
<path d="M222.118,329.663v -1.89608" fill="none" stroke="black"/>
<path d="M230.364,328.715h 8.24624" fill="none" stroke="black"/>
<path d="M238.61,329.663v -1.89608" fill="none" stroke="black"/>
<path d="M230.364,328.715v -5.10592" fill="none" stroke="black"/>
<path d="M229.416,323.609h 1.89608" fill="none" stroke="black"/>
<path d="M230.364,328.715v 5.10592" fill="none" stroke="black"/>
<path d="M229.416,333.821h 1.89608" fill="none" stroke="black"/>
<path d="M246.856,337.284h -8.24624" fill="none" stroke="black"/>
<path d="M238.61,338.233v -1.89608" fill="none" stroke="black"/>
<path d="M246.856,337.284h 8.24624" fill="none" stroke="black"/>
<path d="M255.103,338.233v -1.89608" fill="none" stroke="black"/>
<path d="M246.856,337.284v -4.41732" fill="none" stroke="black"/>
<path d="M245.908,332.867h 1.89608" fill="none" stroke="black"/>
<path d="M246.856,337.284v 4.41732" fill="none" stroke="black"/>
<path d="M245.908,341.702h 1.89608" fill="none" stroke="black"/>
<path d="M263.349,355.539h -8.24624" fill="none" stroke="black"/>
<path d="M255.103,356.487v -1.89608" fill="none" stroke="black"/>
<path d="M263.349,355.539h 8.24624" fill="none" stroke="black"/>
<path d="M271.595,356.487v -1.89608" fill="none" stroke="black"/>
<path d="M263.349,355.539v -2.65773" fill="none" stroke="black"/>
<path d="M262.401,352.881h 1.89608" fill="none" stroke="black"/>
<path d="M263.349,355.539v 2.65773" fill="none" stroke="black"/>
<path d="M262.401,358.197h 1.89608" fill="none" stroke="black"/>
<path d="M279.841,356.013h -8.24624" fill="none" stroke="black"/>
<path d="M271.595,356.961v -1.89608" fill="none" stroke="black"/>
<path d="M279.841,356.013h 8.24624" fill="none" stroke="black"/>
<path d="M288.088,356.961v -1.89608" fill="none" stroke="black"/>
<path d="M279.841,356.013v -2.61725" fill="none" stroke="black"/>
<path d="M278.893,353.396h 1.89608" fill="none" stroke="black"/>
<path d="M279.841,356.013v 2.61725" fill="none" stroke="black"/>
<path d="M278.893,358.63h 1.89608" fill="none" stroke="black"/>
<path d="M296.334,352.985h -8.24624" fill="none" stroke="black"/>
<path d="M288.088,353.933v -1.89608" fill="none" stroke="black"/>
<path d="M296.334,352.985h 8.24624" fill="none" stroke="black"/>
<path d="M304.58,353.933v -1.89608" fill="none" stroke="black"/>
<path d="M296.334,352.985v -3.21916" fill="none" stroke="black"/>
<path d="M295.386,349.766h 1.89608" fill="none" stroke="black"/>
<path d="M296.334,352.985v 3.21916" fill="none" stroke="black"/>
<path d="M295.386,356.204h 1.89608" fill="none" stroke="black"/>
<path d="M312.826,361.689h -8.24624" fill="none" stroke="black"/>
<path d="M304.58,362.637v -1.89608" fill="none" stroke="black"/>
<path d="M312.826,361.689h 8.24624" fill="none" stroke="black"/>
<path d="M321.073,362.637v -1.89608" fill="none" stroke="black"/>
<path d="M312.826,361.689v -1.89087" fill="none" stroke="black"/>
<path d="M311.878,359.798h 1.89608" fill="none" stroke="black"/>
<path d="M312.826,361.689v 1.89087" fill="none" stroke="black"/>
<path d="M311.878,363.58h 1.89608" fill="none" stroke="black"/>
<path d="M329.319,361.615h -8.24624" fill="none" stroke="black"/>
<path d="M321.073,362.563v -1.89608" fill="none" stroke="black"/>
<path d="M329.319,361.615h 8.24624" fill="none" stroke="black"/>
<path d="M337.565,362.563v -1.89608" fill="none" stroke="black"/>
<path d="M329.319,361.615v -1.99696" fill="none" stroke="black"/>
<path d="M328.371,359.618h 1.89608" fill="none" stroke="black"/>
<path d="M329.319,361.615v 1.99696" fill="none" stroke="black"/>
<path d="M328.371,363.612h 1.89608" fill="none" stroke="black"/>
<path d="M345.811,365.375h -8.24624" fill="none" stroke="black"/>
<path d="M337.565,366.323v -1.89608" fill="none" stroke="black"/>
<path d="M345.811,365.375h 8.24624" fill="none" stroke="black"/>
<path d="M354.058,366.323v -1.89608" fill="none" stroke="black"/>
<path d="M345.811,365.375v -1.50701" fill="none" stroke="black"/>
<path d="M344.863,363.868h 1.89608" fill="none" stroke="black"/>
<path d="M345.811,365.375v 1.50701" fill="none" stroke="black"/>
<path d="M344.863,366.882h 1.89608" fill="none" stroke="black"/>
<path d="M362.304,363.618h -8.24624" fill="none" stroke="black"/>
<path d="M354.058,364.566v -1.89608" fill="none" stroke="black"/>
<path d="M362.304,363.618h 8.24624" fill="none" stroke="black"/>
<path d="M370.55,364.566v -1.89608" fill="none" stroke="black"/>
<path d="M362.304,363.618v -1.73358" fill="none" stroke="black"/>
<path d="M361.356,361.884h 1.89608" fill="none" stroke="black"/>
<path d="M362.304,363.618v 1.73358" fill="none" stroke="black"/>
<path d="M361.356,365.351h 1.89608" fill="none" stroke="black"/>
<path d="M378.796,367.925h -8.24624" fill="none" stroke="black"/>
<path d="M370.55,368.873v -1.89608" fill="none" stroke="black"/>
<path d="M378.796,367.925h 8.24624" fill="none" stroke="black"/>
<path d="M387.043,368.873v -1.89608" fill="none" stroke="black"/>
<path d="M378.796,367.925v -1.11148" fill="none" stroke="black"/>
<path d="M377.848,366.813h 1.89608" fill="none" stroke="black"/>
<path d="M378.796,367.925v 1.11148" fill="none" stroke="black"/>
<path d="M377.848,369.036h 1.89608" fill="none" stroke="black"/>
<path d="M395.289,368.226h -8.24624" fill="none" stroke="black"/>
<path d="M387.043,369.174v -1.89608" fill="none" stroke="black"/>
<path d="M395.289,368.226h 8.24624" fill="none" stroke="black"/>
<path d="M403.535,369.174v -1.89608" fill="none" stroke="black"/>
<path d="M395.289,368.226v -1.00698" fill="none" stroke="black"/>
<path d="M394.341,367.219h 1.89608" fill="none" stroke="black"/>
<path d="M395.289,368.226v 1.00698" fill="none" stroke="black"/>
<path d="M394.341,369.233h 1.89608" fill="none" stroke="black"/>
<path d="M411.781,369.492h -8.24624" fill="none" stroke="black"/>
<path d="M403.535,370.44v -1.89608" fill="none" stroke="black"/>
<path d="M411.781,369.492h 8.24624" fill="none" stroke="black"/>
<path d="M420.028,370.44v -1.89608" fill="none" stroke="black"/>
<path d="M411.781,369.492v -1.11533" fill="none" stroke="black"/>
<path d="M410.833,368.376h 1.89608" fill="none" stroke="black"/>
<path d="M411.781,369.492v 1.11533" fill="none" stroke="black"/>
<path d="M410.833,370.607h 1.89608" fill="none" stroke="black"/>
<path d="M428.274,369.95h -8.24624" fill="none" stroke="black"/>
<path d="M420.028,370.898v -1.89608" fill="none" stroke="black"/>
<path d="M428.274,369.95h 8.24624" fill="none" stroke="black"/>
<path d="M436.52,370.898v -1.89608" fill="none" stroke="black"/>
<path d="M428.274,369.95v -0.647297" fill="none" stroke="black"/>
<path d="M427.326,369.302h 1.89608" fill="none" stroke="black"/>
<path d="M428.274,369.95v 0.647297" fill="none" stroke="black"/>
<path d="M427.326,370.597h 1.89608" fill="none" stroke="black"/>
<path d="M444.766,371h -8.24624" fill="none" stroke="black"/>
<path d="M436.52,371.948v -1.89608" fill="none" stroke="black"/>
<path d="M444.766,371h 8.24624" fill="none" stroke="black"/>
<path d="M453.013,371.948v -1.89608" fill="none" stroke="black"/>
<path d="M444.766,371v -0.441957" fill="none" stroke="black"/>
<path d="M443.818,370.558h 1.89608" fill="none" stroke="black"/>
<path d="M444.766,371v 0.441957" fill="none" stroke="black"/>
<path d="M443.818,371.442h 1.89608" fill="none" stroke="black"/>
<path d="M461.259,371.012h -8.24624" fill="none" stroke="black"/>
<path d="M453.013,371.96v -1.89608" fill="none" stroke="black"/>
<path d="M461.259,371.012h 8.24624" fill="none" stroke="black"/>
<path d="M469.505,371.96v -1.89608" fill="none" stroke="black"/>
<path d="M461.259,371.012v -0.455855" fill="none" stroke="black"/>
<path d="M460.311,370.556h 1.89608" fill="none" stroke="black"/>
<path d="M461.259,371.012v 0.455855" fill="none" stroke="black"/>
<path d="M460.311,371.468h 1.89608" fill="none" stroke="black"/>
<path d="M477.751,370.602h -8.24624" fill="none" stroke="black"/>
<path d="M469.505,371.55v -1.89608" fill="none" stroke="black"/>
<path d="M477.751,370.602h 8.24624" fill="none" stroke="black"/>
<path d="M485.997,371.55v -1.89608" fill="none" stroke="black"/>
<path d="M477.751,370.602v -0.59749" fill="none" stroke="black"/>
<path d="M476.803,370.004h 1.89608" fill="none" stroke="black"/>
<path d="M477.751,370.602v 0.59749" fill="none" stroke="black"/>
<path d="M476.803,371.199h 1.89608" fill="none" stroke="black"/>
<path d="M494.244,369.59h -8.24624" fill="none" stroke="black"/>
<path d="M485.997,370.538v -1.89608" fill="none" stroke="black"/>
<path d="M494.244,369.59h 8.24624" fill="none" stroke="black"/>
<path d="M502.49,370.538v -1.89608" fill="none" stroke="black"/>
<path d="M494.244,369.59v -0.843762" fill="none" stroke="black"/>
<path d="M493.296,368.746h 1.89608" fill="none" stroke="black"/>
<path d="M494.244,369.59v 0.843762" fill="none" stroke="black"/>
<path d="M493.296,370.434h 1.89608" fill="none" stroke="black"/>
<path d="M510.736,370.447h -8.24624" fill="none" stroke="black"/>
<path d="M502.49,371.395v -1.89608" fill="none" stroke="black"/>
<path d="M510.736,370.447z" fill="none" stroke="black"/>
<path d="M510.736,370.447v -0.589626" fill="none" stroke="black"/>
<path d="M509.788,369.857h 0.948042" fill="none" stroke="black"/>
<path d="M510.736,370.447v 0.589626" fill="none" stroke="black"/>
<path d="M509.788,371.037h 0.948042" fill="none" stroke="black"/>
<g stroke="black" stroke-width="1" fill="black">
<circle cx="65.4392" cy="364.304" r="1.89608"/>
<circle cx="81.9316" cy="344.621" r="1.89608"/>
<circle cx="98.4241" cy="208.232" r="1.89608"/>
<circle cx="114.917" cy="99.2648" r="1.89608"/>
<circle cx="131.409" cy="106.536" r="1.89608"/>
<circle cx="147.902" cy="149.466" r="1.89608"/>
<circle cx="164.394" cy="226.85" r="1.89608"/>
<circle cx="180.887" cy="246.632" r="1.89608"/>
<circle cx="197.379" cy="303.568" r="1.89608"/>
<circle cx="213.872" cy="309.535" r="1.89608"/>
<circle cx="230.364" cy="328.715" r="1.89608"/>
<circle cx="246.856" cy="337.284" r="1.89608"/>
<circle cx="263.349" cy="355.539" r="1.89608"/>
<circle cx="279.841" cy="356.013" r="1.89608"/>
<circle cx="296.334" cy="352.985" r="1.89608"/>
<circle cx="312.826" cy="361.689" r="1.89608"/>
<circle cx="329.319" cy="361.615" r="1.89608"/>
<circle cx="345.811" cy="365.375" r="1.89608"/>
<circle cx="362.304" cy="363.618" r="1.89608"/>
<circle cx="378.796" cy="367.925" r="1.89608"/>
<circle cx="395.289" cy="368.226" r="1.89608"/>
<circle cx="411.781" cy="369.492" r="1.89608"/>
<circle cx="428.274" cy="369.95" r="1.89608"/>
<circle cx="444.766" cy="371" r="1.89608"/>
<circle cx="461.259" cy="371.012" r="1.89608"/>
<circle cx="477.751" cy="370.602" r="1.89608"/>
<circle cx="494.244" cy="369.59" r="1.89608"/>
<circle cx="510.736" cy="370.447" r="1.89608"/>
</g>
<path d="M57.1929,371.369l 6.59699, -1.73391l 3.2985, -1.91079l 3.2985, -3.12784l 3.2985, -4.88538l 1.64925, -3.29819l 1.64925, -3.98069l 1.64925, -4.74745l 1.64925, -5.59446l 1.64925, -6.51368l 1.64925, -7.4926l 1.64925, -8.51417l 1.64925, -9.55681l
 1.64925, -10.5949l 1.64925, -11.5993l 1.64925, -12.5387l 1.64925, -13.3806l 3.2985, -28.738l 6.59699, -60.1011l 1.64925, -14.29l 1.64925, -13.5466l 1.64925, -12.5992l 1.64925, -11.4714l 1.64925, -10.1927l 1.64925, -8.79699l 1.64925, -7.32086l
 1.64925, -5.80184l 1.64925, -4.27675l 1.64925, -2.78006l 1.64925, -1.34262l 1.64925, 0.00936965l 1.64925, 1.25501l 1.64925, 2.37904l 1.64925, 3.37176l 1.64925, 4.22878l 1.64925, 4.95045l 1.64925, 5.54114l 3.2985, 12.3707l 6.59699, 27.1369l 6.59699,
 26.8275l 3.2985, 12.5969l 3.2985, 11.9069l 3.2985, 11.1903l 3.2985, 10.4825l 3.2985, 9.80275l 3.2985, 9.15986l 6.59699, 16.5505l 6.59699, 14.4481l 6.59699, 12.624l 6.59699, 11.0416l 6.59699, 9.66774l 6.59699, 8.47375l 6.59699, 7.43506l 6.59699,
 6.53055l 6.59699, 5.74212l 6.59699, 5.05417l 6.59699, 4.4533l 6.59699, 3.92798l 6.59699, 3.46824l 6.59699, 3.0655l 6.59699, 2.71235l 6.59699, 2.40237l 6.59699, 2.13002l 6.59699, 1.8905l 6.59699, 1.67964l 6.59699, 1.49384l 6.59699, 1.32995l 6.59699,
 1.18526l 6.59699, 1.05738l 6.59699, 0.944267l 6.59699, 0.844108l 6.59699, 0.755337l 6.59699, 0.676584l 6.59699, 0.606652l 6.59699, 0.544494l 6.59699, 0.489193l 6.59699, 0.439948l 6.59699, 0.396052l 6.59699, 0.356889l 6.59699, 0.321915l 6.59699,
 0.290653l 6.59699, 0.262684l 6.59699, 0.237637l 6.59699, 0.215187l 6.59699, 0.195045l 6.59699, 0.176958l 6.59699, 0.160702l 6.59699, 0.146077l 6.59699, 0.132908l 6.59699, 0.12104l 6.59699, 0.110334l 6.59699, 0.100669l 6.59699, 0.0919338l 6.59699,
 0.0840335l 6.59699, 0.0768815l 6.59699, 0.0704012l 6.59699, 0.0645245l 4.94775, 0.0443927" fill="none" stroke="#0000ff" stroke-width="3" stroke-dasharray=" 3, 3"/>
<path d="M57.1929,371.572l 6.59699, -1.36562l 3.2985, -1.58641l 3.2985, -2.70057l 3.2985, -4.36693l 1.64925, -3.02188l 1.64925, -3.6943l 1.64925, -4.45163l 1.64925, -5.28376l 1.64925, -6.21907l 1.64925, -7.19862l 1.64925, -8.2178l 1.64925, -9.30216l
 1.64925, -10.4387l 1.64925, -11.2681l 1.64925, -12.3357l 1.64925, -13.1414l 3.2985, -28.1876l 6.59699, -58.7616l 1.64925, -14.051l 1.64925, -13.2319l 1.64925, -12.4648l 1.64925, -11.2886l 1.64925, -9.89979l 1.64925, -8.68015l 1.64925, -7.23048l
 1.64925, -5.68467l 1.64925, -4.29508l 1.64925, -2.7241l 1.64925, -1.18669l 1.64925, 0.196417l 1.64925, 1.22674l 1.64925, 2.6685l 1.64925, 3.3624l 1.64925, 4.12923l 1.64925, 5.08344l 1.64925, 5.01616l 3.2985, 11.9082l 6.59699, 25.669l 6.59699,
 25.1382l 3.2985, 11.7725l 3.2985, 11.1796l 3.2985, 10.5769l 3.2985, 10.2942l 3.2985, 9.69403l 3.2985, 9.1755l 6.59699, 16.8179l 6.59699, 14.5768l 6.59699, 12.819l 6.59699, 11.0974l 6.59699, 9.72097l 6.59699, 8.39369l 6.59699, 7.33519l 6.59699,
 6.36126l 6.59699, 5.59453l 6.59699, 4.86747l 6.59699, 4.26443l 6.59699, 3.73584l 6.59699, 3.31204l 6.59699, 2.89452l 6.59699, 2.54514l 6.59699, 2.24338l 6.59699, 1.98066l 6.59699, 1.75095l 6.59699, 1.54973l 6.59699, 1.37436l 6.59699, 1.22006l
 6.59699, 1.09139l 6.59699, 0.973954l 6.59699, 0.865165l 6.59699, 0.771297l 6.59699, 0.69793l 6.59699, 0.622882l 6.59699, 0.561966l 6.59699, 0.512628l 6.59699, 0.469013l 6.59699, 0.417785l 6.59699, 0.370271l 6.59699, 0.342132l 6.59699, 0.31215l
 6.59699, 0.280912l 6.59699, 0.254479l 6.59699, 0.232349l 6.59699, 0.214723l 6.59699, 0.190082l 6.59699, 0.17877l 6.59699, 0.162059l 6.59699, 0.146173l 6.59699, 0.133915l 6.59699, 0.120673l 6.59699, 0.109058l 6.59699, 0.0975211l 6.59699, 0.0887068l
 6.59699, 0.0812859l 6.59699, 0.0765023l 6.59699, 0.0671339l 6.59699, 0.0605711l 4.94775, 0.0421042v -0.510218l -4.94775, -0.0435757l -6.59699, -0.0635856l -6.59699, -0.0691312l -6.59699, -0.0751864l -6.59699, -0.081034l -6.59699, -0.0898552l
 -6.59699, -0.0978091l -6.59699, -0.107803l -6.59699, -0.12188l -6.59699, -0.12684l -6.59699, -0.146333l -6.59699, -0.152916l -6.59699, -0.175557l -6.59699, -0.193284l -6.59699, -0.216863l -6.59699, -0.238593l -6.59699, -0.270622l -6.59699,
 -0.294513l -6.59699, -0.325817l -6.59699, -0.374918l -6.59699, -0.422355l -6.59699, -0.465623l -6.59699, -0.523395l -6.59699, -0.593277l -6.59699, -0.654255l -6.59699, -0.742106l -6.59699, -0.831287l -6.59699, -0.91847l -6.59699, -1.03103l -6.59699,
 -1.14457l -6.59699, -1.28769l -6.59699, -1.44749l -6.59699, -1.63099l -6.59699, -1.80895l -6.59699, -2.03217l -6.59699, -2.28265l -6.59699, -2.57363l -6.59699, -2.89077l -6.59699, -3.2565l -6.59699, -3.67941l -6.59699, -4.07925l -6.59699, -4.66383l
 -6.59699, -5.26149l -6.59699, -5.93499l -6.59699, -6.65131l -6.59699, -7.48064l -6.59699, -8.48329l -6.59699, -9.63931l -6.59699, -10.8482l -6.59699, -12.3709l -6.59699, -14.2297l -6.59699, -16.3347l -3.2985, -9.17192l -3.2985, -9.97015l -3.2985,
 -10.9293l -3.2985, -11.6383l -3.2985, -12.4493l -3.2985, -13.4347l -6.59699, -28.2184l -6.59699, -28.5002l -3.2985, -12.8522l -1.64925, -5.43772l -1.64925, -5.02211l -1.64925, -4.19133l -1.64925, -3.35601l -1.64925, -2.35489l -1.64925, -1.12173l
 -1.64925, -0.0566129l -1.64925, 1.43691l -1.64925, 2.93624l -1.64925, 4.08533l -1.64925, 5.86025l -1.64925, 7.23504l -1.64925, 9.09672l -1.64925, 10.2285l -1.64925, 11.5821l -1.64925, 12.6679l -1.64925, 13.6684l -1.64925, 14.4826l -6.59699, 61.5969l
 -3.2985, 29.4466l -1.64925, 13.4814l -1.64925, 12.7573l -1.64925, 11.7871l -1.64925, 10.8932l -1.64925, 9.82941l -1.64925, 8.70324l -1.64925, 7.69895l -1.64925, 6.75426l -1.64925, 5.87795l -1.64925, 5.05409l -1.64925, 4.25286l -1.64925, 3.58442l
 -3.2985, 5.41834l -3.2985, 3.5652l -3.2985, 2.252l -6.59699, 2.16287z" fill="#ffff00"/>
<path d="M57.1929,371.5l 6.59699, -1.50842l 3.2985, -1.71943l 3.2985, -2.88099l 3.2985, -4.58397l 1.64925, -3.11768l 1.64925, -3.79294l 1.64925, -4.56957l 1.64925, -5.4822l 1.64925, -6.38653l 1.64925, -7.37276l 1.64925, -8.45942l 1.64925, -9.39156l
 1.64925, -10.5042l 1.64925, -11.5057l 1.64925, -12.3804l 1.64925, -13.4544l 3.2985, -28.4658l 6.59699, -59.6375l 1.64925, -14.2419l 1.64925, -13.546l 1.64925, -12.4671l 1.64925, -11.3307l 1.64925, -10.1998l 1.64925, -8.64725l 1.64925, -7.22947l
 1.64925, -5.85337l 1.64925, -4.38242l 1.64925, -2.58915l 1.64925, -1.42593l 1.64925, 0.0834177l 1.64925, 1.16361l 1.64925, 2.47028l 1.64925, 3.47209l 1.64925, 4.17003l 1.64925, 5.11493l 1.64925, 5.23853l 3.2985, 12.0825l 6.59699, 26.6991l 6.59699,
 26.0982l 3.2985, 12.1816l 3.2985, 11.5659l 3.2985, 11.0107l 3.2985, 10.4643l 3.2985, 9.72945l 3.2985, 9.22934l 6.59699, 16.643l 6.59699, 14.5845l 6.59699, 12.6268l 6.59699, 11.0994l 6.59699, 9.6353l 6.59699, 8.4555l 6.59699, 7.41704l 6.59699,
 6.47719l 6.59699, 5.66218l 6.59699, 4.95878l 6.59699, 4.35798l 6.59699, 3.84513l 6.59699, 3.39043l 6.59699, 2.98228l 6.59699, 2.61924l 6.59699, 2.31273l 6.59699, 2.0618l 6.59699, 1.79679l 6.59699, 1.60084l 6.59699, 1.4403l 6.59699, 1.2794l 6.59699,
 1.14576l 6.59699, 1.00742l 6.59699, 0.903722l 6.59699, 0.807195l 6.59699, 0.734086l 6.59699, 0.647612l 6.59699, 0.58332l 6.59699, 0.529098l 6.59699, 0.476675l 6.59699, 0.435169l 6.59699, 0.392275l 6.59699, 0.357775l 6.59699, 0.312473l 6.59699,
 0.284271l 6.59699, 0.256674l 6.59699, 0.231265l 6.59699, 0.214372l 6.59699, 0.192754l 6.59699, 0.178746l 6.59699, 0.158665l 6.59699, 0.148124l 6.59699, 0.130527l 6.59699, 0.120856l 6.59699, 0.109546l 6.59699, 0.0989499l 6.59699, 0.0912959l 6.59699,
 0.0812302l 6.59699, 0.0750668l 6.59699, 0.0694249l 6.59699, 0.0622025l 4.94775, 0.0436063v -0.232285l -4.94775, -0.0493232l -6.59699, -0.071529l -6.59699, -0.0642905l -6.59699, -0.0697778l -6.59699, -0.0820395l -6.59699, -0.0995386l -6.59699,
 -0.104792l -6.59699, -0.104942l -6.59699, -0.115337l -6.59699, -0.133383l -6.59699, -0.14784l -6.59699, -0.163229l -6.59699, -0.182073l -6.59699, -0.191487l -6.59699, -0.216787l -6.59699, -0.233786l -6.59699, -0.259953l -6.59699, -0.293826l
 -6.59699, -0.329098l -6.59699, -0.363067l -6.59699, -0.400178l -6.59699, -0.453656l -6.59699, -0.508634l -6.59699, -0.56165l -6.59699, -0.632289l -6.59699, -0.700544l -6.59699, -0.788828l -6.59699, -0.884662l -6.59699, -0.9721l -6.59699, -1.10693l
 -6.59699, -1.22803l -6.59699, -1.38242l -6.59699, -1.55777l -6.59699, -1.74873l -6.59699, -1.96367l -6.59699, -2.19776l -6.59699, -2.49024l -6.59699, -2.79366l -6.59699, -3.14648l -6.59699, -3.58299l -6.59699, -4.02483l -6.59699, -4.54561l -6.59699,
 -5.13793l -6.59699, -5.7894l -6.59699, -6.59296l -6.59699, -7.44874l -6.59699, -8.50425l -6.59699, -9.59156l -6.59699, -11.0074l -6.59699, -12.6062l -6.59699, -14.2767l -6.59699, -16.4595l -3.2985, -9.12748l -3.2985, -9.84216l -3.2985, -10.5332l
 -3.2985, -11.4313l -3.2985, -12.1675l -3.2985, -12.9939l -6.59699, -27.5953l -6.59699, -28.0285l -3.2985, -12.3482l -1.64925, -5.77365l -1.64925, -5.03346l -1.64925, -4.10242l -1.64925, -3.43556l -1.64925, -2.42321l -1.64925, -1.31666l -1.64925,
 0.188032l -1.64925, 1.27793l -1.64925, 3.04793l -1.64925, 4.22157l -1.64925, 5.82584l -1.64925, 7.21039l -1.64925, 8.86237l -1.64925, 10.256l -1.64925, 11.4045l -1.64925, 12.7437l -1.64925, 13.7494l -1.64925, 14.5234l -6.59699, 60.3968l -3.2985,
 28.8849l -1.64925, 13.3692l -1.64925, 12.7297l -1.64925, 11.7472l -1.64925, 10.7249l -1.64925, 9.74306l -1.64925, 8.49762l -1.64925, 7.69628l -1.64925, 6.64333l -1.64925, 5.74624l -1.64925, 4.90502l -1.64925, 4.17963l -1.64925, 3.45601l -3.2985,
 5.22557l -3.2985, 3.37215l -3.2985, 2.1117l -6.59699, 1.95979z" fill="#00ff00"/>
<path d="M57.1929,371.369l 6.59699, -1.73391l 3.2985, -1.91079l 3.2985, -3.12784l 3.2985, -4.88538l 1.64925, -3.29819l 1.64925, -3.98069l 1.64925, -4.74745l 1.64925, -5.59446l 1.64925, -6.51368l 1.64925, -7.4926l 1.64925, -8.51417l 1.64925, -9.55681l
 1.64925, -10.5949l 1.64925, -11.5993l 1.64925, -12.5387l 1.64925, -13.3806l 3.2985, -28.738l 6.59699, -60.1011l 1.64925, -14.29l 1.64925, -13.5466l 1.64925, -12.5992l 1.64925, -11.4714l 1.64925, -10.1927l 1.64925, -8.79699l 1.64925, -7.32086l
 1.64925, -5.80184l 1.64925, -4.27675l 1.64925, -2.78006l 1.64925, -1.34262l 1.64925, 0.00936965l 1.64925, 1.25501l 1.64925, 2.37904l 1.64925, 3.37176l 1.64925, 4.22878l 1.64925, 4.95045l 1.64925, 5.54114l 3.2985, 12.3707l 6.59699, 27.1369l 6.59699,
 26.8275l 3.2985, 12.5969l 3.2985, 11.9069l 3.2985, 11.1903l 3.2985, 10.4825l 3.2985, 9.80275l 3.2985, 9.15986l 6.59699, 16.5505l 6.59699, 14.4481l 6.59699, 12.624l 6.59699, 11.0416l 6.59699, 9.66774l 6.59699, 8.47375l 6.59699, 7.43506l 6.59699,
 6.53055l 6.59699, 5.74212l 6.59699, 5.05417l 6.59699, 4.4533l 6.59699, 3.92798l 6.59699, 3.46824l 6.59699, 3.0655l 6.59699, 2.71235l 6.59699, 2.40237l 6.59699, 2.13002l 6.59699, 1.8905l 6.59699, 1.67964l 6.59699, 1.49384l 6.59699, 1.32995l 6.59699,
 1.18526l 6.59699, 1.05738l 6.59699, 0.944267l 6.59699, 0.844108l 6.59699, 0.755337l 6.59699, 0.676584l 6.59699, 0.606652l 6.59699, 0.544494l 6.59699, 0.489193l 6.59699, 0.439948l 6.59699, 0.396052l 6.59699, 0.356889l 6.59699, 0.321915l 6.59699,
 0.290653l 6.59699, 0.262684l 6.59699, 0.237637l 6.59699, 0.215187l 6.59699, 0.195045l 6.59699, 0.176958l 6.59699, 0.160702l 6.59699, 0.146077l 6.59699, 0.132908l 6.59699, 0.12104l 6.59699, 0.110334l 6.59699, 0.100669l 6.59699, 0.0919338l 6.59699,
 0.0840335l 6.59699, 0.0768815l 6.59699, 0.0704012l 6.59699, 0.0645245l 4.94775, 0.0443927" fill="none" stroke="#0000ff" stroke-width="3" stroke-dasharray=" 3, 3"/>
<path d="M65.4392,364.304h -8.24624" fill="none" stroke="black"/>
<path d="M57.1929,365.252v -1.89608" fill="none" stroke="black"/>
<path d="M65.4392,364.304h 8.24624" fill="none" stroke="black"/>
<path d="M73.6854,365.252v -1.89608" fill="none" stroke="black"/>
<path d="M65.4392,364.304v -1.96635" fill="none" stroke="black"/>
<path d="M64.4911,362.338h 1.89608" fill="none" stroke="black"/>
<path d="M65.4392,364.304v 1.96635" fill="none" stroke="black"/>
<path d="M64.4911,366.271h 1.89608" fill="none" stroke="black"/>
<path d="M81.9316,344.621h -8.24624" fill="none" stroke="black"/>
<path d="M73.6854,345.569v -1.89608" fill="none" stroke="black"/>
<path d="M81.9316,344.621h 8.24624" fill="none" stroke="black"/>
<path d="M90.1779,345.569v -1.89608" fill="none" stroke="black"/>
<path d="M81.9316,344.621v -4.60612" fill="none" stroke="black"/>
<path d="M80.9836,340.015h 1.89608" fill="none" stroke="black"/>
<path d="M81.9316,344.621v 4.60612" fill="none" stroke="black"/>
<path d="M80.9836,349.227h 1.89608" fill="none" stroke="black"/>
<path d="M98.4241,208.232h -8.24624" fill="none" stroke="black"/>
<path d="M90.1779,209.18v -1.89608" fill="none" stroke="black"/>
<path d="M98.4241,208.232h 8.24624" fill="none" stroke="black"/>
<path d="M106.67,209.18v -1.89608" fill="none" stroke="black"/>
<path d="M98.4241,208.232v -13.7997" fill="none" stroke="black"/>
<path d="M97.4761,194.433h 1.89608" fill="none" stroke="black"/>
<path d="M98.4241,208.232v 13.7997" fill="none" stroke="black"/>
<path d="M97.4761,222.032h 1.89608" fill="none" stroke="black"/>
<path d="M114.917,99.2648h -8.24624" fill="none" stroke="black"/>
<path d="M106.67,100.213v -1.89608" fill="none" stroke="black"/>
<path d="M114.917,99.2648h 8.24624" fill="none" stroke="black"/>
<path d="M123.163,100.213v -1.89608" fill="none" stroke="black"/>
<path d="M114.917,99.2648v -17.3878" fill="none" stroke="black"/>
<path d="M113.969,81.8771h 1.89608" fill="none" stroke="black"/>
<path d="M114.917,99.2648v 17.3878" fill="none" stroke="black"/>
<path d="M113.969,116.653h 1.89608" fill="none" stroke="black"/>
<path d="M131.409,106.536h -8.24624" fill="none" stroke="black"/>
<path d="M123.163,107.484v -1.89608" fill="none" stroke="black"/>
<path d="M131.409,106.536h 8.24624" fill="none" stroke="black"/>
<path d="M139.655,107.484v -1.89608" fill="none" stroke="black"/>
<path d="M131.409,106.536v -18.1797" fill="none" stroke="black"/>
<path d="M130.461,88.3565h 1.89608" fill="none" stroke="black"/>
<path d="M131.409,106.536v 18.1797" fill="none" stroke="black"/>
<path d="M130.461,124.716h 1.89608" fill="none" stroke="black"/>
<path d="M147.902,149.466h -8.24624" fill="none" stroke="black"/>
<path d="M139.655,150.414v -1.89608" fill="none" stroke="black"/>
<path d="M147.902,149.466h 8.24624" fill="none" stroke="black"/>
<path d="M156.148,150.414v -1.89608" fill="none" stroke="black"/>
<path d="M147.902,149.466v -16.3677" fill="none" stroke="black"/>
<path d="M146.954,133.098h 1.89608" fill="none" stroke="black"/>
<path d="M147.902,149.466v 16.3677" fill="none" stroke="black"/>
<path d="M146.954,165.834h 1.89608" fill="none" stroke="black"/>
<path d="M164.394,226.85h -8.24624" fill="none" stroke="black"/>
<path d="M156.148,227.798v -1.89608" fill="none" stroke="black"/>
<path d="M164.394,226.85h 8.24624" fill="none" stroke="black"/>
<path d="M172.64,227.798v -1.89608" fill="none" stroke="black"/>
<path d="M164.394,226.85v -12.2169" fill="none" stroke="black"/>
<path d="M163.446,214.633h 1.89608" fill="none" stroke="black"/>
<path d="M164.394,226.85v 12.2169" fill="none" stroke="black"/>
<path d="M163.446,239.067h 1.89608" fill="none" stroke="black"/>
<path d="M180.887,246.632h -8.24624" fill="none" stroke="black"/>
<path d="M172.64,247.58v -1.89608" fill="none" stroke="black"/>
<path d="M180.887,246.632h 8.24624" fill="none" stroke="black"/>
<path d="M189.133,247.58v -1.89608" fill="none" stroke="black"/>
<path d="M180.887,246.632v -11.4861" fill="none" stroke="black"/>
<path d="M179.939,235.146h 1.89608" fill="none" stroke="black"/>
<path d="M180.887,246.632v 11.4861" fill="none" stroke="black"/>
<path d="M179.939,258.118h 1.89608" fill="none" stroke="black"/>
<path d="M197.379,303.568h -8.24624" fill="none" stroke="black"/>
<path d="M189.133,304.516v -1.89608" fill="none" stroke="black"/>
<path d="M197.379,303.568h 8.24624" fill="none" stroke="black"/>
<path d="M205.625,304.516v -1.89608" fill="none" stroke="black"/>
<path d="M197.379,303.568v -6.63336" fill="none" stroke="black"/>
<path d="M196.431,296.934h 1.89608" fill="none" stroke="black"/>
<path d="M197.379,303.568v 6.63336" fill="none" stroke="black"/>
<path d="M196.431,310.201h 1.89608" fill="none" stroke="black"/>
<path d="M213.872,309.535h -8.24624" fill="none" stroke="black"/>
<path d="M205.625,310.483v -1.89608" fill="none" stroke="black"/>
<path d="M213.872,309.535h 8.24624" fill="none" stroke="black"/>
<path d="M222.118,310.483v -1.89608" fill="none" stroke="black"/>
<path d="M213.872,309.535v -6.49219" fill="none" stroke="black"/>
<path d="M212.923,303.043h 1.89608" fill="none" stroke="black"/>
<path d="M213.872,309.535v 6.49219" fill="none" stroke="black"/>
<path d="M212.923,316.028h 1.89608" fill="none" stroke="black"/>
<path d="M230.364,328.715h -8.24624" fill="none" stroke="black"/>
<path d="M222.118,329.663v -1.89608" fill="none" stroke="black"/>
<path d="M230.364,328.715h 8.24624" fill="none" stroke="black"/>
<path d="M238.61,329.663v -1.89608" fill="none" stroke="black"/>
<path d="M230.364,328.715v -5.10592" fill="none" stroke="black"/>
<path d="M229.416,323.609h 1.89608" fill="none" stroke="black"/>
<path d="M230.364,328.715v 5.10592" fill="none" stroke="black"/>
<path d="M229.416,333.821h 1.89608" fill="none" stroke="black"/>
<path d="M246.856,337.284h -8.24624" fill="none" stroke="black"/>
<path d="M238.61,338.233v -1.89608" fill="none" stroke="black"/>
<path d="M246.856,337.284h 8.24624" fill="none" stroke="black"/>
<path d="M255.103,338.233v -1.89608" fill="none" stroke="black"/>
<path d="M246.856,337.284v -4.41732" fill="none" stroke="black"/>
<path d="M245.908,332.867h 1.89608" fill="none" stroke="black"/>
<path d="M246.856,337.284v 4.41732" fill="none" stroke="black"/>
<path d="M245.908,341.702h 1.89608" fill="none" stroke="black"/>
<path d="M263.349,355.539h -8.24624" fill="none" stroke="black"/>
<path d="M255.103,356.487v -1.89608" fill="none" stroke="black"/>
<path d="M263.349,355.539h 8.24624" fill="none" stroke="black"/>
<path d="M271.595,356.487v -1.89608" fill="none" stroke="black"/>
<path d="M263.349,355.539v -2.65773" fill="none" stroke="black"/>
<path d="M262.401,352.881h 1.89608" fill="none" stroke="black"/>
<path d="M263.349,355.539v 2.65773" fill="none" stroke="black"/>
<path d="M262.401,358.197h 1.89608" fill="none" stroke="black"/>
<path d="M279.841,356.013h -8.24624" fill="none" stroke="black"/>
<path d="M271.595,356.961v -1.89608" fill="none" stroke="black"/>
<path d="M279.841,356.013h 8.24624" fill="none" stroke="black"/>
<path d="M288.088,356.961v -1.89608" fill="none" stroke="black"/>
<path d="M279.841,356.013v -2.61725" fill="none" stroke="black"/>
<path d="M278.893,353.396h 1.89608" fill="none" stroke="black"/>
<path d="M279.841,356.013v 2.61725" fill="none" stroke="black"/>
<path d="M278.893,358.63h 1.89608" fill="none" stroke="black"/>
<path d="M296.334,352.985h -8.24624" fill="none" stroke="black"/>
<path d="M288.088,353.933v -1.89608" fill="none" stroke="black"/>
<path d="M296.334,352.985h 8.24624" fill="none" stroke="black"/>
<path d="M304.58,353.933v -1.89608" fill="none" stroke="black"/>
<path d="M296.334,352.985v -3.21916" fill="none" stroke="black"/>
<path d="M295.386,349.766h 1.89608" fill="none" stroke="black"/>
<path d="M296.334,352.985v 3.21916" fill="none" stroke="black"/>
<path d="M295.386,356.204h 1.89608" fill="none" stroke="black"/>
<path d="M312.826,361.689h -8.24624" fill="none" stroke="black"/>
<path d="M304.58,362.637v -1.89608" fill="none" stroke="black"/>
<path d="M312.826,361.689h 8.24624" fill="none" stroke="black"/>
<path d="M321.073,362.637v -1.89608" fill="none" stroke="black"/>
<path d="M312.826,361.689v -1.89087" fill="none" stroke="black"/>
<path d="M311.878,359.798h 1.89608" fill="none" stroke="black"/>
<path d="M312.826,361.689v 1.89087" fill="none" stroke="black"/>
<path d="M311.878,363.58h 1.89608" fill="none" stroke="black"/>
<path d="M329.319,361.615h -8.24624" fill="none" stroke="black"/>
<path d="M321.073,362.563v -1.89608" fill="none" stroke="black"/>
<path d="M329.319,361.615h 8.24624" fill="none" stroke="black"/>
<path d="M337.565,362.563v -1.89608" fill="none" stroke="black"/>
<path d="M329.319,361.615v -1.99696" fill="none" stroke="black"/>
<path d="M328.371,359.618h 1.89608" fill="none" stroke="black"/>
<path d="M329.319,361.615v 1.99696" fill="none" stroke="black"/>
<path d="M328.371,363.612h 1.89608" fill="none" stroke="black"/>
<path d="M345.811,365.375h -8.24624" fill="none" stroke="black"/>
<path d="M337.565,366.323v -1.89608" fill="none" stroke="black"/>
<path d="M345.811,365.375h 8.24624" fill="none" stroke="black"/>
<path d="M354.058,366.323v -1.89608" fill="none" stroke="black"/>
<path d="M345.811,365.375v -1.50701" fill="none" stroke="black"/>
<path d="M344.863,363.868h 1.89608" fill="none" stroke="black"/>
<path d="M345.811,365.375v 1.50701" fill="none" stroke="black"/>
<path d="M344.863,366.882h 1.89608" fill="none" stroke="black"/>
<path d="M362.304,363.618h -8.24624" fill="none" stroke="black"/>
<path d="M354.058,364.566v -1.89608" fill="none" stroke="black"/>
<path d="M362.304,363.618h 8.24624" fill="none" stroke="black"/>
<path d="M370.55,364.566v -1.89608" fill="none" stroke="black"/>
<path d="M362.304,363.618v -1.73358" fill="none" stroke="black"/>
<path d="M361.356,361.884h 1.89608" fill="none" stroke="black"/>
<path d="M362.304,363.618v 1.73358" fill="none" stroke="black"/>
<path d="M361.356,365.351h 1.89608" fill="none" stroke="black"/>
<path d="M378.796,367.925h -8.24624" fill="none" stroke="black"/>
<path d="M370.55,368.873v -1.89608" fill="none" stroke="black"/>
<path d="M378.796,367.925h 8.24624" fill="none" stroke="black"/>
<path d="M387.043,368.873v -1.89608" fill="none" stroke="black"/>
<path d="M378.796,367.925v -1.11148" fill="none" stroke="black"/>
<path d="M377.848,366.813h 1.89608" fill="none" stroke="black"/>
<path d="M378.796,367.925v 1.11148" fill="none" stroke="black"/>
<path d="M377.848,369.036h 1.89608" fill="none" stroke="black"/>
<path d="M395.289,368.226h -8.24624" fill="none" stroke="black"/>
<path d="M387.043,369.174v -1.89608" fill="none" stroke="black"/>
<path d="M395.289,368.226h 8.24624" fill="none" stroke="black"/>
<path d="M403.535,369.174v -1.89608" fill="none" stroke="black"/>
<path d="M395.289,368.226v -1.00698" fill="none" stroke="black"/>
<path d="M394.341,367.219h 1.89608" fill="none" stroke="black"/>
<path d="M395.289,368.226v 1.00698" fill="none" stroke="black"/>
<path d="M394.341,369.233h 1.89608" fill="none" stroke="black"/>
<path d="M411.781,369.492h -8.24624" fill="none" stroke="black"/>
<path d="M403.535,370.44v -1.89608" fill="none" stroke="black"/>
<path d="M411.781,369.492h 8.24624" fill="none" stroke="black"/>
<path d="M420.028,370.44v -1.89608" fill="none" stroke="black"/>
<path d="M411.781,369.492v -1.11533" fill="none" stroke="black"/>
<path d="M410.833,368.376h 1.89608" fill="none" stroke="black"/>
<path d="M411.781,369.492v 1.11533" fill="none" stroke="black"/>
<path d="M410.833,370.607h 1.89608" fill="none" stroke="black"/>
<path d="M428.274,369.95h -8.24624" fill="none" stroke="black"/>
<path d="M420.028,370.898v -1.89608" fill="none" stroke="black"/>
<path d="M428.274,369.95h 8.24624" fill="none" stroke="black"/>
<path d="M436.52,370.898v -1.89608" fill="none" stroke="black"/>
<path d="M428.274,369.95v -0.647297" fill="none" stroke="black"/>
<path d="M427.326,369.302h 1.89608" fill="none" stroke="black"/>
<path d="M428.274,369.95v 0.647297" fill="none" stroke="black"/>
<path d="M427.326,370.597h 1.89608" fill="none" stroke="black"/>
<path d="M444.766,371h -8.24624" fill="none" stroke="black"/>
<path d="M436.52,371.948v -1.89608" fill="none" stroke="black"/>
<path d="M444.766,371h 8.24624" fill="none" stroke="black"/>
<path d="M453.013,371.948v -1.89608" fill="none" stroke="black"/>
<path d="M444.766,371v -0.441957" fill="none" stroke="black"/>
<path d="M443.818,370.558h 1.89608" fill="none" stroke="black"/>
<path d="M444.766,371v 0.441957" fill="none" stroke="black"/>
<path d="M443.818,371.442h 1.89608" fill="none" stroke="black"/>
<path d="M461.259,371.012h -8.24624" fill="none" stroke="black"/>
<path d="M453.013,371.96v -1.89608" fill="none" stroke="black"/>
<path d="M461.259,371.012h 8.24624" fill="none" stroke="black"/>
<path d="M469.505,371.96v -1.89608" fill="none" stroke="black"/>
<path d="M461.259,371.012v -0.455855" fill="none" stroke="black"/>
<path d="M460.311,370.556h 1.89608" fill="none" stroke="black"/>
<path d="M461.259,371.012v 0.455855" fill="none" stroke="black"/>
<path d="M460.311,371.468h 1.89608" fill="none" stroke="black"/>
<path d="M477.751,370.602h -8.24624" fill="none" stroke="black"/>
<path d="M469.505,371.55v -1.89608" fill="none" stroke="black"/>
<path d="M477.751,370.602h 8.24624" fill="none" stroke="black"/>
<path d="M485.997,371.55v -1.89608" fill="none" stroke="black"/>
<path d="M477.751,370.602v -0.59749" fill="none" stroke="black"/>
<path d="M476.803,370.004h 1.89608" fill="none" stroke="black"/>
<path d="M477.751,370.602v 0.59749" fill="none" stroke="black"/>
<path d="M476.803,371.199h 1.89608" fill="none" stroke="black"/>
<path d="M494.244,369.59h -8.24624" fill="none" stroke="black"/>
<path d="M485.997,370.538v -1.89608" fill="none" stroke="black"/>
<path d="M494.244,369.59h 8.24624" fill="none" stroke="black"/>
<path d="M502.49,370.538v -1.89608" fill="none" stroke="black"/>
<path d="M494.244,369.59v -0.843762" fill="none" stroke="black"/>
<path d="M493.296,368.746h 1.89608" fill="none" stroke="black"/>
<path d="M494.244,369.59v 0.843762" fill="none" stroke="black"/>
<path d="M493.296,370.434h 1.89608" fill="none" stroke="black"/>
<path d="M510.736,370.447h -8.24624" fill="none" stroke="black"/>
<path d="M502.49,371.395v -1.89608" fill="none" stroke="black"/>
<path d="M510.736,370.447z" fill="none" stroke="black"/>
<path d="M510.736,370.447v -0.589626" fill="none" stroke="black"/>
<path d="M509.788,369.857h 0.948042" fill="none" stroke="black"/>
<path d="M510.736,370.447v 0.589626" fill="none" stroke="black"/>
<path d="M509.788,371.037h 0.948042" fill="none" stroke="black"/>
<g stroke="black" stroke-width="1" fill="black">
<circle cx="65.4392" cy="364.304" r="1.89608"/>
<circle cx="81.9316" cy="344.621" r="1.89608"/>
<circle cx="98.4241" cy="208.232" r="1.89608"/>
<circle cx="114.917" cy="99.2648" r="1.89608"/>
<circle cx="131.409" cy="106.536" r="1.89608"/>
<circle cx="147.902" cy="149.466" r="1.89608"/>
<circle cx="164.394" cy="226.85" r="1.89608"/>
<circle cx="180.887" cy="246.632" r="1.89608"/>
<circle cx="197.379" cy="303.568" r="1.89608"/>
<circle cx="213.872" cy="309.535" r="1.89608"/>
<circle cx="230.364" cy="328.715" r="1.89608"/>
<circle cx="246.856" cy="337.284" r="1.89608"/>
<circle cx="263.349" cy="355.539" r="1.89608"/>
<circle cx="279.841" cy="356.013" r="1.89608"/>
<circle cx="296.334" cy="352.985" r="1.89608"/>
<circle cx="312.826" cy="361.689" r="1.89608"/>
<circle cx="329.319" cy="361.615" r="1.89608"/>
<circle cx="345.811" cy="365.375" r="1.89608"/>
<circle cx="362.304" cy="363.618" r="1.89608"/>
<circle cx="378.796" cy="367.925" r="1.89608"/>
<circle cx="395.289" cy="368.226" r="1.89608"/>
<circle cx="411.781" cy="369.492" r="1.89608"/>
<circle cx="428.274" cy="369.95" r="1.89608"/>
<circle cx="444.766" cy="371" r="1.89608"/>
<circle cx="461.259" cy="371.012" r="1.89608"/>
<circle cx="477.751" cy="370.602" r="1.89608"/>
<circle cx="494.244" cy="369.59" r="1.89608"/>
<circle cx="510.736" cy="370.447" r="1.89608"/>
</g>
<path d="M57.1929,372.012h 453.543" fill="none" stroke="black"/>
<path d="M57.1929,362.091v 9.92031" fill="none" stroke="black"/>
<path d="M77.8085,367.052v 4.96016" fill="none" stroke="black"/>
<path d="M98.4241,367.052v 4.96016" fill="none" stroke="black"/>
<path d="M119.04,367.052v 4.96016" fill="none" stroke="black"/>
<path d="M139.655,362.091v 9.92031" fill="none" stroke="black"/>
<path d="M160.271,367.052v 4.96016" fill="none" stroke="black"/>
<path d="M180.887,367.052v 4.96016" fill="none" stroke="black"/>
<path d="M201.502,367.052v 4.96016" fill="none" stroke="black"/>
<path d="M222.118,362.091v 9.92031" fill="none" stroke="black"/>
<path d="M242.733,367.052v 4.96016" fill="none" stroke="black"/>
<path d="M263.349,367.052v 4.96016" fill="none" stroke="black"/>
<path d="M283.965,367.052v 4.96016" fill="none" stroke="black"/>
<path d="M304.58,362.091v 9.92031" fill="none" stroke="black"/>
<path d="M325.196,367.052v 4.96016" fill="none" stroke="black"/>
<path d="M345.811,367.052v 4.96016" fill="none" stroke="black"/>
<path d="M366.427,367.052v 4.96016" fill="none" stroke="black"/>
<path d="M387.043,362.091v 9.92031" fill="none" stroke="black"/>
<path d="M407.658,367.052v 4.96016" fill="none" stroke="black"/>
<path d="M428.274,367.052v 4.96016" fill="none" stroke="black"/>
<path d="M448.889,367.052v 4.96016" fill="none" stroke="black"/>
<path d="M469.505,362.091v 9.92031" fill="none" stroke="black"/>
<path d="M469.505,362.091v 9.92031" fill="none" stroke="black"/>
<path d="M490.121,367.052v 4.96016" fill="none" stroke="black"/>
<path d="M510.736,367.052v 4.96016" fill="none" stroke="black"/>
<path d="M57.1929,372.012v -330.677" fill="none" stroke="black"/>
<path d="M70.7992,372.012h -13.6063" fill="none" stroke="black"/>
<path d="M63.9961,364.496h -6.80315" fill="none" stroke="black"/>
<path d="M63.9961,356.981h -6.80315" fill="none" stroke="black"/>
<path d="M63.9961,349.466h -6.80315" fill="none" stroke="black"/>
<path d="M70.7992,341.95h -13.6063" fill="none" stroke="black"/>
<path d="M63.9961,334.435h -6.80315" fill="none" stroke="black"/>
<path d="M63.9961,326.919h -6.80315" fill="none" stroke="black"/>
<path d="M63.9961,319.404h -6.80315" fill="none" stroke="black"/>
<path d="M70.7992,311.889h -13.6063" fill="none" stroke="black"/>
<path d="M63.9961,304.373h -6.80315" fill="none" stroke="black"/>
<path d="M63.9961,296.858h -6.80315" fill="none" stroke="black"/>
<path d="M63.9961,289.342h -6.80315" fill="none" stroke="black"/>
<path d="M70.7992,281.827h -13.6063" fill="none" stroke="black"/>
<path d="M63.9961,274.312h -6.80315" fill="none" stroke="black"/>
<path d="M63.9961,266.796h -6.80315" fill="none" stroke="black"/>
<path d="M63.9961,259.281h -6.80315" fill="none" stroke="black"/>
<path d="M70.7992,251.765h -13.6063" fill="none" stroke="black"/>
<path d="M63.9961,244.25h -6.80315" fill="none" stroke="black"/>
<path d="M63.9961,236.735h -6.80315" fill="none" stroke="black"/>
<path d="M63.9961,229.219h -6.80315" fill="none" stroke="black"/>
<path d="M70.7992,221.704h -13.6063" fill="none" stroke="black"/>
<path d="M63.9961,214.189h -6.80315" fill="none" stroke="black"/>
<path d="M63.9961,206.673h -6.80315" fill="none" stroke="black"/>
<path d="M63.9961,199.158h -6.80315" fill="none" stroke="black"/>
<path d="M70.7992,191.642h -13.6063" fill="none" stroke="black"/>
<path d="M63.9961,184.127h -6.80315" fill="none" stroke="black"/>
<path d="M63.9961,176.612h -6.80315" fill="none" stroke="black"/>
<path d="M63.9961,169.096h -6.80315" fill="none" stroke="black"/>
<path d="M70.7992,161.581h -13.6063" fill="none" stroke="black"/>
<path d="M63.9961,154.065h -6.80315" fill="none" stroke="black"/>
<path d="M63.9961,146.55h -6.80315" fill="none" stroke="black"/>
<path d="M63.9961,139.035h -6.80315" fill="none" stroke="black"/>
<path d="M70.7992,131.519h -13.6063" fill="none" stroke="black"/>
<path d="M63.9961,124.004h -6.80315" fill="none" stroke="black"/>
<path d="M63.9961,116.489h -6.80315" fill="none" stroke="black"/>
<path d="M63.9961,108.973h -6.80315" fill="none" stroke="black"/>
<path d="M70.7992,101.458h -13.6063" fill="none" stroke="black"/>
<path d="M63.9961,93.9423h -6.80315" fill="none" stroke="black"/>
<path d="M63.9961,86.427h -6.80315" fill="none" stroke="black"/>
<path d="M63.9961,78.9116h -6.80315" fill="none" stroke="black"/>
<path d="M70.7992,71.3962h -13.6063" fill="none" stroke="black"/>
<path d="M63.9961,63.8808h -6.80315" fill="none" stroke="black"/>
<path d="M63.9961,56.3654h -6.80315" fill="none" stroke="black"/>
<path d="M63.9961,48.85h -6.80315" fill="none" stroke="black"/>
<path d="M70.7992,41.3346h -13.6063" fill="none" stroke="black"/>
<rect x="340.657" y="90.9362" width="113.386" height="33.0677" fill="white"/>
<path d="M340.657,124.004h 113.386" fill="none" stroke="black"/>
<path d="M454.043,124.004v -33.0677" fill="none" stroke="black"/>
<path d="M454.043,90.9362h -113.386" fill="none" stroke="black"/>
<path d="M340.657,90.9362v 33.0677" fill="none" stroke="black"/>
<text xml:space="preserve" x="368.814" y="98.5964" fill="black" font-size="7.08378" font-family="Helvetica">MC signal region fit ErfExp</text>
<path d="M344.909,96.4475h 19.8425" fill="none" stroke="#0000ff" stroke-width="3" stroke-dasharray=" 3, 3"/>
<text xml:space="preserve" x="399.152" y="109.499" fill="black" font-size="7.08378" font-family="Times">&#0963;</text>
<text xml:space="preserve" x="368.814" y="109.499" fill="black" font-size="7.08378" font-family="Helvetica">Fit Error 1 </text>
<path d="M344.909,111.328h 19.8425v -7.7158h -19.8425z" fill="#00ff00"/>
<path d="M344.909,103.612h 19.8425" fill="none" stroke="white"/>
<path d="M344.909,111.328h 19.8425" fill="none" stroke="white"/>
<path d="M364.752,111.328v -7.7158" fill="none" stroke="white"/>
<path d="M344.909,111.328v -7.7158" fill="none" stroke="white"/>
<text xml:space="preserve" x="400.1" y="120.875" fill="black" font-size="7.08378" font-family="Times">&#0963;</text>
<text xml:space="preserve" x="368.814" y="120.875" fill="black" font-size="7.08378" font-family="Helvetica">Fit Error 2 </text>
<path d="M344.909,122.351h 19.8425v -7.7158h -19.8425z" fill="#ffff00"/>
<path d="M344.909,114.635h 19.8425" fill="none" stroke="white"/>
<path d="M344.909,122.351h 19.8425" fill="none" stroke="white"/>
<path d="M364.752,122.351v -7.7158" fill="none" stroke="white"/>
<path d="M344.909,122.351v -7.7158" fill="none" stroke="white"/>
<text xml:space="preserve" x="169.251" y="19.9089" fill="black" font-size="20.0175" font-family="Helvetica">Background MC (W band)</text></svg>
