<?xml version="1.0" standalone="no"?>
<svg width="567.429" height="413.846" viewBox="0 0 567.429 413.846" xmlns="http://www.w3.org/2000/svg" shape-rendering="crispEdges">
<title>
ErfExp.svg
</title>
<desc>
Creator: ROOT Version 6.10/09
CreationDate: Wed Apr 15 10:55:57 2020</desc>
<defs>
</defs>
<rect x="0.5" y="0" width="566.929" height="413.346" fill="white"/>
<rect x="57.1929" y="41.3346" width="453.543" height="330.677" fill="white"/>
<rect x="57.1929" y="41.3346" width="453.543" height="330.677" fill="none" stroke="black"/>
<rect x="57.1929" y="41.3346" width="453.543" height="330.677" fill="white"/>
<rect x="57.1929" y="41.3346" width="453.543" height="330.677" fill="none" stroke="black"/>
<path d="M57.1929,372.012h 453.543" fill="none" stroke="black"/>
<path d="M61.6834,362.091v 9.92031" fill="none" stroke="black"/>
<path d="M75.7163,367.052v 4.96016" fill="none" stroke="black"/>
<path d="M89.7492,367.052v 4.96016" fill="none" stroke="black"/>
<path d="M103.782,367.052v 4.96016" fill="none" stroke="black"/>
<path d="M117.815,362.091v 9.92031" fill="none" stroke="black"/>
<path d="M131.848,367.052v 4.96016" fill="none" stroke="black"/>
<path d="M145.881,367.052v 4.96016" fill="none" stroke="black"/>
<path d="M159.914,367.052v 4.96016" fill="none" stroke="black"/>
<path d="M173.947,362.091v 9.92031" fill="none" stroke="black"/>
<path d="M187.98,367.052v 4.96016" fill="none" stroke="black"/>
<path d="M202.012,367.052v 4.96016" fill="none" stroke="black"/>
<path d="M216.045,367.052v 4.96016" fill="none" stroke="black"/>
<path d="M230.078,362.091v 9.92031" fill="none" stroke="black"/>
<path d="M244.111,367.052v 4.96016" fill="none" stroke="black"/>
<path d="M258.144,367.052v 4.96016" fill="none" stroke="black"/>
<path d="M272.177,367.052v 4.96016" fill="none" stroke="black"/>
<path d="M286.21,362.091v 9.92031" fill="none" stroke="black"/>
<path d="M300.243,367.052v 4.96016" fill="none" stroke="black"/>
<path d="M314.276,367.052v 4.96016" fill="none" stroke="black"/>
<path d="M328.309,367.052v 4.96016" fill="none" stroke="black"/>
<path d="M342.341,362.091v 9.92031" fill="none" stroke="black"/>
<path d="M356.374,367.052v 4.96016" fill="none" stroke="black"/>
<path d="M370.407,367.052v 4.96016" fill="none" stroke="black"/>
<path d="M384.44,367.052v 4.96016" fill="none" stroke="black"/>
<path d="M398.473,362.091v 9.92031" fill="none" stroke="black"/>
<path d="M412.506,367.052v 4.96016" fill="none" stroke="black"/>
<path d="M426.539,367.052v 4.96016" fill="none" stroke="black"/>
<path d="M440.572,367.052v 4.96016" fill="none" stroke="black"/>
<path d="M454.605,362.091v 9.92031" fill="none" stroke="black"/>
<path d="M468.638,367.052v 4.96016" fill="none" stroke="black"/>
<path d="M482.67,367.052v 4.96016" fill="none" stroke="black"/>
<path d="M496.703,367.052v 4.96016" fill="none" stroke="black"/>
<path d="M510.736,362.091v 9.92031" fill="none" stroke="black"/>
<path d="M61.6834,362.091v 9.92031" fill="none" stroke="black"/>
<text xml:space="preserve" x="50.7462" y="385.379" fill="black" font-size="13.7726" font-family="Helvetica">400</text>
<text xml:space="preserve" x="106.681" y="385.379" fill="black" font-size="13.7726" font-family="Helvetica">600</text>
<text xml:space="preserve" x="162.615" y="385.379" fill="black" font-size="13.7726" font-family="Helvetica">800</text>
<text xml:space="preserve" x="215.232" y="385.379" fill="black" font-size="13.7726" font-family="Helvetica">1000</text>
<text xml:space="preserve" x="271.166" y="385.379" fill="black" font-size="13.7726" font-family="Helvetica">1200</text>
<text xml:space="preserve" x="327.574" y="385.379" fill="black" font-size="13.7726" font-family="Helvetica">1400</text>
<text xml:space="preserve" x="383.509" y="385.379" fill="black" font-size="13.7726" font-family="Helvetica">1600</text>
<text xml:space="preserve" x="439.443" y="385.379" fill="black" font-size="13.7726" font-family="Helvetica">1800</text>
<text xml:space="preserve" x="495.852" y="385.379" fill="black" font-size="13.7726" font-family="Helvetica">2000</text>
<text xml:space="preserve" x="472.151" y="401.496" fill="black" font-size="13.7726" font-family="Helvetica"> (GeV)</text>
<text xml:space="preserve" x="467.411" y="405.762" fill="black" font-size="9.34839" font-family="Times">&#0947;</text>
<text xml:space="preserve" x="465.041" y="405.762" fill="black" font-size="9.34839" font-family="Helvetica">j</text>
<text xml:space="preserve" x="454.612" y="401.496" fill="black" font-size="13.7726" font-family="Helvetica">m</text>
<path d="M57.1929,372.012v -330.677" fill="none" stroke="black"/>
<path d="M70.7992,372.012h -13.6063" fill="none" stroke="black"/>
<path d="M63.9961,362.286h -6.80315" fill="none" stroke="black"/>
<path d="M63.9961,352.56h -6.80315" fill="none" stroke="black"/>
<path d="M63.9961,342.834h -6.80315" fill="none" stroke="black"/>
<path d="M70.7992,333.108h -13.6063" fill="none" stroke="black"/>
<path d="M63.9961,323.383h -6.80315" fill="none" stroke="black"/>
<path d="M63.9961,313.657h -6.80315" fill="none" stroke="black"/>
<path d="M63.9961,303.931h -6.80315" fill="none" stroke="black"/>
<path d="M70.7992,294.205h -13.6063" fill="none" stroke="black"/>
<path d="M63.9961,284.48h -6.80315" fill="none" stroke="black"/>
<path d="M63.9961,274.754h -6.80315" fill="none" stroke="black"/>
<path d="M63.9961,265.028h -6.80315" fill="none" stroke="black"/>
<path d="M70.7992,255.302h -13.6063" fill="none" stroke="black"/>
<path d="M63.9961,245.576h -6.80315" fill="none" stroke="black"/>
<path d="M63.9961,235.851h -6.80315" fill="none" stroke="black"/>
<path d="M63.9961,226.125h -6.80315" fill="none" stroke="black"/>
<path d="M70.7992,216.399h -13.6063" fill="none" stroke="black"/>
<path d="M63.9961,206.673h -6.80315" fill="none" stroke="black"/>
<path d="M63.9961,196.947h -6.80315" fill="none" stroke="black"/>
<path d="M63.9961,187.222h -6.80315" fill="none" stroke="black"/>
<path d="M70.7992,177.496h -13.6063" fill="none" stroke="black"/>
<path d="M63.9961,167.77h -6.80315" fill="none" stroke="black"/>
<path d="M63.9961,158.044h -6.80315" fill="none" stroke="black"/>
<path d="M63.9961,148.318h -6.80315" fill="none" stroke="black"/>
<path d="M70.7992,138.593h -13.6063" fill="none" stroke="black"/>
<path d="M63.9961,128.867h -6.80315" fill="none" stroke="black"/>
<path d="M63.9961,119.141h -6.80315" fill="none" stroke="black"/>
<path d="M63.9961,109.415h -6.80315" fill="none" stroke="black"/>
<path d="M70.7992,99.6894h -13.6063" fill="none" stroke="black"/>
<path d="M63.9961,89.9636h -6.80315" fill="none" stroke="black"/>
<path d="M63.9961,80.2378h -6.80315" fill="none" stroke="black"/>
<path d="M63.9961,70.512h -6.80315" fill="none" stroke="black"/>
<path d="M70.7992,60.7862h -13.6063" fill="none" stroke="black"/>
<path d="M70.7992,60.7862h -13.6063" fill="none" stroke="black"/>
<path d="M63.9961,51.0604h -6.80315" fill="none" stroke="black"/>
<path d="M63.9961,41.3346h -6.80315" fill="none" stroke="black"/>
<text xml:space="preserve" x="46.9541" y="376.373" fill="black" font-size="13.7726" font-family="Helvetica">0</text>
<text xml:space="preserve" x="32.2594" y="337.503" fill="black" font-size="13.7726" font-family="Helvetica">200</text>
<text xml:space="preserve" x="32.2594" y="298.633" fill="black" font-size="13.7726" font-family="Helvetica">400</text>
<text xml:space="preserve" x="32.2594" y="259.764" fill="black" font-size="13.7726" font-family="Helvetica">600</text>
<text xml:space="preserve" x="32.2594" y="220.894" fill="black" font-size="13.7726" font-family="Helvetica">800</text>
<text xml:space="preserve" x="25.1491" y="182.024" fill="black" font-size="13.7726" font-family="Helvetica">1000</text>
<text xml:space="preserve" x="25.1491" y="143.154" fill="black" font-size="13.7726" font-family="Helvetica">1200</text>
<text xml:space="preserve" x="25.1491" y="104.285" fill="black" font-size="13.7726" font-family="Helvetica">1400</text>
<text xml:space="preserve" x="25.1491" y="65.4149" fill="black" font-size="13.7726" font-family="Helvetica">1600</text>
<g transform="rotate(-90,23.727,137.94)">
<text xml:space="preserve" x="23.727" y="137.94" fill="black" font-size="13.7726" font-family="Helvetica">Events / 20 GeV</text>
</g>
<path d="M67.2966,359.87h -5.61316" fill="none" stroke="black"/>
<path d="M61.6834,360.818v -1.89608" fill="none" stroke="black"/>
<path d="M67.2966,359.87h 5.61316" fill="none" stroke="black"/>
<path d="M72.9098,360.818v -1.89608" fill="none" stroke="black"/>
<path d="M67.2966,359.87v -2.12036" fill="none" stroke="black"/>
<path d="M66.3486,357.75h 1.89608" fill="none" stroke="black"/>
<path d="M67.2966,359.87v 2.12036" fill="none" stroke="black"/>
<path d="M66.3486,361.991h 1.89608" fill="none" stroke="black"/>
<path d="M78.5229,312.667h -5.61316" fill="none" stroke="black"/>
<path d="M72.9098,313.615v -1.89608" fill="none" stroke="black"/>
<path d="M78.5229,312.667h 5.61316" fill="none" stroke="black"/>
<path d="M84.1361,313.615v -1.89608" fill="none" stroke="black"/>
<path d="M78.5229,312.667v -7.36603" fill="none" stroke="black"/>
<path d="M77.5749,305.301h 1.89608" fill="none" stroke="black"/>
<path d="M78.5229,312.667v 7.36603" fill="none" stroke="black"/>
<path d="M77.5749,320.033h 1.89608" fill="none" stroke="black"/>
<path d="M145.881,123.53h -5.61316" fill="none" stroke="black"/>
<path d="M140.268,124.478v -1.89608" fill="none" stroke="black"/>
<path d="M145.881,123.53h 5.61316" fill="none" stroke="black"/>
<path d="M151.494,124.478v -1.89608" fill="none" stroke="black"/>
<path d="M145.881,123.53v -15.3194" fill="none" stroke="black"/>
<path d="M144.933,108.21h 1.89608" fill="none" stroke="black"/>
<path d="M145.881,123.53v 15.3194" fill="none" stroke="black"/>
<path d="M144.933,138.849h 1.89608" fill="none" stroke="black"/>
<path d="M157.107,179.885h -5.61316" fill="none" stroke="black"/>
<path d="M151.494,180.834v -1.89608" fill="none" stroke="black"/>
<path d="M157.107,179.885h 5.61316" fill="none" stroke="black"/>
<path d="M162.72,180.834v -1.89608" fill="none" stroke="black"/>
<path d="M157.107,179.885v -13.4971" fill="none" stroke="black"/>
<path d="M156.159,166.388h 1.89608" fill="none" stroke="black"/>
<path d="M157.107,179.885v 13.4971" fill="none" stroke="black"/>
<path d="M156.159,193.383h 1.89608" fill="none" stroke="black"/>
<path d="M168.333,233.771h -5.61316" fill="none" stroke="black"/>
<path d="M162.72,234.719v -1.89608" fill="none" stroke="black"/>
<path d="M168.333,233.771h 5.61316" fill="none" stroke="black"/>
<path d="M173.947,234.719v -1.89608" fill="none" stroke="black"/>
<path d="M168.333,233.771v -10.9154" fill="none" stroke="black"/>
<path d="M167.385,222.856h 1.89608" fill="none" stroke="black"/>
<path d="M168.333,233.771v 10.9154" fill="none" stroke="black"/>
<path d="M167.385,244.686h 1.89608" fill="none" stroke="black"/>
<path d="M179.56,274.637h -5.61316" fill="none" stroke="black"/>
<path d="M173.947,275.585v -1.89608" fill="none" stroke="black"/>
<path d="M179.56,274.637h 5.61316" fill="none" stroke="black"/>
<path d="M185.173,275.585v -1.89608" fill="none" stroke="black"/>
<path d="M179.56,274.637v -8.39092" fill="none" stroke="black"/>
<path d="M178.612,266.246h 1.89608" fill="none" stroke="black"/>
<path d="M179.56,274.637v 8.39092" fill="none" stroke="black"/>
<path d="M178.612,283.028h 1.89608" fill="none" stroke="black"/>
<path d="M190.786,297.33h -5.61316" fill="none" stroke="black"/>
<path d="M185.173,298.278v -1.89608" fill="none" stroke="black"/>
<path d="M190.786,297.33h 5.61316" fill="none" stroke="black"/>
<path d="M196.399,298.278v -1.89608" fill="none" stroke="black"/>
<path d="M190.786,297.33v -7.09589" fill="none" stroke="black"/>
<path d="M189.838,290.234h 1.89608" fill="none" stroke="black"/>
<path d="M190.786,297.33v 7.09589" fill="none" stroke="black"/>
<path d="M189.838,304.426h 1.89608" fill="none" stroke="black"/>
<path d="M202.012,320.553h -5.61316" fill="none" stroke="black"/>
<path d="M196.399,321.501v -1.89608" fill="none" stroke="black"/>
<path d="M202.012,320.553h 5.61316" fill="none" stroke="black"/>
<path d="M207.626,321.501v -1.89608" fill="none" stroke="black"/>
<path d="M202.012,320.553v -5.34018" fill="none" stroke="black"/>
<path d="M201.064,315.213h 1.89608" fill="none" stroke="black"/>
<path d="M202.012,320.553v 5.34018" fill="none" stroke="black"/>
<path d="M201.064,325.893h 1.89608" fill="none" stroke="black"/>
<path d="M213.239,329.986h -5.61316" fill="none" stroke="black"/>
<path d="M207.626,330.934v -1.89608" fill="none" stroke="black"/>
<path d="M213.239,329.986h 5.61316" fill="none" stroke="black"/>
<path d="M218.852,330.934v -1.89608" fill="none" stroke="black"/>
<path d="M213.239,329.986v -4.96163" fill="none" stroke="black"/>
<path d="M212.291,325.024h 1.89608" fill="none" stroke="black"/>
<path d="M213.239,329.986v 4.96163" fill="none" stroke="black"/>
<path d="M212.291,334.948h 1.89608" fill="none" stroke="black"/>
<path d="M224.465,342.073h -5.61316" fill="none" stroke="black"/>
<path d="M218.852,343.021v -1.89608" fill="none" stroke="black"/>
<path d="M224.465,342.073h 5.61316" fill="none" stroke="black"/>
<path d="M230.078,343.021v -1.89608" fill="none" stroke="black"/>
<path d="M224.465,342.073v -4.04151" fill="none" stroke="black"/>
<path d="M223.517,338.032h 1.89608" fill="none" stroke="black"/>
<path d="M224.465,342.073v 4.04151" fill="none" stroke="black"/>
<path d="M223.517,346.115h 1.89608" fill="none" stroke="black"/>
<path d="M235.691,348.993h -5.61316" fill="none" stroke="black"/>
<path d="M230.078,349.941v -1.89608" fill="none" stroke="black"/>
<path d="M235.691,348.993h 5.61316" fill="none" stroke="black"/>
<path d="M241.305,349.941v -1.89608" fill="none" stroke="black"/>
<path d="M235.691,348.993v -3.49323" fill="none" stroke="black"/>
<path d="M234.743,345.5h 1.89608" fill="none" stroke="black"/>
<path d="M235.691,348.993v 3.49323" fill="none" stroke="black"/>
<path d="M234.743,352.486h 1.89608" fill="none" stroke="black"/>
<path d="M246.918,351.946h -5.61316" fill="none" stroke="black"/>
<path d="M241.305,352.894v -1.89608" fill="none" stroke="black"/>
<path d="M246.918,351.946h 5.61316" fill="none" stroke="black"/>
<path d="M252.531,352.894v -1.89608" fill="none" stroke="black"/>
<path d="M246.918,351.946v -3.12687" fill="none" stroke="black"/>
<path d="M245.97,348.819h 1.89608" fill="none" stroke="black"/>
<path d="M246.918,351.946v 3.12687" fill="none" stroke="black"/>
<path d="M245.97,355.073h 1.89608" fill="none" stroke="black"/>
<path d="M258.144,358.615h -5.61316" fill="none" stroke="black"/>
<path d="M252.531,359.563v -1.89608" fill="none" stroke="black"/>
<path d="M258.144,358.615h 5.61316" fill="none" stroke="black"/>
<path d="M263.757,359.563v -1.89608" fill="none" stroke="black"/>
<path d="M258.144,358.615v -2.52921" fill="none" stroke="black"/>
<path d="M257.196,356.086h 1.89608" fill="none" stroke="black"/>
<path d="M258.144,358.615v 2.52921" fill="none" stroke="black"/>
<path d="M257.196,361.144h 1.89608" fill="none" stroke="black"/>
<path d="M269.37,357.626h -5.61316" fill="none" stroke="black"/>
<path d="M263.757,358.574v -1.89608" fill="none" stroke="black"/>
<path d="M269.37,357.626h 5.61316" fill="none" stroke="black"/>
<path d="M274.984,358.574v -1.89608" fill="none" stroke="black"/>
<path d="M269.37,357.626v -2.46844" fill="none" stroke="black"/>
<path d="M268.422,355.158h 1.89608" fill="none" stroke="black"/>
<path d="M269.37,357.626v 2.46844" fill="none" stroke="black"/>
<path d="M268.422,360.095h 1.89608" fill="none" stroke="black"/>
<path d="M280.597,359.338h -5.61316" fill="none" stroke="black"/>
<path d="M274.984,360.286v -1.89608" fill="none" stroke="black"/>
<path d="M280.597,359.338h 5.61316" fill="none" stroke="black"/>
<path d="M286.21,360.286v -1.89608" fill="none" stroke="black"/>
<path d="M280.597,359.338v -2.35979" fill="none" stroke="black"/>
<path d="M279.649,356.978h 1.89608" fill="none" stroke="black"/>
<path d="M280.597,359.338v 2.35979" fill="none" stroke="black"/>
<path d="M279.649,361.697h 1.89608" fill="none" stroke="black"/>
<path d="M291.823,364.535h -5.61316" fill="none" stroke="black"/>
<path d="M286.21,365.483v -1.89608" fill="none" stroke="black"/>
<path d="M291.823,364.535h 5.61316" fill="none" stroke="black"/>
<path d="M297.436,365.483v -1.89608" fill="none" stroke="black"/>
<path d="M291.823,364.535v -1.73998" fill="none" stroke="black"/>
<path d="M290.875,362.795h 1.89608" fill="none" stroke="black"/>
<path d="M291.823,364.535v 1.73998" fill="none" stroke="black"/>
<path d="M290.875,366.275h 1.89608" fill="none" stroke="black"/>
<path d="M303.049,366.049h -5.61316" fill="none" stroke="black"/>
<path d="M297.436,366.997v -1.89608" fill="none" stroke="black"/>
<path d="M303.049,366.049h 5.61316" fill="none" stroke="black"/>
<path d="M308.662,366.997v -1.89608" fill="none" stroke="black"/>
<path d="M303.049,366.049v -1.4678" fill="none" stroke="black"/>
<path d="M302.101,364.582h 1.89608" fill="none" stroke="black"/>
<path d="M303.049,366.049v 1.4678" fill="none" stroke="black"/>
<path d="M302.101,367.517h 1.89608" fill="none" stroke="black"/>
<path d="M314.276,368.158h -5.61316" fill="none" stroke="black"/>
<path d="M308.662,369.106v -1.89608" fill="none" stroke="black"/>
<path d="M314.276,368.158h 5.61316" fill="none" stroke="black"/>
<path d="M319.889,369.106v -1.89608" fill="none" stroke="black"/>
<path d="M314.276,368.158v -1.1544" fill="none" stroke="black"/>
<path d="M313.328,367.004h 1.89608" fill="none" stroke="black"/>
<path d="M314.276,368.158v 1.1544" fill="none" stroke="black"/>
<path d="M313.328,369.312h 1.89608" fill="none" stroke="black"/>
<path d="M325.502,369.608h -5.61316" fill="none" stroke="black"/>
<path d="M319.889,370.556v -1.89608" fill="none" stroke="black"/>
<path d="M325.502,369.608h 5.61316" fill="none" stroke="black"/>
<path d="M331.115,370.556v -1.89608" fill="none" stroke="black"/>
<path d="M325.502,369.608v -0.827323" fill="none" stroke="black"/>
<path d="M324.554,368.78h 1.89608" fill="none" stroke="black"/>
<path d="M325.502,369.608v 0.827323" fill="none" stroke="black"/>
<path d="M324.554,370.435h 1.89608" fill="none" stroke="black"/>
<path d="M336.728,369.968h -5.61316" fill="none" stroke="black"/>
<path d="M331.115,370.916v -1.89608" fill="none" stroke="black"/>
<path d="M336.728,369.968h 5.61316" fill="none" stroke="black"/>
<path d="M342.341,370.916v -1.89608" fill="none" stroke="black"/>
<path d="M336.728,369.968v -0.772579" fill="none" stroke="black"/>
<path d="M335.78,369.195h 1.89608" fill="none" stroke="black"/>
<path d="M336.728,369.968v 0.772579" fill="none" stroke="black"/>
<path d="M335.78,370.74h 1.89608" fill="none" stroke="black"/>
<path d="M347.955,367.309h -5.61316" fill="none" stroke="black"/>
<path d="M342.341,368.257v -1.89608" fill="none" stroke="black"/>
<path d="M347.955,367.309h 5.61316" fill="none" stroke="black"/>
<path d="M353.568,368.257v -1.89608" fill="none" stroke="black"/>
<path d="M347.955,367.309v -1.25425" fill="none" stroke="black"/>
<path d="M347.007,366.055h 1.89608" fill="none" stroke="black"/>
<path d="M347.955,367.309v 1.25425" fill="none" stroke="black"/>
<path d="M347.007,368.564h 1.89608" fill="none" stroke="black"/>
<path d="M359.181,368.508h -5.61316" fill="none" stroke="black"/>
<path d="M353.568,369.456v -1.89608" fill="none" stroke="black"/>
<path d="M359.181,368.508h 5.61316" fill="none" stroke="black"/>
<path d="M364.794,369.456v -1.89608" fill="none" stroke="black"/>
<path d="M359.181,368.508v -1.01154" fill="none" stroke="black"/>
<path d="M358.233,367.496h 1.89608" fill="none" stroke="black"/>
<path d="M359.181,368.508v 1.01154" fill="none" stroke="black"/>
<path d="M358.233,369.519h 1.89608" fill="none" stroke="black"/>
<path d="M370.407,369.336h -5.61316" fill="none" stroke="black"/>
<path d="M364.794,370.284v -1.89608" fill="none" stroke="black"/>
<path d="M370.407,369.336h 5.61316" fill="none" stroke="black"/>
<path d="M376.02,370.284v -1.89608" fill="none" stroke="black"/>
<path d="M370.407,369.336v -0.876789" fill="none" stroke="black"/>
<path d="M369.459,368.459h 1.89608" fill="none" stroke="black"/>
<path d="M370.407,369.336v 0.876789" fill="none" stroke="black"/>
<path d="M369.459,370.213h 1.89608" fill="none" stroke="black"/>
<path d="M381.634,369.676h -5.61316" fill="none" stroke="black"/>
<path d="M376.02,370.624v -1.89608" fill="none" stroke="black"/>
<path d="M381.634,369.676h 5.61316" fill="none" stroke="black"/>
<path d="M387.247,370.624v -1.89608" fill="none" stroke="black"/>
<path d="M381.634,369.676v -0.825921" fill="none" stroke="black"/>
<path d="M380.686,368.85h 1.89608" fill="none" stroke="black"/>
<path d="M381.634,369.676v 0.825921" fill="none" stroke="black"/>
<path d="M380.686,370.502h 1.89608" fill="none" stroke="black"/>
<path d="M392.86,371.088h -5.61316" fill="none" stroke="black"/>
<path d="M387.247,372.012v -1.87172" fill="none" stroke="black"/>
<path d="M392.86,371.088h 5.61316" fill="none" stroke="black"/>
<path d="M398.473,372.012v -1.87172" fill="none" stroke="black"/>
<path d="M392.86,371.088v -0.507099" fill="none" stroke="black"/>
<path d="M391.912,370.581h 1.89608" fill="none" stroke="black"/>
<path d="M392.86,371.088v 0.507099" fill="none" stroke="black"/>
<path d="M391.912,371.595h 1.89608" fill="none" stroke="black"/>
<path d="M404.086,370.552h -5.61316" fill="none" stroke="black"/>
<path d="M398.473,371.5v -1.89608" fill="none" stroke="black"/>
<path d="M404.086,370.552h 5.61316" fill="none" stroke="black"/>
<path d="M409.699,371.5v -1.89608" fill="none" stroke="black"/>
<path d="M404.086,370.552v -0.652948" fill="none" stroke="black"/>
<path d="M403.138,369.899h 1.89608" fill="none" stroke="black"/>
<path d="M404.086,370.552v 0.652948" fill="none" stroke="black"/>
<path d="M403.138,371.205h 1.89608" fill="none" stroke="black"/>
<path d="M415.312,370.518h -5.61316" fill="none" stroke="black"/>
<path d="M409.699,371.466v -1.89608" fill="none" stroke="black"/>
<path d="M415.312,370.518h 5.61316" fill="none" stroke="black"/>
<path d="M420.926,371.466v -1.89608" fill="none" stroke="black"/>
<path d="M415.312,370.518v -0.653835" fill="none" stroke="black"/>
<path d="M414.364,369.864h 1.89608" fill="none" stroke="black"/>
<path d="M415.312,370.518v 0.653835" fill="none" stroke="black"/>
<path d="M414.364,371.171h 1.89608" fill="none" stroke="black"/>
<path d="M426.539,371.428h -5.61316" fill="none" stroke="black"/>
<path d="M420.926,372.012v -1.53206" fill="none" stroke="black"/>
<path d="M426.539,371.428h 5.61316" fill="none" stroke="black"/>
<path d="M432.152,372.012v -1.53206" fill="none" stroke="black"/>
<path d="M426.539,371.428v -0.412961" fill="none" stroke="black"/>
<path d="M425.591,371.015h 1.89608" fill="none" stroke="black"/>
<path d="M426.539,371.428v 0.412961" fill="none" stroke="black"/>
<path d="M425.591,371.841h 1.89608" fill="none" stroke="black"/>
<path d="M437.765,371.72h -5.61316" fill="none" stroke="black"/>
<path d="M432.152,372.012v -1.24005" fill="none" stroke="black"/>
<path d="M437.765,371.72h 5.61316" fill="none" stroke="black"/>
<path d="M443.378,372.012v -1.24005" fill="none" stroke="black"/>
<path d="M437.765,371.72v -0.292007" fill="none" stroke="black"/>
<path d="M436.817,371.428h 1.89608" fill="none" stroke="black"/>
<path d="M437.765,371.72v 0.292007" fill="none" stroke="black"/>
<path d="M436.817,372.012h 1.89608" fill="none" stroke="black"/>
<path d="M448.991,370.538h -5.61316" fill="none" stroke="black"/>
<path d="M443.378,371.486v -1.89608" fill="none" stroke="black"/>
<path d="M448.991,370.538h 5.61316" fill="none" stroke="black"/>
<path d="M454.605,371.486v -1.89608" fill="none" stroke="black"/>
<path d="M448.991,370.538v -0.65309" fill="none" stroke="black"/>
<path d="M448.043,369.885h 1.89608" fill="none" stroke="black"/>
<path d="M448.991,370.538v 0.65309" fill="none" stroke="black"/>
<path d="M448.043,371.191h 1.89608" fill="none" stroke="black"/>
<path d="M460.218,370.26h -5.61316" fill="none" stroke="black"/>
<path d="M454.605,371.208v -1.89608" fill="none" stroke="black"/>
<path d="M460.218,370.26h 5.61316" fill="none" stroke="black"/>
<path d="M465.831,371.208v -1.89608" fill="none" stroke="black"/>
<path d="M460.218,370.26v -0.715269" fill="none" stroke="black"/>
<path d="M459.27,369.544h 1.89608" fill="none" stroke="black"/>
<path d="M460.218,370.26v 0.715269" fill="none" stroke="black"/>
<path d="M459.27,370.975h 1.89608" fill="none" stroke="black"/>
<path d="M471.444,371.706h -5.61316" fill="none" stroke="black"/>
<path d="M465.831,372.012v -1.25367" fill="none" stroke="black"/>
<path d="M471.444,371.706h 5.61316" fill="none" stroke="black"/>
<path d="M477.057,372.012v -1.25367" fill="none" stroke="black"/>
<path d="M471.444,371.706v -0.292325" fill="none" stroke="black"/>
<path d="M470.496,371.414h 1.89608" fill="none" stroke="black"/>
<path d="M471.444,371.706v 0.305623" fill="none" stroke="black"/>
<path d="M470.496,372.012h 1.89608" fill="none" stroke="black"/>
<path d="M482.67,371.72h -5.61316" fill="none" stroke="black"/>
<path d="M477.057,372.012v -1.24005" fill="none" stroke="black"/>
<path d="M482.67,371.72h 5.61316" fill="none" stroke="black"/>
<path d="M488.284,372.012v -1.24005" fill="none" stroke="black"/>
<path d="M482.67,371.72v -0.292007" fill="none" stroke="black"/>
<path d="M481.722,371.428h 1.89608" fill="none" stroke="black"/>
<path d="M482.67,371.72v 0.292007" fill="none" stroke="black"/>
<path d="M481.722,372.012h 1.89608" fill="none" stroke="black"/>
<path d="M493.897,371.72h -5.61316" fill="none" stroke="black"/>
<path d="M488.284,372.012v -1.24005" fill="none" stroke="black"/>
<path d="M493.897,371.72h 5.61316" fill="none" stroke="black"/>
<path d="M499.51,372.012v -1.24005" fill="none" stroke="black"/>
<path d="M493.897,371.72v -0.292007" fill="none" stroke="black"/>
<path d="M492.949,371.428h 1.89608" fill="none" stroke="black"/>
<path d="M493.897,371.72v 0.292007" fill="none" stroke="black"/>
<path d="M492.949,372.012h 1.89608" fill="none" stroke="black"/>
<path d="M505.123,372.012h -5.61316" fill="none" stroke="black"/>
<path d="M499.51,372.012v -0.948042" fill="none" stroke="black"/>
<path d="M505.123,372.012h 5.61316" fill="none" stroke="black"/>
<path d="M510.736,372.012v -0.948042" fill="none" stroke="black"/>
<g stroke="black" stroke-width="1" fill="black">
<circle cx="67.2966" cy="359.87" r="1.89608"/>
<circle cx="78.5229" cy="312.667" r="1.89608"/>
</g>
<g stroke="black" stroke-width="1" fill="black">
<circle cx="145.881" cy="123.53" r="1.89608"/>
<circle cx="157.107" cy="179.885" r="1.89608"/>
<circle cx="168.333" cy="233.771" r="1.89608"/>
<circle cx="179.56" cy="274.637" r="1.89608"/>
<circle cx="190.786" cy="297.33" r="1.89608"/>
<circle cx="202.012" cy="320.553" r="1.89608"/>
<circle cx="213.239" cy="329.986" r="1.89608"/>
<circle cx="224.465" cy="342.073" r="1.89608"/>
<circle cx="235.691" cy="348.993" r="1.89608"/>
<circle cx="246.918" cy="351.946" r="1.89608"/>
<circle cx="258.144" cy="358.615" r="1.89608"/>
<circle cx="269.37" cy="357.626" r="1.89608"/>
<circle cx="280.597" cy="359.338" r="1.89608"/>
<circle cx="291.823" cy="364.535" r="1.89608"/>
<circle cx="303.049" cy="366.049" r="1.89608"/>
<circle cx="314.276" cy="368.158" r="1.89608"/>
<circle cx="325.502" cy="369.608" r="1.89608"/>
<circle cx="336.728" cy="369.968" r="1.89608"/>
<circle cx="347.955" cy="367.309" r="1.89608"/>
<circle cx="359.181" cy="368.508" r="1.89608"/>
<circle cx="370.407" cy="369.336" r="1.89608"/>
<circle cx="381.634" cy="369.676" r="1.89608"/>
<circle cx="392.86" cy="371.088" r="1.89608"/>
<circle cx="404.086" cy="370.552" r="1.89608"/>
<circle cx="415.312" cy="370.518" r="1.89608"/>
<circle cx="426.539" cy="371.428" r="1.89608"/>
<circle cx="437.765" cy="371.72" r="1.89608"/>
<circle cx="448.991" cy="370.538" r="1.89608"/>
<circle cx="460.218" cy="370.26" r="1.89608"/>
<circle cx="471.444" cy="371.706" r="1.89608"/>
<circle cx="482.67" cy="371.72" r="1.89608"/>
<circle cx="493.897" cy="371.72" r="1.89608"/>
<circle cx="505.123" cy="372.012" r="1.89608"/>
</g>
<path d="M61.6834,370.858l 4.49053, -3.40366l 2.24526, -3.90297l 2.24526, -6.55463l 2.24526, -10.472l 1.12263, -7.17398l 1.12263, -8.73801l 1.12263, -10.5089l 1.12263, -12.4788l 1.12263, -14.6295l 1.12263, -16.9316l 1.12263, -19.3437l 1.12263,
 -21.8129l 1.12263, -24.2754l 1.12263, -26.6586l 1.12263, -28.8838l 1.12263, -30.8695l 2.24526, -66.3424l 0.537956, -16.5429" fill="none" stroke="#0000ff" stroke-width="3" stroke-dasharray=" 3, 3"/>
<path d="M135.441,41.3346l 0.336079, 3.19029" fill="none" stroke="#0000ff" stroke-width="3" stroke-dasharray=" 3, 3"/>
<path d="M135.777,44.5249l 2.24526, 19.938l 4.49053, 36.0971l 4.49053, 31.6033l 4.49053, 27.6946l 4.49053, 24.2935l 4.49053, 21.3314l 4.49053, 18.7492l 4.49053, 16.4962l 4.49053, 14.5283l 4.49053, 12.8081l 4.49053, 11.3027l 4.49053, 9.98422l 4.49053,
 8.8283l 4.49053, 7.81395l 4.49053, 6.92299l 4.49053, 6.13968l 4.49053, 5.45037l 4.49053, 4.84321l 4.49053, 4.30792l 4.49053, 3.83554l 4.49053, 3.4183l 4.49053, 3.04943l 4.49053, 2.723l 4.49053, 2.43388l 4.49053, 2.17757l 4.49053, 1.95013l 4.49053,
 1.74813l 4.49053, 1.56856l 4.49053, 1.40878l 4.49053, 1.26649l 4.49053, 1.13965l 4.49053, 1.02649l 4.49053, 0.925445l 4.49053, 0.83513l 4.49053, 0.754337l 4.49053, 0.681998l 4.49053, 0.617171l 4.49053, 0.559024l 4.49053, 0.506824l 4.49053, 0.459921l
 4.49053, 0.417741l 4.49053, 0.379776l 4.49053, 0.345574l 4.49053, 0.314736l 4.49053, 0.286907l 4.49053, 0.261772l 4.49053, 0.239051l 4.49053, 0.218494l 4.49053, 0.19988l 4.49053, 0.183011l 4.49053, 0.16771l 4.49053, 0.153819l 4.49053, 0.141199l
 4.49053, 0.129724l 4.49053, 0.11928l 4.49053, 0.109768l 4.49053, 0.101097l 4.49053, 0.0931858l 4.49053, 0.0859626l 4.49053, 0.0793619l 4.49053, 0.073325l 4.49053, 0.0677994l 4.49053, 0.0627376l 4.49053, 0.0580969l 4.49053, 0.0538387l 4.49053,
 0.0499285l 4.49053, 0.0463349l 4.49053, 0.0430294l 4.49053, 0.0399866l 4.49053, 0.0371833l 4.49053, 0.0345985l 4.49053, 0.0322132l 4.49053, 0.0300102l 4.49053, 0.027974l 4.49053, 0.0260902l 4.49053, 0.024346l 4.49053, 0.0227296l 4.49053, 0.0212305l
 4.49053, 0.0198389l 4.49053, 0.0185459l 4.49053, 0.0173435l 4.49053, 0.0162243l 4.49053, 0.0151816l 4.49053, 0.0142091" fill="none" stroke="#0000ff" stroke-width="3" stroke-dasharray=" 3, 3"/>
<path d="M61.6834,371.162l 4.49053, -2.79292l 2.24526, -3.36359l 2.24526, -5.84992l 2.24526, -9.59631l 1.12263, -6.63415l 1.12263, -8.22203l 1.12263, -10.0597l 1.12263, -11.8736l 1.12263, -14.1014l 1.12263, -16.4065l 1.12263, -18.8281l 1.12263,
 -21.4014l 1.12263, -23.9308l 1.12263, -26.1282l 1.12263, -28.5671l 1.12263, -30.3632l 2.24526, -65.2593l 0.873816, -26.4488h 45.4951l 0.781617, 7.35036l 2.24526, 20.0122l 4.49053, 36.5953l 4.49053, 31.8179l 4.49053, 28.0442l 4.49053, 24.4311l
 4.49053, 21.4343l 4.49053, 18.6216l 4.49053, 16.3375l 4.49053, 14.2518l 4.49053, 12.5898l 4.49053, 10.9685l 4.49053, 9.68387l 4.49053, 8.49131l 4.49053, 7.54952l 4.49053, 6.64941l 4.49053, 5.8367l 4.49053, 5.17037l 4.49053, 4.58301l 4.49053,
 4.06553l 4.49053, 3.60648l 4.49053, 3.22677l 4.49053, 2.84562l 4.49053, 2.56504l 4.49053, 2.28071l 4.49053, 2.04312l 4.49053, 1.82293l 4.49053, 1.6329l 4.49053, 1.47654l 4.49053, 1.33439l 4.49053, 1.20133l 4.49053, 1.096l 4.49053, 0.995984l 4.49053,
 0.886159l 4.49053, 0.801189l 4.49053, 0.73525l 4.49053, 0.664856l 4.49053, 0.607336l 4.49053, 0.549747l 4.49053, 0.505165l 4.49053, 0.452913l 4.49053, 0.420098l 4.49053, 0.383709l 4.49053, 0.347079l 4.49053, 0.316841l 4.49053, 0.288163l 4.49053,
 0.260188l 4.49053, 0.234749l 4.49053, 0.212248l 4.49053, 0.196734l 4.49053, 0.183102l 4.49053, 0.163173l 4.49053, 0.147236l 4.49053, 0.13646l 4.49053, 0.122127l 4.49053, 0.114104l 4.49053, 0.105769l 4.49053, 0.0932945l 4.49053, 0.0877326l 4.49053,
 0.0783094l 4.49053, 0.0720638l 4.49053, 0.066842l 4.49053, 0.0613122l 4.49053, 0.057234l 4.49053, 0.0522809l 4.49053, 0.0480881l 4.49053, 0.0421693l 4.49053, 0.0405368l 4.49053, 0.0373463l 4.49053, 0.0356485l 4.49053, 0.0311595l 4.49053, 0.0287461l
 4.49053, 0.0267373l 4.49053, 0.0248984l 4.49053, 0.0230008l 4.49053, 0.0212605l 4.49053, 0.0196636l 4.49053, 0.0181974l 4.49053, 0.0164833l 4.49053, 0.0152738l 4.49053, 0.0142921l 4.49053, 0.0132643l 4.49053, 0.0123176l 4.49053, 0.0114653l 4.49053,
 0.0108954v -0.725661l -4.49053, -0.0103978l -4.49053, -0.0119569l -4.49053, -0.0144374l -4.49053, -0.0155094l -4.49053, -0.0160154l -4.49053, -0.017333l -4.49053, -0.0193849l -4.49053, -0.0214626l -4.49053, -0.0227003l -4.49053, -0.0247663l
 -4.49053, -0.0277325l -4.49053, -0.0311648l -4.49053, -0.0325618l -4.49053, -0.0350693l -4.49053, -0.0379102l -4.49053, -0.0409525l -4.49053, -0.0444695l -4.49053, -0.0474596l -4.49053, -0.0511701l -4.49053, -0.0542452l -4.49053, -0.0580736l
 -4.49053, -0.0654214l -4.49053, -0.0683618l -4.49053, -0.0720849l -4.49053, -0.0789948l -4.49053, -0.0871596l -4.49053, -0.0941362l -4.49053, -0.0998236l -4.49053, -0.117898l -4.49053, -0.121328l -4.49053, -0.129588l -4.49053, -0.140241l -4.49053,
 -0.152878l -4.49053, -0.168687l -4.49053, -0.180389l -4.49053, -0.196253l -4.49053, -0.215427l -4.49053, -0.233837l -4.49053, -0.25938l -4.49053, -0.28782l -4.49053, -0.303701l -4.49053, -0.344563l -4.49053, -0.368382l -4.49053, -0.41719l -4.49053,
 -0.457579l -4.49053, -0.508013l -4.49053, -0.56379l -4.49053, -0.630355l -4.49053, -0.681958l -4.49053, -0.768309l -4.49053, -0.871502l -4.49053, -0.968849l -4.49053, -1.07104l -4.49053, -1.20405l -4.49053, -1.36054l -4.49053, -1.48397l -4.49053,
 -1.68858l -4.49053, -1.87371l -4.49053, -2.07757l -4.49053, -2.32977l -4.49053, -2.5869l -4.49053, -2.89128l -4.49053, -3.28309l -4.49053, -3.63412l -4.49053, -4.07028l -4.49053, -4.54187l -4.49053, -5.09583l -4.49053, -5.75156l -4.49053, -6.42781l
 -4.49053, -7.26736l -4.49053, -8.13562l -4.49053, -9.10347l -4.49053, -10.3423l -4.49053, -11.6488l -4.49053, -13.1247l -4.49053, -14.7086l -4.49053, -16.5669l -4.49053, -18.7616l -4.49053, -21.2945l -4.49053, -23.967l -4.49053, -27.2364l -4.49053,
 -31.2108l -4.49053, -35.7497l -2.13234, -19.0029h -47.0496l -0.21387, 6.69375l -2.24526, 67.6408l -1.12263, 31.1529l -1.12263, 29.303l -1.12263, 26.9862l -1.12263, 24.8025l -1.12263, 22.312l -1.12263, 19.6984l -1.12263, 17.2895l -1.12263, 15.0744l
 -1.12263, 12.9648l -1.12263, 11.0535l -1.12263, 9.25143l -1.12263, 7.66435l -2.24526, 11.403l -2.24526, 7.28973l -2.24526, 4.47699l -4.49053, 4.0907z" fill="#ffff00"/>
<path d="M61.6834,371.058l 4.49053, -3.02582l 2.24526, -3.58064l 2.24526, -6.12908l 2.24526, -9.97717l 1.12263, -6.83321l 1.12263, -8.48396l 1.12263, -10.1551l 1.12263, -12.1851l 1.12263, -14.4666l 1.12263, -16.7054l 1.12263, -19.2755l 1.12263,
 -21.4836l 1.12263, -24.1735l 1.12263, -26.3662l 1.12263, -28.63l 1.12263, -30.9844l 2.24526, -65.8693l 0.700156, -21.3991h 45.8996l 0.550824, 5.20241l 2.24526, 20.1029l 4.49053, 36.2917l 4.49053, 31.8196l 4.49053, 27.7105l 4.49053, 24.3725l 4.49053,
 21.2946l 4.49053, 18.7343l 4.49053, 16.4767l 4.49053, 14.4324l 4.49053, 12.6812l 4.49053, 11.1213l 4.49053, 9.86267l 4.49053, 8.67861l 4.49053, 7.65146l 4.49053, 6.80794l 4.49053, 5.97757l 4.49053, 5.29821l 4.49053, 4.7392l 4.49053, 4.15142l
 4.49053, 3.68984l 4.49053, 3.31207l 4.49053, 2.96377l 4.49053, 2.64799l 4.49053, 2.35563l 4.49053, 2.10685l 4.49053, 1.87886l 4.49053, 1.7029l 4.49053, 1.51958l 4.49053, 1.37077l 4.49053, 1.23954l 4.49053, 1.11613l 4.49053, 1.01308l 4.49053,
 0.926161l 4.49053, 0.828848l 4.49053, 0.744012l 4.49053, 0.672846l 4.49053, 0.602323l 4.49053, 0.547311l 4.49053, 0.506513l 4.49053, 0.459509l 4.49053, 0.419874l 4.49053, 0.375362l 4.49053, 0.348445l 4.49053, 0.311852l 4.49053, 0.285908l 4.49053,
 0.260226l 4.49053, 0.238182l 4.49053, 0.218361l 4.49053, 0.192491l 4.49053, 0.182087l 4.49053, 0.165094l 4.49053, 0.15097l 4.49053, 0.139493l 4.49053, 0.127825l 4.49053, 0.117223l 4.49053, 0.107582l 4.49053, 0.0998003l 4.49053, 0.0907671l 4.49053,
 0.0826018l 4.49053, 0.0776654l 4.49053, 0.0700776l 4.49053, 0.0645187l 4.49053, 0.0592908l 4.49053, 0.0547536l 4.49053, 0.050601l 4.49053, 0.0467976l 4.49053, 0.0437371l 4.49053, 0.0429418l 4.49053, 0.0397465l 4.49053, 0.0350611l 4.49053, 0.0327713l
 4.49053, 0.031131l 4.49053, 0.028537l 4.49053, 0.0255543l 4.49053, 0.0237734l 4.49053, 0.0221309l 4.49053, 0.0206149l 4.49053, 0.0193197l 4.49053, 0.0182398l 4.49053, 0.0170209l 4.49053, 0.0158929l 4.49053, 0.0148482l 4.49053, 0.0135608l 4.49053,
 0.0133013v -0.310243l -4.49053, -0.0147408l -4.49053, -0.0162906l -4.49053, -0.0177985l -4.49053, -0.0190934l -4.49053, -0.0199838l -4.49053, -0.0202982l -4.49053, -0.0229783l -4.49053, -0.0246406l -4.49053, -0.0264216l -4.49053, -0.0283321l
 -4.49053, -0.0303839l -4.49053, -0.0309203l -4.49053, -0.0328508l -4.49053, -0.0352996l -4.49053, -0.0379388l -4.49053, -0.0411272l -4.49053, -0.0458349l -4.49053, -0.049288l -4.49053, -0.0512208l -4.49053, -0.0552314l -4.49053, -0.0565277l
 -4.49053, -0.0609721l -4.49053, -0.0704545l -4.49053, -0.0763113l -4.49053, -0.0800492l -4.49053, -0.0861717l -4.49053, -0.0932183l -4.49053, -0.100917l -4.49053, -0.109337l -4.49053, -0.118554l -4.49053, -0.129138l -4.49053, -0.152704l -4.49053,
 -0.16607l -4.49053, -0.159277l -4.49053, -0.170832l -4.49053, -0.196177l -4.49053, -0.231811l -4.49053, -0.246352l -4.49053, -0.252527l -4.49053, -0.276984l -4.49053, -0.31488l -4.49053, -0.350855l -4.49053, -0.381907l -4.49053, -0.427258l -4.49053,
 -0.454299l -4.49053, -0.506432l -4.49053, -0.55187l -4.49053, -0.618104l -4.49053, -0.684946l -4.49053, -0.765623l -4.49053, -0.853442l -4.49053, -0.935143l -4.49053, -1.04557l -4.49053, -1.17253l -4.49053, -1.30081l -4.49053, -1.44744l -4.49053,
 -1.61743l -4.49053, -1.80931l -4.49053, -2.01555l -4.49053, -2.21677l -4.49053, -2.52696l -4.49053, -2.80591l -4.49053, -3.13629l -4.49053, -3.5283l -4.49053, -3.95416l -4.49053, -4.43506l -4.49053, -4.9506l -4.49053, -5.59456l -4.49053, -6.2707l
 -4.49053, -7.09954l -4.49053, -7.99215l -4.49053, -8.99138l -4.49053, -10.1421l -4.49053, -11.437l -4.49053, -12.9075l -4.49053, -14.5742l -4.49053, -16.5232l -4.49053, -18.8376l -4.49053, -21.2007l -4.49053, -24.2l -4.49053, -27.5974l -4.49053,
 -31.416l -4.49053, -35.8887l -2.24526, -19.9967l -0.122937, -1.1654h -46.6552l -0.37239, 11.5333l -2.24526, 66.5904l -1.12263, 30.7761l -1.12263, 29.2214l -1.12263, 26.9288l -1.12263, 24.5356l -1.12263, 22.1431l -1.12263, 19.3218l -1.12263, 17.2503l
 -1.12263, 14.9084l -1.12263, 12.7316l -1.12263, 10.8127l -1.12263, 9.03098l -1.12263, 7.50777l -2.24526, 11.0349l -2.24526, 6.99186l -2.24526, 4.22646l -4.49053, 3.77247z" fill="#00ff00"/>
<path d="M61.6834,370.858l 4.49053, -3.40366l 2.24526, -3.90297l 2.24526, -6.55463l 2.24526, -10.472l 1.12263, -7.17398l 1.12263, -8.73801l 1.12263, -10.5089l 1.12263, -12.4788l 1.12263, -14.6295l 1.12263, -16.9316l 1.12263, -19.3437l 1.12263,
 -21.8129l 1.12263, -24.2754l 1.12263, -26.6586l 1.12263, -28.8838l 1.12263, -30.8695l 2.24526, -66.3424l 0.537956, -16.5429" fill="none" stroke="#0000ff" stroke-width="3" stroke-dasharray=" 3, 3"/>
<path d="M135.441,41.3346l 0.336079, 3.19029" fill="none" stroke="#0000ff" stroke-width="3" stroke-dasharray=" 3, 3"/>
<path d="M135.777,44.5249l 2.24526, 19.938l 4.49053, 36.0971l 4.49053, 31.6033l 4.49053, 27.6946l 4.49053, 24.2935l 4.49053, 21.3314l 4.49053, 18.7492l 4.49053, 16.4962l 4.49053, 14.5283l 4.49053, 12.8081l 4.49053, 11.3027l 4.49053, 9.98422l 4.49053,
 8.8283l 4.49053, 7.81395l 4.49053, 6.92299l 4.49053, 6.13968l 4.49053, 5.45037l 4.49053, 4.84321l 4.49053, 4.30792l 4.49053, 3.83554l 4.49053, 3.4183l 4.49053, 3.04943l 4.49053, 2.723l 4.49053, 2.43388l 4.49053, 2.17757l 4.49053, 1.95013l 4.49053,
 1.74813l 4.49053, 1.56856l 4.49053, 1.40878l 4.49053, 1.26649l 4.49053, 1.13965l 4.49053, 1.02649l 4.49053, 0.925445l 4.49053, 0.83513l 4.49053, 0.754337l 4.49053, 0.681998l 4.49053, 0.617171l 4.49053, 0.559024l 4.49053, 0.506824l 4.49053, 0.459921l
 4.49053, 0.417741l 4.49053, 0.379776l 4.49053, 0.345574l 4.49053, 0.314736l 4.49053, 0.286907l 4.49053, 0.261772l 4.49053, 0.239051l 4.49053, 0.218494l 4.49053, 0.19988l 4.49053, 0.183011l 4.49053, 0.16771l 4.49053, 0.153819l 4.49053, 0.141199l
 4.49053, 0.129724l 4.49053, 0.11928l 4.49053, 0.109768l 4.49053, 0.101097l 4.49053, 0.0931858l 4.49053, 0.0859626l 4.49053, 0.0793619l 4.49053, 0.073325l 4.49053, 0.0677994l 4.49053, 0.0627376l 4.49053, 0.0580969l 4.49053, 0.0538387l 4.49053,
 0.0499285l 4.49053, 0.0463349l 4.49053, 0.0430294l 4.49053, 0.0399866l 4.49053, 0.0371833l 4.49053, 0.0345985l 4.49053, 0.0322132l 4.49053, 0.0300102l 4.49053, 0.027974l 4.49053, 0.0260902l 4.49053, 0.024346l 4.49053, 0.0227296l 4.49053, 0.0212305l
 4.49053, 0.0198389l 4.49053, 0.0185459l 4.49053, 0.0173435l 4.49053, 0.0162243l 4.49053, 0.0151816l 4.49053, 0.0142091" fill="none" stroke="#0000ff" stroke-width="3" stroke-dasharray=" 3, 3"/>
<path d="M67.2966,359.87h -5.61316" fill="none" stroke="black"/>
<path d="M61.6834,360.818v -1.89608" fill="none" stroke="black"/>
<path d="M67.2966,359.87h 5.61316" fill="none" stroke="black"/>
<path d="M72.9098,360.818v -1.89608" fill="none" stroke="black"/>
<path d="M67.2966,359.87v -2.12036" fill="none" stroke="black"/>
<path d="M66.3486,357.75h 1.89608" fill="none" stroke="black"/>
<path d="M67.2966,359.87v 2.12036" fill="none" stroke="black"/>
<path d="M66.3486,361.991h 1.89608" fill="none" stroke="black"/>
<path d="M78.5229,312.667h -5.61316" fill="none" stroke="black"/>
<path d="M72.9098,313.615v -1.89608" fill="none" stroke="black"/>
<path d="M78.5229,312.667h 5.61316" fill="none" stroke="black"/>
<path d="M84.1361,313.615v -1.89608" fill="none" stroke="black"/>
<path d="M78.5229,312.667v -7.36603" fill="none" stroke="black"/>
<path d="M77.5749,305.301h 1.89608" fill="none" stroke="black"/>
<path d="M78.5229,312.667v 7.36603" fill="none" stroke="black"/>
<path d="M77.5749,320.033h 1.89608" fill="none" stroke="black"/>
<path d="M145.881,123.53h -5.61316" fill="none" stroke="black"/>
<path d="M140.268,124.478v -1.89608" fill="none" stroke="black"/>
<path d="M145.881,123.53h 5.61316" fill="none" stroke="black"/>
<path d="M151.494,124.478v -1.89608" fill="none" stroke="black"/>
<path d="M145.881,123.53v -15.3194" fill="none" stroke="black"/>
<path d="M144.933,108.21h 1.89608" fill="none" stroke="black"/>
<path d="M145.881,123.53v 15.3194" fill="none" stroke="black"/>
<path d="M144.933,138.849h 1.89608" fill="none" stroke="black"/>
<path d="M157.107,179.885h -5.61316" fill="none" stroke="black"/>
<path d="M151.494,180.834v -1.89608" fill="none" stroke="black"/>
<path d="M157.107,179.885h 5.61316" fill="none" stroke="black"/>
<path d="M162.72,180.834v -1.89608" fill="none" stroke="black"/>
<path d="M157.107,179.885v -13.4971" fill="none" stroke="black"/>
<path d="M156.159,166.388h 1.89608" fill="none" stroke="black"/>
<path d="M157.107,179.885v 13.4971" fill="none" stroke="black"/>
<path d="M156.159,193.383h 1.89608" fill="none" stroke="black"/>
<path d="M168.333,233.771h -5.61316" fill="none" stroke="black"/>
<path d="M162.72,234.719v -1.89608" fill="none" stroke="black"/>
<path d="M168.333,233.771h 5.61316" fill="none" stroke="black"/>
<path d="M173.947,234.719v -1.89608" fill="none" stroke="black"/>
<path d="M168.333,233.771v -10.9154" fill="none" stroke="black"/>
<path d="M167.385,222.856h 1.89608" fill="none" stroke="black"/>
<path d="M168.333,233.771v 10.9154" fill="none" stroke="black"/>
<path d="M167.385,244.686h 1.89608" fill="none" stroke="black"/>
<path d="M179.56,274.637h -5.61316" fill="none" stroke="black"/>
<path d="M173.947,275.585v -1.89608" fill="none" stroke="black"/>
<path d="M179.56,274.637h 5.61316" fill="none" stroke="black"/>
<path d="M185.173,275.585v -1.89608" fill="none" stroke="black"/>
<path d="M179.56,274.637v -8.39092" fill="none" stroke="black"/>
<path d="M178.612,266.246h 1.89608" fill="none" stroke="black"/>
<path d="M179.56,274.637v 8.39092" fill="none" stroke="black"/>
<path d="M178.612,283.028h 1.89608" fill="none" stroke="black"/>
<path d="M190.786,297.33h -5.61316" fill="none" stroke="black"/>
<path d="M185.173,298.278v -1.89608" fill="none" stroke="black"/>
<path d="M190.786,297.33h 5.61316" fill="none" stroke="black"/>
<path d="M196.399,298.278v -1.89608" fill="none" stroke="black"/>
<path d="M190.786,297.33v -7.09589" fill="none" stroke="black"/>
<path d="M189.838,290.234h 1.89608" fill="none" stroke="black"/>
<path d="M190.786,297.33v 7.09589" fill="none" stroke="black"/>
<path d="M189.838,304.426h 1.89608" fill="none" stroke="black"/>
<path d="M202.012,320.553h -5.61316" fill="none" stroke="black"/>
<path d="M196.399,321.501v -1.89608" fill="none" stroke="black"/>
<path d="M202.012,320.553h 5.61316" fill="none" stroke="black"/>
<path d="M207.626,321.501v -1.89608" fill="none" stroke="black"/>
<path d="M202.012,320.553v -5.34018" fill="none" stroke="black"/>
<path d="M201.064,315.213h 1.89608" fill="none" stroke="black"/>
<path d="M202.012,320.553v 5.34018" fill="none" stroke="black"/>
<path d="M201.064,325.893h 1.89608" fill="none" stroke="black"/>
<path d="M213.239,329.986h -5.61316" fill="none" stroke="black"/>
<path d="M207.626,330.934v -1.89608" fill="none" stroke="black"/>
<path d="M213.239,329.986h 5.61316" fill="none" stroke="black"/>
<path d="M218.852,330.934v -1.89608" fill="none" stroke="black"/>
<path d="M213.239,329.986v -4.96163" fill="none" stroke="black"/>
<path d="M212.291,325.024h 1.89608" fill="none" stroke="black"/>
<path d="M213.239,329.986v 4.96163" fill="none" stroke="black"/>
<path d="M212.291,334.948h 1.89608" fill="none" stroke="black"/>
<path d="M224.465,342.073h -5.61316" fill="none" stroke="black"/>
<path d="M218.852,343.021v -1.89608" fill="none" stroke="black"/>
<path d="M224.465,342.073h 5.61316" fill="none" stroke="black"/>
<path d="M230.078,343.021v -1.89608" fill="none" stroke="black"/>
<path d="M224.465,342.073v -4.04151" fill="none" stroke="black"/>
<path d="M223.517,338.032h 1.89608" fill="none" stroke="black"/>
<path d="M224.465,342.073v 4.04151" fill="none" stroke="black"/>
<path d="M223.517,346.115h 1.89608" fill="none" stroke="black"/>
<path d="M235.691,348.993h -5.61316" fill="none" stroke="black"/>
<path d="M230.078,349.941v -1.89608" fill="none" stroke="black"/>
<path d="M235.691,348.993h 5.61316" fill="none" stroke="black"/>
<path d="M241.305,349.941v -1.89608" fill="none" stroke="black"/>
<path d="M235.691,348.993v -3.49323" fill="none" stroke="black"/>
<path d="M234.743,345.5h 1.89608" fill="none" stroke="black"/>
<path d="M235.691,348.993v 3.49323" fill="none" stroke="black"/>
<path d="M234.743,352.486h 1.89608" fill="none" stroke="black"/>
<path d="M246.918,351.946h -5.61316" fill="none" stroke="black"/>
<path d="M241.305,352.894v -1.89608" fill="none" stroke="black"/>
<path d="M246.918,351.946h 5.61316" fill="none" stroke="black"/>
<path d="M252.531,352.894v -1.89608" fill="none" stroke="black"/>
<path d="M246.918,351.946v -3.12687" fill="none" stroke="black"/>
<path d="M245.97,348.819h 1.89608" fill="none" stroke="black"/>
<path d="M246.918,351.946v 3.12687" fill="none" stroke="black"/>
<path d="M245.97,355.073h 1.89608" fill="none" stroke="black"/>
<path d="M258.144,358.615h -5.61316" fill="none" stroke="black"/>
<path d="M252.531,359.563v -1.89608" fill="none" stroke="black"/>
<path d="M258.144,358.615h 5.61316" fill="none" stroke="black"/>
<path d="M263.757,359.563v -1.89608" fill="none" stroke="black"/>
<path d="M258.144,358.615v -2.52921" fill="none" stroke="black"/>
<path d="M257.196,356.086h 1.89608" fill="none" stroke="black"/>
<path d="M258.144,358.615v 2.52921" fill="none" stroke="black"/>
<path d="M257.196,361.144h 1.89608" fill="none" stroke="black"/>
<path d="M269.37,357.626h -5.61316" fill="none" stroke="black"/>
<path d="M263.757,358.574v -1.89608" fill="none" stroke="black"/>
<path d="M269.37,357.626h 5.61316" fill="none" stroke="black"/>
<path d="M274.984,358.574v -1.89608" fill="none" stroke="black"/>
<path d="M269.37,357.626v -2.46844" fill="none" stroke="black"/>
<path d="M268.422,355.158h 1.89608" fill="none" stroke="black"/>
<path d="M269.37,357.626v 2.46844" fill="none" stroke="black"/>
<path d="M268.422,360.095h 1.89608" fill="none" stroke="black"/>
<path d="M280.597,359.338h -5.61316" fill="none" stroke="black"/>
<path d="M274.984,360.286v -1.89608" fill="none" stroke="black"/>
<path d="M280.597,359.338h 5.61316" fill="none" stroke="black"/>
<path d="M286.21,360.286v -1.89608" fill="none" stroke="black"/>
<path d="M280.597,359.338v -2.35979" fill="none" stroke="black"/>
<path d="M279.649,356.978h 1.89608" fill="none" stroke="black"/>
<path d="M280.597,359.338v 2.35979" fill="none" stroke="black"/>
<path d="M279.649,361.697h 1.89608" fill="none" stroke="black"/>
<path d="M291.823,364.535h -5.61316" fill="none" stroke="black"/>
<path d="M286.21,365.483v -1.89608" fill="none" stroke="black"/>
<path d="M291.823,364.535h 5.61316" fill="none" stroke="black"/>
<path d="M297.436,365.483v -1.89608" fill="none" stroke="black"/>
<path d="M291.823,364.535v -1.73998" fill="none" stroke="black"/>
<path d="M290.875,362.795h 1.89608" fill="none" stroke="black"/>
<path d="M291.823,364.535v 1.73998" fill="none" stroke="black"/>
<path d="M290.875,366.275h 1.89608" fill="none" stroke="black"/>
<path d="M303.049,366.049h -5.61316" fill="none" stroke="black"/>
<path d="M297.436,366.997v -1.89608" fill="none" stroke="black"/>
<path d="M303.049,366.049h 5.61316" fill="none" stroke="black"/>
<path d="M308.662,366.997v -1.89608" fill="none" stroke="black"/>
<path d="M303.049,366.049v -1.4678" fill="none" stroke="black"/>
<path d="M302.101,364.582h 1.89608" fill="none" stroke="black"/>
<path d="M303.049,366.049v 1.4678" fill="none" stroke="black"/>
<path d="M302.101,367.517h 1.89608" fill="none" stroke="black"/>
<path d="M314.276,368.158h -5.61316" fill="none" stroke="black"/>
<path d="M308.662,369.106v -1.89608" fill="none" stroke="black"/>
<path d="M314.276,368.158h 5.61316" fill="none" stroke="black"/>
<path d="M319.889,369.106v -1.89608" fill="none" stroke="black"/>
<path d="M314.276,368.158v -1.1544" fill="none" stroke="black"/>
<path d="M313.328,367.004h 1.89608" fill="none" stroke="black"/>
<path d="M314.276,368.158v 1.1544" fill="none" stroke="black"/>
<path d="M313.328,369.312h 1.89608" fill="none" stroke="black"/>
<path d="M325.502,369.608h -5.61316" fill="none" stroke="black"/>
<path d="M319.889,370.556v -1.89608" fill="none" stroke="black"/>
<path d="M325.502,369.608h 5.61316" fill="none" stroke="black"/>
<path d="M331.115,370.556v -1.89608" fill="none" stroke="black"/>
<path d="M325.502,369.608v -0.827323" fill="none" stroke="black"/>
<path d="M324.554,368.78h 1.89608" fill="none" stroke="black"/>
<path d="M325.502,369.608v 0.827323" fill="none" stroke="black"/>
<path d="M324.554,370.435h 1.89608" fill="none" stroke="black"/>
<path d="M336.728,369.968h -5.61316" fill="none" stroke="black"/>
<path d="M331.115,370.916v -1.89608" fill="none" stroke="black"/>
<path d="M336.728,369.968h 5.61316" fill="none" stroke="black"/>
<path d="M342.341,370.916v -1.89608" fill="none" stroke="black"/>
<path d="M336.728,369.968v -0.772579" fill="none" stroke="black"/>
<path d="M335.78,369.195h 1.89608" fill="none" stroke="black"/>
<path d="M336.728,369.968v 0.772579" fill="none" stroke="black"/>
<path d="M335.78,370.74h 1.89608" fill="none" stroke="black"/>
<path d="M347.955,367.309h -5.61316" fill="none" stroke="black"/>
<path d="M342.341,368.257v -1.89608" fill="none" stroke="black"/>
<path d="M347.955,367.309h 5.61316" fill="none" stroke="black"/>
<path d="M353.568,368.257v -1.89608" fill="none" stroke="black"/>
<path d="M347.955,367.309v -1.25425" fill="none" stroke="black"/>
<path d="M347.007,366.055h 1.89608" fill="none" stroke="black"/>
<path d="M347.955,367.309v 1.25425" fill="none" stroke="black"/>
<path d="M347.007,368.564h 1.89608" fill="none" stroke="black"/>
<path d="M359.181,368.508h -5.61316" fill="none" stroke="black"/>
<path d="M353.568,369.456v -1.89608" fill="none" stroke="black"/>
<path d="M359.181,368.508h 5.61316" fill="none" stroke="black"/>
<path d="M364.794,369.456v -1.89608" fill="none" stroke="black"/>
<path d="M359.181,368.508v -1.01154" fill="none" stroke="black"/>
<path d="M358.233,367.496h 1.89608" fill="none" stroke="black"/>
<path d="M359.181,368.508v 1.01154" fill="none" stroke="black"/>
<path d="M358.233,369.519h 1.89608" fill="none" stroke="black"/>
<path d="M370.407,369.336h -5.61316" fill="none" stroke="black"/>
<path d="M364.794,370.284v -1.89608" fill="none" stroke="black"/>
<path d="M370.407,369.336h 5.61316" fill="none" stroke="black"/>
<path d="M376.02,370.284v -1.89608" fill="none" stroke="black"/>
<path d="M370.407,369.336v -0.876789" fill="none" stroke="black"/>
<path d="M369.459,368.459h 1.89608" fill="none" stroke="black"/>
<path d="M370.407,369.336v 0.876789" fill="none" stroke="black"/>
<path d="M369.459,370.213h 1.89608" fill="none" stroke="black"/>
<path d="M381.634,369.676h -5.61316" fill="none" stroke="black"/>
<path d="M376.02,370.624v -1.89608" fill="none" stroke="black"/>
<path d="M381.634,369.676h 5.61316" fill="none" stroke="black"/>
<path d="M387.247,370.624v -1.89608" fill="none" stroke="black"/>
<path d="M381.634,369.676v -0.825921" fill="none" stroke="black"/>
<path d="M380.686,368.85h 1.89608" fill="none" stroke="black"/>
<path d="M381.634,369.676v 0.825921" fill="none" stroke="black"/>
<path d="M380.686,370.502h 1.89608" fill="none" stroke="black"/>
<path d="M392.86,371.088h -5.61316" fill="none" stroke="black"/>
<path d="M387.247,372.012v -1.87172" fill="none" stroke="black"/>
<path d="M392.86,371.088h 5.61316" fill="none" stroke="black"/>
<path d="M398.473,372.012v -1.87172" fill="none" stroke="black"/>
<path d="M392.86,371.088v -0.507099" fill="none" stroke="black"/>
<path d="M391.912,370.581h 1.89608" fill="none" stroke="black"/>
<path d="M392.86,371.088v 0.507099" fill="none" stroke="black"/>
<path d="M391.912,371.595h 1.89608" fill="none" stroke="black"/>
<path d="M404.086,370.552h -5.61316" fill="none" stroke="black"/>
<path d="M398.473,371.5v -1.89608" fill="none" stroke="black"/>
<path d="M404.086,370.552h 5.61316" fill="none" stroke="black"/>
<path d="M409.699,371.5v -1.89608" fill="none" stroke="black"/>
<path d="M404.086,370.552v -0.652948" fill="none" stroke="black"/>
<path d="M403.138,369.899h 1.89608" fill="none" stroke="black"/>
<path d="M404.086,370.552v 0.652948" fill="none" stroke="black"/>
<path d="M403.138,371.205h 1.89608" fill="none" stroke="black"/>
<path d="M415.312,370.518h -5.61316" fill="none" stroke="black"/>
<path d="M409.699,371.466v -1.89608" fill="none" stroke="black"/>
<path d="M415.312,370.518h 5.61316" fill="none" stroke="black"/>
<path d="M420.926,371.466v -1.89608" fill="none" stroke="black"/>
<path d="M415.312,370.518v -0.653835" fill="none" stroke="black"/>
<path d="M414.364,369.864h 1.89608" fill="none" stroke="black"/>
<path d="M415.312,370.518v 0.653835" fill="none" stroke="black"/>
<path d="M414.364,371.171h 1.89608" fill="none" stroke="black"/>
<path d="M426.539,371.428h -5.61316" fill="none" stroke="black"/>
<path d="M420.926,372.012v -1.53206" fill="none" stroke="black"/>
<path d="M426.539,371.428h 5.61316" fill="none" stroke="black"/>
<path d="M432.152,372.012v -1.53206" fill="none" stroke="black"/>
<path d="M426.539,371.428v -0.412961" fill="none" stroke="black"/>
<path d="M425.591,371.015h 1.89608" fill="none" stroke="black"/>
<path d="M426.539,371.428v 0.412961" fill="none" stroke="black"/>
<path d="M425.591,371.841h 1.89608" fill="none" stroke="black"/>
<path d="M437.765,371.72h -5.61316" fill="none" stroke="black"/>
<path d="M432.152,372.012v -1.24005" fill="none" stroke="black"/>
<path d="M437.765,371.72h 5.61316" fill="none" stroke="black"/>
<path d="M443.378,372.012v -1.24005" fill="none" stroke="black"/>
<path d="M437.765,371.72v -0.292007" fill="none" stroke="black"/>
<path d="M436.817,371.428h 1.89608" fill="none" stroke="black"/>
<path d="M437.765,371.72v 0.292007" fill="none" stroke="black"/>
<path d="M436.817,372.012h 1.89608" fill="none" stroke="black"/>
<path d="M448.991,370.538h -5.61316" fill="none" stroke="black"/>
<path d="M443.378,371.486v -1.89608" fill="none" stroke="black"/>
<path d="M448.991,370.538h 5.61316" fill="none" stroke="black"/>
<path d="M454.605,371.486v -1.89608" fill="none" stroke="black"/>
<path d="M448.991,370.538v -0.65309" fill="none" stroke="black"/>
<path d="M448.043,369.885h 1.89608" fill="none" stroke="black"/>
<path d="M448.991,370.538v 0.65309" fill="none" stroke="black"/>
<path d="M448.043,371.191h 1.89608" fill="none" stroke="black"/>
<path d="M460.218,370.26h -5.61316" fill="none" stroke="black"/>
<path d="M454.605,371.208v -1.89608" fill="none" stroke="black"/>
<path d="M460.218,370.26h 5.61316" fill="none" stroke="black"/>
<path d="M465.831,371.208v -1.89608" fill="none" stroke="black"/>
<path d="M460.218,370.26v -0.715269" fill="none" stroke="black"/>
<path d="M459.27,369.544h 1.89608" fill="none" stroke="black"/>
<path d="M460.218,370.26v 0.715269" fill="none" stroke="black"/>
<path d="M459.27,370.975h 1.89608" fill="none" stroke="black"/>
<path d="M471.444,371.706h -5.61316" fill="none" stroke="black"/>
<path d="M465.831,372.012v -1.25367" fill="none" stroke="black"/>
<path d="M471.444,371.706h 5.61316" fill="none" stroke="black"/>
<path d="M477.057,372.012v -1.25367" fill="none" stroke="black"/>
<path d="M471.444,371.706v -0.292325" fill="none" stroke="black"/>
<path d="M470.496,371.414h 1.89608" fill="none" stroke="black"/>
<path d="M471.444,371.706v 0.305623" fill="none" stroke="black"/>
<path d="M470.496,372.012h 1.89608" fill="none" stroke="black"/>
<path d="M482.67,371.72h -5.61316" fill="none" stroke="black"/>
<path d="M477.057,372.012v -1.24005" fill="none" stroke="black"/>
<path d="M482.67,371.72h 5.61316" fill="none" stroke="black"/>
<path d="M488.284,372.012v -1.24005" fill="none" stroke="black"/>
<path d="M482.67,371.72v -0.292007" fill="none" stroke="black"/>
<path d="M481.722,371.428h 1.89608" fill="none" stroke="black"/>
<path d="M482.67,371.72v 0.292007" fill="none" stroke="black"/>
<path d="M481.722,372.012h 1.89608" fill="none" stroke="black"/>
<path d="M493.897,371.72h -5.61316" fill="none" stroke="black"/>
<path d="M488.284,372.012v -1.24005" fill="none" stroke="black"/>
<path d="M493.897,371.72h 5.61316" fill="none" stroke="black"/>
<path d="M499.51,372.012v -1.24005" fill="none" stroke="black"/>
<path d="M493.897,371.72v -0.292007" fill="none" stroke="black"/>
<path d="M492.949,371.428h 1.89608" fill="none" stroke="black"/>
<path d="M493.897,371.72v 0.292007" fill="none" stroke="black"/>
<path d="M492.949,372.012h 1.89608" fill="none" stroke="black"/>
<path d="M505.123,372.012h -5.61316" fill="none" stroke="black"/>
<path d="M499.51,372.012v -0.948042" fill="none" stroke="black"/>
<path d="M505.123,372.012h 5.61316" fill="none" stroke="black"/>
<path d="M510.736,372.012v -0.948042" fill="none" stroke="black"/>
<g stroke="black" stroke-width="1" fill="black">
<circle cx="67.2966" cy="359.87" r="1.89608"/>
<circle cx="78.5229" cy="312.667" r="1.89608"/>
</g>
<g stroke="black" stroke-width="1" fill="black">
<circle cx="145.881" cy="123.53" r="1.89608"/>
<circle cx="157.107" cy="179.885" r="1.89608"/>
<circle cx="168.333" cy="233.771" r="1.89608"/>
<circle cx="179.56" cy="274.637" r="1.89608"/>
<circle cx="190.786" cy="297.33" r="1.89608"/>
<circle cx="202.012" cy="320.553" r="1.89608"/>
<circle cx="213.239" cy="329.986" r="1.89608"/>
<circle cx="224.465" cy="342.073" r="1.89608"/>
<circle cx="235.691" cy="348.993" r="1.89608"/>
<circle cx="246.918" cy="351.946" r="1.89608"/>
<circle cx="258.144" cy="358.615" r="1.89608"/>
<circle cx="269.37" cy="357.626" r="1.89608"/>
<circle cx="280.597" cy="359.338" r="1.89608"/>
<circle cx="291.823" cy="364.535" r="1.89608"/>
<circle cx="303.049" cy="366.049" r="1.89608"/>
<circle cx="314.276" cy="368.158" r="1.89608"/>
<circle cx="325.502" cy="369.608" r="1.89608"/>
<circle cx="336.728" cy="369.968" r="1.89608"/>
<circle cx="347.955" cy="367.309" r="1.89608"/>
<circle cx="359.181" cy="368.508" r="1.89608"/>
<circle cx="370.407" cy="369.336" r="1.89608"/>
<circle cx="381.634" cy="369.676" r="1.89608"/>
<circle cx="392.86" cy="371.088" r="1.89608"/>
<circle cx="404.086" cy="370.552" r="1.89608"/>
<circle cx="415.312" cy="370.518" r="1.89608"/>
<circle cx="426.539" cy="371.428" r="1.89608"/>
<circle cx="437.765" cy="371.72" r="1.89608"/>
<circle cx="448.991" cy="370.538" r="1.89608"/>
<circle cx="460.218" cy="370.26" r="1.89608"/>
<circle cx="471.444" cy="371.706" r="1.89608"/>
<circle cx="482.67" cy="371.72" r="1.89608"/>
<circle cx="493.897" cy="371.72" r="1.89608"/>
<circle cx="505.123" cy="372.012" r="1.89608"/>
</g>
<path d="M57.1929,372.012h 453.543" fill="none" stroke="black"/>
<path d="M61.6834,362.091v 9.92031" fill="none" stroke="black"/>
<path d="M75.7163,367.052v 4.96016" fill="none" stroke="black"/>
<path d="M89.7492,367.052v 4.96016" fill="none" stroke="black"/>
<path d="M103.782,367.052v 4.96016" fill="none" stroke="black"/>
<path d="M117.815,362.091v 9.92031" fill="none" stroke="black"/>
<path d="M131.848,367.052v 4.96016" fill="none" stroke="black"/>
<path d="M145.881,367.052v 4.96016" fill="none" stroke="black"/>
<path d="M159.914,367.052v 4.96016" fill="none" stroke="black"/>
<path d="M173.947,362.091v 9.92031" fill="none" stroke="black"/>
<path d="M187.98,367.052v 4.96016" fill="none" stroke="black"/>
<path d="M202.012,367.052v 4.96016" fill="none" stroke="black"/>
<path d="M216.045,367.052v 4.96016" fill="none" stroke="black"/>
<path d="M230.078,362.091v 9.92031" fill="none" stroke="black"/>
<path d="M244.111,367.052v 4.96016" fill="none" stroke="black"/>
<path d="M258.144,367.052v 4.96016" fill="none" stroke="black"/>
<path d="M272.177,367.052v 4.96016" fill="none" stroke="black"/>
<path d="M286.21,362.091v 9.92031" fill="none" stroke="black"/>
<path d="M300.243,367.052v 4.96016" fill="none" stroke="black"/>
<path d="M314.276,367.052v 4.96016" fill="none" stroke="black"/>
<path d="M328.309,367.052v 4.96016" fill="none" stroke="black"/>
<path d="M342.341,362.091v 9.92031" fill="none" stroke="black"/>
<path d="M356.374,367.052v 4.96016" fill="none" stroke="black"/>
<path d="M370.407,367.052v 4.96016" fill="none" stroke="black"/>
<path d="M384.44,367.052v 4.96016" fill="none" stroke="black"/>
<path d="M398.473,362.091v 9.92031" fill="none" stroke="black"/>
<path d="M412.506,367.052v 4.96016" fill="none" stroke="black"/>
<path d="M426.539,367.052v 4.96016" fill="none" stroke="black"/>
<path d="M440.572,367.052v 4.96016" fill="none" stroke="black"/>
<path d="M454.605,362.091v 9.92031" fill="none" stroke="black"/>
<path d="M468.638,367.052v 4.96016" fill="none" stroke="black"/>
<path d="M482.67,367.052v 4.96016" fill="none" stroke="black"/>
<path d="M496.703,367.052v 4.96016" fill="none" stroke="black"/>
<path d="M510.736,362.091v 9.92031" fill="none" stroke="black"/>
<path d="M61.6834,362.091v 9.92031" fill="none" stroke="black"/>
<path d="M57.1929,372.012v -330.677" fill="none" stroke="black"/>
<path d="M70.7992,372.012h -13.6063" fill="none" stroke="black"/>
<path d="M63.9961,362.286h -6.80315" fill="none" stroke="black"/>
<path d="M63.9961,352.56h -6.80315" fill="none" stroke="black"/>
<path d="M63.9961,342.834h -6.80315" fill="none" stroke="black"/>
<path d="M70.7992,333.108h -13.6063" fill="none" stroke="black"/>
<path d="M63.9961,323.383h -6.80315" fill="none" stroke="black"/>
<path d="M63.9961,313.657h -6.80315" fill="none" stroke="black"/>
<path d="M63.9961,303.931h -6.80315" fill="none" stroke="black"/>
<path d="M70.7992,294.205h -13.6063" fill="none" stroke="black"/>
<path d="M63.9961,284.48h -6.80315" fill="none" stroke="black"/>
<path d="M63.9961,274.754h -6.80315" fill="none" stroke="black"/>
<path d="M63.9961,265.028h -6.80315" fill="none" stroke="black"/>
<path d="M70.7992,255.302h -13.6063" fill="none" stroke="black"/>
<path d="M63.9961,245.576h -6.80315" fill="none" stroke="black"/>
<path d="M63.9961,235.851h -6.80315" fill="none" stroke="black"/>
<path d="M63.9961,226.125h -6.80315" fill="none" stroke="black"/>
<path d="M70.7992,216.399h -13.6063" fill="none" stroke="black"/>
<path d="M63.9961,206.673h -6.80315" fill="none" stroke="black"/>
<path d="M63.9961,196.947h -6.80315" fill="none" stroke="black"/>
<path d="M63.9961,187.222h -6.80315" fill="none" stroke="black"/>
<path d="M70.7992,177.496h -13.6063" fill="none" stroke="black"/>
<path d="M63.9961,167.77h -6.80315" fill="none" stroke="black"/>
<path d="M63.9961,158.044h -6.80315" fill="none" stroke="black"/>
<path d="M63.9961,148.318h -6.80315" fill="none" stroke="black"/>
<path d="M70.7992,138.593h -13.6063" fill="none" stroke="black"/>
<path d="M63.9961,128.867h -6.80315" fill="none" stroke="black"/>
<path d="M63.9961,119.141h -6.80315" fill="none" stroke="black"/>
<path d="M63.9961,109.415h -6.80315" fill="none" stroke="black"/>
<path d="M70.7992,99.6894h -13.6063" fill="none" stroke="black"/>
<path d="M63.9961,89.9636h -6.80315" fill="none" stroke="black"/>
<path d="M63.9961,80.2378h -6.80315" fill="none" stroke="black"/>
<path d="M63.9961,70.512h -6.80315" fill="none" stroke="black"/>
<path d="M70.7992,60.7862h -13.6063" fill="none" stroke="black"/>
<path d="M70.7992,60.7862h -13.6063" fill="none" stroke="black"/>
<path d="M63.9961,51.0604h -6.80315" fill="none" stroke="black"/>
<path d="M63.9961,41.3346h -6.80315" fill="none" stroke="black"/>
<rect x="340.657" y="90.9362" width="113.386" height="33.0677" fill="white"/>
<path d="M340.657,124.004h 113.386" fill="none" stroke="black"/>
<path d="M454.043,124.004v -33.0677" fill="none" stroke="black"/>
<path d="M454.043,90.9362h -113.386" fill="none" stroke="black"/>
<path d="M340.657,90.9362v 33.0677" fill="none" stroke="black"/>
<text xml:space="preserve" x="368.814" y="98.5964" fill="black" font-size="7.08378" font-family="Helvetica">MC signal region fit ErfExp</text>
<path d="M344.909,96.4475h 19.8425" fill="none" stroke="#0000ff" stroke-width="3" stroke-dasharray=" 3, 3"/>
<text xml:space="preserve" x="399.152" y="109.499" fill="black" font-size="7.08378" font-family="Times">&#0963;</text>
<text xml:space="preserve" x="368.814" y="109.499" fill="black" font-size="7.08378" font-family="Helvetica">Fit Error 1 </text>
<path d="M344.909,111.328h 19.8425v -7.7158h -19.8425z" fill="#00ff00"/>
<path d="M344.909,103.612h 19.8425" fill="none" stroke="white"/>
<path d="M344.909,111.328h 19.8425" fill="none" stroke="white"/>
<path d="M364.752,111.328v -7.7158" fill="none" stroke="white"/>
<path d="M344.909,111.328v -7.7158" fill="none" stroke="white"/>
<text xml:space="preserve" x="400.1" y="120.875" fill="black" font-size="7.08378" font-family="Times">&#0963;</text>
<text xml:space="preserve" x="368.814" y="120.875" fill="black" font-size="7.08378" font-family="Helvetica">Fit Error 2 </text>
<path d="M344.909,122.351h 19.8425v -7.7158h -19.8425z" fill="#ffff00"/>
<path d="M344.909,114.635h 19.8425" fill="none" stroke="white"/>
<path d="M344.909,122.351h 19.8425" fill="none" stroke="white"/>
<path d="M364.752,122.351v -7.7158" fill="none" stroke="white"/>
<path d="M344.909,122.351v -7.7158" fill="none" stroke="white"/>
<text xml:space="preserve" x="169.251" y="19.9089" fill="black" font-size="20.0175" font-family="Helvetica">Background MC (W band)</text></svg>
