<?xml version="1.0" standalone="no"?>
<svg width="567.429" height="413.846" viewBox="0 0 567.429 413.846" xmlns="http://www.w3.org/2000/svg" shape-rendering="crispEdges">
<title>
ErfExp.svg
</title>
<desc>
Creator: ROOT Version 6.10/09
CreationDate: Thu Apr 23 13:14:16 2020</desc>
<defs>
</defs>
<rect x="0.5" y="0" width="566.929" height="413.346" fill="white"/>
<rect x="57.1929" y="41.3346" width="453.543" height="330.677" fill="white"/>
<rect x="57.1929" y="41.3346" width="453.543" height="330.677" fill="none" stroke="black"/>
<rect x="57.1929" y="41.3346" width="453.543" height="330.677" fill="white"/>
<rect x="57.1929" y="41.3346" width="453.543" height="330.677" fill="none" stroke="black"/>
<path d="M57.1929,372.012h 453.543" fill="none" stroke="black"/>
<path d="M57.1929,362.091v 9.92031" fill="none" stroke="black"/>
<path d="M77.8085,367.052v 4.96016" fill="none" stroke="black"/>
<path d="M98.4241,367.052v 4.96016" fill="none" stroke="black"/>
<path d="M119.04,367.052v 4.96016" fill="none" stroke="black"/>
<path d="M139.655,362.091v 9.92031" fill="none" stroke="black"/>
<path d="M160.271,367.052v 4.96016" fill="none" stroke="black"/>
<path d="M180.887,367.052v 4.96016" fill="none" stroke="black"/>
<path d="M201.502,367.052v 4.96016" fill="none" stroke="black"/>
<path d="M222.118,362.091v 9.92031" fill="none" stroke="black"/>
<path d="M242.733,367.052v 4.96016" fill="none" stroke="black"/>
<path d="M263.349,367.052v 4.96016" fill="none" stroke="black"/>
<path d="M283.965,367.052v 4.96016" fill="none" stroke="black"/>
<path d="M304.58,362.091v 9.92031" fill="none" stroke="black"/>
<path d="M325.196,367.052v 4.96016" fill="none" stroke="black"/>
<path d="M345.811,367.052v 4.96016" fill="none" stroke="black"/>
<path d="M366.427,367.052v 4.96016" fill="none" stroke="black"/>
<path d="M387.043,362.091v 9.92031" fill="none" stroke="black"/>
<path d="M407.658,367.052v 4.96016" fill="none" stroke="black"/>
<path d="M428.274,367.052v 4.96016" fill="none" stroke="black"/>
<path d="M448.889,367.052v 4.96016" fill="none" stroke="black"/>
<path d="M469.505,362.091v 9.92031" fill="none" stroke="black"/>
<path d="M469.505,362.091v 9.92031" fill="none" stroke="black"/>
<path d="M490.121,367.052v 4.96016" fill="none" stroke="black"/>
<path d="M510.736,367.052v 4.96016" fill="none" stroke="black"/>
<text xml:space="preserve" x="46.006" y="385.379" fill="black" font-size="13.7726" font-family="Helvetica">400</text>
<text xml:space="preserve" x="128.486" y="385.379" fill="black" font-size="13.7726" font-family="Helvetica">600</text>
<text xml:space="preserve" x="210.965" y="385.379" fill="black" font-size="13.7726" font-family="Helvetica">800</text>
<text xml:space="preserve" x="289.653" y="385.379" fill="black" font-size="13.7726" font-family="Helvetica">1000</text>
<text xml:space="preserve" x="372.132" y="385.379" fill="black" font-size="13.7726" font-family="Helvetica">1200</text>
<text xml:space="preserve" x="454.612" y="385.379" fill="black" font-size="13.7726" font-family="Helvetica">1400</text>
<text xml:space="preserve" x="472.151" y="401.496" fill="black" font-size="13.7726" font-family="Helvetica"> (GeV)</text>
<text xml:space="preserve" x="467.411" y="405.762" fill="black" font-size="9.34839" font-family="Times">&#0947;</text>
<text xml:space="preserve" x="465.041" y="405.762" fill="black" font-size="9.34839" font-family="Helvetica">j</text>
<text xml:space="preserve" x="454.612" y="401.496" fill="black" font-size="13.7726" font-family="Helvetica">m</text>
<path d="M57.1929,372.012v -330.677" fill="none" stroke="black"/>
<path d="M70.7992,372.012h -13.6063" fill="none" stroke="black"/>
<path d="M63.9961,358.785h -6.80315" fill="none" stroke="black"/>
<path d="M63.9961,345.558h -6.80315" fill="none" stroke="black"/>
<path d="M63.9961,332.33h -6.80315" fill="none" stroke="black"/>
<path d="M63.9961,319.103h -6.80315" fill="none" stroke="black"/>
<path d="M70.7992,305.876h -13.6063" fill="none" stroke="black"/>
<path d="M63.9961,292.649h -6.80315" fill="none" stroke="black"/>
<path d="M63.9961,279.422h -6.80315" fill="none" stroke="black"/>
<path d="M63.9961,266.195h -6.80315" fill="none" stroke="black"/>
<path d="M63.9961,252.968h -6.80315" fill="none" stroke="black"/>
<path d="M70.7992,239.741h -13.6063" fill="none" stroke="black"/>
<path d="M63.9961,226.514h -6.80315" fill="none" stroke="black"/>
<path d="M63.9961,213.287h -6.80315" fill="none" stroke="black"/>
<path d="M63.9961,200.06h -6.80315" fill="none" stroke="black"/>
<path d="M63.9961,186.833h -6.80315" fill="none" stroke="black"/>
<path d="M70.7992,173.605h -13.6063" fill="none" stroke="black"/>
<path d="M63.9961,160.378h -6.80315" fill="none" stroke="black"/>
<path d="M63.9961,147.151h -6.80315" fill="none" stroke="black"/>
<path d="M63.9961,133.924h -6.80315" fill="none" stroke="black"/>
<path d="M63.9961,120.697h -6.80315" fill="none" stroke="black"/>
<path d="M70.7992,107.47h -13.6063" fill="none" stroke="black"/>
<path d="M63.9961,94.243h -6.80315" fill="none" stroke="black"/>
<path d="M63.9961,81.0159h -6.80315" fill="none" stroke="black"/>
<path d="M63.9961,67.7888h -6.80315" fill="none" stroke="black"/>
<path d="M63.9961,54.5617h -6.80315" fill="none" stroke="black"/>
<path d="M70.7992,41.3346h -13.6063" fill="none" stroke="black"/>
<text xml:space="preserve" x="46.9541" y="376.373" fill="black" font-size="13.7726" font-family="Helvetica">0</text>
<text xml:space="preserve" x="32.2594" y="310.484" fill="black" font-size="13.7726" font-family="Helvetica">500</text>
<text xml:space="preserve" x="25.1491" y="244.121" fill="black" font-size="13.7726" font-family="Helvetica">1000</text>
<text xml:space="preserve" x="25.1491" y="178.232" fill="black" font-size="13.7726" font-family="Helvetica">1500</text>
<text xml:space="preserve" x="25.1491" y="111.869" fill="black" font-size="13.7726" font-family="Helvetica">2000</text>
<text xml:space="preserve" x="25.1491" y="45.98" fill="black" font-size="13.7726" font-family="Helvetica">2500</text>
<g transform="rotate(-90,23.727,137.94)">
<text xml:space="preserve" x="23.727" y="137.94" fill="black" font-size="13.7726" font-family="Helvetica">Events / 20 GeV</text>
</g>
<path d="M65.4392,364.643h -8.24624" fill="none" stroke="black"/>
<path d="M57.1929,365.591v -1.89608" fill="none" stroke="black"/>
<path d="M65.4392,364.643h 8.24624" fill="none" stroke="black"/>
<path d="M73.6854,365.591v -1.89608" fill="none" stroke="black"/>
<path d="M65.4392,364.643v -1.59283" fill="none" stroke="black"/>
<path d="M64.4911,363.051h 1.89608" fill="none" stroke="black"/>
<path d="M65.4392,364.643v 1.59283" fill="none" stroke="black"/>
<path d="M64.4911,366.236h 1.89608" fill="none" stroke="black"/>
<path d="M81.9316,330.201h -8.24624" fill="none" stroke="black"/>
<path d="M73.6854,331.149v -1.89608" fill="none" stroke="black"/>
<path d="M81.9316,330.201h 8.24624" fill="none" stroke="black"/>
<path d="M90.1779,331.149v -1.89608" fill="none" stroke="black"/>
<path d="M81.9316,330.201v -5.92699" fill="none" stroke="black"/>
<path d="M80.9836,324.274h 1.89608" fill="none" stroke="black"/>
<path d="M81.9316,330.201v 5.92699" fill="none" stroke="black"/>
<path d="M80.9836,336.128h 1.89608" fill="none" stroke="black"/>
<path d="M98.4241,179.882h -8.24624" fill="none" stroke="black"/>
<path d="M90.1779,180.83v -1.89608" fill="none" stroke="black"/>
<path d="M98.4241,179.882h 8.24624" fill="none" stroke="black"/>
<path d="M106.67,180.83v -1.89608" fill="none" stroke="black"/>
<path d="M98.4241,179.882v -14.1385" fill="none" stroke="black"/>
<path d="M97.4761,165.743h 1.89608" fill="none" stroke="black"/>
<path d="M98.4241,179.882v 14.1385" fill="none" stroke="black"/>
<path d="M97.4761,194.02h 1.89608" fill="none" stroke="black"/>
<path d="M114.917,82.1658h -8.24624" fill="none" stroke="black"/>
<path d="M106.67,83.1139v -1.89608" fill="none" stroke="black"/>
<path d="M114.917,82.1658h 8.24624" fill="none" stroke="black"/>
<path d="M123.163,83.1139v -1.89608" fill="none" stroke="black"/>
<path d="M114.917,82.1658v -16.9379" fill="none" stroke="black"/>
<path d="M113.969,65.2279h 1.89608" fill="none" stroke="black"/>
<path d="M114.917,82.1658v 16.9379" fill="none" stroke="black"/>
<path d="M113.969,99.1037h 1.89608" fill="none" stroke="black"/>
<path d="M131.409,114.013h -8.24624" fill="none" stroke="black"/>
<path d="M123.163,114.961v -1.89608" fill="none" stroke="black"/>
<path d="M131.409,114.013h 8.24624" fill="none" stroke="black"/>
<path d="M139.655,114.961v -1.89608" fill="none" stroke="black"/>
<path d="M131.409,114.013v -15.9256" fill="none" stroke="black"/>
<path d="M130.461,98.0876h 1.89608" fill="none" stroke="black"/>
<path d="M131.409,114.013v 15.9256" fill="none" stroke="black"/>
<path d="M130.461,129.939h 1.89608" fill="none" stroke="black"/>
<path d="M147.902,161.065h -8.24624" fill="none" stroke="black"/>
<path d="M139.655,162.013v -1.89608" fill="none" stroke="black"/>
<path d="M147.902,161.065h 8.24624" fill="none" stroke="black"/>
<path d="M156.148,162.013v -1.89608" fill="none" stroke="black"/>
<path d="M147.902,161.065v -13.9529" fill="none" stroke="black"/>
<path d="M146.954,147.112h 1.89608" fill="none" stroke="black"/>
<path d="M147.902,161.065v 13.9529" fill="none" stroke="black"/>
<path d="M146.954,175.018h 1.89608" fill="none" stroke="black"/>
<path d="M164.394,229.933h -8.24624" fill="none" stroke="black"/>
<path d="M156.148,230.881v -1.89608" fill="none" stroke="black"/>
<path d="M164.394,229.933h 8.24624" fill="none" stroke="black"/>
<path d="M172.64,230.881v -1.89608" fill="none" stroke="black"/>
<path d="M164.394,229.933v -10.7377" fill="none" stroke="black"/>
<path d="M163.446,219.195h 1.89608" fill="none" stroke="black"/>
<path d="M164.394,229.933v 10.7377" fill="none" stroke="black"/>
<path d="M163.446,240.671h 1.89608" fill="none" stroke="black"/>
<path d="M180.887,256.39h -8.24624" fill="none" stroke="black"/>
<path d="M172.64,257.338v -1.89608" fill="none" stroke="black"/>
<path d="M180.887,256.39h 8.24624" fill="none" stroke="black"/>
<path d="M189.133,257.338v -1.89608" fill="none" stroke="black"/>
<path d="M180.887,256.39v -9.51423" fill="none" stroke="black"/>
<path d="M179.939,246.875h 1.89608" fill="none" stroke="black"/>
<path d="M180.887,256.39v 9.51423" fill="none" stroke="black"/>
<path d="M179.939,265.904h 1.89608" fill="none" stroke="black"/>
<path d="M197.379,295.986h -8.24624" fill="none" stroke="black"/>
<path d="M189.133,296.934v -1.89608" fill="none" stroke="black"/>
<path d="M197.379,295.986h 8.24624" fill="none" stroke="black"/>
<path d="M205.625,296.934v -1.89608" fill="none" stroke="black"/>
<path d="M197.379,295.986v -6.97853" fill="none" stroke="black"/>
<path d="M196.431,289.007h 1.89608" fill="none" stroke="black"/>
<path d="M197.379,295.986v 6.97853" fill="none" stroke="black"/>
<path d="M196.431,302.964h 1.89608" fill="none" stroke="black"/>
<path d="M213.872,305.535h -8.24624" fill="none" stroke="black"/>
<path d="M205.625,306.483v -1.89608" fill="none" stroke="black"/>
<path d="M213.872,305.535h 8.24624" fill="none" stroke="black"/>
<path d="M222.118,306.483v -1.89608" fill="none" stroke="black"/>
<path d="M213.872,305.535v -6.57728" fill="none" stroke="black"/>
<path d="M212.923,298.958h 1.89608" fill="none" stroke="black"/>
<path d="M213.872,305.535v 6.57728" fill="none" stroke="black"/>
<path d="M212.923,312.113h 1.89608" fill="none" stroke="black"/>
<path d="M230.364,330.381h -8.24624" fill="none" stroke="black"/>
<path d="M222.118,331.329v -1.89608" fill="none" stroke="black"/>
<path d="M230.364,330.381h 8.24624" fill="none" stroke="black"/>
<path d="M238.61,331.329v -1.89608" fill="none" stroke="black"/>
<path d="M230.364,330.381v -4.64608" fill="none" stroke="black"/>
<path d="M229.416,325.735h 1.89608" fill="none" stroke="black"/>
<path d="M230.364,330.381v 4.64608" fill="none" stroke="black"/>
<path d="M229.416,335.027h 1.89608" fill="none" stroke="black"/>
<path d="M246.856,339.934h -8.24624" fill="none" stroke="black"/>
<path d="M238.61,340.882v -1.89608" fill="none" stroke="black"/>
<path d="M246.856,339.934h 8.24624" fill="none" stroke="black"/>
<path d="M255.103,340.882v -1.89608" fill="none" stroke="black"/>
<path d="M246.856,339.934v -3.72349" fill="none" stroke="black"/>
<path d="M245.908,336.21h 1.89608" fill="none" stroke="black"/>
<path d="M246.856,339.934v 3.72349" fill="none" stroke="black"/>
<path d="M245.908,343.657h 1.89608" fill="none" stroke="black"/>
<path d="M263.349,353.425h -8.24624" fill="none" stroke="black"/>
<path d="M255.103,354.373v -1.89608" fill="none" stroke="black"/>
<path d="M263.349,353.425h 8.24624" fill="none" stroke="black"/>
<path d="M271.595,354.373v -1.89608" fill="none" stroke="black"/>
<path d="M263.349,353.425v -2.66926" fill="none" stroke="black"/>
<path d="M262.401,350.756h 1.89608" fill="none" stroke="black"/>
<path d="M263.349,353.425v 2.66926" fill="none" stroke="black"/>
<path d="M262.401,356.094h 1.89608" fill="none" stroke="black"/>
<path d="M279.841,355.824h -8.24624" fill="none" stroke="black"/>
<path d="M271.595,356.773v -1.89608" fill="none" stroke="black"/>
<path d="M279.841,355.824h 8.24624" fill="none" stroke="black"/>
<path d="M288.088,356.773v -1.89608" fill="none" stroke="black"/>
<path d="M279.841,355.824v -2.45489" fill="none" stroke="black"/>
<path d="M278.893,353.37h 1.89608" fill="none" stroke="black"/>
<path d="M279.841,355.824v 2.45489" fill="none" stroke="black"/>
<path d="M278.893,358.279h 1.89608" fill="none" stroke="black"/>
<path d="M296.334,356.947h -8.24624" fill="none" stroke="black"/>
<path d="M288.088,357.895v -1.89608" fill="none" stroke="black"/>
<path d="M296.334,356.947h 8.24624" fill="none" stroke="black"/>
<path d="M304.58,357.895v -1.89608" fill="none" stroke="black"/>
<path d="M296.334,356.947v -2.46199" fill="none" stroke="black"/>
<path d="M295.386,354.485h 1.89608" fill="none" stroke="black"/>
<path d="M296.334,356.947v 2.46199" fill="none" stroke="black"/>
<path d="M295.386,359.409h 1.89608" fill="none" stroke="black"/>
<path d="M312.826,362.133h -8.24624" fill="none" stroke="black"/>
<path d="M304.58,363.081v -1.89608" fill="none" stroke="black"/>
<path d="M312.826,362.133h 8.24624" fill="none" stroke="black"/>
<path d="M321.073,363.081v -1.89608" fill="none" stroke="black"/>
<path d="M312.826,362.133v -1.8872" fill="none" stroke="black"/>
<path d="M311.878,360.246h 1.89608" fill="none" stroke="black"/>
<path d="M312.826,362.133v 1.8872" fill="none" stroke="black"/>
<path d="M311.878,364.02h 1.89608" fill="none" stroke="black"/>
<path d="M329.319,361.209h -8.24624" fill="none" stroke="black"/>
<path d="M321.073,362.157v -1.89608" fill="none" stroke="black"/>
<path d="M329.319,361.209h 8.24624" fill="none" stroke="black"/>
<path d="M337.565,362.157v -1.89608" fill="none" stroke="black"/>
<path d="M329.319,361.209v -2.09814" fill="none" stroke="black"/>
<path d="M328.371,359.111h 1.89608" fill="none" stroke="black"/>
<path d="M329.319,361.209v 2.09814" fill="none" stroke="black"/>
<path d="M328.371,363.307h 1.89608" fill="none" stroke="black"/>
<path d="M345.811,365.752h -8.24624" fill="none" stroke="black"/>
<path d="M337.565,366.7v -1.89608" fill="none" stroke="black"/>
<path d="M345.811,365.752h 8.24624" fill="none" stroke="black"/>
<path d="M354.058,366.7v -1.89608" fill="none" stroke="black"/>
<path d="M345.811,365.752v -1.40357" fill="none" stroke="black"/>
<path d="M344.863,364.348h 1.89608" fill="none" stroke="black"/>
<path d="M345.811,365.752v 1.40357" fill="none" stroke="black"/>
<path d="M344.863,367.156h 1.89608" fill="none" stroke="black"/>
<path d="M362.304,364.404h -8.24624" fill="none" stroke="black"/>
<path d="M354.058,365.352v -1.89608" fill="none" stroke="black"/>
<path d="M362.304,364.404h 8.24624" fill="none" stroke="black"/>
<path d="M370.55,365.352v -1.89608" fill="none" stroke="black"/>
<path d="M362.304,364.404v -1.63432" fill="none" stroke="black"/>
<path d="M361.356,362.77h 1.89608" fill="none" stroke="black"/>
<path d="M362.304,364.404v 1.63432" fill="none" stroke="black"/>
<path d="M361.356,366.038h 1.89608" fill="none" stroke="black"/>
<path d="M378.796,368.062h -8.24624" fill="none" stroke="black"/>
<path d="M370.55,369.01v -1.89608" fill="none" stroke="black"/>
<path d="M378.796,368.062h 8.24624" fill="none" stroke="black"/>
<path d="M387.043,369.01v -1.89608" fill="none" stroke="black"/>
<path d="M378.796,368.062v -1.09886" fill="none" stroke="black"/>
<path d="M377.848,366.963h 1.89608" fill="none" stroke="black"/>
<path d="M378.796,368.062v 1.09886" fill="none" stroke="black"/>
<path d="M377.848,369.161h 1.89608" fill="none" stroke="black"/>
<path d="M395.289,367.809h -8.24624" fill="none" stroke="black"/>
<path d="M387.043,368.757v -1.89608" fill="none" stroke="black"/>
<path d="M395.289,367.809h 8.24624" fill="none" stroke="black"/>
<path d="M403.535,368.757v -1.89608" fill="none" stroke="black"/>
<path d="M395.289,367.809v -1.17089" fill="none" stroke="black"/>
<path d="M394.341,366.638h 1.89608" fill="none" stroke="black"/>
<path d="M395.289,367.809v 1.17089" fill="none" stroke="black"/>
<path d="M394.341,368.98h 1.89608" fill="none" stroke="black"/>
<path d="M411.781,369.749h -8.24624" fill="none" stroke="black"/>
<path d="M403.535,370.697v -1.89608" fill="none" stroke="black"/>
<path d="M411.781,369.749h 8.24624" fill="none" stroke="black"/>
<path d="M420.028,370.697v -1.89608" fill="none" stroke="black"/>
<path d="M411.781,369.749v -1.05712" fill="none" stroke="black"/>
<path d="M410.833,368.692h 1.89608" fill="none" stroke="black"/>
<path d="M411.781,369.749v 1.05712" fill="none" stroke="black"/>
<path d="M410.833,370.806h 1.89608" fill="none" stroke="black"/>
<path d="M428.274,370.159h -8.24624" fill="none" stroke="black"/>
<path d="M420.028,371.107v -1.89608" fill="none" stroke="black"/>
<path d="M428.274,370.159h 8.24624" fill="none" stroke="black"/>
<path d="M436.52,371.107v -1.89608" fill="none" stroke="black"/>
<path d="M428.274,370.159v -0.625187" fill="none" stroke="black"/>
<path d="M427.326,369.534h 1.89608" fill="none" stroke="black"/>
<path d="M428.274,370.159v 0.625187" fill="none" stroke="black"/>
<path d="M427.326,370.784h 1.89608" fill="none" stroke="black"/>
<path d="M444.766,370.969h -8.24624" fill="none" stroke="black"/>
<path d="M436.52,371.917v -1.89608" fill="none" stroke="black"/>
<path d="M444.766,370.969h 8.24624" fill="none" stroke="black"/>
<path d="M453.013,371.917v -1.89608" fill="none" stroke="black"/>
<path d="M444.766,370.969v -0.461621" fill="none" stroke="black"/>
<path d="M443.818,370.508h 1.89608" fill="none" stroke="black"/>
<path d="M444.766,370.969v 0.461621" fill="none" stroke="black"/>
<path d="M443.818,371.431h 1.89608" fill="none" stroke="black"/>
<path d="M461.259,371.018h -8.24624" fill="none" stroke="black"/>
<path d="M453.013,371.966v -1.89608" fill="none" stroke="black"/>
<path d="M461.259,371.018h 8.24624" fill="none" stroke="black"/>
<path d="M469.505,371.966v -1.89608" fill="none" stroke="black"/>
<path d="M461.259,371.018v -0.453334" fill="none" stroke="black"/>
<path d="M460.311,370.564h 1.89608" fill="none" stroke="black"/>
<path d="M461.259,371.018v 0.453334" fill="none" stroke="black"/>
<path d="M460.311,371.471h 1.89608" fill="none" stroke="black"/>
<path d="M477.751,370.642h -8.24624" fill="none" stroke="black"/>
<path d="M469.505,371.59v -1.89608" fill="none" stroke="black"/>
<path d="M477.751,370.642h 8.24624" fill="none" stroke="black"/>
<path d="M485.997,371.59v -1.89608" fill="none" stroke="black"/>
<path d="M477.751,370.642v -0.592204" fill="none" stroke="black"/>
<path d="M476.803,370.05h 1.89608" fill="none" stroke="black"/>
<path d="M477.751,370.642v 0.592204" fill="none" stroke="black"/>
<path d="M476.803,371.234h 1.89608" fill="none" stroke="black"/>
<path d="M494.244,369.653h -8.24624" fill="none" stroke="black"/>
<path d="M485.997,370.601v -1.89608" fill="none" stroke="black"/>
<path d="M494.244,369.653h 8.24624" fill="none" stroke="black"/>
<path d="M502.49,370.601v -1.89608" fill="none" stroke="black"/>
<path d="M494.244,369.653v -0.837637" fill="none" stroke="black"/>
<path d="M493.296,368.815h 1.89608" fill="none" stroke="black"/>
<path d="M494.244,369.653v 0.837637" fill="none" stroke="black"/>
<path d="M493.296,370.491h 1.89608" fill="none" stroke="black"/>
<path d="M510.736,370.463h -8.24624" fill="none" stroke="black"/>
<path d="M502.49,371.411v -1.89608" fill="none" stroke="black"/>
<path d="M510.736,370.463z" fill="none" stroke="black"/>
<path d="M510.736,370.463v -0.586276" fill="none" stroke="black"/>
<path d="M509.788,369.876h 0.948042" fill="none" stroke="black"/>
<path d="M510.736,370.463v 0.586276" fill="none" stroke="black"/>
<path d="M509.788,371.049h 0.948042" fill="none" stroke="black"/>
<g stroke="black" stroke-width="1" fill="black">
<circle cx="65.4392" cy="364.643" r="1.89608"/>
<circle cx="81.9316" cy="330.201" r="1.89608"/>
<circle cx="98.4241" cy="179.882" r="1.89608"/>
<circle cx="114.917" cy="82.1658" r="1.89608"/>
<circle cx="131.409" cy="114.013" r="1.89608"/>
<circle cx="147.902" cy="161.065" r="1.89608"/>
<circle cx="164.394" cy="229.933" r="1.89608"/>
<circle cx="180.887" cy="256.39" r="1.89608"/>
<circle cx="197.379" cy="295.986" r="1.89608"/>
<circle cx="213.872" cy="305.535" r="1.89608"/>
<circle cx="230.364" cy="330.381" r="1.89608"/>
<circle cx="246.856" cy="339.934" r="1.89608"/>
<circle cx="263.349" cy="353.425" r="1.89608"/>
<circle cx="279.841" cy="355.824" r="1.89608"/>
<circle cx="296.334" cy="356.947" r="1.89608"/>
<circle cx="312.826" cy="362.133" r="1.89608"/>
<circle cx="329.319" cy="361.209" r="1.89608"/>
<circle cx="345.811" cy="365.752" r="1.89608"/>
<circle cx="362.304" cy="364.404" r="1.89608"/>
<circle cx="378.796" cy="368.062" r="1.89608"/>
<circle cx="395.289" cy="367.809" r="1.89608"/>
<circle cx="411.781" cy="369.749" r="1.89608"/>
<circle cx="428.274" cy="370.159" r="1.89608"/>
<circle cx="444.766" cy="370.969" r="1.89608"/>
<circle cx="461.259" cy="371.018" r="1.89608"/>
<circle cx="477.751" cy="370.642" r="1.89608"/>
<circle cx="494.244" cy="369.653" r="1.89608"/>
<circle cx="510.736" cy="370.463" r="1.89608"/>
</g>
<path d="M57.1929,370.87l 3.2985, -1.02604l 3.2985, -1.77613l 3.2985, -2.93371l 3.2985, -4.62282l 1.64925, -3.1407l 1.64925, -3.80701l 1.64925, -4.55979l 1.64925, -5.39621l 1.64925, -6.30943l 1.64925, -7.28817l 1.64925, -8.31651l 1.64925, -9.37384l
 1.64925, -10.4352l 1.64925, -11.472l 1.64925, -12.4527l 1.64925, -13.3443l 1.64925, -14.1138l 1.64925, -14.7296l 3.2985, -30.5551l 3.2985, -30.5673l 1.64925, -14.7084l 1.64925, -14.0186l 1.64925, -13.1154l 1.64925, -12.021l 1.64925, -10.7637l
 1.64925, -9.37705l 1.64925, -7.89778l 1.64925, -6.36406l 1.64925, -4.81378l 1.64925, -3.28289l 1.64925, -1.80396l 1.64925, -0.405039l 1.64925, 0.891063l 1.64925, 2.06725l 1.64925, 3.11216l 1.64925, 4.01994l 1.64925, 4.78976l 1.64925, 5.42506l
 3.2985, 12.2554l 3.2985, 13.401l 6.59699, 27.6303l 6.59699, 26.2029l 3.2985, 12.1255l 3.2985, 11.4088l 3.2985, 10.697l 3.2985, 10.0111l 3.2985, 9.36108l 3.2985, 8.75056l 6.59699, 15.8269l 6.59699, 13.839l 6.59699, 12.1124l 6.59699, 10.6121l 6.59699,
 9.30732l 6.59699, 8.1714l 6.59699, 7.18155l 6.59699, 6.31812l 6.59699, 5.56424l 6.59699, 4.90536l 6.59699, 4.32895l 6.59699, 3.82419l 6.59699, 3.38174l 6.59699, 2.99355l 6.59699, 2.65262l 6.59699, 2.35291l 6.59699, 2.08918l 6.59699, 1.8569l 6.59699,
 1.65211l 6.59699, 1.47139l 6.59699, 1.31176l 6.59699, 1.17062l 6.59699, 1.04572l 6.59699, 0.935073l 6.59699, 0.836968l 6.59699, 0.749901l 6.59699, 0.672557l 6.59699, 0.603785l 6.59699, 0.54258l 6.59699, 0.488057l 6.59699, 0.439442l 6.59699,
 0.396056l 6.59699, 0.357299l 6.59699, 0.322646l 6.59699, 0.291635l 6.59699, 0.263857l 6.59699, 0.238953l 6.59699, 0.216605l 6.59699, 0.196533l 6.59699, 0.178489l 6.59699, 0.162253l 6.59699, 0.147631l 6.59699, 0.134451l 6.59699, 0.12256l 6.59699,
 0.111823l 6.59699, 0.102119l 6.59699, 0.0933414l 6.59699, 0.0853945l 6.59699, 0.0781935l 6.59699, 0.0716627l 6.59699, 0.0657347l 4.94775, 0.0452618" fill="none" stroke="#0000ff" stroke-width="3" stroke-dasharray=" 3, 3"/>
<path d="M57.1929,371.181l 3.2985, -0.825313l 3.2985, -1.48137l 3.2985, -2.53962l 3.2985, -4.14796l 1.64925, -2.86602l 1.64925, -3.51957l 1.64925, -4.32442l 1.64925, -5.07474l 1.64925, -5.99319l 1.64925, -7.05009l 1.64925, -8.03575l 1.64925,
 -9.13201l 1.64925, -10.2386l 1.64925, -11.1787l 1.64925, -12.2187l 1.64925, -13.1775l 1.64925, -13.9467l 1.64925, -14.3042l 3.2985, -29.9913l 3.2985, -29.9834l 1.64925, -14.4178l 1.64925, -13.7756l 1.64925, -12.9314l 1.64925, -11.7886l 1.64925,
 -10.5189l 1.64925, -9.29338l 1.64925, -7.79766l 1.64925, -6.3146l 1.64925, -4.8129l 1.64925, -3.1476l 1.64925, -1.68143l 1.64925, -0.234595l 1.64925, 0.912912l 1.64925, 2.29532l 1.64925, 3.1389l 1.64925, 3.99655l 1.64925, 4.88585l 1.64925, 5.08407l
 3.2985, 11.799l 3.2985, 12.7939l 6.59699, 26.0951l 6.59699, 24.6011l 3.2985, 11.3347l 3.2985, 10.8246l 3.2985, 10.3855l 3.2985, 9.87477l 3.2985, 9.36087l 3.2985, 8.87204l 6.59699, 16.059l 6.59699, 13.9805l 6.59699, 12.2344l 6.59699, 10.7054l
 6.59699, 9.30981l 6.59699, 8.09336l 6.59699, 7.06701l 6.59699, 6.15151l 6.59699, 5.42934l 6.59699, 4.71247l 6.59699, 4.15118l 6.59699, 3.65513l 6.59699, 3.24013l 6.59699, 2.83031l 6.59699, 2.49302l 6.59699, 2.20513l 6.59699, 1.95033l 6.59699,
 1.72723l 6.59699, 1.53164l 6.59699, 1.35995l 6.59699, 1.21193l 6.59699, 1.08629l 6.59699, 0.966207l 6.59699, 0.859582l 6.59699, 0.76836l 6.59699, 0.697452l 6.59699, 0.621169l 6.59699, 0.563038l 6.59699, 0.512897l 6.59699, 0.470186l 6.59699,
 0.417991l 6.59699, 0.37222l 6.59699, 0.342922l 6.59699, 0.314797l 6.59699, 0.281484l 6.59699, 0.258122l 6.59699, 0.235054l 6.59699, 0.215007l 6.59699, 0.192338l 6.59699, 0.179465l 6.59699, 0.164993l 6.59699, 0.147697l 6.59699, 0.135922l 6.59699,
 0.122389l 6.59699, 0.111044l 6.59699, 0.0994291l 6.59699, 0.0900478l 6.59699, 0.0841172l 6.59699, 0.0768189l 6.59699, 0.0689114l 6.59699, 0.0631337l 4.94775, 0.0424906v -0.48732l -4.94775, -0.0454206l -6.59699, -0.0641042l -6.59699, -0.0715421l
 -6.59699, -0.0766458l -6.59699, -0.0835314l -6.59699, -0.0901124l -6.59699, -0.0994649l -6.59699, -0.108588l -6.59699, -0.122484l -6.59699, -0.13074l -6.59699, -0.145461l -6.59699, -0.155885l -6.59699, -0.17794l -6.59699, -0.194565l -6.59699,
 -0.215796l -6.59699, -0.241621l -6.59699, -0.269724l -6.59699, -0.295446l -6.59699, -0.325669l -6.59699, -0.375105l -6.59699, -0.419313l -6.59699, -0.462732l -6.59699, -0.520564l -6.59699, -0.588601l -6.59699, -0.646607l -6.59699, -0.732147l
 -6.59699, -0.82282l -6.59699, -0.907843l -6.59699, -1.01076l -6.59699, -1.13243l -6.59699, -1.26594l -6.59699, -1.41302l -6.59699, -1.6034l -6.59699, -1.775l -6.59699, -1.99039l -6.59699, -2.23265l -6.59699, -2.50917l -6.59699, -2.81147l -6.59699,
 -3.17392l -6.59699, -3.58648l -6.59699, -3.97241l -6.59699, -4.50419l -6.59699, -5.10704l -6.59699, -5.75003l -6.59699, -6.45399l -6.59699, -7.25277l -6.59699, -8.18689l -6.59699, -9.29469l -6.59699, -10.5008l -6.59699, -11.8235l -6.59699, -13.6284l
 -6.59699, -15.6442l -3.2985, -8.80719l -3.2985, -9.21129l -3.2985, -10.2785l -3.2985, -11.1138l -3.2985, -11.8951l -3.2985, -12.7404l -6.59699, -27.5484l -6.59699, -29.1308l -3.2985, -13.9608l -3.2985, -12.5959l -1.64925, -5.3494l -1.64925,
 -4.86412l -1.64925, -3.9222l -1.64925, -3.10874l -1.64925, -2.09604l -1.64925, -0.703359l -1.64925, 0.371501l -1.64925, 1.97908l -1.64925, 3.22793l -1.64925, 4.82798l -1.64925, 6.31905l -1.64925, 7.94397l -1.64925, 9.57571l -1.64925, 10.8105l
 -1.64925, 12.1037l -1.64925, 13.2399l -1.64925, 14.149l -1.64925, 14.9545l -3.2985, 31.3726l -3.2985, 31.2515l -1.64925, 14.7939l -1.64925, 14.5966l -1.64925, 13.4257l -1.64925, 12.6883l -1.64925, 11.6599l -1.64925, 10.7194l -1.64925, 9.57997l
 -1.64925, 8.52365l -1.64925, 7.47838l -1.64925, 6.54536l -1.64925, 5.69206l -1.64925, 4.82937l -1.64925, 4.08569l -1.64925, 3.41016l -3.2985, 5.12532l -3.2985, 3.33308l -3.2985, 2.09012l -3.2985, 1.25904z" fill="#ffff00"/>
<path d="M57.1929,371.07l 3.2985, -0.902769l 3.2985, -1.60156l 3.2985, -2.70075l 3.2985, -4.36299l 1.64925, -2.94471l 1.64925, -3.65632l 1.64925, -4.3789l 1.64925, -5.22284l 1.64925, -6.19281l 1.64925, -7.24394l 1.64925, -8.21647l 1.64925, -9.27602l
 1.64925, -10.2915l 1.64925, -11.4432l 1.64925, -12.236l 1.64925, -13.375l 1.64925, -14.0833l 1.64925, -14.6024l 3.2985, -30.4474l 3.2985, -30.1961l 1.64925, -14.625l 1.64925, -14.0229l 1.64925, -13.0209l 1.64925, -11.991l 1.64925, -10.6456l 1.64925,
 -9.20468l 1.64925, -7.86058l 1.64925, -6.32206l 1.64925, -4.93464l 1.64925, -3.23009l 1.64925, -1.78713l 1.64925, -0.384841l 1.64925, 0.944967l 1.64925, 1.95844l 1.64925, 3.25963l 1.64925, 4.04764l 1.64925, 4.80234l 1.64925, 5.30449l 3.2985,
 11.9533l 3.2985, 13.2983l 6.59699, 27.033l 6.59699, 25.4869l 3.2985, 11.7555l 3.2985, 11.2092l 3.2985, 10.6368l 3.2985, 9.91635l 3.2985, 9.37656l 3.2985, 8.7846l 6.59699, 15.9484l 6.59699, 13.9549l 6.59699, 12.1551l 6.59699, 10.6092l 6.59699,
 9.30762l 6.59699, 8.14325l 6.59699, 7.15624l 6.59699, 6.2581l 6.59699, 5.47307l 6.59699, 4.82725l 6.59699, 4.24099l 6.59699, 3.75573l 6.59699, 3.30153l 6.59699, 2.9127l 6.59699, 2.56991l 6.59699, 2.26532l 6.59699, 2.03011l 6.59699, 1.76516l 6.59699,
 1.58442l 6.59699, 1.4208l 6.59699, 1.26203l 6.59699, 1.13791l 6.59699, 0.995583l 6.59699, 0.897219l 6.59699, 0.802129l 6.59699, 0.729978l 6.59699, 0.645169l 6.59699, 0.581625l 6.59699, 0.528181l 6.59699, 0.476443l 6.59699, 0.434556l 6.59699,
 0.393347l 6.59699, 0.358118l 6.59699, 0.313217l 6.59699, 0.285461l 6.59699, 0.258556l 6.59699, 0.23354l 6.59699, 0.215516l 6.59699, 0.197254l 6.59699, 0.177886l 6.59699, 0.161726l 6.59699, 0.148164l 6.59699, 0.132422l 6.59699, 0.122289l 6.59699,
 0.111232l 6.59699, 0.102278l 6.59699, 0.0927009l 6.59699, 0.0805572l 6.59699, 0.079256l 6.59699, 0.0692979l 6.59699, 0.0648689l 4.94775, 0.0445486v -0.222444l -4.94775, -0.0480259l -6.59699, -0.0723053l -6.59699, -0.0709215l -6.59699, -0.0714569l
 -6.59699, -0.0795044l -6.59699, -0.100181l -6.59699, -0.108942l -6.59699, -0.106705l -6.59699, -0.116664l -6.59699, -0.133885l -6.59699, -0.149169l -6.59699, -0.164618l -6.59699, -0.181992l -6.59699, -0.193356l -6.59699, -0.220208l -6.59699,
 -0.23556l -6.59699, -0.260148l -6.59699, -0.295313l -6.59699, -0.327492l -6.59699, -0.364009l -6.59699, -0.399574l -6.59699, -0.451865l -6.59699, -0.505511l -6.59699, -0.558997l -6.59699, -0.627859l -6.59699, -0.694322l -6.59699, -0.780847l
 -6.59699, -0.873989l -6.59699, -0.964061l -6.59699, -1.08922l -6.59699, -1.21331l -6.59699, -1.35691l -6.59699, -1.53067l -6.59699, -1.71617l -6.59699, -1.92578l -6.59699, -2.15926l -6.59699, -2.4188l -6.59699, -2.73465l -6.59699, -3.06852l
 -6.59699, -3.48645l -6.59699, -3.91778l -6.59699, -4.42208l -6.59699, -4.99686l -6.59699, -5.61252l -6.59699, -6.3781l -6.59699, -7.21952l -6.59699, -8.2031l -6.59699, -9.20422l -6.59699, -10.5851l -6.59699, -12.1078l -6.59699, -13.7575l -6.59699,
 -15.688l -3.2985, -8.75914l -3.2985, -9.292l -3.2985, -10.0418l -3.2985, -10.7591l -3.2985, -11.6934l -3.2985, -12.3551l -6.59699, -26.9461l -6.59699, -28.4613l -3.2985, -13.804l -3.2985, -12.2839l -1.64925, -5.7569l -1.64925, -4.67655l -1.64925,
 -3.90947l -1.64925, -3.18631l -1.64925, -2.06263l -1.64925, -0.879774l -1.64925, 0.564591l -1.64925, 1.81316l -1.64925, 3.42705l -1.64925, 4.81622l -1.64925, 6.29399l -1.64925, 7.89178l -1.64925, 9.47532l -1.64925, 10.6541l -1.64925, 12.0222l
 -1.64925, 13.3026l -1.64925, 14.1842l -1.64925, 14.9972l -3.2985, 31.0565l -3.2985, 30.3487l -1.64925, 14.6464l -1.64925, 14.2175l -1.64925, 13.4592l -1.64925, 12.5678l -1.64925, 11.6241l -1.64925, 10.5572l -1.64925, 9.51088l -1.64925, 8.38376l
 -1.64925, 7.44867l -1.64925, 6.44908l -1.64925, 5.51942l -1.64925, 4.75627l -1.64925, 3.95436l -1.64925, 3.3271l -3.2985, 4.91225l -3.2985, 3.17744l -3.2985, 1.94992l -3.2985, 1.14763z" fill="#00ff00"/>
<path d="M57.1929,370.87l 3.2985, -1.02604l 3.2985, -1.77613l 3.2985, -2.93371l 3.2985, -4.62282l 1.64925, -3.1407l 1.64925, -3.80701l 1.64925, -4.55979l 1.64925, -5.39621l 1.64925, -6.30943l 1.64925, -7.28817l 1.64925, -8.31651l 1.64925, -9.37384l
 1.64925, -10.4352l 1.64925, -11.472l 1.64925, -12.4527l 1.64925, -13.3443l 1.64925, -14.1138l 1.64925, -14.7296l 3.2985, -30.5551l 3.2985, -30.5673l 1.64925, -14.7084l 1.64925, -14.0186l 1.64925, -13.1154l 1.64925, -12.021l 1.64925, -10.7637l
 1.64925, -9.37705l 1.64925, -7.89778l 1.64925, -6.36406l 1.64925, -4.81378l 1.64925, -3.28289l 1.64925, -1.80396l 1.64925, -0.405039l 1.64925, 0.891063l 1.64925, 2.06725l 1.64925, 3.11216l 1.64925, 4.01994l 1.64925, 4.78976l 1.64925, 5.42506l
 3.2985, 12.2554l 3.2985, 13.401l 6.59699, 27.6303l 6.59699, 26.2029l 3.2985, 12.1255l 3.2985, 11.4088l 3.2985, 10.697l 3.2985, 10.0111l 3.2985, 9.36108l 3.2985, 8.75056l 6.59699, 15.8269l 6.59699, 13.839l 6.59699, 12.1124l 6.59699, 10.6121l 6.59699,
 9.30732l 6.59699, 8.1714l 6.59699, 7.18155l 6.59699, 6.31812l 6.59699, 5.56424l 6.59699, 4.90536l 6.59699, 4.32895l 6.59699, 3.82419l 6.59699, 3.38174l 6.59699, 2.99355l 6.59699, 2.65262l 6.59699, 2.35291l 6.59699, 2.08918l 6.59699, 1.8569l 6.59699,
 1.65211l 6.59699, 1.47139l 6.59699, 1.31176l 6.59699, 1.17062l 6.59699, 1.04572l 6.59699, 0.935073l 6.59699, 0.836968l 6.59699, 0.749901l 6.59699, 0.672557l 6.59699, 0.603785l 6.59699, 0.54258l 6.59699, 0.488057l 6.59699, 0.439442l 6.59699,
 0.396056l 6.59699, 0.357299l 6.59699, 0.322646l 6.59699, 0.291635l 6.59699, 0.263857l 6.59699, 0.238953l 6.59699, 0.216605l 6.59699, 0.196533l 6.59699, 0.178489l 6.59699, 0.162253l 6.59699, 0.147631l 6.59699, 0.134451l 6.59699, 0.12256l 6.59699,
 0.111823l 6.59699, 0.102119l 6.59699, 0.0933414l 6.59699, 0.0853945l 6.59699, 0.0781935l 6.59699, 0.0716627l 6.59699, 0.0657347l 4.94775, 0.0452618" fill="none" stroke="#0000ff" stroke-width="3" stroke-dasharray=" 3, 3"/>
<path d="M65.4392,364.643h -8.24624" fill="none" stroke="black"/>
<path d="M57.1929,365.591v -1.89608" fill="none" stroke="black"/>
<path d="M65.4392,364.643h 8.24624" fill="none" stroke="black"/>
<path d="M73.6854,365.591v -1.89608" fill="none" stroke="black"/>
<path d="M65.4392,364.643v -1.59283" fill="none" stroke="black"/>
<path d="M64.4911,363.051h 1.89608" fill="none" stroke="black"/>
<path d="M65.4392,364.643v 1.59283" fill="none" stroke="black"/>
<path d="M64.4911,366.236h 1.89608" fill="none" stroke="black"/>
<path d="M81.9316,330.201h -8.24624" fill="none" stroke="black"/>
<path d="M73.6854,331.149v -1.89608" fill="none" stroke="black"/>
<path d="M81.9316,330.201h 8.24624" fill="none" stroke="black"/>
<path d="M90.1779,331.149v -1.89608" fill="none" stroke="black"/>
<path d="M81.9316,330.201v -5.92699" fill="none" stroke="black"/>
<path d="M80.9836,324.274h 1.89608" fill="none" stroke="black"/>
<path d="M81.9316,330.201v 5.92699" fill="none" stroke="black"/>
<path d="M80.9836,336.128h 1.89608" fill="none" stroke="black"/>
<path d="M98.4241,179.882h -8.24624" fill="none" stroke="black"/>
<path d="M90.1779,180.83v -1.89608" fill="none" stroke="black"/>
<path d="M98.4241,179.882h 8.24624" fill="none" stroke="black"/>
<path d="M106.67,180.83v -1.89608" fill="none" stroke="black"/>
<path d="M98.4241,179.882v -14.1385" fill="none" stroke="black"/>
<path d="M97.4761,165.743h 1.89608" fill="none" stroke="black"/>
<path d="M98.4241,179.882v 14.1385" fill="none" stroke="black"/>
<path d="M97.4761,194.02h 1.89608" fill="none" stroke="black"/>
<path d="M114.917,82.1658h -8.24624" fill="none" stroke="black"/>
<path d="M106.67,83.1139v -1.89608" fill="none" stroke="black"/>
<path d="M114.917,82.1658h 8.24624" fill="none" stroke="black"/>
<path d="M123.163,83.1139v -1.89608" fill="none" stroke="black"/>
<path d="M114.917,82.1658v -16.9379" fill="none" stroke="black"/>
<path d="M113.969,65.2279h 1.89608" fill="none" stroke="black"/>
<path d="M114.917,82.1658v 16.9379" fill="none" stroke="black"/>
<path d="M113.969,99.1037h 1.89608" fill="none" stroke="black"/>
<path d="M131.409,114.013h -8.24624" fill="none" stroke="black"/>
<path d="M123.163,114.961v -1.89608" fill="none" stroke="black"/>
<path d="M131.409,114.013h 8.24624" fill="none" stroke="black"/>
<path d="M139.655,114.961v -1.89608" fill="none" stroke="black"/>
<path d="M131.409,114.013v -15.9256" fill="none" stroke="black"/>
<path d="M130.461,98.0876h 1.89608" fill="none" stroke="black"/>
<path d="M131.409,114.013v 15.9256" fill="none" stroke="black"/>
<path d="M130.461,129.939h 1.89608" fill="none" stroke="black"/>
<path d="M147.902,161.065h -8.24624" fill="none" stroke="black"/>
<path d="M139.655,162.013v -1.89608" fill="none" stroke="black"/>
<path d="M147.902,161.065h 8.24624" fill="none" stroke="black"/>
<path d="M156.148,162.013v -1.89608" fill="none" stroke="black"/>
<path d="M147.902,161.065v -13.9529" fill="none" stroke="black"/>
<path d="M146.954,147.112h 1.89608" fill="none" stroke="black"/>
<path d="M147.902,161.065v 13.9529" fill="none" stroke="black"/>
<path d="M146.954,175.018h 1.89608" fill="none" stroke="black"/>
<path d="M164.394,229.933h -8.24624" fill="none" stroke="black"/>
<path d="M156.148,230.881v -1.89608" fill="none" stroke="black"/>
<path d="M164.394,229.933h 8.24624" fill="none" stroke="black"/>
<path d="M172.64,230.881v -1.89608" fill="none" stroke="black"/>
<path d="M164.394,229.933v -10.7377" fill="none" stroke="black"/>
<path d="M163.446,219.195h 1.89608" fill="none" stroke="black"/>
<path d="M164.394,229.933v 10.7377" fill="none" stroke="black"/>
<path d="M163.446,240.671h 1.89608" fill="none" stroke="black"/>
<path d="M180.887,256.39h -8.24624" fill="none" stroke="black"/>
<path d="M172.64,257.338v -1.89608" fill="none" stroke="black"/>
<path d="M180.887,256.39h 8.24624" fill="none" stroke="black"/>
<path d="M189.133,257.338v -1.89608" fill="none" stroke="black"/>
<path d="M180.887,256.39v -9.51423" fill="none" stroke="black"/>
<path d="M179.939,246.875h 1.89608" fill="none" stroke="black"/>
<path d="M180.887,256.39v 9.51423" fill="none" stroke="black"/>
<path d="M179.939,265.904h 1.89608" fill="none" stroke="black"/>
<path d="M197.379,295.986h -8.24624" fill="none" stroke="black"/>
<path d="M189.133,296.934v -1.89608" fill="none" stroke="black"/>
<path d="M197.379,295.986h 8.24624" fill="none" stroke="black"/>
<path d="M205.625,296.934v -1.89608" fill="none" stroke="black"/>
<path d="M197.379,295.986v -6.97853" fill="none" stroke="black"/>
<path d="M196.431,289.007h 1.89608" fill="none" stroke="black"/>
<path d="M197.379,295.986v 6.97853" fill="none" stroke="black"/>
<path d="M196.431,302.964h 1.89608" fill="none" stroke="black"/>
<path d="M213.872,305.535h -8.24624" fill="none" stroke="black"/>
<path d="M205.625,306.483v -1.89608" fill="none" stroke="black"/>
<path d="M213.872,305.535h 8.24624" fill="none" stroke="black"/>
<path d="M222.118,306.483v -1.89608" fill="none" stroke="black"/>
<path d="M213.872,305.535v -6.57728" fill="none" stroke="black"/>
<path d="M212.923,298.958h 1.89608" fill="none" stroke="black"/>
<path d="M213.872,305.535v 6.57728" fill="none" stroke="black"/>
<path d="M212.923,312.113h 1.89608" fill="none" stroke="black"/>
<path d="M230.364,330.381h -8.24624" fill="none" stroke="black"/>
<path d="M222.118,331.329v -1.89608" fill="none" stroke="black"/>
<path d="M230.364,330.381h 8.24624" fill="none" stroke="black"/>
<path d="M238.61,331.329v -1.89608" fill="none" stroke="black"/>
<path d="M230.364,330.381v -4.64608" fill="none" stroke="black"/>
<path d="M229.416,325.735h 1.89608" fill="none" stroke="black"/>
<path d="M230.364,330.381v 4.64608" fill="none" stroke="black"/>
<path d="M229.416,335.027h 1.89608" fill="none" stroke="black"/>
<path d="M246.856,339.934h -8.24624" fill="none" stroke="black"/>
<path d="M238.61,340.882v -1.89608" fill="none" stroke="black"/>
<path d="M246.856,339.934h 8.24624" fill="none" stroke="black"/>
<path d="M255.103,340.882v -1.89608" fill="none" stroke="black"/>
<path d="M246.856,339.934v -3.72349" fill="none" stroke="black"/>
<path d="M245.908,336.21h 1.89608" fill="none" stroke="black"/>
<path d="M246.856,339.934v 3.72349" fill="none" stroke="black"/>
<path d="M245.908,343.657h 1.89608" fill="none" stroke="black"/>
<path d="M263.349,353.425h -8.24624" fill="none" stroke="black"/>
<path d="M255.103,354.373v -1.89608" fill="none" stroke="black"/>
<path d="M263.349,353.425h 8.24624" fill="none" stroke="black"/>
<path d="M271.595,354.373v -1.89608" fill="none" stroke="black"/>
<path d="M263.349,353.425v -2.66926" fill="none" stroke="black"/>
<path d="M262.401,350.756h 1.89608" fill="none" stroke="black"/>
<path d="M263.349,353.425v 2.66926" fill="none" stroke="black"/>
<path d="M262.401,356.094h 1.89608" fill="none" stroke="black"/>
<path d="M279.841,355.824h -8.24624" fill="none" stroke="black"/>
<path d="M271.595,356.773v -1.89608" fill="none" stroke="black"/>
<path d="M279.841,355.824h 8.24624" fill="none" stroke="black"/>
<path d="M288.088,356.773v -1.89608" fill="none" stroke="black"/>
<path d="M279.841,355.824v -2.45489" fill="none" stroke="black"/>
<path d="M278.893,353.37h 1.89608" fill="none" stroke="black"/>
<path d="M279.841,355.824v 2.45489" fill="none" stroke="black"/>
<path d="M278.893,358.279h 1.89608" fill="none" stroke="black"/>
<path d="M296.334,356.947h -8.24624" fill="none" stroke="black"/>
<path d="M288.088,357.895v -1.89608" fill="none" stroke="black"/>
<path d="M296.334,356.947h 8.24624" fill="none" stroke="black"/>
<path d="M304.58,357.895v -1.89608" fill="none" stroke="black"/>
<path d="M296.334,356.947v -2.46199" fill="none" stroke="black"/>
<path d="M295.386,354.485h 1.89608" fill="none" stroke="black"/>
<path d="M296.334,356.947v 2.46199" fill="none" stroke="black"/>
<path d="M295.386,359.409h 1.89608" fill="none" stroke="black"/>
<path d="M312.826,362.133h -8.24624" fill="none" stroke="black"/>
<path d="M304.58,363.081v -1.89608" fill="none" stroke="black"/>
<path d="M312.826,362.133h 8.24624" fill="none" stroke="black"/>
<path d="M321.073,363.081v -1.89608" fill="none" stroke="black"/>
<path d="M312.826,362.133v -1.8872" fill="none" stroke="black"/>
<path d="M311.878,360.246h 1.89608" fill="none" stroke="black"/>
<path d="M312.826,362.133v 1.8872" fill="none" stroke="black"/>
<path d="M311.878,364.02h 1.89608" fill="none" stroke="black"/>
<path d="M329.319,361.209h -8.24624" fill="none" stroke="black"/>
<path d="M321.073,362.157v -1.89608" fill="none" stroke="black"/>
<path d="M329.319,361.209h 8.24624" fill="none" stroke="black"/>
<path d="M337.565,362.157v -1.89608" fill="none" stroke="black"/>
<path d="M329.319,361.209v -2.09814" fill="none" stroke="black"/>
<path d="M328.371,359.111h 1.89608" fill="none" stroke="black"/>
<path d="M329.319,361.209v 2.09814" fill="none" stroke="black"/>
<path d="M328.371,363.307h 1.89608" fill="none" stroke="black"/>
<path d="M345.811,365.752h -8.24624" fill="none" stroke="black"/>
<path d="M337.565,366.7v -1.89608" fill="none" stroke="black"/>
<path d="M345.811,365.752h 8.24624" fill="none" stroke="black"/>
<path d="M354.058,366.7v -1.89608" fill="none" stroke="black"/>
<path d="M345.811,365.752v -1.40357" fill="none" stroke="black"/>
<path d="M344.863,364.348h 1.89608" fill="none" stroke="black"/>
<path d="M345.811,365.752v 1.40357" fill="none" stroke="black"/>
<path d="M344.863,367.156h 1.89608" fill="none" stroke="black"/>
<path d="M362.304,364.404h -8.24624" fill="none" stroke="black"/>
<path d="M354.058,365.352v -1.89608" fill="none" stroke="black"/>
<path d="M362.304,364.404h 8.24624" fill="none" stroke="black"/>
<path d="M370.55,365.352v -1.89608" fill="none" stroke="black"/>
<path d="M362.304,364.404v -1.63432" fill="none" stroke="black"/>
<path d="M361.356,362.77h 1.89608" fill="none" stroke="black"/>
<path d="M362.304,364.404v 1.63432" fill="none" stroke="black"/>
<path d="M361.356,366.038h 1.89608" fill="none" stroke="black"/>
<path d="M378.796,368.062h -8.24624" fill="none" stroke="black"/>
<path d="M370.55,369.01v -1.89608" fill="none" stroke="black"/>
<path d="M378.796,368.062h 8.24624" fill="none" stroke="black"/>
<path d="M387.043,369.01v -1.89608" fill="none" stroke="black"/>
<path d="M378.796,368.062v -1.09886" fill="none" stroke="black"/>
<path d="M377.848,366.963h 1.89608" fill="none" stroke="black"/>
<path d="M378.796,368.062v 1.09886" fill="none" stroke="black"/>
<path d="M377.848,369.161h 1.89608" fill="none" stroke="black"/>
<path d="M395.289,367.809h -8.24624" fill="none" stroke="black"/>
<path d="M387.043,368.757v -1.89608" fill="none" stroke="black"/>
<path d="M395.289,367.809h 8.24624" fill="none" stroke="black"/>
<path d="M403.535,368.757v -1.89608" fill="none" stroke="black"/>
<path d="M395.289,367.809v -1.17089" fill="none" stroke="black"/>
<path d="M394.341,366.638h 1.89608" fill="none" stroke="black"/>
<path d="M395.289,367.809v 1.17089" fill="none" stroke="black"/>
<path d="M394.341,368.98h 1.89608" fill="none" stroke="black"/>
<path d="M411.781,369.749h -8.24624" fill="none" stroke="black"/>
<path d="M403.535,370.697v -1.89608" fill="none" stroke="black"/>
<path d="M411.781,369.749h 8.24624" fill="none" stroke="black"/>
<path d="M420.028,370.697v -1.89608" fill="none" stroke="black"/>
<path d="M411.781,369.749v -1.05712" fill="none" stroke="black"/>
<path d="M410.833,368.692h 1.89608" fill="none" stroke="black"/>
<path d="M411.781,369.749v 1.05712" fill="none" stroke="black"/>
<path d="M410.833,370.806h 1.89608" fill="none" stroke="black"/>
<path d="M428.274,370.159h -8.24624" fill="none" stroke="black"/>
<path d="M420.028,371.107v -1.89608" fill="none" stroke="black"/>
<path d="M428.274,370.159h 8.24624" fill="none" stroke="black"/>
<path d="M436.52,371.107v -1.89608" fill="none" stroke="black"/>
<path d="M428.274,370.159v -0.625187" fill="none" stroke="black"/>
<path d="M427.326,369.534h 1.89608" fill="none" stroke="black"/>
<path d="M428.274,370.159v 0.625187" fill="none" stroke="black"/>
<path d="M427.326,370.784h 1.89608" fill="none" stroke="black"/>
<path d="M444.766,370.969h -8.24624" fill="none" stroke="black"/>
<path d="M436.52,371.917v -1.89608" fill="none" stroke="black"/>
<path d="M444.766,370.969h 8.24624" fill="none" stroke="black"/>
<path d="M453.013,371.917v -1.89608" fill="none" stroke="black"/>
<path d="M444.766,370.969v -0.461621" fill="none" stroke="black"/>
<path d="M443.818,370.508h 1.89608" fill="none" stroke="black"/>
<path d="M444.766,370.969v 0.461621" fill="none" stroke="black"/>
<path d="M443.818,371.431h 1.89608" fill="none" stroke="black"/>
<path d="M461.259,371.018h -8.24624" fill="none" stroke="black"/>
<path d="M453.013,371.966v -1.89608" fill="none" stroke="black"/>
<path d="M461.259,371.018h 8.24624" fill="none" stroke="black"/>
<path d="M469.505,371.966v -1.89608" fill="none" stroke="black"/>
<path d="M461.259,371.018v -0.453334" fill="none" stroke="black"/>
<path d="M460.311,370.564h 1.89608" fill="none" stroke="black"/>
<path d="M461.259,371.018v 0.453334" fill="none" stroke="black"/>
<path d="M460.311,371.471h 1.89608" fill="none" stroke="black"/>
<path d="M477.751,370.642h -8.24624" fill="none" stroke="black"/>
<path d="M469.505,371.59v -1.89608" fill="none" stroke="black"/>
<path d="M477.751,370.642h 8.24624" fill="none" stroke="black"/>
<path d="M485.997,371.59v -1.89608" fill="none" stroke="black"/>
<path d="M477.751,370.642v -0.592204" fill="none" stroke="black"/>
<path d="M476.803,370.05h 1.89608" fill="none" stroke="black"/>
<path d="M477.751,370.642v 0.592204" fill="none" stroke="black"/>
<path d="M476.803,371.234h 1.89608" fill="none" stroke="black"/>
<path d="M494.244,369.653h -8.24624" fill="none" stroke="black"/>
<path d="M485.997,370.601v -1.89608" fill="none" stroke="black"/>
<path d="M494.244,369.653h 8.24624" fill="none" stroke="black"/>
<path d="M502.49,370.601v -1.89608" fill="none" stroke="black"/>
<path d="M494.244,369.653v -0.837637" fill="none" stroke="black"/>
<path d="M493.296,368.815h 1.89608" fill="none" stroke="black"/>
<path d="M494.244,369.653v 0.837637" fill="none" stroke="black"/>
<path d="M493.296,370.491h 1.89608" fill="none" stroke="black"/>
<path d="M510.736,370.463h -8.24624" fill="none" stroke="black"/>
<path d="M502.49,371.411v -1.89608" fill="none" stroke="black"/>
<path d="M510.736,370.463z" fill="none" stroke="black"/>
<path d="M510.736,370.463v -0.586276" fill="none" stroke="black"/>
<path d="M509.788,369.876h 0.948042" fill="none" stroke="black"/>
<path d="M510.736,370.463v 0.586276" fill="none" stroke="black"/>
<path d="M509.788,371.049h 0.948042" fill="none" stroke="black"/>
<g stroke="black" stroke-width="1" fill="black">
<circle cx="65.4392" cy="364.643" r="1.89608"/>
<circle cx="81.9316" cy="330.201" r="1.89608"/>
<circle cx="98.4241" cy="179.882" r="1.89608"/>
<circle cx="114.917" cy="82.1658" r="1.89608"/>
<circle cx="131.409" cy="114.013" r="1.89608"/>
<circle cx="147.902" cy="161.065" r="1.89608"/>
<circle cx="164.394" cy="229.933" r="1.89608"/>
<circle cx="180.887" cy="256.39" r="1.89608"/>
<circle cx="197.379" cy="295.986" r="1.89608"/>
<circle cx="213.872" cy="305.535" r="1.89608"/>
<circle cx="230.364" cy="330.381" r="1.89608"/>
<circle cx="246.856" cy="339.934" r="1.89608"/>
<circle cx="263.349" cy="353.425" r="1.89608"/>
<circle cx="279.841" cy="355.824" r="1.89608"/>
<circle cx="296.334" cy="356.947" r="1.89608"/>
<circle cx="312.826" cy="362.133" r="1.89608"/>
<circle cx="329.319" cy="361.209" r="1.89608"/>
<circle cx="345.811" cy="365.752" r="1.89608"/>
<circle cx="362.304" cy="364.404" r="1.89608"/>
<circle cx="378.796" cy="368.062" r="1.89608"/>
<circle cx="395.289" cy="367.809" r="1.89608"/>
<circle cx="411.781" cy="369.749" r="1.89608"/>
<circle cx="428.274" cy="370.159" r="1.89608"/>
<circle cx="444.766" cy="370.969" r="1.89608"/>
<circle cx="461.259" cy="371.018" r="1.89608"/>
<circle cx="477.751" cy="370.642" r="1.89608"/>
<circle cx="494.244" cy="369.653" r="1.89608"/>
<circle cx="510.736" cy="370.463" r="1.89608"/>
</g>
<path d="M57.1929,372.012h 453.543" fill="none" stroke="black"/>
<path d="M57.1929,362.091v 9.92031" fill="none" stroke="black"/>
<path d="M77.8085,367.052v 4.96016" fill="none" stroke="black"/>
<path d="M98.4241,367.052v 4.96016" fill="none" stroke="black"/>
<path d="M119.04,367.052v 4.96016" fill="none" stroke="black"/>
<path d="M139.655,362.091v 9.92031" fill="none" stroke="black"/>
<path d="M160.271,367.052v 4.96016" fill="none" stroke="black"/>
<path d="M180.887,367.052v 4.96016" fill="none" stroke="black"/>
<path d="M201.502,367.052v 4.96016" fill="none" stroke="black"/>
<path d="M222.118,362.091v 9.92031" fill="none" stroke="black"/>
<path d="M242.733,367.052v 4.96016" fill="none" stroke="black"/>
<path d="M263.349,367.052v 4.96016" fill="none" stroke="black"/>
<path d="M283.965,367.052v 4.96016" fill="none" stroke="black"/>
<path d="M304.58,362.091v 9.92031" fill="none" stroke="black"/>
<path d="M325.196,367.052v 4.96016" fill="none" stroke="black"/>
<path d="M345.811,367.052v 4.96016" fill="none" stroke="black"/>
<path d="M366.427,367.052v 4.96016" fill="none" stroke="black"/>
<path d="M387.043,362.091v 9.92031" fill="none" stroke="black"/>
<path d="M407.658,367.052v 4.96016" fill="none" stroke="black"/>
<path d="M428.274,367.052v 4.96016" fill="none" stroke="black"/>
<path d="M448.889,367.052v 4.96016" fill="none" stroke="black"/>
<path d="M469.505,362.091v 9.92031" fill="none" stroke="black"/>
<path d="M469.505,362.091v 9.92031" fill="none" stroke="black"/>
<path d="M490.121,367.052v 4.96016" fill="none" stroke="black"/>
<path d="M510.736,367.052v 4.96016" fill="none" stroke="black"/>
<path d="M57.1929,372.012v -330.677" fill="none" stroke="black"/>
<path d="M70.7992,372.012h -13.6063" fill="none" stroke="black"/>
<path d="M63.9961,358.785h -6.80315" fill="none" stroke="black"/>
<path d="M63.9961,345.558h -6.80315" fill="none" stroke="black"/>
<path d="M63.9961,332.33h -6.80315" fill="none" stroke="black"/>
<path d="M63.9961,319.103h -6.80315" fill="none" stroke="black"/>
<path d="M70.7992,305.876h -13.6063" fill="none" stroke="black"/>
<path d="M63.9961,292.649h -6.80315" fill="none" stroke="black"/>
<path d="M63.9961,279.422h -6.80315" fill="none" stroke="black"/>
<path d="M63.9961,266.195h -6.80315" fill="none" stroke="black"/>
<path d="M63.9961,252.968h -6.80315" fill="none" stroke="black"/>
<path d="M70.7992,239.741h -13.6063" fill="none" stroke="black"/>
<path d="M63.9961,226.514h -6.80315" fill="none" stroke="black"/>
<path d="M63.9961,213.287h -6.80315" fill="none" stroke="black"/>
<path d="M63.9961,200.06h -6.80315" fill="none" stroke="black"/>
<path d="M63.9961,186.833h -6.80315" fill="none" stroke="black"/>
<path d="M70.7992,173.605h -13.6063" fill="none" stroke="black"/>
<path d="M63.9961,160.378h -6.80315" fill="none" stroke="black"/>
<path d="M63.9961,147.151h -6.80315" fill="none" stroke="black"/>
<path d="M63.9961,133.924h -6.80315" fill="none" stroke="black"/>
<path d="M63.9961,120.697h -6.80315" fill="none" stroke="black"/>
<path d="M70.7992,107.47h -13.6063" fill="none" stroke="black"/>
<path d="M63.9961,94.243h -6.80315" fill="none" stroke="black"/>
<path d="M63.9961,81.0159h -6.80315" fill="none" stroke="black"/>
<path d="M63.9961,67.7888h -6.80315" fill="none" stroke="black"/>
<path d="M63.9961,54.5617h -6.80315" fill="none" stroke="black"/>
<path d="M70.7992,41.3346h -13.6063" fill="none" stroke="black"/>
<rect x="340.657" y="90.9362" width="113.386" height="33.0677" fill="white"/>
<path d="M340.657,124.004h 113.386" fill="none" stroke="black"/>
<path d="M454.043,124.004v -33.0677" fill="none" stroke="black"/>
<path d="M454.043,90.9362h -113.386" fill="none" stroke="black"/>
<path d="M340.657,90.9362v 33.0677" fill="none" stroke="black"/>
<text xml:space="preserve" x="368.814" y="98.5964" fill="black" font-size="7.08378" font-family="Helvetica">MC signal region fit ErfExp</text>
<path d="M344.909,96.4475h 19.8425" fill="none" stroke="#0000ff" stroke-width="3" stroke-dasharray=" 3, 3"/>
<text xml:space="preserve" x="399.152" y="109.499" fill="black" font-size="7.08378" font-family="Times">&#0963;</text>
<text xml:space="preserve" x="368.814" y="109.499" fill="black" font-size="7.08378" font-family="Helvetica">Fit Error 1 </text>
<path d="M344.909,111.328h 19.8425v -7.7158h -19.8425z" fill="#00ff00"/>
<path d="M344.909,103.612h 19.8425" fill="none" stroke="white"/>
<path d="M344.909,111.328h 19.8425" fill="none" stroke="white"/>
<path d="M364.752,111.328v -7.7158" fill="none" stroke="white"/>
<path d="M344.909,111.328v -7.7158" fill="none" stroke="white"/>
<text xml:space="preserve" x="400.1" y="120.875" fill="black" font-size="7.08378" font-family="Times">&#0963;</text>
<text xml:space="preserve" x="368.814" y="120.875" fill="black" font-size="7.08378" font-family="Helvetica">Fit Error 2 </text>
<path d="M344.909,122.351h 19.8425v -7.7158h -19.8425z" fill="#ffff00"/>
<path d="M344.909,114.635h 19.8425" fill="none" stroke="white"/>
<path d="M344.909,122.351h 19.8425" fill="none" stroke="white"/>
<path d="M364.752,122.351v -7.7158" fill="none" stroke="white"/>
<path d="M344.909,122.351v -7.7158" fill="none" stroke="white"/>
<text xml:space="preserve" x="169.251" y="19.9089" fill="black" font-size="20.0175" font-family="Helvetica">Background MC (W band)</text></svg>
