<?xml version="1.0" standalone="no"?>
<svg width="567.429" height="413.846" viewBox="0 0 567.429 413.846" xmlns="http://www.w3.org/2000/svg" shape-rendering="crispEdges">
<title>
pdf.svg
</title>
<desc>
Creator: ROOT Version 6.10/09
CreationDate: Mon May 25 00:00:18 2020</desc>
<defs>
</defs>
<rect x="0.5" y="0" width="566.929" height="413.346" fill="white"/>
<rect x="57.1929" y="41.3346" width="453.543" height="330.677" fill="white"/>
<rect x="57.1929" y="41.3346" width="453.543" height="330.677" fill="none" stroke="black"/>
<rect x="57.1929" y="41.3346" width="453.543" height="330.677" fill="white"/>
<rect x="57.1929" y="41.3346" width="453.543" height="330.677" fill="none" stroke="black"/>
<path d="M59.4606,371.815l 4.53543, -0.325893l 4.53543, -0.758729l 4.53543, -1.61959l 4.53543, -3.16979l 4.53543, -5.6881l 4.53543, -9.3587l 4.53543, -14.1181l 4.53543, -19.5277l 4.53543, -24.7651l 4.53543, -28.7967l 4.53543, -30.7017l 4.53543,
 -30.0122l 4.53543, -26.8997l 4.53543, -22.1061l 4.53543, -16.6569l 4.53543, -11.5077l 4.53543, -7.28945l 4.53543, -4.23364l 4.53543, -2.25447l 4.53543, -1.10074l 4.53543, -0.492756l 4.53543, -0.202248l 4.53543, -0.0761101l 4.53543, -0.0262604l
 4.53543, -0.00830728l 4.53543, -0.00240943l 4.53543, -0.000640712l 4.53543, -0.000156208l 4.53543, -3.49166e-05l 4.53543, -7.15559e-06l 4.53543, -1.34444e-06l 4.53543, -2.31589e-07l 4.53543, -3.65737e-08l 4.53543, -5.29525e-09l 4.53543,
 -7.02869e-10l 4.53543, -8.55493e-11l 4.53543, -9.60654e-12l 4.53543, -8.52651e-13l 4.53543, -1.7053e-13h 45.3543" fill="none" stroke="#ff0000" stroke-width="2"/>
<path d="M281.697,110.115h 222.236" fill="none" stroke="#ff0000" stroke-width="2"/>
<path d="M503.933,110.115h 4.53543" fill="none" stroke="#ff0000" stroke-width="2"/>
<path d="M57.1929,372.012h 453.543" fill="none" stroke="black"/>
<path d="M57.1929,362.091v 9.92031" fill="none" stroke="black"/>
<path d="M77.8085,367.052v 4.96016" fill="none" stroke="black"/>
<path d="M98.4241,367.052v 4.96016" fill="none" stroke="black"/>
<path d="M119.04,367.052v 4.96016" fill="none" stroke="black"/>
<path d="M139.655,362.091v 9.92031" fill="none" stroke="black"/>
<path d="M160.271,367.052v 4.96016" fill="none" stroke="black"/>
<path d="M180.887,367.052v 4.96016" fill="none" stroke="black"/>
<path d="M201.502,367.052v 4.96016" fill="none" stroke="black"/>
<path d="M222.118,362.091v 9.92031" fill="none" stroke="black"/>
<path d="M242.733,367.052v 4.96016" fill="none" stroke="black"/>
<path d="M263.349,367.052v 4.96016" fill="none" stroke="black"/>
<path d="M283.965,367.052v 4.96016" fill="none" stroke="black"/>
<path d="M304.58,362.091v 9.92031" fill="none" stroke="black"/>
<path d="M325.196,367.052v 4.96016" fill="none" stroke="black"/>
<path d="M345.811,367.052v 4.96016" fill="none" stroke="black"/>
<path d="M366.427,367.052v 4.96016" fill="none" stroke="black"/>
<path d="M387.043,362.091v 9.92031" fill="none" stroke="black"/>
<path d="M407.658,367.052v 4.96016" fill="none" stroke="black"/>
<path d="M428.274,367.052v 4.96016" fill="none" stroke="black"/>
<path d="M448.889,367.052v 4.96016" fill="none" stroke="black"/>
<path d="M469.505,362.091v 9.92031" fill="none" stroke="black"/>
<path d="M469.505,362.091v 9.92031" fill="none" stroke="black"/>
<path d="M490.121,367.052v 4.96016" fill="none" stroke="black"/>
<path d="M510.736,367.052v 4.96016" fill="none" stroke="black"/>
<text xml:space="preserve" x="46.006" y="385.379" fill="black" font-size="13.7726" font-family="Helvetica">400</text>
<text xml:space="preserve" x="128.486" y="385.379" fill="black" font-size="13.7726" font-family="Helvetica">600</text>
<text xml:space="preserve" x="210.965" y="385.379" fill="black" font-size="13.7726" font-family="Helvetica">800</text>
<text xml:space="preserve" x="289.653" y="385.379" fill="black" font-size="13.7726" font-family="Helvetica">1000</text>
<text xml:space="preserve" x="372.132" y="385.379" fill="black" font-size="13.7726" font-family="Helvetica">1200</text>
<text xml:space="preserve" x="454.612" y="385.379" fill="black" font-size="13.7726" font-family="Helvetica">1400</text>
<path d="M57.1929,372.012v -330.677" fill="none" stroke="black"/>
<path d="M70.7992,372.012h -13.6063" fill="none" stroke="black"/>
<path d="M63.9961,358.785h -6.80315" fill="none" stroke="black"/>
<path d="M63.9961,345.558h -6.80315" fill="none" stroke="black"/>
<path d="M63.9961,332.33h -6.80315" fill="none" stroke="black"/>
<path d="M63.9961,319.103h -6.80315" fill="none" stroke="black"/>
<path d="M70.7992,305.876h -13.6063" fill="none" stroke="black"/>
<path d="M63.9961,292.649h -6.80315" fill="none" stroke="black"/>
<path d="M63.9961,279.422h -6.80315" fill="none" stroke="black"/>
<path d="M63.9961,266.195h -6.80315" fill="none" stroke="black"/>
<path d="M63.9961,252.968h -6.80315" fill="none" stroke="black"/>
<path d="M70.7992,239.741h -13.6063" fill="none" stroke="black"/>
<path d="M63.9961,226.514h -6.80315" fill="none" stroke="black"/>
<path d="M63.9961,213.287h -6.80315" fill="none" stroke="black"/>
<path d="M63.9961,200.06h -6.80315" fill="none" stroke="black"/>
<path d="M63.9961,186.833h -6.80315" fill="none" stroke="black"/>
<path d="M70.7992,173.605h -13.6063" fill="none" stroke="black"/>
<path d="M63.9961,160.378h -6.80315" fill="none" stroke="black"/>
<path d="M63.9961,147.151h -6.80315" fill="none" stroke="black"/>
<path d="M63.9961,133.924h -6.80315" fill="none" stroke="black"/>
<path d="M63.9961,120.697h -6.80315" fill="none" stroke="black"/>
<path d="M70.7992,107.47h -13.6063" fill="none" stroke="black"/>
<path d="M63.9961,94.243h -6.80315" fill="none" stroke="black"/>
<path d="M63.9961,81.0159h -6.80315" fill="none" stroke="black"/>
<path d="M63.9961,67.7888h -6.80315" fill="none" stroke="black"/>
<path d="M63.9961,54.5617h -6.80315" fill="none" stroke="black"/>
<path d="M70.7992,41.3346h -13.6063" fill="none" stroke="black"/>
<text xml:space="preserve" x="46.9541" y="376.373" fill="black" font-size="13.7726" font-family="Helvetica">0</text>
<text xml:space="preserve" x="32.2594" y="310.484" fill="black" font-size="13.7726" font-family="Helvetica">500</text>
<text xml:space="preserve" x="25.1491" y="244.121" fill="black" font-size="13.7726" font-family="Helvetica">1000</text>
<text xml:space="preserve" x="25.1491" y="178.232" fill="black" font-size="13.7726" font-family="Helvetica">1500</text>
<text xml:space="preserve" x="25.1491" y="111.869" fill="black" font-size="13.7726" font-family="Helvetica">2000</text>
<text xml:space="preserve" x="25.1491" y="45.98" fill="black" font-size="13.7726" font-family="Helvetica">2500</text>
<path d="M86.6732,41.3346l 4.53543, 1.84108l 4.53543, 30.4479l 4.53543, 27.4824l 4.53543, 24.8184l 4.53543, 22.424l 4.53543, 20.2709l 4.53543, 18.3339l 4.53543, 16.5904l 4.53543, 15.0202l 4.53543, 13.6056l 4.53543, 12.3304l 4.53543, 11.1804l 4.53543,
 10.1428l 4.53543, 9.20614l 4.53543, 8.36018l 4.53543, 7.59578l 4.53543, 6.90475l 4.53543, 6.27975l 4.53543, 5.71419l 4.53543, 5.20217l 4.53543, 4.73842l 4.53543, 4.31816l 4.53543, 3.93716l 4.53543, 3.59156l 4.53543, 3.27794l 4.53543, 2.9932l
 4.53543, 2.73456l 4.53543, 2.49951l 4.53543, 2.2858l 4.53543, 2.0914l 4.53543, 1.91449l 4.53543, 1.75341l 4.53543, 1.60668l 4.53543, 1.47295l 4.53543, 1.35103l 4.53543, 1.23981l 4.53543, 1.1383l 4.53543, 1.04562l 4.53543, 0.96096l 4.53543, 0.883587l
 4.53543, 0.812842l 4.53543, 0.748127l 4.53543, 0.688902l 4.53543, 0.634674l 4.53543, 0.585001l 4.53543, 0.539477l 4.53543, 0.497738l 4.53543, 0.459451l 4.53543, 0.424314" fill="none" stroke="#ff0000" stroke-width="2"/>
<path d="M308.909,366.311l 4.53543, 0.392054l 4.53543, 0.362421l 4.53543, 0.335189l 4.53543, 0.310153l 4.53543, 0.287124l 4.53543, 0.265933l 4.53543, 0.246423l 4.53543, 0.228454l 4.53543, 0.211895l 4.53543, 0.19663l 4.53543, 0.182552l 4.53543,
 0.169561l 4.53543, 0.157569l 4.53543, 0.146494l 4.53543, 0.136262l 4.53543, 0.126803l 4.53543, 0.118056l 4.53543, 0.109964l 4.53543, 0.102474l 4.53543, 0.0955382l 4.53543, 0.0891131l 4.53543, 0.0831583l 4.53543, 0.077637l 4.53543, 0.0725155l
 4.53543, 0.0677627l 4.53543, 0.0633501l 4.53543, 0.0592517l 4.53543, 0.0554434l 4.53543, 0.0519032l 4.53543, 0.0486108l 4.53543, 0.0455476l 4.53543, 0.0426963l 4.53543, 0.0400411l 4.53543, 0.0375677l 4.53543, 0.0352624l 4.53543, 0.033113l 4.53543,
 0.0311081l 4.53543, 0.0292373l 4.53543, 0.0274907l 4.53543, 0.0258595l 4.53543, 0.0243354l 4.53543, 0.0229108l 4.53543, 0.0215786l 4.53543, 0.0203323" fill="none" stroke="#ff0000" stroke-width="2"/>
<text xml:space="preserve" x="137.492" y="19.9089" fill="black" font-size="19.5739" font-family="Helvetica">1980*(1.+TMath::Erf((x-[0])/[1]))/2.</text></svg>
