<?xml version="1.0" standalone="no"?>
<svg width="567.429" height="413.846" viewBox="0 0 567.429 413.846" xmlns="http://www.w3.org/2000/svg" shape-rendering="crispEdges">
<title>
pdf.svg
</title>
<desc>
Creator: ROOT Version 6.10/09
CreationDate: Thu Apr 23 13:14:16 2020</desc>
<defs>
</defs>
<rect x="0.5" y="0" width="566.929" height="413.346" fill="white"/>
<rect x="57.1929" y="41.3346" width="453.543" height="330.677" fill="white"/>
<rect x="57.1929" y="41.3346" width="453.543" height="330.677" fill="none" stroke="black"/>
<rect x="57.1929" y="41.3346" width="453.543" height="330.677" fill="white"/>
<rect x="57.1929" y="41.3346" width="453.543" height="330.677" fill="none" stroke="black"/>
<path d="M59.4606,371.599l 4.53543, -0.633223l 4.53543, -1.39931l 4.53543, -2.83409l 4.53543, -5.26085l 4.53543, -8.95038l 4.53543, -13.9564l 4.53543, -19.9457l 4.53543, -26.126l 4.53543, -31.365l 4.53543, -34.5117l 4.53543, -34.8044l 4.53543,
 -32.17l 4.53543, -27.2532l 4.53543, -21.1607l 4.53543, -15.0588l 4.53543, -9.82197l 4.53543, -5.87153l 4.53543, -3.21697l 4.53543, -1.61543l 4.53543, -0.743478l 4.53543, -0.313608l 4.53543, -0.12124l 4.53543, -0.0429574l 4.53543, -0.0139496l
 4.53543, -0.00415163l 4.53543, -0.00113241l 4.53543, -0.000283081l 4.53543, -6.48546e-05l 4.53543, -1.36173e-05l 4.53543, -2.62033e-06l 4.53543, -4.62097e-07l 4.53543, -7.46827e-08l 4.53543, -1.10615e-08l 4.53543, -1.50141e-09l 4.53543,
 -1.86844e-10l 4.53543, -2.12594e-11l 4.53543, -2.16005e-12l 4.53543, -2.84217e-13h 49.8898" fill="none" stroke="#ff0000" stroke-width="2"/>
<path d="M281.697,74.4023h 222.236" fill="none" stroke="#ff0000" stroke-width="2"/>
<path d="M503.933,74.4023h 4.53543" fill="none" stroke="#ff0000" stroke-width="2"/>
<path d="M57.1929,372.012h 453.543" fill="none" stroke="black"/>
<path d="M57.1929,362.091v 9.92031" fill="none" stroke="black"/>
<path d="M77.8085,367.052v 4.96016" fill="none" stroke="black"/>
<path d="M98.4241,367.052v 4.96016" fill="none" stroke="black"/>
<path d="M119.04,367.052v 4.96016" fill="none" stroke="black"/>
<path d="M139.655,362.091v 9.92031" fill="none" stroke="black"/>
<path d="M160.271,367.052v 4.96016" fill="none" stroke="black"/>
<path d="M180.887,367.052v 4.96016" fill="none" stroke="black"/>
<path d="M201.502,367.052v 4.96016" fill="none" stroke="black"/>
<path d="M222.118,362.091v 9.92031" fill="none" stroke="black"/>
<path d="M242.733,367.052v 4.96016" fill="none" stroke="black"/>
<path d="M263.349,367.052v 4.96016" fill="none" stroke="black"/>
<path d="M283.965,367.052v 4.96016" fill="none" stroke="black"/>
<path d="M304.58,362.091v 9.92031" fill="none" stroke="black"/>
<path d="M325.196,367.052v 4.96016" fill="none" stroke="black"/>
<path d="M345.811,367.052v 4.96016" fill="none" stroke="black"/>
<path d="M366.427,367.052v 4.96016" fill="none" stroke="black"/>
<path d="M387.043,362.091v 9.92031" fill="none" stroke="black"/>
<path d="M407.658,367.052v 4.96016" fill="none" stroke="black"/>
<path d="M428.274,367.052v 4.96016" fill="none" stroke="black"/>
<path d="M448.889,367.052v 4.96016" fill="none" stroke="black"/>
<path d="M469.505,362.091v 9.92031" fill="none" stroke="black"/>
<path d="M469.505,362.091v 9.92031" fill="none" stroke="black"/>
<path d="M490.121,367.052v 4.96016" fill="none" stroke="black"/>
<path d="M510.736,367.052v 4.96016" fill="none" stroke="black"/>
<text xml:space="preserve" x="46.006" y="385.379" fill="black" font-size="13.7726" font-family="Helvetica">400</text>
<text xml:space="preserve" x="128.486" y="385.379" fill="black" font-size="13.7726" font-family="Helvetica">600</text>
<text xml:space="preserve" x="210.965" y="385.379" fill="black" font-size="13.7726" font-family="Helvetica">800</text>
<text xml:space="preserve" x="289.653" y="385.379" fill="black" font-size="13.7726" font-family="Helvetica">1000</text>
<text xml:space="preserve" x="372.132" y="385.379" fill="black" font-size="13.7726" font-family="Helvetica">1200</text>
<text xml:space="preserve" x="454.612" y="385.379" fill="black" font-size="13.7726" font-family="Helvetica">1400</text>
<path d="M57.1929,372.012v -330.677" fill="none" stroke="black"/>
<path d="M70.7992,372.012h -13.6063" fill="none" stroke="black"/>
<path d="M63.9961,358.785h -6.80315" fill="none" stroke="black"/>
<path d="M63.9961,345.558h -6.80315" fill="none" stroke="black"/>
<path d="M63.9961,332.33h -6.80315" fill="none" stroke="black"/>
<path d="M63.9961,319.103h -6.80315" fill="none" stroke="black"/>
<path d="M70.7992,305.876h -13.6063" fill="none" stroke="black"/>
<path d="M63.9961,292.649h -6.80315" fill="none" stroke="black"/>
<path d="M63.9961,279.422h -6.80315" fill="none" stroke="black"/>
<path d="M63.9961,266.195h -6.80315" fill="none" stroke="black"/>
<path d="M63.9961,252.968h -6.80315" fill="none" stroke="black"/>
<path d="M70.7992,239.741h -13.6063" fill="none" stroke="black"/>
<path d="M63.9961,226.514h -6.80315" fill="none" stroke="black"/>
<path d="M63.9961,213.287h -6.80315" fill="none" stroke="black"/>
<path d="M63.9961,200.06h -6.80315" fill="none" stroke="black"/>
<path d="M63.9961,186.833h -6.80315" fill="none" stroke="black"/>
<path d="M70.7992,173.605h -13.6063" fill="none" stroke="black"/>
<path d="M63.9961,160.378h -6.80315" fill="none" stroke="black"/>
<path d="M63.9961,147.151h -6.80315" fill="none" stroke="black"/>
<path d="M63.9961,133.924h -6.80315" fill="none" stroke="black"/>
<path d="M63.9961,120.697h -6.80315" fill="none" stroke="black"/>
<path d="M70.7992,107.47h -13.6063" fill="none" stroke="black"/>
<path d="M63.9961,94.243h -6.80315" fill="none" stroke="black"/>
<path d="M63.9961,81.0159h -6.80315" fill="none" stroke="black"/>
<path d="M63.9961,67.7888h -6.80315" fill="none" stroke="black"/>
<path d="M63.9961,54.5617h -6.80315" fill="none" stroke="black"/>
<path d="M70.7992,41.3346h -13.6063" fill="none" stroke="black"/>
<text xml:space="preserve" x="46.9541" y="376.373" fill="black" font-size="13.7726" font-family="Helvetica">0</text>
<text xml:space="preserve" x="32.2594" y="310.484" fill="black" font-size="13.7726" font-family="Helvetica">500</text>
<text xml:space="preserve" x="25.1491" y="244.121" fill="black" font-size="13.7726" font-family="Helvetica">1000</text>
<text xml:space="preserve" x="25.1491" y="178.232" fill="black" font-size="13.7726" font-family="Helvetica">1500</text>
<text xml:space="preserve" x="25.1491" y="111.869" fill="black" font-size="13.7726" font-family="Helvetica">2000</text>
<text xml:space="preserve" x="25.1491" y="45.98" fill="black" font-size="13.7726" font-family="Helvetica">2500</text>
<path d="M91.2087,41.3346l 4.53543, 10.6748l 4.53543, 29.0851l 4.53543, 26.3013l 4.53543, 23.7959l 4.53543, 21.5398l 4.53543, 19.5074l 4.53543, 17.6755l 4.53543, 16.0236l 4.53543, 14.5333l 4.53543, 13.1882l 4.53543, 11.9735l 4.53543, 10.876l 4.53543,
 9.8841l 4.53543, 8.98707l 4.53543, 8.17549l 4.53543, 7.44088l 4.53543, 6.77562l 4.53543, 6.17288l 4.53543, 5.62653l 4.53543, 5.13106l 4.53543, 4.68153l 4.53543, 4.27348l 4.53543, 3.90291l 4.53543, 3.56622l 4.53543, 3.26017l 4.53543, 2.98185l
 4.53543, 2.72862l 4.53543, 2.49812l 4.53543, 2.2882l 4.53543, 2.09694l 4.53543, 1.92261l 4.53543, 1.76363l 4.53543, 1.61857l 4.53543, 1.48617l 4.53543, 1.36526l 4.53543, 1.2548l 4.53543, 1.15383l 4.53543, 1.06149l 4.53543, 0.977016l 4.53543,
 0.899696l 4.53543, 0.828894l 4.53543, 0.764029l 4.53543, 0.704578l 4.53543, 0.650064l 4.53543, 0.600054l 4.53543, 0.554155l 4.53543, 0.512011l 4.53543, 0.473296l 4.53543, 0.437716" fill="none" stroke="#ff0000" stroke-width="2"/>
<path d="M313.445,366.009l 4.53543, 0.405003l 4.53543, 0.374912l 4.53543, 0.34722l 4.53543, 0.321725l 4.53543, 0.298242l 4.53543, 0.276602l 4.53543, 0.256653l 4.53543, 0.238254l 4.53543, 0.221277l 4.53543, 0.205605l 4.53543, 0.191131l 4.53543,
 0.177759l 4.53543, 0.165399l 4.53543, 0.153969l 4.53543, 0.143394l 4.53543, 0.133607l 4.53543, 0.124545l 4.53543, 0.116151l 4.53543, 0.108371l 4.53543, 0.101158l 4.53543, 0.0944684l 4.53543, 0.0882605l 4.53543, 0.0824976l 4.53543, 0.0771454l
 4.53543, 0.0721726l 4.53543, 0.0675504l 4.53543, 0.0632521l 4.53543, 0.0592535l 4.53543, 0.055532l 4.53543, 0.052067l 4.53543, 0.0488394l 4.53543, 0.0458318l 4.53543, 0.043028l 4.53543, 0.0404131l 4.53543, 0.0379733l 4.53543, 0.0356959l 4.53543,
 0.0335694l 4.53543, 0.0315829l 4.53543, 0.0297263l 4.53543, 0.0279905l 4.53543, 0.0263671l 4.53543, 0.0248479l 4.53543, 0.0234259" fill="none" stroke="#ff0000" stroke-width="2"/>
<text xml:space="preserve" x="137.492" y="19.9089" fill="black" font-size="19.5739" font-family="Helvetica">2250*(1.+TMath::Erf((x-[0])/[1]))/2.</text></svg>
