<?xml version="1.0" standalone="no"?>
<svg width="567.429" height="413.846" viewBox="0 0 567.429 413.846" xmlns="http://www.w3.org/2000/svg" shape-rendering="crispEdges">
<title>
pdf.svg
</title>
<desc>
Creator: ROOT Version 6.10/09
CreationDate: Tue Mar 31 17:54:24 2020</desc>
<defs>
</defs>
<rect x="0.5" y="0" width="566.929" height="413.346" fill="white"/>
<rect x="57.1929" y="41.3346" width="453.543" height="330.677" fill="white"/>
<rect x="57.1929" y="41.3346" width="453.543" height="330.677" fill="none" stroke="black"/>
<rect x="57.1929" y="41.3346" width="453.543" height="330.677" fill="white"/>
<rect x="57.1929" y="41.3346" width="453.543" height="330.677" fill="none" stroke="black"/>
<path d="M59.4606,372.012l 4.53543, -2.84217e-13l 4.53543, -2.84217e-12l 4.53543, -2.70575e-11l 4.53543, -2.36639e-10l 4.53543, -1.8955e-09l 4.53543, -1.39113e-08l 4.53543, -9.35328e-08l 4.53543, -5.76134e-07l 4.53543, -3.25125e-06l 4.53543,
 -1.68093e-05l 4.53543, -7.96198e-05l 4.53543, -0.000345518l 4.53543, -0.00137373l 4.53543, -0.00500399l 4.53543, -0.0167l 4.53543, -0.051063l 4.53543, -0.14305l 4.53543, -0.367166l 4.53543, -0.863443l 4.53543, -1.86039l 4.53543, -3.67259l 4.53543,
 -6.64267l 4.53543, -11.0082l 4.53543, -16.7145l 4.53543, -23.2528l 4.53543, -29.6391l 4.53543, -34.6147l 4.53543, -37.0393l 4.53543, -36.3138l 4.53543, -32.6203l 4.53543, -26.8479l 4.53543, -20.2461l 4.53543, -13.9886l 4.53543, -8.85555l 4.53543,
 -5.1364l 4.53543, -2.72963l 4.53543, -1.32908l 4.53543, -0.59292l 4.53543, -0.242348l 4.53543, -0.0907563l 4.53543, -0.0311392l 4.53543, -0.00978878l 4.53543, -0.00281927l 4.53543, -0.000743929l 4.53543, -0.000179849l 4.53543, -3.98349e-05l 4.53543,
 -8.08342e-06l 4.53543, -1.50279e-06l 4.53543, -2.55961e-07" fill="none" stroke="#ff0000" stroke-width="2"/>
<path d="M281.697,57.0812l 4.53543, -3.99406e-08l 4.53543, -5.70969e-09l 4.53543, -7.47775e-10l 4.53543, -8.96989e-11l 4.53543, -9.9476e-12l 4.53543, -1.02318e-12h 195.024" fill="none" stroke="#ff0000" stroke-width="2"/>
<path d="M503.933,57.0812h 4.53543" fill="none" stroke="#ff0000" stroke-width="2"/>
<path d="M57.1929,372.012h 453.543" fill="none" stroke="black"/>
<path d="M57.1929,362.091v 9.92031" fill="none" stroke="black"/>
<path d="M68.5315,367.052v 4.96016" fill="none" stroke="black"/>
<path d="M79.8701,367.052v 4.96016" fill="none" stroke="black"/>
<path d="M91.2087,367.052v 4.96016" fill="none" stroke="black"/>
<path d="M102.547,362.091v 9.92031" fill="none" stroke="black"/>
<path d="M113.886,367.052v 4.96016" fill="none" stroke="black"/>
<path d="M125.224,367.052v 4.96016" fill="none" stroke="black"/>
<path d="M136.563,367.052v 4.96016" fill="none" stroke="black"/>
<path d="M147.902,362.091v 9.92031" fill="none" stroke="black"/>
<path d="M159.24,367.052v 4.96016" fill="none" stroke="black"/>
<path d="M170.579,367.052v 4.96016" fill="none" stroke="black"/>
<path d="M181.917,367.052v 4.96016" fill="none" stroke="black"/>
<path d="M193.256,362.091v 9.92031" fill="none" stroke="black"/>
<path d="M204.594,367.052v 4.96016" fill="none" stroke="black"/>
<path d="M215.933,367.052v 4.96016" fill="none" stroke="black"/>
<path d="M227.272,367.052v 4.96016" fill="none" stroke="black"/>
<path d="M238.61,362.091v 9.92031" fill="none" stroke="black"/>
<path d="M249.949,367.052v 4.96016" fill="none" stroke="black"/>
<path d="M261.287,367.052v 4.96016" fill="none" stroke="black"/>
<path d="M272.626,367.052v 4.96016" fill="none" stroke="black"/>
<path d="M283.965,362.091v 9.92031" fill="none" stroke="black"/>
<path d="M295.303,367.052v 4.96016" fill="none" stroke="black"/>
<path d="M306.642,367.052v 4.96016" fill="none" stroke="black"/>
<path d="M317.98,367.052v 4.96016" fill="none" stroke="black"/>
<path d="M329.319,362.091v 9.92031" fill="none" stroke="black"/>
<path d="M340.657,367.052v 4.96016" fill="none" stroke="black"/>
<path d="M351.996,367.052v 4.96016" fill="none" stroke="black"/>
<path d="M363.335,367.052v 4.96016" fill="none" stroke="black"/>
<path d="M374.673,362.091v 9.92031" fill="none" stroke="black"/>
<path d="M386.012,367.052v 4.96016" fill="none" stroke="black"/>
<path d="M397.35,367.052v 4.96016" fill="none" stroke="black"/>
<path d="M408.689,367.052v 4.96016" fill="none" stroke="black"/>
<path d="M420.028,362.091v 9.92031" fill="none" stroke="black"/>
<path d="M431.366,367.052v 4.96016" fill="none" stroke="black"/>
<path d="M442.705,367.052v 4.96016" fill="none" stroke="black"/>
<path d="M454.043,367.052v 4.96016" fill="none" stroke="black"/>
<path d="M465.382,362.091v 9.92031" fill="none" stroke="black"/>
<path d="M476.72,367.052v 4.96016" fill="none" stroke="black"/>
<path d="M488.059,367.052v 4.96016" fill="none" stroke="black"/>
<path d="M499.398,367.052v 4.96016" fill="none" stroke="black"/>
<path d="M510.736,362.091v 9.92031" fill="none" stroke="black"/>
<text xml:space="preserve" x="53.1163" y="385.379" fill="black" font-size="13.7726" font-family="Helvetica">0</text>
<text xml:space="preserve" x="91.512" y="385.379" fill="black" font-size="13.7726" font-family="Helvetica">200</text>
<text xml:space="preserve" x="136.544" y="385.379" fill="black" font-size="13.7726" font-family="Helvetica">400</text>
<text xml:space="preserve" x="182.05" y="385.379" fill="black" font-size="13.7726" font-family="Helvetica">600</text>
<text xml:space="preserve" x="227.556" y="385.379" fill="black" font-size="13.7726" font-family="Helvetica">800</text>
<text xml:space="preserve" x="269.27" y="385.379" fill="black" font-size="13.7726" font-family="Helvetica">1000</text>
<text xml:space="preserve" x="314.302" y="385.379" fill="black" font-size="13.7726" font-family="Helvetica">1200</text>
<text xml:space="preserve" x="359.808" y="385.379" fill="black" font-size="13.7726" font-family="Helvetica">1400</text>
<text xml:space="preserve" x="405.314" y="385.379" fill="black" font-size="13.7726" font-family="Helvetica">1600</text>
<text xml:space="preserve" x="450.346" y="385.379" fill="black" font-size="13.7726" font-family="Helvetica">1800</text>
<text xml:space="preserve" x="495.852" y="385.379" fill="black" font-size="13.7726" font-family="Helvetica">2000</text>
<path d="M57.1929,372.012v -330.677" fill="none" stroke="black"/>
<path d="M70.7992,372.012h -13.6063" fill="none" stroke="black"/>
<path d="M63.9961,356.265h -6.80315" fill="none" stroke="black"/>
<path d="M63.9961,340.519h -6.80315" fill="none" stroke="black"/>
<path d="M63.9961,324.772h -6.80315" fill="none" stroke="black"/>
<path d="M70.7992,309.026h -13.6063" fill="none" stroke="black"/>
<path d="M63.9961,293.279h -6.80315" fill="none" stroke="black"/>
<path d="M63.9961,277.533h -6.80315" fill="none" stroke="black"/>
<path d="M63.9961,261.786h -6.80315" fill="none" stroke="black"/>
<path d="M70.7992,246.039h -13.6063" fill="none" stroke="black"/>
<path d="M63.9961,230.293h -6.80315" fill="none" stroke="black"/>
<path d="M63.9961,214.546h -6.80315" fill="none" stroke="black"/>
<path d="M63.9961,198.8h -6.80315" fill="none" stroke="black"/>
<path d="M70.7992,183.053h -13.6063" fill="none" stroke="black"/>
<path d="M63.9961,167.307h -6.80315" fill="none" stroke="black"/>
<path d="M63.9961,151.56h -6.80315" fill="none" stroke="black"/>
<path d="M63.9961,135.814h -6.80315" fill="none" stroke="black"/>
<path d="M70.7992,120.067h -13.6063" fill="none" stroke="black"/>
<path d="M63.9961,104.321h -6.80315" fill="none" stroke="black"/>
<path d="M63.9961,88.5742h -6.80315" fill="none" stroke="black"/>
<path d="M63.9961,72.8277h -6.80315" fill="none" stroke="black"/>
<path d="M70.7992,57.0812h -13.6063" fill="none" stroke="black"/>
<path d="M70.7992,57.0812h -13.6063" fill="none" stroke="black"/>
<text xml:space="preserve" x="46.9541" y="376.373" fill="black" font-size="13.7726" font-family="Helvetica">0</text>
<text xml:space="preserve" x="36.0516" y="313.328" fill="black" font-size="13.7726" font-family="Helvetica">0.2</text>
<text xml:space="preserve" x="36.0516" y="250.757" fill="black" font-size="13.7726" font-family="Helvetica">0.4</text>
<text xml:space="preserve" x="36.0516" y="187.712" fill="black" font-size="13.7726" font-family="Helvetica">0.6</text>
<text xml:space="preserve" x="36.0516" y="124.668" fill="black" font-size="13.7726" font-family="Helvetica">0.8</text>
<text xml:space="preserve" x="49.3242" y="62.0968" fill="black" font-size="13.7726" font-family="Helvetica">1</text>
<text xml:space="preserve" x="162.615" y="19.9089" fill="black" font-size="19.5739" font-family="Helvetica">(1.+TMath::Erf((x-[0])/[1]))/2.</text></svg>
