<?xml version="1.0" standalone="no"?>
<svg width="567.429" height="413.846" viewBox="0 0 567.429 413.846" xmlns="http://www.w3.org/2000/svg" shape-rendering="crispEdges">
<title>
pdf.svg
</title>
<desc>
Creator: ROOT Version 6.12/07
CreationDate: Mon Jun 22 21:26:01 2020</desc>
<defs>
</defs>
<rect x="0.5" y="0" width="566.929" height="413.346" fill="white"/>
<rect x="57.1929" y="41.3346" width="453.543" height="330.677" fill="white"/>
<rect x="57.1929" y="41.3346" width="453.543" height="330.677" fill="none" stroke="black"/>
<rect x="57.1929" y="41.3346" width="453.543" height="330.677" fill="white"/>
<rect x="57.1929" y="41.3346" width="453.543" height="330.677" fill="none" stroke="black"/>
<path d="M59.4606,371.768l 4.53543, -0.752119l 4.53543, -2.41273l 4.53543, -6.40348l 4.53543, -14.0615l 4.53543, -25.5489l 4.53543, -38.4111l 4.53543, -47.7851l 4.53543, -49.1911l 4.53543, -41.9025l 4.53543, -29.5357l 4.53543, -17.2266l 4.53543,
 -8.31351l 4.53543, -3.31958l 4.53543, -1.09667l 4.53543, -0.299731l 4.53543, -0.0677684l 4.53543, -0.0126744l 4.53543, -0.00196064l 4.53543, -0.000250843l 4.53543, -2.65401e-05l 4.53543, -2.32199e-06l 4.53543, -1.67971e-07l 4.53543, -1.00458e-08l
 4.53543, -4.96641e-10l 4.53543, -2.02363e-11l 4.53543, -7.38964e-13h 104.315" fill="none" stroke="#ff0000" stroke-width="2"/>
<path d="M281.697,85.4249h 222.236" fill="none" stroke="#ff0000" stroke-width="2"/>
<path d="M503.933,85.4249h 4.53543" fill="none" stroke="#ff0000" stroke-width="2"/>
<path d="M57.1929,372.012h 453.543" fill="none" stroke="black"/>
<path d="M57.1929,362.091v 9.92031" fill="none" stroke="black"/>
<path d="M71.3661,367.052v 4.96016" fill="none" stroke="black"/>
<path d="M85.5394,367.052v 4.96016" fill="none" stroke="black"/>
<path d="M99.7126,367.052v 4.96016" fill="none" stroke="black"/>
<path d="M113.886,362.091v 9.92031" fill="none" stroke="black"/>
<path d="M128.059,367.052v 4.96016" fill="none" stroke="black"/>
<path d="M142.232,367.052v 4.96016" fill="none" stroke="black"/>
<path d="M156.406,367.052v 4.96016" fill="none" stroke="black"/>
<path d="M170.579,362.091v 9.92031" fill="none" stroke="black"/>
<path d="M184.752,367.052v 4.96016" fill="none" stroke="black"/>
<path d="M198.925,367.052v 4.96016" fill="none" stroke="black"/>
<path d="M213.098,367.052v 4.96016" fill="none" stroke="black"/>
<path d="M227.272,362.091v 9.92031" fill="none" stroke="black"/>
<path d="M241.445,367.052v 4.96016" fill="none" stroke="black"/>
<path d="M255.618,367.052v 4.96016" fill="none" stroke="black"/>
<path d="M269.791,367.052v 4.96016" fill="none" stroke="black"/>
<path d="M283.965,362.091v 9.92031" fill="none" stroke="black"/>
<path d="M298.138,367.052v 4.96016" fill="none" stroke="black"/>
<path d="M312.311,367.052v 4.96016" fill="none" stroke="black"/>
<path d="M326.484,367.052v 4.96016" fill="none" stroke="black"/>
<path d="M340.657,362.091v 9.92031" fill="none" stroke="black"/>
<path d="M354.831,367.052v 4.96016" fill="none" stroke="black"/>
<path d="M369.004,367.052v 4.96016" fill="none" stroke="black"/>
<path d="M383.177,367.052v 4.96016" fill="none" stroke="black"/>
<path d="M397.35,362.091v 9.92031" fill="none" stroke="black"/>
<path d="M411.524,367.052v 4.96016" fill="none" stroke="black"/>
<path d="M425.697,367.052v 4.96016" fill="none" stroke="black"/>
<path d="M439.87,367.052v 4.96016" fill="none" stroke="black"/>
<path d="M454.043,362.091v 9.92031" fill="none" stroke="black"/>
<path d="M468.217,367.052v 4.96016" fill="none" stroke="black"/>
<path d="M482.39,367.052v 4.96016" fill="none" stroke="black"/>
<path d="M496.563,367.052v 4.96016" fill="none" stroke="black"/>
<path d="M510.736,362.091v 9.92031" fill="none" stroke="black"/>
<text xml:space="preserve" x="44.1099" y="387.275" fill="black" font-size="15.6687" font-family="Helvetica">400</text>
<text xml:space="preserve" x="100.992" y="387.275" fill="black" font-size="15.6687" font-family="Helvetica">600</text>
<text xml:space="preserve" x="157.401" y="387.275" fill="black" font-size="15.6687" font-family="Helvetica">800</text>
<text xml:space="preserve" x="210.017" y="387.275" fill="black" font-size="15.6687" font-family="Helvetica">1000</text>
<text xml:space="preserve" x="266.9" y="387.275" fill="black" font-size="15.6687" font-family="Helvetica">1200</text>
<text xml:space="preserve" x="323.308" y="387.275" fill="black" font-size="15.6687" font-family="Helvetica">1400</text>
<text xml:space="preserve" x="380.191" y="387.275" fill="black" font-size="15.6687" font-family="Helvetica">1600</text>
<text xml:space="preserve" x="436.599" y="387.275" fill="black" font-size="15.6687" font-family="Helvetica">1800</text>
<text xml:space="preserve" x="493.482" y="387.275" fill="black" font-size="15.6687" font-family="Helvetica">2000</text>
<path d="M57.1929,372.012v -330.677" fill="none" stroke="black"/>
<path d="M70.7992,372.012h -13.6063" fill="none" stroke="black"/>
<path d="M63.9961,364.663h -6.80315" fill="none" stroke="black"/>
<path d="M63.9961,357.315h -6.80315" fill="none" stroke="black"/>
<path d="M63.9961,349.967h -6.80315" fill="none" stroke="black"/>
<path d="M63.9961,342.618h -6.80315" fill="none" stroke="black"/>
<path d="M70.7992,335.27h -13.6063" fill="none" stroke="black"/>
<path d="M63.9961,327.921h -6.80315" fill="none" stroke="black"/>
<path d="M63.9961,320.573h -6.80315" fill="none" stroke="black"/>
<path d="M63.9961,313.225h -6.80315" fill="none" stroke="black"/>
<path d="M63.9961,305.876h -6.80315" fill="none" stroke="black"/>
<path d="M70.7992,298.528h -13.6063" fill="none" stroke="black"/>
<path d="M63.9961,291.18h -6.80315" fill="none" stroke="black"/>
<path d="M63.9961,283.831h -6.80315" fill="none" stroke="black"/>
<path d="M63.9961,276.483h -6.80315" fill="none" stroke="black"/>
<path d="M63.9961,269.134h -6.80315" fill="none" stroke="black"/>
<path d="M70.7992,261.786h -13.6063" fill="none" stroke="black"/>
<path d="M63.9961,254.438h -6.80315" fill="none" stroke="black"/>
<path d="M63.9961,247.089h -6.80315" fill="none" stroke="black"/>
<path d="M63.9961,239.741h -6.80315" fill="none" stroke="black"/>
<path d="M63.9961,232.392h -6.80315" fill="none" stroke="black"/>
<path d="M70.7992,225.044h -13.6063" fill="none" stroke="black"/>
<path d="M63.9961,217.696h -6.80315" fill="none" stroke="black"/>
<path d="M63.9961,210.347h -6.80315" fill="none" stroke="black"/>
<path d="M63.9961,202.999h -6.80315" fill="none" stroke="black"/>
<path d="M63.9961,195.651h -6.80315" fill="none" stroke="black"/>
<path d="M70.7992,188.302h -13.6063" fill="none" stroke="black"/>
<path d="M63.9961,180.954h -6.80315" fill="none" stroke="black"/>
<path d="M63.9961,173.605h -6.80315" fill="none" stroke="black"/>
<path d="M63.9961,166.257h -6.80315" fill="none" stroke="black"/>
<path d="M63.9961,158.909h -6.80315" fill="none" stroke="black"/>
<path d="M70.7992,151.56h -13.6063" fill="none" stroke="black"/>
<path d="M63.9961,144.212h -6.80315" fill="none" stroke="black"/>
<path d="M63.9961,136.864h -6.80315" fill="none" stroke="black"/>
<path d="M63.9961,129.515h -6.80315" fill="none" stroke="black"/>
<path d="M63.9961,122.167h -6.80315" fill="none" stroke="black"/>
<path d="M70.7992,114.818h -13.6063" fill="none" stroke="black"/>
<path d="M63.9961,107.47h -6.80315" fill="none" stroke="black"/>
<path d="M63.9961,100.122h -6.80315" fill="none" stroke="black"/>
<path d="M63.9961,92.7733h -6.80315" fill="none" stroke="black"/>
<path d="M63.9961,85.4249h -6.80315" fill="none" stroke="black"/>
<path d="M70.7992,78.0765h -13.6063" fill="none" stroke="black"/>
<path d="M63.9961,70.7281h -6.80315" fill="none" stroke="black"/>
<path d="M63.9961,63.3798h -6.80315" fill="none" stroke="black"/>
<path d="M63.9961,56.0314h -6.80315" fill="none" stroke="black"/>
<path d="M63.9961,48.683h -6.80315" fill="none" stroke="black"/>
<path d="M70.7992,41.3346h -13.6063" fill="none" stroke="black"/>
<text xml:space="preserve" x="46.006" y="377.321" fill="black" font-size="15.6687" font-family="Helvetica">0</text>
<text xml:space="preserve" x="28.4672" y="340.821" fill="black" font-size="15.6687" font-family="Helvetica">500</text>
<text xml:space="preserve" x="19.9349" y="303.847" fill="black" font-size="15.6687" font-family="Helvetica">1000</text>
<text xml:space="preserve" x="19.9349" y="267.348" fill="black" font-size="15.6687" font-family="Helvetica">1500</text>
<text xml:space="preserve" x="19.9349" y="230.374" fill="black" font-size="15.6687" font-family="Helvetica">2000</text>
<text xml:space="preserve" x="19.9349" y="193.875" fill="black" font-size="15.6687" font-family="Helvetica">2500</text>
<text xml:space="preserve" x="19.9349" y="156.901" fill="black" font-size="15.6687" font-family="Helvetica">3000</text>
<text xml:space="preserve" x="19.9349" y="120.401" fill="black" font-size="15.6687" font-family="Helvetica">3500</text>
<text xml:space="preserve" x="19.9349" y="83.4277" fill="black" font-size="15.6687" font-family="Helvetica">4000</text>
<text xml:space="preserve" x="19.9349" y="46.9281" fill="black" font-size="15.6687" font-family="Helvetica">4500</text>
<path d="M86.6732,41.3346l 4.53543, 37.7803l 4.53543, 41.2985l 4.53543, 35.0432l 4.53543, 29.7912l 4.53543, 25.3747l 4.53543, 21.6545l 4.53543, 18.5153l 4.53543, 15.8616l 4.53543, 13.6143l 4.53543, 11.7076l 4.53543, 10.0869l 4.53543, 8.70674l
 4.53543, 7.52923l 4.53543, 6.52277l 4.53543, 5.66094l 4.53543, 4.9216l 4.53543, 4.28622l 4.53543, 3.73921l 4.53543, 3.26744l 4.53543, 2.85988l 4.53543, 2.50718l 4.53543, 2.20144l 4.53543, 1.93598l 4.53543, 1.70511l 4.53543, 1.50401l 4.53543,
 1.32857l 4.53543, 1.17527l 4.53543, 1.04112l 4.53543, 0.923558l 4.53543, 0.820373l 4.53543, 0.729682l 4.53543, 0.649859l 4.53543, 0.579506l 4.53543, 0.517414l 4.53543, 0.46254l 4.53543, 0.413983l 4.53543, 0.37096l 4.53543, 0.332792l 4.53543,
 0.29889l 4.53543, 0.26874l 4.53543, 0.241896l 4.53543, 0.217966l 4.53543, 0.19661l 4.53543, 0.177529l 4.53543, 0.160463l 4.53543, 0.145182l 4.53543, 0.131484l 4.53543, 0.119193l 4.53543, 0.108153" fill="none" stroke="#ff0000" stroke-width="2"/>
<path d="M308.909,370.822l 4.53543, 0.0982258l 4.53543, 0.0892912l 4.53543, 0.0812419l 4.53543, 0.0739831l 4.53543, 0.0674311l 4.53543, 0.0615114l 4.53543, 0.0561582l 4.53543, 0.0513129l 4.53543, 0.0469234l 4.53543, 0.0429435l 4.53543, 0.0393317l
 4.53543, 0.0360514l 4.53543, 0.0330696l 4.53543, 0.0303569l 4.53543, 0.0278871l 4.53543, 0.0256366l 4.53543, 0.0235844l 4.53543, 0.0217116l 4.53543, 0.0200012l 4.53543, 0.018438l 4.53543, 0.0170082l 4.53543, 0.0156996l 4.53543, 0.014501l 4.53543,
 0.0134024l 4.53543, 0.0123948l 4.53543, 0.01147l 4.53543, 0.0106206l 4.53543, 0.00983999l 4.53543, 0.00912213l 4.53543, 0.00846155l 4.53543, 0.0078533l 4.53543, 0.00729288l 4.53543, 0.00677622l 4.53543, 0.00629961l 4.53543, 0.00585969l 4.53543,
 0.00545339l 4.53543, 0.00507794l 4.53543, 0.00473078l 4.53543, 0.00440961l 4.53543, 0.00411232l 4.53543, 0.00383697l 4.53543, 0.00358182l 4.53543, 0.00334526l 4.53543, 0.00312581" fill="none" stroke="#ff0000" stroke-width="2"/></svg>
