<?xml version="1.0" standalone="no"?>
<svg width="567.429" height="129.434" viewBox="0 0 567.429 129.434" xmlns="http://www.w3.org/2000/svg" shape-rendering="crispEdges">
<title>
pullErfExp.svg
</title>
<desc>
Creator: ROOT Version 6.10/09
CreationDate: Tue Mar 31 18:58:59 2020</desc>
<defs>
</defs>
<rect x="0.5" y="0" width="566.929" height="128.934" fill="white"/>
<rect x="57.1929" y="23.2081" width="453.543" height="82.5176" fill="white"/>
<rect x="57.1929" y="23.2081" width="453.543" height="82.5176" fill="none" stroke="black"/>
<rect x="57.1929" y="23.2081" width="453.543" height="82.5176" fill="white"/>
<rect x="57.1929" y="23.2081" width="453.543" height="82.5176" fill="none" stroke="black"/>
<path d="M57.1929,105.726h 453.543" fill="none" stroke="black"/>
<path d="M57.1929,23.2081v 82.5176" fill="none" stroke="black" stroke-dasharray=" 1, 2"/>
<path d="M102.547,23.2081v 82.5176" fill="none" stroke="black" stroke-dasharray=" 1, 2"/>
<path d="M147.902,23.2081v 82.5176" fill="none" stroke="black" stroke-dasharray=" 1, 2"/>
<path d="M193.256,23.2081v 82.5176" fill="none" stroke="black" stroke-dasharray=" 1, 2"/>
<path d="M238.61,23.2081v 82.5176" fill="none" stroke="black" stroke-dasharray=" 1, 2"/>
<path d="M283.965,23.2081v 82.5176" fill="none" stroke="black" stroke-dasharray=" 1, 2"/>
<path d="M329.319,23.2081v 82.5176" fill="none" stroke="black" stroke-dasharray=" 1, 2"/>
<path d="M374.673,23.2081v 82.5176" fill="none" stroke="black" stroke-dasharray=" 1, 2"/>
<path d="M420.028,23.2081v 82.5176" fill="none" stroke="black" stroke-dasharray=" 1, 2"/>
<path d="M465.382,23.2081v 82.5176" fill="none" stroke="black" stroke-dasharray=" 1, 2"/>
<path d="M510.736,23.2081v 82.5176" fill="none" stroke="black" stroke-dasharray=" 1, 2"/>
<path d="M57.1929,105.726v -82.5176" fill="none" stroke="black"/>
<path d="M510.736,97.4739h -453.543" fill="none" stroke="black" stroke-dasharray=" 1, 2"/>
<path d="M510.736,80.9704h -453.543" fill="none" stroke="black" stroke-dasharray=" 1, 2"/>
<path d="M510.736,64.4669h -453.543" fill="none" stroke="black" stroke-dasharray=" 1, 2"/>
<path d="M510.736,47.9633h -453.543" fill="none" stroke="black" stroke-dasharray=" 1, 2"/>
<path d="M510.736,31.4598h -453.543" fill="none" stroke="black" stroke-dasharray=" 1, 2"/>
<path d="M510.736,97.4739h -453.543" fill="none" stroke="black" stroke-dasharray=" 1, 2"/>
<path d="M510.736,31.4598h -453.543" fill="none" stroke="black" stroke-dasharray=" 1, 2"/>
<path d="M57.1929,105.726h 453.543" fill="none" stroke="black"/>
<path d="M57.1929,102.631v 3.09441" fill="none" stroke="black"/>
<path d="M68.5315,104.178v 1.5472" fill="none" stroke="black"/>
<path d="M79.8701,104.178v 1.5472" fill="none" stroke="black"/>
<path d="M91.2087,104.178v 1.5472" fill="none" stroke="black"/>
<path d="M102.547,102.631v 3.09441" fill="none" stroke="black"/>
<path d="M113.886,104.178v 1.5472" fill="none" stroke="black"/>
<path d="M125.224,104.178v 1.5472" fill="none" stroke="black"/>
<path d="M136.563,104.178v 1.5472" fill="none" stroke="black"/>
<path d="M147.902,102.631v 3.09441" fill="none" stroke="black"/>
<path d="M159.24,104.178v 1.5472" fill="none" stroke="black"/>
<path d="M170.579,104.178v 1.5472" fill="none" stroke="black"/>
<path d="M181.917,104.178v 1.5472" fill="none" stroke="black"/>
<path d="M193.256,102.631v 3.09441" fill="none" stroke="black"/>
<path d="M204.594,104.178v 1.5472" fill="none" stroke="black"/>
<path d="M215.933,104.178v 1.5472" fill="none" stroke="black"/>
<path d="M227.272,104.178v 1.5472" fill="none" stroke="black"/>
<path d="M238.61,102.631v 3.09441" fill="none" stroke="black"/>
<path d="M249.949,104.178v 1.5472" fill="none" stroke="black"/>
<path d="M261.287,104.178v 1.5472" fill="none" stroke="black"/>
<path d="M272.626,104.178v 1.5472" fill="none" stroke="black"/>
<path d="M283.965,102.631v 3.09441" fill="none" stroke="black"/>
<path d="M295.303,104.178v 1.5472" fill="none" stroke="black"/>
<path d="M306.642,104.178v 1.5472" fill="none" stroke="black"/>
<path d="M317.98,104.178v 1.5472" fill="none" stroke="black"/>
<path d="M329.319,102.631v 3.09441" fill="none" stroke="black"/>
<path d="M340.657,104.178v 1.5472" fill="none" stroke="black"/>
<path d="M351.996,104.178v 1.5472" fill="none" stroke="black"/>
<path d="M363.335,104.178v 1.5472" fill="none" stroke="black"/>
<path d="M374.673,102.631v 3.09441" fill="none" stroke="black"/>
<path d="M386.012,104.178v 1.5472" fill="none" stroke="black"/>
<path d="M397.35,104.178v 1.5472" fill="none" stroke="black"/>
<path d="M408.689,104.178v 1.5472" fill="none" stroke="black"/>
<path d="M420.028,102.631v 3.09441" fill="none" stroke="black"/>
<path d="M431.366,104.178v 1.5472" fill="none" stroke="black"/>
<path d="M442.705,104.178v 1.5472" fill="none" stroke="black"/>
<path d="M454.043,104.178v 1.5472" fill="none" stroke="black"/>
<path d="M465.382,102.631v 3.09441" fill="none" stroke="black"/>
<path d="M476.72,104.178v 1.5472" fill="none" stroke="black"/>
<path d="M488.059,104.178v 1.5472" fill="none" stroke="black"/>
<path d="M499.398,104.178v 1.5472" fill="none" stroke="black"/>
<path d="M510.736,102.631v 3.09441" fill="none" stroke="black"/>
<text xml:space="preserve" x="54.0644" y="114.239" fill="black" font-size="9.96302" font-family="Helvetica">0</text>
<text xml:space="preserve" x="94.3562" y="114.239" fill="black" font-size="9.96302" font-family="Helvetica">200</text>
<text xml:space="preserve" x="139.388" y="114.239" fill="black" font-size="9.96302" font-family="Helvetica">400</text>
<text xml:space="preserve" x="184.894" y="114.239" fill="black" font-size="9.96302" font-family="Helvetica">600</text>
<text xml:space="preserve" x="230.4" y="114.239" fill="black" font-size="9.96302" font-family="Helvetica">800</text>
<text xml:space="preserve" x="273.536" y="114.239" fill="black" font-size="9.96302" font-family="Helvetica">1000</text>
<text xml:space="preserve" x="318.568" y="114.239" fill="black" font-size="9.96302" font-family="Helvetica">1200</text>
<text xml:space="preserve" x="364.074" y="114.239" fill="black" font-size="9.96302" font-family="Helvetica">1400</text>
<text xml:space="preserve" x="409.58" y="114.239" fill="black" font-size="9.96302" font-family="Helvetica">1600</text>
<text xml:space="preserve" x="454.612" y="114.239" fill="black" font-size="9.96302" font-family="Helvetica">1800</text>
<text xml:space="preserve" x="500.118" y="114.239" fill="black" font-size="9.96302" font-family="Helvetica">2000</text>
<text xml:space="preserve" x="507.228" y="126.09" fill="black" font-size="6.80868" font-family="Times">&#0947;</text>
<text xml:space="preserve" x="505.332" y="126.09" fill="black" font-size="6.80868" font-family="Helvetica">j</text>
<text xml:space="preserve" x="497.748" y="123.245" fill="black" font-size="9.96302" font-family="Helvetica">M</text>
<path d="M57.1929,105.726v -82.5176" fill="none" stroke="black"/>
<path d="M68.078,97.4739h -10.885" fill="none" stroke="black"/>
<path d="M68.078,80.9704h -10.885" fill="none" stroke="black"/>
<path d="M68.078,64.4669h -10.885" fill="none" stroke="black"/>
<path d="M68.078,47.9633h -10.885" fill="none" stroke="black"/>
<path d="M68.078,31.4598h -10.885" fill="none" stroke="black"/>
<path d="M68.078,97.4739h -10.885" fill="none" stroke="black"/>
<path d="M68.078,31.4598h -10.885" fill="none" stroke="black"/>
<text xml:space="preserve" x="48.8501" y="100.966" fill="black" font-size="9.96302" font-family="Helvetica">4</text>
<text xml:space="preserve" x="43.6359" y="100.966" fill="black" font-size="9.96302" font-family="Times">&#8722;</text>
<text xml:space="preserve" x="48.8501" y="84.3757" fill="black" font-size="9.96302" font-family="Helvetica">2</text>
<text xml:space="preserve" x="43.6359" y="84.3757" fill="black" font-size="9.96302" font-family="Times">&#8722;</text>
<text xml:space="preserve" x="48.8501" y="68.259" fill="black" font-size="9.96302" font-family="Helvetica">0</text>
<text xml:space="preserve" x="48.8501" y="51.6683" fill="black" font-size="9.96302" font-family="Helvetica">2</text>
<text xml:space="preserve" x="48.8501" y="35.0776" fill="black" font-size="9.96302" font-family="Helvetica">4</text>
<g transform="rotate(-90,29.8893,37.9217)">
<text xml:space="preserve" x="29.8893" y="37.9217" fill="black" font-size="6.80868" font-family="Helvetica">stat</text>
</g>
<g transform="rotate(-90,26.5712,43.6099)">
<text xml:space="preserve" x="26.5712" y="43.6099" fill="black" font-size="9.96302" font-family="Times">&#0963;</text>
</g>
<g transform="rotate(-90,18.9868,48.3501)">
<text xml:space="preserve" x="18.9868" y="48.3501" fill="black" font-size="9.96302" font-family="Helvetica">MC-fit</text>
</g>
<path d="M20.8829,48.3501v -25.5971" fill="none" stroke="black" stroke-width="2"/>
<path d="M59.4606,64.4669v -8.25176" fill="none" stroke="black"/>
<path d="M58.5126,56.2151h 1.89608" fill="none" stroke="black"/>
<path d="M63.9961,64.4669v -8.25176" fill="none" stroke="black"/>
<path d="M63.048,56.2151h 1.89608" fill="none" stroke="black"/>
<path d="M68.5315,64.4669v -8.25176" fill="none" stroke="black"/>
<path d="M67.5835,56.2151h 1.89608" fill="none" stroke="black"/>
<path d="M73.0669,64.4669v -8.25176" fill="none" stroke="black"/>
<path d="M72.1189,56.2151h 1.89608" fill="none" stroke="black"/>
<path d="M77.6024,64.4669v -8.25176" fill="none" stroke="black"/>
<path d="M76.6543,56.2151h 1.89608" fill="none" stroke="black"/>
<path d="M82.1378,64.4669v -8.25176" fill="none" stroke="black"/>
<path d="M81.1898,56.2151h 1.89608" fill="none" stroke="black"/>
<path d="M86.6732,64.4669v -8.25176" fill="none" stroke="black"/>
<path d="M85.7252,56.2151h 1.89608" fill="none" stroke="black"/>
<path d="M91.2087,64.4669v -8.25176" fill="none" stroke="black"/>
<path d="M90.2606,56.2151h 1.89608" fill="none" stroke="black"/>
<path d="M95.7441,64.4669v -8.25176" fill="none" stroke="black"/>
<path d="M94.7961,56.2151h 1.89608" fill="none" stroke="black"/>
<path d="M100.28,64.4669v -8.25176" fill="none" stroke="black"/>
<path d="M99.3315,56.2151h 1.89608" fill="none" stroke="black"/>
<path d="M104.815,64.4669v -8.25176" fill="none" stroke="black"/>
<path d="M103.867,56.2151h 1.89608" fill="none" stroke="black"/>
<path d="M109.35,64.4669v -8.25176" fill="none" stroke="black"/>
<path d="M108.402,56.2151h 1.89608" fill="none" stroke="black"/>
<path d="M113.886,64.467v -8.25176" fill="none" stroke="black"/>
<path d="M112.938,56.2152h 1.89608" fill="none" stroke="black"/>
<path d="M118.421,64.4684v -8.25176" fill="none" stroke="black"/>
<path d="M117.473,56.2166h 1.89608" fill="none" stroke="black"/>
<path d="M122.957,54.1737v -22.2099" fill="none" stroke="black"/>
<path d="M122.009,31.9638h 1.89608" fill="none" stroke="black"/>
<path d="M122.957,54.1737v 8.25176" fill="none" stroke="black"/>
<path d="M122.009,62.4255h 1.89608" fill="none" stroke="black"/>
<path d="M127.492,46.6298v -13.3871" fill="none" stroke="black"/>
<path d="M126.544,33.2427h 1.89608" fill="none" stroke="black"/>
<path d="M127.492,46.6298v 8.25176" fill="none" stroke="black"/>
<path d="M126.544,54.8815h 1.89608" fill="none" stroke="black"/>
<path d="M132.028,46.8779v -13.3871" fill="none" stroke="black"/>
<path d="M131.08,33.4908h 1.89608" fill="none" stroke="black"/>
<path d="M132.028,46.8779v 8.25176" fill="none" stroke="black"/>
<path d="M131.08,55.1296h 1.89608" fill="none" stroke="black"/>
<path d="M136.563,42.0783v -11.8329" fill="none" stroke="black"/>
<path d="M135.615,30.2454h 1.89608" fill="none" stroke="black"/>
<path d="M136.563,42.0783v 8.25176" fill="none" stroke="black"/>
<path d="M135.615,50.33h 1.89608" fill="none" stroke="black"/>
<path d="M141.098,41.3967v -11.2676" fill="none" stroke="black"/>
<path d="M140.15,30.1291h 1.89608" fill="none" stroke="black"/>
<path d="M141.098,41.3967v 8.25176" fill="none" stroke="black"/>
<path d="M140.15,49.6485h 1.89608" fill="none" stroke="black"/>
<path d="M145.634,49.0844v -11.2444" fill="none" stroke="black"/>
<path d="M144.686,37.84h 1.89608" fill="none" stroke="black"/>
<path d="M145.634,49.0844v 8.25176" fill="none" stroke="black"/>
<path d="M144.686,57.3362h 1.89608" fill="none" stroke="black"/>
<path d="M150.169,84.2814v -8.25176" fill="none" stroke="black"/>
<path d="M149.221,76.0297h 1.89608" fill="none" stroke="black"/>
<path d="M150.169,84.2814v 5.43185" fill="none" stroke="black"/>
<path d="M149.221,89.7133h 1.89608" fill="none" stroke="black"/>
<path d="M154.705,91.8409v -8.25176" fill="none" stroke="black"/>
<path d="M153.757,83.5891h 1.89608" fill="none" stroke="black"/>
<path d="M154.705,91.8409v 6.5803" fill="none" stroke="black"/>
<path d="M153.757,98.4212h 1.89608" fill="none" stroke="black"/>
<path d="M168.311,42.7636v -8.72997" fill="none" stroke="black"/>
<path d="M167.363,34.0336h 1.89608" fill="none" stroke="black"/>
<path d="M168.311,42.7636v 8.25176" fill="none" stroke="black"/>
<path d="M167.363,51.0154h 1.89608" fill="none" stroke="black"/>
<path d="M172.846,66.7687v -8.25176" fill="none" stroke="black"/>
<path d="M171.898,58.5169h 1.89608" fill="none" stroke="black"/>
<path d="M172.846,66.7687v 7.83949" fill="none" stroke="black"/>
<path d="M171.898,74.6082h 1.89608" fill="none" stroke="black"/>
<path d="M177.382,24.1207v -0.912589" fill="none" stroke="black"/>
<path d="M176.434,23.2081h 1.89608" fill="none" stroke="black"/>
<path d="M177.382,24.1207v 8.25176" fill="none" stroke="black"/>
<path d="M176.434,32.3724h 1.89608" fill="none" stroke="black"/>
<path d="M181.917,36.994v -8.58763" fill="none" stroke="black"/>
<path d="M180.969,28.4064h 1.89608" fill="none" stroke="black"/>
<path d="M181.917,36.994v 8.25176" fill="none" stroke="black"/>
<path d="M180.969,45.2458h 1.89608" fill="none" stroke="black"/>
<path d="M186.453,60.1555v -8.60414" fill="none" stroke="black"/>
<path d="M185.505,51.5514h 1.89608" fill="none" stroke="black"/>
<path d="M186.453,60.1555v 8.25176" fill="none" stroke="black"/>
<path d="M185.505,68.4073h 1.89608" fill="none" stroke="black"/>
<path d="M190.988,60.7472v -8.61313" fill="none" stroke="black"/>
<path d="M190.04,52.1341h 1.89608" fill="none" stroke="black"/>
<path d="M190.988,60.7472v 8.25176" fill="none" stroke="black"/>
<path d="M190.04,68.999h 1.89608" fill="none" stroke="black"/>
<path d="M195.524,74.0902v -8.25176" fill="none" stroke="black"/>
<path d="M194.576,65.8384h 1.89608" fill="none" stroke="black"/>
<path d="M195.524,74.0902v 7.87594" fill="none" stroke="black"/>
<path d="M194.576,81.9661h 1.89608" fill="none" stroke="black"/>
<path d="M200.059,64.6527v -8.25176" fill="none" stroke="black"/>
<path d="M199.111,56.401h 1.89608" fill="none" stroke="black"/>
<path d="M200.059,64.6527v 7.86299" fill="none" stroke="black"/>
<path d="M199.111,72.5157h 1.89608" fill="none" stroke="black"/>
<path d="M204.594,45.2335v -8.6637" fill="none" stroke="black"/>
<path d="M203.646,36.5698h 1.89608" fill="none" stroke="black"/>
<path d="M204.594,45.2335v 8.25176" fill="none" stroke="black"/>
<path d="M203.646,53.4852h 1.89608" fill="none" stroke="black"/>
<path d="M209.13,69.8236v -8.25176" fill="none" stroke="black"/>
<path d="M208.182,61.5718h 1.89608" fill="none" stroke="black"/>
<path d="M209.13,69.8236v 7.79828" fill="none" stroke="black"/>
<path d="M208.182,77.6219h 1.89608" fill="none" stroke="black"/>
<path d="M213.665,78.4317v -8.25176" fill="none" stroke="black"/>
<path d="M212.717,70.1799h 1.89608" fill="none" stroke="black"/>
<path d="M213.665,78.4317v 7.74916" fill="none" stroke="black"/>
<path d="M212.717,86.1808h 1.89608" fill="none" stroke="black"/>
<path d="M218.201,75.7853v -8.25176" fill="none" stroke="black"/>
<path d="M217.253,67.5335h 1.89608" fill="none" stroke="black"/>
<path d="M218.201,75.7853v 7.71594" fill="none" stroke="black"/>
<path d="M217.253,83.5012h 1.89608" fill="none" stroke="black"/>
<path d="M222.736,66.119v -8.25176" fill="none" stroke="black"/>
<path d="M221.788,57.8673h 1.89608" fill="none" stroke="black"/>
<path d="M222.736,66.119v 7.69851" fill="none" stroke="black"/>
<path d="M221.788,73.8176h 1.89608" fill="none" stroke="black"/>
<path d="M227.272,74.1001v -8.25176" fill="none" stroke="black"/>
<path d="M226.324,65.8483h 1.89608" fill="none" stroke="black"/>
<path d="M227.272,74.1001v 7.63629" fill="none" stroke="black"/>
<path d="M226.324,81.7363h 1.89608" fill="none" stroke="black"/>
<path d="M231.807,77.1824v -8.25176" fill="none" stroke="black"/>
<path d="M230.859,68.9307h 1.89608" fill="none" stroke="black"/>
<path d="M231.807,77.1824v 7.57955" fill="none" stroke="black"/>
<path d="M230.859,84.762h 1.89608" fill="none" stroke="black"/>
<path d="M236.343,69.3998v -8.25176" fill="none" stroke="black"/>
<path d="M235.394,61.148h 1.89608" fill="none" stroke="black"/>
<path d="M236.343,69.3998v 7.55629" fill="none" stroke="black"/>
<path d="M235.394,76.9561h 1.89608" fill="none" stroke="black"/>
<path d="M240.878,89.3989v -8.25176" fill="none" stroke="black"/>
<path d="M239.93,81.1471h 1.89608" fill="none" stroke="black"/>
<path d="M240.878,89.3989v 7.40979" fill="none" stroke="black"/>
<path d="M239.93,96.8086h 1.89608" fill="none" stroke="black"/>
<path d="M245.413,64.7782v -8.25176" fill="none" stroke="black"/>
<path d="M244.465,56.5265h 1.89608" fill="none" stroke="black"/>
<path d="M245.413,64.7782v 7.47138" fill="none" stroke="black"/>
<path d="M244.465,72.2496h 1.89608" fill="none" stroke="black"/>
<path d="M249.949,67.8027v -8.25176" fill="none" stroke="black"/>
<path d="M249.001,59.5509h 1.89608" fill="none" stroke="black"/>
<path d="M249.949,67.8027v 7.39742" fill="none" stroke="black"/>
<path d="M249.001,75.2001h 1.89608" fill="none" stroke="black"/>
<path d="M254.484,79.7809v -8.25176" fill="none" stroke="black"/>
<path d="M253.536,71.5292h 1.89608" fill="none" stroke="black"/>
<path d="M254.484,79.7809v 7.24962" fill="none" stroke="black"/>
<path d="M253.536,87.0305h 1.89608" fill="none" stroke="black"/>
<path d="M259.02,71.6559v -8.25176" fill="none" stroke="black"/>
<path d="M258.072,63.4041h 1.89608" fill="none" stroke="black"/>
<path d="M259.02,71.6559v 7.23702" fill="none" stroke="black"/>
<path d="M258.072,78.8929h 1.89608" fill="none" stroke="black"/>
<path d="M263.555,83.1805v -8.25176" fill="none" stroke="black"/>
<path d="M262.607,74.9287h 1.89608" fill="none" stroke="black"/>
<path d="M263.555,83.1805v 7.0449" fill="none" stroke="black"/>
<path d="M262.607,90.2254h 1.89608" fill="none" stroke="black"/>
<path d="M268.091,67.6993v -8.25176" fill="none" stroke="black"/>
<path d="M267.143,59.4475h 1.89608" fill="none" stroke="black"/>
<path d="M268.091,67.6993v 7.1202" fill="none" stroke="black"/>
<path d="M267.143,74.8195h 1.89608" fill="none" stroke="black"/>
<path d="M272.626,70.6026v -8.25176" fill="none" stroke="black"/>
<path d="M271.678,62.3508h 1.89608" fill="none" stroke="black"/>
<path d="M272.626,70.6026v 7.00196" fill="none" stroke="black"/>
<path d="M271.678,77.6045h 1.89608" fill="none" stroke="black"/>
<path d="M277.161,71.4918v -8.25176" fill="none" stroke="black"/>
<path d="M276.213,63.24h 1.89608" fill="none" stroke="black"/>
<path d="M277.161,71.4918v 6.89505" fill="none" stroke="black"/>
<path d="M276.213,78.3868h 1.89608" fill="none" stroke="black"/>
<path d="M281.697,74.4436v -8.25176" fill="none" stroke="black"/>
<path d="M280.749,66.1918h 1.89608" fill="none" stroke="black"/>
<path d="M281.697,74.4436v 6.73946" fill="none" stroke="black"/>
<path d="M280.749,81.1831h 1.89608" fill="none" stroke="black"/>
<path d="M286.232,75.3476v -8.25176" fill="none" stroke="black"/>
<path d="M285.284,67.0958h 1.89608" fill="none" stroke="black"/>
<path d="M286.232,75.3476v 6.60007" fill="none" stroke="black"/>
<path d="M285.284,81.9476h 1.89608" fill="none" stroke="black"/>
<path d="M290.768,64.9208v -8.25176" fill="none" stroke="black"/>
<path d="M289.82,56.669h 1.89608" fill="none" stroke="black"/>
<path d="M290.768,64.9208v 6.70864" fill="none" stroke="black"/>
<path d="M289.82,71.6294h 1.89608" fill="none" stroke="black"/>
<path d="M295.303,54.8919v -10.0258" fill="none" stroke="black"/>
<path d="M294.355,44.8661h 1.89608" fill="none" stroke="black"/>
<path d="M295.303,54.8919v 8.25176" fill="none" stroke="black"/>
<path d="M294.355,63.1436h 1.89608" fill="none" stroke="black"/>
<path d="M299.839,73.476v -8.25176" fill="none" stroke="black"/>
<path d="M298.891,65.2242h 1.89608" fill="none" stroke="black"/>
<path d="M299.839,73.476v 6.22539" fill="none" stroke="black"/>
<path d="M298.891,79.7013h 1.89608" fill="none" stroke="black"/>
<path d="M304.374,60.5602v -10.5006" fill="none" stroke="black"/>
<path d="M303.426,50.0597h 1.89608" fill="none" stroke="black"/>
<path d="M304.374,60.5602v 8.25176" fill="none" stroke="black"/>
<path d="M303.426,68.812h 1.89608" fill="none" stroke="black"/>
<path d="M308.909,69.706v -8.25176" fill="none" stroke="black"/>
<path d="M307.961,61.4542h 1.89608" fill="none" stroke="black"/>
<path d="M308.909,69.706v 6.05504" fill="none" stroke="black"/>
<path d="M307.961,75.761h 1.89608" fill="none" stroke="black"/>
<path d="M313.445,52.3713v -10.4818" fill="none" stroke="black"/>
<path d="M312.497,41.8896h 1.89608" fill="none" stroke="black"/>
<path d="M313.445,52.3713v 8.25176" fill="none" stroke="black"/>
<path d="M312.497,60.6231h 1.89608" fill="none" stroke="black"/>
<path d="M317.98,64.2563v -11.3329" fill="none" stroke="black"/>
<path d="M317.032,52.9234h 1.89608" fill="none" stroke="black"/>
<path d="M317.98,64.2563v 8.25176" fill="none" stroke="black"/>
<path d="M317.032,72.508h 1.89608" fill="none" stroke="black"/>
<path d="M322.516,50.8799v -10.7035" fill="none" stroke="black"/>
<path d="M321.568,40.1764h 1.89608" fill="none" stroke="black"/>
<path d="M322.516,50.8799v 8.25176" fill="none" stroke="black"/>
<path d="M321.568,59.1316h 1.89608" fill="none" stroke="black"/>
<path d="M327.051,56.2015v -11.2255" fill="none" stroke="black"/>
<path d="M326.103,44.976h 1.89608" fill="none" stroke="black"/>
<path d="M327.051,56.2015v 8.25176" fill="none" stroke="black"/>
<path d="M326.103,64.4532h 1.89608" fill="none" stroke="black"/>
<path d="M331.587,61.9526v -11.9952" fill="none" stroke="black"/>
<path d="M330.639,49.9574h 1.89608" fill="none" stroke="black"/>
<path d="M331.587,61.9526v 8.25176" fill="none" stroke="black"/>
<path d="M330.639,70.2043h 1.89608" fill="none" stroke="black"/>
<path d="M336.122,60.7758v -12.1783" fill="none" stroke="black"/>
<path d="M335.174,48.5975h 1.89608" fill="none" stroke="black"/>
<path d="M336.122,60.7758v 8.25176" fill="none" stroke="black"/>
<path d="M335.174,69.0275h 1.89608" fill="none" stroke="black"/>
<path d="M340.657,58.5447v -12.2082" fill="none" stroke="black"/>
<path d="M339.709,46.3365h 1.89608" fill="none" stroke="black"/>
<path d="M340.657,58.5447v 8.25176" fill="none" stroke="black"/>
<path d="M339.709,66.7964h 1.89608" fill="none" stroke="black"/>
<path d="M345.193,62.6562v -13.2035" fill="none" stroke="black"/>
<path d="M344.245,49.4528h 1.89608" fill="none" stroke="black"/>
<path d="M345.193,62.6562v 8.25176" fill="none" stroke="black"/>
<path d="M344.245,70.908h 1.89608" fill="none" stroke="black"/>
<path d="M349.728,63.2162v -13.779" fill="none" stroke="black"/>
<path d="M348.78,49.4373h 1.89608" fill="none" stroke="black"/>
<path d="M349.728,63.2162v 8.25176" fill="none" stroke="black"/>
<path d="M348.78,71.468h 1.89608" fill="none" stroke="black"/>
<path d="M354.264,63.3244v -14.3502" fill="none" stroke="black"/>
<path d="M353.316,48.9742h 1.89608" fill="none" stroke="black"/>
<path d="M354.264,63.3244v 8.25176" fill="none" stroke="black"/>
<path d="M353.316,71.5761h 1.89608" fill="none" stroke="black"/>
<path d="M358.799,60.9298v -14.2421" fill="none" stroke="black"/>
<path d="M357.851,46.6877h 1.89608" fill="none" stroke="black"/>
<path d="M358.799,60.9298v 8.25176" fill="none" stroke="black"/>
<path d="M357.851,69.1816h 1.89608" fill="none" stroke="black"/>
<path d="M363.335,68.0945v -8.25176" fill="none" stroke="black"/>
<path d="M362.387,59.8427h 1.89608" fill="none" stroke="black"/>
<path d="M363.335,68.0945v 3.27093" fill="none" stroke="black"/>
<path d="M362.387,71.3654h 1.89608" fill="none" stroke="black"/>
<path d="M367.87,63.4347v -16.4422" fill="none" stroke="black"/>
<path d="M366.922,46.9924h 1.89608" fill="none" stroke="black"/>
<path d="M367.87,63.4347v 8.25176" fill="none" stroke="black"/>
<path d="M366.922,71.6864h 1.89608" fill="none" stroke="black"/>
<path d="M372.406,64.8011v -8.25176" fill="none" stroke="black"/>
<path d="M371.457,56.5494h 1.89608" fill="none" stroke="black"/>
<path d="M372.406,64.8011v 3.66757" fill="none" stroke="black"/>
<path d="M371.457,68.4687h 1.89608" fill="none" stroke="black"/>
<path d="M376.941,60.3501v -16.4422" fill="none" stroke="black"/>
<path d="M375.993,43.9078h 1.89608" fill="none" stroke="black"/>
<path d="M376.941,60.3501v 8.25176" fill="none" stroke="black"/>
<path d="M375.993,68.6018h 1.89608" fill="none" stroke="black"/>
<path d="M381.476,45.3843v -11.9147" fill="none" stroke="black"/>
<path d="M380.528,33.4696h 1.89608" fill="none" stroke="black"/>
<path d="M381.476,45.3843v 8.25176" fill="none" stroke="black"/>
<path d="M380.528,53.6361h 1.89608" fill="none" stroke="black"/>
<path d="M386.012,54.1404v -14.4472" fill="none" stroke="black"/>
<path d="M385.064,39.6932h 1.89608" fill="none" stroke="black"/>
<path d="M386.012,54.1404v 8.25176" fill="none" stroke="black"/>
<path d="M385.064,62.3921h 1.89608" fill="none" stroke="black"/>
<path d="M390.547,53.4088v -14.4472" fill="none" stroke="black"/>
<path d="M389.599,38.9616h 1.89608" fill="none" stroke="black"/>
<path d="M390.547,53.4088v 8.25176" fill="none" stroke="black"/>
<path d="M389.599,61.6606h 1.89608" fill="none" stroke="black"/>
<path d="M395.083,56.3224v -16.4422" fill="none" stroke="black"/>
<path d="M394.135,39.8801h 1.89608" fill="none" stroke="black"/>
<path d="M395.083,56.3224v 8.25176" fill="none" stroke="black"/>
<path d="M394.135,64.5741h 1.89608" fill="none" stroke="black"/>
<path d="M399.618,53.0833v -14.8411" fill="none" stroke="black"/>
<path d="M398.67,38.2421h 1.89608" fill="none" stroke="black"/>
<path d="M399.618,53.0833v 8.25176" fill="none" stroke="black"/>
<path d="M398.67,61.335h 1.89608" fill="none" stroke="black"/>
<path d="M404.154,51.757v -14.4472" fill="none" stroke="black"/>
<path d="M403.206,37.3099h 1.89608" fill="none" stroke="black"/>
<path d="M404.154,51.757v 8.25176" fill="none" stroke="black"/>
<path d="M403.206,60.0088h 1.89608" fill="none" stroke="black"/>
<path d="M408.689,59.2826v -22.2099" fill="none" stroke="black"/>
<path d="M407.741,37.0727h 1.89608" fill="none" stroke="black"/>
<path d="M408.689,59.2826v 8.25176" fill="none" stroke="black"/>
<path d="M407.741,67.5344h 1.89608" fill="none" stroke="black"/>
<path d="M413.224,60.9673v -27.5017" fill="none" stroke="black"/>
<path d="M412.276,33.4656h 1.89608" fill="none" stroke="black"/>
<path d="M413.224,60.9673v 8.25176" fill="none" stroke="black"/>
<path d="M412.276,69.219h 1.89608" fill="none" stroke="black"/>
<path d="M417.76,57.5783v -21.6225" fill="none" stroke="black"/>
<path d="M416.812,35.9558h 1.89608" fill="none" stroke="black"/>
<path d="M417.76,57.5783v 8.25176" fill="none" stroke="black"/>
<path d="M416.812,65.8301h 1.89608" fill="none" stroke="black"/>
<path d="M422.295,53.3542v -16.4422" fill="none" stroke="black"/>
<path d="M421.347,36.912h 1.89608" fill="none" stroke="black"/>
<path d="M422.295,53.3542v 8.25176" fill="none" stroke="black"/>
<path d="M421.347,61.606h 1.89608" fill="none" stroke="black"/>
<path d="M426.831,60.0307v -32.6914" fill="none" stroke="black"/>
<path d="M425.883,27.3393h 1.89608" fill="none" stroke="black"/>
<path d="M426.831,60.0307v 8.25176" fill="none" stroke="black"/>
<path d="M425.883,68.2825h 1.89608" fill="none" stroke="black"/>
<path d="M431.366,54.3986v -18.5658" fill="none" stroke="black"/>
<path d="M430.418,35.8327h 1.89608" fill="none" stroke="black"/>
<path d="M431.366,54.3986v 8.25176" fill="none" stroke="black"/>
<path d="M430.418,62.6503h 1.89608" fill="none" stroke="black"/>
<path d="M435.902,55.4716v -20.8172" fill="none" stroke="black"/>
<path d="M434.954,34.6544h 1.89608" fill="none" stroke="black"/>
<path d="M435.902,55.4716v 8.25176" fill="none" stroke="black"/>
<path d="M434.954,63.7233h 1.89608" fill="none" stroke="black"/>
<path d="M440.437,58.07v -32.6914" fill="none" stroke="black"/>
<path d="M439.489,25.3786h 1.89608" fill="none" stroke="black"/>
<path d="M440.437,58.07v 8.25176" fill="none" stroke="black"/>
<path d="M439.489,66.3218h 1.89608" fill="none" stroke="black"/>
<path d="M444.972,57.585v -32.6914" fill="none" stroke="black"/>
<path d="M444.024,24.8936h 1.89608" fill="none" stroke="black"/>
<path d="M444.972,57.585v 8.25176" fill="none" stroke="black"/>
<path d="M444.024,65.8368h 1.89608" fill="none" stroke="black"/>
<path d="M449.508,65.5075v -8.25176" fill="none" stroke="black"/>
<path d="M448.56,57.2557h 1.89608" fill="none" stroke="black"/>
<path d="M454.043,56.8034v -32.6914" fill="none" stroke="black"/>
<path d="M453.095,24.112h 1.89608" fill="none" stroke="black"/>
<path d="M454.043,56.8034v 8.25176" fill="none" stroke="black"/>
<path d="M453.095,65.0551h 1.89608" fill="none" stroke="black"/>
<path d="M458.579,55.1897v -22.2099" fill="none" stroke="black"/>
<path d="M457.631,32.9798h 1.89608" fill="none" stroke="black"/>
<path d="M458.579,55.1897v 8.25176" fill="none" stroke="black"/>
<path d="M457.631,63.4415h 1.89608" fill="none" stroke="black"/>
<path d="M463.114,52.9894v -18.2101" fill="none" stroke="black"/>
<path d="M462.166,34.7793h 1.89608" fill="none" stroke="black"/>
<path d="M463.114,52.9894v 8.25176" fill="none" stroke="black"/>
<path d="M462.166,61.2411h 1.89608" fill="none" stroke="black"/>
<path d="M467.65,51.7238v -16.4422" fill="none" stroke="black"/>
<path d="M466.702,35.2816h 1.89608" fill="none" stroke="black"/>
<path d="M467.65,51.7238v 8.25176" fill="none" stroke="black"/>
<path d="M466.702,59.9755h 1.89608" fill="none" stroke="black"/>
<path d="M472.185,54.8242v -22.2099" fill="none" stroke="black"/>
<path d="M471.237,32.6143h 1.89608" fill="none" stroke="black"/>
<path d="M472.185,54.8242v 8.25176" fill="none" stroke="black"/>
<path d="M471.237,63.0759h 1.89608" fill="none" stroke="black"/>
<path d="M476.72,64.9011v -8.25176" fill="none" stroke="black"/>
<path d="M475.772,56.6494h 1.89608" fill="none" stroke="black"/>
<path d="M481.256,55.3458v -30.2582" fill="none" stroke="black"/>
<path d="M480.308,25.0876h 1.89608" fill="none" stroke="black"/>
<path d="M481.256,55.3458v 8.25176" fill="none" stroke="black"/>
<path d="M480.308,63.5976h 1.89608" fill="none" stroke="black"/>
<path d="M485.791,64.7914v -8.25176" fill="none" stroke="black"/>
<path d="M484.843,56.5396h 1.89608" fill="none" stroke="black"/>
<path d="M490.327,55.2128v -32.0047" fill="none" stroke="black"/>
<path d="M489.379,23.2081h 1.89608" fill="none" stroke="black"/>
<path d="M490.327,55.2128v 8.25176" fill="none" stroke="black"/>
<path d="M489.379,63.4645h 1.89608" fill="none" stroke="black"/>
<path d="M494.862,55.1151v -31.907" fill="none" stroke="black"/>
<path d="M493.914,23.2081h 1.89608" fill="none" stroke="black"/>
<path d="M494.862,55.1151v 8.25176" fill="none" stroke="black"/>
<path d="M493.914,63.3668h 1.89608" fill="none" stroke="black"/>
<path d="M499.398,64.6765v -8.25176" fill="none" stroke="black"/>
<path d="M498.45,56.4247h 1.89608" fill="none" stroke="black"/>
<path d="M503.933,64.6481v -8.25176" fill="none" stroke="black"/>
<path d="M502.985,56.3963h 1.89608" fill="none" stroke="black"/>
<path d="M508.469,64.6235v -8.25176" fill="none" stroke="black"/>
<path d="M507.52,56.3718h 1.89608" fill="none" stroke="black"/>
<g stroke="black" stroke-width="1" fill="black">
<circle cx="59.4606" cy="64.4669" r="1.89608"/>
<circle cx="63.9961" cy="64.4669" r="1.89608"/>
<circle cx="68.5315" cy="64.4669" r="1.89608"/>
<circle cx="73.0669" cy="64.4669" r="1.89608"/>
<circle cx="77.6024" cy="64.4669" r="1.89608"/>
<circle cx="82.1378" cy="64.4669" r="1.89608"/>
<circle cx="86.6732" cy="64.4669" r="1.89608"/>
<circle cx="91.2087" cy="64.4669" r="1.89608"/>
<circle cx="95.7441" cy="64.4669" r="1.89608"/>
<circle cx="100.28" cy="64.4669" r="1.89608"/>
<circle cx="104.815" cy="64.4669" r="1.89608"/>
<circle cx="109.35" cy="64.4669" r="1.89608"/>
<circle cx="113.886" cy="64.467" r="1.89608"/>
<circle cx="118.421" cy="64.4684" r="1.89608"/>
<circle cx="122.957" cy="54.1737" r="1.89608"/>
<circle cx="127.492" cy="46.6298" r="1.89608"/>
<circle cx="132.028" cy="46.8779" r="1.89608"/>
<circle cx="136.563" cy="42.0783" r="1.89608"/>
<circle cx="141.098" cy="41.3967" r="1.89608"/>
<circle cx="145.634" cy="49.0844" r="1.89608"/>
<circle cx="150.169" cy="84.2814" r="1.89608"/>
<circle cx="154.705" cy="91.8409" r="1.89608"/>
</g>
<g stroke="black" stroke-width="1" fill="black">
<circle cx="168.311" cy="42.7636" r="1.89608"/>
<circle cx="172.846" cy="66.7687" r="1.89608"/>
<circle cx="177.382" cy="24.1207" r="1.89608"/>
<circle cx="181.917" cy="36.994" r="1.89608"/>
<circle cx="186.453" cy="60.1555" r="1.89608"/>
<circle cx="190.988" cy="60.7472" r="1.89608"/>
<circle cx="195.524" cy="74.0902" r="1.89608"/>
<circle cx="200.059" cy="64.6527" r="1.89608"/>
<circle cx="204.594" cy="45.2335" r="1.89608"/>
<circle cx="209.13" cy="69.8236" r="1.89608"/>
<circle cx="213.665" cy="78.4317" r="1.89608"/>
<circle cx="218.201" cy="75.7853" r="1.89608"/>
<circle cx="222.736" cy="66.119" r="1.89608"/>
<circle cx="227.272" cy="74.1001" r="1.89608"/>
<circle cx="231.807" cy="77.1824" r="1.89608"/>
<circle cx="236.343" cy="69.3998" r="1.89608"/>
<circle cx="240.878" cy="89.3989" r="1.89608"/>
<circle cx="245.413" cy="64.7782" r="1.89608"/>
<circle cx="249.949" cy="67.8027" r="1.89608"/>
<circle cx="254.484" cy="79.7809" r="1.89608"/>
<circle cx="259.02" cy="71.6559" r="1.89608"/>
<circle cx="263.555" cy="83.1805" r="1.89608"/>
<circle cx="268.091" cy="67.6993" r="1.89608"/>
<circle cx="272.626" cy="70.6026" r="1.89608"/>
<circle cx="277.161" cy="71.4918" r="1.89608"/>
<circle cx="281.697" cy="74.4436" r="1.89608"/>
<circle cx="286.232" cy="75.3476" r="1.89608"/>
<circle cx="290.768" cy="64.9208" r="1.89608"/>
<circle cx="295.303" cy="54.8919" r="1.89608"/>
<circle cx="299.839" cy="73.476" r="1.89608"/>
<circle cx="304.374" cy="60.5602" r="1.89608"/>
<circle cx="308.909" cy="69.706" r="1.89608"/>
<circle cx="313.445" cy="52.3713" r="1.89608"/>
<circle cx="317.98" cy="64.2563" r="1.89608"/>
<circle cx="322.516" cy="50.8799" r="1.89608"/>
<circle cx="327.051" cy="56.2015" r="1.89608"/>
<circle cx="331.587" cy="61.9526" r="1.89608"/>
<circle cx="336.122" cy="60.7758" r="1.89608"/>
<circle cx="340.657" cy="58.5447" r="1.89608"/>
<circle cx="345.193" cy="62.6562" r="1.89608"/>
<circle cx="349.728" cy="63.2162" r="1.89608"/>
<circle cx="354.264" cy="63.3244" r="1.89608"/>
<circle cx="358.799" cy="60.9298" r="1.89608"/>
<circle cx="363.335" cy="68.0945" r="1.89608"/>
<circle cx="367.87" cy="63.4347" r="1.89608"/>
<circle cx="372.406" cy="64.8011" r="1.89608"/>
<circle cx="376.941" cy="60.3501" r="1.89608"/>
<circle cx="381.476" cy="45.3843" r="1.89608"/>
<circle cx="386.012" cy="54.1404" r="1.89608"/>
<circle cx="390.547" cy="53.4088" r="1.89608"/>
<circle cx="395.083" cy="56.3224" r="1.89608"/>
<circle cx="399.618" cy="53.0833" r="1.89608"/>
<circle cx="404.154" cy="51.757" r="1.89608"/>
<circle cx="408.689" cy="59.2826" r="1.89608"/>
<circle cx="413.224" cy="60.9673" r="1.89608"/>
<circle cx="417.76" cy="57.5783" r="1.89608"/>
<circle cx="422.295" cy="53.3542" r="1.89608"/>
<circle cx="426.831" cy="60.0307" r="1.89608"/>
<circle cx="431.366" cy="54.3986" r="1.89608"/>
<circle cx="435.902" cy="55.4716" r="1.89608"/>
<circle cx="440.437" cy="58.07" r="1.89608"/>
<circle cx="444.972" cy="57.585" r="1.89608"/>
<circle cx="449.508" cy="65.5075" r="1.89608"/>
<circle cx="454.043" cy="56.8034" r="1.89608"/>
<circle cx="458.579" cy="55.1897" r="1.89608"/>
<circle cx="463.114" cy="52.9894" r="1.89608"/>
<circle cx="467.65" cy="51.7238" r="1.89608"/>
<circle cx="472.185" cy="54.8242" r="1.89608"/>
<circle cx="476.72" cy="64.9011" r="1.89608"/>
<circle cx="481.256" cy="55.3458" r="1.89608"/>
<circle cx="485.791" cy="64.7914" r="1.89608"/>
<circle cx="490.327" cy="55.2128" r="1.89608"/>
<circle cx="494.862" cy="55.1151" r="1.89608"/>
<circle cx="499.398" cy="64.6765" r="1.89608"/>
<circle cx="503.933" cy="64.6481" r="1.89608"/>
<circle cx="508.469" cy="64.6235" r="1.89608"/>
</g>
<path d="M57.1929,105.726h 453.543" fill="none" stroke="black"/>
<path d="M57.1929,102.631v 3.09441" fill="none" stroke="black"/>
<path d="M68.5315,104.178v 1.5472" fill="none" stroke="black"/>
<path d="M79.8701,104.178v 1.5472" fill="none" stroke="black"/>
<path d="M91.2087,104.178v 1.5472" fill="none" stroke="black"/>
<path d="M102.547,102.631v 3.09441" fill="none" stroke="black"/>
<path d="M113.886,104.178v 1.5472" fill="none" stroke="black"/>
<path d="M125.224,104.178v 1.5472" fill="none" stroke="black"/>
<path d="M136.563,104.178v 1.5472" fill="none" stroke="black"/>
<path d="M147.902,102.631v 3.09441" fill="none" stroke="black"/>
<path d="M159.24,104.178v 1.5472" fill="none" stroke="black"/>
<path d="M170.579,104.178v 1.5472" fill="none" stroke="black"/>
<path d="M181.917,104.178v 1.5472" fill="none" stroke="black"/>
<path d="M193.256,102.631v 3.09441" fill="none" stroke="black"/>
<path d="M204.594,104.178v 1.5472" fill="none" stroke="black"/>
<path d="M215.933,104.178v 1.5472" fill="none" stroke="black"/>
<path d="M227.272,104.178v 1.5472" fill="none" stroke="black"/>
<path d="M238.61,102.631v 3.09441" fill="none" stroke="black"/>
<path d="M249.949,104.178v 1.5472" fill="none" stroke="black"/>
<path d="M261.287,104.178v 1.5472" fill="none" stroke="black"/>
<path d="M272.626,104.178v 1.5472" fill="none" stroke="black"/>
<path d="M283.965,102.631v 3.09441" fill="none" stroke="black"/>
<path d="M295.303,104.178v 1.5472" fill="none" stroke="black"/>
<path d="M306.642,104.178v 1.5472" fill="none" stroke="black"/>
<path d="M317.98,104.178v 1.5472" fill="none" stroke="black"/>
<path d="M329.319,102.631v 3.09441" fill="none" stroke="black"/>
<path d="M340.657,104.178v 1.5472" fill="none" stroke="black"/>
<path d="M351.996,104.178v 1.5472" fill="none" stroke="black"/>
<path d="M363.335,104.178v 1.5472" fill="none" stroke="black"/>
<path d="M374.673,102.631v 3.09441" fill="none" stroke="black"/>
<path d="M386.012,104.178v 1.5472" fill="none" stroke="black"/>
<path d="M397.35,104.178v 1.5472" fill="none" stroke="black"/>
<path d="M408.689,104.178v 1.5472" fill="none" stroke="black"/>
<path d="M420.028,102.631v 3.09441" fill="none" stroke="black"/>
<path d="M431.366,104.178v 1.5472" fill="none" stroke="black"/>
<path d="M442.705,104.178v 1.5472" fill="none" stroke="black"/>
<path d="M454.043,104.178v 1.5472" fill="none" stroke="black"/>
<path d="M465.382,102.631v 3.09441" fill="none" stroke="black"/>
<path d="M476.72,104.178v 1.5472" fill="none" stroke="black"/>
<path d="M488.059,104.178v 1.5472" fill="none" stroke="black"/>
<path d="M499.398,104.178v 1.5472" fill="none" stroke="black"/>
<path d="M510.736,102.631v 3.09441" fill="none" stroke="black"/>
<path d="M57.1929,105.726v -82.5176" fill="none" stroke="black"/>
<path d="M68.078,97.4739h -10.885" fill="none" stroke="black"/>
<path d="M68.078,80.9704h -10.885" fill="none" stroke="black"/>
<path d="M68.078,64.4669h -10.885" fill="none" stroke="black"/>
<path d="M68.078,47.9633h -10.885" fill="none" stroke="black"/>
<path d="M68.078,31.4598h -10.885" fill="none" stroke="black"/>
<path d="M68.078,97.4739h -10.885" fill="none" stroke="black"/>
<path d="M68.078,31.4598h -10.885" fill="none" stroke="black"/>
<text xml:space="preserve" x="262.634" y="6.16227" fill="black" font-size="6.02995" font-family="Helvetica">A RooPlot of "m"</text></svg>
